<svg xmlns="http://www.w3.org/2000/svg" viewBox="0 0 420 320" role="img" aria-label="Unlabeled north-up street-grid crop" data-orientation="north-up">
<metadata>{"orientation":"north-up","projection":"local-web-mercator"}</metadata>
<defs>
<clipPath id="mapCrop"><rect x="8" y="8" width="404" height="304" rx="16"/></clipPath>
</defs>
<rect width="420" height="320" fill="#ede7d8"/>
<rect x="8" y="8" width="404" height="304" rx="16" fill="#f7f1e3" stroke="#d8cbb2" stroke-width="1.25"/>
<g clip-path="url(#mapCrop)">
<g data-layer="major-road-casing">
<path d="M211 160.3 L211.9 157.9 L209.9 155.3 M213.8 145.7 L228.7 128.6 M207 161.1 L211 160.3 M205.3 155.7 L201.9 159.7 M189.4 163.1 L168.3 167.6 M208.5 152.6 L213.3 146.7 M211.9 146.2 L207.2 152.4 M171.6 167.6 L189.5 163.5 M203 161.3 L207 161.1 M191 163.2 L199.1 161.6 M199 161.3 L190.8 162.8 M203.2 149.5 L206.3 153.7 M199.1 161.6 L203 161.3 M207.2 152.4 L203.6 149.2 M201.9 159.7 L199 161.3 M196.9 145.5 L203.2 149.5 M203.6 149.2 L197.1 145.4 M197.1 145.4 L187.2 137.4 M206.3 153.7 L205.3 155.7 M209.9 155.3 L209 154.4 M271.7 112.5 L247.1 114.8 L239.1 117.5 L213 145.3 M189.6 140.1 L196.9 145.5 M207.2 152.4 L206.3 153.7 M209 154.4 L208.2 153.4 M208.2 153.4 L207.2 152.4 M208.2 153.4 L208.5 152.6 M182.7 139 L209.1 131.6 M168.3 167.6 L129.4 177.5 M230.2 126.9 L237.2 119.4 L243.6 116.1 L272 114.3 M204.8 185.6 L231.9 194 M239.5 197.9 L225.5 190.9 L205.1 185.5 M209.3 131.7 L211.9 145.9 M212.7 145.3 L209.8 131.7 M211.9 146.2 L213.3 146.7 M129.7 178.4 L161.3 170.1 M213.3 146.7 L213.8 145.7 M212.7 145.3 L211.9 145.9 M213.8 145.7 L213 145.3 M190 163.4 L191 163.2 M190.8 162.8 L189.9 163 M187.2 137.4 L160.2 110 L145.8 98.6 M213.2 213.4 L197.7 188.4 M156.7 144.8 L178.9 140.2 M205.1 185.5 L195.6 180.3 M209.8 131.4 L226.3 126.9 M205.5 99.5 L209.2 131.3 M195.2 181.1 L204.8 185.6 M161.2 163.9 L137.3 152.1 M209.1 125.3 L206.1 99.3 M181 173.9 L187.2 176.9 M174.2 170.5 L181 173.9 M194.1 181.2 L196.3 186.3 M187.2 176.9 L191.9 179.1 M196.3 186.3 L194.7 181.3 M210 166.5 L211 160.3 M207 161.1 L209.2 162.5 L210 166.5 M179.7 165.2 L171.2 149.2 L166.8 145.1 M210 166.5 L205.7 174.8 M205.7 174.8 L211.7 181.6 L205.1 185.5 M209.6 131.2 L209.1 125.3 M194 179.9 L191.9 179.1 M191.9 179.1 L193.6 180.4 M137.4 151.7 L155.1 145.3 M170.4 168.6 L174.2 170.5 M193.6 180.7 L195.2 181.1 M195.6 180.3 L194 179.9 M178.9 140.2 L182.7 139 M193.6 180.7 L147.4 202 M147.8 202.5 L193.8 181.1 M197.7 188.4 L196.3 186.3 M195.2 181.1 L195.6 180.3 M194 179.9 L193.6 180.4 M272.2 114.4 L276.1 120.5 L285.1 124.7 L296.2 134.8 M246.5 171 L239.4 182.6 M165 165.9 L161.2 163.9 M309.1 144.9 L306.8 140.5 L277.6 120.7 L274.4 116 M193.6 180.4 L193.6 180.7 M209.1 131.5 L209.1 131.5 M170.4 168.6 L168.3 167.6 M230.2 126.9 L226.3 126.9 M175.8 158.5 L162.6 162.7 M246.5 171 L250.2 161.9 M159.8 166.7 L126 167.5 M258.8 103.4 L247.7 106.4 L241.5 105.6 L207 115.5 M260.4 154.4 L261.3 149.4 L269.7 144.1 M239.4 182.6 L242.9 191.2 M231.9 194 L242.9 191.2 M270.7 145.8 L291.4 151.3 M212 216.4 L171.5 231.5 M248 200.6 L242.9 191.2 M161.2 163.9 L160.4 169.6 M254.8 157 L260.4 154.4 M250.2 161.9 L253.1 160.8 M256.1 159.6 L254.8 157 M251.1 160.4 L250.2 161.9 M124.2 172.2 L105.9 147.5 M226.8 213.4 L243.5 213.5 M251.1 160.4 L253.1 160.8 M256.1 159.6 L254.7 161.4 M208.5 98.3 L233.9 86.7 L236.9 77.4 M209 154.4 L205.3 155.7 M205.1 185.5 L204.8 185.6 M253.1 160.8 L254.7 161.4 M204.9 101.7 L159.7 68.8 M226.8 213.4 L214.4 215.2 M214.8 215.7 L226.8 213.4 M165.1 143.8 L166.8 145.1 M162.6 162.7 L161.2 163.9 M166.8 144.8 L165.9 143.7 M201.9 159.7 L203 161.3 M288 140.9 L291.4 151.3 M118.5 192.9 L137.5 191.3 M300.1 133.3 L293.8 123.9 L301.1 118.9 M208.3 151.3 L206.2 151.6 M166.8 145.1 L166.8 144.8 M258.8 103.4 L257 95.9 L260.8 91.6 L260.9 88.8 M275.7 101.6 L267.7 101.1 L258.8 103.4 M269.7 144.1 L270.7 145.8 M214 144 L211.5 143.5 M250.5 202.6 L248 200.6 M189.5 161.8 L188.6 163.3 M203.2 149.5 L203.6 149.2 M201.5 147.8 L201.1 148.1 M196.9 145.5 L197.1 145.4 M188.6 138.6 L189 137 M193.2 142.9 L193.5 142.8 M207.4 132.1 L209.5 133.3 M205.3 173.8 L203.7 174.5 M152.8 145 L152.8 146.1 M254.3 204.6 L250.8 206 M250.6 204.9 L253.1 203.9 M166.8 144.8 L168.1 143.3 M208.5 98.3 L206 97.5 M229.8 242.8 L228.9 247.7 M235.9 246.9 L231.2 243 M307.6 141.7 L307.2 140.2 M307.2 140.2 L305.8 139.9 M255.2 229 L253.7 229.2 M192.3 92.6 L191.6 93.8 M192.4 93.8 L192.7 92.9 M58 207.6 L62.3 207.7 M57.9 204 L60.1 203.6 M58.1 205.1 L58 207.3 M62.3 207.3 L63 206.1 M58.7 203.4 L57.1 204.4 M129.8 56 L129.8 54.8 M145.3 98.9 L159.7 110.3 L186.6 137.6 M211.9 145.9 L211.9 146.2 M189.5 163.5 L190 163.4 M189.9 163 L189.4 163.1 M186.6 137.6 L189.6 140.1 M213 145.3 L212.7 145.3 M161.3 170.1 L166.6 169.7 M170 232.4 L139.1 191 M167.9 169.7 L170.4 168.6 M170.4 168.6 L171.6 167.6 M137.7 191.5 L167.6 232.4 M228.7 128.6 L230.2 126.9 M166.6 169.7 L167.9 169.7 M119.4 143.6 L122.9 156.8 M122.9 156.8 L126 167.5 M127.9 177.8 L83.7 189.4 M138.9 190.7 L133.2 183.2 M123.6 156.6 L120.4 145 M126.3 166 L123.6 156.6 M168.3 167.6 L166.3 166.5 M132.1 183.7 L137.5 191.1 M226.3 126.9 L229.7 127.4 M231.9 194 L236.2 196.4 M281.4 112.6 L319.3 107.9 M117.5 134.8 L109.2 101.5 M247 201.4 L239.5 197.9 M239.9 198.5 L248 202.1 M70.5 193.4 L127.4 178.8 M232.7 244.7 L215.3 216.8 M214 217.3 L231.5 245 M248 202.1 L250.6 204.9 L251.8 212.4 M273.8 112.5 L277 100.1 M236.2 196.4 L239.9 198.5 M105 90.2 L116.8 134.8 M166.3 166.5 L165.6 166.1 M122.1 144.5 L136.4 151.7 M165.6 166.1 L165 165.9 M132.4 182.4 L129.6 178.6 M195.1 266.5 L188.2 256.9 L189.8 250.5 L188.6 246.3 L176.4 240.7 L170 232.4 M123.6 156.6 L136.4 152 M129 178.9 L131.7 182.7 M126.9 171.6 L127.1 176 M127.7 171.5 L126.7 167.5 M191 64.1 L203.9 82 L205.5 99.5 M119.9 143.2 L117.5 134.8 M126 167.5 L126.9 171.6 M128.6 175.3 L127.7 171.5 M206 97.5 L204.4 81.6 L191.7 64 M168.1 233 L174.5 241.9 L173.6 251.4 L176.7 254.5 L186.1 257.6 L193.6 267.4 M155.1 145.3 L156.7 144.8 M275 104 L272.7 110.2 M129.1 177.4 L128.6 175.3 M250.5 202.6 L247 201.4 M137.7 191.5 L139.1 191 M296.2 134.8 L306.2 140.7 L309.1 144.9 M254.3 204.6 L250.5 202.6 M138.9 190.7 L137.5 191.1 M126.7 167.5 L126.3 166 M127.1 176 L128 177.7 M273.1 115.5 L279.1 122.1 M115.9 73 L140.1 94.3 M141.2 94.4 L114.9 71 M277 100.1 L279.7 89.5 M274.2 113.8 L277.6 113.1 M271.7 112.5 L272 114.3 M133.2 183.2 L132.4 182.4 M70.8 130.6 L101.4 135.3 L116 141.5 M253.7 229.2 L248.2 218.9 M131.7 182.7 L132.1 183.7 M277.5 112.7 L274 112.7 M279.7 89.5 L285.7 65.7 M129.7 178.4 L129.4 177.5 M272.7 110.2 L272.2 112.3 M253.7 218.1 L255.2 229 M127.9 177.8 L128.6 178.8 M117.5 137.6 L118.5 141.1 M129.1 177.4 L128 177.7 M260.2 210.7 L257.1 206.8 M257.1 206.8 L254.3 204.6 M139.1 191 L138.9 190.7 M273.2 111.6 L276.6 101.3 M127.4 178.8 L128.6 178.8 M213.2 213.4 L213.5 215.3 M128.9 178.8 L129.6 178.5 M137.5 191.1 L137.7 191.5 M214.1 215.1 L213.2 213.4 M272.2 114.4 L273.5 114.3 M273.8 112.5 L272.2 112.3 M277 120.1 L273.5 115.5 M100.4 164.8 L115 159.6 M274.2 113.8 L274 112.7 M115 159.6 L122.9 156.8 M251.8 212.4 L256.6 212.3 M116.8 134.8 L117.5 137.6 M273.5 114.3 L274.2 113.8 M278.9 89.3 L277 97 M275 104 L272.8 111.6 M129.4 177.5 L129.1 177.4 M277 97 L275.7 101.6 M128.6 178.8 L128.9 178.8 M249.5 213.4 L253.5 212.5 M129.6 178.6 L129.6 178.5 M281.4 112.6 L279.2 112.5 M279.3 112.9 L281.4 112.6 M279.2 112.5 L277.5 112.7 M277.6 113.1 L279.3 112.9 M129.6 178.5 L129.7 178.4 M137.3 152.1 L136.4 151.7 M253.7 218.1 L251.7 214.2 M128.9 178.8 L129 178.9 M128 177.7 L127.9 177.8 M316.4 153.9 L309.1 144.9 M272.2 112.3 L271.7 112.5 M141.2 95.5 L145.3 98.9 M214.4 215.2 L213.3 215.6 M275.7 101.6 L275 104 M272 114.3 L272.2 114.4 M215.3 216.8 L214.6 216 M120.1 143.9 L119.9 143.2 M213.8 216.2 L214.8 215.7 M118.5 141.1 L118.9 142 M118.9 142 L119.2 142.9 M120.4 145 L120.2 144.5 M196.5 266 L229.4 247.8 M318.1 159.6 L326.9 165.8 L341 171.5 L356 194.1 L356.7 200.2 M214.8 215.7 L214.4 215.2 M253.5 212.5 L256.6 212.3 M119.2 142.9 L119.4 143.6 M120.2 144.5 L120.1 143.9 M214.1 216.2 L213.9 217 M136.4 152 L137.2 152.2 M213.3 215.6 L213.8 216.2 M251.7 214.2 L253.5 212.5 M274 112.7 L273.8 112.5 M249.5 213.4 L250.9 214.9 M248.2 218.9 L249.6 216.3 M206.1 99.3 L206 97.5 M258.7 212.4 L260.2 210.7 M222.2 251.5 L196.4 265.8 M136.4 151.7 L136.4 152 M249.6 216.3 L250.9 214.9 M137.2 152.2 L137.3 152.1 M256.6 237.2 L246 249.8 M256.6 212.3 L258.7 212.4 M272.7 112.1 L272.7 114.4 M356.8 202.3 L356.4 194 L342.9 173.1 L339.3 169.9 L324.4 164 M213.9 217 L214 217.3 M145.8 98.6 L144 97.2 M144 97.2 L142.1 95.1 M273 114.4 L273 112.3 M253.7 229.2 L256.6 237.2 M274.4 116 L273.5 114.3 M256.9 237 L255.2 229 M250.9 214.9 L251.7 214.2 M272.7 114.4 L273.1 115.5 M273.5 115.5 L273 114.4 M109.2 101.5 L106.5 90.2 M323.5 107.3 L345.9 104.2 M121.8 144.2 L119.9 143.2 M251.8 212.4 L244.2 213.5 M271 32.7 L283.9 40.6 L287.9 47.7 L278.9 89.3 M112.7 71.3 L105.4 88.5 M167.6 232.4 L168.1 233 M106.6 88.9 L113.2 73.2 M122.9 156.8 L123.6 156.6 M119.2 142.9 L117.1 141.8 M27.6 160.9 L43.7 162.9 L82.7 160.1 L95.6 163.9 M248.2 218.9 L244.2 213.5 M120.1 143.9 L121.5 144.5 M294.2 136.1 L288 140.9 M324.4 164 L318.1 159.6 M117.8 142.7 L119.4 143.6 M273 112.3 L273.2 111.6 M132.7 245.9 L166.5 233.4 M214.1 291.3 L195.3 266.7 M272.8 111.6 L272.7 112.1 M244.2 213.5 L249.5 213.4 M141.2 95.5 L142.1 95.1 M166.3 233.2 L124.3 248.4 M193.8 267.6 L212.3 292.2 M142.1 95.1 L141.5 94.4 M121.5 144.5 L122.1 144.5 M140.5 94.9 L141.1 95.5 M316.9 98.7 L303.7 92 L289.7 91.6 L283.2 89.6 M119.4 143.6 L120.1 143.9 M119.9 143.2 L119.2 142.9 M141.2 94.4 L140.5 94.9 M132.9 182.4 L130 178.7 M116.7 142.1 L117.8 142.7 M318.1 159.6 L316.4 156.2 M122.1 144.5 L121.8 144.2 M140.1 94.3 L140.5 94.9 M128.6 175.3 L124.2 172.2 M242.8 254.4 L216.8 290.4 M128.9 179.4 L131.4 183.1 M105.9 147.5 L96.5 134.5 M124.2 172.2 L127.1 176 M212 216.4 L213.8 216.2 M213.3 215.6 L212 216.4 M261.5 234 L272.6 253.2 M316.4 156.2 L316.4 153.9 M141.5 94.4 L141.2 94.4 M116 141.5 L116.6 141.8 M260.9 88.8 L259.6 72.4 M237.3 77.1 L259.6 72.4 M227.4 50.6 L225.2 62.5 L236.7 77 M126 167.5 L120.9 167.6 M141.1 95.5 L141.2 95.5 M290.5 255.7 L284.2 259.9 L264.2 264.1 M228.9 247.7 L222.2 251.5 M70.3 192.7 L22.3 190.1 M22.5 191 L70.5 193.4 M117.1 141.8 L116.6 141.8 M181.3 51.2 L190.7 63.7" fill="none" stroke="#fcf7e8" stroke-width="6.4" opacity="0.92" stroke-linecap="round" stroke-linejoin="round"/>
</g>
<g data-layer="major-road">
<path d="M211 160.3 L211.9 157.9 L209.9 155.3 M213.8 145.7 L228.7 128.6 M207 161.1 L211 160.3 M205.3 155.7 L201.9 159.7 M189.4 163.1 L168.3 167.6 M208.5 152.6 L213.3 146.7 M211.9 146.2 L207.2 152.4 M171.6 167.6 L189.5 163.5 M203 161.3 L207 161.1 M191 163.2 L199.1 161.6 M199 161.3 L190.8 162.8 M203.2 149.5 L206.3 153.7 M199.1 161.6 L203 161.3 M207.2 152.4 L203.6 149.2 M201.9 159.7 L199 161.3 M196.9 145.5 L203.2 149.5 M203.6 149.2 L197.1 145.4 M197.1 145.4 L187.2 137.4 M206.3 153.7 L205.3 155.7 M209.9 155.3 L209 154.4 M271.7 112.5 L247.1 114.8 L239.1 117.5 L213 145.3 M189.6 140.1 L196.9 145.5 M207.2 152.4 L206.3 153.7 M209 154.4 L208.2 153.4 M208.2 153.4 L207.2 152.4 M208.2 153.4 L208.5 152.6 M182.7 139 L209.1 131.6 M168.3 167.6 L129.4 177.5 M230.2 126.9 L237.2 119.4 L243.6 116.1 L272 114.3 M204.8 185.6 L231.9 194 M239.5 197.9 L225.5 190.9 L205.1 185.5 M209.3 131.7 L211.9 145.9 M212.7 145.3 L209.8 131.7 M211.9 146.2 L213.3 146.7 M129.7 178.4 L161.3 170.1 M213.3 146.7 L213.8 145.7 M212.7 145.3 L211.9 145.9 M213.8 145.7 L213 145.3 M190 163.4 L191 163.2 M190.8 162.8 L189.9 163 M187.2 137.4 L160.2 110 L145.8 98.6 M213.2 213.4 L197.7 188.4 M156.7 144.8 L178.9 140.2 M205.1 185.5 L195.6 180.3 M209.8 131.4 L226.3 126.9 M205.5 99.5 L209.2 131.3 M195.2 181.1 L204.8 185.6 M161.2 163.9 L137.3 152.1 M209.1 125.3 L206.1 99.3 M181 173.9 L187.2 176.9 M174.2 170.5 L181 173.9 M194.1 181.2 L196.3 186.3 M187.2 176.9 L191.9 179.1 M196.3 186.3 L194.7 181.3 M210 166.5 L211 160.3 M207 161.1 L209.2 162.5 L210 166.5 M179.7 165.2 L171.2 149.2 L166.8 145.1 M210 166.5 L205.7 174.8 M205.7 174.8 L211.7 181.6 L205.1 185.5 M209.6 131.2 L209.1 125.3 M194 179.9 L191.9 179.1 M191.9 179.1 L193.6 180.4 M137.4 151.7 L155.1 145.3 M170.4 168.6 L174.2 170.5 M193.6 180.7 L195.2 181.1 M195.6 180.3 L194 179.9 M178.9 140.2 L182.7 139 M193.6 180.7 L147.4 202 M147.8 202.5 L193.8 181.1 M197.7 188.4 L196.3 186.3 M195.2 181.1 L195.6 180.3 M194 179.9 L193.6 180.4 M272.2 114.4 L276.1 120.5 L285.1 124.7 L296.2 134.8 M246.5 171 L239.4 182.6 M165 165.9 L161.2 163.9 M309.1 144.9 L306.8 140.5 L277.6 120.7 L274.4 116 M193.6 180.4 L193.6 180.7 M209.1 131.5 L209.1 131.5 M170.4 168.6 L168.3 167.6 M230.2 126.9 L226.3 126.9 M175.8 158.5 L162.6 162.7 M246.5 171 L250.2 161.9 M159.8 166.7 L126 167.5 M258.8 103.4 L247.7 106.4 L241.5 105.6 L207 115.5 M260.4 154.4 L261.3 149.4 L269.7 144.1 M239.4 182.6 L242.9 191.2 M231.9 194 L242.9 191.2 M270.7 145.8 L291.4 151.3 M212 216.4 L171.5 231.5 M248 200.6 L242.9 191.2 M161.2 163.9 L160.4 169.6 M254.8 157 L260.4 154.4 M250.2 161.9 L253.1 160.8 M256.1 159.6 L254.8 157 M251.1 160.4 L250.2 161.9 M124.2 172.2 L105.9 147.5 M226.8 213.4 L243.5 213.5 M251.1 160.4 L253.1 160.8 M256.1 159.6 L254.7 161.4 M208.5 98.3 L233.9 86.7 L236.9 77.4 M209 154.4 L205.3 155.7 M205.1 185.5 L204.8 185.6 M253.1 160.8 L254.7 161.4 M204.9 101.7 L159.7 68.8 M226.8 213.4 L214.4 215.2 M214.8 215.7 L226.8 213.4 M165.1 143.8 L166.8 145.1 M162.6 162.7 L161.2 163.9 M166.8 144.8 L165.9 143.7 M201.9 159.7 L203 161.3 M288 140.9 L291.4 151.3 M118.5 192.9 L137.5 191.3 M300.1 133.3 L293.8 123.9 L301.1 118.9 M208.3 151.3 L206.2 151.6 M166.8 145.1 L166.8 144.8 M258.8 103.4 L257 95.9 L260.8 91.6 L260.9 88.8 M275.7 101.6 L267.7 101.1 L258.8 103.4 M269.7 144.1 L270.7 145.8 M214 144 L211.5 143.5 M250.5 202.6 L248 200.6 M189.5 161.8 L188.6 163.3 M203.2 149.5 L203.6 149.2 M201.5 147.8 L201.1 148.1 M196.9 145.5 L197.1 145.4 M188.6 138.6 L189 137 M193.2 142.9 L193.5 142.8 M207.4 132.1 L209.5 133.3 M205.3 173.8 L203.7 174.5 M152.8 145 L152.8 146.1 M254.3 204.6 L250.8 206 M250.6 204.9 L253.1 203.9 M166.8 144.8 L168.1 143.3 M208.5 98.3 L206 97.5 M229.8 242.8 L228.9 247.7 M235.9 246.9 L231.2 243 M307.6 141.7 L307.2 140.2 M307.2 140.2 L305.8 139.9 M255.2 229 L253.7 229.2 M192.3 92.6 L191.6 93.8 M192.4 93.8 L192.7 92.9 M58 207.6 L62.3 207.7 M57.9 204 L60.1 203.6 M58.1 205.1 L58 207.3 M62.3 207.3 L63 206.1 M58.7 203.4 L57.1 204.4 M129.8 56 L129.8 54.8 M145.3 98.9 L159.7 110.3 L186.6 137.6 M211.9 145.9 L211.9 146.2 M189.5 163.5 L190 163.4 M189.9 163 L189.4 163.1 M186.6 137.6 L189.6 140.1 M213 145.3 L212.7 145.3 M161.3 170.1 L166.6 169.7 M170 232.4 L139.1 191 M167.9 169.7 L170.4 168.6 M170.4 168.6 L171.6 167.6 M137.7 191.5 L167.6 232.4 M228.7 128.6 L230.2 126.9 M166.6 169.7 L167.9 169.7 M119.4 143.6 L122.9 156.8 M122.9 156.8 L126 167.5 M127.9 177.8 L83.7 189.4 M138.9 190.7 L133.2 183.2 M123.6 156.6 L120.4 145 M126.3 166 L123.6 156.6 M168.3 167.6 L166.3 166.5 M132.1 183.7 L137.5 191.1 M226.3 126.9 L229.7 127.4 M231.9 194 L236.2 196.4 M281.4 112.6 L319.3 107.9 M117.5 134.8 L109.2 101.5 M247 201.4 L239.5 197.9 M239.9 198.5 L248 202.1 M70.5 193.4 L127.4 178.8 M232.7 244.7 L215.3 216.8 M214 217.3 L231.5 245 M248 202.1 L250.6 204.9 L251.8 212.4 M273.8 112.5 L277 100.1 M236.2 196.4 L239.9 198.5 M105 90.2 L116.8 134.8 M166.3 166.5 L165.6 166.1 M122.1 144.5 L136.4 151.7 M165.6 166.1 L165 165.9 M132.4 182.4 L129.6 178.6 M195.1 266.5 L188.2 256.9 L189.8 250.5 L188.6 246.3 L176.4 240.7 L170 232.4 M123.6 156.6 L136.4 152 M129 178.9 L131.7 182.7 M126.9 171.6 L127.1 176 M127.7 171.5 L126.7 167.5 M191 64.1 L203.9 82 L205.5 99.5 M119.9 143.2 L117.5 134.8 M126 167.5 L126.9 171.6 M128.6 175.3 L127.7 171.5 M206 97.5 L204.4 81.6 L191.7 64 M168.1 233 L174.5 241.9 L173.6 251.4 L176.7 254.5 L186.1 257.6 L193.6 267.4 M155.1 145.3 L156.7 144.8 M275 104 L272.7 110.2 M129.1 177.4 L128.6 175.3 M250.5 202.6 L247 201.4 M137.7 191.5 L139.1 191 M296.2 134.8 L306.2 140.7 L309.1 144.9 M254.3 204.6 L250.5 202.6 M138.9 190.7 L137.5 191.1 M126.7 167.5 L126.3 166 M127.1 176 L128 177.7 M273.1 115.5 L279.1 122.1 M115.9 73 L140.1 94.3 M141.2 94.4 L114.9 71 M277 100.1 L279.7 89.5 M274.2 113.8 L277.6 113.1 M271.7 112.5 L272 114.3 M133.2 183.2 L132.4 182.4 M70.8 130.6 L101.4 135.3 L116 141.5 M253.7 229.2 L248.2 218.9 M131.7 182.7 L132.1 183.7 M277.5 112.7 L274 112.7 M279.7 89.5 L285.7 65.7 M129.7 178.4 L129.4 177.5 M272.7 110.2 L272.2 112.3 M253.7 218.1 L255.2 229 M127.9 177.8 L128.6 178.8 M117.5 137.6 L118.5 141.1 M129.1 177.4 L128 177.7 M260.2 210.7 L257.1 206.8 M257.1 206.8 L254.3 204.6 M139.1 191 L138.9 190.7 M273.2 111.6 L276.6 101.3 M127.4 178.8 L128.6 178.8 M213.2 213.4 L213.5 215.3 M128.9 178.8 L129.6 178.5 M137.5 191.1 L137.7 191.5 M214.1 215.1 L213.2 213.4 M272.2 114.4 L273.5 114.3 M273.8 112.5 L272.2 112.3 M277 120.1 L273.5 115.5 M100.4 164.8 L115 159.6 M274.2 113.8 L274 112.7 M115 159.6 L122.9 156.8 M251.8 212.4 L256.6 212.3 M116.8 134.8 L117.5 137.6 M273.5 114.3 L274.2 113.8 M278.9 89.3 L277 97 M275 104 L272.8 111.6 M129.4 177.5 L129.1 177.4 M277 97 L275.7 101.6 M128.6 178.8 L128.9 178.8 M249.5 213.4 L253.5 212.5 M129.6 178.6 L129.6 178.5 M281.4 112.6 L279.2 112.5 M279.3 112.9 L281.4 112.6 M279.2 112.5 L277.5 112.7 M277.6 113.1 L279.3 112.9 M129.6 178.5 L129.7 178.4 M137.3 152.1 L136.4 151.7 M253.7 218.1 L251.7 214.2 M128.9 178.8 L129 178.9 M128 177.7 L127.9 177.8 M316.4 153.9 L309.1 144.9 M272.2 112.3 L271.7 112.5 M141.2 95.5 L145.3 98.9 M214.4 215.2 L213.3 215.6 M275.7 101.6 L275 104 M272 114.3 L272.2 114.4 M215.3 216.8 L214.6 216 M120.1 143.9 L119.9 143.2 M213.8 216.2 L214.8 215.7 M118.5 141.1 L118.9 142 M118.9 142 L119.2 142.9 M120.4 145 L120.2 144.5 M196.5 266 L229.4 247.8 M318.1 159.6 L326.9 165.8 L341 171.5 L356 194.1 L356.7 200.2 M214.8 215.7 L214.4 215.2 M253.5 212.5 L256.6 212.3 M119.2 142.9 L119.4 143.6 M120.2 144.5 L120.1 143.9 M214.1 216.2 L213.9 217 M136.4 152 L137.2 152.2 M213.3 215.6 L213.8 216.2 M251.7 214.2 L253.5 212.5 M274 112.7 L273.8 112.5 M249.5 213.4 L250.9 214.9 M248.2 218.9 L249.6 216.3 M206.1 99.3 L206 97.5 M258.7 212.4 L260.2 210.7 M222.2 251.5 L196.4 265.8 M136.4 151.7 L136.4 152 M249.6 216.3 L250.9 214.9 M137.2 152.2 L137.3 152.1 M256.6 237.2 L246 249.8 M256.6 212.3 L258.7 212.4 M272.7 112.1 L272.7 114.4 M356.8 202.3 L356.4 194 L342.9 173.1 L339.3 169.9 L324.4 164 M213.9 217 L214 217.3 M145.8 98.6 L144 97.2 M144 97.2 L142.1 95.1 M273 114.4 L273 112.3 M253.7 229.2 L256.6 237.2 M274.4 116 L273.5 114.3 M256.9 237 L255.2 229 M250.9 214.9 L251.7 214.2 M272.7 114.4 L273.1 115.5 M273.5 115.5 L273 114.4 M109.2 101.5 L106.5 90.2 M323.5 107.3 L345.9 104.2 M121.8 144.2 L119.9 143.2 M251.8 212.4 L244.2 213.5 M271 32.7 L283.9 40.6 L287.9 47.7 L278.9 89.3 M112.7 71.3 L105.4 88.5 M167.6 232.4 L168.1 233 M106.6 88.9 L113.2 73.2 M122.9 156.8 L123.6 156.6 M119.2 142.9 L117.1 141.8 M27.6 160.9 L43.7 162.9 L82.7 160.1 L95.6 163.9 M248.2 218.9 L244.2 213.5 M120.1 143.9 L121.5 144.5 M294.2 136.1 L288 140.9 M324.4 164 L318.1 159.6 M117.8 142.7 L119.4 143.6 M273 112.3 L273.2 111.6 M132.7 245.9 L166.5 233.4 M214.1 291.3 L195.3 266.7 M272.8 111.6 L272.7 112.1 M244.2 213.5 L249.5 213.4 M141.2 95.5 L142.1 95.1 M166.3 233.2 L124.3 248.4 M193.8 267.6 L212.3 292.2 M142.1 95.1 L141.5 94.4 M121.5 144.5 L122.1 144.5 M140.5 94.9 L141.1 95.5 M316.9 98.7 L303.7 92 L289.7 91.6 L283.2 89.6 M119.4 143.6 L120.1 143.9 M119.9 143.2 L119.2 142.9 M141.2 94.4 L140.5 94.9 M132.9 182.4 L130 178.7 M116.7 142.1 L117.8 142.7 M318.1 159.6 L316.4 156.2 M122.1 144.5 L121.8 144.2 M140.1 94.3 L140.5 94.9 M128.6 175.3 L124.2 172.2 M242.8 254.4 L216.8 290.4 M128.9 179.4 L131.4 183.1 M105.9 147.5 L96.5 134.5 M124.2 172.2 L127.1 176 M212 216.4 L213.8 216.2 M213.3 215.6 L212 216.4 M261.5 234 L272.6 253.2 M316.4 156.2 L316.4 153.9 M141.5 94.4 L141.2 94.4 M116 141.5 L116.6 141.8 M260.9 88.8 L259.6 72.4 M237.3 77.1 L259.6 72.4 M227.4 50.6 L225.2 62.5 L236.7 77 M126 167.5 L120.9 167.6 M141.1 95.5 L141.2 95.5 M290.5 255.7 L284.2 259.9 L264.2 264.1 M228.9 247.7 L222.2 251.5 M70.3 192.7 L22.3 190.1 M22.5 191 L70.5 193.4 M117.1 141.8 L116.6 141.8 M181.3 51.2 L190.7 63.7" fill="none" stroke="#1f3733" stroke-width="2.7" opacity="0.9" stroke-linecap="round" stroke-linejoin="round"/>
</g>
<g data-layer="minor-road-casing">
<path d="M155.9 288.7 L234.8 246.6 M27 112.9 L25.2 119.7 L10.8 117.7 L9.4 114.5 L32.7 90.4 L41.5 84.1 M393.7 43.2 L380 57.9 L378.8 61.6 L386.1 74 L408.3 85.8 M91.3 273.3 L87.8 274.7 L56 229.4 M351.3 62.1 L352.5 68 L345.5 76.8 L345.9 80.6 L353.9 85.8 L360.3 95.4 L373.7 95.3 M49.5 78.1 L55.8 76.2 L77.8 75.6 L84.4 78.6 L90.8 86.2 L102.6 88.6 M205.7 93.2 L148.1 94.1 M174.5 216.3 L147.4 178.2 M90.8 86.2 L84.4 86.2 L83 80.4 L77.9 79.9 L69.5 80.1 L57.2 85.2 L51.8 77.1 M129.1 55.5 L161.6 24.3 M57.2 36.6 L44.5 53.1 L40.9 70.2 M356.5 307.1 L381.3 303 L401.9 295.2 M42.8 70.3 L46.2 53.4 L58.4 36.6 M114.9 310.8 L154.1 289.7 M294 60.6 L311.1 67.4 L321.3 81.2 L327.3 84.3 M353 223.4 L368 244.3 L371.8 252.8 L369.8 254.2 M373.6 234.6 L400.8 250.5 L409 257.2 M204.9 101.7 L179.4 104.9 L164.7 115.6 M160.2 110 L139.4 121 L119.1 123.9 M376.2 99.7 L363.8 83.2 L349.2 72.2 M59.2 172.3 L58.9 175.8 L64.5 176.1 L96.3 166.1 M187.1 53.6 L165.5 24.8 M378.4 80.5 L358.9 61.8 L367.9 58.2 M353.3 222 L360 228.6 L368.7 233.4 L382.8 236 L388.7 234.9 M410.4 224.2 L394.2 210.9 L379.7 202.9 M95.8 56.9 L88.9 64.2 L81.7 61.7 L85.4 55.9 L88.3 57.6 L84.5 63.2 M52.8 65.7 L57.3 52.9 L37 46.2 M165.1 143.8 L163 137.5 L146.5 117.8 M30.3 49 L37.7 28.2 L42.8 25 L46.3 26 M53.9 30.9 L70.5 14.2 L80.2 9.9 M364.1 255.5 L352.7 227.6 M230.9 249.9 L199.6 267.2 M196.7 211.6 L191.2 201.3 L191.4 193.1 L194.9 184.5 M148.1 94.1 L149.1 89.7 L156.6 78.8 L154.6 70.6 L156.2 67.2 M25.2 77.1 L23.2 69 L30.2 49.5 M337.5 205.4 L344.6 195.7 L345.5 189.8 L337.8 180.5 M302.8 63.8 L298.7 67.7 L294 81.1 L285.3 87.5 M129 213.8 L112.5 220.2 L113 223.7 L116.8 227.1 L117.2 231.7 M313.8 135.9 L322.9 133.3 L326 138.6 L318.6 141.4 L310.4 136.8 M329 163.3 L337.3 165 L346.2 162 L349.6 157.4 L348.6 150.4 M208.8 161.9 L213.6 163.7 L211.4 168.7 L212.5 173.6 L218.3 182.2 L222 182.5 M308.7 25 L312.6 25.1 L334.3 41.7 M392.5 62.9 L398.9 50.9 L405.2 44.7 L412.6 43.1 M329.7 156.2 L336.1 157.6 L342.3 154.8 L343.9 156.1 L337.6 160.5 L328.9 159.3 M272.1 37.6 L281.6 43.3 L282.6 48.4 L273.5 57.6 M174.5 40.9 L187.3 35.9 L206.9 37.2 M177.3 220.4 L172.5 221.7 L167.6 219.7 L159.3 207.5 L160.1 203.9 M246.4 49.6 L247.8 74.9 M225.1 61.9 L257.9 60.9 M227.9 11.9 L214.1 33.3 M222 182.5 L222.4 180.2 L218.3 173.1 L212.2 169.3 L214.6 163.4 L213.2 163 M86 49.7 L95.8 44.3 L109.3 40.1 L111.8 37.1 M24.8 185.4 L8.8 165.2 M229.1 67.7 L200.9 77.3 M160.4 68 L181.3 51.2 M368.7 233.4 L375.1 255.6 M144.4 62.2 L136.7 74.5 L137.3 78.9 L143.2 80.5 M248.5 21.6 L256.8 32.7 L244.6 36.2 M199.6 267.2 L213.9 286.8 M34.3 161.9 L36.9 165.5 L59.2 172.3 M210.8 209.5 L215.4 207.8 L218.4 200 L229.7 195.1 M12.6 73.2 L9.7 73.8 L9.7 81.5 L11.7 82.6 L14.8 81.1 L17.4 74 M222.9 150.7 L249 159.4 M180.9 142.8 L187.4 151.4 L189.9 163 M132.7 159 L159.9 165.9 M287.4 289.9 L291.3 300.3 L304.8 297.8 M107.5 35.3 L99.3 35 L94.6 29.6 L88.7 27.4 L87.5 30.6 M92.5 53.9 L99.3 49.4 L111.3 45.6 L110.1 41.2 M127.6 58.5 L128.9 69.3 L121.8 77.9 M47.4 15.4 L68.9 28.9 M167.1 75.1 L192 65.5 M124.6 53.8 L115.9 69.2 L117.1 73.1 M294 81.1 L305.1 77.4 L307.8 69.9 L311.1 67.4 M198.8 122.6 L196.9 119.6 L198.5 119.2 L203.3 126.2 L201.7 127.2 L199.1 127.7 L196.5 123.5 M192.2 204.1 L184.9 201.6 L175.2 189.1 M152.8 145 L126.1 140 M205.5 29 L196.5 28.2 L185.4 17.3 M172 37.6 L195.6 27.5 M343.7 70.7 L345.2 76 L338 76.7 L337.8 72.6 L343.1 70.3 M155.2 55.3 L173.3 40.4 M81.8 22.2 L70 27.2 L60.5 34.2 M143.2 80.5 L158.9 84.7 L161.3 91.9 M217 112.7 L217.6 108.7 L237.5 103.1 M150.6 115.5 L144.3 110.9 L137.4 98.6 M181.1 310.8 L176 304.7 L162.2 297.3 M294.6 168 L307.3 185.5 M74.2 22.3 L96.7 12.1 M21.2 82.5 L26.3 85 L28.7 79.3 L36.4 80.1 L33.3 77.4 M392.5 62.9 L400.3 70.7 L410.9 75.9 M292.5 92.7 L303.1 93.2 L316 99.8 M196.9 48.4 L199.4 28.9 M88.9 133.3 L87 140.8 L92.7 152.1 M61.8 35.2 L82.6 23.4 M79.1 135.6 L102.6 143.2 M161.9 297.7 L174.9 304.6 L180.4 310.8 M217.1 71.7 L227.7 89.6 M388.8 276.1 L412.2 267.4 M383.3 240.8 L397.9 256.8 M367.6 87.1 L387.6 74.9 M288 105.3 L297.1 95.5 L305.8 97.6 M385.4 256.2 L399.8 272.2 M289.3 226.3 L293.1 233.6 L296.9 236.5 L306.1 238.2 M378.7 238.2 L378.8 244.3 L385.4 256.2 M49.6 9.2 L46.2 19.2 L48.5 26.9 M238.4 132 L249.5 115.1 M27.9 62.6 L52.8 65.7 M104.9 219.9 L127.3 211.5 M239.2 106.2 L230 88.6 M103.9 218.8 L125.5 209.1 M48.2 70.5 L23.1 69.6 M10.4 92.2 L13.1 73.5 M274 88.6 L279.8 70.5 M259.9 49.3 L275.3 34.6 M53.1 151.1 L56.1 151.1 L58.5 134.9 M147.4 148 L162.6 162.7 M77.7 176.7 L72.4 178.4 L66.7 171.2 L59.2 172.3 M171.2 41.7 L159 25.6 M325.3 102.4 L333.7 100.2 L340.4 93.3 L344.2 91.8 M294.8 168.3 L316.7 161.2 M379.4 276.8 L372.8 263.2 L368.2 263.1 M185.3 184.2 L178.3 176.9 L167.4 173.3 M123.7 198.4 L130.6 196.7 L135.6 202.6 L142.2 199.8 M201.9 195.2 L180.9 204.1 M328.4 9 L339.2 22 L336.9 22.7 M63.2 105.7 L55.8 106.9 L48.3 117.7 M53.7 9.1 L57.3 14.3 L70.5 21.2 M69.5 209.6 L80.7 213.7 L72.5 219.7 M108.4 137.8 L111.6 151.2 L107.7 150 M242.9 191.2 L260.7 179.6 M239.8 134.4 L245.2 126.8 L248.5 128.4 L247.8 134.3 M223.2 41.3 L229.3 35.6 L242.7 33.3 M385.4 256.2 L409 257.2 M371.9 209.3 L366.8 201.4 L366.3 196.4 L369.3 193.6 M233.9 96.1 L254.5 88.8 M374.2 37.4 L383 53.4 M178.3 129.8 L170.9 135.7 L169.1 134 L172.2 131.7 L168.8 129.1 M173.3 127.3 L165.4 128.8 L152.4 123.2 M180.8 84.7 L200.2 75.4 M119.1 123.9 L122.9 140.8 M28.4 12.9 L35.9 17.5 L39.3 7.9 M58 172 L59.4 168.5 L74.2 160.9 M194.2 183.3 L190.9 192.2 L190.6 200 M161.5 92.7 L162.6 102.8 L157.9 108.8 M291.4 151.3 L294.6 168 M155.2 137.7 L133.1 141.6 M337.8 70.6 L324.1 57 M245.5 92.6 L244.9 75.5 M126.1 140 L123.5 130.6 L119.1 123.9 M120.9 195.6 L127.5 203.7 L136 207.6 M327.6 166.2 L320.3 169.1 L320.5 171.3 L310.3 174.6 M17.4 74 L18.8 64.3 L16.8 57.4 M77.6 131.7 L71.7 140.6 L64.6 144.3 M86.2 22.1 L94.3 19.5 L100.3 14.9 L96.5 12.6 M184 36.8 L173.2 22.4 M236.6 101.3 L257.1 95.6 M173.3 72.7 L177.1 63.4 L168.6 61.1 M153.1 65.9 L143.2 80.5 M350.7 266.4 L346.8 254.8 L348.5 250.6 M32.9 153.5 L32.9 157.3 L29.3 160.5 L22.8 153.9 M172.3 151.7 L153.8 160.3 M129.4 122.8 L130.6 106.6 M188.5 209.6 L176.8 196 M396 256.8 L400.5 266.5 L400.3 272 M71.7 22.6 L79.6 37.2 M33.8 54.7 L54.6 58.9 M139.9 82.7 L143.3 86.4 L141.6 89.2 L134.5 83.9 M271 38.6 L279.5 43.8 L273.5 50.2 M364.1 255.5 L385.4 256.2 M380.7 278.8 L371.6 264.2 M159.9 51.2 L143.8 40.7 M314.5 10 L309.6 17 L308.7 25 M221.7 45.2 L222.6 61.1 M214.9 162.1 L224.8 166.8 L228.3 172.6 M282 135.9 L276 120.9 M300.1 133.3 L315.6 143.8 M272.8 162.4 L261.3 149.4 M115.1 227.2 L121.8 229.7 L132.6 224.9 M186.4 113.2 L206.6 110.6 M224.9 151.3 L239 140 M206.7 78.4 L215.1 92.5" fill="none" stroke="#fbf7eb" stroke-width="3.4" opacity="0.62" stroke-linecap="round" stroke-linejoin="round"/>
</g>
<g data-layer="minor-road">
<path d="M155.9 288.7 L234.8 246.6 M27 112.9 L25.2 119.7 L10.8 117.7 L9.4 114.5 L32.7 90.4 L41.5 84.1 M393.7 43.2 L380 57.9 L378.8 61.6 L386.1 74 L408.3 85.8 M91.3 273.3 L87.8 274.7 L56 229.4 M351.3 62.1 L352.5 68 L345.5 76.8 L345.9 80.6 L353.9 85.8 L360.3 95.4 L373.7 95.3 M49.5 78.1 L55.8 76.2 L77.8 75.6 L84.4 78.6 L90.8 86.2 L102.6 88.6 M205.7 93.2 L148.1 94.1 M174.5 216.3 L147.4 178.2 M90.8 86.2 L84.4 86.2 L83 80.4 L77.9 79.9 L69.5 80.1 L57.2 85.2 L51.8 77.1 M129.1 55.5 L161.6 24.3 M57.2 36.6 L44.5 53.1 L40.9 70.2 M356.5 307.1 L381.3 303 L401.9 295.2 M42.8 70.3 L46.2 53.4 L58.4 36.6 M114.9 310.8 L154.1 289.7 M294 60.6 L311.1 67.4 L321.3 81.2 L327.3 84.3 M353 223.4 L368 244.3 L371.8 252.8 L369.8 254.2 M373.6 234.6 L400.8 250.5 L409 257.2 M204.9 101.7 L179.4 104.9 L164.7 115.6 M160.2 110 L139.4 121 L119.1 123.9 M376.2 99.7 L363.8 83.2 L349.2 72.2 M59.2 172.3 L58.9 175.8 L64.5 176.1 L96.3 166.1 M187.1 53.6 L165.5 24.8 M378.4 80.5 L358.9 61.8 L367.9 58.2 M353.3 222 L360 228.6 L368.7 233.4 L382.8 236 L388.7 234.9 M410.4 224.2 L394.2 210.9 L379.7 202.9 M95.8 56.9 L88.9 64.2 L81.7 61.7 L85.4 55.9 L88.3 57.6 L84.5 63.2 M52.8 65.7 L57.3 52.9 L37 46.2 M165.1 143.8 L163 137.5 L146.5 117.8 M30.3 49 L37.7 28.2 L42.8 25 L46.3 26 M53.9 30.9 L70.5 14.2 L80.2 9.9 M364.1 255.5 L352.7 227.6 M230.9 249.9 L199.6 267.2 M196.7 211.6 L191.2 201.3 L191.4 193.1 L194.9 184.5 M148.1 94.1 L149.1 89.7 L156.6 78.8 L154.6 70.6 L156.2 67.2 M25.2 77.1 L23.2 69 L30.2 49.5 M337.5 205.4 L344.6 195.7 L345.5 189.8 L337.8 180.5 M302.8 63.8 L298.7 67.7 L294 81.1 L285.3 87.5 M129 213.8 L112.5 220.2 L113 223.7 L116.8 227.1 L117.2 231.7 M313.8 135.9 L322.9 133.3 L326 138.6 L318.6 141.4 L310.4 136.8 M329 163.3 L337.3 165 L346.2 162 L349.6 157.4 L348.6 150.4 M208.8 161.9 L213.6 163.7 L211.4 168.7 L212.5 173.6 L218.3 182.2 L222 182.5 M308.7 25 L312.6 25.1 L334.3 41.7 M392.5 62.9 L398.9 50.9 L405.2 44.7 L412.6 43.1 M329.7 156.2 L336.1 157.6 L342.3 154.8 L343.9 156.1 L337.6 160.5 L328.9 159.3 M272.1 37.6 L281.6 43.3 L282.6 48.4 L273.5 57.6 M174.5 40.9 L187.3 35.9 L206.9 37.2 M177.3 220.4 L172.5 221.7 L167.6 219.7 L159.3 207.5 L160.1 203.9 M246.4 49.6 L247.8 74.9 M225.1 61.9 L257.9 60.9 M227.9 11.9 L214.1 33.3 M222 182.5 L222.4 180.2 L218.3 173.1 L212.2 169.3 L214.6 163.4 L213.2 163 M86 49.7 L95.8 44.3 L109.3 40.1 L111.8 37.1 M24.8 185.4 L8.8 165.2 M229.1 67.7 L200.9 77.3 M160.4 68 L181.3 51.2 M368.7 233.4 L375.1 255.6 M144.4 62.2 L136.7 74.5 L137.3 78.9 L143.2 80.5 M248.5 21.6 L256.8 32.7 L244.6 36.2 M199.6 267.2 L213.9 286.8 M34.3 161.9 L36.9 165.5 L59.2 172.3 M210.8 209.5 L215.4 207.8 L218.4 200 L229.7 195.1 M12.6 73.2 L9.7 73.8 L9.7 81.5 L11.7 82.6 L14.8 81.1 L17.4 74 M222.9 150.7 L249 159.4 M180.9 142.8 L187.4 151.4 L189.9 163 M132.7 159 L159.9 165.9 M287.4 289.9 L291.3 300.3 L304.8 297.8 M107.5 35.3 L99.3 35 L94.6 29.6 L88.7 27.4 L87.5 30.6 M92.5 53.9 L99.3 49.4 L111.3 45.6 L110.1 41.2 M127.6 58.5 L128.9 69.3 L121.8 77.9 M47.4 15.4 L68.9 28.9 M167.1 75.1 L192 65.5 M124.6 53.8 L115.9 69.2 L117.1 73.1 M294 81.1 L305.1 77.4 L307.8 69.9 L311.1 67.4 M198.8 122.6 L196.9 119.6 L198.5 119.2 L203.3 126.2 L201.7 127.2 L199.1 127.7 L196.5 123.5 M192.2 204.1 L184.9 201.6 L175.2 189.1 M152.8 145 L126.1 140 M205.5 29 L196.5 28.2 L185.4 17.3 M172 37.6 L195.6 27.5 M343.7 70.7 L345.2 76 L338 76.7 L337.8 72.6 L343.1 70.3 M155.2 55.3 L173.3 40.4 M81.8 22.2 L70 27.2 L60.5 34.2 M143.2 80.5 L158.9 84.7 L161.3 91.9 M217 112.7 L217.6 108.7 L237.5 103.1 M150.6 115.5 L144.3 110.9 L137.4 98.6 M181.1 310.8 L176 304.7 L162.2 297.3 M294.6 168 L307.3 185.5 M74.2 22.3 L96.7 12.1 M21.2 82.5 L26.3 85 L28.7 79.3 L36.4 80.1 L33.3 77.4 M392.5 62.9 L400.3 70.7 L410.9 75.9 M292.5 92.7 L303.1 93.2 L316 99.8 M196.9 48.4 L199.4 28.9 M88.9 133.3 L87 140.8 L92.7 152.1 M61.8 35.2 L82.6 23.4 M79.1 135.6 L102.6 143.2 M161.9 297.7 L174.9 304.6 L180.4 310.8 M217.1 71.7 L227.7 89.6 M388.8 276.1 L412.2 267.4 M383.3 240.8 L397.9 256.8 M367.6 87.1 L387.6 74.9 M288 105.3 L297.1 95.5 L305.8 97.6 M385.4 256.2 L399.8 272.2 M289.3 226.3 L293.1 233.6 L296.9 236.5 L306.1 238.2 M378.7 238.2 L378.8 244.3 L385.4 256.2 M49.6 9.2 L46.2 19.2 L48.5 26.9 M238.4 132 L249.5 115.1 M27.9 62.6 L52.8 65.7 M104.9 219.9 L127.3 211.5 M239.2 106.2 L230 88.6 M103.9 218.8 L125.5 209.1 M48.2 70.5 L23.1 69.6 M10.4 92.2 L13.1 73.5 M274 88.6 L279.8 70.5 M259.9 49.3 L275.3 34.6 M53.1 151.1 L56.1 151.1 L58.5 134.9 M147.4 148 L162.6 162.7 M77.7 176.7 L72.4 178.4 L66.7 171.2 L59.2 172.3 M171.2 41.7 L159 25.6 M325.3 102.4 L333.7 100.2 L340.4 93.3 L344.2 91.8 M294.8 168.3 L316.7 161.2 M379.4 276.8 L372.8 263.2 L368.2 263.1 M185.3 184.2 L178.3 176.9 L167.4 173.3 M123.7 198.4 L130.6 196.7 L135.6 202.6 L142.2 199.8 M201.9 195.2 L180.9 204.1 M328.4 9 L339.2 22 L336.9 22.7 M63.2 105.7 L55.8 106.9 L48.3 117.7 M53.7 9.1 L57.3 14.3 L70.5 21.2 M69.5 209.6 L80.7 213.7 L72.5 219.7 M108.4 137.8 L111.6 151.2 L107.7 150 M242.9 191.2 L260.7 179.6 M239.8 134.4 L245.2 126.8 L248.5 128.4 L247.8 134.3 M223.2 41.3 L229.3 35.6 L242.7 33.3 M385.4 256.2 L409 257.2 M371.9 209.3 L366.8 201.4 L366.3 196.4 L369.3 193.6 M233.9 96.1 L254.5 88.8 M374.2 37.4 L383 53.4 M178.3 129.8 L170.9 135.7 L169.1 134 L172.2 131.7 L168.8 129.1 M173.3 127.3 L165.4 128.8 L152.4 123.2 M180.8 84.7 L200.2 75.4 M119.1 123.9 L122.9 140.8 M28.4 12.9 L35.9 17.5 L39.3 7.9 M58 172 L59.4 168.5 L74.2 160.9 M194.2 183.3 L190.9 192.2 L190.6 200 M161.5 92.7 L162.6 102.8 L157.9 108.8 M291.4 151.3 L294.6 168 M155.2 137.7 L133.1 141.6 M337.8 70.6 L324.1 57 M245.5 92.6 L244.9 75.5 M126.1 140 L123.5 130.6 L119.1 123.9 M120.9 195.6 L127.5 203.7 L136 207.6 M327.6 166.2 L320.3 169.1 L320.5 171.3 L310.3 174.6 M17.4 74 L18.8 64.3 L16.8 57.4 M77.6 131.7 L71.7 140.6 L64.6 144.3 M86.2 22.1 L94.3 19.5 L100.3 14.9 L96.5 12.6 M184 36.8 L173.2 22.4 M236.6 101.3 L257.1 95.6 M173.3 72.7 L177.1 63.4 L168.6 61.1 M153.1 65.9 L143.2 80.5 M350.7 266.4 L346.8 254.8 L348.5 250.6 M32.9 153.5 L32.9 157.3 L29.3 160.5 L22.8 153.9 M172.3 151.7 L153.8 160.3 M129.4 122.8 L130.6 106.6 M188.5 209.6 L176.8 196 M396 256.8 L400.5 266.5 L400.3 272 M71.7 22.6 L79.6 37.2 M33.8 54.7 L54.6 58.9 M139.9 82.7 L143.3 86.4 L141.6 89.2 L134.5 83.9 M271 38.6 L279.5 43.8 L273.5 50.2 M364.1 255.5 L385.4 256.2 M380.7 278.8 L371.6 264.2 M159.9 51.2 L143.8 40.7 M314.5 10 L309.6 17 L308.7 25 M221.7 45.2 L222.6 61.1 M214.9 162.1 L224.8 166.8 L228.3 172.6 M282 135.9 L276 120.9 M300.1 133.3 L315.6 143.8 M272.8 162.4 L261.3 149.4 M115.1 227.2 L121.8 229.7 L132.6 224.9 M186.4 113.2 L206.6 110.6 M224.9 151.3 L239 140 M206.7 78.4 L215.1 92.5" fill="none" stroke="#69776e" stroke-width="1.25" opacity="0.58" stroke-linecap="round" stroke-linejoin="round"/>
</g>
</g>
<g data-layer="north-up-compass" fill="none" stroke="#233934" stroke-linecap="round" stroke-linejoin="round" opacity="0.62">
<path d="M382 48L382 23" stroke-width="1.8"/>
<path d="M382 23L373 39M382 23L391 39" stroke-width="1.8"/>
<circle cx="382" cy="48" r="13" stroke-width="1.1" opacity="0.38"/>
</g>
<rect x="8" y="8" width="404" height="304" rx="16" fill="none" stroke="#233934" stroke-width="1.4" opacity="0.44"/>
</svg>
