<svg xmlns="http://www.w3.org/2000/svg" viewBox="0 0 420 320" role="img" aria-label="Unlabeled street-grid crop">
<defs>
<clipPath id="mapCrop"><rect x="8" y="8" width="404" height="304" rx="16"/></clipPath>
</defs>
<rect width="420" height="320" fill="#ede7d8"/>
<rect x="8" y="8" width="404" height="304" rx="16" fill="#f7f1e3" stroke="#d8cbb2" stroke-width="1.25"/>
<g clip-path="url(#mapCrop)">
<g data-layer="major-road-casing">
<path d="M383.5 50.8 L416.9 46.4" fill="none" stroke="#fcf7e8" stroke-width="6.4" opacity="0.92" stroke-linecap="round" stroke-linejoin="round"/>
<path d="M21.1 39.3 L35.3 44.5 L50.6 42.9" fill="none" stroke="#fcf7e8" stroke-width="6.4" opacity="0.92" stroke-linecap="round" stroke-linejoin="round"/>
<path d="M207.3 308.7 L197.3 320" fill="none" stroke="#fcf7e8" stroke-width="6.4" opacity="0.92" stroke-linecap="round" stroke-linejoin="round"/>
<path d="M50.5 42.6 L36.6 44.2 L21.4 39" fill="none" stroke="#fcf7e8" stroke-width="6.4" opacity="0.92" stroke-linecap="round" stroke-linejoin="round"/>
<path d="M419.4 252.4 L395.3 251.9" fill="none" stroke="#fcf7e8" stroke-width="6.4" opacity="0.92" stroke-linecap="round" stroke-linejoin="round"/>
<path d="M322.3 311.7 L299.7 306.6" fill="none" stroke="#fcf7e8" stroke-width="6.4" opacity="0.92" stroke-linecap="round" stroke-linejoin="round"/>
<path d="M217.9 285.1 L211.2 299.8" fill="none" stroke="#fcf7e8" stroke-width="6.4" opacity="0.92" stroke-linecap="round" stroke-linejoin="round"/>
<path d="M294.4 142.8 L299.3 157.9" fill="none" stroke="#fcf7e8" stroke-width="6.4" opacity="0.92" stroke-linecap="round" stroke-linejoin="round"/>
<path d="M306.1 1.8 L302.4 16.9" fill="none" stroke="#fcf7e8" stroke-width="6.4" opacity="0.92" stroke-linecap="round" stroke-linejoin="round"/>
<path d="M210.5 303.3 L216.4 289.4" fill="none" stroke="#fcf7e8" stroke-width="6.4" opacity="0.92" stroke-linecap="round" stroke-linejoin="round"/>
<path d="M297.4 170 L300.4 156.4" fill="none" stroke="#fcf7e8" stroke-width="6.4" opacity="0.92" stroke-linecap="round" stroke-linejoin="round"/>
<path d="M255.9 115.8 L261.3 127.8" fill="none" stroke="#fcf7e8" stroke-width="6.4" opacity="0.92" stroke-linecap="round" stroke-linejoin="round"/>
<path d="M386.6 251.7 L369.6 251.9" fill="none" stroke="#fcf7e8" stroke-width="6.4" opacity="0.92" stroke-linecap="round" stroke-linejoin="round"/>
<path d="M261.6 127.5 L256.3 115.6" fill="none" stroke="#fcf7e8" stroke-width="6.4" opacity="0.92" stroke-linecap="round" stroke-linejoin="round"/>
<path d="M299.3 157.9 L296.2 170.1" fill="none" stroke="#fcf7e8" stroke-width="6.4" opacity="0.92" stroke-linecap="round" stroke-linejoin="round"/>
<path d="M397.4 252.8 L413.9 253.3" fill="none" stroke="#fcf7e8" stroke-width="6.4" opacity="0.92" stroke-linecap="round" stroke-linejoin="round"/>
<path d="M295.8 306.1 L311.3 309.6" fill="none" stroke="#fcf7e8" stroke-width="6.4" opacity="0.92" stroke-linecap="round" stroke-linejoin="round"/>
<path d="M330.3 55 L314.2 55" fill="none" stroke="#fcf7e8" stroke-width="6.4" opacity="0.92" stroke-linecap="round" stroke-linejoin="round"/>
<path d="M295.9 54.5 L311.9 55.4" fill="none" stroke="#fcf7e8" stroke-width="6.4" opacity="0.92" stroke-linecap="round" stroke-linejoin="round"/>
<path d="M330.1 216.1 L315.8 210.9" fill="none" stroke="#fcf7e8" stroke-width="6.4" opacity="0.92" stroke-linecap="round" stroke-linejoin="round"/>
<path d="M329.4 216.8 L340.7 225.1" fill="none" stroke="#fcf7e8" stroke-width="6.4" opacity="0.92" stroke-linecap="round" stroke-linejoin="round"/>
<path d="M215.7 105.8 L230.8 108.3" fill="none" stroke="#fcf7e8" stroke-width="6.4" opacity="0.92" stroke-linecap="round" stroke-linejoin="round"/>
<path d="M303.2 16.6 L305.7 5.9" fill="none" stroke="#fcf7e8" stroke-width="6.4" opacity="0.92" stroke-linecap="round" stroke-linejoin="round"/>
<path d="M236 33.2 L246.9 39.9" fill="none" stroke="#fcf7e8" stroke-width="6.4" opacity="0.92" stroke-linecap="round" stroke-linejoin="round"/>
<path d="M287.2 53.1 L274.4 49" fill="none" stroke="#fcf7e8" stroke-width="6.4" opacity="0.92" stroke-linecap="round" stroke-linejoin="round"/>
<path d="M274.3 49.3 L287 53.4" fill="none" stroke="#fcf7e8" stroke-width="6.4" opacity="0.92" stroke-linecap="round" stroke-linejoin="round"/>
<path d="M306 204.7 L300.7 195.2" fill="none" stroke="#fcf7e8" stroke-width="6.4" opacity="0.92" stroke-linecap="round" stroke-linejoin="round"/>
<path d="M288.1 134.7 L274.9 131.9" fill="none" stroke="#fcf7e8" stroke-width="6.4" opacity="0.92" stroke-linecap="round" stroke-linejoin="round"/>
<path d="M299.8 195.4 L305.1 204.9" fill="none" stroke="#fcf7e8" stroke-width="6.4" opacity="0.92" stroke-linecap="round" stroke-linejoin="round"/>
<path d="M274.5 132.2 L287.6 135.1" fill="none" stroke="#fcf7e8" stroke-width="6.4" opacity="0.92" stroke-linecap="round" stroke-linejoin="round"/>
<path d="M255.9 292.4 L266.1 298.8" fill="none" stroke="#fcf7e8" stroke-width="6.4" opacity="0.92" stroke-linecap="round" stroke-linejoin="round"/>
<path d="M275.4 301.5 L263.3 297.2" fill="none" stroke="#fcf7e8" stroke-width="6.4" opacity="0.92" stroke-linecap="round" stroke-linejoin="round"/>
<path d="M213.3 258.8 L221.1 266.6" fill="none" stroke="#fcf7e8" stroke-width="6.4" opacity="0.92" stroke-linecap="round" stroke-linejoin="round"/>
<path d="M419.5 45.4 L406.9 47" fill="none" stroke="#fcf7e8" stroke-width="6.4" opacity="0.92" stroke-linecap="round" stroke-linejoin="round"/>
<path d="M121 36.2 L133.4 34" fill="none" stroke="#fcf7e8" stroke-width="6.4" opacity="0.92" stroke-linecap="round" stroke-linejoin="round"/>
<path d="M367.7 252.8 L380.2 252.6" fill="none" stroke="#fcf7e8" stroke-width="6.4" opacity="0.92" stroke-linecap="round" stroke-linejoin="round"/>
<path d="M247.2 101.1 L238.7 107.4" fill="none" stroke="#fcf7e8" stroke-width="6.4" opacity="0.92" stroke-linecap="round" stroke-linejoin="round"/>
<path d="M143.3 30.8 L131.9 33.7" fill="none" stroke="#fcf7e8" stroke-width="6.4" opacity="0.92" stroke-linecap="round" stroke-linejoin="round"/>
<path d="M221.7 276.7 L217.9 285.1" fill="none" stroke="#fcf7e8" stroke-width="6.4" opacity="0.92" stroke-linecap="round" stroke-linejoin="round"/>
<path d="M349.6 231 L341.4 224.7" fill="none" stroke="#fcf7e8" stroke-width="6.4" opacity="0.92" stroke-linecap="round" stroke-linejoin="round"/>
<path d="M231.9 274.6 L241.4 279.6" fill="none" stroke="#fcf7e8" stroke-width="6.4" opacity="0.92" stroke-linecap="round" stroke-linejoin="round"/>
<path d="M312.6 210.8 L323.5 213.9" fill="none" stroke="#fcf7e8" stroke-width="6.4" opacity="0.92" stroke-linecap="round" stroke-linejoin="round"/>
<path d="M297.1 29.5 L291 36.9" fill="none" stroke="#fcf7e8" stroke-width="6.4" opacity="0.92" stroke-linecap="round" stroke-linejoin="round"/>
<path d="M313.2 55.5 L324.5 55.7" fill="none" stroke="#fcf7e8" stroke-width="6.4" opacity="0.92" stroke-linecap="round" stroke-linejoin="round"/>
<path d="M351.6 54.4 L362.8 53.5" fill="none" stroke="#fcf7e8" stroke-width="6.4" opacity="0.92" stroke-linecap="round" stroke-linejoin="round"/>
<path d="M45.7 22.8 L43.8 31.2" fill="none" stroke="#fcf7e8" stroke-width="6.4" opacity="0.92" stroke-linecap="round" stroke-linejoin="round"/>
<path d="M341.4 224.7 L333.7 218.7" fill="none" stroke="#fcf7e8" stroke-width="6.4" opacity="0.92" stroke-linecap="round" stroke-linejoin="round"/>
<path d="M371.7 51.6 L360.8 53" fill="none" stroke="#fcf7e8" stroke-width="6.4" opacity="0.92" stroke-linecap="round" stroke-linejoin="round"/>
<path d="M362.8 53.5 L373.5 52.1" fill="none" stroke="#fcf7e8" stroke-width="6.4" opacity="0.92" stroke-linecap="round" stroke-linejoin="round"/>
<path d="M364.5 251.9 L359.7 250.8 L356.1 247.6" fill="none" stroke="#fcf7e8" stroke-width="6.4" opacity="0.92" stroke-linecap="round" stroke-linejoin="round"/>
<path d="M301.2 24.5 L303.2 16.6" fill="none" stroke="#fcf7e8" stroke-width="6.4" opacity="0.92" stroke-linecap="round" stroke-linejoin="round"/>
<path d="M220.9 265.8 L214.3 259.5" fill="none" stroke="#fcf7e8" stroke-width="6.4" opacity="0.92" stroke-linecap="round" stroke-linejoin="round"/>
<path d="M176.5 27.1 L187.1 27.4" fill="none" stroke="#fcf7e8" stroke-width="6.4" opacity="0.92" stroke-linecap="round" stroke-linejoin="round"/>
<path d="M287 303.5 L276.6 301.8" fill="none" stroke="#fcf7e8" stroke-width="6.4" opacity="0.92" stroke-linecap="round" stroke-linejoin="round"/>
<path d="M186.9 27 L176.6 26.7" fill="none" stroke="#fcf7e8" stroke-width="6.4" opacity="0.92" stroke-linecap="round" stroke-linejoin="round"/>
<path d="M256.4 44.4 L265.8 47.5" fill="none" stroke="#fcf7e8" stroke-width="6.4" opacity="0.92" stroke-linecap="round" stroke-linejoin="round"/>
<path d="M274.4 49 L264.8 46.4" fill="none" stroke="#fcf7e8" stroke-width="6.4" opacity="0.92" stroke-linecap="round" stroke-linejoin="round"/>
<path d="M162 162.3 L165.4 169.5" fill="none" stroke="#fcf7e8" stroke-width="6.4" opacity="0.92" stroke-linecap="round" stroke-linejoin="round"/>
<path d="M302.4 16.9 L300.5 24.4" fill="none" stroke="#fcf7e8" stroke-width="6.4" opacity="0.92" stroke-linecap="round" stroke-linejoin="round"/>
<path d="M301.7 245.9 L279.3 253.8 L263.5 266.2" fill="none" stroke="#fcf7e8" stroke-width="6.4" opacity="0.92" stroke-linecap="round" stroke-linejoin="round"/>
<path d="M76.9 216.1 L38.4 220.9" fill="none" stroke="#fcf7e8" stroke-width="6.4" opacity="0.92" stroke-linecap="round" stroke-linejoin="round"/>
<path d="M114.5 225.4 L128.1 235.5 L147.1 232.3" fill="none" stroke="#fcf7e8" stroke-width="6.4" opacity="0.92" stroke-linecap="round" stroke-linejoin="round"/>
<path d="M252.9 276.7 L276.4 256" fill="none" stroke="#fcf7e8" stroke-width="6.4" opacity="0.92" stroke-linecap="round" stroke-linejoin="round"/>
<path d="M168.8 273.5 L168.3 261.3 L162.8 250.2" fill="none" stroke="#fcf7e8" stroke-width="6.4" opacity="0.92" stroke-linecap="round" stroke-linejoin="round"/>
<path d="M359.4 309.5 L342.4 290.1" fill="none" stroke="#fcf7e8" stroke-width="6.4" opacity="0.92" stroke-linecap="round" stroke-linejoin="round"/>
<path d="M410.8 199.3 L386.3 212.4" fill="none" stroke="#fcf7e8" stroke-width="6.4" opacity="0.92" stroke-linecap="round" stroke-linejoin="round"/>
<path d="M338.3 286.2 L355 304.9" fill="none" stroke="#fcf7e8" stroke-width="6.4" opacity="0.92" stroke-linecap="round" stroke-linejoin="round"/>
<path d="M335.3 282 L320 264.5" fill="none" stroke="#fcf7e8" stroke-width="6.4" opacity="0.92" stroke-linecap="round" stroke-linejoin="round"/>
<path d="M38.2 113.9 L27.1 110.6 L25.6 107.2 L26.7 101.4" fill="none" stroke="#fcf7e8" stroke-width="6.4" opacity="0.92" stroke-linecap="round" stroke-linejoin="round"/>
<path d="M314.4 169.7 L336.4 164.9" fill="none" stroke="#fcf7e8" stroke-width="6.4" opacity="0.92" stroke-linecap="round" stroke-linejoin="round"/>
<path d="M93.7 313.4 L112.7 304.1" fill="none" stroke="#fcf7e8" stroke-width="6.4" opacity="0.92" stroke-linecap="round" stroke-linejoin="round"/>
<path d="M382.9 215 L400.3 204.5" fill="none" stroke="#fcf7e8" stroke-width="6.4" opacity="0.92" stroke-linecap="round" stroke-linejoin="round"/>
</g>
<g data-layer="major-road">
<path d="M383.5 50.8 L416.9 46.4" fill="none" stroke="#1f3733" stroke-width="2.7" opacity="0.9" stroke-linecap="round" stroke-linejoin="round"/>
<path d="M21.1 39.3 L35.3 44.5 L50.6 42.9" fill="none" stroke="#1f3733" stroke-width="2.7" opacity="0.9" stroke-linecap="round" stroke-linejoin="round"/>
<path d="M207.3 308.7 L197.3 320" fill="none" stroke="#1f3733" stroke-width="2.7" opacity="0.9" stroke-linecap="round" stroke-linejoin="round"/>
<path d="M50.5 42.6 L36.6 44.2 L21.4 39" fill="none" stroke="#1f3733" stroke-width="2.7" opacity="0.9" stroke-linecap="round" stroke-linejoin="round"/>
<path d="M419.4 252.4 L395.3 251.9" fill="none" stroke="#1f3733" stroke-width="2.7" opacity="0.9" stroke-linecap="round" stroke-linejoin="round"/>
<path d="M322.3 311.7 L299.7 306.6" fill="none" stroke="#1f3733" stroke-width="2.7" opacity="0.9" stroke-linecap="round" stroke-linejoin="round"/>
<path d="M217.9 285.1 L211.2 299.8" fill="none" stroke="#1f3733" stroke-width="2.7" opacity="0.9" stroke-linecap="round" stroke-linejoin="round"/>
<path d="M294.4 142.8 L299.3 157.9" fill="none" stroke="#1f3733" stroke-width="2.7" opacity="0.9" stroke-linecap="round" stroke-linejoin="round"/>
<path d="M306.1 1.8 L302.4 16.9" fill="none" stroke="#1f3733" stroke-width="2.7" opacity="0.9" stroke-linecap="round" stroke-linejoin="round"/>
<path d="M210.5 303.3 L216.4 289.4" fill="none" stroke="#1f3733" stroke-width="2.7" opacity="0.9" stroke-linecap="round" stroke-linejoin="round"/>
<path d="M297.4 170 L300.4 156.4" fill="none" stroke="#1f3733" stroke-width="2.7" opacity="0.9" stroke-linecap="round" stroke-linejoin="round"/>
<path d="M255.9 115.8 L261.3 127.8" fill="none" stroke="#1f3733" stroke-width="2.7" opacity="0.9" stroke-linecap="round" stroke-linejoin="round"/>
<path d="M386.6 251.7 L369.6 251.9" fill="none" stroke="#1f3733" stroke-width="2.7" opacity="0.9" stroke-linecap="round" stroke-linejoin="round"/>
<path d="M261.6 127.5 L256.3 115.6" fill="none" stroke="#1f3733" stroke-width="2.7" opacity="0.9" stroke-linecap="round" stroke-linejoin="round"/>
<path d="M299.3 157.9 L296.2 170.1" fill="none" stroke="#1f3733" stroke-width="2.7" opacity="0.9" stroke-linecap="round" stroke-linejoin="round"/>
<path d="M397.4 252.8 L413.9 253.3" fill="none" stroke="#1f3733" stroke-width="2.7" opacity="0.9" stroke-linecap="round" stroke-linejoin="round"/>
<path d="M295.8 306.1 L311.3 309.6" fill="none" stroke="#1f3733" stroke-width="2.7" opacity="0.9" stroke-linecap="round" stroke-linejoin="round"/>
<path d="M330.3 55 L314.2 55" fill="none" stroke="#1f3733" stroke-width="2.7" opacity="0.9" stroke-linecap="round" stroke-linejoin="round"/>
<path d="M295.9 54.5 L311.9 55.4" fill="none" stroke="#1f3733" stroke-width="2.7" opacity="0.9" stroke-linecap="round" stroke-linejoin="round"/>
<path d="M330.1 216.1 L315.8 210.9" fill="none" stroke="#1f3733" stroke-width="2.7" opacity="0.9" stroke-linecap="round" stroke-linejoin="round"/>
<path d="M329.4 216.8 L340.7 225.1" fill="none" stroke="#1f3733" stroke-width="2.7" opacity="0.9" stroke-linecap="round" stroke-linejoin="round"/>
<path d="M215.7 105.8 L230.8 108.3" fill="none" stroke="#1f3733" stroke-width="2.7" opacity="0.9" stroke-linecap="round" stroke-linejoin="round"/>
<path d="M303.2 16.6 L305.7 5.9" fill="none" stroke="#1f3733" stroke-width="2.7" opacity="0.9" stroke-linecap="round" stroke-linejoin="round"/>
<path d="M236 33.2 L246.9 39.9" fill="none" stroke="#1f3733" stroke-width="2.7" opacity="0.9" stroke-linecap="round" stroke-linejoin="round"/>
<path d="M287.2 53.1 L274.4 49" fill="none" stroke="#1f3733" stroke-width="2.7" opacity="0.9" stroke-linecap="round" stroke-linejoin="round"/>
<path d="M274.3 49.3 L287 53.4" fill="none" stroke="#1f3733" stroke-width="2.7" opacity="0.9" stroke-linecap="round" stroke-linejoin="round"/>
<path d="M306 204.7 L300.7 195.2" fill="none" stroke="#1f3733" stroke-width="2.7" opacity="0.9" stroke-linecap="round" stroke-linejoin="round"/>
<path d="M288.1 134.7 L274.9 131.9" fill="none" stroke="#1f3733" stroke-width="2.7" opacity="0.9" stroke-linecap="round" stroke-linejoin="round"/>
<path d="M299.8 195.4 L305.1 204.9" fill="none" stroke="#1f3733" stroke-width="2.7" opacity="0.9" stroke-linecap="round" stroke-linejoin="round"/>
<path d="M274.5 132.2 L287.6 135.1" fill="none" stroke="#1f3733" stroke-width="2.7" opacity="0.9" stroke-linecap="round" stroke-linejoin="round"/>
<path d="M255.9 292.4 L266.1 298.8" fill="none" stroke="#1f3733" stroke-width="2.7" opacity="0.9" stroke-linecap="round" stroke-linejoin="round"/>
<path d="M275.4 301.5 L263.3 297.2" fill="none" stroke="#1f3733" stroke-width="2.7" opacity="0.9" stroke-linecap="round" stroke-linejoin="round"/>
<path d="M213.3 258.8 L221.1 266.6" fill="none" stroke="#1f3733" stroke-width="2.7" opacity="0.9" stroke-linecap="round" stroke-linejoin="round"/>
<path d="M419.5 45.4 L406.9 47" fill="none" stroke="#1f3733" stroke-width="2.7" opacity="0.9" stroke-linecap="round" stroke-linejoin="round"/>
<path d="M121 36.2 L133.4 34" fill="none" stroke="#1f3733" stroke-width="2.7" opacity="0.9" stroke-linecap="round" stroke-linejoin="round"/>
<path d="M367.7 252.8 L380.2 252.6" fill="none" stroke="#1f3733" stroke-width="2.7" opacity="0.9" stroke-linecap="round" stroke-linejoin="round"/>
<path d="M247.2 101.1 L238.7 107.4" fill="none" stroke="#1f3733" stroke-width="2.7" opacity="0.9" stroke-linecap="round" stroke-linejoin="round"/>
<path d="M143.3 30.8 L131.9 33.7" fill="none" stroke="#1f3733" stroke-width="2.7" opacity="0.9" stroke-linecap="round" stroke-linejoin="round"/>
<path d="M221.7 276.7 L217.9 285.1" fill="none" stroke="#1f3733" stroke-width="2.7" opacity="0.9" stroke-linecap="round" stroke-linejoin="round"/>
<path d="M349.6 231 L341.4 224.7" fill="none" stroke="#1f3733" stroke-width="2.7" opacity="0.9" stroke-linecap="round" stroke-linejoin="round"/>
<path d="M231.9 274.6 L241.4 279.6" fill="none" stroke="#1f3733" stroke-width="2.7" opacity="0.9" stroke-linecap="round" stroke-linejoin="round"/>
<path d="M312.6 210.8 L323.5 213.9" fill="none" stroke="#1f3733" stroke-width="2.7" opacity="0.9" stroke-linecap="round" stroke-linejoin="round"/>
<path d="M297.1 29.5 L291 36.9" fill="none" stroke="#1f3733" stroke-width="2.7" opacity="0.9" stroke-linecap="round" stroke-linejoin="round"/>
<path d="M313.2 55.5 L324.5 55.7" fill="none" stroke="#1f3733" stroke-width="2.7" opacity="0.9" stroke-linecap="round" stroke-linejoin="round"/>
<path d="M351.6 54.4 L362.8 53.5" fill="none" stroke="#1f3733" stroke-width="2.7" opacity="0.9" stroke-linecap="round" stroke-linejoin="round"/>
<path d="M45.7 22.8 L43.8 31.2" fill="none" stroke="#1f3733" stroke-width="2.7" opacity="0.9" stroke-linecap="round" stroke-linejoin="round"/>
<path d="M341.4 224.7 L333.7 218.7" fill="none" stroke="#1f3733" stroke-width="2.7" opacity="0.9" stroke-linecap="round" stroke-linejoin="round"/>
<path d="M371.7 51.6 L360.8 53" fill="none" stroke="#1f3733" stroke-width="2.7" opacity="0.9" stroke-linecap="round" stroke-linejoin="round"/>
<path d="M362.8 53.5 L373.5 52.1" fill="none" stroke="#1f3733" stroke-width="2.7" opacity="0.9" stroke-linecap="round" stroke-linejoin="round"/>
<path d="M364.5 251.9 L359.7 250.8 L356.1 247.6" fill="none" stroke="#1f3733" stroke-width="2.7" opacity="0.9" stroke-linecap="round" stroke-linejoin="round"/>
<path d="M301.2 24.5 L303.2 16.6" fill="none" stroke="#1f3733" stroke-width="2.7" opacity="0.9" stroke-linecap="round" stroke-linejoin="round"/>
<path d="M220.9 265.8 L214.3 259.5" fill="none" stroke="#1f3733" stroke-width="2.7" opacity="0.9" stroke-linecap="round" stroke-linejoin="round"/>
<path d="M176.5 27.1 L187.1 27.4" fill="none" stroke="#1f3733" stroke-width="2.7" opacity="0.9" stroke-linecap="round" stroke-linejoin="round"/>
<path d="M287 303.5 L276.6 301.8" fill="none" stroke="#1f3733" stroke-width="2.7" opacity="0.9" stroke-linecap="round" stroke-linejoin="round"/>
<path d="M186.9 27 L176.6 26.7" fill="none" stroke="#1f3733" stroke-width="2.7" opacity="0.9" stroke-linecap="round" stroke-linejoin="round"/>
<path d="M256.4 44.4 L265.8 47.5" fill="none" stroke="#1f3733" stroke-width="2.7" opacity="0.9" stroke-linecap="round" stroke-linejoin="round"/>
<path d="M274.4 49 L264.8 46.4" fill="none" stroke="#1f3733" stroke-width="2.7" opacity="0.9" stroke-linecap="round" stroke-linejoin="round"/>
<path d="M162 162.3 L165.4 169.5" fill="none" stroke="#1f3733" stroke-width="2.7" opacity="0.9" stroke-linecap="round" stroke-linejoin="round"/>
<path d="M302.4 16.9 L300.5 24.4" fill="none" stroke="#1f3733" stroke-width="2.7" opacity="0.9" stroke-linecap="round" stroke-linejoin="round"/>
<path d="M301.7 245.9 L279.3 253.8 L263.5 266.2" fill="none" stroke="#1f3733" stroke-width="2.7" opacity="0.9" stroke-linecap="round" stroke-linejoin="round"/>
<path d="M76.9 216.1 L38.4 220.9" fill="none" stroke="#1f3733" stroke-width="2.7" opacity="0.9" stroke-linecap="round" stroke-linejoin="round"/>
<path d="M114.5 225.4 L128.1 235.5 L147.1 232.3" fill="none" stroke="#1f3733" stroke-width="2.7" opacity="0.9" stroke-linecap="round" stroke-linejoin="round"/>
<path d="M252.9 276.7 L276.4 256" fill="none" stroke="#1f3733" stroke-width="2.7" opacity="0.9" stroke-linecap="round" stroke-linejoin="round"/>
<path d="M168.8 273.5 L168.3 261.3 L162.8 250.2" fill="none" stroke="#1f3733" stroke-width="2.7" opacity="0.9" stroke-linecap="round" stroke-linejoin="round"/>
<path d="M359.4 309.5 L342.4 290.1" fill="none" stroke="#1f3733" stroke-width="2.7" opacity="0.9" stroke-linecap="round" stroke-linejoin="round"/>
<path d="M410.8 199.3 L386.3 212.4" fill="none" stroke="#1f3733" stroke-width="2.7" opacity="0.9" stroke-linecap="round" stroke-linejoin="round"/>
<path d="M338.3 286.2 L355 304.9" fill="none" stroke="#1f3733" stroke-width="2.7" opacity="0.9" stroke-linecap="round" stroke-linejoin="round"/>
<path d="M335.3 282 L320 264.5" fill="none" stroke="#1f3733" stroke-width="2.7" opacity="0.9" stroke-linecap="round" stroke-linejoin="round"/>
<path d="M38.2 113.9 L27.1 110.6 L25.6 107.2 L26.7 101.4" fill="none" stroke="#1f3733" stroke-width="2.7" opacity="0.9" stroke-linecap="round" stroke-linejoin="round"/>
<path d="M314.4 169.7 L336.4 164.9" fill="none" stroke="#1f3733" stroke-width="2.7" opacity="0.9" stroke-linecap="round" stroke-linejoin="round"/>
<path d="M93.7 313.4 L112.7 304.1" fill="none" stroke="#1f3733" stroke-width="2.7" opacity="0.9" stroke-linecap="round" stroke-linejoin="round"/>
<path d="M382.9 215 L400.3 204.5" fill="none" stroke="#1f3733" stroke-width="2.7" opacity="0.9" stroke-linecap="round" stroke-linejoin="round"/>
</g>
<g data-layer="minor-road-casing">
<path d="M60.8 172.5 L45.9 164.2 L36.5 162.3 L24.2 156" fill="none" stroke="#fbf7eb" stroke-width="3.4" opacity="0.62" stroke-linecap="round" stroke-linejoin="round"/>
<path d="M92.3 233.3 L83.8 240.7 L78.8 250.4 L70.4 259.9" fill="none" stroke="#fbf7eb" stroke-width="3.4" opacity="0.62" stroke-linecap="round" stroke-linejoin="round"/>
<path d="M297.3 131.9 L294.6 105.5" fill="none" stroke="#fbf7eb" stroke-width="3.4" opacity="0.62" stroke-linecap="round" stroke-linejoin="round"/>
<path d="M117 161.5 L85.4 155.8" fill="none" stroke="#fbf7eb" stroke-width="3.4" opacity="0.62" stroke-linecap="round" stroke-linejoin="round"/>
<path d="M291.8 96.4 L263 85.9" fill="none" stroke="#fbf7eb" stroke-width="3.4" opacity="0.62" stroke-linecap="round" stroke-linejoin="round"/>
<path d="M140.7 215.2 L115.2 225.1" fill="none" stroke="#fbf7eb" stroke-width="3.4" opacity="0.62" stroke-linecap="round" stroke-linejoin="round"/>
<path d="M293.8 107.3 L295.8 126.6" fill="none" stroke="#fbf7eb" stroke-width="3.4" opacity="0.62" stroke-linecap="round" stroke-linejoin="round"/>
<path d="M139.1 85.4 L133.1 103.9" fill="none" stroke="#fbf7eb" stroke-width="3.4" opacity="0.62" stroke-linecap="round" stroke-linejoin="round"/>
<path d="M263.1 171.9 L276.3 173.1 L286.7 177.1" fill="none" stroke="#fbf7eb" stroke-width="3.4" opacity="0.62" stroke-linecap="round" stroke-linejoin="round"/>
<path d="M136.1 66.9 L146.4 66.4 L158.3 62.1" fill="none" stroke="#fbf7eb" stroke-width="3.4" opacity="0.62" stroke-linecap="round" stroke-linejoin="round"/>
<path d="M251.9 222.3 L270.2 211.2" fill="none" stroke="#fbf7eb" stroke-width="3.4" opacity="0.62" stroke-linecap="round" stroke-linejoin="round"/>
<path d="M123.7 127.5 L129.1 110.6" fill="none" stroke="#fbf7eb" stroke-width="3.4" opacity="0.62" stroke-linecap="round" stroke-linejoin="round"/>
<path d="M66.9 56.5 L47.9 49.7" fill="none" stroke="#fbf7eb" stroke-width="3.4" opacity="0.62" stroke-linecap="round" stroke-linejoin="round"/>
<path d="M112.2 226.4 L100.1 232.2 L93.6 232.7" fill="none" stroke="#fbf7eb" stroke-width="3.4" opacity="0.62" stroke-linecap="round" stroke-linejoin="round"/>
<path d="M255.2 194.9 L266.9 207.7" fill="none" stroke="#fbf7eb" stroke-width="3.4" opacity="0.62" stroke-linecap="round" stroke-linejoin="round"/>
<path d="M140.8 215.1 L150.4 228.4" fill="none" stroke="#fbf7eb" stroke-width="3.4" opacity="0.62" stroke-linecap="round" stroke-linejoin="round"/>
<path d="M98.3 87.4 L104 73.1" fill="none" stroke="#fbf7eb" stroke-width="3.4" opacity="0.62" stroke-linecap="round" stroke-linejoin="round"/>
<path d="M283.9 25 L288.8 25.5 L299.2 17.9" fill="none" stroke="#fbf7eb" stroke-width="3.4" opacity="0.62" stroke-linecap="round" stroke-linejoin="round"/>
<path d="M154.3 207 L172.1 202" fill="none" stroke="#fbf7eb" stroke-width="3.4" opacity="0.62" stroke-linecap="round" stroke-linejoin="round"/>
<path d="M208.7 96.8 L210.9 88.1 L214.7 83.8" fill="none" stroke="#fbf7eb" stroke-width="3.4" opacity="0.62" stroke-linecap="round" stroke-linejoin="round"/>
<path d="M135.6 164.8 L117.4 161.5" fill="none" stroke="#fbf7eb" stroke-width="3.4" opacity="0.62" stroke-linecap="round" stroke-linejoin="round"/>
<path d="M187.6 59.9 L187.5 53.7 L190.3 46.3" fill="none" stroke="#fbf7eb" stroke-width="3.4" opacity="0.62" stroke-linecap="round" stroke-linejoin="round"/>
<path d="M0 88.9 L3.6 93.8 L11.4 94.6" fill="none" stroke="#fbf7eb" stroke-width="3.4" opacity="0.62" stroke-linecap="round" stroke-linejoin="round"/>
<path d="M82.7 137.2 L81.5 150.3" fill="none" stroke="#fbf7eb" stroke-width="3.4" opacity="0.62" stroke-linecap="round" stroke-linejoin="round"/>
<path d="M178.7 202.1 L182.6 207.3 L189.6 211.9" fill="none" stroke="#fbf7eb" stroke-width="3.4" opacity="0.62" stroke-linecap="round" stroke-linejoin="round"/>
<path d="M33.6 255.8 L30.9 240.9 L27.8 235.6 L28.9 230 L25.7 221.8" fill="none" stroke="#fbf7eb" stroke-width="3.4" opacity="0.62" stroke-linecap="round" stroke-linejoin="round"/>
<path d="M80.5 152.4 L41.8 138.3" fill="none" stroke="#fbf7eb" stroke-width="3.4" opacity="0.62" stroke-linecap="round" stroke-linejoin="round"/>
<path d="M51.3 122.8 L26.2 117.6 L23.2 121.3 L22.4 128.4" fill="none" stroke="#fbf7eb" stroke-width="3.4" opacity="0.62" stroke-linecap="round" stroke-linejoin="round"/>
<path d="M22.1 106.9 L13 107.8 L0 105.1 L0 96 L1.6 94.4" fill="none" stroke="#fbf7eb" stroke-width="3.4" opacity="0.62" stroke-linecap="round" stroke-linejoin="round"/>
<path d="M326.3 164.9 L321.5 152.4 L320.8 140.9 L319.1 138.3" fill="none" stroke="#fbf7eb" stroke-width="3.4" opacity="0.62" stroke-linecap="round" stroke-linejoin="round"/>
<path d="M157 148.3 L122.6 140.6" fill="none" stroke="#fbf7eb" stroke-width="3.4" opacity="0.62" stroke-linecap="round" stroke-linejoin="round"/>
<path d="M87.4 184.2 L120.3 193.3" fill="none" stroke="#fbf7eb" stroke-width="3.4" opacity="0.62" stroke-linecap="round" stroke-linejoin="round"/>
<path d="M74.9 197.4 L61.2 196.2 L41.3 198" fill="none" stroke="#fbf7eb" stroke-width="3.4" opacity="0.62" stroke-linecap="round" stroke-linejoin="round"/>
<path d="M123.7 302.9 L128.9 301.4 L139.5 302.2 L128 306.4 L124.9 304.3" fill="none" stroke="#fbf7eb" stroke-width="3.4" opacity="0.62" stroke-linecap="round" stroke-linejoin="round"/>
<path d="M181 297.8 L180 310.9 L177.4 310.4 L173.2 320" fill="none" stroke="#fbf7eb" stroke-width="3.4" opacity="0.62" stroke-linecap="round" stroke-linejoin="round"/>
<path d="M262.5 239.7 L283.4 237.6 L295.2 239" fill="none" stroke="#fbf7eb" stroke-width="3.4" opacity="0.62" stroke-linecap="round" stroke-linejoin="round"/>
<path d="M181.1 35.8 L183.1 31.1 L180.9 28.9 L158.3 30.2" fill="none" stroke="#fbf7eb" stroke-width="3.4" opacity="0.62" stroke-linecap="round" stroke-linejoin="round"/>
<path d="M352.6 279.6 L366.3 292.3 L375.8 295.6" fill="none" stroke="#fbf7eb" stroke-width="3.4" opacity="0.62" stroke-linecap="round" stroke-linejoin="round"/>
<path d="M151.6 286.5 L145.5 289 L139.1 288 L121.3 290" fill="none" stroke="#fbf7eb" stroke-width="3.4" opacity="0.62" stroke-linecap="round" stroke-linejoin="round"/>
<path d="M122.6 140.6 L151.5 147.8" fill="none" stroke="#fbf7eb" stroke-width="3.4" opacity="0.62" stroke-linecap="round" stroke-linejoin="round"/>
<path d="M96 62.4 L104.7 40.6" fill="none" stroke="#fbf7eb" stroke-width="3.4" opacity="0.62" stroke-linecap="round" stroke-linejoin="round"/>
<path d="M60.5 285.9 L54.5 286.9 L51.4 276.7 L52.5 269.2" fill="none" stroke="#fbf7eb" stroke-width="3.4" opacity="0.62" stroke-linecap="round" stroke-linejoin="round"/>
<path d="M220.1 192.6 L222.7 189.6 L227.6 171.2" fill="none" stroke="#fbf7eb" stroke-width="3.4" opacity="0.62" stroke-linecap="round" stroke-linejoin="round"/>
<path d="M388.6 229.1 L394.4 219.5 L406.2 212.5" fill="none" stroke="#fbf7eb" stroke-width="3.4" opacity="0.62" stroke-linecap="round" stroke-linejoin="round"/>
<path d="M325.4 115.1 L321.2 123.1 L319.3 136.7" fill="none" stroke="#fbf7eb" stroke-width="3.4" opacity="0.62" stroke-linecap="round" stroke-linejoin="round"/>
<path d="M202.9 301.6 L205.6 303.8 L196.9 309.5 L189.2 317.9" fill="none" stroke="#fbf7eb" stroke-width="3.4" opacity="0.62" stroke-linecap="round" stroke-linejoin="round"/>
<path d="M87.8 46 L115.2 53.9" fill="none" stroke="#fbf7eb" stroke-width="3.4" opacity="0.62" stroke-linecap="round" stroke-linejoin="round"/>
<path d="M274.3 172.5 L276.6 163.2 L274.9 151.2" fill="none" stroke="#fbf7eb" stroke-width="3.4" opacity="0.62" stroke-linecap="round" stroke-linejoin="round"/>
<path d="M390.5 232.5 L404 228 L417.4 230.2" fill="none" stroke="#fbf7eb" stroke-width="3.4" opacity="0.62" stroke-linecap="round" stroke-linejoin="round"/>
<path d="M68.7 274.8 L82.8 277.5 L93.4 283.6" fill="none" stroke="#fbf7eb" stroke-width="3.4" opacity="0.62" stroke-linecap="round" stroke-linejoin="round"/>
<path d="M393.9 220 L397.2 223.6 L404.8 221 L413.4 222.9 L415.3 225.7" fill="none" stroke="#fbf7eb" stroke-width="3.4" opacity="0.62" stroke-linecap="round" stroke-linejoin="round"/>
<path d="M130.5 64.2 L135.1 43.9" fill="none" stroke="#fbf7eb" stroke-width="3.4" opacity="0.62" stroke-linecap="round" stroke-linejoin="round"/>
<path d="M392.7 233.5 L415.8 244.5" fill="none" stroke="#fbf7eb" stroke-width="3.4" opacity="0.62" stroke-linecap="round" stroke-linejoin="round"/>
<path d="M86.4 153.4 L96.9 143 L99 136.3" fill="none" stroke="#fbf7eb" stroke-width="3.4" opacity="0.62" stroke-linecap="round" stroke-linejoin="round"/>
<path d="M134.2 117.7 L159 124.6" fill="none" stroke="#fbf7eb" stroke-width="3.4" opacity="0.62" stroke-linecap="round" stroke-linejoin="round"/>
<path d="M84.5 214.8 L76.2 206 L74.9 197.4" fill="none" stroke="#fbf7eb" stroke-width="3.4" opacity="0.62" stroke-linecap="round" stroke-linejoin="round"/>
<path d="M294 104.3 L318.8 110.1" fill="none" stroke="#fbf7eb" stroke-width="3.4" opacity="0.62" stroke-linecap="round" stroke-linejoin="round"/>
<path d="M157.8 25.2 L169.6 23.2 L183.2 23.8" fill="none" stroke="#fbf7eb" stroke-width="3.4" opacity="0.62" stroke-linecap="round" stroke-linejoin="round"/>
</g>
<g data-layer="minor-road">
<path d="M60.8 172.5 L45.9 164.2 L36.5 162.3 L24.2 156" fill="none" stroke="#69776e" stroke-width="1.25" opacity="0.58" stroke-linecap="round" stroke-linejoin="round"/>
<path d="M92.3 233.3 L83.8 240.7 L78.8 250.4 L70.4 259.9" fill="none" stroke="#69776e" stroke-width="1.25" opacity="0.58" stroke-linecap="round" stroke-linejoin="round"/>
<path d="M297.3 131.9 L294.6 105.5" fill="none" stroke="#69776e" stroke-width="1.25" opacity="0.58" stroke-linecap="round" stroke-linejoin="round"/>
<path d="M117 161.5 L85.4 155.8" fill="none" stroke="#69776e" stroke-width="1.25" opacity="0.58" stroke-linecap="round" stroke-linejoin="round"/>
<path d="M291.8 96.4 L263 85.9" fill="none" stroke="#69776e" stroke-width="1.25" opacity="0.58" stroke-linecap="round" stroke-linejoin="round"/>
<path d="M140.7 215.2 L115.2 225.1" fill="none" stroke="#69776e" stroke-width="1.25" opacity="0.58" stroke-linecap="round" stroke-linejoin="round"/>
<path d="M293.8 107.3 L295.8 126.6" fill="none" stroke="#69776e" stroke-width="1.25" opacity="0.58" stroke-linecap="round" stroke-linejoin="round"/>
<path d="M139.1 85.4 L133.1 103.9" fill="none" stroke="#69776e" stroke-width="1.25" opacity="0.58" stroke-linecap="round" stroke-linejoin="round"/>
<path d="M263.1 171.9 L276.3 173.1 L286.7 177.1" fill="none" stroke="#69776e" stroke-width="1.25" opacity="0.58" stroke-linecap="round" stroke-linejoin="round"/>
<path d="M136.1 66.9 L146.4 66.4 L158.3 62.1" fill="none" stroke="#69776e" stroke-width="1.25" opacity="0.58" stroke-linecap="round" stroke-linejoin="round"/>
<path d="M251.9 222.3 L270.2 211.2" fill="none" stroke="#69776e" stroke-width="1.25" opacity="0.58" stroke-linecap="round" stroke-linejoin="round"/>
<path d="M123.7 127.5 L129.1 110.6" fill="none" stroke="#69776e" stroke-width="1.25" opacity="0.58" stroke-linecap="round" stroke-linejoin="round"/>
<path d="M66.9 56.5 L47.9 49.7" fill="none" stroke="#69776e" stroke-width="1.25" opacity="0.58" stroke-linecap="round" stroke-linejoin="round"/>
<path d="M112.2 226.4 L100.1 232.2 L93.6 232.7" fill="none" stroke="#69776e" stroke-width="1.25" opacity="0.58" stroke-linecap="round" stroke-linejoin="round"/>
<path d="M255.2 194.9 L266.9 207.7" fill="none" stroke="#69776e" stroke-width="1.25" opacity="0.58" stroke-linecap="round" stroke-linejoin="round"/>
<path d="M140.8 215.1 L150.4 228.4" fill="none" stroke="#69776e" stroke-width="1.25" opacity="0.58" stroke-linecap="round" stroke-linejoin="round"/>
<path d="M98.3 87.4 L104 73.1" fill="none" stroke="#69776e" stroke-width="1.25" opacity="0.58" stroke-linecap="round" stroke-linejoin="round"/>
<path d="M283.9 25 L288.8 25.5 L299.2 17.9" fill="none" stroke="#69776e" stroke-width="1.25" opacity="0.58" stroke-linecap="round" stroke-linejoin="round"/>
<path d="M154.3 207 L172.1 202" fill="none" stroke="#69776e" stroke-width="1.25" opacity="0.58" stroke-linecap="round" stroke-linejoin="round"/>
<path d="M208.7 96.8 L210.9 88.1 L214.7 83.8" fill="none" stroke="#69776e" stroke-width="1.25" opacity="0.58" stroke-linecap="round" stroke-linejoin="round"/>
<path d="M135.6 164.8 L117.4 161.5" fill="none" stroke="#69776e" stroke-width="1.25" opacity="0.58" stroke-linecap="round" stroke-linejoin="round"/>
<path d="M187.6 59.9 L187.5 53.7 L190.3 46.3" fill="none" stroke="#69776e" stroke-width="1.25" opacity="0.58" stroke-linecap="round" stroke-linejoin="round"/>
<path d="M0 88.9 L3.6 93.8 L11.4 94.6" fill="none" stroke="#69776e" stroke-width="1.25" opacity="0.58" stroke-linecap="round" stroke-linejoin="round"/>
<path d="M82.7 137.2 L81.5 150.3" fill="none" stroke="#69776e" stroke-width="1.25" opacity="0.58" stroke-linecap="round" stroke-linejoin="round"/>
<path d="M178.7 202.1 L182.6 207.3 L189.6 211.9" fill="none" stroke="#69776e" stroke-width="1.25" opacity="0.58" stroke-linecap="round" stroke-linejoin="round"/>
<path d="M33.6 255.8 L30.9 240.9 L27.8 235.6 L28.9 230 L25.7 221.8" fill="none" stroke="#69776e" stroke-width="1.25" opacity="0.58" stroke-linecap="round" stroke-linejoin="round"/>
<path d="M80.5 152.4 L41.8 138.3" fill="none" stroke="#69776e" stroke-width="1.25" opacity="0.58" stroke-linecap="round" stroke-linejoin="round"/>
<path d="M51.3 122.8 L26.2 117.6 L23.2 121.3 L22.4 128.4" fill="none" stroke="#69776e" stroke-width="1.25" opacity="0.58" stroke-linecap="round" stroke-linejoin="round"/>
<path d="M22.1 106.9 L13 107.8 L0 105.1 L0 96 L1.6 94.4" fill="none" stroke="#69776e" stroke-width="1.25" opacity="0.58" stroke-linecap="round" stroke-linejoin="round"/>
<path d="M326.3 164.9 L321.5 152.4 L320.8 140.9 L319.1 138.3" fill="none" stroke="#69776e" stroke-width="1.25" opacity="0.58" stroke-linecap="round" stroke-linejoin="round"/>
<path d="M157 148.3 L122.6 140.6" fill="none" stroke="#69776e" stroke-width="1.25" opacity="0.58" stroke-linecap="round" stroke-linejoin="round"/>
<path d="M87.4 184.2 L120.3 193.3" fill="none" stroke="#69776e" stroke-width="1.25" opacity="0.58" stroke-linecap="round" stroke-linejoin="round"/>
<path d="M74.9 197.4 L61.2 196.2 L41.3 198" fill="none" stroke="#69776e" stroke-width="1.25" opacity="0.58" stroke-linecap="round" stroke-linejoin="round"/>
<path d="M123.7 302.9 L128.9 301.4 L139.5 302.2 L128 306.4 L124.9 304.3" fill="none" stroke="#69776e" stroke-width="1.25" opacity="0.58" stroke-linecap="round" stroke-linejoin="round"/>
<path d="M181 297.8 L180 310.9 L177.4 310.4 L173.2 320" fill="none" stroke="#69776e" stroke-width="1.25" opacity="0.58" stroke-linecap="round" stroke-linejoin="round"/>
<path d="M262.5 239.7 L283.4 237.6 L295.2 239" fill="none" stroke="#69776e" stroke-width="1.25" opacity="0.58" stroke-linecap="round" stroke-linejoin="round"/>
<path d="M181.1 35.8 L183.1 31.1 L180.9 28.9 L158.3 30.2" fill="none" stroke="#69776e" stroke-width="1.25" opacity="0.58" stroke-linecap="round" stroke-linejoin="round"/>
<path d="M352.6 279.6 L366.3 292.3 L375.8 295.6" fill="none" stroke="#69776e" stroke-width="1.25" opacity="0.58" stroke-linecap="round" stroke-linejoin="round"/>
<path d="M151.6 286.5 L145.5 289 L139.1 288 L121.3 290" fill="none" stroke="#69776e" stroke-width="1.25" opacity="0.58" stroke-linecap="round" stroke-linejoin="round"/>
<path d="M122.6 140.6 L151.5 147.8" fill="none" stroke="#69776e" stroke-width="1.25" opacity="0.58" stroke-linecap="round" stroke-linejoin="round"/>
<path d="M96 62.4 L104.7 40.6" fill="none" stroke="#69776e" stroke-width="1.25" opacity="0.58" stroke-linecap="round" stroke-linejoin="round"/>
<path d="M60.5 285.9 L54.5 286.9 L51.4 276.7 L52.5 269.2" fill="none" stroke="#69776e" stroke-width="1.25" opacity="0.58" stroke-linecap="round" stroke-linejoin="round"/>
<path d="M220.1 192.6 L222.7 189.6 L227.6 171.2" fill="none" stroke="#69776e" stroke-width="1.25" opacity="0.58" stroke-linecap="round" stroke-linejoin="round"/>
<path d="M388.6 229.1 L394.4 219.5 L406.2 212.5" fill="none" stroke="#69776e" stroke-width="1.25" opacity="0.58" stroke-linecap="round" stroke-linejoin="round"/>
<path d="M325.4 115.1 L321.2 123.1 L319.3 136.7" fill="none" stroke="#69776e" stroke-width="1.25" opacity="0.58" stroke-linecap="round" stroke-linejoin="round"/>
<path d="M202.9 301.6 L205.6 303.8 L196.9 309.5 L189.2 317.9" fill="none" stroke="#69776e" stroke-width="1.25" opacity="0.58" stroke-linecap="round" stroke-linejoin="round"/>
<path d="M87.8 46 L115.2 53.9" fill="none" stroke="#69776e" stroke-width="1.25" opacity="0.58" stroke-linecap="round" stroke-linejoin="round"/>
<path d="M274.3 172.5 L276.6 163.2 L274.9 151.2" fill="none" stroke="#69776e" stroke-width="1.25" opacity="0.58" stroke-linecap="round" stroke-linejoin="round"/>
<path d="M390.5 232.5 L404 228 L417.4 230.2" fill="none" stroke="#69776e" stroke-width="1.25" opacity="0.58" stroke-linecap="round" stroke-linejoin="round"/>
<path d="M68.7 274.8 L82.8 277.5 L93.4 283.6" fill="none" stroke="#69776e" stroke-width="1.25" opacity="0.58" stroke-linecap="round" stroke-linejoin="round"/>
<path d="M393.9 220 L397.2 223.6 L404.8 221 L413.4 222.9 L415.3 225.7" fill="none" stroke="#69776e" stroke-width="1.25" opacity="0.58" stroke-linecap="round" stroke-linejoin="round"/>
<path d="M130.5 64.2 L135.1 43.9" fill="none" stroke="#69776e" stroke-width="1.25" opacity="0.58" stroke-linecap="round" stroke-linejoin="round"/>
<path d="M392.7 233.5 L415.8 244.5" fill="none" stroke="#69776e" stroke-width="1.25" opacity="0.58" stroke-linecap="round" stroke-linejoin="round"/>
<path d="M86.4 153.4 L96.9 143 L99 136.3" fill="none" stroke="#69776e" stroke-width="1.25" opacity="0.58" stroke-linecap="round" stroke-linejoin="round"/>
<path d="M134.2 117.7 L159 124.6" fill="none" stroke="#69776e" stroke-width="1.25" opacity="0.58" stroke-linecap="round" stroke-linejoin="round"/>
<path d="M84.5 214.8 L76.2 206 L74.9 197.4" fill="none" stroke="#69776e" stroke-width="1.25" opacity="0.58" stroke-linecap="round" stroke-linejoin="round"/>
<path d="M294 104.3 L318.8 110.1" fill="none" stroke="#69776e" stroke-width="1.25" opacity="0.58" stroke-linecap="round" stroke-linejoin="round"/>
<path d="M157.8 25.2 L169.6 23.2 L183.2 23.8" fill="none" stroke="#69776e" stroke-width="1.25" opacity="0.58" stroke-linecap="round" stroke-linejoin="round"/>
</g>
</g>
<rect x="8" y="8" width="404" height="304" rx="16" fill="none" stroke="#233934" stroke-width="1.4" opacity="0.44"/>
</svg>
