<svg xmlns="http://www.w3.org/2000/svg" viewBox="0 0 420 320" role="img" aria-label="Unlabeled north-up street-grid crop" data-orientation="north-up">
<metadata>{"orientation":"north-up","projection":"local-web-mercator"}</metadata>
<defs>
<clipPath id="mapCrop"><rect x="8" y="8" width="404" height="304" rx="16"/></clipPath>
</defs>
<rect width="420" height="320" fill="#ede7d8"/>
<rect x="8" y="8" width="404" height="304" rx="16" fill="#f7f1e3" stroke="#d8cbb2" stroke-width="1.25"/>
<g clip-path="url(#mapCrop)">
<g data-layer="major-road-casing">
<path d="M222 163.3 L194.3 164.2 M208.6 164.6 L221.4 164 M194.3 165.1 L208.6 164.6 M165.8 166 L194.3 165.1 M240.3 162.8 L222 163.3 M222.6 163.9 L240.2 163.5 M194.3 164.2 L180.5 164.6 M264.6 162.1 L240.3 162.8 M240.2 163.5 L257.7 163 M222 163.3 L221.9 136.4 M222.4 189.9 L195.7 191.9 M180.5 164.6 L169.1 165 M166.1 165.1 L131.8 166.1 M131.8 166.8 L165.8 166 M195.7 191.9 L194.7 171.6 M222.7 190.3 L241.5 189.8 M298.8 161.5 L265.5 162.1 M265.5 162.7 L298.8 162.1 M180.5 165.5 L181.9 192.4 M264.8 153.9 L264.3 135.4 M267.1 188.5 L266.1 169.7 M195.7 191.9 L181.9 192.4 M182 192.9 L195.8 192.3 M266.4 188.5 L245 189.2 M209.4 162.2 L208.1 136.8 M257.7 163 L264.6 162.7 M169.1 165 L166.1 165.1 M221.9 136.4 L208.1 136.8 M239.3 135.7 L221.9 136.4 M165.8 191.6 L137.3 192.4 M221.9 136.4 L220.6 103.1 M206.2 105.7 L166.1 107.2 L161.3 110.3 M237.8 102.7 L211.7 102.9 L206.2 105.7 M265.1 218.2 L215.8 220.2 L200.9 222.5 M264.8 153.9 L264.6 162.1 M221.4 164 L222.4 189.9 M223.3 189.3 L222.6 163.9 M201 223.1 L215.8 220.6 L267.7 219 M171.9 192 L182 192.9 M137.4 192.9 L160.8 192.2 M264.6 162.7 L265.2 170 M108.1 166.8 L131.8 166.8 M264.3 135.4 L263.7 123.4 M131.8 166.1 L99.2 166.1 M300.2 190.4 L277.5 190.9 L271.3 188.9 M263.7 123.4 L263.2 103.1 M266.6 189.8 L267.2 203.3 M237.8 103 L263.2 103.1 M200.3 218.6 L201.1 205.9 L199.4 200.2 M237.8 104.4 L238.6 124.4 M240.2 163.5 L241.2 188.8 M263.2 102.7 L237.8 102.7 M267.9 203.3 L267.4 191.5 M264.3 135.4 L249.8 135.5 M164.4 138.3 L166.1 165.1 M244.9 236.4 L242.2 190.2 M234.3 195.5 L232.6 193.9 L197.1 196.4 M268.8 219 L267.9 203.3 M131.8 166.1 L128.1 147.5 L128.1 109.4 M208.1 136.8 L206.2 105.7 M105.9 193.8 L136.8 192.9 M182.1 193.5 L176.3 201.3 M281.1 191.2 L300.2 190.7 M283 180.3 L273.6 187 L267.1 188.5 M184.8 227.1 L190 227.3 L190.5 243 M175.7 204.1 L176.4 219.6 L179.1 227.7 M239.8 154 L240.3 162.8 M240.6 162.8 L240.1 154 M242.1 203 L244 236.1 M209.5 163.7 L209.4 162.3 M179.1 227.7 L139.3 231.5 M192.1 242.8 L191.9 225.1 M180.9 107 L188.2 106.7 M267.6 212.1 L269.1 238 M264.3 135.4 L328.1 135.4 M328.1 135 L264.3 135.4 M165.8 166 L166 180.4 M264.1 130.2 L238.9 130.5 M230.8 136 L231.2 144.5 M301.5 216.6 L268.8 218 M173.3 107.2 L180.9 107 M181.9 192.4 L169.9 191 L136.8 191.8 M267.2 203.3 L267.6 212.1 M128.1 109.4 L147.9 110 M147.9 109.8 L128.1 109.1 M297.5 135.1 L298.8 161.5 M220.6 103.1 L219.5 82.9 M166 180.4 L170.9 182.4 L181.3 182.2 M238.6 124.4 L263.7 123.4 M221.5 124.7 L238.6 124.4 M240 154 L249 153.7 M162.7 111.5 L164.4 138.3 M165.4 186.3 L181.5 185.8 M249.4 145.2 L249 153.7 M249.2 153.7 L249.4 145.2 M209.4 162.3 L209.4 162.2 M242.5 195.5 L266.3 195.4 M283.8 180 L291.1 175.3 L299.3 174.6 M261.9 153.8 L249.2 153.7 M237.4 218.9 L233.7 208.8 L234.3 195.5 M242.1 203 L221.6 202.8 M222 163.3 L221.4 164 M222.6 163.9 L222 163.3 M139.3 231 L137.4 192.9 M231.4 92 L237.4 91.9 L237.8 102.7 M166 180.4 L165.8 191.6 M261.6 218.1 L213.4 220 L190.6 224.2 M221.6 202.8 L219.4 219.7 M216.4 203.4 L201.1 205.9 M166 192.6 L180.2 192.6 M151.8 192 L151.2 176.8 M201.1 223.5 L213.4 221.1 L259.9 219.5 M137.4 193.5 L161.4 192.7 M298.8 162.1 L299.3 174.1 M165.2 182.4 L151 182.9 M232 189.6 L225.6 189.3 M222.8 194.7 L221.6 202.8 M151.2 176.8 L152.4 166.3 M234.2 189.9 L242.2 190.2 M151.4 185.3 L165.4 186.3 M231.4 92 L230.7 69.7 M112.8 139 L111.2 109.6 M295.8 103 L296.8 122 M249.7 140.6 L249.4 145.2 M297.3 122 L296.3 103 M298.1 135.4 L297.3 122 M296.8 122 L297.5 135.1 M112.8 139 L127.8 139.7 M183.6 87.8 L182.8 69.4 M300 174.5 L314.1 174.5 M300.2 190.7 L300.8 202.6 M301.4 202.6 L300.9 190.7 M122.7 109.1 L121.5 90.2 M300.8 202.6 L301.5 216.6 M208.6 164.6 L209.5 163.7 M332.1 172.4 L333 178.2 L335.1 180.2 L350.5 180.5 M325.2 190.5 L333 190.6 L339.8 193.7 M267.6 195.4 L268.3 195.4 M327.1 190.2 L340.5 189.4 M340.1 189 L327.2 189.7 M129.8 193.1 L131.3 193.7 M336.4 180.9 L350.5 180.5 M358.6 187.6 L360.6 183.4 L365.2 180.4 L385.2 179.2 M333.5 187.3 L326.2 189.1 M334.6 157.2 L332 152.4 M333.1 170.7 L335 165.5 M245 189.2 L243.8 188.7 M320.5 190.2 L325.2 190.5 M242.1 189.7 L241.4 189.4 M241.4 189.4 L241.5 189.8 M259.9 219.5 L266.7 219.9 L267.5 223.2 M328.8 111.4 L329.5 103.6 M241.8 195.4 L242.5 195.5 M269.2 223 L270 219.5 L275.5 218.9 M160.8 192.2 L161.4 192.7 M276 217.6 L269.6 217.1 M266.6 217.3 L261.6 218.1 M324.8 59.4 L324.1 66.9 M30.4 158.5 L29 165.8 M32 170.4 L30.4 170.4 L31.1 166.5 M369.5 212.3 L370.1 215.2 M34.6 105 L32.2 98.9 M218.6 12.2 L225.7 12.6 M231 12.6 L238.1 11.9 M322.5 161.2 L299.6 161.5 M157.8 231.3 L179.3 228.1 M268.8 219 L302.3 217 M200.9 222.5 L190.1 224.9 M263.2 102.7 L261.9 72.4 M299.6 162.1 L306.7 162 M152.8 109.9 L161.4 110.7 M306.7 162 L319.1 161.8 M271.5 241 L269.5 236.3 L268.8 219 M274.4 103 L324.9 102.9 M324.9 102.2 L274.4 102.6 M322.7 189.8 L300.8 190.4 M98.3 166.1 L68.7 166 M98.7 156.3 L98 138.3 M332 152.4 L329.3 135.1 M328.8 135.1 L331.5 151.9 M327.8 115.3 L328.8 135.1 M274.4 102.6 L263.2 102.7 M77.3 166.6 L98.3 166.7 M182.8 69.4 L218.8 69.4 M300.9 190.7 L317 190.3 M218.8 68.8 L182.8 69.1 M98.7 178 L99.4 193.6 M329.3 135.1 L328.8 120.1 M335 185.2 L333.1 170.7 M222.7 190.3 L222.8 194.7 M253.1 189 L243.8 188.7 M269.6 217.1 L268 191.5 M261.6 68.2 L230.6 69.2 M99.2 166.7 L106.1 166.8 M276 186.1 L293.8 174.9 M298.8 162.1 L299.6 162.1 M100.6 227.2 L100.3 194.1 M98 138.3 L97.4 123.8 M138.7 231.6 L107.9 232.2 M237.8 103 L263.2 103.6 M182.8 69.1 L158 69.4 M328.8 120.1 L327.8 102.5 M332.6 171.8 L334.1 183.7 M263.2 102.3 L237.8 102.7 M240.2 163.5 L240.6 162.8 M240.3 162.8 L240.2 163.5 M194.4 88.1 L195.4 106.4 M268.3 195.4 L291.2 196.5 M100.5 232.9 L138.6 232.1 M266.7 190.3 L266.5 203.3 M137.3 192.4 L136.3 176.9 M136.3 176.9 L136.8 192.4 M291.2 196.5 L287.6 194.9 L268.3 195.4 M249.5 135.5 L249.7 139.3 M107.6 177.5 L136.3 176.9 M249.7 139.3 L249.8 135.5 M255.2 203.2 L242.1 203 M322.5 161.7 L331 161.5 M330.9 161.1 L322.5 161.2 M245.2 195.5 L245.5 203.1 M335.1 191 L339.8 193.7 L360 198.4 M225.6 189.3 L223.3 189.3 M344.8 216 L302.2 216.5 M267.9 203.3 L300.8 202.6 M173.3 107.2 L173.1 88.1 M282 156.2 L299.4 155.2 M106.1 166.8 L108.1 166.8 M122.1 71.2 L158.1 69.8 M136.3 176.9 L135.9 174.2 L131.9 170.8 L131.8 166.8 M190.6 224.2 L170.7 229.1 L139.3 231 M96.9 109.8 L97.4 123.8 M98.3 166.7 L98.5 174 M332 164.7 L332.6 171.8 M136.8 191.8 L109.5 192.8 M120.8 109.4 L128.1 109.4 M226.8 189.8 L225.6 189.3 M221.6 202.8 L216.4 203.4 M139.2 232.6 L169.6 230.4 L191.2 225.6 M327.4 102.5 L327.8 115.3 M218.4 220.5 L218.6 237.3 M319.1 161.8 L322.5 161.7 M219 237.2 L218.1 229.8 L219.9 220.5 M294.4 68 L262 68.2 M243.8 188.7 L241.2 188.8 M111.2 109.6 L120.8 109.4 M302.2 216.5 L301.4 202.6 M229.6 53.1 L230.3 69.1 M101 194.6 L136.8 193.5 M259.4 195.4 L259.5 202.8 M98 138.3 L112.8 139 M166.1 165.1 L165.8 166 M223.2 189.8 L223.3 189.3 M259.8 202.9 L259.7 195.4 M249.7 139.3 L249.7 140.6 M222.7 190.3 L223.2 189.8 M261.3 203.1 L261.2 195.4 M192.2 243 L217.2 237.4 L244.9 236.4 M266.5 203.3 L255.2 203.2 M96.9 109.8 L111.2 109.6 M255.2 203.2 L266.5 203.3 M261.9 153.8 L264.8 153.9 M264.8 153.7 L261.9 153.8 M222.4 189.9 L222.7 190.3 M128.1 109.1 L122.7 109.1 M58.2 166.5 L77.3 166.6 M331.5 151.9 L331.8 156.9 M326.6 85.7 L327.4 102.5 M333.1 170.7 L332.7 165.3 M296.3 102.5 L295 84.8 M295 84.8 L295.8 102.5 M327.8 102.5 L327.1 85.7 M100.5 200.3 L137.1 197.5 M230.3 69.1 L218.8 68.8 M249 153.7 L249.2 153.7 M192.9 249.3 L192.2 243 M345.9 161.1 L335.6 161 M331.8 156.9 L332 161.3 M332.4 156.9 L332 152.4 M335.8 161.5 L346 161.6 M332.7 161.3 L332.4 156.9 M98 138.3 L67.3 140.5 M244 236.1 L219 236.9 M270.6 240.7 L275.4 252.3 M263.8 125.1 L272.1 124.8 M219 236.9 L192.1 242.8 M272.1 124.8 L263.8 125 M78.7 194.7 L94.4 194.3 M332.7 165.3 L332.7 161.3 M263.2 103.6 L325.1 103.2 M266.5 203.3 L266.9 213 M346 161.6 L363 161.6 M325.2 101.8 L263.2 102.3 M241.2 188.8 L241.4 189.4 M332 161.3 L332 164.7 M330 103.2 L351 103.7 M283.8 180 L291.6 175.3 M351.4 103.3 L330 101.6 M275.1 195.1 L276.1 203.4 M94.8 72.3 L96.5 104 M276.1 203.4 L275.5 195.1 M161.4 192.7 L164.6 192.6 M98.3 166.7 L99.2 166.7 M336.2 190.6 L335 185.2 M350.5 180.5 L372.6 179.8 M99.2 166.1 L98.3 166.1 M230.6 69.2 L230.2 61 M59.5 141.1 L91.5 139 M120.8 109.1 L116.9 109.2 M86.6 194 L69.6 194.4 M193.7 263.2 L193.2 253.8 M334 161 L330.9 161.1 M191 253.8 L191.6 263.3 M307.3 174.1 L307 162 M331 161.5 L333.8 161.5 M334.1 183.7 L333.5 187.3 M261.5 62.5 L260.6 41.9 M316.1 251.4 L313.8 232.1 L302.3 217 M190.6 245.7 L190.8 249.1 M244.9 236.4 L257.9 236.4 L268.1 240.1 M333.5 187.3 L335.1 191 M352.3 143.6 L330.8 143.8 M98.1 174 L98.9 194.7 M272 241.1 L269.2 223 M100.2 193.4 L99.9 174.8 M190.8 249.1 L191 253.8 M121.5 90.2 L120.4 77.8 L122.1 71.2 M313.7 148.1 L313.9 161.3 M132.2 109 L111.2 109.6 M107.3 159.8 L108.1 147.4 M138.6 232.1 L139.3 243.9 M267.5 223.2 L268.8 238.9 M165 192.6 L166 192.6 M99.9 217.3 L99.9 227 M100.4 254.4 L100.5 232.9 M328.1 135 L329.3 160.1 M321.3 68 L295.2 68 M340.9 193.4 L336.2 190.6 M350.6 195.5 L340.9 193.4 M99.7 232.9 L99.6 254.3 M58.2 165.9 L33.9 165.8 M165.8 191.6 L165.9 192 M267.8 239.6 L258 236.2 L248 236.1 M387.4 161.3 L362.9 161.1 M363 161.6 L387.4 161.8 M360.6 215.6 L276 217.6 M275.5 218.9 L360.7 216.9 M301.4 202.6 L344.6 201.2 M68.7 166 L58.2 165.9 M335.2 160.2 L330 135.1 M229.3 42.2 L260.6 41.9 M352.3 161.1 L345.9 161.1 M59.4 232.4 L99.7 232.9 M362.9 161.1 L352.3 161.1 M183.6 87.8 L194.4 88.1 M98.4 232.2 L59.4 232 M268 191.5 L267.4 190.4 M191.2 225.6 L197.3 224.2 M260.6 41.4 L229.3 41.7 M164.6 192.6 L165 192.6 M110.9 103.6 L96.5 104" fill="none" stroke="#fcf7e8" stroke-width="6.4" opacity="0.92" stroke-linecap="round" stroke-linejoin="round"/>
</g>
<g data-layer="major-road">
<path d="M222 163.3 L194.3 164.2 M208.6 164.6 L221.4 164 M194.3 165.1 L208.6 164.6 M165.8 166 L194.3 165.1 M240.3 162.8 L222 163.3 M222.6 163.9 L240.2 163.5 M194.3 164.2 L180.5 164.6 M264.6 162.1 L240.3 162.8 M240.2 163.5 L257.7 163 M222 163.3 L221.9 136.4 M222.4 189.9 L195.7 191.9 M180.5 164.6 L169.1 165 M166.1 165.1 L131.8 166.1 M131.8 166.8 L165.8 166 M195.7 191.9 L194.7 171.6 M222.7 190.3 L241.5 189.8 M298.8 161.5 L265.5 162.1 M265.5 162.7 L298.8 162.1 M180.5 165.5 L181.9 192.4 M264.8 153.9 L264.3 135.4 M267.1 188.5 L266.1 169.7 M195.7 191.9 L181.9 192.4 M182 192.9 L195.8 192.3 M266.4 188.5 L245 189.2 M209.4 162.2 L208.1 136.8 M257.7 163 L264.6 162.7 M169.1 165 L166.1 165.1 M221.9 136.4 L208.1 136.8 M239.3 135.7 L221.9 136.4 M165.8 191.6 L137.3 192.4 M221.9 136.4 L220.6 103.1 M206.2 105.7 L166.1 107.2 L161.3 110.3 M237.8 102.7 L211.7 102.9 L206.2 105.7 M265.1 218.2 L215.8 220.2 L200.9 222.5 M264.8 153.9 L264.6 162.1 M221.4 164 L222.4 189.9 M223.3 189.3 L222.6 163.9 M201 223.1 L215.8 220.6 L267.7 219 M171.9 192 L182 192.9 M137.4 192.9 L160.8 192.2 M264.6 162.7 L265.2 170 M108.1 166.8 L131.8 166.8 M264.3 135.4 L263.7 123.4 M131.8 166.1 L99.2 166.1 M300.2 190.4 L277.5 190.9 L271.3 188.9 M263.7 123.4 L263.2 103.1 M266.6 189.8 L267.2 203.3 M237.8 103 L263.2 103.1 M200.3 218.6 L201.1 205.9 L199.4 200.2 M237.8 104.4 L238.6 124.4 M240.2 163.5 L241.2 188.8 M263.2 102.7 L237.8 102.7 M267.9 203.3 L267.4 191.5 M264.3 135.4 L249.8 135.5 M164.4 138.3 L166.1 165.1 M244.9 236.4 L242.2 190.2 M234.3 195.5 L232.6 193.9 L197.1 196.4 M268.8 219 L267.9 203.3 M131.8 166.1 L128.1 147.5 L128.1 109.4 M208.1 136.8 L206.2 105.7 M105.9 193.8 L136.8 192.9 M182.1 193.5 L176.3 201.3 M281.1 191.2 L300.2 190.7 M283 180.3 L273.6 187 L267.1 188.5 M184.8 227.1 L190 227.3 L190.5 243 M175.7 204.1 L176.4 219.6 L179.1 227.7 M239.8 154 L240.3 162.8 M240.6 162.8 L240.1 154 M242.1 203 L244 236.1 M209.5 163.7 L209.4 162.3 M179.1 227.7 L139.3 231.5 M192.1 242.8 L191.9 225.1 M180.9 107 L188.2 106.7 M267.6 212.1 L269.1 238 M264.3 135.4 L328.1 135.4 M328.1 135 L264.3 135.4 M165.8 166 L166 180.4 M264.1 130.2 L238.9 130.5 M230.8 136 L231.2 144.5 M301.5 216.6 L268.8 218 M173.3 107.2 L180.9 107 M181.9 192.4 L169.9 191 L136.8 191.8 M267.2 203.3 L267.6 212.1 M128.1 109.4 L147.9 110 M147.9 109.8 L128.1 109.1 M297.5 135.1 L298.8 161.5 M220.6 103.1 L219.5 82.9 M166 180.4 L170.9 182.4 L181.3 182.2 M238.6 124.4 L263.7 123.4 M221.5 124.7 L238.6 124.4 M240 154 L249 153.7 M162.7 111.5 L164.4 138.3 M165.4 186.3 L181.5 185.8 M249.4 145.2 L249 153.7 M249.2 153.7 L249.4 145.2 M209.4 162.3 L209.4 162.2 M242.5 195.5 L266.3 195.4 M283.8 180 L291.1 175.3 L299.3 174.6 M261.9 153.8 L249.2 153.7 M237.4 218.9 L233.7 208.8 L234.3 195.5 M242.1 203 L221.6 202.8 M222 163.3 L221.4 164 M222.6 163.9 L222 163.3 M139.3 231 L137.4 192.9 M231.4 92 L237.4 91.9 L237.8 102.7 M166 180.4 L165.8 191.6 M261.6 218.1 L213.4 220 L190.6 224.2 M221.6 202.8 L219.4 219.7 M216.4 203.4 L201.1 205.9 M166 192.6 L180.2 192.6 M151.8 192 L151.2 176.8 M201.1 223.5 L213.4 221.1 L259.9 219.5 M137.4 193.5 L161.4 192.7 M298.8 162.1 L299.3 174.1 M165.2 182.4 L151 182.9 M232 189.6 L225.6 189.3 M222.8 194.7 L221.6 202.8 M151.2 176.8 L152.4 166.3 M234.2 189.9 L242.2 190.2 M151.4 185.3 L165.4 186.3 M231.4 92 L230.7 69.7 M112.8 139 L111.2 109.6 M295.8 103 L296.8 122 M249.7 140.6 L249.4 145.2 M297.3 122 L296.3 103 M298.1 135.4 L297.3 122 M296.8 122 L297.5 135.1 M112.8 139 L127.8 139.7 M183.6 87.8 L182.8 69.4 M300 174.5 L314.1 174.5 M300.2 190.7 L300.8 202.6 M301.4 202.6 L300.9 190.7 M122.7 109.1 L121.5 90.2 M300.8 202.6 L301.5 216.6 M208.6 164.6 L209.5 163.7 M332.1 172.4 L333 178.2 L335.1 180.2 L350.5 180.5 M325.2 190.5 L333 190.6 L339.8 193.7 M267.6 195.4 L268.3 195.4 M327.1 190.2 L340.5 189.4 M340.1 189 L327.2 189.7 M129.8 193.1 L131.3 193.7 M336.4 180.9 L350.5 180.5 M358.6 187.6 L360.6 183.4 L365.2 180.4 L385.2 179.2 M333.5 187.3 L326.2 189.1 M334.6 157.2 L332 152.4 M333.1 170.7 L335 165.5 M245 189.2 L243.8 188.7 M320.5 190.2 L325.2 190.5 M242.1 189.7 L241.4 189.4 M241.4 189.4 L241.5 189.8 M259.9 219.5 L266.7 219.9 L267.5 223.2 M328.8 111.4 L329.5 103.6 M241.8 195.4 L242.5 195.5 M269.2 223 L270 219.5 L275.5 218.9 M160.8 192.2 L161.4 192.7 M276 217.6 L269.6 217.1 M266.6 217.3 L261.6 218.1 M324.8 59.4 L324.1 66.9 M30.4 158.5 L29 165.8 M32 170.4 L30.4 170.4 L31.1 166.5 M369.5 212.3 L370.1 215.2 M34.6 105 L32.2 98.9 M218.6 12.2 L225.7 12.6 M231 12.6 L238.1 11.9 M322.5 161.2 L299.6 161.5 M157.8 231.3 L179.3 228.1 M268.8 219 L302.3 217 M200.9 222.5 L190.1 224.9 M263.2 102.7 L261.9 72.4 M299.6 162.1 L306.7 162 M152.8 109.9 L161.4 110.7 M306.7 162 L319.1 161.8 M271.5 241 L269.5 236.3 L268.8 219 M274.4 103 L324.9 102.9 M324.9 102.2 L274.4 102.6 M322.7 189.8 L300.8 190.4 M98.3 166.1 L68.7 166 M98.7 156.3 L98 138.3 M332 152.4 L329.3 135.1 M328.8 135.1 L331.5 151.9 M327.8 115.3 L328.8 135.1 M274.4 102.6 L263.2 102.7 M77.3 166.6 L98.3 166.7 M182.8 69.4 L218.8 69.4 M300.9 190.7 L317 190.3 M218.8 68.8 L182.8 69.1 M98.7 178 L99.4 193.6 M329.3 135.1 L328.8 120.1 M335 185.2 L333.1 170.7 M222.7 190.3 L222.8 194.7 M253.1 189 L243.8 188.7 M269.6 217.1 L268 191.5 M261.6 68.2 L230.6 69.2 M99.2 166.7 L106.1 166.8 M276 186.1 L293.8 174.9 M298.8 162.1 L299.6 162.1 M100.6 227.2 L100.3 194.1 M98 138.3 L97.4 123.8 M138.7 231.6 L107.9 232.2 M237.8 103 L263.2 103.6 M182.8 69.1 L158 69.4 M328.8 120.1 L327.8 102.5 M332.6 171.8 L334.1 183.7 M263.2 102.3 L237.8 102.7 M240.2 163.5 L240.6 162.8 M240.3 162.8 L240.2 163.5 M194.4 88.1 L195.4 106.4 M268.3 195.4 L291.2 196.5 M100.5 232.9 L138.6 232.1 M266.7 190.3 L266.5 203.3 M137.3 192.4 L136.3 176.9 M136.3 176.9 L136.8 192.4 M291.2 196.5 L287.6 194.9 L268.3 195.4 M249.5 135.5 L249.7 139.3 M107.6 177.5 L136.3 176.9 M249.7 139.3 L249.8 135.5 M255.2 203.2 L242.1 203 M322.5 161.7 L331 161.5 M330.9 161.1 L322.5 161.2 M245.2 195.5 L245.5 203.1 M335.1 191 L339.8 193.7 L360 198.4 M225.6 189.3 L223.3 189.3 M344.8 216 L302.2 216.5 M267.9 203.3 L300.8 202.6 M173.3 107.2 L173.1 88.1 M282 156.2 L299.4 155.2 M106.1 166.8 L108.1 166.8 M122.1 71.2 L158.1 69.8 M136.3 176.9 L135.9 174.2 L131.9 170.8 L131.8 166.8 M190.6 224.2 L170.7 229.1 L139.3 231 M96.9 109.8 L97.4 123.8 M98.3 166.7 L98.5 174 M332 164.7 L332.6 171.8 M136.8 191.8 L109.5 192.8 M120.8 109.4 L128.1 109.4 M226.8 189.8 L225.6 189.3 M221.6 202.8 L216.4 203.4 M139.2 232.6 L169.6 230.4 L191.2 225.6 M327.4 102.5 L327.8 115.3 M218.4 220.5 L218.6 237.3 M319.1 161.8 L322.5 161.7 M219 237.2 L218.1 229.8 L219.9 220.5 M294.4 68 L262 68.2 M243.8 188.7 L241.2 188.8 M111.2 109.6 L120.8 109.4 M302.2 216.5 L301.4 202.6 M229.6 53.1 L230.3 69.1 M101 194.6 L136.8 193.5 M259.4 195.4 L259.5 202.8 M98 138.3 L112.8 139 M166.1 165.1 L165.8 166 M223.2 189.8 L223.3 189.3 M259.8 202.9 L259.7 195.4 M249.7 139.3 L249.7 140.6 M222.7 190.3 L223.2 189.8 M261.3 203.1 L261.2 195.4 M192.2 243 L217.2 237.4 L244.9 236.4 M266.5 203.3 L255.2 203.2 M96.9 109.8 L111.2 109.6 M255.2 203.2 L266.5 203.3 M261.9 153.8 L264.8 153.9 M264.8 153.7 L261.9 153.8 M222.4 189.9 L222.7 190.3 M128.1 109.1 L122.7 109.1 M58.2 166.5 L77.3 166.6 M331.5 151.9 L331.8 156.9 M326.6 85.7 L327.4 102.5 M333.1 170.7 L332.7 165.3 M296.3 102.5 L295 84.8 M295 84.8 L295.8 102.5 M327.8 102.5 L327.1 85.7 M100.5 200.3 L137.1 197.5 M230.3 69.1 L218.8 68.8 M249 153.7 L249.2 153.7 M192.9 249.3 L192.2 243 M345.9 161.1 L335.6 161 M331.8 156.9 L332 161.3 M332.4 156.9 L332 152.4 M335.8 161.5 L346 161.6 M332.7 161.3 L332.4 156.9 M98 138.3 L67.3 140.5 M244 236.1 L219 236.9 M270.6 240.7 L275.4 252.3 M263.8 125.1 L272.1 124.8 M219 236.9 L192.1 242.8 M272.1 124.8 L263.8 125 M78.7 194.7 L94.4 194.3 M332.7 165.3 L332.7 161.3 M263.2 103.6 L325.1 103.2 M266.5 203.3 L266.9 213 M346 161.6 L363 161.6 M325.2 101.8 L263.2 102.3 M241.2 188.8 L241.4 189.4 M332 161.3 L332 164.7 M330 103.2 L351 103.7 M283.8 180 L291.6 175.3 M351.4 103.3 L330 101.6 M275.1 195.1 L276.1 203.4 M94.8 72.3 L96.5 104 M276.1 203.4 L275.5 195.1 M161.4 192.7 L164.6 192.6 M98.3 166.7 L99.2 166.7 M336.2 190.6 L335 185.2 M350.5 180.5 L372.6 179.8 M99.2 166.1 L98.3 166.1 M230.6 69.2 L230.2 61 M59.5 141.1 L91.5 139 M120.8 109.1 L116.9 109.2 M86.6 194 L69.6 194.4 M193.7 263.2 L193.2 253.8 M334 161 L330.9 161.1 M191 253.8 L191.6 263.3 M307.3 174.1 L307 162 M331 161.5 L333.8 161.5 M334.1 183.7 L333.5 187.3 M261.5 62.5 L260.6 41.9 M316.1 251.4 L313.8 232.1 L302.3 217 M190.6 245.7 L190.8 249.1 M244.9 236.4 L257.9 236.4 L268.1 240.1 M333.5 187.3 L335.1 191 M352.3 143.6 L330.8 143.8 M98.1 174 L98.9 194.7 M272 241.1 L269.2 223 M100.2 193.4 L99.9 174.8 M190.8 249.1 L191 253.8 M121.5 90.2 L120.4 77.8 L122.1 71.2 M313.7 148.1 L313.9 161.3 M132.2 109 L111.2 109.6 M107.3 159.8 L108.1 147.4 M138.6 232.1 L139.3 243.9 M267.5 223.2 L268.8 238.9 M165 192.6 L166 192.6 M99.9 217.3 L99.9 227 M100.4 254.4 L100.5 232.9 M328.1 135 L329.3 160.1 M321.3 68 L295.2 68 M340.9 193.4 L336.2 190.6 M350.6 195.5 L340.9 193.4 M99.7 232.9 L99.6 254.3 M58.2 165.9 L33.9 165.8 M165.8 191.6 L165.9 192 M267.8 239.6 L258 236.2 L248 236.1 M387.4 161.3 L362.9 161.1 M363 161.6 L387.4 161.8 M360.6 215.6 L276 217.6 M275.5 218.9 L360.7 216.9 M301.4 202.6 L344.6 201.2 M68.7 166 L58.2 165.9 M335.2 160.2 L330 135.1 M229.3 42.2 L260.6 41.9 M352.3 161.1 L345.9 161.1 M59.4 232.4 L99.7 232.9 M362.9 161.1 L352.3 161.1 M183.6 87.8 L194.4 88.1 M98.4 232.2 L59.4 232 M268 191.5 L267.4 190.4 M191.2 225.6 L197.3 224.2 M260.6 41.4 L229.3 41.7 M164.6 192.6 L165 192.6 M110.9 103.6 L96.5 104" fill="none" stroke="#1f3733" stroke-width="2.7" opacity="0.9" stroke-linecap="round" stroke-linejoin="round"/>
</g>
<g data-layer="minor-road-casing">
<path d="M124.7 24.6 L144.5 32.5 L156.8 41.9 L172.1 48.3 M404.1 287.5 L403.8 276.3 L398.1 272 L397.5 253.9 L395.2 250.5 M301.5 262.8 L302 270.6 L305.2 274.3 L305.3 277.5 L286.8 291 L282 291.1 M336.1 149.5 L383.7 149.1 M317.7 65.5 L297 65.5 L296.8 60.7 L317.3 60.6 M411 180.5 L364.2 181.9 M112.9 123.3 L113.4 131.9 L124.4 131.5 L124.1 123 L112.9 123.3 M378 249.3 L377.9 228.1 L380.4 225 L380.5 217.3 M301.1 196.8 L317.5 196.2 L343 198.5 M22.7 290.1 L39 290.6 L39.8 292.5 L61.1 292.2 M259.4 215.8 L259.6 209.7 L264.3 210.3 L264.2 215.6 L243.7 216.4 M98.9 282.5 L61 282.3 M317.9 106.1 L301.5 106.3 L302 116.1 L299.8 120.6 M136.6 70.2 L138 89.7 L136.5 91.3 L128.9 91.5 M316.7 41.1 L317.9 68 M59.3 228.5 L69.8 212.2 L70.6 204 M200.8 293.5 L200.3 278.9 L202.3 274.9 L202.2 267.7 M334.5 123.7 L336.1 149.5 M96.2 13.6 L102.1 22.5 L108.1 22.7 L118.9 30.3 M58.3 26.6 L81.2 20.3 L91.2 20.2 M264.6 148.4 L298.3 148.1 M242.9 217 L209.7 218 M264.4 140.6 L297.9 140.2 M264.1 130.2 L297.3 129.7 M345 309.4 L312 309.5 M78 301.9 L77.8 285 L87.4 284.9 M376.6 211.9 L384.9 207.1 L399.1 205.7 L402.7 202.7 M326.8 109.9 L326.1 111.3 L296.3 111.7 M229.3 47.9 L260.9 47.8 M352.2 154.5 L383.6 154.4 M198.3 308.6 L229.7 309.2 M260 24.6 L228.6 24.9 M328.7 147.7 L298.3 148.1 M130.2 193.7 L130.2 195.1 L122.5 195.7 L103.8 196.3 L103.8 194.8 M294.4 58.1 L324.7 57.3 M417.8 196.7 L387.5 196.3 M33.2 221.2 L33.4 203 L27.8 203.7 M398.2 237.5 L368.1 238.7 M74.7 272.9 L74.8 295.1 M331.2 210.4 L302 212.4 M33.2 221.2 L39 219.2 L46.2 219.8 L46 229.1 L44.3 229.2 M139.4 93.1 L139.9 95 L137.3 95.6 L137.4 102.2 L131.8 102.7 L132.2 109 M408.4 217 L408.1 238.1 M11.1 9.4 L10.8 19.6 L13.2 29.8 M128.7 70.8 L128.9 91.5 M97.9 136.4 L101.8 136.6 L111.5 121 M362.1 231.9 L335.4 233.2 M408.7 216.4 L408.7 196.5 M408.7 196.5 L408.3 216.4 M0 178.5 L13 178.2 L13.4 173.3 M42.7 77.4 L47.7 77.1 L47.6 81 L63.6 81.2 M137.5 249.2 L137.6 253.4 L130.1 253.5 L130.2 249.2 L137.5 249.2 M94.5 64 L120.5 62.2 M211.2 119.6 L212.9 134.1 L210.3 134.5 L210.6 136.7 M136.8 42.7 L161.9 47.1 M283.3 162.4 L283.6 166.3 L266.1 169.7 M108.1 39.1 L115.9 39.4 L116.3 42.7 L108.3 43.1 L108.1 39.1 M327.3 226.5 L329.2 236.4 L325.8 244.4 M59.7 32.9 L73.7 31.7 L72.6 23.3 M148.5 20.4 L173.6 20.1 M387.9 57.5 L362.9 57.9 M237.5 86.7 L262.5 86.8 M53.1 292.3 L51.8 274.1 M237.7 90.1 L262.6 89.5 M266.2 192.4 L242.3 192.1 M272.1 124.8 L296.9 124.8 M300.3 192.4 L275.5 192.7 M11.6 125 L11.2 113.4 L19.6 112.4 M177.8 305.3 L162.6 305.5 L161.4 308.1 L156 308.3 M335.4 233.2 L330.1 244.2 L330.2 250.8 M349.1 237.2 L342.8 237.5 L339.7 244.8 L340.1 250.6 M0 173.1 L17.8 173.3 M48.4 178.5 L48.9 189.7 L58.1 189.7 M343.7 162.1 L343.8 180.2 M264.6 145.8 L288.6 145.6 M17.6 169.5 L0 169.1 M389.5 302.3 L413.5 302.4 M311.4 84.4 L312 71.7 L305.4 71.6 M109.7 271.9 L111.1 289.4 M411.7 121.4 L388.5 121.5 M295 84.8 L318.1 84.3 M188.8 224.7 L188.2 207.4 M46.1 221.1 L49.3 221 L50.6 218.6 L50.4 212.9 L58.1 212.8 M309.5 227.6 L321.6 232.6 L322.5 239.4 M71.3 238.5 L71.4 236.7 L63.2 236.8 L63.2 240.2 L65.1 240.1 L65.1 241.7 L61.5 241.8 M395.6 40 L395.7 22.9 M345.2 49.4 L360.3 48.6 L360.8 51 L364.2 52.6 M352.4 135.2 L330 135.1 M316.8 44.9 L294.6 45 M55 236.9 L54.4 249.7 L59.2 249.6 M198 69.4 L201.4 74.2 L216.2 73.7 M114.8 185.8 L136.8 185.8 M393.9 93.1 L394.3 84.4 L399.3 81.4 L399.3 78.4 M322.2 217.1 L322 220.4 L304.5 221.1 M407.5 272.1 L416.7 272.3 L416.5 276.5 L409.4 276.3 M30.8 35.2 L52.6 33.5 M79.4 140.4 L78.9 124 M284 203.1 L281.3 196.7 L284.7 196.7 L283.9 201.4 M78.1 196.9 L99.6 196.6 M112.3 111.5 L118.1 111.1 L118.7 122.7 M242.8 133.1 L264.2 132.8 M305.6 84.6 L305.4 68.6 M179.3 240.7 L158.8 240.3 M68.7 166 L68.9 158 L58.3 158.1 M120.9 62.2 L142.1 60.8 M78.2 194.2 L77.6 178.3 M263.4 237.6 L266.2 221.9 M229.9 61 L208.8 61.3 M20.7 245.1 L41.5 243.7 M114.4 177.5 L114.9 193 M366.8 189.7 L368.4 202.7 L364.9 202.7 M77.6 178.3 L98.4 178 M21.7 263.4 L42.3 263.1 M401.9 298.5 L401.9 314 M171.8 48.8 L173.7 53.7 L162 58.3 M40.9 46.4 L61.3 48.1 M36.1 42.7 L35.9 39.8 L44.3 39.7 L45.8 34.2 M367.4 222.1 L387.6 222.2 M254.9 218.3 L255.2 203.2 M344.1 279.3 L340.3 281.6 L334.4 281.8 L327.6 285.9 M388.2 45.4 L393.2 47.6 L407 47.8 M61.3 51.1 L41.3 52.2 M290.1 171.5 L270.2 172.8 M326 91 L306.6 90.8 M313.7 205.8 L311.3 205.9 M151.3 238.1 L170.9 237.7 M85.3 14.9 L87.5 20.9 L87.4 29.3 M90 297 L89.8 282.3 M389.5 306 L408.8 307.4 M230.6 124.7 L230.8 110.6 M264.2 314 L258.4 308.5 L259.7 301.2 M58.3 178.1 L77.6 178.3 M291.5 251.8 L281.6 239.6 M408.1 210.5 L395.5 211.8 L393.8 215.8 M245.4 213.7 L251.7 213.2 L251.6 208.6 L245.2 208 M276.1 203.4 L276.7 217.6 M222.5 102.8 L221.8 88.7 M175.6 243.2 L177.1 233.8 L175.8 229.3 M295.8 99.4 L303.3 99.4 L303.1 90.9 M349.4 243.6 L331.1 241.6 M407 35.5 L388.3 35.6 M283.4 150.1 L264.7 150.5 M248.4 308.8 L229.7 309.2 M308.5 226.9 L327.3 226.5 M291.4 273.7 L294.8 273.8 L295.3 285.3 M220.9 110.2 L212.6 110.4 L210.8 103.5 M29.9 94.1 L26.3 94.1 L26.4 100.7 L20.3 100.8 M58.5 197.6 L74.3 197.1 L74.8 195.3 M219.4 82 L237.4 83.2 M388.3 60 L406.7 60.1 M79.6 136 L97.9 136.4 M148.9 274.2 L134.3 273.4 L134 270.9 M222.4 157.4 L240.1 158.3 M305.8 41.2 L306 27.6 M278.9 308.5 L297.1 308.2 M395.8 298.5 L395.8 312 M149.4 285.4 L167.3 284.6 M388.5 157.6 L392.4 157.6 L392.4 150.2 L388.5 150.1 M41.9 31.2 L59.3 28.9 M92.2 261.1 L92.2 267.1 L89.6 267.1 L89.9 272.5 M60 266.2 L42.5 266.5 M59.8 262.3 L42.3 262.6 M54.1 43 L51.9 30 M368.4 202.7 L369.5 215.7 M318.1 40.8 L318.7 27.8 M300.9 191.4 L317.1 191.8 M316.1 135.1 L316.2 148.1 M303.3 45.1 L304.6 57.9 M240.8 174.5 L257.9 173.7 M257.8 171 L240.6 171.8 M408.3 220.8 L420 220.8 M235.5 226.2 L218.5 227 M45.9 238.6 L45.8 248.2 L41.7 248.8 M245.2 208 L245.4 215 L253.1 214.7 M399.7 47.8 L399.6 52.8 L401.8 53 L401.8 55.2 L406.9 55.2 M128.9 91.5 L128.5 99.2 L122.7 100.3 M265.2 157.2 L282 156.2 M138.7 264.3 L139.3 269.8 L148.7 269.5 M51.9 279 L35.1 279.3 M116.9 18.1 L103.8 15.5 L103.7 13.3" fill="none" stroke="#fbf7eb" stroke-width="3.4" opacity="0.62" stroke-linecap="round" stroke-linejoin="round"/>
</g>
<g data-layer="minor-road">
<path d="M124.7 24.6 L144.5 32.5 L156.8 41.9 L172.1 48.3 M404.1 287.5 L403.8 276.3 L398.1 272 L397.5 253.9 L395.2 250.5 M301.5 262.8 L302 270.6 L305.2 274.3 L305.3 277.5 L286.8 291 L282 291.1 M336.1 149.5 L383.7 149.1 M317.7 65.5 L297 65.5 L296.8 60.7 L317.3 60.6 M411 180.5 L364.2 181.9 M112.9 123.3 L113.4 131.9 L124.4 131.5 L124.1 123 L112.9 123.3 M378 249.3 L377.9 228.1 L380.4 225 L380.5 217.3 M301.1 196.8 L317.5 196.2 L343 198.5 M22.7 290.1 L39 290.6 L39.8 292.5 L61.1 292.2 M259.4 215.8 L259.6 209.7 L264.3 210.3 L264.2 215.6 L243.7 216.4 M98.9 282.5 L61 282.3 M317.9 106.1 L301.5 106.3 L302 116.1 L299.8 120.6 M136.6 70.2 L138 89.7 L136.5 91.3 L128.9 91.5 M316.7 41.1 L317.9 68 M59.3 228.5 L69.8 212.2 L70.6 204 M200.8 293.5 L200.3 278.9 L202.3 274.9 L202.2 267.7 M334.5 123.7 L336.1 149.5 M96.2 13.6 L102.1 22.5 L108.1 22.7 L118.9 30.3 M58.3 26.6 L81.2 20.3 L91.2 20.2 M264.6 148.4 L298.3 148.1 M242.9 217 L209.7 218 M264.4 140.6 L297.9 140.2 M264.1 130.2 L297.3 129.7 M345 309.4 L312 309.5 M78 301.9 L77.8 285 L87.4 284.9 M376.6 211.9 L384.9 207.1 L399.1 205.7 L402.7 202.7 M326.8 109.9 L326.1 111.3 L296.3 111.7 M229.3 47.9 L260.9 47.8 M352.2 154.5 L383.6 154.4 M198.3 308.6 L229.7 309.2 M260 24.6 L228.6 24.9 M328.7 147.7 L298.3 148.1 M130.2 193.7 L130.2 195.1 L122.5 195.7 L103.8 196.3 L103.8 194.8 M294.4 58.1 L324.7 57.3 M417.8 196.7 L387.5 196.3 M33.2 221.2 L33.4 203 L27.8 203.7 M398.2 237.5 L368.1 238.7 M74.7 272.9 L74.8 295.1 M331.2 210.4 L302 212.4 M33.2 221.2 L39 219.2 L46.2 219.8 L46 229.1 L44.3 229.2 M139.4 93.1 L139.9 95 L137.3 95.6 L137.4 102.2 L131.8 102.7 L132.2 109 M408.4 217 L408.1 238.1 M11.1 9.4 L10.8 19.6 L13.2 29.8 M128.7 70.8 L128.9 91.5 M97.9 136.4 L101.8 136.6 L111.5 121 M362.1 231.9 L335.4 233.2 M408.7 216.4 L408.7 196.5 M408.7 196.5 L408.3 216.4 M0 178.5 L13 178.2 L13.4 173.3 M42.7 77.4 L47.7 77.1 L47.6 81 L63.6 81.2 M137.5 249.2 L137.6 253.4 L130.1 253.5 L130.2 249.2 L137.5 249.2 M94.5 64 L120.5 62.2 M211.2 119.6 L212.9 134.1 L210.3 134.5 L210.6 136.7 M136.8 42.7 L161.9 47.1 M283.3 162.4 L283.6 166.3 L266.1 169.7 M108.1 39.1 L115.9 39.4 L116.3 42.7 L108.3 43.1 L108.1 39.1 M327.3 226.5 L329.2 236.4 L325.8 244.4 M59.7 32.9 L73.7 31.7 L72.6 23.3 M148.5 20.4 L173.6 20.1 M387.9 57.5 L362.9 57.9 M237.5 86.7 L262.5 86.8 M53.1 292.3 L51.8 274.1 M237.7 90.1 L262.6 89.5 M266.2 192.4 L242.3 192.1 M272.1 124.8 L296.9 124.8 M300.3 192.4 L275.5 192.7 M11.6 125 L11.2 113.4 L19.6 112.4 M177.8 305.3 L162.6 305.5 L161.4 308.1 L156 308.3 M335.4 233.2 L330.1 244.2 L330.2 250.8 M349.1 237.2 L342.8 237.5 L339.7 244.8 L340.1 250.6 M0 173.1 L17.8 173.3 M48.4 178.5 L48.9 189.7 L58.1 189.7 M343.7 162.1 L343.8 180.2 M264.6 145.8 L288.6 145.6 M17.6 169.5 L0 169.1 M389.5 302.3 L413.5 302.4 M311.4 84.4 L312 71.7 L305.4 71.6 M109.7 271.9 L111.1 289.4 M411.7 121.4 L388.5 121.5 M295 84.8 L318.1 84.3 M188.8 224.7 L188.2 207.4 M46.1 221.1 L49.3 221 L50.6 218.6 L50.4 212.9 L58.1 212.8 M309.5 227.6 L321.6 232.6 L322.5 239.4 M71.3 238.5 L71.4 236.7 L63.2 236.8 L63.2 240.2 L65.1 240.1 L65.1 241.7 L61.5 241.8 M395.6 40 L395.7 22.9 M345.2 49.4 L360.3 48.6 L360.8 51 L364.2 52.6 M352.4 135.2 L330 135.1 M316.8 44.9 L294.6 45 M55 236.9 L54.4 249.7 L59.2 249.6 M198 69.4 L201.4 74.2 L216.2 73.7 M114.8 185.8 L136.8 185.8 M393.9 93.1 L394.3 84.4 L399.3 81.4 L399.3 78.4 M322.2 217.1 L322 220.4 L304.5 221.1 M407.5 272.1 L416.7 272.3 L416.5 276.5 L409.4 276.3 M30.8 35.2 L52.6 33.5 M79.4 140.4 L78.9 124 M284 203.1 L281.3 196.7 L284.7 196.7 L283.9 201.4 M78.1 196.9 L99.6 196.6 M112.3 111.5 L118.1 111.1 L118.7 122.7 M242.8 133.1 L264.2 132.8 M305.6 84.6 L305.4 68.6 M179.3 240.7 L158.8 240.3 M68.7 166 L68.9 158 L58.3 158.1 M120.9 62.2 L142.1 60.8 M78.2 194.2 L77.6 178.3 M263.4 237.6 L266.2 221.9 M229.9 61 L208.8 61.3 M20.7 245.1 L41.5 243.7 M114.4 177.5 L114.9 193 M366.8 189.7 L368.4 202.7 L364.9 202.7 M77.6 178.3 L98.4 178 M21.7 263.4 L42.3 263.1 M401.9 298.5 L401.9 314 M171.8 48.8 L173.7 53.7 L162 58.3 M40.9 46.4 L61.3 48.1 M36.1 42.7 L35.9 39.8 L44.3 39.7 L45.8 34.2 M367.4 222.1 L387.6 222.2 M254.9 218.3 L255.2 203.2 M344.1 279.3 L340.3 281.6 L334.4 281.8 L327.6 285.9 M388.2 45.4 L393.2 47.6 L407 47.8 M61.3 51.1 L41.3 52.2 M290.1 171.5 L270.2 172.8 M326 91 L306.6 90.8 M313.7 205.8 L311.3 205.9 M151.3 238.1 L170.9 237.7 M85.3 14.9 L87.5 20.9 L87.4 29.3 M90 297 L89.8 282.3 M389.5 306 L408.8 307.4 M230.6 124.7 L230.8 110.6 M264.2 314 L258.4 308.5 L259.7 301.2 M58.3 178.1 L77.6 178.3 M291.5 251.8 L281.6 239.6 M408.1 210.5 L395.5 211.8 L393.8 215.8 M245.4 213.7 L251.7 213.2 L251.6 208.6 L245.2 208 M276.1 203.4 L276.7 217.6 M222.5 102.8 L221.8 88.7 M175.6 243.2 L177.1 233.8 L175.8 229.3 M295.8 99.4 L303.3 99.4 L303.1 90.9 M349.4 243.6 L331.1 241.6 M407 35.5 L388.3 35.6 M283.4 150.1 L264.7 150.5 M248.4 308.8 L229.7 309.2 M308.5 226.9 L327.3 226.5 M291.4 273.7 L294.8 273.8 L295.3 285.3 M220.9 110.2 L212.6 110.4 L210.8 103.5 M29.9 94.1 L26.3 94.1 L26.4 100.7 L20.3 100.8 M58.5 197.6 L74.3 197.1 L74.8 195.3 M219.4 82 L237.4 83.2 M388.3 60 L406.7 60.1 M79.6 136 L97.9 136.4 M148.9 274.2 L134.3 273.4 L134 270.9 M222.4 157.4 L240.1 158.3 M305.8 41.2 L306 27.6 M278.9 308.5 L297.1 308.2 M395.8 298.5 L395.8 312 M149.4 285.4 L167.3 284.6 M388.5 157.6 L392.4 157.6 L392.4 150.2 L388.5 150.1 M41.9 31.2 L59.3 28.9 M92.2 261.1 L92.2 267.1 L89.6 267.1 L89.9 272.5 M60 266.2 L42.5 266.5 M59.8 262.3 L42.3 262.6 M54.1 43 L51.9 30 M368.4 202.7 L369.5 215.7 M318.1 40.8 L318.7 27.8 M300.9 191.4 L317.1 191.8 M316.1 135.1 L316.2 148.1 M303.3 45.1 L304.6 57.9 M240.8 174.5 L257.9 173.7 M257.8 171 L240.6 171.8 M408.3 220.8 L420 220.8 M235.5 226.2 L218.5 227 M45.9 238.6 L45.8 248.2 L41.7 248.8 M245.2 208 L245.4 215 L253.1 214.7 M399.7 47.8 L399.6 52.8 L401.8 53 L401.8 55.2 L406.9 55.2 M128.9 91.5 L128.5 99.2 L122.7 100.3 M265.2 157.2 L282 156.2 M138.7 264.3 L139.3 269.8 L148.7 269.5 M51.9 279 L35.1 279.3 M116.9 18.1 L103.8 15.5 L103.7 13.3" fill="none" stroke="#69776e" stroke-width="1.25" opacity="0.58" stroke-linecap="round" stroke-linejoin="round"/>
</g>
</g>
<g data-layer="north-up-compass" fill="none" stroke="#233934" stroke-linecap="round" stroke-linejoin="round" opacity="0.62">
<path d="M382 48L382 23" stroke-width="1.8"/>
<path d="M382 23L373 39M382 23L391 39" stroke-width="1.8"/>
<circle cx="382" cy="48" r="13" stroke-width="1.1" opacity="0.38"/>
</g>
<rect x="8" y="8" width="404" height="304" rx="16" fill="none" stroke="#233934" stroke-width="1.4" opacity="0.44"/>
</svg>
