<svg xmlns="http://www.w3.org/2000/svg" viewBox="0 0 420 320" role="img" aria-label="Unlabeled north-up street-grid crop" data-orientation="north-up">
<metadata>{"orientation":"north-up","projection":"local-web-mercator"}</metadata>
<defs>
<clipPath id="mapCrop"><rect x="8" y="8" width="404" height="304" rx="16"/></clipPath>
</defs>
<rect width="420" height="320" fill="#ede7d8"/>
<rect x="8" y="8" width="404" height="304" rx="16" fill="#f7f1e3" stroke="#d8cbb2" stroke-width="1.25"/>
<g clip-path="url(#mapCrop)">
<g data-layer="water-casing">
<path d="M251.5 198.9 L248.1 200.9 L246.9 197.5 L251.8 185.2 L253.8 186.8 L248.1 198 L251.5 198.9 Z" fill="#d9f2fb" stroke="#d9f2fb" stroke-width="2.4" opacity="0.9" stroke-linecap="round" stroke-linejoin="round"/>
<path d="M35.4 27.8 L35.4 33.1 L38.3 34.1 L39.5 24.3 L35.7 24.6 L35.4 27.8 Z" fill="#d9f2fb" stroke="#d9f2fb" stroke-width="2.4" opacity="0.9" stroke-linecap="round" stroke-linejoin="round"/>
<path d="M105 100.4 L102.4 107.4 L98.5 107.2 L105 100.4 Z" fill="#d9f2fb" stroke="#d9f2fb" stroke-width="2.4" opacity="0.9" stroke-linecap="round" stroke-linejoin="round"/>
<path d="M342.7 116.6 L342.4 113.5 L348.7 111 L342.3 113.3 L342.7 116.6 Z" fill="#d9f2fb" stroke="#d9f2fb" stroke-width="2.4" opacity="0.9" stroke-linecap="round" stroke-linejoin="round"/>
<path d="M342.9 117.7 L338.3 121.5 L341.6 117.2 L342.9 117.7 Z" fill="#d9f2fb" stroke="#d9f2fb" stroke-width="2.4" opacity="0.9" stroke-linecap="round" stroke-linejoin="round"/>
<path d="M286.1 176.6 L278.2 177 L286.1 176.6 Z" fill="#d9f2fb" stroke="#d9f2fb" stroke-width="2.4" opacity="0.9" stroke-linecap="round" stroke-linejoin="round"/>
<path d="M350.5 130.2 L354.3 128.6 L351.7 132.3 L349.2 131.3 L350.5 130.2 Z" fill="#d9f2fb" stroke="#d9f2fb" stroke-width="2.4" opacity="0.9" stroke-linecap="round" stroke-linejoin="round"/>
<path d="M235 180.6 L237.1 175.7 L235 180.6 Z" fill="#d9f2fb" stroke="#d9f2fb" stroke-width="2.4" opacity="0.9" stroke-linecap="round" stroke-linejoin="round"/>
<path d="M36.6 84 L34.6 82.2 L37.8 79.6 L39 81.9 L36.6 84 Z" fill="#d9f2fb" stroke="#d9f2fb" stroke-width="2.4" opacity="0.9" stroke-linecap="round" stroke-linejoin="round"/>
<path d="M402.7 22 L404 21.2 L405.2 23.9 L402.8 24.3 L402.7 22 Z" fill="#d9f2fb" stroke="#d9f2fb" stroke-width="2.4" opacity="0.9" stroke-linecap="round" stroke-linejoin="round"/>
<path d="M135.7 41.6 L138.5 39.1 L137.1 42.5 L135.7 41.6 Z" fill="#d9f2fb" stroke="#d9f2fb" stroke-width="2.4" opacity="0.9" stroke-linecap="round" stroke-linejoin="round"/>
<path d="M259.8 13.3 L259.4 17 L259.8 13.3 Z" fill="#d9f2fb" stroke="#d9f2fb" stroke-width="2.4" opacity="0.9" stroke-linecap="round" stroke-linejoin="round"/>
<path d="M335.9 123.5 L338.8 122 L335.9 123.5 Z" fill="#d9f2fb" stroke="#d9f2fb" stroke-width="2.4" opacity="0.9" stroke-linecap="round" stroke-linejoin="round"/>
<path d="M164 134 L163.6 132.5 L164 134 Z" fill="#d9f2fb" stroke="#d9f2fb" stroke-width="2.4" opacity="0.9" stroke-linecap="round" stroke-linejoin="round"/>
<path d="M221.7 174.9 L224.4 174.5 L221.7 174.9 Z" fill="#d9f2fb" stroke="#d9f2fb" stroke-width="2.4" opacity="0.9" stroke-linecap="round" stroke-linejoin="round"/>
<path d="M276.6 244.1 L277.6 242.9 L276.6 244.1 Z" fill="#d9f2fb" stroke="#d9f2fb" stroke-width="2.4" opacity="0.9" stroke-linecap="round" stroke-linejoin="round"/>
<path d="M405 62.2 L407 61.1 L405 62.2 Z" fill="#d9f2fb" stroke="#d9f2fb" stroke-width="2.4" opacity="0.9" stroke-linecap="round" stroke-linejoin="round"/>
<path d="M336 123.7 L334.1 123.5 L336 123.7 Z" fill="#d9f2fb" stroke="#d9f2fb" stroke-width="2.4" opacity="0.9" stroke-linecap="round" stroke-linejoin="round"/>
<path d="M54.7 107.5 L55.1 108.9 L54.7 107.5 Z" fill="#d9f2fb" stroke="#d9f2fb" stroke-width="2.4" opacity="0.9" stroke-linecap="round" stroke-linejoin="round"/>
<path d="M300.9 150 L302.7 149.4 L300.9 150 Z" fill="#d9f2fb" stroke="#d9f2fb" stroke-width="2.4" opacity="0.9" stroke-linecap="round" stroke-linejoin="round"/>
<path d="M286.8 177.6 L285 176.8 L286.8 177.6 Z" fill="#d9f2fb" stroke="#d9f2fb" stroke-width="2.4" opacity="0.9" stroke-linecap="round" stroke-linejoin="round"/>
<path d="M318.4 153 L318.6 154.4 L318.4 153 Z" fill="#d9f2fb" stroke="#d9f2fb" stroke-width="2.4" opacity="0.9" stroke-linecap="round" stroke-linejoin="round"/>
<path d="M278.7 245.1 L280.4 244.1 L278.7 245.1 Z" fill="#d9f2fb" stroke="#d9f2fb" stroke-width="2.4" opacity="0.9" stroke-linecap="round" stroke-linejoin="round"/>
<path d="M192 22.4 L190.3 23.5 L192 22.4 Z" fill="#d9f2fb" stroke="#d9f2fb" stroke-width="2.4" opacity="0.9" stroke-linecap="round" stroke-linejoin="round"/>
<path d="M220.8 100.2 L221.4 101.7 L220.8 100.2 Z" fill="#d9f2fb" stroke="#d9f2fb" stroke-width="2.4" opacity="0.9" stroke-linecap="round" stroke-linejoin="round"/>
<path d="M197.5 102.1 L195.9 102.5 L197.5 102.1 Z" fill="#d9f2fb" stroke="#d9f2fb" stroke-width="2.4" opacity="0.9" stroke-linecap="round" stroke-linejoin="round"/>
<path d="M379.3 53.7 L380.7 53.2 L379.3 53.7 Z" fill="#d9f2fb" stroke="#d9f2fb" stroke-width="2.4" opacity="0.9" stroke-linecap="round" stroke-linejoin="round"/>
<path d="M186.9 177.8 L186.8 179.1 L186.9 177.8 Z" fill="#d9f2fb" stroke="#d9f2fb" stroke-width="2.4" opacity="0.9" stroke-linecap="round" stroke-linejoin="round"/>
<path d="M91.8 104.7 L93.3 104.4 L91.8 104.7 Z" fill="#d9f2fb" stroke="#d9f2fb" stroke-width="2.4" opacity="0.9" stroke-linecap="round" stroke-linejoin="round"/>
<path d="M351.2 109.9 L351.2 109.9 Z" fill="#d9f2fb" stroke="#d9f2fb" stroke-width="2.4" opacity="0.9" stroke-linecap="round" stroke-linejoin="round"/>
<path d="M91.7 104.6 L93.2 104.4 L91.7 104.6 Z" fill="#d9f2fb" stroke="#d9f2fb" stroke-width="2.4" opacity="0.9" stroke-linecap="round" stroke-linejoin="round"/>
<path d="M134.7 47.4 L133.8 48.7 L134.7 47.4 Z" fill="#d9f2fb" stroke="#d9f2fb" stroke-width="2.4" opacity="0.9" stroke-linecap="round" stroke-linejoin="round"/>
<path d="M312.2 166.7 L314 167.3 L312.2 166.7 Z" fill="#d9f2fb" stroke="#d9f2fb" stroke-width="2.4" opacity="0.9" stroke-linecap="round" stroke-linejoin="round"/>
<path d="M62.4 105.5 L63.8 105.1 L62.4 105.5 Z" fill="#d9f2fb" stroke="#d9f2fb" stroke-width="2.4" opacity="0.9" stroke-linecap="round" stroke-linejoin="round"/>
<path d="M327.3 142.7 L327.3 142.7 Z" fill="#d9f2fb" stroke="#d9f2fb" stroke-width="2.4" opacity="0.9" stroke-linecap="round" stroke-linejoin="round"/>
<path d="M287.9 178.2 L286.6 177.9 L287.9 178.2 Z" fill="#d9f2fb" stroke="#d9f2fb" stroke-width="2.4" opacity="0.9" stroke-linecap="round" stroke-linejoin="round"/>
<path d="M211.1 131.3 L211.1 131.3 Z" fill="#d9f2fb" stroke="#d9f2fb" stroke-width="2.4" opacity="0.9" stroke-linecap="round" stroke-linejoin="round"/>
<path d="M352.1 109.2 L352.1 109.2 Z" fill="#d9f2fb" stroke="#d9f2fb" stroke-width="2.4" opacity="0.9" stroke-linecap="round" stroke-linejoin="round"/>
<path d="M92.3 104.1 L92.3 104.1 Z" fill="#d9f2fb" stroke="#d9f2fb" stroke-width="2.4" opacity="0.9" stroke-linecap="round" stroke-linejoin="round"/>
<path d="M322.1 96.5 L322.1 96.5 Z" fill="#d9f2fb" stroke="#d9f2fb" stroke-width="2.4" opacity="0.9" stroke-linecap="round" stroke-linejoin="round"/>
<path d="M366 14.4 L367.7 14.4 L366 14.4 Z" fill="#d9f2fb" stroke="#d9f2fb" stroke-width="2.4" opacity="0.9" stroke-linecap="round" stroke-linejoin="round"/>
<path d="M260.4 22.2 L260.4 22.2 Z" fill="#d9f2fb" stroke="#d9f2fb" stroke-width="2.4" opacity="0.9" stroke-linecap="round" stroke-linejoin="round"/>
<path d="M283.3 83.1 L283.3 83.1 Z" fill="#d9f2fb" stroke="#d9f2fb" stroke-width="2.4" opacity="0.9" stroke-linecap="round" stroke-linejoin="round"/>
<path d="M14.2 192.2 L14.2 192.2 Z" fill="#d9f2fb" stroke="#d9f2fb" stroke-width="2.4" opacity="0.9" stroke-linecap="round" stroke-linejoin="round"/>
<path d="M289.1 178.3 L290.7 178.7 L289.1 178.3 Z" fill="#d9f2fb" stroke="#d9f2fb" stroke-width="2.4" opacity="0.9" stroke-linecap="round" stroke-linejoin="round"/>
<path d="M236.1 225.5 L234.9 226 L236.1 225.5 Z" fill="#d9f2fb" stroke="#d9f2fb" stroke-width="2.4" opacity="0.9" stroke-linecap="round" stroke-linejoin="round"/>
<path d="M131.1 152.7 L131.1 152.7 Z" fill="#d9f2fb" stroke="#d9f2fb" stroke-width="2.4" opacity="0.9" stroke-linecap="round" stroke-linejoin="round"/>
<path d="M118.4 29.9 L118.4 29.9 Z" fill="#d9f2fb" stroke="#d9f2fb" stroke-width="2.4" opacity="0.9" stroke-linecap="round" stroke-linejoin="round"/>
<path d="M268.5 143.6 L268.5 143.6 Z" fill="#d9f2fb" stroke="#d9f2fb" stroke-width="2.4" opacity="0.9" stroke-linecap="round" stroke-linejoin="round"/>
<path d="M179.1 159.9 L179.1 159.9 Z" fill="#d9f2fb" stroke="#d9f2fb" stroke-width="2.4" opacity="0.9" stroke-linecap="round" stroke-linejoin="round"/>
<path d="M87.1 59.1 L87.1 59.1 Z" fill="#d9f2fb" stroke="#d9f2fb" stroke-width="2.4" opacity="0.9" stroke-linecap="round" stroke-linejoin="round"/>
</g>
<g data-layer="water">
<path d="M251.5 198.9 L248.1 200.9 L246.9 197.5 L251.8 185.2 L253.8 186.8 L248.1 198 L251.5 198.9 Z" fill="#7fc8e6" stroke="#117fa8" stroke-width="1.35" opacity="0.88" stroke-linecap="round" stroke-linejoin="round"/>
<path d="M35.4 27.8 L35.4 33.1 L38.3 34.1 L39.5 24.3 L35.7 24.6 L35.4 27.8 Z" fill="#7fc8e6" stroke="#117fa8" stroke-width="1.35" opacity="0.88" stroke-linecap="round" stroke-linejoin="round"/>
<path d="M105 100.4 L102.4 107.4 L98.5 107.2 L105 100.4 Z" fill="#7fc8e6" stroke="#117fa8" stroke-width="1.35" opacity="0.88" stroke-linecap="round" stroke-linejoin="round"/>
<path d="M342.7 116.6 L342.4 113.5 L348.7 111 L342.3 113.3 L342.7 116.6 Z" fill="#7fc8e6" stroke="#117fa8" stroke-width="1.35" opacity="0.88" stroke-linecap="round" stroke-linejoin="round"/>
<path d="M342.9 117.7 L338.3 121.5 L341.6 117.2 L342.9 117.7 Z" fill="#7fc8e6" stroke="#117fa8" stroke-width="1.35" opacity="0.88" stroke-linecap="round" stroke-linejoin="round"/>
<path d="M286.1 176.6 L278.2 177 L286.1 176.6 Z" fill="#7fc8e6" stroke="#117fa8" stroke-width="1.35" opacity="0.88" stroke-linecap="round" stroke-linejoin="round"/>
<path d="M350.5 130.2 L354.3 128.6 L351.7 132.3 L349.2 131.3 L350.5 130.2 Z" fill="#7fc8e6" stroke="#117fa8" stroke-width="1.35" opacity="0.88" stroke-linecap="round" stroke-linejoin="round"/>
<path d="M235 180.6 L237.1 175.7 L235 180.6 Z" fill="#7fc8e6" stroke="#117fa8" stroke-width="1.35" opacity="0.88" stroke-linecap="round" stroke-linejoin="round"/>
<path d="M36.6 84 L34.6 82.2 L37.8 79.6 L39 81.9 L36.6 84 Z" fill="#7fc8e6" stroke="#117fa8" stroke-width="1.35" opacity="0.88" stroke-linecap="round" stroke-linejoin="round"/>
<path d="M402.7 22 L404 21.2 L405.2 23.9 L402.8 24.3 L402.7 22 Z" fill="#7fc8e6" stroke="#117fa8" stroke-width="1.35" opacity="0.88" stroke-linecap="round" stroke-linejoin="round"/>
<path d="M135.7 41.6 L138.5 39.1 L137.1 42.5 L135.7 41.6 Z" fill="#7fc8e6" stroke="#117fa8" stroke-width="1.35" opacity="0.88" stroke-linecap="round" stroke-linejoin="round"/>
<path d="M259.8 13.3 L259.4 17 L259.8 13.3 Z" fill="#7fc8e6" stroke="#117fa8" stroke-width="1.35" opacity="0.88" stroke-linecap="round" stroke-linejoin="round"/>
<path d="M335.9 123.5 L338.8 122 L335.9 123.5 Z" fill="#7fc8e6" stroke="#117fa8" stroke-width="1.35" opacity="0.88" stroke-linecap="round" stroke-linejoin="round"/>
<path d="M164 134 L163.6 132.5 L164 134 Z" fill="#7fc8e6" stroke="#117fa8" stroke-width="1.35" opacity="0.88" stroke-linecap="round" stroke-linejoin="round"/>
<path d="M221.7 174.9 L224.4 174.5 L221.7 174.9 Z" fill="#7fc8e6" stroke="#117fa8" stroke-width="1.35" opacity="0.88" stroke-linecap="round" stroke-linejoin="round"/>
<path d="M276.6 244.1 L277.6 242.9 L276.6 244.1 Z" fill="#7fc8e6" stroke="#117fa8" stroke-width="1.35" opacity="0.88" stroke-linecap="round" stroke-linejoin="round"/>
<path d="M405 62.2 L407 61.1 L405 62.2 Z" fill="#7fc8e6" stroke="#117fa8" stroke-width="1.35" opacity="0.88" stroke-linecap="round" stroke-linejoin="round"/>
<path d="M336 123.7 L334.1 123.5 L336 123.7 Z" fill="#7fc8e6" stroke="#117fa8" stroke-width="1.35" opacity="0.88" stroke-linecap="round" stroke-linejoin="round"/>
<path d="M54.7 107.5 L55.1 108.9 L54.7 107.5 Z" fill="#7fc8e6" stroke="#117fa8" stroke-width="1.35" opacity="0.88" stroke-linecap="round" stroke-linejoin="round"/>
<path d="M300.9 150 L302.7 149.4 L300.9 150 Z" fill="#7fc8e6" stroke="#117fa8" stroke-width="1.35" opacity="0.88" stroke-linecap="round" stroke-linejoin="round"/>
<path d="M286.8 177.6 L285 176.8 L286.8 177.6 Z" fill="#7fc8e6" stroke="#117fa8" stroke-width="1.35" opacity="0.88" stroke-linecap="round" stroke-linejoin="round"/>
<path d="M318.4 153 L318.6 154.4 L318.4 153 Z" fill="#7fc8e6" stroke="#117fa8" stroke-width="1.35" opacity="0.88" stroke-linecap="round" stroke-linejoin="round"/>
<path d="M278.7 245.1 L280.4 244.1 L278.7 245.1 Z" fill="#7fc8e6" stroke="#117fa8" stroke-width="1.35" opacity="0.88" stroke-linecap="round" stroke-linejoin="round"/>
<path d="M192 22.4 L190.3 23.5 L192 22.4 Z" fill="#7fc8e6" stroke="#117fa8" stroke-width="1.35" opacity="0.88" stroke-linecap="round" stroke-linejoin="round"/>
<path d="M220.8 100.2 L221.4 101.7 L220.8 100.2 Z" fill="#7fc8e6" stroke="#117fa8" stroke-width="1.35" opacity="0.88" stroke-linecap="round" stroke-linejoin="round"/>
<path d="M197.5 102.1 L195.9 102.5 L197.5 102.1 Z" fill="#7fc8e6" stroke="#117fa8" stroke-width="1.35" opacity="0.88" stroke-linecap="round" stroke-linejoin="round"/>
<path d="M379.3 53.7 L380.7 53.2 L379.3 53.7 Z" fill="#7fc8e6" stroke="#117fa8" stroke-width="1.35" opacity="0.88" stroke-linecap="round" stroke-linejoin="round"/>
<path d="M186.9 177.8 L186.8 179.1 L186.9 177.8 Z" fill="#7fc8e6" stroke="#117fa8" stroke-width="1.35" opacity="0.88" stroke-linecap="round" stroke-linejoin="round"/>
<path d="M91.8 104.7 L93.3 104.4 L91.8 104.7 Z" fill="#7fc8e6" stroke="#117fa8" stroke-width="1.35" opacity="0.88" stroke-linecap="round" stroke-linejoin="round"/>
<path d="M351.2 109.9 L351.2 109.9 Z" fill="#7fc8e6" stroke="#117fa8" stroke-width="1.35" opacity="0.88" stroke-linecap="round" stroke-linejoin="round"/>
<path d="M91.7 104.6 L93.2 104.4 L91.7 104.6 Z" fill="#7fc8e6" stroke="#117fa8" stroke-width="1.35" opacity="0.88" stroke-linecap="round" stroke-linejoin="round"/>
<path d="M134.7 47.4 L133.8 48.7 L134.7 47.4 Z" fill="#7fc8e6" stroke="#117fa8" stroke-width="1.35" opacity="0.88" stroke-linecap="round" stroke-linejoin="round"/>
<path d="M312.2 166.7 L314 167.3 L312.2 166.7 Z" fill="#7fc8e6" stroke="#117fa8" stroke-width="1.35" opacity="0.88" stroke-linecap="round" stroke-linejoin="round"/>
<path d="M62.4 105.5 L63.8 105.1 L62.4 105.5 Z" fill="#7fc8e6" stroke="#117fa8" stroke-width="1.35" opacity="0.88" stroke-linecap="round" stroke-linejoin="round"/>
<path d="M327.3 142.7 L327.3 142.7 Z" fill="#7fc8e6" stroke="#117fa8" stroke-width="1.35" opacity="0.88" stroke-linecap="round" stroke-linejoin="round"/>
<path d="M287.9 178.2 L286.6 177.9 L287.9 178.2 Z" fill="#7fc8e6" stroke="#117fa8" stroke-width="1.35" opacity="0.88" stroke-linecap="round" stroke-linejoin="round"/>
<path d="M211.1 131.3 L211.1 131.3 Z" fill="#7fc8e6" stroke="#117fa8" stroke-width="1.35" opacity="0.88" stroke-linecap="round" stroke-linejoin="round"/>
<path d="M352.1 109.2 L352.1 109.2 Z" fill="#7fc8e6" stroke="#117fa8" stroke-width="1.35" opacity="0.88" stroke-linecap="round" stroke-linejoin="round"/>
<path d="M92.3 104.1 L92.3 104.1 Z" fill="#7fc8e6" stroke="#117fa8" stroke-width="1.35" opacity="0.88" stroke-linecap="round" stroke-linejoin="round"/>
<path d="M322.1 96.5 L322.1 96.5 Z" fill="#7fc8e6" stroke="#117fa8" stroke-width="1.35" opacity="0.88" stroke-linecap="round" stroke-linejoin="round"/>
<path d="M366 14.4 L367.7 14.4 L366 14.4 Z" fill="#7fc8e6" stroke="#117fa8" stroke-width="1.35" opacity="0.88" stroke-linecap="round" stroke-linejoin="round"/>
<path d="M260.4 22.2 L260.4 22.2 Z" fill="#7fc8e6" stroke="#117fa8" stroke-width="1.35" opacity="0.88" stroke-linecap="round" stroke-linejoin="round"/>
<path d="M283.3 83.1 L283.3 83.1 Z" fill="#7fc8e6" stroke="#117fa8" stroke-width="1.35" opacity="0.88" stroke-linecap="round" stroke-linejoin="round"/>
<path d="M14.2 192.2 L14.2 192.2 Z" fill="#7fc8e6" stroke="#117fa8" stroke-width="1.35" opacity="0.88" stroke-linecap="round" stroke-linejoin="round"/>
<path d="M289.1 178.3 L290.7 178.7 L289.1 178.3 Z" fill="#7fc8e6" stroke="#117fa8" stroke-width="1.35" opacity="0.88" stroke-linecap="round" stroke-linejoin="round"/>
<path d="M236.1 225.5 L234.9 226 L236.1 225.5 Z" fill="#7fc8e6" stroke="#117fa8" stroke-width="1.35" opacity="0.88" stroke-linecap="round" stroke-linejoin="round"/>
<path d="M131.1 152.7 L131.1 152.7 Z" fill="#7fc8e6" stroke="#117fa8" stroke-width="1.35" opacity="0.88" stroke-linecap="round" stroke-linejoin="round"/>
<path d="M118.4 29.9 L118.4 29.9 Z" fill="#7fc8e6" stroke="#117fa8" stroke-width="1.35" opacity="0.88" stroke-linecap="round" stroke-linejoin="round"/>
<path d="M268.5 143.6 L268.5 143.6 Z" fill="#7fc8e6" stroke="#117fa8" stroke-width="1.35" opacity="0.88" stroke-linecap="round" stroke-linejoin="round"/>
<path d="M179.1 159.9 L179.1 159.9 Z" fill="#7fc8e6" stroke="#117fa8" stroke-width="1.35" opacity="0.88" stroke-linecap="round" stroke-linejoin="round"/>
<path d="M87.1 59.1 L87.1 59.1 Z" fill="#7fc8e6" stroke="#117fa8" stroke-width="1.35" opacity="0.88" stroke-linecap="round" stroke-linejoin="round"/>
</g>
<g data-layer="coastline">
<path d="M25.6 134.9 L9.8 215.7 L10.1 221.3 L12 223.3 L18.5 226.6 L23 224.5 L21.5 230.8 L29.1 230.9 L38.5 226.8 L43.5 221.2 L49 223 L50.2 225.1 L61.2 222.5 L58.7 217.9 L60.9 214.5 L90.7 199 L91.5 195.2 L90 195.3 L88.5 190 L61.7 199.3 L81.3 185.1 L79.4 181 L72.3 178.4 L71.7 165.2 L69.2 163.3 L70 157.4 L66.4 151.9 L56 148.3 L57.8 141.9" fill="none" stroke="#0f789e" stroke-width="2.8" opacity="0.78" stroke-linecap="round" stroke-linejoin="round"/>
<path d="M155.5 263.1 L129.8 274.5 L128.5 268.4 L125.2 267.3 L117.6 280.2 L128.6 275.4 L128.7 292 L132 292.9 L149.8 288.7 L155.7 283.6 L151.8 280.6 L130.5 285.1 L132.3 281.3 L138.9 276.6 L144.6 277.4 L153.7 272.9 L150.6 272.8 L155.9 262.9" fill="none" stroke="#0f789e" stroke-width="2.8" opacity="0.78" stroke-linecap="round" stroke-linejoin="round"/>
<path d="M140.7 246.7 L137.6 245.5 L143.9 240.4 L139.2 240.2 L139.5 236.6 L133.3 237.3 L133.1 235.1 L125.7 236.3 L112.6 242.8 L95.8 258.9 L102.9 257.1 L99.2 263.8 L113.7 262.1 L112.3 260.6 L115.1 255.4 L127 255.1 L125.8 257.3 L130.6 255.3 L131.2 259.4 L142.1 254 L137.9 251.3 L140.2 247.3" fill="none" stroke="#0f789e" stroke-width="2.8" opacity="0.78" stroke-linecap="round" stroke-linejoin="round"/>
<path d="M169.7 214.6 L154.3 218.8 L148.9 224.5 L152.4 229.4 L155.2 229.6 L156.7 235.5 L159.3 234.2 L161.5 238 L157.5 244.3 L180.6 240.1 L199.8 226.7 L200 224.1 L197.1 221.5 L192.4 221.3 L189.3 222.6 L187.3 226.2 L183 226.1 L174.2 229.8 L170.5 226.8 L175.9 222.6 L175.7 219.5" fill="none" stroke="#0f789e" stroke-width="2.8" opacity="0.78" stroke-linecap="round" stroke-linejoin="round"/>
<path d="M67.2 244.1 L64 249 L66 256.6 L70.2 250.2 L74.5 252.5 L77 261.6 L80.3 263 L80.3 261.2 L84.2 261.6 L82.7 260.8 L82.5 252.1 L85.2 249.8 L79.3 242.7 L82.8 239.9 L67.2 244.1" fill="none" stroke="#0f789e" stroke-width="2.8" opacity="0.78" stroke-linecap="round" stroke-linejoin="round"/>
<path d="M175.7 257.6 L190.5 258.6 L193.1 255.6 L205.6 250.8 L206.6 246.5 L210.2 247.8 L215.5 245.7 L216.2 243.3 L208.4 245.9 L202.5 243.5 L197.5 247.5 L177.6 254.2 L175.7 257.6" fill="none" stroke="#0f789e" stroke-width="2.8" opacity="0.78" stroke-linecap="round" stroke-linejoin="round"/>
<path d="M236 305 L244.3 310 L248.4 308.6 L259.4 298.7 L257.7 295.4 L258.5 291 L255.2 291.6 L254.1 289.2 L246.7 291.3 L241 295.1 L236 305" fill="none" stroke="#0f789e" stroke-width="2.8" opacity="0.78" stroke-linecap="round" stroke-linejoin="round"/>
<path d="M57.8 141.9 L62.8 140.3 L71.4 149.4 L82.1 151.4 L102.4 170.7 L108.1 169.8 L103.6 172.2 L108.5 171.4" fill="none" stroke="#0f789e" stroke-width="2.8" opacity="0.78" stroke-linecap="round" stroke-linejoin="round"/>
<path d="M256.9 284.7 L260.2 287.5 L259.4 290.6 L261.4 290.8 L261.7 293 L259.6 295 L260.9 294.7 L262 298.7 L281.3 299 L283.8 297.5 L293.5 310.3" fill="none" stroke="#0f789e" stroke-width="2.8" opacity="0.78" stroke-linecap="round" stroke-linejoin="round"/>
<path d="M227.5 191.1 L229.5 191.4 L234.1 180.3 L231.7 188.6 L234.1 189.3 L238 183.7 L239.7 185.7 L241.8 185.8 L240.3 183.9 L245.3 185.8" fill="none" stroke="#0f789e" stroke-width="2.8" opacity="0.78" stroke-linecap="round" stroke-linejoin="round"/>
<path d="M76.2 213.6 L81.8 210 L75.8 213.4 L70.5 213.8 L74.2 216.9 L74 219.7 L75.5 219.3 L76.3 217.9 L73.9 215.4 L76.2 213.6" fill="none" stroke="#0f789e" stroke-width="2.8" opacity="0.78" stroke-linecap="round" stroke-linejoin="round"/>
<path d="M148 173.2 L143.9 177.3 L149.9 181.3 L151.8 177.9 L150.5 170.5 L152.8 177.2 L156.9 174.8" fill="none" stroke="#0f789e" stroke-width="2.8" opacity="0.78" stroke-linecap="round" stroke-linejoin="round"/>
<path d="M175.7 219.5 L181.6 215.6 L181.7 213.1 L176.8 217.9 L175 217.4 L177.7 212.8 L173.7 215.1 L171.4 213.6 L169.7 214.6" fill="none" stroke="#0f789e" stroke-width="2.8" opacity="0.78" stroke-linecap="round" stroke-linejoin="round"/>
<path d="M225.4 225.8 L227.9 227 L234.9 225.7 L229.8 230.3 L229.8 234.4 L235.1 240.2 L240 238.7" fill="none" stroke="#0f789e" stroke-width="2.8" opacity="0.78" stroke-linecap="round" stroke-linejoin="round"/>
<path d="M219.1 257.2 L214.7 258.9 L215.7 261.6 L214.3 262.7 L209.4 263.7 L208.6 261.4 L210.5 258.8 L205.7 260.3 L206.7 265.3 L208.4 265.5" fill="none" stroke="#0f789e" stroke-width="2.8" opacity="0.78" stroke-linecap="round" stroke-linejoin="round"/>
<path d="M147.2 181.4 L141.7 178.5 L138.5 179.9 L138.1 184.5 L141.1 186 L147.2 181.4" fill="none" stroke="#0f789e" stroke-width="2.8" opacity="0.78" stroke-linecap="round" stroke-linejoin="round"/>
<path d="M228.3 206.3 L231.4 204.2 L230 202.9 L231.8 204 L237.2 200.2 L231 196.4 L226.4 199.5 L228 201.2" fill="none" stroke="#0f789e" stroke-width="2.8" opacity="0.78" stroke-linecap="round" stroke-linejoin="round"/>
<path d="M208.4 265.5 L239 261.4" fill="none" stroke="#0f789e" stroke-width="2.8" opacity="0.78" stroke-linecap="round" stroke-linejoin="round"/>
<path d="M275.8 303.3 L269.5 304.8 L266 309.1 L272.5 310 L276.6 306.5 L275.8 303.3" fill="none" stroke="#0f789e" stroke-width="2.8" opacity="0.78" stroke-linecap="round" stroke-linejoin="round"/>
<path d="M240.7 248.6 L219.1 257.2" fill="none" stroke="#0f789e" stroke-width="2.8" opacity="0.78" stroke-linecap="round" stroke-linejoin="round"/>
<path d="M245.9 186 L240.5 186.5 L240.3 189.4 L241.9 190 L236.5 193.6" fill="none" stroke="#0f789e" stroke-width="2.8" opacity="0.78" stroke-linecap="round" stroke-linejoin="round"/>
<path d="M63.1 222.2 L67.9 222.3 L71.4 219.7 L69.5 217.9 L63.1 222.2" fill="none" stroke="#0f789e" stroke-width="2.8" opacity="0.78" stroke-linecap="round" stroke-linejoin="round"/>
<path d="M227.6 178.1 L223 177.4 L221.7 180.9 L226.8 182.7 L226.3 186.6" fill="none" stroke="#0f789e" stroke-width="2.8" opacity="0.78" stroke-linecap="round" stroke-linejoin="round"/>
<path d="M119.9 186.2 L138.9 178.1" fill="none" stroke="#0f789e" stroke-width="2.8" opacity="0.78" stroke-linecap="round" stroke-linejoin="round"/>
<path d="M9.9 135.9 L18.4 131.7 L23.3 135.9 L25.6 134.9" fill="none" stroke="#0f789e" stroke-width="2.8" opacity="0.78" stroke-linecap="round" stroke-linejoin="round"/>
<path d="M186.6 190.1 L195.1 201.8 L196.8 201.1" fill="none" stroke="#0f789e" stroke-width="2.8" opacity="0.78" stroke-linecap="round" stroke-linejoin="round"/>
<path d="M149.3 182.2 L147.6 181.5 L142.7 185.2 L146.8 185.9 L149.3 182.2" fill="none" stroke="#0f789e" stroke-width="2.8" opacity="0.78" stroke-linecap="round" stroke-linejoin="round"/>
<path d="M207.2 196.4 L212.9 184 L211.9 183.2" fill="none" stroke="#0f789e" stroke-width="2.8" opacity="0.78" stroke-linecap="round" stroke-linejoin="round"/>
<path d="M118.2 284.2 L124.3 281.1 L117.6 282.7 L116.6 283.8 L118.2 284.2" fill="none" stroke="#0f789e" stroke-width="2.8" opacity="0.78" stroke-linecap="round" stroke-linejoin="round"/>
<path d="M154.9 310.3 L154.5 308.2 L140.9 310" fill="none" stroke="#0f789e" stroke-width="2.8" opacity="0.78" stroke-linecap="round" stroke-linejoin="round"/>
<path d="M201.4 199.2 L203.1 203.4 L205.5 201.1 L203.2 195.6" fill="none" stroke="#0f789e" stroke-width="2.8" opacity="0.78" stroke-linecap="round" stroke-linejoin="round"/>
<path d="M236.5 193.6 L232.2 195.6 L240.8 200.6" fill="none" stroke="#0f789e" stroke-width="2.8" opacity="0.78" stroke-linecap="round" stroke-linejoin="round"/>
<path d="M156.9 174.8 L168 167.5" fill="none" stroke="#0f789e" stroke-width="2.8" opacity="0.78" stroke-linecap="round" stroke-linejoin="round"/>
<path d="M259.8 263.7 L264.4 274.2" fill="none" stroke="#0f789e" stroke-width="2.8" opacity="0.78" stroke-linecap="round" stroke-linejoin="round"/>
<path d="M228 201.2 L226.1 199.7 L221.2 203.9 L223.7 206.2" fill="none" stroke="#0f789e" stroke-width="2.8" opacity="0.78" stroke-linecap="round" stroke-linejoin="round"/>
<path d="M179.1 179.3 L183 189.6" fill="none" stroke="#0f789e" stroke-width="2.8" opacity="0.78" stroke-linecap="round" stroke-linejoin="round"/>
<path d="M254.5 273.4 L257.8 264.2" fill="none" stroke="#0f789e" stroke-width="2.8" opacity="0.78" stroke-linecap="round" stroke-linejoin="round"/>
<path d="M263.5 275.9 L256.9 284.7" fill="none" stroke="#0f789e" stroke-width="2.8" opacity="0.78" stroke-linecap="round" stroke-linejoin="round"/>
<path d="M211.9 183.2 L221.3 175.5" fill="none" stroke="#0f789e" stroke-width="2.8" opacity="0.78" stroke-linecap="round" stroke-linejoin="round"/>
<path d="M232.8 213.2 L226.2 221 L227.5 221.6" fill="none" stroke="#0f789e" stroke-width="2.8" opacity="0.78" stroke-linecap="round" stroke-linejoin="round"/>
<path d="M104 232 L106.4 231.5 L104 232" fill="none" stroke="#0f789e" stroke-width="2.8" opacity="0.78" stroke-linecap="round" stroke-linejoin="round"/>
<path d="M251.2 265 L250.2 273.5" fill="none" stroke="#0f789e" stroke-width="2.8" opacity="0.78" stroke-linecap="round" stroke-linejoin="round"/>
<path d="M196.8 201.1 L196.2 203.2 L199.1 203.7 L200.2 199.5" fill="none" stroke="#0f789e" stroke-width="2.8" opacity="0.78" stroke-linecap="round" stroke-linejoin="round"/>
<path d="M115.2 188.1 L119.3 189.9 L119.9 186.2" fill="none" stroke="#0f789e" stroke-width="2.8" opacity="0.78" stroke-linecap="round" stroke-linejoin="round"/>
<path d="M236.8 205.3 L232.8 213.2" fill="none" stroke="#0f789e" stroke-width="2.8" opacity="0.78" stroke-linecap="round" stroke-linejoin="round"/>
<path d="M229.8 189.4 L225.9 188.2 L224.9 191 L227.5 191.1" fill="none" stroke="#0f789e" stroke-width="2.8" opacity="0.78" stroke-linecap="round" stroke-linejoin="round"/>
<path d="M138.3 177.3 L148 173.2" fill="none" stroke="#0f789e" stroke-width="2.8" opacity="0.78" stroke-linecap="round" stroke-linejoin="round"/>
<path d="M235.1 310.2 L230.9 310 L232.2 308.3 L230.2 310.6" fill="none" stroke="#0f789e" stroke-width="2.8" opacity="0.78" stroke-linecap="round" stroke-linejoin="round"/>
<path d="M179.4 177.5 L175.2 179 L175.6 180.4 L179.1 179.3" fill="none" stroke="#0f789e" stroke-width="2.8" opacity="0.78" stroke-linecap="round" stroke-linejoin="round"/>
<path d="M179.3 170.5 L179.4 177.5" fill="none" stroke="#0f789e" stroke-width="2.8" opacity="0.78" stroke-linecap="round" stroke-linejoin="round"/>
<path d="M239 261.4 L247.4 260.8" fill="none" stroke="#0f789e" stroke-width="2.8" opacity="0.78" stroke-linecap="round" stroke-linejoin="round"/>
<path d="M28.8 233.5 L32.7 232.6 L28.8 233.5" fill="none" stroke="#0f789e" stroke-width="2.8" opacity="0.78" stroke-linecap="round" stroke-linejoin="round"/>
<path d="M112.9 172 L111.5 178" fill="none" stroke="#0f789e" stroke-width="2.8" opacity="0.78" stroke-linecap="round" stroke-linejoin="round"/>
<path d="M119.9 272.8 L117.3 274.9 L119.9 272.8" fill="none" stroke="#0f789e" stroke-width="2.8" opacity="0.78" stroke-linecap="round" stroke-linejoin="round"/>
<path d="M251.5 259.1 L251.2 265" fill="none" stroke="#0f789e" stroke-width="2.8" opacity="0.78" stroke-linecap="round" stroke-linejoin="round"/>
<path d="M242.7 243.1 L240.7 248.6" fill="none" stroke="#0f789e" stroke-width="2.8" opacity="0.78" stroke-linecap="round" stroke-linejoin="round"/>
<path d="M240.8 200.6 L236.8 205.3" fill="none" stroke="#0f789e" stroke-width="2.8" opacity="0.78" stroke-linecap="round" stroke-linejoin="round"/>
<path d="M113.3 177.6 L113.2 183.1" fill="none" stroke="#0f789e" stroke-width="2.8" opacity="0.78" stroke-linecap="round" stroke-linejoin="round"/>
<path d="M221.3 175.5 L227.6 178.1" fill="none" stroke="#0f789e" stroke-width="2.8" opacity="0.78" stroke-linecap="round" stroke-linejoin="round"/>
<path d="M113.2 183.1 L115.2 188.1" fill="none" stroke="#0f789e" stroke-width="2.8" opacity="0.78" stroke-linecap="round" stroke-linejoin="round"/>
<path d="M240 238.7 L242.7 243.1" fill="none" stroke="#0f789e" stroke-width="2.8" opacity="0.78" stroke-linecap="round" stroke-linejoin="round"/>
<path d="M145.9 207.7 L148 206.2 L145.9 207.7" fill="none" stroke="#0f789e" stroke-width="2.8" opacity="0.78" stroke-linecap="round" stroke-linejoin="round"/>
<path d="M223.7 206.2 L226 207.8 L228.3 206.3" fill="none" stroke="#0f789e" stroke-width="2.8" opacity="0.78" stroke-linecap="round" stroke-linejoin="round"/>
<path d="M227.5 221.6 L225.4 225.8" fill="none" stroke="#0f789e" stroke-width="2.8" opacity="0.78" stroke-linecap="round" stroke-linejoin="round"/>
<path d="M174.1 258.5 L172.8 258.9 L174.1 258.5" fill="none" stroke="#0f789e" stroke-width="2.8" opacity="0.78" stroke-linecap="round" stroke-linejoin="round"/>
<path d="M108.5 171.4 L112.9 172" fill="none" stroke="#0f789e" stroke-width="2.8" opacity="0.78" stroke-linecap="round" stroke-linejoin="round"/>
<path d="M177.6 222.6 L177.9 221.2 L177.6 222.6" fill="none" stroke="#0f789e" stroke-width="2.8" opacity="0.78" stroke-linecap="round" stroke-linejoin="round"/>
<path d="M73.6 260.6 L72.9 259.3 L73.6 260.6" fill="none" stroke="#0f789e" stroke-width="2.8" opacity="0.78" stroke-linecap="round" stroke-linejoin="round"/>
<path d="M250.2 273.5 L254.5 273.4" fill="none" stroke="#0f789e" stroke-width="2.8" opacity="0.78" stroke-linecap="round" stroke-linejoin="round"/>
<path d="M226.3 186.6 L230.5 187.9" fill="none" stroke="#0f789e" stroke-width="2.8" opacity="0.78" stroke-linecap="round" stroke-linejoin="round"/>
<path d="M183 189.6 L186.6 190.1" fill="none" stroke="#0f789e" stroke-width="2.8" opacity="0.78" stroke-linecap="round" stroke-linejoin="round"/>
<path d="M264.4 274.2 L263.5 275.9" fill="none" stroke="#0f789e" stroke-width="2.8" opacity="0.78" stroke-linecap="round" stroke-linejoin="round"/>
<path d="M231.8 190.7 L231 190" fill="none" stroke="#0f789e" stroke-width="2.8" opacity="0.78" stroke-linecap="round" stroke-linejoin="round"/>
<path d="M81.8 266.6 L82.3 265.5 L81.8 266.6" fill="none" stroke="#0f789e" stroke-width="2.8" opacity="0.78" stroke-linecap="round" stroke-linejoin="round"/>
<path d="M248 259.4 L251.5 259.1" fill="none" stroke="#0f789e" stroke-width="2.8" opacity="0.78" stroke-linecap="round" stroke-linejoin="round"/>
<path d="M58.8 230.7 L58.8 230.7" fill="none" stroke="#0f789e" stroke-width="2.8" opacity="0.78" stroke-linecap="round" stroke-linejoin="round"/>
<path d="M204.7 194.8 L207.2 196.4" fill="none" stroke="#0f789e" stroke-width="2.8" opacity="0.78" stroke-linecap="round" stroke-linejoin="round"/>
<path d="M169.2 167.8 L171.4 166.7" fill="none" stroke="#0f789e" stroke-width="2.8" opacity="0.78" stroke-linecap="round" stroke-linejoin="round"/>
<path d="M231 190 L230.1 192.2" fill="none" stroke="#0f789e" stroke-width="2.8" opacity="0.78" stroke-linecap="round" stroke-linejoin="round"/>
<path d="M230.1 192.2 L231.8 190.7" fill="none" stroke="#0f789e" stroke-width="2.8" opacity="0.78" stroke-linecap="round" stroke-linejoin="round"/>
<path d="M120.1 286.9 L120.1 286.9" fill="none" stroke="#0f789e" stroke-width="2.8" opacity="0.78" stroke-linecap="round" stroke-linejoin="round"/>
<path d="M230.5 187.9 L229.8 189.4" fill="none" stroke="#0f789e" stroke-width="2.8" opacity="0.78" stroke-linecap="round" stroke-linejoin="round"/>
<path d="M173.2 259.1 L173.2 259.1" fill="none" stroke="#0f789e" stroke-width="2.8" opacity="0.78" stroke-linecap="round" stroke-linejoin="round"/>
<path d="M257.8 264.2 L259.8 263.7" fill="none" stroke="#0f789e" stroke-width="2.8" opacity="0.78" stroke-linecap="round" stroke-linejoin="round"/>
<path d="M173.8 167.5 L175.7 168" fill="none" stroke="#0f789e" stroke-width="2.8" opacity="0.78" stroke-linecap="round" stroke-linejoin="round"/>
<path d="M247.4 260.8 L248 259.4" fill="none" stroke="#0f789e" stroke-width="2.8" opacity="0.78" stroke-linecap="round" stroke-linejoin="round"/>
<path d="M111.5 178 L113.3 177.6" fill="none" stroke="#0f789e" stroke-width="2.8" opacity="0.78" stroke-linecap="round" stroke-linejoin="round"/>
<path d="M178.4 168.9 L178.2 170.1" fill="none" stroke="#0f789e" stroke-width="2.8" opacity="0.78" stroke-linecap="round" stroke-linejoin="round"/>
<path d="M203.2 195.6 L204.7 194.8" fill="none" stroke="#0f789e" stroke-width="2.8" opacity="0.78" stroke-linecap="round" stroke-linejoin="round"/>
<path d="M176.9 168.4 L178.4 168.9" fill="none" stroke="#0f789e" stroke-width="2.8" opacity="0.78" stroke-linecap="round" stroke-linejoin="round"/>
<path d="M206.9 251.4 L206.9 251.4" fill="none" stroke="#0f789e" stroke-width="2.8" opacity="0.78" stroke-linecap="round" stroke-linejoin="round"/>
<path d="M174.8 257.6 L174.8 257.6" fill="none" stroke="#0f789e" stroke-width="2.8" opacity="0.78" stroke-linecap="round" stroke-linejoin="round"/>
<path d="M171.4 166.7 L172.6 167.1" fill="none" stroke="#0f789e" stroke-width="2.8" opacity="0.78" stroke-linecap="round" stroke-linejoin="round"/>
<path d="M200.2 199.5 L201.4 199.2" fill="none" stroke="#0f789e" stroke-width="2.8" opacity="0.78" stroke-linecap="round" stroke-linejoin="round"/>
<path d="M168 167.5 L169.2 167.8" fill="none" stroke="#0f789e" stroke-width="2.8" opacity="0.78" stroke-linecap="round" stroke-linejoin="round"/>
<path d="M178.2 170.1 L179.3 170.5" fill="none" stroke="#0f789e" stroke-width="2.8" opacity="0.78" stroke-linecap="round" stroke-linejoin="round"/>
<path d="M138.9 178.1 L138.3 177.3" fill="none" stroke="#0f789e" stroke-width="2.8" opacity="0.78" stroke-linecap="round" stroke-linejoin="round"/>
<path d="M83 267.2 L83 267.2" fill="none" stroke="#0f789e" stroke-width="2.8" opacity="0.78" stroke-linecap="round" stroke-linejoin="round"/>
<path d="M81.4 217.1 L81.4 217.1" fill="none" stroke="#0f789e" stroke-width="2.8" opacity="0.78" stroke-linecap="round" stroke-linejoin="round"/>
<path d="M140.2 247.3 L140.7 246.7" fill="none" stroke="#0f789e" stroke-width="2.8" opacity="0.78" stroke-linecap="round" stroke-linejoin="round"/>
<path d="M153.7 270.3 L153.7 270.3" fill="none" stroke="#0f789e" stroke-width="2.8" opacity="0.78" stroke-linecap="round" stroke-linejoin="round"/>
<path d="M172.6 167.1 L173.4 167.3" fill="none" stroke="#0f789e" stroke-width="2.8" opacity="0.78" stroke-linecap="round" stroke-linejoin="round"/>
<path d="M176.2 168.2 L176.9 168.4" fill="none" stroke="#0f789e" stroke-width="2.8" opacity="0.78" stroke-linecap="round" stroke-linejoin="round"/>
<path d="M245.3 185.8 L245.9 186" fill="none" stroke="#0f789e" stroke-width="2.8" opacity="0.78" stroke-linecap="round" stroke-linejoin="round"/>
<path d="M62.1 237.6 L62.1 237.6" fill="none" stroke="#0f789e" stroke-width="2.8" opacity="0.78" stroke-linecap="round" stroke-linejoin="round"/>
<path d="M175.7 168 L176.2 168.2" fill="none" stroke="#0f789e" stroke-width="2.8" opacity="0.78" stroke-linecap="round" stroke-linejoin="round"/>
<path d="M173.4 167.3 L173.8 167.5" fill="none" stroke="#0f789e" stroke-width="2.8" opacity="0.78" stroke-linecap="round" stroke-linejoin="round"/>
<path d="M155.9 262.9 L155.5 263.1" fill="none" stroke="#0f789e" stroke-width="2.8" opacity="0.78" stroke-linecap="round" stroke-linejoin="round"/>
<path d="M96.3 268.1 L96.3 268.1" fill="none" stroke="#0f789e" stroke-width="2.8" opacity="0.78" stroke-linecap="round" stroke-linejoin="round"/>
</g>
<g data-layer="major-road-casing">
<path d="M197 183.8 L188.9 180.2 L183.7 170.4 L177.5 165.9 L155.6 165.7 M203.8 184.4 L217.1 185.1 L232.1 189.5 L239.2 193.6 M136 170.7 L147.1 166.7 L174.8 166.1 L182.1 170.2 L186.7 179.9 L192 183.5 M241.1 194.6 L232.3 189.1 L216.9 184.6 M227.8 156.5 L230 161.9 M236.5 174.9 L240.2 165 M239.7 166.3 L236 175 M206.2 181.3 L209.5 175.9 M230.8 161.8 L229.2 157.9 M222 172.8 L227.7 174.8 M192 183.5 L203.8 184.4 M226.8 153 L224.5 150.5 M227.8 156.5 L227.1 154.1 M235.5 163.4 L231.1 162.2 M210.3 183 L215 179.5 M211.5 183.9 L203.7 184 M220.2 174.8 L222 172.8 M229.5 174.7 L225.5 173.3 M241.9 161.5 L245.1 155.2 M247.2 151.2 L244.8 155.1 M228 177.6 L220.2 174.8 M175.2 140.5 L180.3 140.3 M163.7 131.3 L172.1 136.8 M197.6 123.6 L203.7 134.3 M252.9 147.7 L249.5 149.8 M252.9 141.8 L252 146 M250.7 149.5 L253.8 147.8 M156.8 116.6 L160.2 125.6 L163 128.3 M235 144.1 L238.4 147.1 M203.9 135.2 L204.3 138.5 M270.8 132.5 L264.4 138.4 M291.1 159.4 L291.9 173.9 M261.5 140.1 L258.9 136.9 M223.9 133.3 L224 128.1 M238.4 147.1 L241.6 148.9 M237.8 145.9 L235.4 143.9 M235.4 143.9 L233.3 142 M231.7 141.1 L233.7 142.9 M285.5 134.4 L289.3 146.8 M254.7 140 L253.4 141.1 M222.4 125.5 L222.5 117.2 M257.2 145.9 L258.6 145.1 M253.3 140.9 L252.9 141.8 M249.5 113.9 L249.5 127.5 M244.1 218.8 L242.6 217.7 L244.3 210.5 L264.9 202 M159.3 150.2 L166.9 150.6 M253.4 141.1 L252.9 141.8 M228.2 137.9 L226.5 136.4 M181.8 131.3 L175.5 128.1 M184.3 134.5 L181.8 131.3 M194 117.6 L197.6 123.6 M263.4 142.4 L262.4 141.1 M253.7 135.9 L249.5 130.5 M262.1 143.2 L263.4 142.4 M168.4 150.6 L171.1 150.7 M291.5 159.9 L290.8 152.1 M229.2 157.9 L235.7 156.4 M205.4 139.5 L214 137.8 M133.6 151.9 L110.2 141.4 M172 104.7 L179.7 83.3 M266.9 146 L263.6 142.6 M194.3 117.4 L193.2 112.3 M148.9 150.3 L154.6 150 M285.9 128.2 L285.5 134.4 M174.8 127.2 L173.3 123.4 M157.3 149.7 L152.8 149.6 M274.3 128.4 L272.4 130.8 M215.1 133.2 L222 127.5 M190.5 105.6 L190.2 109.4 L193.2 112.3 M214 137.8 L215.1 133.2 M146.6 108.1 L152.9 113.5 M250.2 167.6 L261.4 172.9 M203.4 92.7 L191.5 102.4 M172.9 140.7 L179.4 145 M290.8 186.1 L300.9 188.7 M222 115.3 L220.9 111.4 M291.9 173.9 L295 178.2 M149.2 144.6 L160.5 132.3 M172.2 118 L170.1 111.7 M278.6 123.2 L283.2 119.1 M220.5 109.2 L219.9 102.2 M266.9 146 L269.3 148.4 M285.5 134.4 L286 130.3 M287.1 115.3 L286.4 122.8 M276 148.1 L272 150.8 M275.6 126.5 L274.3 128.4 M244.8 158 L250.6 159.5 M149.6 125.4 L169 111.9 M139.3 101.2 L146.6 108.1 M238 156.4 L235.7 156.4 M263.3 201.2 L255.7 204 M148.1 149.9 L143.9 150.3 M188.5 126.4 L196.9 122.4 M117.6 107.5 L102.7 120.3 M238.7 156.5 L241.1 157.1 M205.4 194.5 L207 195.1 L208.8 191.3 M136.3 152.8 L141.9 151.2 M293.6 184 L298.6 181.7 M271.8 96.2 L281.2 102.6 M262.8 157.1 L256.2 160.9 M298.6 181.7 L295.9 178.3 M241.9 157.3 L244.1 157.9 M234.4 198.1 L225.8 203.8 M263.7 163.8 L267.6 171.2 M270.8 151.7 L262.8 157.1 M287.3 116.5 L287.9 110.7 M182.1 131 L185.5 126.9 M204.7 139.6 L205.4 139.5 M202.1 191.5 L203.5 194.8 M240.9 194.5 L239.9 197.4 L241.6 202 M135.2 94 L148.2 86.3 M208.5 185.5 L209.7 186.5 M238 156.4 L238.7 156.5 M209.7 186.5 L208.5 185.5 M149.4 85.7 L162.3 76.4 M170 155.2 L168.5 153.2 M208.8 191.3 L209.2 189.2 M199.3 193.3 L201.1 191.1 M209.2 189.2 L209.9 187.8 M241.1 157.1 L241.9 157.3 M264 162.5 L271.9 164.4 M224.6 126.8 L228.8 127 M199.5 193.3 L201.2 191.3 M256.2 160.9 L260.2 162.2 M150.8 126.4 L160.5 132.3 M192 183.5 L199.7 188.8 L203 188.5 M184.7 119.2 L188.6 121.2 L190.6 120.1 M248.2 166.8 L249.8 167.4 M249.9 167.2 L248.4 166.4 M172.9 120 L182.1 119.4 M247.2 138.7 L250.6 137.2 M250.6 137.2 L247.2 138.7 M268.2 176.1 L278.4 180.1 M244.1 157.9 L244.8 158 M209.9 187.8 L209.9 187 M160.2 163.5 L152.3 169 L152.5 171.1 L155.4 172.4 M155.4 172.4 L158 171.2 L159.4 167.5 L163.5 166.2 M197.3 144.8 L195.3 144.7 M148.2 163.6 L145.6 165.3 L147.3 167.8 L155 167.2 M197.5 145.9 L197 145.5 M130.9 172.3 L142 168.2 M141.6 167.8 L130.8 171.1 M248.7 207.6 L251.4 212.2 M235.1 229.1 L236.1 231.4 L239.5 231.6 M401.8 119.2 L407.7 119.8 M407.7 119.8 L411.6 120.2 M396.5 121.8 L407.7 119.8 M395.5 122.9 L396.5 121.8 M394.9 121.9 L395.8 121.9 M395.8 121.9 L396.5 121.8 M73.5 72.6 L73.3 72.9 M146.9 21.5 L147.6 22.4 M230.8 162.6 L233.8 163.4 M224.5 150.5 L222.9 149.6 M203.7 184 L197 183.8 M242.2 168.2 L250.6 171.2 M216.9 184.6 L211.5 183.9 M211.6 176.7 L210 176.1 M250.6 171.2 L255.6 173.8 L253.5 179.3 M229.3 175.4 L233.1 176.8 M238.1 164.4 L242.4 165.4 M239.7 164.5 L236.4 163.5 M218.8 176.7 L219.7 175.5 M240 163.4 L239.7 166.3 M172.4 160 L170 155.2 M210.3 183 L207.6 182 M235.2 176.8 L231.9 175.6 M238.1 164.4 L240.8 165.2 M238.9 161.6 L240 163.4 M179.4 145 L176.8 148.3 M240.8 165.2 L240.5 167.2 M241.1 167.3 L241.1 167.3 M155.6 165.7 L145.2 166.4 L135.7 170.3 M248.6 164.3 L245 162.8 M164.9 160.6 L170.8 162.4 M241.1 167.3 L241.8 165.5 M204 189.1 L205.6 186.4 M243.7 165.4 L241.3 164.9 M172.8 151.1 L168.5 153.2 M179.9 145.2 L181.5 143.2 M238.8 178.9 L243 180.4 M244.9 180.4 L240.4 178.7 M182.3 142.1 L183.9 140 M177.6 148.2 L179 146.3 M186.2 139.9 L188.6 139.9 M181.9 141.8 L180.5 143.7 M251.3 183.4 L248 190.9 M236.3 177.9 L238.8 178.9 M172 153.7 L174 151.8 M240.4 178.7 L237.7 177.7 M248.6 191.1 L251.9 183.6 M183.2 140.1 L181.9 141.8 M170.6 158.1 L171.7 160.2 M169.3 155.6 L170.6 158.1 M206 186 L207.6 185.6 M168.9 161.7 L164.9 160.3 M198 193.9 L200.2 190.6 M170 155.2 L172 153.7 M246.7 166.1 L244.9 165.7 M168.5 153.2 L169.3 155.6 M203 190.3 L204 189.1 M166.2 157.8 L168.2 156.5 M202.2 189.7 L200.5 190.3 M200.5 190.4 L202.2 190.4 M174 151.8 L174.6 151.5 M253.3 179.6 L251.9 182.9 M245.2 200.2 L241.1 194.6 M244.8 200.2 L241.1 194.6 M248 190.9 L246 195.4 M155.5 166.1 L158.5 163.7 M248.2 181.5 L246.2 180.8 M160.6 162 L162.5 160.6 M246.6 195.6 L248.6 191.1 M239.2 193.6 L242.2 196.8 M197.2 194.5 L194.9 194.8 M251.9 182.9 L249.5 182 M151.8 167.7 L155.5 166.1 M270.5 212.6 L260.2 213.7 L251.2 210.4 M235.9 212.1 L243 206.3 M247.1 202.2 L246 197.6 M147 167.5 L151.8 167.7 M242.2 196.8 L243.8 199.8 M245.5 204.1 L250.8 210.8 M251.2 210.4 L246.1 203.8 M243 207.9 L245.5 202.6 M246 195.4 L245.3 197.9 M271.1 213.5 L299.1 205.4 M244.3 200.5 L245.5 204.1 M246.1 203.8 L244.8 200.2 M244.5 203.3 L242.6 207.8 M147 167.5 L142.7 167.2 M245.6 199.4 L246.7 202.3 M143.1 167.8 L147 167.5 M244 200.6 L244.5 203.3 M246.7 202.3 L248.2 206.1 M248.7 206 L247.1 202.2 M245.5 202.6 L245.2 200.2 M236.3 215.9 L235.5 220.5 L237.3 225.3 M290.5 207.2 L270.5 212.6 M242.6 207.8 L240.1 210.7 M257.6 213.9 L271.1 213.5 M240.3 210.9 L243 207.9 M128.8 172 L136 170.7 M237.8 225.2 L236.4 217.1 M240.1 210.7 L237.3 214.4 M237.6 214.4 L240.3 210.9 M250.8 210.8 L257.6 213.9 M135.7 170.3 L130.9 171.4 M235.1 212.7 L233.9 214.7 M234.4 214.9 L235.7 212.9 M122.4 171.2 L128.8 172 M236.4 217.1 L237.6 214.4 M127.7 171.5 L122.6 170.7 M303.3 200.6 L290.5 207.2 M333.9 172.9 L336 177.6 L334 181.3 L318.1 184.5 L312.7 188.7 M313.7 188.8 L318.5 185.4 L335.2 181.4 L336.7 177.2 L333.8 171.3 M301.8 202.7 L296 203.6 L290.5 207.2 M122.6 170.7 L117 169.8 M237.3 225.3 L240.9 230.2 M241.2 230.1 L237.8 225.2 M116.8 170.2 L122.4 171.2 M67.6 144.6 L83.5 150.9 L96.2 163 M117 169.8 L111.5 168.7 M111.3 169.1 L116.8 170.2 M299.1 205.4 L306.3 198.7 M95.8 161.9 L83.9 150.6 L71.7 147 L66.9 142.9 M111.5 168.7 L105.6 167.5 M105.5 167.8 L111.3 169.1 M282.3 151.6 L277.9 149.2 M244.5 236.5 L242.4 231.9 M250.4 245 L258.1 252.3 L267.8 266.1 M242.2 232 L244.1 236.6 M307.1 197.5 L311.3 191.9 M302.7 196.8 L300.7 195.8 L299.6 197.5 M218.7 95.4 L218.3 82.9 M299.1 205.4 L307.8 205 M249.3 103.2 L249.4 109.9 M140.8 151 L136.4 152.2 M102.1 166.1 L95.8 161.9 M300 197.5 L300.8 196 L302.1 196.9 M309.5 204.7 L301.8 202.7 M301.3 131.8 L324.8 118.1 M300.1 197.8 L304.7 199.4 M244.1 236.6 L247.6 241.8 M247.6 241.8 L244.5 236.5 M100.6 165.8 L105.5 167.8 M242.4 231.9 L241.2 230.1 M240.9 230.2 L242.2 232 M272.7 255.2 L265 246 L252.4 235.7 L247.1 220.7 M311.5 190.4 L308.5 194.4 M252.3 204.8 L253.4 204.3 M283.7 152.2 L287.9 150.9 M293.6 98.2 L295.8 80.4 M307.8 205 L322.8 208.7 L349.4 209.8 L354.9 211.6 L360.9 216.7 M217.4 91.3 L218.9 97.8 M105.6 167.5 L102.1 166.1 M290.1 149.4 L286 151.4 M292.1 184.6 L293.6 184 M290.6 149.7 L297.2 148.4 M202 71.9 L185.6 69.2 M96.2 163 L100.6 165.8 M299.1 140.5 L300.7 131.9 M301.4 189 L307.4 190.5 M114.6 169.4 L113.7 169.2 M308.5 194.4 L306.5 197.2 M268.9 94.1 L276.6 88.9 M191.5 102.4 L191 98.2 L184.5 92.1 L182.6 85.6 L180 83.1 M239.6 127.3 L235 127.3 M272.1 187.1 L278.8 185 L288 185.5 M265.3 201 L265.3 201 M266.8 186.7 L266.9 179.4 M209.7 186.5 L209.9 187 M319 152.9 L312.3 146.5 L307.2 145.1 M305.6 198.4 L303.3 200.6 M282.4 103.6 L287.3 107 M244.6 127.4 L239.6 127.3 M131.7 146.6 L140.3 136.4 M198.4 194.4 L196.8 196.6 M254.1 160.3 L256.2 160.9 M179.1 107.4 L181.1 116.2 M164.9 160.3 L162.8 159.4 M120.4 159.8 L135.4 152.9 M179.4 145 L179.9 145.2 M247.2 138.7 L245.3 139.4 M203.7 195.1 L205.4 194.5 M299.2 145.9 L294.4 148.6 M249.3 98.3 L249.2 90.7 M134.3 96.5 L139.3 101.2 M162.5 159.7 L164.4 160.5 M160.3 158.5 L162.5 159.7 M140.9 135.6 L148.3 127.1 M240.9 194.5 L237.2 196.3 M162.8 159.4 L160.7 158.3 M361.4 216.5 L355.4 210.9 L349.5 209.1 L313.5 205.9 M254.6 85.7 L260.6 88.5 M160.7 158.3 L158.1 157 M166.9 126.6 L171.7 123 M158.1 157 L160.3 158.5 M296.5 208.3 L271.8 208.3 L272.3 210.7 L281.2 213.2 L286.6 217.5 M235 127.3 L232.5 127.2 M279 88.6 L285.6 86.9 L292 82.6 M244 140.7 L244.6 139.9 M102.4 123.4 L114.1 135.6 L121.1 139.5 L123 143.6 M291.9 108.2 L294.7 108.9 L296.4 112.6 L304.5 112.8 M249.5 127.5 L244.9 127.4 M190.6 120.1 L194 117.6 M312.7 188.7 L311.5 190.4 M246 195.4 L241.7 194.6 M210.8 89.1 L216.8 83.1 M273.1 164.5 L279.8 167.4 M312.3 190.5 L313.7 188.8 M250.2 167.6 L249.9 167.2 M201.6 191 L202.1 191.5 M121.5 104.6 L127.1 99.2 M263.9 174.2 L267.8 176 M243.7 141.1 L244 140.7 M249.8 167.4 L250.2 167.6 M329 164.4 L319 152.9 M247.6 241.8 L250.4 245 M198.4 194.4 L198.9 193.5 M161.8 76.2 L153.9 82.1 M201.2 191.3 L201.8 191.2 M245.3 139.4 L244.7 139.8 M263.5 90.4 L266.9 92.8 M205.8 91.8 L210.8 89.1 M186.7 126.7 L188.5 126.4 M189.2 103.2 L179.1 107.4 M154.3 154.8 L156.5 156.3 M256.5 134.7 L253.7 135.9 M224.6 126.8 L223.5 126.7 M148.5 148.8 L149.2 144.6 M255.4 184.2 L253 183.3 M229.9 127.1 L231.3 127.2 M151.9 152.9 L154.3 154.8 M201.1 191.1 L201.6 191 M293 97.9 L290.6 103.3 M222.8 126.8 L222.2 127.3 M223.7 126.9 L224.6 126.8 M194.9 194.8 L195.1 195.8 M237.2 196.3 L235 197.8 M289.2 107.2 L291.1 103.8 M152.9 113.5 L164.5 107.1 M268.3 172.7 L267.8 176 M87 118.7 L76 127.9 L69.3 130.9 M222.2 127.3 L222.9 127.1 M313.5 205.9 L309.5 204.7 M280.9 180.7 L293.6 184 M252.1 136.6 L250.6 137.2 M228.8 127 L229.9 127.1 M261.9 132.4 L267.2 130.3 M253.8 184.2 L256.1 185.1 M232.5 127.2 L231.3 127.2 M198.9 193.5 L199.5 193.3 M156.5 156.3 L158.1 157 M185.5 126.9 L186.7 126.7 M276.8 191.3 L289.9 196.1 M195.1 195.8 L195.1 194.9 M181.3 117.6 L184.7 119.2 M253.7 160.2 L254.1 160.3 M253.7 135.9 L252.1 136.6 M164 128.6 L166.9 126.6 M261.8 162.6 L260.6 162.2 M260.5 162.4 L261.7 162.8 M197.8 115.1 L200.6 113.1 M263.1 173.7 L261.4 172.9 M195.1 195.8 L195.8 196.4 M240.1 79.7 L243.8 81.7 M196.8 196.6 L195.8 196.4 M252.4 84.8 L259.3 72.8 M100 120.8 L87 118.7 M195.8 196.4 L196.5 196.9 M263 163 L261.8 162.6 M203.5 194.8 L203.7 195.1 M222 127.5 L222.2 127.3 M179.1 107.4 L170.7 109.6 M203.7 195.1 L203.8 195.5 M266.9 178.3 L267.8 176 M181.8 131.3 L182.1 131 M263.7 163.8 L263 163 M261.4 172.9 L262.4 173.7 M244.6 139.9 L244.7 139.8 M263 163 L264 162.5 M271.5 121.9 L281.6 124.8 M265.6 119.8 L258.6 117.2 M333.8 171.3 L335.7 167.4 M214.5 73.4 L208.6 72.8 M247.5 83.2 L250.6 84.2 M182.1 119.4 L184.7 119.2 M262.4 173.7 L263.9 174.2 M234.2 78.2 L230 77.8 M252.7 183.2 L251.9 182.9 M219.1 75.2 L217.9 82.9 M249.2 90.7 L252.4 84.8 M96.5 154.6 L105.9 159.1 L117 159.7 M212 104.9 L217.4 101 M149.6 151.2 L151.3 152.5 M261.7 162.8 L262.4 163.1 M263.1 163.4 L263.7 163.8 M267.6 171.2 L268.3 172.7 M265 191.1 L266.3 188 M194.3 117.4 L195.8 116.4 M196.5 196.9 L196.8 196.6 M260.2 162.2 L260.5 162.4 M260.6 162.2 L260.2 162.2 M253 184 L253.8 184.2 M334.9 167.5 L333.2 170.6 M195.1 194.9 L194.9 194.8 M149.1 85.4 L145 87.9 M131.7 146.6 L135.5 151.5 M338.9 165.8 L345.5 162.5 M330.1 169.7 L331.3 169.8 L330.1 169.7 M267.2 130.3 L271.7 131.7 M256.4 184.6 L255.4 184.2 M263.9 174.2 L263.1 173.7 M356.2 157.6 L345.4 162.2 M251.9 183.6 L252.4 183.8 M262.4 163.1 L262.8 163.2 M257.5 134.3 L256.5 134.7 M203.6 110.9 L201.6 112.3 M227.5 77.4 L224.5 76.8 M195.8 116.4 L197 115.6 M241.7 194.6 L240.9 194.5 M260.1 133.2 L258.6 133.8 M243.6 203.4 L241.6 202 M171.7 123 L173.2 122 M254 115.5 L249.5 113.9 M160.5 132.3 L161.6 131.2 M244.7 82.2 L246.6 82.9 M106.7 139.9 L97.9 136.6 M338.6 165.4 L334.9 167.5 M252.4 183.8 L252.8 183.9 M307.2 145.1 L303.6 145.8 M253 183.3 L252.7 183.2 M258.6 133.8 L257.5 134.3 M171.7 123 L173.3 123.4 M258.6 117.2 L254 115.5 M236.8 78.7 L234.2 78.2 M256.4 184.6 L256.1 185.1 M235 197.8 L234.4 198.1 M129.9 97 L133 95.3 M262.8 163.2 L263 163 M148.4 150.5 L149.6 151.2 M222.2 76.1 L219.7 75.1 M262.8 163.2 L263.1 163.4 M264.2 193.4 L265 191.1 M266.9 179.4 L266.9 178.3 M122.5 91.9 L126.7 95.6 M200.9 72.2 L204.9 72.7 M97.9 136.6 L82.3 134.5 M181.1 116.2 L181.3 117.6 M149.6 151.2 L148.9 150.3 M174 69.3 L181.4 77.6 M252.8 183.9 L253 184 M151.3 152.5 L151.9 152.9 M151.9 152.9 L151.3 152.5 M123 91.6 L114.7 87.4 M135.3 112.4 L131.7 122 M180 83.1 L181.9 77.4 M197 115.6 L197.8 115.1 M335.7 167.4 L338.9 165.8 M200.6 113.1 L201.6 112.3 M370 148.4 L356.2 157.6 M331.7 170.9 L333.8 171.9 M244.9 127.4 L244.6 127.4 M148.5 148.8 L148.2 149.8 M271.9 164.4 L273.1 164.5 M162.2 130.6 L161.6 131.2 M206.1 109.1 L207.8 107.9 M148.7 149.8 L148.5 148.8 M166.2 105.8 L169.9 109.6 M202.6 111.8 L203.6 110.9 M161.6 131.2 L162.4 130.9 M246.6 195.6 L246 195.4 M144.5 121.2 L148.4 124.5 M272 150.8 L271.2 151.4 M166.4 106 L172.5 103.2 M281 168 L283.7 169.6 M345.5 162.5 L352.7 159.3 M108.6 85.8 L119.3 89.5 M144.6 106.2 L154.3 99.9 M174.5 69.1 L169.3 62.9 L167.7 53.1 M194 117.6 L194.3 117.4 M201.6 112.3 L202.6 111.8 M115.9 171.2 L125.1 172.6 M260.7 132.9 L260.1 133.2 M127.1 99.2 L128.7 97.8 M243.8 203.7 L244 205 M270.1 121.5 L266.3 120 M102.2 120.6 L100.9 121.2 L102 122.6 M265.5 195 L264.2 193.4 M266.1 198.7 L266 196.2 M203.6 110.9 L204.6 110.2 M335.6 172.1 L335.6 172.1 M271.2 151.4 L270.8 151.7 M271.2 189.4 L273.9 190.4 M244.4 204.8 L243.8 203.7 M223.5 76.9 L218.9 79.4 M280.9 180.7 L278.4 180.1 M278.4 180.1 L280.9 180.7 M261.9 132.4 L261.3 132.7 M261.3 132.7 L260.7 132.9 M125.1 172.6 L126.4 173.8 L123.3 176.7 M341.5 164 L338.6 165.4 M196.4 71.5 L199.2 71.9 M352.4 146.3 L351 140.6 L337.2 135.9 M320.4 68.5 L350.5 80.6 L355 85.8 L356.5 94.1 M219.9 72.7 L220.4 63.5 M267.8 176 L268.2 176.1 M284.9 170.3 L287.8 171.9 M314.4 206.7 L308.2 204.6 L301.9 208.1 L296.5 208.3 M126.6 145.6 L131.7 146.6 M209.8 106.5 L211.3 105.4 M174.5 69.1 L179.6 68.7 M182.7 69.2 L186.7 69.9 M220.6 79.5 L225.1 77.4 M206.1 109.1 L205.2 109.6 M124.6 176.1 L126.8 173.5 L125.1 172.6 M204.6 110.2 L205.4 109.8 M318.8 205.7 L331.3 205.3 L336.1 207 M266.8 186.7 L266.5 187.5 M205.4 109.8 L206.1 109.1 M205.2 109.6 L204.6 110.2 M311.5 113.7 L323 113.9 M117.5 80.5 L127.8 90.2 M270.9 187.8 L272.1 187.1 M279.8 167.4 L281 168 M102.4 122.5 L102.9 120.9 M158.7 96 L163.7 101.7 M207.8 107.9 L208.8 107.4 M269.9 188.5 L270.9 189.2 M266 196.2 L265.5 195 M140.2 117.1 L143.7 120.5 M352.7 159.3 L360.7 155.6 M296.7 74.9 L294.7 79.1 M77.6 135.5 L81 139.3 L87.9 142.1 L93.9 152.7 M167.4 72.9 L170.2 71.3 M208.8 107.4 L209.4 106.7 M173.6 68.9 L170.2 70.7 M209.4 106.7 L208.6 107.2 M343.9 162.9 L341.5 164 M330.8 141.2 L319 152.9 M191.5 102.4 L189.2 103.2 M295.8 79.3 L297.4 75.3 M224.5 99.6 L227.9 99.4 M148.3 127.1 L149.2 125.9 M266.5 187.5 L266.4 187.8 M243.6 203.4 L243.8 203.7 M151.5 87.9 L158.7 96 M314.2 201.8 L322.7 202.1 M342.1 75.7 L320.8 68.1 M189.2 103.2 L191.3 102.7 M283.7 169.6 L284.9 170.3 M286.2 125 L281.6 124.8 M305.7 112.9 L311.5 113.7 M112.3 142.4 L113.2 134.8 M238.5 99.1 L242.8 98.9 M123 143.6 L126.6 145.6 M208.1 107.5 L207.8 107.9 M229.6 99.4 L232.8 99.3 M364 153.2 L376 144.7 M211.3 105.4 L212 104.9 M208.6 107.2 L208.1 107.5 M269.9 188.5 L270.4 188.1 M150 125.7 L150.8 126.4 M138.4 111.7 L141 116.1 M169 111.9 L170.1 111.2 M345.5 158 L348 156.4 M275.2 190.9 L276.8 191.3 M149 125 L150 125.7 M270.4 188.1 L270.9 187.8 M126.6 145.6 L125 148 M144.6 106.2 L138.9 109.9 M286.6 217.5 L298 218.1 L302.6 220.1 M345.6 160 L345.5 158 M266.3 188 L266.4 187.8 M209.4 106.7 L209.8 106.5 M140.9 135.6 L140.3 136.4 M140.3 136.4 L140.9 135.6 M259.3 72.8 L265 64 M265.9 199.4 L265.1 200.1 M224.5 99.6 L222.2 99.7 M97.9 136.6 L102.1 123.9 M220.5 62.8 L220.9 50.6 M265.5 200.3 L265.9 199.4 M288.9 172.6 L290.6 173.5 M65 140.4 L61.7 138.5 L56.9 139 M56.7 139.4 L61.6 138.8 L64.7 140.7 M301.9 69 L297.4 73.4 M220.9 49.9 L231.8 45.9 L244.7 38.2 M271.5 121.9 L270.1 121.5 M265.9 199.4 L266.1 198.7 M372.8 130.4 L369.4 115.5 M348 156.4 L351.1 155.5 M149.2 125.9 L149.6 125.4 M135.9 151.9 L135.5 151.5 M148.4 124.5 L149 125 M219.1 99.7 L218.1 100.5 M244.2 98.9 L247.7 98.5 M287.8 171.9 L288.9 172.6 M270.9 189.2 L271.2 189.4 M267.8 266.1 L272.8 275.1 M274.5 190.7 L275.2 190.9 M220 100.1 L221.4 99.7 M273.9 190.4 L274.5 190.7 M135.5 151.5 L135.6 151.9 M218.1 100.5 L219.2 100.1 M232.8 99.3 L234.8 99.2 M221.4 99.7 L220 99.6 M272.7 274.4 L267.8 266.1 M266.3 120 L265.6 119.8 M164.7 103.4 L165.6 105.1 M227.9 99.4 L229.6 99.4 M217.4 101 L218.1 100.5 M74.3 73.1 L96.7 79.2 M164.5 107.1 L165.9 106.3 M298.3 73.8 L301.4 70.2 M308.5 259.9 L289.4 223.1 M122.4 177.5 L124.6 176.1 M120.4 159.8 L117 159.7 M117 159.7 L120.4 159.8 M223.3 99.7 L224.5 99.6 M222.2 99.7 L223.3 99.7 M374.6 137.7 L383.7 144.6 L388 150.3 M132.6 105.5 L136.9 109.8 M68 131.3 L58.6 124.9 M356.8 87.6 L351.3 80.1 L342.1 75.7 M163.7 101.7 L164.7 103.4 M221.4 99.7 L222.2 99.7 M306 66.8 L315.9 60 M290.6 173.5 L291.6 173.9 M333 123.1 L334.6 129.6 M143.7 120.5 L144.5 121.2 M220.2 50.1 L220.1 60 M118.7 178.9 L114.8 180 M291.6 173.6 L290.6 173.5 M315.6 59.8 L305.8 66.2 M317.9 66.5 L307.9 59.1 M66.9 142.9 L65 140.4 M293.9 196.7 L298.5 197.6 M165.6 105.1 L166.2 105.8 M66.1 142.7 L67.6 144.6 M288.9 185.6 L290.2 185.6 M367.5 113.8 L371.4 124.7 M130.2 123.6 L132.1 122.4 M236.5 99 L235.6 99.2 M237.5 99 L236.5 99 M236.5 99.2 L237.5 99.2 M235.6 99.2 L236.5 99.2 M206.7 70.6 L218.5 63.9 M249.3 98.3 L251.4 98.1 M176.3 79.8 L167.7 74.7 M242.8 98.9 L244.2 98.9 M131.7 122 L129.8 123.3 M292.3 173.8 L291.6 173.6 M291.6 173.9 L292.3 173.8 M289 185.6 L290 185.9 M121.2 177.5 L122.4 177.5 M129.6 92.1 L131.3 93.7 M97.9 79.4 L82.8 74.4 M237.5 99.2 L238.5 99.1" fill="none" stroke="#fcf7e8" stroke-width="6.4" opacity="0.92" stroke-linecap="round" stroke-linejoin="round"/>
</g>
<g data-layer="major-road">
<path d="M197 183.8 L188.9 180.2 L183.7 170.4 L177.5 165.9 L155.6 165.7 M203.8 184.4 L217.1 185.1 L232.1 189.5 L239.2 193.6 M136 170.7 L147.1 166.7 L174.8 166.1 L182.1 170.2 L186.7 179.9 L192 183.5 M241.1 194.6 L232.3 189.1 L216.9 184.6 M227.8 156.5 L230 161.9 M236.5 174.9 L240.2 165 M239.7 166.3 L236 175 M206.2 181.3 L209.5 175.9 M230.8 161.8 L229.2 157.9 M222 172.8 L227.7 174.8 M192 183.5 L203.8 184.4 M226.8 153 L224.5 150.5 M227.8 156.5 L227.1 154.1 M235.5 163.4 L231.1 162.2 M210.3 183 L215 179.5 M211.5 183.9 L203.7 184 M220.2 174.8 L222 172.8 M229.5 174.7 L225.5 173.3 M241.9 161.5 L245.1 155.2 M247.2 151.2 L244.8 155.1 M228 177.6 L220.2 174.8 M175.2 140.5 L180.3 140.3 M163.7 131.3 L172.1 136.8 M197.6 123.6 L203.7 134.3 M252.9 147.7 L249.5 149.8 M252.9 141.8 L252 146 M250.7 149.5 L253.8 147.8 M156.8 116.6 L160.2 125.6 L163 128.3 M235 144.1 L238.4 147.1 M203.9 135.2 L204.3 138.5 M270.8 132.5 L264.4 138.4 M291.1 159.4 L291.9 173.9 M261.5 140.1 L258.9 136.9 M223.9 133.3 L224 128.1 M238.4 147.1 L241.6 148.9 M237.8 145.9 L235.4 143.9 M235.4 143.9 L233.3 142 M231.7 141.1 L233.7 142.9 M285.5 134.4 L289.3 146.8 M254.7 140 L253.4 141.1 M222.4 125.5 L222.5 117.2 M257.2 145.9 L258.6 145.1 M253.3 140.9 L252.9 141.8 M249.5 113.9 L249.5 127.5 M244.1 218.8 L242.6 217.7 L244.3 210.5 L264.9 202 M159.3 150.2 L166.9 150.6 M253.4 141.1 L252.9 141.8 M228.2 137.9 L226.5 136.4 M181.8 131.3 L175.5 128.1 M184.3 134.5 L181.8 131.3 M194 117.6 L197.6 123.6 M263.4 142.4 L262.4 141.1 M253.7 135.9 L249.5 130.5 M262.1 143.2 L263.4 142.4 M168.4 150.6 L171.1 150.7 M291.5 159.9 L290.8 152.1 M229.2 157.9 L235.7 156.4 M205.4 139.5 L214 137.8 M133.6 151.9 L110.2 141.4 M172 104.7 L179.7 83.3 M266.9 146 L263.6 142.6 M194.3 117.4 L193.2 112.3 M148.9 150.3 L154.6 150 M285.9 128.2 L285.5 134.4 M174.8 127.2 L173.3 123.4 M157.3 149.7 L152.8 149.6 M274.3 128.4 L272.4 130.8 M215.1 133.2 L222 127.5 M190.5 105.6 L190.2 109.4 L193.2 112.3 M214 137.8 L215.1 133.2 M146.6 108.1 L152.9 113.5 M250.2 167.6 L261.4 172.9 M203.4 92.7 L191.5 102.4 M172.9 140.7 L179.4 145 M290.8 186.1 L300.9 188.7 M222 115.3 L220.9 111.4 M291.9 173.9 L295 178.2 M149.2 144.6 L160.5 132.3 M172.2 118 L170.1 111.7 M278.6 123.2 L283.2 119.1 M220.5 109.2 L219.9 102.2 M266.9 146 L269.3 148.4 M285.5 134.4 L286 130.3 M287.1 115.3 L286.4 122.8 M276 148.1 L272 150.8 M275.6 126.5 L274.3 128.4 M244.8 158 L250.6 159.5 M149.6 125.4 L169 111.9 M139.3 101.2 L146.6 108.1 M238 156.4 L235.7 156.4 M263.3 201.2 L255.7 204 M148.1 149.9 L143.9 150.3 M188.5 126.4 L196.9 122.4 M117.6 107.5 L102.7 120.3 M238.7 156.5 L241.1 157.1 M205.4 194.5 L207 195.1 L208.8 191.3 M136.3 152.8 L141.9 151.2 M293.6 184 L298.6 181.7 M271.8 96.2 L281.2 102.6 M262.8 157.1 L256.2 160.9 M298.6 181.7 L295.9 178.3 M241.9 157.3 L244.1 157.9 M234.4 198.1 L225.8 203.8 M263.7 163.8 L267.6 171.2 M270.8 151.7 L262.8 157.1 M287.3 116.5 L287.9 110.7 M182.1 131 L185.5 126.9 M204.7 139.6 L205.4 139.5 M202.1 191.5 L203.5 194.8 M240.9 194.5 L239.9 197.4 L241.6 202 M135.2 94 L148.2 86.3 M208.5 185.5 L209.7 186.5 M238 156.4 L238.7 156.5 M209.7 186.5 L208.5 185.5 M149.4 85.7 L162.3 76.4 M170 155.2 L168.5 153.2 M208.8 191.3 L209.2 189.2 M199.3 193.3 L201.1 191.1 M209.2 189.2 L209.9 187.8 M241.1 157.1 L241.9 157.3 M264 162.5 L271.9 164.4 M224.6 126.8 L228.8 127 M199.5 193.3 L201.2 191.3 M256.2 160.9 L260.2 162.2 M150.8 126.4 L160.5 132.3 M192 183.5 L199.7 188.8 L203 188.5 M184.7 119.2 L188.6 121.2 L190.6 120.1 M248.2 166.8 L249.8 167.4 M249.9 167.2 L248.4 166.4 M172.9 120 L182.1 119.4 M247.2 138.7 L250.6 137.2 M250.6 137.2 L247.2 138.7 M268.2 176.1 L278.4 180.1 M244.1 157.9 L244.8 158 M209.9 187.8 L209.9 187 M160.2 163.5 L152.3 169 L152.5 171.1 L155.4 172.4 M155.4 172.4 L158 171.2 L159.4 167.5 L163.5 166.2 M197.3 144.8 L195.3 144.7 M148.2 163.6 L145.6 165.3 L147.3 167.8 L155 167.2 M197.5 145.9 L197 145.5 M130.9 172.3 L142 168.2 M141.6 167.8 L130.8 171.1 M248.7 207.6 L251.4 212.2 M235.1 229.1 L236.1 231.4 L239.5 231.6 M401.8 119.2 L407.7 119.8 M407.7 119.8 L411.6 120.2 M396.5 121.8 L407.7 119.8 M395.5 122.9 L396.5 121.8 M394.9 121.9 L395.8 121.9 M395.8 121.9 L396.5 121.8 M73.5 72.6 L73.3 72.9 M146.9 21.5 L147.6 22.4 M230.8 162.6 L233.8 163.4 M224.5 150.5 L222.9 149.6 M203.7 184 L197 183.8 M242.2 168.2 L250.6 171.2 M216.9 184.6 L211.5 183.9 M211.6 176.7 L210 176.1 M250.6 171.2 L255.6 173.8 L253.5 179.3 M229.3 175.4 L233.1 176.8 M238.1 164.4 L242.4 165.4 M239.7 164.5 L236.4 163.5 M218.8 176.7 L219.7 175.5 M240 163.4 L239.7 166.3 M172.4 160 L170 155.2 M210.3 183 L207.6 182 M235.2 176.8 L231.9 175.6 M238.1 164.4 L240.8 165.2 M238.9 161.6 L240 163.4 M179.4 145 L176.8 148.3 M240.8 165.2 L240.5 167.2 M241.1 167.3 L241.1 167.3 M155.6 165.7 L145.2 166.4 L135.7 170.3 M248.6 164.3 L245 162.8 M164.9 160.6 L170.8 162.4 M241.1 167.3 L241.8 165.5 M204 189.1 L205.6 186.4 M243.7 165.4 L241.3 164.9 M172.8 151.1 L168.5 153.2 M179.9 145.2 L181.5 143.2 M238.8 178.9 L243 180.4 M244.9 180.4 L240.4 178.7 M182.3 142.1 L183.9 140 M177.6 148.2 L179 146.3 M186.2 139.9 L188.6 139.9 M181.9 141.8 L180.5 143.7 M251.3 183.4 L248 190.9 M236.3 177.9 L238.8 178.9 M172 153.7 L174 151.8 M240.4 178.7 L237.7 177.7 M248.6 191.1 L251.9 183.6 M183.2 140.1 L181.9 141.8 M170.6 158.1 L171.7 160.2 M169.3 155.6 L170.6 158.1 M206 186 L207.6 185.6 M168.9 161.7 L164.9 160.3 M198 193.9 L200.2 190.6 M170 155.2 L172 153.7 M246.7 166.1 L244.9 165.7 M168.5 153.2 L169.3 155.6 M203 190.3 L204 189.1 M166.2 157.8 L168.2 156.5 M202.2 189.7 L200.5 190.3 M200.5 190.4 L202.2 190.4 M174 151.8 L174.6 151.5 M253.3 179.6 L251.9 182.9 M245.2 200.2 L241.1 194.6 M244.8 200.2 L241.1 194.6 M248 190.9 L246 195.4 M155.5 166.1 L158.5 163.7 M248.2 181.5 L246.2 180.8 M160.6 162 L162.5 160.6 M246.6 195.6 L248.6 191.1 M239.2 193.6 L242.2 196.8 M197.2 194.5 L194.9 194.8 M251.9 182.9 L249.5 182 M151.8 167.7 L155.5 166.1 M270.5 212.6 L260.2 213.7 L251.2 210.4 M235.9 212.1 L243 206.3 M247.1 202.2 L246 197.6 M147 167.5 L151.8 167.7 M242.2 196.8 L243.8 199.8 M245.5 204.1 L250.8 210.8 M251.2 210.4 L246.1 203.8 M243 207.9 L245.5 202.6 M246 195.4 L245.3 197.9 M271.1 213.5 L299.1 205.4 M244.3 200.5 L245.5 204.1 M246.1 203.8 L244.8 200.2 M244.5 203.3 L242.6 207.8 M147 167.5 L142.7 167.2 M245.6 199.4 L246.7 202.3 M143.1 167.8 L147 167.5 M244 200.6 L244.5 203.3 M246.7 202.3 L248.2 206.1 M248.7 206 L247.1 202.2 M245.5 202.6 L245.2 200.2 M236.3 215.9 L235.5 220.5 L237.3 225.3 M290.5 207.2 L270.5 212.6 M242.6 207.8 L240.1 210.7 M257.6 213.9 L271.1 213.5 M240.3 210.9 L243 207.9 M128.8 172 L136 170.7 M237.8 225.2 L236.4 217.1 M240.1 210.7 L237.3 214.4 M237.6 214.4 L240.3 210.9 M250.8 210.8 L257.6 213.9 M135.7 170.3 L130.9 171.4 M235.1 212.7 L233.9 214.7 M234.4 214.9 L235.7 212.9 M122.4 171.2 L128.8 172 M236.4 217.1 L237.6 214.4 M127.7 171.5 L122.6 170.7 M303.3 200.6 L290.5 207.2 M333.9 172.9 L336 177.6 L334 181.3 L318.1 184.5 L312.7 188.7 M313.7 188.8 L318.5 185.4 L335.2 181.4 L336.7 177.2 L333.8 171.3 M301.8 202.7 L296 203.6 L290.5 207.2 M122.6 170.7 L117 169.8 M237.3 225.3 L240.9 230.2 M241.2 230.1 L237.8 225.2 M116.8 170.2 L122.4 171.2 M67.6 144.6 L83.5 150.9 L96.2 163 M117 169.8 L111.5 168.7 M111.3 169.1 L116.8 170.2 M299.1 205.4 L306.3 198.7 M95.8 161.9 L83.9 150.6 L71.7 147 L66.9 142.9 M111.5 168.7 L105.6 167.5 M105.5 167.8 L111.3 169.1 M282.3 151.6 L277.9 149.2 M244.5 236.5 L242.4 231.9 M250.4 245 L258.1 252.3 L267.8 266.1 M242.2 232 L244.1 236.6 M307.1 197.5 L311.3 191.9 M302.7 196.8 L300.7 195.8 L299.6 197.5 M218.7 95.4 L218.3 82.9 M299.1 205.4 L307.8 205 M249.3 103.2 L249.4 109.9 M140.8 151 L136.4 152.2 M102.1 166.1 L95.8 161.9 M300 197.5 L300.8 196 L302.1 196.9 M309.5 204.7 L301.8 202.7 M301.3 131.8 L324.8 118.1 M300.1 197.8 L304.7 199.4 M244.1 236.6 L247.6 241.8 M247.6 241.8 L244.5 236.5 M100.6 165.8 L105.5 167.8 M242.4 231.9 L241.2 230.1 M240.9 230.2 L242.2 232 M272.7 255.2 L265 246 L252.4 235.7 L247.1 220.7 M311.5 190.4 L308.5 194.4 M252.3 204.8 L253.4 204.3 M283.7 152.2 L287.9 150.9 M293.6 98.2 L295.8 80.4 M307.8 205 L322.8 208.7 L349.4 209.8 L354.9 211.6 L360.9 216.7 M217.4 91.3 L218.9 97.8 M105.6 167.5 L102.1 166.1 M290.1 149.4 L286 151.4 M292.1 184.6 L293.6 184 M290.6 149.7 L297.2 148.4 M202 71.9 L185.6 69.2 M96.2 163 L100.6 165.8 M299.1 140.5 L300.7 131.9 M301.4 189 L307.4 190.5 M114.6 169.4 L113.7 169.2 M308.5 194.4 L306.5 197.2 M268.9 94.1 L276.6 88.9 M191.5 102.4 L191 98.2 L184.5 92.1 L182.6 85.6 L180 83.1 M239.6 127.3 L235 127.3 M272.1 187.1 L278.8 185 L288 185.5 M265.3 201 L265.3 201 M266.8 186.7 L266.9 179.4 M209.7 186.5 L209.9 187 M319 152.9 L312.3 146.5 L307.2 145.1 M305.6 198.4 L303.3 200.6 M282.4 103.6 L287.3 107 M244.6 127.4 L239.6 127.3 M131.7 146.6 L140.3 136.4 M198.4 194.4 L196.8 196.6 M254.1 160.3 L256.2 160.9 M179.1 107.4 L181.1 116.2 M164.9 160.3 L162.8 159.4 M120.4 159.8 L135.4 152.9 M179.4 145 L179.9 145.2 M247.2 138.7 L245.3 139.4 M203.7 195.1 L205.4 194.5 M299.2 145.9 L294.4 148.6 M249.3 98.3 L249.2 90.7 M134.3 96.5 L139.3 101.2 M162.5 159.7 L164.4 160.5 M160.3 158.5 L162.5 159.7 M140.9 135.6 L148.3 127.1 M240.9 194.5 L237.2 196.3 M162.8 159.4 L160.7 158.3 M361.4 216.5 L355.4 210.9 L349.5 209.1 L313.5 205.9 M254.6 85.7 L260.6 88.5 M160.7 158.3 L158.1 157 M166.9 126.6 L171.7 123 M158.1 157 L160.3 158.5 M296.5 208.3 L271.8 208.3 L272.3 210.7 L281.2 213.2 L286.6 217.5 M235 127.3 L232.5 127.2 M279 88.6 L285.6 86.9 L292 82.6 M244 140.7 L244.6 139.9 M102.4 123.4 L114.1 135.6 L121.1 139.5 L123 143.6 M291.9 108.2 L294.7 108.9 L296.4 112.6 L304.5 112.8 M249.5 127.5 L244.9 127.4 M190.6 120.1 L194 117.6 M312.7 188.7 L311.5 190.4 M246 195.4 L241.7 194.6 M210.8 89.1 L216.8 83.1 M273.1 164.5 L279.8 167.4 M312.3 190.5 L313.7 188.8 M250.2 167.6 L249.9 167.2 M201.6 191 L202.1 191.5 M121.5 104.6 L127.1 99.2 M263.9 174.2 L267.8 176 M243.7 141.1 L244 140.7 M249.8 167.4 L250.2 167.6 M329 164.4 L319 152.9 M247.6 241.8 L250.4 245 M198.4 194.4 L198.9 193.5 M161.8 76.2 L153.9 82.1 M201.2 191.3 L201.8 191.2 M245.3 139.4 L244.7 139.8 M263.5 90.4 L266.9 92.8 M205.8 91.8 L210.8 89.1 M186.7 126.7 L188.5 126.4 M189.2 103.2 L179.1 107.4 M154.3 154.8 L156.5 156.3 M256.5 134.7 L253.7 135.9 M224.6 126.8 L223.5 126.7 M148.5 148.8 L149.2 144.6 M255.4 184.2 L253 183.3 M229.9 127.1 L231.3 127.2 M151.9 152.9 L154.3 154.8 M201.1 191.1 L201.6 191 M293 97.9 L290.6 103.3 M222.8 126.8 L222.2 127.3 M223.7 126.9 L224.6 126.8 M194.9 194.8 L195.1 195.8 M237.2 196.3 L235 197.8 M289.2 107.2 L291.1 103.8 M152.9 113.5 L164.5 107.1 M268.3 172.7 L267.8 176 M87 118.7 L76 127.9 L69.3 130.9 M222.2 127.3 L222.9 127.1 M313.5 205.9 L309.5 204.7 M280.9 180.7 L293.6 184 M252.1 136.6 L250.6 137.2 M228.8 127 L229.9 127.1 M261.9 132.4 L267.2 130.3 M253.8 184.2 L256.1 185.1 M232.5 127.2 L231.3 127.2 M198.9 193.5 L199.5 193.3 M156.5 156.3 L158.1 157 M185.5 126.9 L186.7 126.7 M276.8 191.3 L289.9 196.1 M195.1 195.8 L195.1 194.9 M181.3 117.6 L184.7 119.2 M253.7 160.2 L254.1 160.3 M253.7 135.9 L252.1 136.6 M164 128.6 L166.9 126.6 M261.8 162.6 L260.6 162.2 M260.5 162.4 L261.7 162.8 M197.8 115.1 L200.6 113.1 M263.1 173.7 L261.4 172.9 M195.1 195.8 L195.8 196.4 M240.1 79.7 L243.8 81.7 M196.8 196.6 L195.8 196.4 M252.4 84.8 L259.3 72.8 M100 120.8 L87 118.7 M195.8 196.4 L196.5 196.9 M263 163 L261.8 162.6 M203.5 194.8 L203.7 195.1 M222 127.5 L222.2 127.3 M179.1 107.4 L170.7 109.6 M203.7 195.1 L203.8 195.5 M266.9 178.3 L267.8 176 M181.8 131.3 L182.1 131 M263.7 163.8 L263 163 M261.4 172.9 L262.4 173.7 M244.6 139.9 L244.7 139.8 M263 163 L264 162.5 M271.5 121.9 L281.6 124.8 M265.6 119.8 L258.6 117.2 M333.8 171.3 L335.7 167.4 M214.5 73.4 L208.6 72.8 M247.5 83.2 L250.6 84.2 M182.1 119.4 L184.7 119.2 M262.4 173.7 L263.9 174.2 M234.2 78.2 L230 77.8 M252.7 183.2 L251.9 182.9 M219.1 75.2 L217.9 82.9 M249.2 90.7 L252.4 84.8 M96.5 154.6 L105.9 159.1 L117 159.7 M212 104.9 L217.4 101 M149.6 151.2 L151.3 152.5 M261.7 162.8 L262.4 163.1 M263.1 163.4 L263.7 163.8 M267.6 171.2 L268.3 172.7 M265 191.1 L266.3 188 M194.3 117.4 L195.8 116.4 M196.5 196.9 L196.8 196.6 M260.2 162.2 L260.5 162.4 M260.6 162.2 L260.2 162.2 M253 184 L253.8 184.2 M334.9 167.5 L333.2 170.6 M195.1 194.9 L194.9 194.8 M149.1 85.4 L145 87.9 M131.7 146.6 L135.5 151.5 M338.9 165.8 L345.5 162.5 M330.1 169.7 L331.3 169.8 L330.1 169.7 M267.2 130.3 L271.7 131.7 M256.4 184.6 L255.4 184.2 M263.9 174.2 L263.1 173.7 M356.2 157.6 L345.4 162.2 M251.9 183.6 L252.4 183.8 M262.4 163.1 L262.8 163.2 M257.5 134.3 L256.5 134.7 M203.6 110.9 L201.6 112.3 M227.5 77.4 L224.5 76.8 M195.8 116.4 L197 115.6 M241.7 194.6 L240.9 194.5 M260.1 133.2 L258.6 133.8 M243.6 203.4 L241.6 202 M171.7 123 L173.2 122 M254 115.5 L249.5 113.9 M160.5 132.3 L161.6 131.2 M244.7 82.2 L246.6 82.9 M106.7 139.9 L97.9 136.6 M338.6 165.4 L334.9 167.5 M252.4 183.8 L252.8 183.9 M307.2 145.1 L303.6 145.8 M253 183.3 L252.7 183.2 M258.6 133.8 L257.5 134.3 M171.7 123 L173.3 123.4 M258.6 117.2 L254 115.5 M236.8 78.7 L234.2 78.2 M256.4 184.6 L256.1 185.1 M235 197.8 L234.4 198.1 M129.9 97 L133 95.3 M262.8 163.2 L263 163 M148.4 150.5 L149.6 151.2 M222.2 76.1 L219.7 75.1 M262.8 163.2 L263.1 163.4 M264.2 193.4 L265 191.1 M266.9 179.4 L266.9 178.3 M122.5 91.9 L126.7 95.6 M200.9 72.2 L204.9 72.7 M97.9 136.6 L82.3 134.5 M181.1 116.2 L181.3 117.6 M149.6 151.2 L148.9 150.3 M174 69.3 L181.4 77.6 M252.8 183.9 L253 184 M151.3 152.5 L151.9 152.9 M151.9 152.9 L151.3 152.5 M123 91.6 L114.7 87.4 M135.3 112.4 L131.7 122 M180 83.1 L181.9 77.4 M197 115.6 L197.8 115.1 M335.7 167.4 L338.9 165.8 M200.6 113.1 L201.6 112.3 M370 148.4 L356.2 157.6 M331.7 170.9 L333.8 171.9 M244.9 127.4 L244.6 127.4 M148.5 148.8 L148.2 149.8 M271.9 164.4 L273.1 164.5 M162.2 130.6 L161.6 131.2 M206.1 109.1 L207.8 107.9 M148.7 149.8 L148.5 148.8 M166.2 105.8 L169.9 109.6 M202.6 111.8 L203.6 110.9 M161.6 131.2 L162.4 130.9 M246.6 195.6 L246 195.4 M144.5 121.2 L148.4 124.5 M272 150.8 L271.2 151.4 M166.4 106 L172.5 103.2 M281 168 L283.7 169.6 M345.5 162.5 L352.7 159.3 M108.6 85.8 L119.3 89.5 M144.6 106.2 L154.3 99.9 M174.5 69.1 L169.3 62.9 L167.7 53.1 M194 117.6 L194.3 117.4 M201.6 112.3 L202.6 111.8 M115.9 171.2 L125.1 172.6 M260.7 132.9 L260.1 133.2 M127.1 99.2 L128.7 97.8 M243.8 203.7 L244 205 M270.1 121.5 L266.3 120 M102.2 120.6 L100.9 121.2 L102 122.6 M265.5 195 L264.2 193.4 M266.1 198.7 L266 196.2 M203.6 110.9 L204.6 110.2 M335.6 172.1 L335.6 172.1 M271.2 151.4 L270.8 151.7 M271.2 189.4 L273.9 190.4 M244.4 204.8 L243.8 203.7 M223.5 76.9 L218.9 79.4 M280.9 180.7 L278.4 180.1 M278.4 180.1 L280.9 180.7 M261.9 132.4 L261.3 132.7 M261.3 132.7 L260.7 132.9 M125.1 172.6 L126.4 173.8 L123.3 176.7 M341.5 164 L338.6 165.4 M196.4 71.5 L199.2 71.9 M352.4 146.3 L351 140.6 L337.2 135.9 M320.4 68.5 L350.5 80.6 L355 85.8 L356.5 94.1 M219.9 72.7 L220.4 63.5 M267.8 176 L268.2 176.1 M284.9 170.3 L287.8 171.9 M314.4 206.7 L308.2 204.6 L301.9 208.1 L296.5 208.3 M126.6 145.6 L131.7 146.6 M209.8 106.5 L211.3 105.4 M174.5 69.1 L179.6 68.7 M182.7 69.2 L186.7 69.9 M220.6 79.5 L225.1 77.4 M206.1 109.1 L205.2 109.6 M124.6 176.1 L126.8 173.5 L125.1 172.6 M204.6 110.2 L205.4 109.8 M318.8 205.7 L331.3 205.3 L336.1 207 M266.8 186.7 L266.5 187.5 M205.4 109.8 L206.1 109.1 M205.2 109.6 L204.6 110.2 M311.5 113.7 L323 113.9 M117.5 80.5 L127.8 90.2 M270.9 187.8 L272.1 187.1 M279.8 167.4 L281 168 M102.4 122.5 L102.9 120.9 M158.7 96 L163.7 101.7 M207.8 107.9 L208.8 107.4 M269.9 188.5 L270.9 189.2 M266 196.2 L265.5 195 M140.2 117.1 L143.7 120.5 M352.7 159.3 L360.7 155.6 M296.7 74.9 L294.7 79.1 M77.6 135.5 L81 139.3 L87.9 142.1 L93.9 152.7 M167.4 72.9 L170.2 71.3 M208.8 107.4 L209.4 106.7 M173.6 68.9 L170.2 70.7 M209.4 106.7 L208.6 107.2 M343.9 162.9 L341.5 164 M330.8 141.2 L319 152.9 M191.5 102.4 L189.2 103.2 M295.8 79.3 L297.4 75.3 M224.5 99.6 L227.9 99.4 M148.3 127.1 L149.2 125.9 M266.5 187.5 L266.4 187.8 M243.6 203.4 L243.8 203.7 M151.5 87.9 L158.7 96 M314.2 201.8 L322.7 202.1 M342.1 75.7 L320.8 68.1 M189.2 103.2 L191.3 102.7 M283.7 169.6 L284.9 170.3 M286.2 125 L281.6 124.8 M305.7 112.9 L311.5 113.7 M112.3 142.4 L113.2 134.8 M238.5 99.1 L242.8 98.9 M123 143.6 L126.6 145.6 M208.1 107.5 L207.8 107.9 M229.6 99.4 L232.8 99.3 M364 153.2 L376 144.7 M211.3 105.4 L212 104.9 M208.6 107.2 L208.1 107.5 M269.9 188.5 L270.4 188.1 M150 125.7 L150.8 126.4 M138.4 111.7 L141 116.1 M169 111.9 L170.1 111.2 M345.5 158 L348 156.4 M275.2 190.9 L276.8 191.3 M149 125 L150 125.7 M270.4 188.1 L270.9 187.8 M126.6 145.6 L125 148 M144.6 106.2 L138.9 109.9 M286.6 217.5 L298 218.1 L302.6 220.1 M345.6 160 L345.5 158 M266.3 188 L266.4 187.8 M209.4 106.7 L209.8 106.5 M140.9 135.6 L140.3 136.4 M140.3 136.4 L140.9 135.6 M259.3 72.8 L265 64 M265.9 199.4 L265.1 200.1 M224.5 99.6 L222.2 99.7 M97.9 136.6 L102.1 123.9 M220.5 62.8 L220.9 50.6 M265.5 200.3 L265.9 199.4 M288.9 172.6 L290.6 173.5 M65 140.4 L61.7 138.5 L56.9 139 M56.7 139.4 L61.6 138.8 L64.7 140.7 M301.9 69 L297.4 73.4 M220.9 49.9 L231.8 45.9 L244.7 38.2 M271.5 121.9 L270.1 121.5 M265.9 199.4 L266.1 198.7 M372.8 130.4 L369.4 115.5 M348 156.4 L351.1 155.5 M149.2 125.9 L149.6 125.4 M135.9 151.9 L135.5 151.5 M148.4 124.5 L149 125 M219.1 99.7 L218.1 100.5 M244.2 98.9 L247.7 98.5 M287.8 171.9 L288.9 172.6 M270.9 189.2 L271.2 189.4 M267.8 266.1 L272.8 275.1 M274.5 190.7 L275.2 190.9 M220 100.1 L221.4 99.7 M273.9 190.4 L274.5 190.7 M135.5 151.5 L135.6 151.9 M218.1 100.5 L219.2 100.1 M232.8 99.3 L234.8 99.2 M221.4 99.7 L220 99.6 M272.7 274.4 L267.8 266.1 M266.3 120 L265.6 119.8 M164.7 103.4 L165.6 105.1 M227.9 99.4 L229.6 99.4 M217.4 101 L218.1 100.5 M74.3 73.1 L96.7 79.2 M164.5 107.1 L165.9 106.3 M298.3 73.8 L301.4 70.2 M308.5 259.9 L289.4 223.1 M122.4 177.5 L124.6 176.1 M120.4 159.8 L117 159.7 M117 159.7 L120.4 159.8 M223.3 99.7 L224.5 99.6 M222.2 99.7 L223.3 99.7 M374.6 137.7 L383.7 144.6 L388 150.3 M132.6 105.5 L136.9 109.8 M68 131.3 L58.6 124.9 M356.8 87.6 L351.3 80.1 L342.1 75.7 M163.7 101.7 L164.7 103.4 M221.4 99.7 L222.2 99.7 M306 66.8 L315.9 60 M290.6 173.5 L291.6 173.9 M333 123.1 L334.6 129.6 M143.7 120.5 L144.5 121.2 M220.2 50.1 L220.1 60 M118.7 178.9 L114.8 180 M291.6 173.6 L290.6 173.5 M315.6 59.8 L305.8 66.2 M317.9 66.5 L307.9 59.1 M66.9 142.9 L65 140.4 M293.9 196.7 L298.5 197.6 M165.6 105.1 L166.2 105.8 M66.1 142.7 L67.6 144.6 M288.9 185.6 L290.2 185.6 M367.5 113.8 L371.4 124.7 M130.2 123.6 L132.1 122.4 M236.5 99 L235.6 99.2 M237.5 99 L236.5 99 M236.5 99.2 L237.5 99.2 M235.6 99.2 L236.5 99.2 M206.7 70.6 L218.5 63.9 M249.3 98.3 L251.4 98.1 M176.3 79.8 L167.7 74.7 M242.8 98.9 L244.2 98.9 M131.7 122 L129.8 123.3 M292.3 173.8 L291.6 173.6 M291.6 173.9 L292.3 173.8 M289 185.6 L290 185.9 M121.2 177.5 L122.4 177.5 M129.6 92.1 L131.3 93.7 M97.9 79.4 L82.8 74.4 M237.5 99.2 L238.5 99.1" fill="none" stroke="#1f3733" stroke-width="2.7" opacity="0.9" stroke-linecap="round" stroke-linejoin="round"/>
</g>
<g data-layer="minor-road-casing">
<path d="M332.2 223.5 L329.6 227.9 L334.6 227.6 L341.7 230.4 L340.9 232.2 L335.6 232.9 L335.8 242.8 L343.1 252.4 L347.6 263 M167 51.2 L184.1 41.7 L197.2 30 L201.2 20.5 L200.2 13 L202.1 9.8 M178.5 38.7 L199 23.1 L211.9 20.6 L220.9 12.9 M35.6 102.1 L40.8 87.2 L53.1 73.8 L60.1 69 M281 208.8 L297.5 210.9 L316.9 227.1 M316.9 38.5 L329.3 39.1 L358.4 34.5 M112.7 33.2 L102.4 50.8 L110.1 61.3 M305.9 280 L315.5 310.1 M383.2 227.9 L390 233.7 L396.8 230.3 L400 225 L399.5 220 L393.3 216.9 M330.2 265.6 L336.5 275.1 L341.7 276.7 L346.8 273.2 L344.1 264.2 M388.4 92.4 L389 88.7 L393.2 84.9 L392.8 73.7 L398.5 69.9 L397.9 66.5 M324.1 223.7 L323.1 218.9 L324.9 210.9 L332.6 208.4 L337.9 211.5 L343.5 212.1 M75.7 65.3 L72.9 63.1 L73.7 58.1 L86.1 47.2 L92.8 47.2 M326.2 240.8 L340.2 255.7 L340.7 264.5 M87.6 70.5 L90.1 66.2 L88.3 60.5 L97.1 45.6 M367 262.5 L378.8 279.3 L380.1 287.1 M54.4 96.4 L58 87.5 L69 72.3 M264.9 236.5 L284.7 258.3 M36.6 65.1 L10.8 82.3 M82.7 39.2 L85.3 25.1 L89.8 22.5 L98.9 21.7 M368.6 23.1 L377.3 19.9 L393.4 18.6 L394.8 12.6 M348.8 50.5 L341.8 61.4 L329.8 71.9 M175.2 25.8 L195.6 11.5 L201.8 10.4 M114.7 154 L99.7 150.4 L97.9 136.6 M381.6 255.7 L386.3 260.7 L388.6 269.7 L392.8 270.5 L392.2 264.4 M191.8 42 L214.7 23.6 M193.7 115 L200.1 108 L204.9 98.5 L203.4 92.7 M399.3 252.1 L393.4 244.2 L399.5 236.2 L396.8 230.3 M327.2 302.5 L331.3 304.6 L340.2 299.9 L350 300.1 L354.2 296.7 M318 113.5 L317.7 118.6 L314.6 121.2 L303.5 122.3 L303.1 129.5 M22.5 46.4 L18.3 33.1 L13.4 30.3 L10 24.9 M43.3 207.3 L47.1 206.8 L47.4 213.3 L53.7 205.9 L47.1 206.8 M380.6 29.2 L389.4 22.2 L391 12.9 L397.7 12 M30.7 68.6 L22.7 69.7 L23.8 63.6 L28.5 61.7 L27.3 58.5 L28.6 55.6 M218 27.9 L229.8 30.1 L245.8 21.4 M333.5 289.9 L324.5 275.1 L324.2 267.6 M388.8 186.1 L370.4 189.4 L364.7 193.5 L359.9 193.3 M219.2 35.8 L224.2 29.5 L228.6 16.8 L232.5 15.4 M329.1 221.4 L332.9 223.9 L345.5 226.7 L350.4 235.7 M284.7 258.3 L304 271.6 L309 272.7 M351.3 288.2 L360.5 310 M344.5 288.5 L351.4 299.4 L355.1 310 M364.1 289.8 L371.7 302.7 L369.7 306 L371.3 310.3 M258.3 290.9 L258.4 299 L245.1 309.6 M317.3 289.5 L314.6 291 L320.8 310.8 M380.5 191.9 L373.7 192.3 L361.9 198.1 L360 199.7 L359.9 204.1 M132.1 57.8 L120.9 66.7 L120 73.8 L122.8 74.9 M172.6 57.9 L174.9 51.9 L179.3 48 L191.5 42 M332.1 27.3 L342.4 26.9 L341 13.5 M72.9 73.6 L46 64 M35.1 162.1 L25.3 165.5 L17.9 172.3 L11.4 173.2 M341.9 9.8 L345.5 21.4 L351.3 20.8 L357.3 23.8 M388.4 92.4 L392.2 91.3 L394.5 86.6 L398.6 83.8 L410.2 79.7 M286.4 214 L299.1 215.2 L310.4 212.6 L310.4 215.5 M298 9.9 L303.9 18.9 L307.4 30.3 M327.5 13 L324 12.1 L320.5 14.8 L315.8 29.1 M392.1 67.1 L393.5 63.9 L401.9 60 L402.3 56.1 L407.3 50.9 M377.9 65.9 L385.5 71.7 L383.6 84.5 M335.6 106.4 L343.7 99.4 L328.7 96.6 M318.5 23.6 L308.1 14.5 L298 9.9 M367.5 268.4 L376.3 287.8 M39 157.4 L42.1 151.8 L42.2 137.3 M368.6 23.1 L395.9 22.8 M397.2 136 L410 154.1 M214.5 92.4 L214.4 99 L206.7 105.8 L204.3 108.6 L205.2 109.6 M388.5 147.2 L399.2 147.8 L407.8 142.7 L409.6 138.8 M26.3 91.1 L21.1 89.7 L10.6 94.8 L9.5 92.9 L12.8 89.3 M371.8 205.5 L398.5 201.7 M51.2 14.4 L47.7 34.3 M38 93.6 L41.8 92.7 L44.8 86.7 L49.4 83 L56.6 83.2 M107.3 128.5 L124.4 113.1 M87.1 39 L99.5 21.3 M356.2 273 L352 271.9 L350.1 273.3 L350.5 287.7 M9.5 68.2 L13.9 66.3 L17.2 71.7 L9.8 79.9 M173.9 31.1 L184.7 23.1 L194.9 26.2 M118 123.2 L125 129.3 L130.2 140.3 M130.4 140 L126 129.8 L118.4 122.8 M322.8 33.4 L329.1 52.6 M327.7 190.3 L353.5 187.8 M266.1 200.7 L288.3 200.7 L291.2 199.3 M167.2 48.7 L163.9 46.9 L155.2 32.5 M141 94.4 L161.9 83 M340.7 264.9 L341.2 273 L349.3 282.2 M37.1 142.7 L22 151.1 L15.4 152.4 M152.9 128 L138.1 143.5 M223.2 97.6 L228.9 87.1 L234.8 81.1 M30.7 29.8 L22.9 47.5 M169.1 83.6 L166.5 97.1 L163.7 101.7 M77.7 18.3 L84.5 16.4 L99.5 21.3 M292.2 167.8 L275 154.3 M29.6 27.5 L32.5 26.1 L31.6 21.9 L34.3 10.3 M272.2 267.9 L271.4 269.1 L278 276.7 L282 280.1 L282.4 277.4 M80.7 58.8 L86.7 51.1 L97.1 45.6 M300.8 310.2 L296 297.7 L292 293.1 M368.9 289 L366.4 277.7 L360.3 272.6 M387 190.2 L390.1 208.3 M410.5 70.6 L393.4 77.7 L389.7 76.2 M59.9 32.5 L53.9 37.3 L47.5 47.8 M279.8 74.8 L271.3 82.3 L269.1 90.2 M325.2 267.6 L334.2 280.7 L337.7 282.5 M122.8 74.9 L127.8 69.9 L132.8 58.9 M348.6 309 L360.5 310 L369.9 305.2 M323.5 224 L327.9 238.6 L326.2 240.8 M109.6 46.8 L107.2 51.4 L116.8 61.7 M173.8 31.5 L168.1 31.1 L154.3 37.4 M354.9 44 L360 42.8 L361.4 39.1 L368.2 40.4 L373.4 38.6 M41.5 81.3 L49.3 70.2 L50.6 65.5 M109.5 130.8 L99.4 132.5 L86.9 130.2 M213.7 43.9 L205.4 45 L203.1 48.6 L211.3 52.2 M54.5 121.4 L68.1 107.7 M352.8 162.4 L356.7 163.9 L359.2 167.4 L360.3 177.1 M108.3 159.3 L112.3 142.4 M343.1 252.4 L346 248.5 L342.8 245 L333.4 248.6 M350.8 255.4 L349.9 250.3 L352 249.4 L353.2 254.5 L352.6 256.6 L350.8 255.4 M54 192.6 L73.1 183.3 M266.6 97.4 L283.2 108.9 M75.5 35.6 L77 26.8 L75.5 23.1 L71.3 20.7 M38.5 45.4 L36.7 42 L33.4 43.3 L30.6 41.2 L30.9 39.4 L34.2 38.3 L34.4 35.8 M268.5 63.8 L269.9 72.9 L266.3 79.8 M357.1 23.7 L356.1 27.1 L358.3 28.2 L357.8 32.4 L348.8 32.9 M340.8 137.1 L343.1 134 L349.8 133.2 L345.2 139.3 M257.5 294.2 L250.3 303.1 L242.8 304.6 M200.5 12.5 L215 11.5 L221.9 13.3 M330.8 228.3 L331.4 242.2 L328.9 243.5 M153.7 44.4 L165.6 37.3 L171.4 36.5 M342.1 123.8 L350.3 120.1 L345.3 125.6 L343.5 125.1 M281.8 72.4 L276.8 67.7 L263.2 66.7 M302.9 279 L305 295 M166.5 83.2 L161.2 98.9 M51.8 28 L49.5 36.3 L45 42.7 M337.1 21.9 L339.9 37.8 M348.7 295.6 L345.3 298.7 L349.3 310.2 M323.7 289.3 L326.1 294.5 L337.3 300.8 M205.9 70.1 L210.8 54.5 M39.2 217.7 L46.1 216.7 L54.2 207.8 M203.8 114.8 L219 103.6 M102.9 127.2 L116.5 115.1 M297 89.4 L295.9 91.8 L297.6 92.7 L308.3 84.7 M228.1 21.2 L239.2 15.3 L241.9 10.2 M86.8 120 L84.7 121.6 L82.3 134.5 M286.1 266.9 L292.6 266.7 L300.1 275.6 M178 104.3 L182.8 89 M224.9 48.1 L229.5 52.5 L240.8 57.8 M219 24.2 L229.1 26.1 L236.3 20.7 M337.6 171.6 L342.5 169.4 L345.7 163.8 L352 162.3 M221.5 87.7 L223.7 81 L234.8 81.1 M237.9 60.5 L221 51.9 M326.9 31.8 L332.2 46.6 M73.7 122.7 L66.6 117.8 L56.5 114.9 M86.7 24.1 L78.7 19.4 L74.3 12.6 M389.5 160.7 L382.2 146.8 M32.3 189.9 L40.3 190 L50.9 194 M191 98.4 L183.6 103.5 L173.7 101.5 M322.8 82.1 L316.7 72.6 L311.5 70.9 M112.7 159.5 L117.8 144.8 M285.2 70.2 L281.6 66.4 L285.4 56.5 M359.8 177.6 L352.3 181.4 L341.4 182.5 M327.8 289.7 L323.6 283.3 L321.5 275.7 M176.5 36.5 L187.6 24 M71.3 20.7 L67.7 35.2 M349.5 36.5 L348.2 33.6 L352.8 28.4 L354.3 23.1 M303.7 164.1 L295.9 177.5 M210.5 131.4 L210.3 116.8 M151.5 112.4 L158.1 103.9 L163.1 100.7 M348.8 50.5 L367.1 45.5 M411.5 76.1 L393.8 82 M392.3 254.9 L384.9 246 L384.8 241.9 M31.3 69 L32.5 59.7 L28.6 55.6 M371.2 267.2 L381 269.4 L385.3 275.2 M16.9 91.8 L21.3 82.6 L19.9 78.4 M357.3 23.8 L355 19.2 L360.7 20 L361.2 18.2 L358.7 17.8 M9.7 128.7 L16.2 123.5 L18.3 124.6 L21.8 119.7 M356.9 262.3 L356.7 252.2 L358.5 248.8 M235.5 103.6 L237 118.1 M18.3 33.1 L36.6 35.1 M392.1 209.7 L384.2 208.4 L377 214.4 M65 69.6 L69.5 55.7 M395.9 22.8 L399.9 16.4 L397.7 12 L398.6 9.8 M146.6 108.1 L161.2 98.9 M330.7 29.7 L337.1 43 M39.4 89.4 L31.9 89.5 L34.8 85.8 L39.1 84.3 M329.2 95.3 L337.8 82.7 M119.7 162 L124.1 163.6 L137.9 163.2 M225.9 76.7 L226.1 62.7 M332.4 72.6 L350.1 68.3 M367.6 213.2 L374.4 219.9 L380.8 217.7 M52.7 121.2 L56.5 114.9 L50.6 109.6 M105.3 67.3 L106.7 70.9 L99.3 79.2 M280.7 107.2 L267.3 116.7 M290.2 200 L296.6 198.8 L306.9 203 M396 132.1 L377.9 134.7 M383.1 67.1 L387.5 62.7 L397 58.6 M379.1 83.5 L382.1 73.2 L385.1 71.1 M377.7 227.4 L385 235.4 L383.9 238.8 M294.6 10 L294.3 12.1 L301.1 22.3 M144.6 150.2 L145.8 141.5 L149.5 137.7 M61.1 191.9 L71.7 187.5 L73.1 183.3 M99.5 21.3 L107.5 25.3 L115.7 25.9 M389.7 241.9 L389.9 245.9 L393.6 251 L398 250.5 M254 115.5 L255.2 112 L263.5 104.5 M126.8 50.4 L117.1 61.7 M370.6 230.8 L383.9 238.8 M303.8 179.4 L320.4 174.5 M400.4 74.3 L403.7 69.1 L413 66.4 M13.8 46.7 L9.4 59.3 M161.9 83 L159 89 L159.1 95.4 M309.9 66 L325.3 72.2 M398.6 237.8 L401.2 244.4 L408.5 242.9 M329.2 95.1 L317.6 89.2 L320.3 87.6 M341.7 22.2 L346.1 24.7 L348.8 32.9 M293.1 14 L298.8 25.1 M349.5 45.6 L332.2 46.6 M43.7 25.5 L41.2 34.7 M340.1 276.6 L337.6 282.8 L338.9 289.3 M279.3 106.2 L265.9 114.5 M109.6 46.8 L117.3 35.1 M289.5 255.9 L300.9 265.7 M271.5 121.9 L280.9 111.1 M280.7 144.7 L281.3 131.7 M235.7 31.3 L219.7 35.9 M253.4 297.4 L238.6 303.6 M142 99.4 L154.5 108.3 M313.2 266.2 L324.8 267.7 L329 265.7 M200.8 88.2 L191.6 98.9 M58.4 95.7 L66.4 84.3 M295.7 164.3 L296.6 170.3 L293.8 176.6 M320.1 38.8 L322.7 51.3 M349.8 277.3 L354.7 277.1 L356.6 285.7 M408.3 217.1 L407.7 207.8 L410.2 205.3 M382.9 191.2 L385.1 203.8 M327.7 170.9 L331.8 176.7 L333.1 182.6 M304.1 18.7 L317.3 26.5 M304.4 121.6 L304.2 119.9 L307.7 118.6 L317.9 117.6 M78.8 38.3 L70.6 44.5 L69.3 48.1 M339.9 37.8 L341.6 43.5 L347.4 43.2 L347.6 45.5 M357.6 259.2 L362.1 255.4 L358.5 248.8 M98 32.6 L102.5 26.5 L100.6 25.6 L101.2 22.1 M112.8 138.4 L116.7 139.8 L118.6 131.1 M400.4 183.9 L402.4 190.8 L396.7 191.3 M73.2 182.9 L59.4 189.7 M154.3 91.1 L142 99.4 M47.1 47.8 L46.6 60 M296.3 278.8 L283.1 276.2 L282.4 277.4 M310.1 21.8 L317.6 10.9 M385.9 43.9 L387.1 41.4 L399 39.2 M22.9 47.5 L26.5 49 L38.5 47.8 M242.2 230.5 L244.7 218.8 M129.9 100.7 L120.2 110.6 M101.3 77.1 L87.6 70.5 M235 122.1 L233.1 110 M350.6 71.7 L339.4 74.7 L337.6 72 M173.1 57.9 L175.9 58.3 L183.1 52.8 M115.9 48.3 L131.2 51.9 M79.8 72.8 L79.8 60.7 M266.8 79.9 L251.6 76 M309.9 42.6 L316.5 46.7 L312.5 50.7 M182.1 115 L190.5 105.2 M361 172.8 L376.7 174.5 M106.7 138.8 L102.9 127.2 M105.2 139.2 L102.8 142.5 L102.8 147.8 L106.3 149 M224.9 99.6 L229.2 95 L231.3 88.9 M252.7 70.4 L252.5 74.9 L247.5 80.6 M375.5 82.7 L377.6 71.2 M309.3 110.7 L323.2 105.8 M54.2 207.8 L56.9 211.9 L64.3 207.4 M236.8 20.4 L242.4 17.2 L245.5 11.3 M166.9 126.6 L178.8 133.5 M39.4 208.6 L43.3 207.3 L45.2 199.2 M183.3 88 L197.4 83.5 M57.7 51.6 L58.9 53.4 L63.2 53.1 L63.6 46.8 M407.8 158.7 L405.3 154.3 L396.9 155.8 M96 66.3 L99.1 66.1 L100.1 63.1 L100.4 59.8 L97.2 58.4 M324.2 157.8 L315 162.2 L313.4 165.1 M86.4 118.9 L88.2 123.1 L96.2 126.6 M295.3 174.1 L301.2 172.9 L306.1 167.2 M397.9 66.5 L383.1 67.1 M95 19 L98.6 8 M311 41.6 L307.5 30.5 M293.3 199.9 L299.1 200.6 L302.1 203.4 L305.3 201.8 M283.6 93.8 L293.9 86.3 M303.9 18.9 L311.9 9.3 M396.9 155.8 L397.6 151.1 L405 147.8 M117.6 33 L119.9 38.1 L116.7 43.1 M269.2 108.5 L262 118.5 M314.7 76.2 L309.9 66 M306 82.8 L297 89.4 L294.6 89.2 M276.9 46.9 L289.5 52.3 M89.2 123.8 L85.4 134.5 M157.8 116.2 L169.8 109.8 M334.6 218.8 L329.3 212.8 L324.5 212.3 M83 59.8 L71.6 53.2 M198.3 83.6 L204.5 73.7 M60.8 67.5 L61.6 63.5 L56.8 57.6 M387 190.2 L380.9 191.6 L375.5 196.3 M14.7 15.2 L14.8 23.8 L17.1 25.2 M378.9 34.1 L380.9 38.8 L379.2 39.3 L378 37 L379.5 35.6 M111.4 132.8 L121.8 125.2 M348.6 212.7 L354.7 219.7 L357.8 220.7 M381 293.7 L385.7 293.6 L391 299.6 M403.8 9.5 L400.9 20.1" fill="none" stroke="#fbf7eb" stroke-width="3.4" opacity="0.62" stroke-linecap="round" stroke-linejoin="round"/>
</g>
<g data-layer="minor-road">
<path d="M332.2 223.5 L329.6 227.9 L334.6 227.6 L341.7 230.4 L340.9 232.2 L335.6 232.9 L335.8 242.8 L343.1 252.4 L347.6 263 M167 51.2 L184.1 41.7 L197.2 30 L201.2 20.5 L200.2 13 L202.1 9.8 M178.5 38.7 L199 23.1 L211.9 20.6 L220.9 12.9 M35.6 102.1 L40.8 87.2 L53.1 73.8 L60.1 69 M281 208.8 L297.5 210.9 L316.9 227.1 M316.9 38.5 L329.3 39.1 L358.4 34.5 M112.7 33.2 L102.4 50.8 L110.1 61.3 M305.9 280 L315.5 310.1 M383.2 227.9 L390 233.7 L396.8 230.3 L400 225 L399.5 220 L393.3 216.9 M330.2 265.6 L336.5 275.1 L341.7 276.7 L346.8 273.2 L344.1 264.2 M388.4 92.4 L389 88.7 L393.2 84.9 L392.8 73.7 L398.5 69.9 L397.9 66.5 M324.1 223.7 L323.1 218.9 L324.9 210.9 L332.6 208.4 L337.9 211.5 L343.5 212.1 M75.7 65.3 L72.9 63.1 L73.7 58.1 L86.1 47.2 L92.8 47.2 M326.2 240.8 L340.2 255.7 L340.7 264.5 M87.6 70.5 L90.1 66.2 L88.3 60.5 L97.1 45.6 M367 262.5 L378.8 279.3 L380.1 287.1 M54.4 96.4 L58 87.5 L69 72.3 M264.9 236.5 L284.7 258.3 M36.6 65.1 L10.8 82.3 M82.7 39.2 L85.3 25.1 L89.8 22.5 L98.9 21.7 M368.6 23.1 L377.3 19.9 L393.4 18.6 L394.8 12.6 M348.8 50.5 L341.8 61.4 L329.8 71.9 M175.2 25.8 L195.6 11.5 L201.8 10.4 M114.7 154 L99.7 150.4 L97.9 136.6 M381.6 255.7 L386.3 260.7 L388.6 269.7 L392.8 270.5 L392.2 264.4 M191.8 42 L214.7 23.6 M193.7 115 L200.1 108 L204.9 98.5 L203.4 92.7 M399.3 252.1 L393.4 244.2 L399.5 236.2 L396.8 230.3 M327.2 302.5 L331.3 304.6 L340.2 299.9 L350 300.1 L354.2 296.7 M318 113.5 L317.7 118.6 L314.6 121.2 L303.5 122.3 L303.1 129.5 M22.5 46.4 L18.3 33.1 L13.4 30.3 L10 24.9 M43.3 207.3 L47.1 206.8 L47.4 213.3 L53.7 205.9 L47.1 206.8 M380.6 29.2 L389.4 22.2 L391 12.9 L397.7 12 M30.7 68.6 L22.7 69.7 L23.8 63.6 L28.5 61.7 L27.3 58.5 L28.6 55.6 M218 27.9 L229.8 30.1 L245.8 21.4 M333.5 289.9 L324.5 275.1 L324.2 267.6 M388.8 186.1 L370.4 189.4 L364.7 193.5 L359.9 193.3 M219.2 35.8 L224.2 29.5 L228.6 16.8 L232.5 15.4 M329.1 221.4 L332.9 223.9 L345.5 226.7 L350.4 235.7 M284.7 258.3 L304 271.6 L309 272.7 M351.3 288.2 L360.5 310 M344.5 288.5 L351.4 299.4 L355.1 310 M364.1 289.8 L371.7 302.7 L369.7 306 L371.3 310.3 M258.3 290.9 L258.4 299 L245.1 309.6 M317.3 289.5 L314.6 291 L320.8 310.8 M380.5 191.9 L373.7 192.3 L361.9 198.1 L360 199.7 L359.9 204.1 M132.1 57.8 L120.9 66.7 L120 73.8 L122.8 74.9 M172.6 57.9 L174.9 51.9 L179.3 48 L191.5 42 M332.1 27.3 L342.4 26.9 L341 13.5 M72.9 73.6 L46 64 M35.1 162.1 L25.3 165.5 L17.9 172.3 L11.4 173.2 M341.9 9.8 L345.5 21.4 L351.3 20.8 L357.3 23.8 M388.4 92.4 L392.2 91.3 L394.5 86.6 L398.6 83.8 L410.2 79.7 M286.4 214 L299.1 215.2 L310.4 212.6 L310.4 215.5 M298 9.9 L303.9 18.9 L307.4 30.3 M327.5 13 L324 12.1 L320.5 14.8 L315.8 29.1 M392.1 67.1 L393.5 63.9 L401.9 60 L402.3 56.1 L407.3 50.9 M377.9 65.9 L385.5 71.7 L383.6 84.5 M335.6 106.4 L343.7 99.4 L328.7 96.6 M318.5 23.6 L308.1 14.5 L298 9.9 M367.5 268.4 L376.3 287.8 M39 157.4 L42.1 151.8 L42.2 137.3 M368.6 23.1 L395.9 22.8 M397.2 136 L410 154.1 M214.5 92.4 L214.4 99 L206.7 105.8 L204.3 108.6 L205.2 109.6 M388.5 147.2 L399.2 147.8 L407.8 142.7 L409.6 138.8 M26.3 91.1 L21.1 89.7 L10.6 94.8 L9.5 92.9 L12.8 89.3 M371.8 205.5 L398.5 201.7 M51.2 14.4 L47.7 34.3 M38 93.6 L41.8 92.7 L44.8 86.7 L49.4 83 L56.6 83.2 M107.3 128.5 L124.4 113.1 M87.1 39 L99.5 21.3 M356.2 273 L352 271.9 L350.1 273.3 L350.5 287.7 M9.5 68.2 L13.9 66.3 L17.2 71.7 L9.8 79.9 M173.9 31.1 L184.7 23.1 L194.9 26.2 M118 123.2 L125 129.3 L130.2 140.3 M130.4 140 L126 129.8 L118.4 122.8 M322.8 33.4 L329.1 52.6 M327.7 190.3 L353.5 187.8 M266.1 200.7 L288.3 200.7 L291.2 199.3 M167.2 48.7 L163.9 46.9 L155.2 32.5 M141 94.4 L161.9 83 M340.7 264.9 L341.2 273 L349.3 282.2 M37.1 142.7 L22 151.1 L15.4 152.4 M152.9 128 L138.1 143.5 M223.2 97.6 L228.9 87.1 L234.8 81.1 M30.7 29.8 L22.9 47.5 M169.1 83.6 L166.5 97.1 L163.7 101.7 M77.7 18.3 L84.5 16.4 L99.5 21.3 M292.2 167.8 L275 154.3 M29.6 27.5 L32.5 26.1 L31.6 21.9 L34.3 10.3 M272.2 267.9 L271.4 269.1 L278 276.7 L282 280.1 L282.4 277.4 M80.7 58.8 L86.7 51.1 L97.1 45.6 M300.8 310.2 L296 297.7 L292 293.1 M368.9 289 L366.4 277.7 L360.3 272.6 M387 190.2 L390.1 208.3 M410.5 70.6 L393.4 77.7 L389.7 76.2 M59.9 32.5 L53.9 37.3 L47.5 47.8 M279.8 74.8 L271.3 82.3 L269.1 90.2 M325.2 267.6 L334.2 280.7 L337.7 282.5 M122.8 74.9 L127.8 69.9 L132.8 58.9 M348.6 309 L360.5 310 L369.9 305.2 M323.5 224 L327.9 238.6 L326.2 240.8 M109.6 46.8 L107.2 51.4 L116.8 61.7 M173.8 31.5 L168.1 31.1 L154.3 37.4 M354.9 44 L360 42.8 L361.4 39.1 L368.2 40.4 L373.4 38.6 M41.5 81.3 L49.3 70.2 L50.6 65.5 M109.5 130.8 L99.4 132.5 L86.9 130.2 M213.7 43.9 L205.4 45 L203.1 48.6 L211.3 52.2 M54.5 121.4 L68.1 107.7 M352.8 162.4 L356.7 163.9 L359.2 167.4 L360.3 177.1 M108.3 159.3 L112.3 142.4 M343.1 252.4 L346 248.5 L342.8 245 L333.4 248.6 M350.8 255.4 L349.9 250.3 L352 249.4 L353.2 254.5 L352.6 256.6 L350.8 255.4 M54 192.6 L73.1 183.3 M266.6 97.4 L283.2 108.9 M75.5 35.6 L77 26.8 L75.5 23.1 L71.3 20.7 M38.5 45.4 L36.7 42 L33.4 43.3 L30.6 41.2 L30.9 39.4 L34.2 38.3 L34.4 35.8 M268.5 63.8 L269.9 72.9 L266.3 79.8 M357.1 23.7 L356.1 27.1 L358.3 28.2 L357.8 32.4 L348.8 32.9 M340.8 137.1 L343.1 134 L349.8 133.2 L345.2 139.3 M257.5 294.2 L250.3 303.1 L242.8 304.6 M200.5 12.5 L215 11.5 L221.9 13.3 M330.8 228.3 L331.4 242.2 L328.9 243.5 M153.7 44.4 L165.6 37.3 L171.4 36.5 M342.1 123.8 L350.3 120.1 L345.3 125.6 L343.5 125.1 M281.8 72.4 L276.8 67.7 L263.2 66.7 M302.9 279 L305 295 M166.5 83.2 L161.2 98.9 M51.8 28 L49.5 36.3 L45 42.7 M337.1 21.9 L339.9 37.8 M348.7 295.6 L345.3 298.7 L349.3 310.2 M323.7 289.3 L326.1 294.5 L337.3 300.8 M205.9 70.1 L210.8 54.5 M39.2 217.7 L46.1 216.7 L54.2 207.8 M203.8 114.8 L219 103.6 M102.9 127.2 L116.5 115.1 M297 89.4 L295.9 91.8 L297.6 92.7 L308.3 84.7 M228.1 21.2 L239.2 15.3 L241.9 10.2 M86.8 120 L84.7 121.6 L82.3 134.5 M286.1 266.9 L292.6 266.7 L300.1 275.6 M178 104.3 L182.8 89 M224.9 48.1 L229.5 52.5 L240.8 57.8 M219 24.2 L229.1 26.1 L236.3 20.7 M337.6 171.6 L342.5 169.4 L345.7 163.8 L352 162.3 M221.5 87.7 L223.7 81 L234.8 81.1 M237.9 60.5 L221 51.9 M326.9 31.8 L332.2 46.6 M73.7 122.7 L66.6 117.8 L56.5 114.9 M86.7 24.1 L78.7 19.4 L74.3 12.6 M389.5 160.7 L382.2 146.8 M32.3 189.9 L40.3 190 L50.9 194 M191 98.4 L183.6 103.5 L173.7 101.5 M322.8 82.1 L316.7 72.6 L311.5 70.9 M112.7 159.5 L117.8 144.8 M285.2 70.2 L281.6 66.4 L285.4 56.5 M359.8 177.6 L352.3 181.4 L341.4 182.5 M327.8 289.7 L323.6 283.3 L321.5 275.7 M176.5 36.5 L187.6 24 M71.3 20.7 L67.7 35.2 M349.5 36.5 L348.2 33.6 L352.8 28.4 L354.3 23.1 M303.7 164.1 L295.9 177.5 M210.5 131.4 L210.3 116.8 M151.5 112.4 L158.1 103.9 L163.1 100.7 M348.8 50.5 L367.1 45.5 M411.5 76.1 L393.8 82 M392.3 254.9 L384.9 246 L384.8 241.9 M31.3 69 L32.5 59.7 L28.6 55.6 M371.2 267.2 L381 269.4 L385.3 275.2 M16.9 91.8 L21.3 82.6 L19.9 78.4 M357.3 23.8 L355 19.2 L360.7 20 L361.2 18.2 L358.7 17.8 M9.7 128.7 L16.2 123.5 L18.3 124.6 L21.8 119.7 M356.9 262.3 L356.7 252.2 L358.5 248.8 M235.5 103.6 L237 118.1 M18.3 33.1 L36.6 35.1 M392.1 209.7 L384.2 208.4 L377 214.4 M65 69.6 L69.5 55.7 M395.9 22.8 L399.9 16.4 L397.7 12 L398.6 9.8 M146.6 108.1 L161.2 98.9 M330.7 29.7 L337.1 43 M39.4 89.4 L31.9 89.5 L34.8 85.8 L39.1 84.3 M329.2 95.3 L337.8 82.7 M119.7 162 L124.1 163.6 L137.9 163.2 M225.9 76.7 L226.1 62.7 M332.4 72.6 L350.1 68.3 M367.6 213.2 L374.4 219.9 L380.8 217.7 M52.7 121.2 L56.5 114.9 L50.6 109.6 M105.3 67.3 L106.7 70.9 L99.3 79.2 M280.7 107.2 L267.3 116.7 M290.2 200 L296.6 198.8 L306.9 203 M396 132.1 L377.9 134.7 M383.1 67.1 L387.5 62.7 L397 58.6 M379.1 83.5 L382.1 73.2 L385.1 71.1 M377.7 227.4 L385 235.4 L383.9 238.8 M294.6 10 L294.3 12.1 L301.1 22.3 M144.6 150.2 L145.8 141.5 L149.5 137.7 M61.1 191.9 L71.7 187.5 L73.1 183.3 M99.5 21.3 L107.5 25.3 L115.7 25.9 M389.7 241.9 L389.9 245.9 L393.6 251 L398 250.5 M254 115.5 L255.2 112 L263.5 104.5 M126.8 50.4 L117.1 61.7 M370.6 230.8 L383.9 238.8 M303.8 179.4 L320.4 174.5 M400.4 74.3 L403.7 69.1 L413 66.4 M13.8 46.7 L9.4 59.3 M161.9 83 L159 89 L159.1 95.4 M309.9 66 L325.3 72.2 M398.6 237.8 L401.2 244.4 L408.5 242.9 M329.2 95.1 L317.6 89.2 L320.3 87.6 M341.7 22.2 L346.1 24.7 L348.8 32.9 M293.1 14 L298.8 25.1 M349.5 45.6 L332.2 46.6 M43.7 25.5 L41.2 34.7 M340.1 276.6 L337.6 282.8 L338.9 289.3 M279.3 106.2 L265.9 114.5 M109.6 46.8 L117.3 35.1 M289.5 255.9 L300.9 265.7 M271.5 121.9 L280.9 111.1 M280.7 144.7 L281.3 131.7 M235.7 31.3 L219.7 35.9 M253.4 297.4 L238.6 303.6 M142 99.4 L154.5 108.3 M313.2 266.2 L324.8 267.7 L329 265.7 M200.8 88.2 L191.6 98.9 M58.4 95.7 L66.4 84.3 M295.7 164.3 L296.6 170.3 L293.8 176.6 M320.1 38.8 L322.7 51.3 M349.8 277.3 L354.7 277.1 L356.6 285.7 M408.3 217.1 L407.7 207.8 L410.2 205.3 M382.9 191.2 L385.1 203.8 M327.7 170.9 L331.8 176.7 L333.1 182.6 M304.1 18.7 L317.3 26.5 M304.4 121.6 L304.2 119.9 L307.7 118.6 L317.9 117.6 M78.8 38.3 L70.6 44.5 L69.3 48.1 M339.9 37.8 L341.6 43.5 L347.4 43.2 L347.6 45.5 M357.6 259.2 L362.1 255.4 L358.5 248.8 M98 32.6 L102.5 26.5 L100.6 25.6 L101.2 22.1 M112.8 138.4 L116.7 139.8 L118.6 131.1 M400.4 183.9 L402.4 190.8 L396.7 191.3 M73.2 182.9 L59.4 189.7 M154.3 91.1 L142 99.4 M47.1 47.8 L46.6 60 M296.3 278.8 L283.1 276.2 L282.4 277.4 M310.1 21.8 L317.6 10.9 M385.9 43.9 L387.1 41.4 L399 39.2 M22.9 47.5 L26.5 49 L38.5 47.8 M242.2 230.5 L244.7 218.8 M129.9 100.7 L120.2 110.6 M101.3 77.1 L87.6 70.5 M235 122.1 L233.1 110 M350.6 71.7 L339.4 74.7 L337.6 72 M173.1 57.9 L175.9 58.3 L183.1 52.8 M115.9 48.3 L131.2 51.9 M79.8 72.8 L79.8 60.7 M266.8 79.9 L251.6 76 M309.9 42.6 L316.5 46.7 L312.5 50.7 M182.1 115 L190.5 105.2 M361 172.8 L376.7 174.5 M106.7 138.8 L102.9 127.2 M105.2 139.2 L102.8 142.5 L102.8 147.8 L106.3 149 M224.9 99.6 L229.2 95 L231.3 88.9 M252.7 70.4 L252.5 74.9 L247.5 80.6 M375.5 82.7 L377.6 71.2 M309.3 110.7 L323.2 105.8 M54.2 207.8 L56.9 211.9 L64.3 207.4 M236.8 20.4 L242.4 17.2 L245.5 11.3 M166.9 126.6 L178.8 133.5 M39.4 208.6 L43.3 207.3 L45.2 199.2 M183.3 88 L197.4 83.5 M57.7 51.6 L58.9 53.4 L63.2 53.1 L63.6 46.8 M407.8 158.7 L405.3 154.3 L396.9 155.8 M96 66.3 L99.1 66.1 L100.1 63.1 L100.4 59.8 L97.2 58.4 M324.2 157.8 L315 162.2 L313.4 165.1 M86.4 118.9 L88.2 123.1 L96.2 126.6 M295.3 174.1 L301.2 172.9 L306.1 167.2 M397.9 66.5 L383.1 67.1 M95 19 L98.6 8 M311 41.6 L307.5 30.5 M293.3 199.9 L299.1 200.6 L302.1 203.4 L305.3 201.8 M283.6 93.8 L293.9 86.3 M303.9 18.9 L311.9 9.3 M396.9 155.8 L397.6 151.1 L405 147.8 M117.6 33 L119.9 38.1 L116.7 43.1 M269.2 108.5 L262 118.5 M314.7 76.2 L309.9 66 M306 82.8 L297 89.4 L294.6 89.2 M276.9 46.9 L289.5 52.3 M89.2 123.8 L85.4 134.5 M157.8 116.2 L169.8 109.8 M334.6 218.8 L329.3 212.8 L324.5 212.3 M83 59.8 L71.6 53.2 M198.3 83.6 L204.5 73.7 M60.8 67.5 L61.6 63.5 L56.8 57.6 M387 190.2 L380.9 191.6 L375.5 196.3 M14.7 15.2 L14.8 23.8 L17.1 25.2 M378.9 34.1 L380.9 38.8 L379.2 39.3 L378 37 L379.5 35.6 M111.4 132.8 L121.8 125.2 M348.6 212.7 L354.7 219.7 L357.8 220.7 M381 293.7 L385.7 293.6 L391 299.6 M403.8 9.5 L400.9 20.1" fill="none" stroke="#69776e" stroke-width="1.25" opacity="0.58" stroke-linecap="round" stroke-linejoin="round"/>
</g>
</g>
<g data-layer="north-up-compass" fill="none" stroke="#233934" stroke-linecap="round" stroke-linejoin="round" opacity="0.62">
<path d="M382 48L382 23" stroke-width="1.8"/>
<path d="M382 23L373 39M382 23L391 39" stroke-width="1.8"/>
<circle cx="382" cy="48" r="13" stroke-width="1.1" opacity="0.38"/>
</g>
<rect x="8" y="8" width="404" height="304" rx="16" fill="none" stroke="#233934" stroke-width="1.4" opacity="0.44"/>
</svg>
