<svg xmlns="http://www.w3.org/2000/svg" viewBox="0 0 420 320" role="img" aria-label="Unlabeled north-up street-grid crop" data-orientation="north-up">
<metadata>{"orientation":"north-up","projection":"local-web-mercator"}</metadata>
<defs>
<clipPath id="mapCrop"><rect x="8" y="8" width="404" height="304" rx="16"/></clipPath>
</defs>
<rect width="420" height="320" fill="#ede7d8"/>
<rect x="8" y="8" width="404" height="304" rx="16" fill="#f7f1e3" stroke="#d8cbb2" stroke-width="1.25"/>
<g clip-path="url(#mapCrop)">
<g data-layer="major-road-casing">
<path d="M190.9 130.5 L194.2 135.1 L199.3 150.3 L227 192.9 L243.5 211.8 L262.5 246.4 M202.2 154.1 L213.8 171.6 M212.5 172.1 L201.2 154.6 M217.8 147.9 L202.3 153.9 M202 153.2 L217.5 147.4 M196.9 146.3 L194.1 135.6 L190.6 130.8 M191.5 130.2 L201.6 153 M200.1 153.4 L189.5 128.9 M214.5 173.2 L229.6 196 M228.5 196.4 L213.4 173.5 M262.2 246.5 L245.7 217.8 L232.8 203 L196.9 146.3 M240 134.7 L234.2 138.6 L235.1 148 M202.3 153.9 L200.1 153.4 M218 147.2 L224.2 146.7 M233.3 144.7 L234.3 137.7 L239.6 134.6 M223.2 147.2 L218.2 147.8 M224.2 146.7 L230.5 143.3 M241.9 162.1 L214.8 172.5 M212.3 172.7 L214.4 171.9 M200.1 153.4 L201.6 153 M202 153.2 L202.3 153.9 M231.7 144.5 L226.3 146.1 M185.9 182.7 L212.3 172.7 M184.1 126.1 L171.6 118.7 M212.8 173.4 L185.9 183.3 M220.4 169.8 L242 161.8 M186.2 127 L190.9 130.5 M190.6 130.8 L186.2 127.4 M127.3 81.7 L167.2 115.1 L184.2 125.8 M232.1 138.4 L232.5 136.7 L206.6 120 M245.6 160.2 L232.2 152.2 M186.2 127.4 L184.1 126.1 M184.2 125.8 L186.2 127 M171.6 118.7 L162.1 111.4 M244.3 122.9 L236.8 113.7 L230 109.5 L229.5 105.1 M145.6 172.3 L185.6 181.8 M218.1 127.4 L234.1 137.2 M214.4 171.9 L220.4 169.8 M227.2 148.9 L235.3 153.6 M232.2 152.2 L225.2 148.2 M236.3 154.3 L245.9 160 M196.6 156.3 L196 171.6 L194.3 175 M162.1 111.4 L146.3 98.1 M266.1 183.7 L232.4 196.5 M186.2 199.5 L192 193 L197.6 190.6 L196.7 187.4 M242.8 152.2 L258 152.9 M202.6 109.3 L196.9 119.5 M250.6 103.3 L232.7 102.8 L220.6 104.7 M196.4 119.4 L202.3 109.2 M217.4 156.9 L224.9 168.6 M228.2 163.9 L220.2 151 M204.3 118.5 L218.1 127.4 M190.2 123.1 L196.4 119.4 M223.3 155 L230.6 166.5 M280.5 139.7 L251.5 130.9 M169.5 141.8 L180 143 L194.9 153.7 M194.4 121 L189.2 124.2 M251.8 130.5 L280.6 139.2 M253.8 165.3 L246.2 160.5 M246.7 157 L241.5 153.5 M196.7 187.4 L188.6 185.3 M148.8 169 L172.4 167.4 L194.3 175 M230.4 105.1 L230.7 109.4 L237.6 113.7 L244.8 121.9 M247.8 190.3 L263.8 184.2 M155.8 193.1 L172.8 186.3 M195.9 204.6 L200.8 201.4 L209.9 199.4 M244.8 121.9 L251.4 124.5 M258.5 164.7 L251.7 159.9 M218.6 147.6 L223.3 155 M185 183.4 L177.1 184.8 M251.9 159.8 L258.7 164.3 M176.5 184.2 L184.2 183.1 M245.4 155.8 L249.6 158.3 M214.5 199.1 L226.6 197.5 M244 129.1 L244.4 126.2 M248.4 161.6 L253.6 164.8 M196.9 119.5 L194.4 121 M291.9 105 L267.2 116.6 M214.9 153 L217.4 156.9 M222 99.1 L237 102.6 M188.6 185.3 L185 183.4 M266 182.4 L259.8 173.3 M262.8 171.3 L258.5 164.7 M258.9 164.5 L263.2 171.1 M285 98 L253.3 103.1 M202.3 109.2 L208.7 105.2 M227.6 178.3 L241 173.2 M147 172.8 L149.8 167.4 L158 160.9 L160.3 156.8 L160.1 146.9 L154.8 140.5 L154.6 137.5 L162.6 134.8 L166.7 139.8 M241.2 173.5 L227.7 178.7 M250.6 103 L295.3 95.6 M244.4 126.2 L244.6 124.5 M146.3 98.1 L120 77.1 M241.6 161.9 L233.9 156.2 M217 104.8 L209.1 105.6 M237 102.6 L250.6 103 M234.6 156 L242 161.8 M210.3 104.6 L215.6 98.2 M209.1 105.6 L204.1 108.4 M232.4 151.9 L234.3 150 L232.5 144.9 M213.1 150.6 L214.9 153 M200.9 154.6 L197 155.5 M247.6 146.3 L257.9 146.7 L281 155.2 L287.7 155.4 M197 155.5 L200.1 153.7 M220.2 151 L218.2 147.8 M244.6 124.5 L244.5 123.5 M233.1 188 L227.2 179.2 M227.5 179 L233.4 187.8 M142.9 183.2 L172.4 184.3 M235.4 144.9 L235.3 147.8 L239.3 150.7 M190.8 180.7 L194.3 175 M194.9 153.7 L197.6 154.9 M197 155.5 L194.9 153.7 M194.3 175 L199.3 177.7 M244.5 123.5 L244.3 122.9 M202 155.4 L195.6 145.6 M248.4 167.3 L241.9 162.1 M242.3 162 L250.5 166.5 M229.9 166.4 L228.2 163.9 M226.6 178.3 L224.1 174.3 M224.5 174.2 L227 178.2 M237.6 144.2 L247.6 146.3 M204.7 201 L208 205.2 L214.6 206.7 L220.9 213 L226.7 214.8 L231.1 222.1 M230.8 222.3 L226.3 215 L220.3 213.1 L213.4 206.7 L207.9 205.6 L203.8 201.2 M247.9 183 L235.2 187.7 M243.6 130.6 L236.4 138.6 M213.3 191.1 L222.1 187.4 L213 173.5 M197.9 155.5 L196.6 156.3 M220.6 104.7 L217 104.8 M204.1 108.4 L202.6 109.3 M232.1 138.4 L241.2 133.5 M220 181.4 L225.4 179.3 M262.8 177.2 L247.9 183 M213.1 150.6 L212.1 150.2 M196.6 156.3 L197 155.5 M213.1 149.7 L213.1 150.6 M217.6 97.7 L222 99.1 M208.7 105.2 L210.3 104.6 M192.3 130.4 L196.2 141.7 M195.6 145.6 L193.8 137.8 M263.2 247.5 L277.4 270 M277 270.1 L263 247.7 M253.3 103.1 L250.6 103.3 M213.1 191.7 L222.8 187.7 M112.8 74 L127.3 81.7 M299 95.6 L285 98 M228.3 195.7 L219.7 189.8 M219.7 189.8 L213.1 191.7 M188.5 128 L181.1 123.8 L178.3 125.2 L179.8 128.1 M120 77.1 L101.3 72.6 M193.8 137.8 L193.1 134.3 M189.3 125.7 L192.3 130.4 M317.8 85.7 L309.2 90.5 L304.1 95.8 M303.2 93.3 L319 83.4 M189.2 124.2 L183.1 128.2 L179.6 128.3 M179.6 128.3 L177.4 122.8 L172.1 119.4 M179.8 128.1 L189 123.9 M213.7 192.5 L209.1 193.9 M243.2 215.4 L234.2 204.8 M263 247.7 L262.2 246.5 M295.3 95.6 L303.2 93.3 M262.5 246.4 L263.2 247.5 M209.1 193.5 L213.3 191.1 M188.7 125.6 L191.5 130.2 M305.7 92.9 L299 95.6 M293.1 104.3 L291.9 105 M219.7 98.3 L229.9 102.7 L217.8 104.8 M303.9 97.1 L303.2 94.9 L305.5 92.3 M193.3 122 L188.9 124.9 M186.4 123.7 L191.4 122 M293.8 104 L293.1 104.3 M253.3 103.1 L233 103.1 M219.9 98.4 L237.4 102.4 M254 102.3 L286.4 97.3 M232.4 196.5 L231.5 198.6 M237.4 102.4 L254 102.3 M319 83.4 L331.1 76.6 M227.6 104.2 L217 104.8 M133.6 58.7 L132.9 65.1 M196.1 120.4 L194.4 121 M245.9 123 L247.8 123.9 M247.8 123.9 L249.9 124.4 M244.8 121.9 L245.9 123 M229.5 182.6 L229.9 182.5 M223.7 168.3 L223.8 167 M196.7 155.9 L196.4 155.1 M225.5 173.8 L224.8 174.9 M228 163.6 L228.7 163.2 M224.5 174.9 L223.6 174.5 M232 185.8 L231.7 185.9 M168.8 210 L168.8 210.8 M232.9 187.7 L233.2 187.6 M205.8 200.8 L205.1 201.5 M255.3 155.8 L255.6 155.9 M256.6 154.7 L256.4 154.6 M208.9 272.5 L208.6 275.2 M410.3 279.9 L409.1 281 M214.8 172.5 L213.4 173.5 M226.3 146.1 L223.2 147.2 M201.6 153 L202 153.2 M189.5 128.9 L183.1 123.9 L172.1 119.4 M235.1 148 L239.3 150.7 M238.5 150.7 L234.7 148.1 M212.8 173.4 L212.3 172.7 M234.7 148.1 L233.3 144.7 M214.4 171.9 L214.8 172.5 M230.5 143.3 L230.3 139.7 M213.4 173.5 L212.8 173.4 M218.2 147.8 L217.8 147.9 M217.5 147.4 L218 147.2 M153.4 102.7 L172.8 118.6 L186.1 125.3 M231.7 138.6 L236.5 139.1 M236.5 139.1 L237.9 142.4 M231.7 144.5 L230.5 143.3 M235.4 144.9 L233.2 145.1 M233.2 145.1 L231.7 144.5 M186.4 125.4 L191.5 130.2 M242.8 152.2 L241.8 153.4 M236.5 144.1 L235.4 144.9 M239.4 151.9 L239.1 151 M239.5 150.8 L240.7 151.1 M243.6 130.6 L240 134.7 M236.5 206.2 L229.2 197.6 M239.8 152.5 L239.4 151.9 M240.5 153.1 L239.9 152.6 M237.4 143.2 L236.5 144.1 M239.1 151 L238.5 150.7 M252.2 124.6 L244.1 129.8 M230.3 139.7 L231 139 M242.1 151.7 L242.8 152.2 M240.9 151.1 L241.6 151.4 M241.5 153.5 L240.9 153.3 M240.9 153.3 L240.5 153.1 M237.9 142.4 L237.4 143.2 M244 129.1 L251.4 124.5 M231 139 L231.7 138.6 M231.5 198.6 L237 206.1 M241.6 151.4 L242.1 151.7 M241.2 133.5 L243.3 130.2 M239.3 150.7 L239.5 150.8 M251.4 124.5 L290.7 104.7 M241.8 153.4 L241.5 153.5 M239.9 152.6 L239.8 152.5 M238.1 207.4 L249.6 223.8 M240.7 151.1 L240.9 151.1 M293.4 103.9 L253.7 123.7 M248 224.2 L246.8 219.5 L237.6 207.6 M239.6 134.6 L241.2 133.5 M172.1 119.4 L161.4 111.5 M228.5 196.4 L230.3 196.3 M230.3 197.2 L231.5 198.6 M243.3 130.2 L244 129.1 M229 197.6 L228.4 196.6 M244.1 129.8 L243.6 130.6 M230.4 197.2 L229.2 197.6 M167 114.1 L171 118.8 M230.3 196.3 L230.4 197.2 M186.1 125.3 L186.4 125.4 M228.4 196.6 L228.5 196.4 M229.2 197.6 L229 197.6 M253.7 123.7 L252.2 124.6 M160.6 110.9 L151.9 103.4 M134.7 87.5 L153.4 102.7 M279.2 136.3 L268.8 118.5 M151.9 103.4 L133.9 88.1 M237.6 207.6 L236.5 206.2 M258.2 153 L265.6 156.6 M237 206.1 L238.1 207.4 M250.4 225.3 L261.4 243.6 M260.2 244 L248.6 225.9 M230.3 196.3 L238.3 193.9 M191.4 122 L198.3 116 M199.4 116.4 L193.3 122 M196.3 113.8 L204.3 118.5 M206.6 120 L199.4 116.4 M259.8 172.8 L263.6 178.5 M251.5 130.9 L244.1 129.8 M203.8 201.2 L196.3 205.2 M239.4 193.5 L245.7 191.1 M266 156.8 L274.3 161.1 M263.4 171.4 L267.4 177.4 M187.1 104.5 L196.3 113.8 M258.1 170.9 L255.9 167.9 M245.4 128.7 L251.8 130.5 M198.7 115.4 L200.3 110.6 L204.2 107.8 M204.1 108.4 L199.6 115.8 M272.4 124.1 L280 136.5 M186.3 88.4 L197.6 90.2 L215.7 97 M175.6 206.2 L184.1 201.5 M282.5 138.3 L294 106.3 M291.2 151.1 L285.7 164 M294.2 106.5 L283.1 138.3 M285.5 162.9 L290.2 150.4 M175.6 185.2 L172.8 186.3 M266.9 177.6 L264 173.1 M145.6 172.3 L139.6 176.2 L136.5 176.2 M148.6 215.5 L160.2 213.5 L167.8 210.1 M291.6 170 L286.2 175.5 L281.4 177.5 M167.8 210.7 L149 215.7 M281.4 177 L286.4 174.9 L290.7 169.5 M274.3 161.1 L281.3 164.5 M136 205.4 L139.2 200 L149.6 195.6 M196.3 205.2 L190.4 206.5 M249.9 224 L273.7 217.4 M241.8 172.9 L248.7 169.9 M269.7 181.6 L266.9 177.6 M156.3 206.1 L136.5 206.9 M136.5 206.5 L156.2 206 M199.4 116.4 L196.3 113.8 M189.9 206.3 L195.1 204.8 M267.5 177.4 L270.4 181.3 M233.9 156.2 L236.7 154.9 M161.4 111.5 L160.6 110.9 M324.9 164.3 L296.9 145.4 M288.7 148.6 L281.9 141.4 M167.8 210.1 L175.6 206.2 M305 138.4 L292.5 149.7 M226.4 178.8 L227.7 178.5 L226.4 178.8 M140.9 174.7 L145.6 172.3 M292.1 148.6 L298 143.8 L300.8 137.1 M212 212.1 L195.1 204.8 M175.7 207.4 L167.8 210.7 M280.5 177.8 L274 180.4 M273.8 180 L280.2 177.5 M186.6 207.1 L180.8 207.4 M229.5 105.1 L231.3 101.6 L236.8 98.7 M237.9 98.6 L232.2 101.9 L230.4 105.1 M209.9 210.3 L217.6 216.2 L224.7 227.6 M276.4 216.7 L303.5 206.4 M125.5 174.1 L136.5 176.2 M320.7 177.8 L298.3 170.6 M233.3 188.8 L226.6 191.7 M246.4 171.6 L241.9 173.3 M149.6 195.6 L155.8 193.1 M300.8 137.1 L313.6 111.6 M248.6 225.9 L248 224.2 M245.9 160 L248.1 157.9 M235.8 165 L235 164.4 M196.3 205.2 L209.9 210.3 M268.8 118.5 L272.4 124.1 M250.5 169.9 L246.4 171.6 M229.9 250.1 L241.5 244.5 L245.9 240.4 L248 235.4 L248 225.5 M199.3 177.7 L199.8 178.4 M198.7 91.6 L200.6 110.2 M185.9 97.8 L187.1 104.5 M292.4 103.8 L300.9 96.6 M314.4 110.9 L303.5 134.5 M158.1 82.1 L170.1 82.3 L182.2 87.7 M241.2 172.9 L241.2 172.9 M248 224.2 L249.6 223.8 M266.1 220.7 L250.5 224.6 M136.5 176.2 L140.9 174.7 M226.6 179 L225.4 179.3 M294.4 164 L296.8 156.7 M292.5 150.2 L297.3 156.6 M225.4 179.3 L226.4 178.8 M235.8 164.4 L236.2 164.8 M249.9 224 L250.4 225.3 M301.5 96.9 L293.6 103.8 M258.2 153 L255 156.6 M250.4 225.3 L248.6 225.9 M296.8 156.4 L291.6 151 M225.7 190.4 L229.7 189.6 M296.8 161.3 L292.8 167.5 M124.3 175 L130.2 181.7 L142.9 183.2 M300.5 169.4 L301.5 171.1 L337.5 184 L339 186.1 L338 192.1 M235.6 164.1 L235.8 164.4 M250.5 166.5 L253.8 165.3 M272.4 263.4 L261.1 245.6 M262.3 245.2 L273.6 263 M132.5 115.2 L141.4 117.6 L159.2 111.8 M255.3 155.8 L258 152.9 M229.7 189.6 L232.9 188.3 M234.1 188.7 L233.1 188 L234.1 188.7 M184.2 89.3 L185.9 97.8 M237.3 143.3 L237.6 144.2 M237.6 144.2 L236.5 144.1 M248.4 167.3 L250.5 166.5 M284.2 167.9 L283.1 170.4 M291.3 168.4 L294.4 164 M258.6 52.5 L264.8 63.1 L249.8 88.4 L240.1 97.5 M130.8 114.5 L125.5 124.3 M166.7 139.8 L169.5 141.8 M241.9 162.1 L241.6 161.9 M249.6 223.8 L249.9 224 M242 161.8 L242.3 162 M167.8 210.1 L169.6 212.4 L169.6 234.4 L174.8 236.8 L184.3 234 M172.4 184.3 L176 184.2 M250.5 169.9 L248.7 169.9 M252.4 169.2 L250.5 169.9 M294 168.4 L300.5 169.4 M236.8 98.7 L243.3 94.9 L249.2 88.4 L264.6 62.2 L257.2 51.7 L246.8 48.3 L227.7 38.3 M125.9 123.2 L130.4 114.3 M255.9 167.9 L253.5 168.7 M225.4 252.3 L260 244.2 M224.9 228.9 L194.5 237.2 L185.2 234.3 M298.3 170.6 L292.3 169.8 M106.8 170.6 L88.9 167.1 L65.1 167.5 M101.2 128.3 L118.8 125 M136.3 207.2 L138.3 216.6 M137 216.9 L135.1 207.2 M175.1 184.6 L172.4 184.3 M252.6 158.9 L251.9 159.8 M297.3 157 L296.8 161.3 M252.7 158.4 L253.5 157.6 M76.9 198.3 L117.8 205.4 M253.5 157.6 L254.4 156.7 M251.5 159.5 L252.1 159 M254.4 156.7 L255.3 155.8 M273.6 167.5 L281.3 164.5 M263 171.6 L259.8 172.8 M253.6 157.9 L253 158.6 M253.5 168.7 L252.4 169.2 M168.7 223.7 L169.2 212.6 L167.8 210.7 M233.9 187.9 L235.2 187.7 M248.4 157.6 L248.1 157.9 M267.7 183.1 L271.7 189.2 M355.6 147.2 L346.2 146.9 L307.9 136.7 M296.6 145.1 L291.2 141.5 L282.3 140 M282.5 139.6 L291.2 140.9 L297.1 144.6 M227.6 232.2 L227.9 234.2 L220.8 237 L213.6 236.4 L197.3 240.8 L194.3 240.1 L193 237.3 M254.3 157.3 L253.6 157.9 M252.1 159 L252.7 158.4 M180.7 101.1 L165.2 87.9 L164.2 82.6 M235.2 187.7 L234.3 188.3 M255 156.6 L254.3 157.3 M263.2 171.1 L266.7 169.9 M289.9 96.8 L302.1 95.6 L310 102.7 M266.9 170.1 L263.4 171.4 M138.8 216.7 L148.6 215.5 M336.3 192.2 L337.9 185 L320.7 177.8 M185.4 233.9 L193.7 236.9 L209.2 232.5 M277.5 171.8 L273.5 167.9 M307.8 135.5 L347.3 146.8 L364.6 146.7 M124.5 204.9 L112.7 185.2 M131.6 86.2 L124.7 78.9 M273.9 217.8 L266.1 220.7 M290.7 104.7 L292.4 103.8 M253 158.6 L252.6 158.9 M223 225.8 L217 216.5 M106.8 170.6 L115.3 172.3 M125.4 78.2 L132.5 85.2 M287 234.3 L313.9 224 M266.7 169.9 L270.1 168.6 M134.7 206.8 L125.5 206.8 M125.8 206.4 L134.7 206.5 M251.9 159.8 L251.7 159.9 M314.4 225 L287.2 234.7 M303.5 206.4 L313.2 221 M175.6 104.4 L185.9 97.8 M247.1 247.7 L231.2 250.4 L226.7 252.9 M72 68.8 L108.5 72.5 L125.4 78.2 M269.9 169 L266.9 170.1 M253.8 165.3 L254.1 165.2 M217 216.5 L212 212.1 M137.9 243.2 L134.6 231.9 L137.5 227.2 M231.5 222.9 L236.2 228.8 L227.9 231.9 M227.7 231.6 L235.7 229 L231 222.8 M81.2 222.9 L100.1 222.3 L128.9 218.2 M316.1 85.9 L305.7 92.9 M149 215.7 L141.9 217 M118.4 173 L122.4 173.9 M273.5 167.9 L269.9 169 M132 104.6 L127.9 93.6 M124.7 78.9 L113.2 74.3 L87.7 72.7 L72.5 69.4 M137.9 227.8 L135.3 231.9 L138.5 243 M138.9 218.3 L138.2 227.5 M300.9 96.6 L305.5 92.3 M256.3 167.7 L255.9 167.9 M305.7 92.9 L301.5 96.9 M267.8 241.8 L285.7 234.6 M209.2 232.5 L225.3 228.5 M164.3 112.1 L170.9 107.5 M302.6 168.1 L318.5 167.7 L324.9 164.3 M137.7 226.9 L137.7 218.5 M211 236.7 L220.6 236.6 L227.9 233.9 L227.4 232.2 M270.1 168.6 L272.4 167.8 M236 202.5 L244.2 211.5 M116.4 220.3 L84.7 223.3 M131.5 110.8 L132.1 105.4 M333.8 206.3 L316.8 223.9 M307.7 108.6 L295.6 106 M184.6 234.3 L173.4 237 L169.4 234.8 L168.6 231 M315.5 223 L331.8 207.5 M76 143.1 L91.9 132.1 M284.8 166.2 L290.8 168.7 M267.5 185.8 L266.4 183.8 M290.7 169.4 L284.5 167.2 M307.1 90.8 L315.5 85.6 M211.2 269.2 L220.5 260.7 L224.7 253.4 M259.8 172.8 L259.5 172.9 M129 218.6 L116.4 220.3 M131.5 110.8 L130.8 114.5 M270.6 190.3 L268.8 187.8 M124.9 206.8 L117.8 205.4 M262.8 171.3 L263.2 171.1 M193.3 122 L189.6 124.9 M72 68.8 L101.4 72.2 M268.8 187.8 L267.5 185.8 M263.4 171.4 L263 171.6 M178.3 120.4 L184.6 122.9 M281.3 164.5 L284.8 166.2 M112.7 185.2 L116.6 173.9 M275.3 217.8 L286.5 234.2 M117.8 205.4 L124.5 206.3 M261.4 243.6 L262.3 245.2 M293.6 103.8 L293.4 103.9 M170.9 107.5 L175.6 104.4 M184.6 122.9 L189 123.7 M271.7 189.2 L272.6 191.6 M272.4 167.8 L273.6 167.5 M195.9 204.6 L196.3 205.2 M59.4 183 L92.3 181.2 L112.7 185.2 M260.8 245.5 L260 244.2 M101.4 72.2 L112.8 74 M129.5 218.1 L135.2 217.3 M233.6 201.4 L237.8 205.7 M260.2 244 L261.4 243.6 M279.3 172.3 L277.5 171.8 M133.8 85.9 L134.5 87 M241.7 224.6 L233.9 223.3" fill="none" stroke="#fcf7e8" stroke-width="6.4" opacity="0.92" stroke-linecap="round" stroke-linejoin="round"/>
</g>
<g data-layer="major-road">
<path d="M190.9 130.5 L194.2 135.1 L199.3 150.3 L227 192.9 L243.5 211.8 L262.5 246.4 M202.2 154.1 L213.8 171.6 M212.5 172.1 L201.2 154.6 M217.8 147.9 L202.3 153.9 M202 153.2 L217.5 147.4 M196.9 146.3 L194.1 135.6 L190.6 130.8 M191.5 130.2 L201.6 153 M200.1 153.4 L189.5 128.9 M214.5 173.2 L229.6 196 M228.5 196.4 L213.4 173.5 M262.2 246.5 L245.7 217.8 L232.8 203 L196.9 146.3 M240 134.7 L234.2 138.6 L235.1 148 M202.3 153.9 L200.1 153.4 M218 147.2 L224.2 146.7 M233.3 144.7 L234.3 137.7 L239.6 134.6 M223.2 147.2 L218.2 147.8 M224.2 146.7 L230.5 143.3 M241.9 162.1 L214.8 172.5 M212.3 172.7 L214.4 171.9 M200.1 153.4 L201.6 153 M202 153.2 L202.3 153.9 M231.7 144.5 L226.3 146.1 M185.9 182.7 L212.3 172.7 M184.1 126.1 L171.6 118.7 M212.8 173.4 L185.9 183.3 M220.4 169.8 L242 161.8 M186.2 127 L190.9 130.5 M190.6 130.8 L186.2 127.4 M127.3 81.7 L167.2 115.1 L184.2 125.8 M232.1 138.4 L232.5 136.7 L206.6 120 M245.6 160.2 L232.2 152.2 M186.2 127.4 L184.1 126.1 M184.2 125.8 L186.2 127 M171.6 118.7 L162.1 111.4 M244.3 122.9 L236.8 113.7 L230 109.5 L229.5 105.1 M145.6 172.3 L185.6 181.8 M218.1 127.4 L234.1 137.2 M214.4 171.9 L220.4 169.8 M227.2 148.9 L235.3 153.6 M232.2 152.2 L225.2 148.2 M236.3 154.3 L245.9 160 M196.6 156.3 L196 171.6 L194.3 175 M162.1 111.4 L146.3 98.1 M266.1 183.7 L232.4 196.5 M186.2 199.5 L192 193 L197.6 190.6 L196.7 187.4 M242.8 152.2 L258 152.9 M202.6 109.3 L196.9 119.5 M250.6 103.3 L232.7 102.8 L220.6 104.7 M196.4 119.4 L202.3 109.2 M217.4 156.9 L224.9 168.6 M228.2 163.9 L220.2 151 M204.3 118.5 L218.1 127.4 M190.2 123.1 L196.4 119.4 M223.3 155 L230.6 166.5 M280.5 139.7 L251.5 130.9 M169.5 141.8 L180 143 L194.9 153.7 M194.4 121 L189.2 124.2 M251.8 130.5 L280.6 139.2 M253.8 165.3 L246.2 160.5 M246.7 157 L241.5 153.5 M196.7 187.4 L188.6 185.3 M148.8 169 L172.4 167.4 L194.3 175 M230.4 105.1 L230.7 109.4 L237.6 113.7 L244.8 121.9 M247.8 190.3 L263.8 184.2 M155.8 193.1 L172.8 186.3 M195.9 204.6 L200.8 201.4 L209.9 199.4 M244.8 121.9 L251.4 124.5 M258.5 164.7 L251.7 159.9 M218.6 147.6 L223.3 155 M185 183.4 L177.1 184.8 M251.9 159.8 L258.7 164.3 M176.5 184.2 L184.2 183.1 M245.4 155.8 L249.6 158.3 M214.5 199.1 L226.6 197.5 M244 129.1 L244.4 126.2 M248.4 161.6 L253.6 164.8 M196.9 119.5 L194.4 121 M291.9 105 L267.2 116.6 M214.9 153 L217.4 156.9 M222 99.1 L237 102.6 M188.6 185.3 L185 183.4 M266 182.4 L259.8 173.3 M262.8 171.3 L258.5 164.7 M258.9 164.5 L263.2 171.1 M285 98 L253.3 103.1 M202.3 109.2 L208.7 105.2 M227.6 178.3 L241 173.2 M147 172.8 L149.8 167.4 L158 160.9 L160.3 156.8 L160.1 146.9 L154.8 140.5 L154.6 137.5 L162.6 134.8 L166.7 139.8 M241.2 173.5 L227.7 178.7 M250.6 103 L295.3 95.6 M244.4 126.2 L244.6 124.5 M146.3 98.1 L120 77.1 M241.6 161.9 L233.9 156.2 M217 104.8 L209.1 105.6 M237 102.6 L250.6 103 M234.6 156 L242 161.8 M210.3 104.6 L215.6 98.2 M209.1 105.6 L204.1 108.4 M232.4 151.9 L234.3 150 L232.5 144.9 M213.1 150.6 L214.9 153 M200.9 154.6 L197 155.5 M247.6 146.3 L257.9 146.7 L281 155.2 L287.7 155.4 M197 155.5 L200.1 153.7 M220.2 151 L218.2 147.8 M244.6 124.5 L244.5 123.5 M233.1 188 L227.2 179.2 M227.5 179 L233.4 187.8 M142.9 183.2 L172.4 184.3 M235.4 144.9 L235.3 147.8 L239.3 150.7 M190.8 180.7 L194.3 175 M194.9 153.7 L197.6 154.9 M197 155.5 L194.9 153.7 M194.3 175 L199.3 177.7 M244.5 123.5 L244.3 122.9 M202 155.4 L195.6 145.6 M248.4 167.3 L241.9 162.1 M242.3 162 L250.5 166.5 M229.9 166.4 L228.2 163.9 M226.6 178.3 L224.1 174.3 M224.5 174.2 L227 178.2 M237.6 144.2 L247.6 146.3 M204.7 201 L208 205.2 L214.6 206.7 L220.9 213 L226.7 214.8 L231.1 222.1 M230.8 222.3 L226.3 215 L220.3 213.1 L213.4 206.7 L207.9 205.6 L203.8 201.2 M247.9 183 L235.2 187.7 M243.6 130.6 L236.4 138.6 M213.3 191.1 L222.1 187.4 L213 173.5 M197.9 155.5 L196.6 156.3 M220.6 104.7 L217 104.8 M204.1 108.4 L202.6 109.3 M232.1 138.4 L241.2 133.5 M220 181.4 L225.4 179.3 M262.8 177.2 L247.9 183 M213.1 150.6 L212.1 150.2 M196.6 156.3 L197 155.5 M213.1 149.7 L213.1 150.6 M217.6 97.7 L222 99.1 M208.7 105.2 L210.3 104.6 M192.3 130.4 L196.2 141.7 M195.6 145.6 L193.8 137.8 M263.2 247.5 L277.4 270 M277 270.1 L263 247.7 M253.3 103.1 L250.6 103.3 M213.1 191.7 L222.8 187.7 M112.8 74 L127.3 81.7 M299 95.6 L285 98 M228.3 195.7 L219.7 189.8 M219.7 189.8 L213.1 191.7 M188.5 128 L181.1 123.8 L178.3 125.2 L179.8 128.1 M120 77.1 L101.3 72.6 M193.8 137.8 L193.1 134.3 M189.3 125.7 L192.3 130.4 M317.8 85.7 L309.2 90.5 L304.1 95.8 M303.2 93.3 L319 83.4 M189.2 124.2 L183.1 128.2 L179.6 128.3 M179.6 128.3 L177.4 122.8 L172.1 119.4 M179.8 128.1 L189 123.9 M213.7 192.5 L209.1 193.9 M243.2 215.4 L234.2 204.8 M263 247.7 L262.2 246.5 M295.3 95.6 L303.2 93.3 M262.5 246.4 L263.2 247.5 M209.1 193.5 L213.3 191.1 M188.7 125.6 L191.5 130.2 M305.7 92.9 L299 95.6 M293.1 104.3 L291.9 105 M219.7 98.3 L229.9 102.7 L217.8 104.8 M303.9 97.1 L303.2 94.9 L305.5 92.3 M193.3 122 L188.9 124.9 M186.4 123.7 L191.4 122 M293.8 104 L293.1 104.3 M253.3 103.1 L233 103.1 M219.9 98.4 L237.4 102.4 M254 102.3 L286.4 97.3 M232.4 196.5 L231.5 198.6 M237.4 102.4 L254 102.3 M319 83.4 L331.1 76.6 M227.6 104.2 L217 104.8 M133.6 58.7 L132.9 65.1 M196.1 120.4 L194.4 121 M245.9 123 L247.8 123.9 M247.8 123.9 L249.9 124.4 M244.8 121.9 L245.9 123 M229.5 182.6 L229.9 182.5 M223.7 168.3 L223.8 167 M196.7 155.9 L196.4 155.1 M225.5 173.8 L224.8 174.9 M228 163.6 L228.7 163.2 M224.5 174.9 L223.6 174.5 M232 185.8 L231.7 185.9 M168.8 210 L168.8 210.8 M232.9 187.7 L233.2 187.6 M205.8 200.8 L205.1 201.5 M255.3 155.8 L255.6 155.9 M256.6 154.7 L256.4 154.6 M208.9 272.5 L208.6 275.2 M410.3 279.9 L409.1 281 M214.8 172.5 L213.4 173.5 M226.3 146.1 L223.2 147.2 M201.6 153 L202 153.2 M189.5 128.9 L183.1 123.9 L172.1 119.4 M235.1 148 L239.3 150.7 M238.5 150.7 L234.7 148.1 M212.8 173.4 L212.3 172.7 M234.7 148.1 L233.3 144.7 M214.4 171.9 L214.8 172.5 M230.5 143.3 L230.3 139.7 M213.4 173.5 L212.8 173.4 M218.2 147.8 L217.8 147.9 M217.5 147.4 L218 147.2 M153.4 102.7 L172.8 118.6 L186.1 125.3 M231.7 138.6 L236.5 139.1 M236.5 139.1 L237.9 142.4 M231.7 144.5 L230.5 143.3 M235.4 144.9 L233.2 145.1 M233.2 145.1 L231.7 144.5 M186.4 125.4 L191.5 130.2 M242.8 152.2 L241.8 153.4 M236.5 144.1 L235.4 144.9 M239.4 151.9 L239.1 151 M239.5 150.8 L240.7 151.1 M243.6 130.6 L240 134.7 M236.5 206.2 L229.2 197.6 M239.8 152.5 L239.4 151.9 M240.5 153.1 L239.9 152.6 M237.4 143.2 L236.5 144.1 M239.1 151 L238.5 150.7 M252.2 124.6 L244.1 129.8 M230.3 139.7 L231 139 M242.1 151.7 L242.8 152.2 M240.9 151.1 L241.6 151.4 M241.5 153.5 L240.9 153.3 M240.9 153.3 L240.5 153.1 M237.9 142.4 L237.4 143.2 M244 129.1 L251.4 124.5 M231 139 L231.7 138.6 M231.5 198.6 L237 206.1 M241.6 151.4 L242.1 151.7 M241.2 133.5 L243.3 130.2 M239.3 150.7 L239.5 150.8 M251.4 124.5 L290.7 104.7 M241.8 153.4 L241.5 153.5 M239.9 152.6 L239.8 152.5 M238.1 207.4 L249.6 223.8 M240.7 151.1 L240.9 151.1 M293.4 103.9 L253.7 123.7 M248 224.2 L246.8 219.5 L237.6 207.6 M239.6 134.6 L241.2 133.5 M172.1 119.4 L161.4 111.5 M228.5 196.4 L230.3 196.3 M230.3 197.2 L231.5 198.6 M243.3 130.2 L244 129.1 M229 197.6 L228.4 196.6 M244.1 129.8 L243.6 130.6 M230.4 197.2 L229.2 197.6 M167 114.1 L171 118.8 M230.3 196.3 L230.4 197.2 M186.1 125.3 L186.4 125.4 M228.4 196.6 L228.5 196.4 M229.2 197.6 L229 197.6 M253.7 123.7 L252.2 124.6 M160.6 110.9 L151.9 103.4 M134.7 87.5 L153.4 102.7 M279.2 136.3 L268.8 118.5 M151.9 103.4 L133.9 88.1 M237.6 207.6 L236.5 206.2 M258.2 153 L265.6 156.6 M237 206.1 L238.1 207.4 M250.4 225.3 L261.4 243.6 M260.2 244 L248.6 225.9 M230.3 196.3 L238.3 193.9 M191.4 122 L198.3 116 M199.4 116.4 L193.3 122 M196.3 113.8 L204.3 118.5 M206.6 120 L199.4 116.4 M259.8 172.8 L263.6 178.5 M251.5 130.9 L244.1 129.8 M203.8 201.2 L196.3 205.2 M239.4 193.5 L245.7 191.1 M266 156.8 L274.3 161.1 M263.4 171.4 L267.4 177.4 M187.1 104.5 L196.3 113.8 M258.1 170.9 L255.9 167.9 M245.4 128.7 L251.8 130.5 M198.7 115.4 L200.3 110.6 L204.2 107.8 M204.1 108.4 L199.6 115.8 M272.4 124.1 L280 136.5 M186.3 88.4 L197.6 90.2 L215.7 97 M175.6 206.2 L184.1 201.5 M282.5 138.3 L294 106.3 M291.2 151.1 L285.7 164 M294.2 106.5 L283.1 138.3 M285.5 162.9 L290.2 150.4 M175.6 185.2 L172.8 186.3 M266.9 177.6 L264 173.1 M145.6 172.3 L139.6 176.2 L136.5 176.2 M148.6 215.5 L160.2 213.5 L167.8 210.1 M291.6 170 L286.2 175.5 L281.4 177.5 M167.8 210.7 L149 215.7 M281.4 177 L286.4 174.9 L290.7 169.5 M274.3 161.1 L281.3 164.5 M136 205.4 L139.2 200 L149.6 195.6 M196.3 205.2 L190.4 206.5 M249.9 224 L273.7 217.4 M241.8 172.9 L248.7 169.9 M269.7 181.6 L266.9 177.6 M156.3 206.1 L136.5 206.9 M136.5 206.5 L156.2 206 M199.4 116.4 L196.3 113.8 M189.9 206.3 L195.1 204.8 M267.5 177.4 L270.4 181.3 M233.9 156.2 L236.7 154.9 M161.4 111.5 L160.6 110.9 M324.9 164.3 L296.9 145.4 M288.7 148.6 L281.9 141.4 M167.8 210.1 L175.6 206.2 M305 138.4 L292.5 149.7 M226.4 178.8 L227.7 178.5 L226.4 178.8 M140.9 174.7 L145.6 172.3 M292.1 148.6 L298 143.8 L300.8 137.1 M212 212.1 L195.1 204.8 M175.7 207.4 L167.8 210.7 M280.5 177.8 L274 180.4 M273.8 180 L280.2 177.5 M186.6 207.1 L180.8 207.4 M229.5 105.1 L231.3 101.6 L236.8 98.7 M237.9 98.6 L232.2 101.9 L230.4 105.1 M209.9 210.3 L217.6 216.2 L224.7 227.6 M276.4 216.7 L303.5 206.4 M125.5 174.1 L136.5 176.2 M320.7 177.8 L298.3 170.6 M233.3 188.8 L226.6 191.7 M246.4 171.6 L241.9 173.3 M149.6 195.6 L155.8 193.1 M300.8 137.1 L313.6 111.6 M248.6 225.9 L248 224.2 M245.9 160 L248.1 157.9 M235.8 165 L235 164.4 M196.3 205.2 L209.9 210.3 M268.8 118.5 L272.4 124.1 M250.5 169.9 L246.4 171.6 M229.9 250.1 L241.5 244.5 L245.9 240.4 L248 235.4 L248 225.5 M199.3 177.7 L199.8 178.4 M198.7 91.6 L200.6 110.2 M185.9 97.8 L187.1 104.5 M292.4 103.8 L300.9 96.6 M314.4 110.9 L303.5 134.5 M158.1 82.1 L170.1 82.3 L182.2 87.7 M241.2 172.9 L241.2 172.9 M248 224.2 L249.6 223.8 M266.1 220.7 L250.5 224.6 M136.5 176.2 L140.9 174.7 M226.6 179 L225.4 179.3 M294.4 164 L296.8 156.7 M292.5 150.2 L297.3 156.6 M225.4 179.3 L226.4 178.8 M235.8 164.4 L236.2 164.8 M249.9 224 L250.4 225.3 M301.5 96.9 L293.6 103.8 M258.2 153 L255 156.6 M250.4 225.3 L248.6 225.9 M296.8 156.4 L291.6 151 M225.7 190.4 L229.7 189.6 M296.8 161.3 L292.8 167.5 M124.3 175 L130.2 181.7 L142.9 183.2 M300.5 169.4 L301.5 171.1 L337.5 184 L339 186.1 L338 192.1 M235.6 164.1 L235.8 164.4 M250.5 166.5 L253.8 165.3 M272.4 263.4 L261.1 245.6 M262.3 245.2 L273.6 263 M132.5 115.2 L141.4 117.6 L159.2 111.8 M255.3 155.8 L258 152.9 M229.7 189.6 L232.9 188.3 M234.1 188.7 L233.1 188 L234.1 188.7 M184.2 89.3 L185.9 97.8 M237.3 143.3 L237.6 144.2 M237.6 144.2 L236.5 144.1 M248.4 167.3 L250.5 166.5 M284.2 167.9 L283.1 170.4 M291.3 168.4 L294.4 164 M258.6 52.5 L264.8 63.1 L249.8 88.4 L240.1 97.5 M130.8 114.5 L125.5 124.3 M166.7 139.8 L169.5 141.8 M241.9 162.1 L241.6 161.9 M249.6 223.8 L249.9 224 M242 161.8 L242.3 162 M167.8 210.1 L169.6 212.4 L169.6 234.4 L174.8 236.8 L184.3 234 M172.4 184.3 L176 184.2 M250.5 169.9 L248.7 169.9 M252.4 169.2 L250.5 169.9 M294 168.4 L300.5 169.4 M236.8 98.7 L243.3 94.9 L249.2 88.4 L264.6 62.2 L257.2 51.7 L246.8 48.3 L227.7 38.3 M125.9 123.2 L130.4 114.3 M255.9 167.9 L253.5 168.7 M225.4 252.3 L260 244.2 M224.9 228.9 L194.5 237.2 L185.2 234.3 M298.3 170.6 L292.3 169.8 M106.8 170.6 L88.9 167.1 L65.1 167.5 M101.2 128.3 L118.8 125 M136.3 207.2 L138.3 216.6 M137 216.9 L135.1 207.2 M175.1 184.6 L172.4 184.3 M252.6 158.9 L251.9 159.8 M297.3 157 L296.8 161.3 M252.7 158.4 L253.5 157.6 M76.9 198.3 L117.8 205.4 M253.5 157.6 L254.4 156.7 M251.5 159.5 L252.1 159 M254.4 156.7 L255.3 155.8 M273.6 167.5 L281.3 164.5 M263 171.6 L259.8 172.8 M253.6 157.9 L253 158.6 M253.5 168.7 L252.4 169.2 M168.7 223.7 L169.2 212.6 L167.8 210.7 M233.9 187.9 L235.2 187.7 M248.4 157.6 L248.1 157.9 M267.7 183.1 L271.7 189.2 M355.6 147.2 L346.2 146.9 L307.9 136.7 M296.6 145.1 L291.2 141.5 L282.3 140 M282.5 139.6 L291.2 140.9 L297.1 144.6 M227.6 232.2 L227.9 234.2 L220.8 237 L213.6 236.4 L197.3 240.8 L194.3 240.1 L193 237.3 M254.3 157.3 L253.6 157.9 M252.1 159 L252.7 158.4 M180.7 101.1 L165.2 87.9 L164.2 82.6 M235.2 187.7 L234.3 188.3 M255 156.6 L254.3 157.3 M263.2 171.1 L266.7 169.9 M289.9 96.8 L302.1 95.6 L310 102.7 M266.9 170.1 L263.4 171.4 M138.8 216.7 L148.6 215.5 M336.3 192.2 L337.9 185 L320.7 177.8 M185.4 233.9 L193.7 236.9 L209.2 232.5 M277.5 171.8 L273.5 167.9 M307.8 135.5 L347.3 146.8 L364.6 146.7 M124.5 204.9 L112.7 185.2 M131.6 86.2 L124.7 78.9 M273.9 217.8 L266.1 220.7 M290.7 104.7 L292.4 103.8 M253 158.6 L252.6 158.9 M223 225.8 L217 216.5 M106.8 170.6 L115.3 172.3 M125.4 78.2 L132.5 85.2 M287 234.3 L313.9 224 M266.7 169.9 L270.1 168.6 M134.7 206.8 L125.5 206.8 M125.8 206.4 L134.7 206.5 M251.9 159.8 L251.7 159.9 M314.4 225 L287.2 234.7 M303.5 206.4 L313.2 221 M175.6 104.4 L185.9 97.8 M247.1 247.7 L231.2 250.4 L226.7 252.9 M72 68.8 L108.5 72.5 L125.4 78.2 M269.9 169 L266.9 170.1 M253.8 165.3 L254.1 165.2 M217 216.5 L212 212.1 M137.9 243.2 L134.6 231.9 L137.5 227.2 M231.5 222.9 L236.2 228.8 L227.9 231.9 M227.7 231.6 L235.7 229 L231 222.8 M81.2 222.9 L100.1 222.3 L128.9 218.2 M316.1 85.9 L305.7 92.9 M149 215.7 L141.9 217 M118.4 173 L122.4 173.9 M273.5 167.9 L269.9 169 M132 104.6 L127.9 93.6 M124.7 78.9 L113.2 74.3 L87.7 72.7 L72.5 69.4 M137.9 227.8 L135.3 231.9 L138.5 243 M138.9 218.3 L138.2 227.5 M300.9 96.6 L305.5 92.3 M256.3 167.7 L255.9 167.9 M305.7 92.9 L301.5 96.9 M267.8 241.8 L285.7 234.6 M209.2 232.5 L225.3 228.5 M164.3 112.1 L170.9 107.5 M302.6 168.1 L318.5 167.7 L324.9 164.3 M137.7 226.9 L137.7 218.5 M211 236.7 L220.6 236.6 L227.9 233.9 L227.4 232.2 M270.1 168.6 L272.4 167.8 M236 202.5 L244.2 211.5 M116.4 220.3 L84.7 223.3 M131.5 110.8 L132.1 105.4 M333.8 206.3 L316.8 223.9 M307.7 108.6 L295.6 106 M184.6 234.3 L173.4 237 L169.4 234.8 L168.6 231 M315.5 223 L331.8 207.5 M76 143.1 L91.9 132.1 M284.8 166.2 L290.8 168.7 M267.5 185.8 L266.4 183.8 M290.7 169.4 L284.5 167.2 M307.1 90.8 L315.5 85.6 M211.2 269.2 L220.5 260.7 L224.7 253.4 M259.8 172.8 L259.5 172.9 M129 218.6 L116.4 220.3 M131.5 110.8 L130.8 114.5 M270.6 190.3 L268.8 187.8 M124.9 206.8 L117.8 205.4 M262.8 171.3 L263.2 171.1 M193.3 122 L189.6 124.9 M72 68.8 L101.4 72.2 M268.8 187.8 L267.5 185.8 M263.4 171.4 L263 171.6 M178.3 120.4 L184.6 122.9 M281.3 164.5 L284.8 166.2 M112.7 185.2 L116.6 173.9 M275.3 217.8 L286.5 234.2 M117.8 205.4 L124.5 206.3 M261.4 243.6 L262.3 245.2 M293.6 103.8 L293.4 103.9 M170.9 107.5 L175.6 104.4 M184.6 122.9 L189 123.7 M271.7 189.2 L272.6 191.6 M272.4 167.8 L273.6 167.5 M195.9 204.6 L196.3 205.2 M59.4 183 L92.3 181.2 L112.7 185.2 M260.8 245.5 L260 244.2 M101.4 72.2 L112.8 74 M129.5 218.1 L135.2 217.3 M233.6 201.4 L237.8 205.7 M260.2 244 L261.4 243.6 M279.3 172.3 L277.5 171.8 M133.8 85.9 L134.5 87 M241.7 224.6 L233.9 223.3" fill="none" stroke="#1f3733" stroke-width="2.7" opacity="0.9" stroke-linecap="round" stroke-linejoin="round"/>
</g>
<g data-layer="minor-road-casing">
<path d="M122.1 94 L117.6 91.6 L41.5 83.3 L29.6 82.3 L25.1 84.7 L32.3 85.4 M123.2 159.3 L118.1 158.2 L110.6 152.5 L88.3 158.6 L87.1 156.5 L89.5 157.2 L93.6 153.7 L101 152.1 L103.9 148.1 L103 142.9 L105.5 138.4 L128.3 142.6 M88.5 35.3 L157.4 54.6 M189.8 49.7 L197.9 47.6 L242.2 70.9 M41.4 218.2 L100 215.9 M279.2 290.3 L244.7 284.9 L247.2 274.5 M45.4 130.9 L50.5 131.4 L71.7 123.6 L89.1 127.1 M223.1 241.7 L229.7 246.1 L239.4 242.9 L245.7 232.2 L240.6 224.4 M46.7 183.6 L53.9 217.7 M16.3 232.9 L22.2 232.9 L26.3 237 L58.4 234.7 M334.5 163.4 L329.8 153.8 L306.3 137.6 M91.6 305.5 L113.2 308.4 L130.5 306.6 L131.3 310.4 M126.6 89 L119.1 86 L84.5 82.3 M51.9 54.8 L48.3 60.2 L66.2 63.8 L80.4 69.4 M371.1 229 L366.5 223.3 L390 205.5 M246 296 L256.5 297.7 L254.1 304.7 L257.4 307.1 L274.3 309.5 M55.7 284.3 L29.5 281.5 L15.9 285.6 M235.7 229.6 L237.7 230.5 L235.7 236.9 L213.8 245.1 L209.3 243.1 M174.5 61.5 L212.1 73.6 M179.1 56.2 L216.4 68.1 M334.2 192.6 L328.5 191.5 L312.9 182.2 L298.7 180.1 M375.9 286.6 L375.1 282.1 L356 274.9 L344 273.4 M224.6 252.9 L207.7 252.2 L187.5 259.1 M166.8 70.7 L203.8 80.6 M121.7 125.1 L119.9 121.9 L112.8 119.9 L90.8 121 L89.9 117.7 M56.3 94.4 L59.5 93.7 L64.2 69 M185.9 48.4 L165 72.8 M29.2 224.6 L27.4 195.8 M39.1 206.8 L76.7 205.3 M370.8 286.9 L370.3 289.8 L366.4 291.4 L342.7 278.9 M366.5 223.3 L366.1 221.9 L391 202.8 M100 99 L104.1 79.9 L112.1 74.4 M45 68.2 L39.8 70.1 L23.1 69.2 L13 75.8 M167.2 254.7 L192.9 245.6 L195.9 240.4 M54.4 125.2 L71.7 119.7 L83.9 121.8 L82.2 124.9 M54.8 62.2 L55.1 64.9 L53.7 65.2 L40.9 61.3 L41.2 59 L54.5 62.7 M157.7 252.4 L156.3 248.4 L163.4 246.7 L163.8 234.4 L169.2 233.8 M63.3 211.4 L98.7 210 M244 228.2 L246 232.7 L240 242.8 L230.2 246.3 L227.5 245.3 M391 221.7 L400.7 217.3 L406.6 218.1 L407.4 220.1 L394.8 226 M311.8 98.4 L316.6 99.7 L324.1 98.4 L327 94.8 L334.3 94.5 L341.7 90.9 M395.5 206.3 L371.4 224.8 M408 97.2 L373.9 99.3 M205.2 86.5 L234.2 99.9 M228.7 254.5 L241.9 250.6 L258.1 249 L259.7 250.7 M364.3 179.8 L379.6 185.1 L396.1 185.7 M280.5 141 L276 145.5 L261 138 L265.9 134.2 M316.7 55.3 L310.3 52.3 L298 35.4 M322.8 270.8 L322.8 287.2 L324.8 295.5 M325.5 242.3 L312.6 247.1 L294 245.9 M8.9 221.2 L41.8 220.1 M43 123.9 L52.4 119.3 L52.8 117.6 L37.7 109.1 M45.1 310.3 L55.5 300.5 L64 306.4 L62 308.7 M255.6 252.9 L264.6 266.8 L253.8 267.1 M62.5 78 L41.9 76.3 L36.1 82.9 M131 248.3 L132.8 239.2 L136.9 248.7 L133 247.3 M194 256.6 L193.9 251 L203.9 247.1 L209.9 247.2 L210.1 251.9 M380.5 95.6 L411.2 94.5 M216.4 294.6 L228.4 292.9 L241.8 302.3 M185.3 35.2 L203.3 30.9 L213.7 34.9 M305.4 29.5 L284 45.9 M246.7 275.8 L239.6 275.2 L234.1 292.1 M9.1 210.2 L39.5 209 M164.6 48.2 L147.8 47.9 L138.3 41.2 M354.1 206.1 L356.9 203.3 L360.5 204.4 L359.7 210.2 L355.7 211.8 L353.7 210.6 L354.1 206.1 M394.4 214 L386.8 217.5 L371.7 228.9 M201.2 49.3 L203.2 47.6 L219.9 48.7 L229.5 51.3 M186.8 264.9 L207.7 257.5 L207.7 252.2 M323.2 243.2 L321 240.1 L311.4 243.4 L301.1 242.5 L298.8 239.6 M40.9 301.7 L10.8 302.9 M325.5 164.6 L338.4 159.2 L353.3 158.4 M323.4 47.2 L305.4 29.5 M238.8 75.3 L251.6 55.4 M228.6 141.8 L210.9 135.7 L201.7 136.5 M62.4 104.2 L55.3 107.6 L47.3 107.6 L43.7 105.4 L47.5 101.3 M191.4 122 L170.9 107.5 M292.6 285.7 L296.1 287.6 L301.1 285.8 L295.7 282.8 L295.1 279.7 L288.7 280.6 M62.3 40.4 L80.7 47.2 L88 46.8 M152.9 200 L177.5 190.2 M9.6 35.9 L37.1 38.2 M380.2 202 L364.5 213.9 L366.1 217 M279.2 290.3 L280.9 280.2 L268.1 277.9 M396.1 176.5 L402.1 174.3 L398.9 162.4 L400.6 161.4 M45.6 39.1 L44.8 41 L34.2 44.3 L37.7 47.9 L38 52.3 M65.3 85.7 L64.5 90.7 L83 90.6 M344.5 212.8 L341.4 208.6 L346.7 205.2 L349.5 195.9 M34.4 75.9 L12.3 86.1 M348.7 86.7 L330.1 85.6 L324.2 88.4 M19.3 284.5 L21.8 285.1 L19.9 288.5 L24.9 289.1 L29.6 287.1 L31.6 281.8 M126.4 249.8 L126.1 243.1 L130.4 236.1 L130.4 231.7 M37.1 38.2 L62.3 40.4 M383 209.2 L396.3 225.3 M385.4 51.9 L410.3 50.6 M346.8 20.2 L364.6 32.9 M220.4 87.5 L243.3 94.9 M179.9 300.2 L171.5 295.7 L180.5 289.4 L182.1 290.2 M299.1 267.3 L299.1 258.3 L295.4 249.3 M130.4 231.7 L124.3 232 L120.4 229.5 L116.8 224.4 L116.4 220.3 M318.2 266 L307.9 258.3 L298.6 256.3 M239 266.7 L223.6 272.6 L221.6 277.7 M382.9 74.2 L396 75.9 L397.7 72.5 L393.1 71 M184.1 159.1 L184.8 152.9 L172.5 145.4 M132 87.2 L114.7 74.6 M37.1 144.8 L43.7 151.4 L49.9 153.2 L53.2 157.1 M88.4 148.3 L92.1 136.2 L98.2 133.2 M75.2 199 L79.1 216.6 M146.4 247.7 L142.9 245.9 L138.1 232.9 M362.5 224.9 L365.6 228.8 L360.3 228.1 L351.9 221.7 M100.9 95.2 L86.6 93.4 L83 90.6 L83.5 87.6 M230.4 291.5 L253.7 294.8 M162.5 175.9 L164.3 171.7 L168.6 171.4 L174.5 173.1 L173.7 178.1 M191.3 219 L168.7 223.9 M8.8 176.5 L16.9 175.9 L28.4 168.3 M58.4 269.3 L42.6 275.4 L38.9 278.5 M102.9 67.1 L126.1 69.6 M241.8 302.3 L244.9 299.6 L249.4 286 M86.7 131.6 L74.9 128.2 L65 130.9 M344.6 294.5 L347.4 291.7 L342.9 286.4 L342.7 278.9 M60.4 195.7 L59.3 188.9 L73.2 188.1 M335.7 163 L342.5 171 L348.3 164.5 M165.7 149.7 L176.9 157.6 L184.1 159.1 M186.5 259.6 L182.8 255.1 L174.5 258.1 L177.2 262.8 M29.7 82 L25.6 79.1 L9.3 82.4 M229.5 51.3 L242.5 58 L240.3 62.7 M133.3 266.2 L138.4 267.2 L136.2 276.9 L137.9 279.6 M185.2 48.1 L205 56.2 M218 147.2 L216.2 144.7 L200.7 137 M223.5 278.7 L228.9 277.5 L226.9 280.6 L226.9 289 M80.4 69.5 L82.7 60 L75.4 55.3 M36.1 308.6 L31.5 305 L15.7 305.5 M100.8 95.4 L115.5 96.5 L122.1 94 M394.9 118.9 L399.4 135.4 M344 273.4 L333.9 269.9 L322.9 269.7 M202 217 L209.2 232.5 M85.6 229.5 L99.3 229 L99.1 222.7 M83.4 238.2 L73.7 247.3 L68 249.7 M207.9 232.9 L201.6 217.1 M202.4 59.4 L182.6 52.2 M123 86.9 L117.3 80.9 L105.8 78.7 M42.6 223.5 L39.2 207.4 M381.3 307.1 L368.2 299.6 L366.5 296.1 M208.6 82.5 L212.1 78.5 L225.4 84.2 M280.5 141 L266.6 135.7 L261.7 138.5 M130.2 28.6 L135.1 32.6 L144.6 33.3 L146.9 36.2 M186.8 264.9 L184.2 266.7 L183.2 274.6 L186.7 279.4 M14.2 163.3 L20.4 152.5 L25.9 151.2 M196.7 187.4 L200.5 188.2 L207.8 198.2 L209.8 198.5 M194.7 172.3 L185.3 164.2 L184.1 159.1 M57.5 46.7 L68.2 32.8 M112.4 50.2 L119 50.3 L132.1 54.9 M363.7 185.2 L383.8 189.6 M412.7 164.4 L392.1 167.6 M27.4 195.8 L26.2 180 M375.7 107.2 L355.2 110.4 M400.3 118 L379.8 121.1 M357 116.9 L377.5 113.7 M397.8 108.4 L377.4 111.6 M184.9 64.9 L181.5 69.2 L188.4 71.2 L193.1 74.9 M338.6 164.1 L344.6 168.3 L356.1 171.9 M68.5 167 L72 182.3 M184.4 276.5 L178 279.5 L166.4 275.2 M358.5 207.1 L374.6 202.5 L376.4 200.4 M225.7 141 L226.5 139.5 L223.2 138.2 L211.8 134.3 L210.9 135.7 M398.7 113.2 L378.6 116.3 M348.9 300.9 L360.1 301.8 L363.4 300.1 L362.6 296.9 M61.2 25.1 L60.1 23.7 L43.9 29.6 M98.2 133.2 L94.3 148 M398 110.8 L378 113.8 M134.4 267.8 L136.6 268.2 L133.3 281.5 M288.5 168.2 L295.2 161 L288.6 156.9 M184.2 276.3 L202.4 269.9 M88.9 167.1 L87.3 173.8 L92.3 181.2 M237.1 55.2 L239.2 52.4 L233.6 49.4 L227.5 47.8 L225.9 49.3 M24.3 151.6 L40.9 160.1 M307.6 285.8 L307.6 270.9 M361.5 285.9 L348.4 279.1 L346 281.3 M119.1 44.3 L125.5 32.3 L123.2 31.3 M399.9 120.9 L380.5 123.8 M405 48.4 L394.7 49.5 L393 42.7 M274.3 309.5 L278.1 295 M322.8 283.9 L342.4 283.9 M83.3 72.7 L82.2 76.9 L79.8 76.9 L79 81.1 L84.6 81.9 M83.5 87.6 L86.4 73.2 M223.7 126.9 L240.1 134 M399.5 85.6 L403 100 M358.7 279.6 L357.2 277.5 L344.6 277.1 L345 275.2 M33.1 297.3 L33.5 299.3 L41.6 298.9 L46.4 304.2 M387.5 73.9 L388.5 71.5 L403.6 75.3 M357.8 72.2 L366.8 69.3 L370.4 70 L373.3 66.9 M411 34.2 L404.9 34.2 L404.8 30.7 L409.3 30.5 L411.9 32.9 M10.3 272.4 L8.1 279.9 L16.5 279.7 M123.3 159.7 L122.5 164.7 L119.2 167.4 L117.1 172.6 M190.9 220.2 L187.8 231.2 L185.4 233.8 M195.4 78.4 L191.4 83.2 L199.9 88.9 M38.2 236.5 L37.7 232.1 L34.2 232.1 L34.5 239.5 M130.1 148.8 L121.9 151 L123.4 158.2 M203.8 80.6 L220.4 87.5 M374.6 102 L393.1 99 M210.2 94.8 L200.5 106.9 M397.7 115.9 L379.3 118.8 M405.3 310.8 L409.6 297.1 M295.3 191.7 L309.5 186.4 L312.1 187.2 M387.6 63.6 L404.3 69.7 M129.4 34.1 L110.7 33.9 M192.2 215 L202.2 211.4 L208.8 213.9 M134.9 275.1 L121.9 272.4 L120.8 270.6 L122.4 269.1 M206.3 227.1 L193.2 230.2 L188.3 229.6 M259.4 258.8 L266.4 256.1 L267.6 257.4 L260.4 260.5 M158.9 55 L176.5 59.3 M151 266.4 L139.1 268.5 L140.3 272.4 M178.2 102.7 L166.3 92.3 M57.5 224.7 L58.7 238.4 M400 126.7 L382.1 129.5 M388.6 206.7 L398.1 218.4 M378.4 207.9 L365.3 217.3 M168.2 69 L152.9 61.6 M263.6 136 L279.8 142.1 M393.2 172.3 L411 169.6 M26.9 190.2 L12.3 190.6 L11.2 188.4 M358.2 206.4 L364.8 199.6 L367.5 200.1 L366.6 203.1 M176.1 206 L168.1 193.9 M341.4 296.4 L338.2 293.9 L325 293.9 M261.7 262.2 L269.1 259.9 L269.8 261.3 L262.9 263.9 M37.1 144.8 L49 135 M316.6 194 L313.7 194.7 L309.4 188.4 L304.4 190 M189.5 224.8 L182.7 226.2 L182.5 232 L184.5 233.6 M396.4 210.3 L410.1 212.2 L409.5 215.1 M171.5 207.7 L163.2 195.9 M263.5 296.5 L247.7 291.2 M322.8 277.5 L340.6 277.5 M278.2 222.1 L275.2 223.3 L276.2 225 L280.2 230.9 L283.2 230.2 M203.7 57.9 L219.4 64.3 M19.7 165.2 L26.5 153 M56.9 250.2 L70.1 258.8 M40.9 160.1 L27.2 167.8 M44.8 15.9 L44.7 20.3 L46.7 21.3 L56.1 21.2 M388 72.4 L404.7 76.7 M163.8 94.8 L152.9 84.4 M400.1 129.5 L382.9 132.2 M158.5 98.3 L146.8 88.5" fill="none" stroke="#fbf7eb" stroke-width="3.4" opacity="0.62" stroke-linecap="round" stroke-linejoin="round"/>
</g>
<g data-layer="minor-road">
<path d="M122.1 94 L117.6 91.6 L41.5 83.3 L29.6 82.3 L25.1 84.7 L32.3 85.4 M123.2 159.3 L118.1 158.2 L110.6 152.5 L88.3 158.6 L87.1 156.5 L89.5 157.2 L93.6 153.7 L101 152.1 L103.9 148.1 L103 142.9 L105.5 138.4 L128.3 142.6 M88.5 35.3 L157.4 54.6 M189.8 49.7 L197.9 47.6 L242.2 70.9 M41.4 218.2 L100 215.9 M279.2 290.3 L244.7 284.9 L247.2 274.5 M45.4 130.9 L50.5 131.4 L71.7 123.6 L89.1 127.1 M223.1 241.7 L229.7 246.1 L239.4 242.9 L245.7 232.2 L240.6 224.4 M46.7 183.6 L53.9 217.7 M16.3 232.9 L22.2 232.9 L26.3 237 L58.4 234.7 M334.5 163.4 L329.8 153.8 L306.3 137.6 M91.6 305.5 L113.2 308.4 L130.5 306.6 L131.3 310.4 M126.6 89 L119.1 86 L84.5 82.3 M51.9 54.8 L48.3 60.2 L66.2 63.8 L80.4 69.4 M371.1 229 L366.5 223.3 L390 205.5 M246 296 L256.5 297.7 L254.1 304.7 L257.4 307.1 L274.3 309.5 M55.7 284.3 L29.5 281.5 L15.9 285.6 M235.7 229.6 L237.7 230.5 L235.7 236.9 L213.8 245.1 L209.3 243.1 M174.5 61.5 L212.1 73.6 M179.1 56.2 L216.4 68.1 M334.2 192.6 L328.5 191.5 L312.9 182.2 L298.7 180.1 M375.9 286.6 L375.1 282.1 L356 274.9 L344 273.4 M224.6 252.9 L207.7 252.2 L187.5 259.1 M166.8 70.7 L203.8 80.6 M121.7 125.1 L119.9 121.9 L112.8 119.9 L90.8 121 L89.9 117.7 M56.3 94.4 L59.5 93.7 L64.2 69 M185.9 48.4 L165 72.8 M29.2 224.6 L27.4 195.8 M39.1 206.8 L76.7 205.3 M370.8 286.9 L370.3 289.8 L366.4 291.4 L342.7 278.9 M366.5 223.3 L366.1 221.9 L391 202.8 M100 99 L104.1 79.9 L112.1 74.4 M45 68.2 L39.8 70.1 L23.1 69.2 L13 75.8 M167.2 254.7 L192.9 245.6 L195.9 240.4 M54.4 125.2 L71.7 119.7 L83.9 121.8 L82.2 124.9 M54.8 62.2 L55.1 64.9 L53.7 65.2 L40.9 61.3 L41.2 59 L54.5 62.7 M157.7 252.4 L156.3 248.4 L163.4 246.7 L163.8 234.4 L169.2 233.8 M63.3 211.4 L98.7 210 M244 228.2 L246 232.7 L240 242.8 L230.2 246.3 L227.5 245.3 M391 221.7 L400.7 217.3 L406.6 218.1 L407.4 220.1 L394.8 226 M311.8 98.4 L316.6 99.7 L324.1 98.4 L327 94.8 L334.3 94.5 L341.7 90.9 M395.5 206.3 L371.4 224.8 M408 97.2 L373.9 99.3 M205.2 86.5 L234.2 99.9 M228.7 254.5 L241.9 250.6 L258.1 249 L259.7 250.7 M364.3 179.8 L379.6 185.1 L396.1 185.7 M280.5 141 L276 145.5 L261 138 L265.9 134.2 M316.7 55.3 L310.3 52.3 L298 35.4 M322.8 270.8 L322.8 287.2 L324.8 295.5 M325.5 242.3 L312.6 247.1 L294 245.9 M8.9 221.2 L41.8 220.1 M43 123.9 L52.4 119.3 L52.8 117.6 L37.7 109.1 M45.1 310.3 L55.5 300.5 L64 306.4 L62 308.7 M255.6 252.9 L264.6 266.8 L253.8 267.1 M62.5 78 L41.9 76.3 L36.1 82.9 M131 248.3 L132.8 239.2 L136.9 248.7 L133 247.3 M194 256.6 L193.9 251 L203.9 247.1 L209.9 247.2 L210.1 251.9 M380.5 95.6 L411.2 94.5 M216.4 294.6 L228.4 292.9 L241.8 302.3 M185.3 35.2 L203.3 30.9 L213.7 34.9 M305.4 29.5 L284 45.9 M246.7 275.8 L239.6 275.2 L234.1 292.1 M9.1 210.2 L39.5 209 M164.6 48.2 L147.8 47.9 L138.3 41.2 M354.1 206.1 L356.9 203.3 L360.5 204.4 L359.7 210.2 L355.7 211.8 L353.7 210.6 L354.1 206.1 M394.4 214 L386.8 217.5 L371.7 228.9 M201.2 49.3 L203.2 47.6 L219.9 48.7 L229.5 51.3 M186.8 264.9 L207.7 257.5 L207.7 252.2 M323.2 243.2 L321 240.1 L311.4 243.4 L301.1 242.5 L298.8 239.6 M40.9 301.7 L10.8 302.9 M325.5 164.6 L338.4 159.2 L353.3 158.4 M323.4 47.2 L305.4 29.5 M238.8 75.3 L251.6 55.4 M228.6 141.8 L210.9 135.7 L201.7 136.5 M62.4 104.2 L55.3 107.6 L47.3 107.6 L43.7 105.4 L47.5 101.3 M191.4 122 L170.9 107.5 M292.6 285.7 L296.1 287.6 L301.1 285.8 L295.7 282.8 L295.1 279.7 L288.7 280.6 M62.3 40.4 L80.7 47.2 L88 46.8 M152.9 200 L177.5 190.2 M9.6 35.9 L37.1 38.2 M380.2 202 L364.5 213.9 L366.1 217 M279.2 290.3 L280.9 280.2 L268.1 277.9 M396.1 176.5 L402.1 174.3 L398.9 162.4 L400.6 161.4 M45.6 39.1 L44.8 41 L34.2 44.3 L37.7 47.9 L38 52.3 M65.3 85.7 L64.5 90.7 L83 90.6 M344.5 212.8 L341.4 208.6 L346.7 205.2 L349.5 195.9 M34.4 75.9 L12.3 86.1 M348.7 86.7 L330.1 85.6 L324.2 88.4 M19.3 284.5 L21.8 285.1 L19.9 288.5 L24.9 289.1 L29.6 287.1 L31.6 281.8 M126.4 249.8 L126.1 243.1 L130.4 236.1 L130.4 231.7 M37.1 38.2 L62.3 40.4 M383 209.2 L396.3 225.3 M385.4 51.9 L410.3 50.6 M346.8 20.2 L364.6 32.9 M220.4 87.5 L243.3 94.9 M179.9 300.2 L171.5 295.7 L180.5 289.4 L182.1 290.2 M299.1 267.3 L299.1 258.3 L295.4 249.3 M130.4 231.7 L124.3 232 L120.4 229.5 L116.8 224.4 L116.4 220.3 M318.2 266 L307.9 258.3 L298.6 256.3 M239 266.7 L223.6 272.6 L221.6 277.7 M382.9 74.2 L396 75.9 L397.7 72.5 L393.1 71 M184.1 159.1 L184.8 152.9 L172.5 145.4 M132 87.2 L114.7 74.6 M37.1 144.8 L43.7 151.4 L49.9 153.2 L53.2 157.1 M88.4 148.3 L92.1 136.2 L98.2 133.2 M75.2 199 L79.1 216.6 M146.4 247.7 L142.9 245.9 L138.1 232.9 M362.5 224.9 L365.6 228.8 L360.3 228.1 L351.9 221.7 M100.9 95.2 L86.6 93.4 L83 90.6 L83.5 87.6 M230.4 291.5 L253.7 294.8 M162.5 175.9 L164.3 171.7 L168.6 171.4 L174.5 173.1 L173.7 178.1 M191.3 219 L168.7 223.9 M8.8 176.5 L16.9 175.9 L28.4 168.3 M58.4 269.3 L42.6 275.4 L38.9 278.5 M102.9 67.1 L126.1 69.6 M241.8 302.3 L244.9 299.6 L249.4 286 M86.7 131.6 L74.9 128.2 L65 130.9 M344.6 294.5 L347.4 291.7 L342.9 286.4 L342.7 278.9 M60.4 195.7 L59.3 188.9 L73.2 188.1 M335.7 163 L342.5 171 L348.3 164.5 M165.7 149.7 L176.9 157.6 L184.1 159.1 M186.5 259.6 L182.8 255.1 L174.5 258.1 L177.2 262.8 M29.7 82 L25.6 79.1 L9.3 82.4 M229.5 51.3 L242.5 58 L240.3 62.7 M133.3 266.2 L138.4 267.2 L136.2 276.9 L137.9 279.6 M185.2 48.1 L205 56.2 M218 147.2 L216.2 144.7 L200.7 137 M223.5 278.7 L228.9 277.5 L226.9 280.6 L226.9 289 M80.4 69.5 L82.7 60 L75.4 55.3 M36.1 308.6 L31.5 305 L15.7 305.5 M100.8 95.4 L115.5 96.5 L122.1 94 M394.9 118.9 L399.4 135.4 M344 273.4 L333.9 269.9 L322.9 269.7 M202 217 L209.2 232.5 M85.6 229.5 L99.3 229 L99.1 222.7 M83.4 238.2 L73.7 247.3 L68 249.7 M207.9 232.9 L201.6 217.1 M202.4 59.4 L182.6 52.2 M123 86.9 L117.3 80.9 L105.8 78.7 M42.6 223.5 L39.2 207.4 M381.3 307.1 L368.2 299.6 L366.5 296.1 M208.6 82.5 L212.1 78.5 L225.4 84.2 M280.5 141 L266.6 135.7 L261.7 138.5 M130.2 28.6 L135.1 32.6 L144.6 33.3 L146.9 36.2 M186.8 264.9 L184.2 266.7 L183.2 274.6 L186.7 279.4 M14.2 163.3 L20.4 152.5 L25.9 151.2 M196.7 187.4 L200.5 188.2 L207.8 198.2 L209.8 198.5 M194.7 172.3 L185.3 164.2 L184.1 159.1 M57.5 46.7 L68.2 32.8 M112.4 50.2 L119 50.3 L132.1 54.9 M363.7 185.2 L383.8 189.6 M412.7 164.4 L392.1 167.6 M27.4 195.8 L26.2 180 M375.7 107.2 L355.2 110.4 M400.3 118 L379.8 121.1 M357 116.9 L377.5 113.7 M397.8 108.4 L377.4 111.6 M184.9 64.9 L181.5 69.2 L188.4 71.2 L193.1 74.9 M338.6 164.1 L344.6 168.3 L356.1 171.9 M68.5 167 L72 182.3 M184.4 276.5 L178 279.5 L166.4 275.2 M358.5 207.1 L374.6 202.5 L376.4 200.4 M225.7 141 L226.5 139.5 L223.2 138.2 L211.8 134.3 L210.9 135.7 M398.7 113.2 L378.6 116.3 M348.9 300.9 L360.1 301.8 L363.4 300.1 L362.6 296.9 M61.2 25.1 L60.1 23.7 L43.9 29.6 M98.2 133.2 L94.3 148 M398 110.8 L378 113.8 M134.4 267.8 L136.6 268.2 L133.3 281.5 M288.5 168.2 L295.2 161 L288.6 156.9 M184.2 276.3 L202.4 269.9 M88.9 167.1 L87.3 173.8 L92.3 181.2 M237.1 55.2 L239.2 52.4 L233.6 49.4 L227.5 47.8 L225.9 49.3 M24.3 151.6 L40.9 160.1 M307.6 285.8 L307.6 270.9 M361.5 285.9 L348.4 279.1 L346 281.3 M119.1 44.3 L125.5 32.3 L123.2 31.3 M399.9 120.9 L380.5 123.8 M405 48.4 L394.7 49.5 L393 42.7 M274.3 309.5 L278.1 295 M322.8 283.9 L342.4 283.9 M83.3 72.7 L82.2 76.9 L79.8 76.9 L79 81.1 L84.6 81.9 M83.5 87.6 L86.4 73.2 M223.7 126.9 L240.1 134 M399.5 85.6 L403 100 M358.7 279.6 L357.2 277.5 L344.6 277.1 L345 275.2 M33.1 297.3 L33.5 299.3 L41.6 298.9 L46.4 304.2 M387.5 73.9 L388.5 71.5 L403.6 75.3 M357.8 72.2 L366.8 69.3 L370.4 70 L373.3 66.9 M411 34.2 L404.9 34.2 L404.8 30.7 L409.3 30.5 L411.9 32.9 M10.3 272.4 L8.1 279.9 L16.5 279.7 M123.3 159.7 L122.5 164.7 L119.2 167.4 L117.1 172.6 M190.9 220.2 L187.8 231.2 L185.4 233.8 M195.4 78.4 L191.4 83.2 L199.9 88.9 M38.2 236.5 L37.7 232.1 L34.2 232.1 L34.5 239.5 M130.1 148.8 L121.9 151 L123.4 158.2 M203.8 80.6 L220.4 87.5 M374.6 102 L393.1 99 M210.2 94.8 L200.5 106.9 M397.7 115.9 L379.3 118.8 M405.3 310.8 L409.6 297.1 M295.3 191.7 L309.5 186.4 L312.1 187.2 M387.6 63.6 L404.3 69.7 M129.4 34.1 L110.7 33.9 M192.2 215 L202.2 211.4 L208.8 213.9 M134.9 275.1 L121.9 272.4 L120.8 270.6 L122.4 269.1 M206.3 227.1 L193.2 230.2 L188.3 229.6 M259.4 258.8 L266.4 256.1 L267.6 257.4 L260.4 260.5 M158.9 55 L176.5 59.3 M151 266.4 L139.1 268.5 L140.3 272.4 M178.2 102.7 L166.3 92.3 M57.5 224.7 L58.7 238.4 M400 126.7 L382.1 129.5 M388.6 206.7 L398.1 218.4 M378.4 207.9 L365.3 217.3 M168.2 69 L152.9 61.6 M263.6 136 L279.8 142.1 M393.2 172.3 L411 169.6 M26.9 190.2 L12.3 190.6 L11.2 188.4 M358.2 206.4 L364.8 199.6 L367.5 200.1 L366.6 203.1 M176.1 206 L168.1 193.9 M341.4 296.4 L338.2 293.9 L325 293.9 M261.7 262.2 L269.1 259.9 L269.8 261.3 L262.9 263.9 M37.1 144.8 L49 135 M316.6 194 L313.7 194.7 L309.4 188.4 L304.4 190 M189.5 224.8 L182.7 226.2 L182.5 232 L184.5 233.6 M396.4 210.3 L410.1 212.2 L409.5 215.1 M171.5 207.7 L163.2 195.9 M263.5 296.5 L247.7 291.2 M322.8 277.5 L340.6 277.5 M278.2 222.1 L275.2 223.3 L276.2 225 L280.2 230.9 L283.2 230.2 M203.7 57.9 L219.4 64.3 M19.7 165.2 L26.5 153 M56.9 250.2 L70.1 258.8 M40.9 160.1 L27.2 167.8 M44.8 15.9 L44.7 20.3 L46.7 21.3 L56.1 21.2 M388 72.4 L404.7 76.7 M163.8 94.8 L152.9 84.4 M400.1 129.5 L382.9 132.2 M158.5 98.3 L146.8 88.5" fill="none" stroke="#69776e" stroke-width="1.25" opacity="0.58" stroke-linecap="round" stroke-linejoin="round"/>
</g>
</g>
<g data-layer="north-up-compass" fill="none" stroke="#233934" stroke-linecap="round" stroke-linejoin="round" opacity="0.62">
<path d="M382 48L382 23" stroke-width="1.8"/>
<path d="M382 23L373 39M382 23L391 39" stroke-width="1.8"/>
<circle cx="382" cy="48" r="13" stroke-width="1.1" opacity="0.38"/>
</g>
<rect x="8" y="8" width="404" height="304" rx="16" fill="none" stroke="#233934" stroke-width="1.4" opacity="0.44"/>
</svg>
