<svg xmlns="http://www.w3.org/2000/svg" viewBox="0 0 420 320" role="img" aria-label="Unlabeled north-up street-grid crop" data-orientation="north-up">
<metadata>{"orientation":"north-up","projection":"local-web-mercator"}</metadata>
<defs>
<clipPath id="mapCrop"><rect x="8" y="8" width="404" height="304" rx="16"/></clipPath>
</defs>
<rect width="420" height="320" fill="#ede7d8"/>
<rect x="8" y="8" width="404" height="304" rx="16" fill="#f7f1e3" stroke="#d8cbb2" stroke-width="1.25"/>
<g clip-path="url(#mapCrop)">
<g data-layer="major-road-casing">
<path d="M23.5 11.2 L0 12.9 L0 0" fill="none" stroke="#fcf7e8" stroke-width="6.4" opacity="0.92" stroke-linecap="round" stroke-linejoin="round"/>
<path d="M0 189.3 L0 192 L5.8 192.3 L21.4 189.3" fill="none" stroke="#fcf7e8" stroke-width="6.4" opacity="0.92" stroke-linecap="round" stroke-linejoin="round"/>
<path d="M17.5 189.8 L1.5 191.6 L0 188.4" fill="none" stroke="#fcf7e8" stroke-width="6.4" opacity="0.92" stroke-linecap="round" stroke-linejoin="round"/>
<path d="M70 177.5 L100.3 172.4" fill="none" stroke="#fcf7e8" stroke-width="6.4" opacity="0.92" stroke-linecap="round" stroke-linejoin="round"/>
<path d="M100.2 172 L69.9 177.1" fill="none" stroke="#fcf7e8" stroke-width="6.4" opacity="0.92" stroke-linecap="round" stroke-linejoin="round"/>
<path d="M0 13.6 L16.8 12.9" fill="none" stroke="#fcf7e8" stroke-width="6.4" opacity="0.92" stroke-linecap="round" stroke-linejoin="round"/>
<path d="M54.2 180.4 L70 177.5" fill="none" stroke="#fcf7e8" stroke-width="6.4" opacity="0.92" stroke-linecap="round" stroke-linejoin="round"/>
<path d="M16.8 12.9 L32.8 11.2" fill="none" stroke="#fcf7e8" stroke-width="6.4" opacity="0.92" stroke-linecap="round" stroke-linejoin="round"/>
<path d="M68.1 177.4 L53.1 180" fill="none" stroke="#fcf7e8" stroke-width="6.4" opacity="0.92" stroke-linecap="round" stroke-linejoin="round"/>
<path d="M43.3 11.1 L29.8 10.7" fill="none" stroke="#fcf7e8" stroke-width="6.4" opacity="0.92" stroke-linecap="round" stroke-linejoin="round"/>
<path d="M29.7 186 L17.5 189.8" fill="none" stroke="#fcf7e8" stroke-width="6.4" opacity="0.92" stroke-linecap="round" stroke-linejoin="round"/>
<path d="M47.7 181.1 L36.4 184" fill="none" stroke="#fcf7e8" stroke-width="6.4" opacity="0.92" stroke-linecap="round" stroke-linejoin="round"/>
<path d="M111.7 170.6 L100.2 172" fill="none" stroke="#fcf7e8" stroke-width="6.4" opacity="0.92" stroke-linecap="round" stroke-linejoin="round"/>
<path d="M101.2 172.3 L111.6 171.1" fill="none" stroke="#fcf7e8" stroke-width="6.4" opacity="0.92" stroke-linecap="round" stroke-linejoin="round"/>
<path d="M122.2 171.1 L111.7 170.6" fill="none" stroke="#fcf7e8" stroke-width="6.4" opacity="0.92" stroke-linecap="round" stroke-linejoin="round"/>
<path d="M131.2 173.2 L122.2 171.1" fill="none" stroke="#fcf7e8" stroke-width="6.4" opacity="0.92" stroke-linecap="round" stroke-linejoin="round"/>
<path d="M21.4 189.3 L30 186.7" fill="none" stroke="#fcf7e8" stroke-width="6.4" opacity="0.92" stroke-linecap="round" stroke-linejoin="round"/>
<path d="M119 171.3 L127.5 172.7" fill="none" stroke="#fcf7e8" stroke-width="6.4" opacity="0.92" stroke-linecap="round" stroke-linejoin="round"/>
<path d="M37 184.5 L44.4 182.5" fill="none" stroke="#fcf7e8" stroke-width="6.4" opacity="0.92" stroke-linecap="round" stroke-linejoin="round"/>
<path d="M30 186.7 L37 184.5" fill="none" stroke="#fcf7e8" stroke-width="6.4" opacity="0.92" stroke-linecap="round" stroke-linejoin="round"/>
<path d="M36.4 184 L29.7 186" fill="none" stroke="#fcf7e8" stroke-width="6.4" opacity="0.92" stroke-linecap="round" stroke-linejoin="round"/>
<path d="M34.8 11.2 L41.6 12.1" fill="none" stroke="#fcf7e8" stroke-width="6.4" opacity="0.92" stroke-linecap="round" stroke-linejoin="round"/>
<path d="M29.8 10.7 L23.5 11.2" fill="none" stroke="#fcf7e8" stroke-width="6.4" opacity="0.92" stroke-linecap="round" stroke-linejoin="round"/>
<path d="M41.6 12.1 L47 13.8" fill="none" stroke="#fcf7e8" stroke-width="6.4" opacity="0.92" stroke-linecap="round" stroke-linejoin="round"/>
<path d="M113.3 171.1 L119 171.3" fill="none" stroke="#fcf7e8" stroke-width="6.4" opacity="0.92" stroke-linecap="round" stroke-linejoin="round"/>
<path d="M53.1 180 L47.7 181.1" fill="none" stroke="#fcf7e8" stroke-width="6.4" opacity="0.92" stroke-linecap="round" stroke-linejoin="round"/>
<path d="M136.9 175.9 L132.6 173.6" fill="none" stroke="#fcf7e8" stroke-width="6.4" opacity="0.92" stroke-linecap="round" stroke-linejoin="round"/>
<path d="M127.5 172.7 L132.2 174.2" fill="none" stroke="#fcf7e8" stroke-width="6.4" opacity="0.92" stroke-linecap="round" stroke-linejoin="round"/>
<path d="M47.5 9.3 L43.3 11.1" fill="none" stroke="#fcf7e8" stroke-width="6.4" opacity="0.92" stroke-linecap="round" stroke-linejoin="round"/>
<path d="M132.2 174.2 L136 176.2" fill="none" stroke="#fcf7e8" stroke-width="6.4" opacity="0.92" stroke-linecap="round" stroke-linejoin="round"/>
<path d="M49.9 181.3 L54.2 180.4" fill="none" stroke="#fcf7e8" stroke-width="6.4" opacity="0.92" stroke-linecap="round" stroke-linejoin="round"/>
<path d="M143.6 182.2 L141.2 180" fill="none" stroke="#fcf7e8" stroke-width="6.4" opacity="0.92" stroke-linecap="round" stroke-linejoin="round"/>
<path d="M138.2 177.8 L140.5 180.3" fill="none" stroke="#fcf7e8" stroke-width="6.4" opacity="0.92" stroke-linecap="round" stroke-linejoin="round"/>
<path d="M141.2 180 L139 177.6" fill="none" stroke="#fcf7e8" stroke-width="6.4" opacity="0.92" stroke-linecap="round" stroke-linejoin="round"/>
<path d="M140.5 180.3 L142 182.6" fill="none" stroke="#fcf7e8" stroke-width="6.4" opacity="0.92" stroke-linecap="round" stroke-linejoin="round"/>
<path d="M47 13.8 L50.2 14.1" fill="none" stroke="#fcf7e8" stroke-width="6.4" opacity="0.92" stroke-linecap="round" stroke-linejoin="round"/>
<path d="M136 176.2 L138.2 177.8" fill="none" stroke="#fcf7e8" stroke-width="6.4" opacity="0.92" stroke-linecap="round" stroke-linejoin="round"/>
<path d="M139 177.6 L136.9 175.9" fill="none" stroke="#fcf7e8" stroke-width="6.4" opacity="0.92" stroke-linecap="round" stroke-linejoin="round"/>
<path d="M44.4 182.5 L47.3 181.9" fill="none" stroke="#fcf7e8" stroke-width="6.4" opacity="0.92" stroke-linecap="round" stroke-linejoin="round"/>
<path d="M47.3 181.9 L49.9 181.3" fill="none" stroke="#fcf7e8" stroke-width="6.4" opacity="0.92" stroke-linecap="round" stroke-linejoin="round"/>
<path d="M32.8 11.2 L34.8 11.2" fill="none" stroke="#fcf7e8" stroke-width="6.4" opacity="0.92" stroke-linecap="round" stroke-linejoin="round"/>
<path d="M69.9 177.1 L68.1 177.4" fill="none" stroke="#fcf7e8" stroke-width="6.4" opacity="0.92" stroke-linecap="round" stroke-linejoin="round"/>
<path d="M111.6 171.1 L113.3 171.1" fill="none" stroke="#fcf7e8" stroke-width="6.4" opacity="0.92" stroke-linecap="round" stroke-linejoin="round"/>
<path d="M132.6 173.6 L131.2 173.2" fill="none" stroke="#fcf7e8" stroke-width="6.4" opacity="0.92" stroke-linecap="round" stroke-linejoin="round"/>
<path d="M144.5 182.4 L143.6 182.2" fill="none" stroke="#fcf7e8" stroke-width="6.4" opacity="0.92" stroke-linecap="round" stroke-linejoin="round"/>
<path d="M100.3 172.4 L101.2 172.3" fill="none" stroke="#fcf7e8" stroke-width="6.4" opacity="0.92" stroke-linecap="round" stroke-linejoin="round"/>
<path d="M367.8 87.8 L386.7 87.4 L404.8 81.1" fill="none" stroke="#fcf7e8" stroke-width="6.4" opacity="0.92" stroke-linecap="round" stroke-linejoin="round"/>
<path d="M404.4 80.7 L381.4 87.7" fill="none" stroke="#fcf7e8" stroke-width="6.4" opacity="0.92" stroke-linecap="round" stroke-linejoin="round"/>
<path d="M404.8 81.1 L420 75.6" fill="none" stroke="#fcf7e8" stroke-width="6.4" opacity="0.92" stroke-linecap="round" stroke-linejoin="round"/>
<path d="M420 75.7 L404.4 80.7" fill="none" stroke="#fcf7e8" stroke-width="6.4" opacity="0.92" stroke-linecap="round" stroke-linejoin="round"/>
<path d="M349.1 84.6 L362.7 86.9" fill="none" stroke="#fcf7e8" stroke-width="6.4" opacity="0.92" stroke-linecap="round" stroke-linejoin="round"/>
<path d="M362.8 86.4 L353 84.8" fill="none" stroke="#fcf7e8" stroke-width="6.4" opacity="0.92" stroke-linecap="round" stroke-linejoin="round"/>
<path d="M378.5 87.9 L370.1 87.6" fill="none" stroke="#fcf7e8" stroke-width="6.4" opacity="0.92" stroke-linecap="round" stroke-linejoin="round"/>
<path d="M362.7 86.9 L367.8 87.8" fill="none" stroke="#fcf7e8" stroke-width="6.4" opacity="0.92" stroke-linecap="round" stroke-linejoin="round"/>
<path d="M344.4 83.8 L349.1 84.6" fill="none" stroke="#fcf7e8" stroke-width="6.4" opacity="0.92" stroke-linecap="round" stroke-linejoin="round"/>
<path d="M353 84.8 L349.2 84.1" fill="none" stroke="#fcf7e8" stroke-width="6.4" opacity="0.92" stroke-linecap="round" stroke-linejoin="round"/>
<path d="M381.4 87.7 L378.5 87.9" fill="none" stroke="#fcf7e8" stroke-width="6.4" opacity="0.92" stroke-linecap="round" stroke-linejoin="round"/>
<path d="M349.2 84.1 L346.9 83.8" fill="none" stroke="#fcf7e8" stroke-width="6.4" opacity="0.92" stroke-linecap="round" stroke-linejoin="round"/>
<path d="M370.1 87.6 L367.9 87.3" fill="none" stroke="#fcf7e8" stroke-width="6.4" opacity="0.92" stroke-linecap="round" stroke-linejoin="round"/>
<path d="M346.9 83.8 L344.9 83.4" fill="none" stroke="#fcf7e8" stroke-width="6.4" opacity="0.92" stroke-linecap="round" stroke-linejoin="round"/>
<path d="M367.9 87.3 L366 87" fill="none" stroke="#fcf7e8" stroke-width="6.4" opacity="0.92" stroke-linecap="round" stroke-linejoin="round"/>
<path d="M364.6 86.7 L362.8 86.4" fill="none" stroke="#fcf7e8" stroke-width="6.4" opacity="0.92" stroke-linecap="round" stroke-linejoin="round"/>
<path d="M366 87 L364.6 86.7" fill="none" stroke="#fcf7e8" stroke-width="6.4" opacity="0.92" stroke-linecap="round" stroke-linejoin="round"/>
<path d="M336.8 57.4 L334.4 52.2 L325.1 44" fill="none" stroke="#fcf7e8" stroke-width="6.4" opacity="0.92" stroke-linecap="round" stroke-linejoin="round"/>
<path d="M135.1 58.6 L117.6 49.4" fill="none" stroke="#fcf7e8" stroke-width="6.4" opacity="0.92" stroke-linecap="round" stroke-linejoin="round"/>
<path d="M324.3 44.6 L333.2 52.2 L335.8 57.6" fill="none" stroke="#fcf7e8" stroke-width="6.4" opacity="0.92" stroke-linecap="round" stroke-linejoin="round"/>
<path d="M109.7 30.4 L104.6 21.2 L104 15.7" fill="none" stroke="#fcf7e8" stroke-width="6.4" opacity="0.92" stroke-linecap="round" stroke-linejoin="round"/>
<path d="M59.7 34.5 L54.5 19.8" fill="none" stroke="#fcf7e8" stroke-width="6.4" opacity="0.92" stroke-linecap="round" stroke-linejoin="round"/>
<path d="M308.9 30.2 L296.8 21.4" fill="none" stroke="#fcf7e8" stroke-width="6.4" opacity="0.92" stroke-linecap="round" stroke-linejoin="round"/>
<path d="M286.6 141.6 L282.9 153" fill="none" stroke="#fcf7e8" stroke-width="6.4" opacity="0.92" stroke-linecap="round" stroke-linejoin="round"/>
<path d="M216.5 41.4 L209 40.1 L203.6 36.4" fill="none" stroke="#fcf7e8" stroke-width="6.4" opacity="0.92" stroke-linecap="round" stroke-linejoin="round"/>
<path d="M237.4 23.2 L246.1 32.4" fill="none" stroke="#fcf7e8" stroke-width="6.4" opacity="0.92" stroke-linecap="round" stroke-linejoin="round"/>
</g>
<g data-layer="major-road">
<path d="M23.5 11.2 L0 12.9 L0 0" fill="none" stroke="#1f3733" stroke-width="2.7" opacity="0.9" stroke-linecap="round" stroke-linejoin="round"/>
<path d="M0 189.3 L0 192 L5.8 192.3 L21.4 189.3" fill="none" stroke="#1f3733" stroke-width="2.7" opacity="0.9" stroke-linecap="round" stroke-linejoin="round"/>
<path d="M17.5 189.8 L1.5 191.6 L0 188.4" fill="none" stroke="#1f3733" stroke-width="2.7" opacity="0.9" stroke-linecap="round" stroke-linejoin="round"/>
<path d="M70 177.5 L100.3 172.4" fill="none" stroke="#1f3733" stroke-width="2.7" opacity="0.9" stroke-linecap="round" stroke-linejoin="round"/>
<path d="M100.2 172 L69.9 177.1" fill="none" stroke="#1f3733" stroke-width="2.7" opacity="0.9" stroke-linecap="round" stroke-linejoin="round"/>
<path d="M0 13.6 L16.8 12.9" fill="none" stroke="#1f3733" stroke-width="2.7" opacity="0.9" stroke-linecap="round" stroke-linejoin="round"/>
<path d="M54.2 180.4 L70 177.5" fill="none" stroke="#1f3733" stroke-width="2.7" opacity="0.9" stroke-linecap="round" stroke-linejoin="round"/>
<path d="M16.8 12.9 L32.8 11.2" fill="none" stroke="#1f3733" stroke-width="2.7" opacity="0.9" stroke-linecap="round" stroke-linejoin="round"/>
<path d="M68.1 177.4 L53.1 180" fill="none" stroke="#1f3733" stroke-width="2.7" opacity="0.9" stroke-linecap="round" stroke-linejoin="round"/>
<path d="M43.3 11.1 L29.8 10.7" fill="none" stroke="#1f3733" stroke-width="2.7" opacity="0.9" stroke-linecap="round" stroke-linejoin="round"/>
<path d="M29.7 186 L17.5 189.8" fill="none" stroke="#1f3733" stroke-width="2.7" opacity="0.9" stroke-linecap="round" stroke-linejoin="round"/>
<path d="M47.7 181.1 L36.4 184" fill="none" stroke="#1f3733" stroke-width="2.7" opacity="0.9" stroke-linecap="round" stroke-linejoin="round"/>
<path d="M111.7 170.6 L100.2 172" fill="none" stroke="#1f3733" stroke-width="2.7" opacity="0.9" stroke-linecap="round" stroke-linejoin="round"/>
<path d="M101.2 172.3 L111.6 171.1" fill="none" stroke="#1f3733" stroke-width="2.7" opacity="0.9" stroke-linecap="round" stroke-linejoin="round"/>
<path d="M122.2 171.1 L111.7 170.6" fill="none" stroke="#1f3733" stroke-width="2.7" opacity="0.9" stroke-linecap="round" stroke-linejoin="round"/>
<path d="M131.2 173.2 L122.2 171.1" fill="none" stroke="#1f3733" stroke-width="2.7" opacity="0.9" stroke-linecap="round" stroke-linejoin="round"/>
<path d="M21.4 189.3 L30 186.7" fill="none" stroke="#1f3733" stroke-width="2.7" opacity="0.9" stroke-linecap="round" stroke-linejoin="round"/>
<path d="M119 171.3 L127.5 172.7" fill="none" stroke="#1f3733" stroke-width="2.7" opacity="0.9" stroke-linecap="round" stroke-linejoin="round"/>
<path d="M37 184.5 L44.4 182.5" fill="none" stroke="#1f3733" stroke-width="2.7" opacity="0.9" stroke-linecap="round" stroke-linejoin="round"/>
<path d="M30 186.7 L37 184.5" fill="none" stroke="#1f3733" stroke-width="2.7" opacity="0.9" stroke-linecap="round" stroke-linejoin="round"/>
<path d="M36.4 184 L29.7 186" fill="none" stroke="#1f3733" stroke-width="2.7" opacity="0.9" stroke-linecap="round" stroke-linejoin="round"/>
<path d="M34.8 11.2 L41.6 12.1" fill="none" stroke="#1f3733" stroke-width="2.7" opacity="0.9" stroke-linecap="round" stroke-linejoin="round"/>
<path d="M29.8 10.7 L23.5 11.2" fill="none" stroke="#1f3733" stroke-width="2.7" opacity="0.9" stroke-linecap="round" stroke-linejoin="round"/>
<path d="M41.6 12.1 L47 13.8" fill="none" stroke="#1f3733" stroke-width="2.7" opacity="0.9" stroke-linecap="round" stroke-linejoin="round"/>
<path d="M113.3 171.1 L119 171.3" fill="none" stroke="#1f3733" stroke-width="2.7" opacity="0.9" stroke-linecap="round" stroke-linejoin="round"/>
<path d="M53.1 180 L47.7 181.1" fill="none" stroke="#1f3733" stroke-width="2.7" opacity="0.9" stroke-linecap="round" stroke-linejoin="round"/>
<path d="M136.9 175.9 L132.6 173.6" fill="none" stroke="#1f3733" stroke-width="2.7" opacity="0.9" stroke-linecap="round" stroke-linejoin="round"/>
<path d="M127.5 172.7 L132.2 174.2" fill="none" stroke="#1f3733" stroke-width="2.7" opacity="0.9" stroke-linecap="round" stroke-linejoin="round"/>
<path d="M47.5 9.3 L43.3 11.1" fill="none" stroke="#1f3733" stroke-width="2.7" opacity="0.9" stroke-linecap="round" stroke-linejoin="round"/>
<path d="M132.2 174.2 L136 176.2" fill="none" stroke="#1f3733" stroke-width="2.7" opacity="0.9" stroke-linecap="round" stroke-linejoin="round"/>
<path d="M49.9 181.3 L54.2 180.4" fill="none" stroke="#1f3733" stroke-width="2.7" opacity="0.9" stroke-linecap="round" stroke-linejoin="round"/>
<path d="M143.6 182.2 L141.2 180" fill="none" stroke="#1f3733" stroke-width="2.7" opacity="0.9" stroke-linecap="round" stroke-linejoin="round"/>
<path d="M138.2 177.8 L140.5 180.3" fill="none" stroke="#1f3733" stroke-width="2.7" opacity="0.9" stroke-linecap="round" stroke-linejoin="round"/>
<path d="M141.2 180 L139 177.6" fill="none" stroke="#1f3733" stroke-width="2.7" opacity="0.9" stroke-linecap="round" stroke-linejoin="round"/>
<path d="M140.5 180.3 L142 182.6" fill="none" stroke="#1f3733" stroke-width="2.7" opacity="0.9" stroke-linecap="round" stroke-linejoin="round"/>
<path d="M47 13.8 L50.2 14.1" fill="none" stroke="#1f3733" stroke-width="2.7" opacity="0.9" stroke-linecap="round" stroke-linejoin="round"/>
<path d="M136 176.2 L138.2 177.8" fill="none" stroke="#1f3733" stroke-width="2.7" opacity="0.9" stroke-linecap="round" stroke-linejoin="round"/>
<path d="M139 177.6 L136.9 175.9" fill="none" stroke="#1f3733" stroke-width="2.7" opacity="0.9" stroke-linecap="round" stroke-linejoin="round"/>
<path d="M44.4 182.5 L47.3 181.9" fill="none" stroke="#1f3733" stroke-width="2.7" opacity="0.9" stroke-linecap="round" stroke-linejoin="round"/>
<path d="M47.3 181.9 L49.9 181.3" fill="none" stroke="#1f3733" stroke-width="2.7" opacity="0.9" stroke-linecap="round" stroke-linejoin="round"/>
<path d="M32.8 11.2 L34.8 11.2" fill="none" stroke="#1f3733" stroke-width="2.7" opacity="0.9" stroke-linecap="round" stroke-linejoin="round"/>
<path d="M69.9 177.1 L68.1 177.4" fill="none" stroke="#1f3733" stroke-width="2.7" opacity="0.9" stroke-linecap="round" stroke-linejoin="round"/>
<path d="M111.6 171.1 L113.3 171.1" fill="none" stroke="#1f3733" stroke-width="2.7" opacity="0.9" stroke-linecap="round" stroke-linejoin="round"/>
<path d="M132.6 173.6 L131.2 173.2" fill="none" stroke="#1f3733" stroke-width="2.7" opacity="0.9" stroke-linecap="round" stroke-linejoin="round"/>
<path d="M144.5 182.4 L143.6 182.2" fill="none" stroke="#1f3733" stroke-width="2.7" opacity="0.9" stroke-linecap="round" stroke-linejoin="round"/>
<path d="M100.3 172.4 L101.2 172.3" fill="none" stroke="#1f3733" stroke-width="2.7" opacity="0.9" stroke-linecap="round" stroke-linejoin="round"/>
<path d="M367.8 87.8 L386.7 87.4 L404.8 81.1" fill="none" stroke="#1f3733" stroke-width="2.7" opacity="0.9" stroke-linecap="round" stroke-linejoin="round"/>
<path d="M404.4 80.7 L381.4 87.7" fill="none" stroke="#1f3733" stroke-width="2.7" opacity="0.9" stroke-linecap="round" stroke-linejoin="round"/>
<path d="M404.8 81.1 L420 75.6" fill="none" stroke="#1f3733" stroke-width="2.7" opacity="0.9" stroke-linecap="round" stroke-linejoin="round"/>
<path d="M420 75.7 L404.4 80.7" fill="none" stroke="#1f3733" stroke-width="2.7" opacity="0.9" stroke-linecap="round" stroke-linejoin="round"/>
<path d="M349.1 84.6 L362.7 86.9" fill="none" stroke="#1f3733" stroke-width="2.7" opacity="0.9" stroke-linecap="round" stroke-linejoin="round"/>
<path d="M362.8 86.4 L353 84.8" fill="none" stroke="#1f3733" stroke-width="2.7" opacity="0.9" stroke-linecap="round" stroke-linejoin="round"/>
<path d="M378.5 87.9 L370.1 87.6" fill="none" stroke="#1f3733" stroke-width="2.7" opacity="0.9" stroke-linecap="round" stroke-linejoin="round"/>
<path d="M362.7 86.9 L367.8 87.8" fill="none" stroke="#1f3733" stroke-width="2.7" opacity="0.9" stroke-linecap="round" stroke-linejoin="round"/>
<path d="M344.4 83.8 L349.1 84.6" fill="none" stroke="#1f3733" stroke-width="2.7" opacity="0.9" stroke-linecap="round" stroke-linejoin="round"/>
<path d="M353 84.8 L349.2 84.1" fill="none" stroke="#1f3733" stroke-width="2.7" opacity="0.9" stroke-linecap="round" stroke-linejoin="round"/>
<path d="M381.4 87.7 L378.5 87.9" fill="none" stroke="#1f3733" stroke-width="2.7" opacity="0.9" stroke-linecap="round" stroke-linejoin="round"/>
<path d="M349.2 84.1 L346.9 83.8" fill="none" stroke="#1f3733" stroke-width="2.7" opacity="0.9" stroke-linecap="round" stroke-linejoin="round"/>
<path d="M370.1 87.6 L367.9 87.3" fill="none" stroke="#1f3733" stroke-width="2.7" opacity="0.9" stroke-linecap="round" stroke-linejoin="round"/>
<path d="M346.9 83.8 L344.9 83.4" fill="none" stroke="#1f3733" stroke-width="2.7" opacity="0.9" stroke-linecap="round" stroke-linejoin="round"/>
<path d="M367.9 87.3 L366 87" fill="none" stroke="#1f3733" stroke-width="2.7" opacity="0.9" stroke-linecap="round" stroke-linejoin="round"/>
<path d="M364.6 86.7 L362.8 86.4" fill="none" stroke="#1f3733" stroke-width="2.7" opacity="0.9" stroke-linecap="round" stroke-linejoin="round"/>
<path d="M366 87 L364.6 86.7" fill="none" stroke="#1f3733" stroke-width="2.7" opacity="0.9" stroke-linecap="round" stroke-linejoin="round"/>
<path d="M336.8 57.4 L334.4 52.2 L325.1 44" fill="none" stroke="#1f3733" stroke-width="2.7" opacity="0.9" stroke-linecap="round" stroke-linejoin="round"/>
<path d="M135.1 58.6 L117.6 49.4" fill="none" stroke="#1f3733" stroke-width="2.7" opacity="0.9" stroke-linecap="round" stroke-linejoin="round"/>
<path d="M324.3 44.6 L333.2 52.2 L335.8 57.6" fill="none" stroke="#1f3733" stroke-width="2.7" opacity="0.9" stroke-linecap="round" stroke-linejoin="round"/>
<path d="M109.7 30.4 L104.6 21.2 L104 15.7" fill="none" stroke="#1f3733" stroke-width="2.7" opacity="0.9" stroke-linecap="round" stroke-linejoin="round"/>
<path d="M59.7 34.5 L54.5 19.8" fill="none" stroke="#1f3733" stroke-width="2.7" opacity="0.9" stroke-linecap="round" stroke-linejoin="round"/>
<path d="M308.9 30.2 L296.8 21.4" fill="none" stroke="#1f3733" stroke-width="2.7" opacity="0.9" stroke-linecap="round" stroke-linejoin="round"/>
<path d="M286.6 141.6 L282.9 153" fill="none" stroke="#1f3733" stroke-width="2.7" opacity="0.9" stroke-linecap="round" stroke-linejoin="round"/>
<path d="M216.5 41.4 L209 40.1 L203.6 36.4" fill="none" stroke="#1f3733" stroke-width="2.7" opacity="0.9" stroke-linecap="round" stroke-linejoin="round"/>
<path d="M237.4 23.2 L246.1 32.4" fill="none" stroke="#1f3733" stroke-width="2.7" opacity="0.9" stroke-linecap="round" stroke-linejoin="round"/>
</g>
<g data-layer="minor-road-casing">
<path d="M34.8 225.6 L28.7 216" fill="none" stroke="#fbf7eb" stroke-width="3.4" opacity="0.62" stroke-linecap="round" stroke-linejoin="round"/>
<path d="M330.5 100.2 L323.5 109.2" fill="none" stroke="#fbf7eb" stroke-width="3.4" opacity="0.62" stroke-linecap="round" stroke-linejoin="round"/>
<path d="M348.9 91.8 L346.3 101.6" fill="none" stroke="#fbf7eb" stroke-width="3.4" opacity="0.62" stroke-linecap="round" stroke-linejoin="round"/>
<path d="M210.7 224.4 L223.5 226.8" fill="none" stroke="#fbf7eb" stroke-width="3.4" opacity="0.62" stroke-linecap="round" stroke-linejoin="round"/>
<path d="M63 217.3 L60.7 227" fill="none" stroke="#fbf7eb" stroke-width="3.4" opacity="0.62" stroke-linecap="round" stroke-linejoin="round"/>
<path d="M61.7 232.7 L64.2 242.3" fill="none" stroke="#fbf7eb" stroke-width="3.4" opacity="0.62" stroke-linecap="round" stroke-linejoin="round"/>
<path d="M171 126.3 L159 127.8" fill="none" stroke="#fbf7eb" stroke-width="3.4" opacity="0.62" stroke-linecap="round" stroke-linejoin="round"/>
<path d="M173 128.3 L184.6 126.1" fill="none" stroke="#fbf7eb" stroke-width="3.4" opacity="0.62" stroke-linecap="round" stroke-linejoin="round"/>
<path d="M415.8 73.3 L410.6 74 L406 77.5" fill="none" stroke="#fbf7eb" stroke-width="3.4" opacity="0.62" stroke-linecap="round" stroke-linejoin="round"/>
<path d="M192 36 L203.4 34.2" fill="none" stroke="#fbf7eb" stroke-width="3.4" opacity="0.62" stroke-linecap="round" stroke-linejoin="round"/>
<path d="M129.8 188.6 L141.5 188" fill="none" stroke="#fbf7eb" stroke-width="3.4" opacity="0.62" stroke-linecap="round" stroke-linejoin="round"/>
<path d="M209.4 223.7 L205.9 215.6" fill="none" stroke="#fbf7eb" stroke-width="3.4" opacity="0.62" stroke-linecap="round" stroke-linejoin="round"/>
<path d="M403.5 89.9 L394.9 95.5" fill="none" stroke="#fbf7eb" stroke-width="3.4" opacity="0.62" stroke-linecap="round" stroke-linejoin="round"/>
<path d="M24.4 210.6 L15 215.3" fill="none" stroke="#fbf7eb" stroke-width="3.4" opacity="0.62" stroke-linecap="round" stroke-linejoin="round"/>
<path d="M162.8 186.4 L152.1 187" fill="none" stroke="#fbf7eb" stroke-width="3.4" opacity="0.62" stroke-linecap="round" stroke-linejoin="round"/>
<path d="M402.4 80.1 L393.8 83.9" fill="none" stroke="#fbf7eb" stroke-width="3.4" opacity="0.62" stroke-linecap="round" stroke-linejoin="round"/>
<path d="M65.5 247.6 L57.7 252" fill="none" stroke="#fbf7eb" stroke-width="3.4" opacity="0.62" stroke-linecap="round" stroke-linejoin="round"/>
<path d="M271.4 139.4 L261.9 139.8" fill="none" stroke="#fbf7eb" stroke-width="3.4" opacity="0.62" stroke-linecap="round" stroke-linejoin="round"/>
<path d="M335.7 171.1 L337.6 169.2 L335.2 165.1" fill="none" stroke="#fbf7eb" stroke-width="3.4" opacity="0.62" stroke-linecap="round" stroke-linejoin="round"/>
<path d="M36.9 230.8 L45.8 229.2" fill="none" stroke="#fbf7eb" stroke-width="3.4" opacity="0.62" stroke-linecap="round" stroke-linejoin="round"/>
<path d="M331.8 98.6 L340.3 100.8" fill="none" stroke="#fbf7eb" stroke-width="3.4" opacity="0.62" stroke-linecap="round" stroke-linejoin="round"/>
<path d="M185 23.3 L186.9 29.8" fill="none" stroke="#fbf7eb" stroke-width="3.4" opacity="0.62" stroke-linecap="round" stroke-linejoin="round"/>
<path d="M113.1 13.2 L122 13" fill="none" stroke="#fbf7eb" stroke-width="3.4" opacity="0.62" stroke-linecap="round" stroke-linejoin="round"/>
<path d="M174.6 158 L183.2 158.5" fill="none" stroke="#fbf7eb" stroke-width="3.4" opacity="0.62" stroke-linecap="round" stroke-linejoin="round"/>
<path d="M134.1 229.3 L136.4 235.6" fill="none" stroke="#fbf7eb" stroke-width="3.4" opacity="0.62" stroke-linecap="round" stroke-linejoin="round"/>
<path d="M229.3 198.8 L224.3 193.5" fill="none" stroke="#fbf7eb" stroke-width="3.4" opacity="0.62" stroke-linecap="round" stroke-linejoin="round"/>
<path d="M161.5 131.3 L169.7 129.4" fill="none" stroke="#fbf7eb" stroke-width="3.4" opacity="0.62" stroke-linecap="round" stroke-linejoin="round"/>
<path d="M205.9 217.5 L208.5 223.5" fill="none" stroke="#fbf7eb" stroke-width="3.4" opacity="0.62" stroke-linecap="round" stroke-linejoin="round"/>
<path d="M35.2 20.5 L29.4 16.1" fill="none" stroke="#fbf7eb" stroke-width="3.4" opacity="0.62" stroke-linecap="round" stroke-linejoin="round"/>
<path d="M134.7 229.6 L135.5 223.5" fill="none" stroke="#fbf7eb" stroke-width="3.4" opacity="0.62" stroke-linecap="round" stroke-linejoin="round"/>
<path d="M183 17.4 L185 23.3" fill="none" stroke="#fbf7eb" stroke-width="3.4" opacity="0.62" stroke-linecap="round" stroke-linejoin="round"/>
<path d="M189.7 35.5 L187.8 29.6" fill="none" stroke="#fbf7eb" stroke-width="3.4" opacity="0.62" stroke-linecap="round" stroke-linejoin="round"/>
<path d="M43.5 57.2 L37.2 53.7" fill="none" stroke="#fbf7eb" stroke-width="3.4" opacity="0.62" stroke-linecap="round" stroke-linejoin="round"/>
<path d="M185.7 23 L183.9 17.3" fill="none" stroke="#fbf7eb" stroke-width="3.4" opacity="0.62" stroke-linecap="round" stroke-linejoin="round"/>
<path d="M155.4 205.6 L161.8 202.2" fill="none" stroke="#fbf7eb" stroke-width="3.4" opacity="0.62" stroke-linecap="round" stroke-linejoin="round"/>
<path d="M150.5 224.5 L150.1 230.1" fill="none" stroke="#fbf7eb" stroke-width="3.4" opacity="0.62" stroke-linecap="round" stroke-linejoin="round"/>
<path d="M378.8 104.7 L371.4 105.7" fill="none" stroke="#fbf7eb" stroke-width="3.4" opacity="0.62" stroke-linecap="round" stroke-linejoin="round"/>
<path d="M134.9 223.7 L134.1 229.3" fill="none" stroke="#fbf7eb" stroke-width="3.4" opacity="0.62" stroke-linecap="round" stroke-linejoin="round"/>
<path d="M228.8 64 L236.3 64.5" fill="none" stroke="#fbf7eb" stroke-width="3.4" opacity="0.62" stroke-linecap="round" stroke-linejoin="round"/>
<path d="M36.4 230.8 L34.8 225.6" fill="none" stroke="#fbf7eb" stroke-width="3.4" opacity="0.62" stroke-linecap="round" stroke-linejoin="round"/>
<path d="M64.2 242.3 L65.5 247.6" fill="none" stroke="#fbf7eb" stroke-width="3.4" opacity="0.62" stroke-linecap="round" stroke-linejoin="round"/>
<path d="M348.1 86.4 L348.9 91.8" fill="none" stroke="#fbf7eb" stroke-width="3.4" opacity="0.62" stroke-linecap="round" stroke-linejoin="round"/>
<path d="M43.9 34.7 L37.4 32.6" fill="none" stroke="#fbf7eb" stroke-width="3.4" opacity="0.62" stroke-linecap="round" stroke-linejoin="round"/>
<path d="M28.4 41.3 L31.8 36.8" fill="none" stroke="#fbf7eb" stroke-width="3.4" opacity="0.62" stroke-linecap="round" stroke-linejoin="round"/>
<path d="M141.2 187.6 L134.5 187.9" fill="none" stroke="#fbf7eb" stroke-width="3.4" opacity="0.62" stroke-linecap="round" stroke-linejoin="round"/>
<path d="M36.6 211.1 L43.2 212.1" fill="none" stroke="#fbf7eb" stroke-width="3.4" opacity="0.62" stroke-linecap="round" stroke-linejoin="round"/>
<path d="M393.8 83.9 L387.4 85.4" fill="none" stroke="#fbf7eb" stroke-width="3.4" opacity="0.62" stroke-linecap="round" stroke-linejoin="round"/>
<path d="M290.9 30.1 L297.5 30.7" fill="none" stroke="#fbf7eb" stroke-width="3.4" opacity="0.62" stroke-linecap="round" stroke-linejoin="round"/>
<path d="M387.6 102.9 L381.1 103.5" fill="none" stroke="#fbf7eb" stroke-width="3.4" opacity="0.62" stroke-linecap="round" stroke-linejoin="round"/>
<path d="M259.2 206.8 L265.2 204.9" fill="none" stroke="#fbf7eb" stroke-width="3.4" opacity="0.62" stroke-linecap="round" stroke-linejoin="round"/>
<path d="M221.9 191 L218.2 186.9" fill="none" stroke="#fbf7eb" stroke-width="3.4" opacity="0.62" stroke-linecap="round" stroke-linejoin="round"/>
<path d="M255.3 105.6 L259.3 101.8" fill="none" stroke="#fbf7eb" stroke-width="3.4" opacity="0.62" stroke-linecap="round" stroke-linejoin="round"/>
<path d="M186.9 123.9 L180.7 124.9" fill="none" stroke="#fbf7eb" stroke-width="3.4" opacity="0.62" stroke-linecap="round" stroke-linejoin="round"/>
<path d="M163.8 201.4 L158.4 203.5" fill="none" stroke="#fbf7eb" stroke-width="3.4" opacity="0.62" stroke-linecap="round" stroke-linejoin="round"/>
<path d="M214.6 183.1 L211.1 179.4" fill="none" stroke="#fbf7eb" stroke-width="3.4" opacity="0.62" stroke-linecap="round" stroke-linejoin="round"/>
<path d="M21.3 46.8 L26.1 44" fill="none" stroke="#fbf7eb" stroke-width="3.4" opacity="0.62" stroke-linecap="round" stroke-linejoin="round"/>
<path d="M241.5 210.1 L247.5 209.6" fill="none" stroke="#fbf7eb" stroke-width="3.4" opacity="0.62" stroke-linecap="round" stroke-linejoin="round"/>
<path d="M243.8 12.9 L249.8 13.6" fill="none" stroke="#fbf7eb" stroke-width="3.4" opacity="0.62" stroke-linecap="round" stroke-linejoin="round"/>
<path d="M144.1 241.7 L149.3 244" fill="none" stroke="#fbf7eb" stroke-width="3.4" opacity="0.62" stroke-linecap="round" stroke-linejoin="round"/>
<path d="M149.7 243.5 L144.3 241.4" fill="none" stroke="#fbf7eb" stroke-width="3.4" opacity="0.62" stroke-linecap="round" stroke-linejoin="round"/>
<path d="M140.1 238.8 L136.9 235" fill="none" stroke="#fbf7eb" stroke-width="3.4" opacity="0.62" stroke-linecap="round" stroke-linejoin="round"/>
<path d="M257.7 217.3 L261.1 213.7" fill="none" stroke="#fbf7eb" stroke-width="3.4" opacity="0.62" stroke-linecap="round" stroke-linejoin="round"/>
<path d="M343.8 89.7 L348.9 91.8" fill="none" stroke="#fbf7eb" stroke-width="3.4" opacity="0.62" stroke-linecap="round" stroke-linejoin="round"/>
<path d="M186.3 152.5 L180.6 152.1" fill="none" stroke="#fbf7eb" stroke-width="3.4" opacity="0.62" stroke-linecap="round" stroke-linejoin="round"/>
<path d="M340.3 100.8 L345.9 101.9" fill="none" stroke="#fbf7eb" stroke-width="3.4" opacity="0.62" stroke-linecap="round" stroke-linejoin="round"/>
<path d="M161.8 202.2 L167.5 201.6" fill="none" stroke="#fbf7eb" stroke-width="3.4" opacity="0.62" stroke-linecap="round" stroke-linejoin="round"/>
<path d="M213.7 211.9 L219.3 211.5" fill="none" stroke="#fbf7eb" stroke-width="3.4" opacity="0.62" stroke-linecap="round" stroke-linejoin="round"/>
<path d="M139.8 239 L144.1 241.7" fill="none" stroke="#fbf7eb" stroke-width="3.4" opacity="0.62" stroke-linecap="round" stroke-linejoin="round"/>
<path d="M136.1 233.6 L134.7 229.6" fill="none" stroke="#fbf7eb" stroke-width="3.4" opacity="0.62" stroke-linecap="round" stroke-linejoin="round"/>
<path d="M135.5 223.5 L137.2 219.6" fill="none" stroke="#fbf7eb" stroke-width="3.4" opacity="0.62" stroke-linecap="round" stroke-linejoin="round"/>
</g>
<g data-layer="minor-road">
<path d="M34.8 225.6 L28.7 216" fill="none" stroke="#69776e" stroke-width="1.25" opacity="0.58" stroke-linecap="round" stroke-linejoin="round"/>
<path d="M330.5 100.2 L323.5 109.2" fill="none" stroke="#69776e" stroke-width="1.25" opacity="0.58" stroke-linecap="round" stroke-linejoin="round"/>
<path d="M348.9 91.8 L346.3 101.6" fill="none" stroke="#69776e" stroke-width="1.25" opacity="0.58" stroke-linecap="round" stroke-linejoin="round"/>
<path d="M210.7 224.4 L223.5 226.8" fill="none" stroke="#69776e" stroke-width="1.25" opacity="0.58" stroke-linecap="round" stroke-linejoin="round"/>
<path d="M63 217.3 L60.7 227" fill="none" stroke="#69776e" stroke-width="1.25" opacity="0.58" stroke-linecap="round" stroke-linejoin="round"/>
<path d="M61.7 232.7 L64.2 242.3" fill="none" stroke="#69776e" stroke-width="1.25" opacity="0.58" stroke-linecap="round" stroke-linejoin="round"/>
<path d="M171 126.3 L159 127.8" fill="none" stroke="#69776e" stroke-width="1.25" opacity="0.58" stroke-linecap="round" stroke-linejoin="round"/>
<path d="M173 128.3 L184.6 126.1" fill="none" stroke="#69776e" stroke-width="1.25" opacity="0.58" stroke-linecap="round" stroke-linejoin="round"/>
<path d="M415.8 73.3 L410.6 74 L406 77.5" fill="none" stroke="#69776e" stroke-width="1.25" opacity="0.58" stroke-linecap="round" stroke-linejoin="round"/>
<path d="M192 36 L203.4 34.2" fill="none" stroke="#69776e" stroke-width="1.25" opacity="0.58" stroke-linecap="round" stroke-linejoin="round"/>
<path d="M129.8 188.6 L141.5 188" fill="none" stroke="#69776e" stroke-width="1.25" opacity="0.58" stroke-linecap="round" stroke-linejoin="round"/>
<path d="M209.4 223.7 L205.9 215.6" fill="none" stroke="#69776e" stroke-width="1.25" opacity="0.58" stroke-linecap="round" stroke-linejoin="round"/>
<path d="M403.5 89.9 L394.9 95.5" fill="none" stroke="#69776e" stroke-width="1.25" opacity="0.58" stroke-linecap="round" stroke-linejoin="round"/>
<path d="M24.4 210.6 L15 215.3" fill="none" stroke="#69776e" stroke-width="1.25" opacity="0.58" stroke-linecap="round" stroke-linejoin="round"/>
<path d="M162.8 186.4 L152.1 187" fill="none" stroke="#69776e" stroke-width="1.25" opacity="0.58" stroke-linecap="round" stroke-linejoin="round"/>
<path d="M402.4 80.1 L393.8 83.9" fill="none" stroke="#69776e" stroke-width="1.25" opacity="0.58" stroke-linecap="round" stroke-linejoin="round"/>
<path d="M65.5 247.6 L57.7 252" fill="none" stroke="#69776e" stroke-width="1.25" opacity="0.58" stroke-linecap="round" stroke-linejoin="round"/>
<path d="M271.4 139.4 L261.9 139.8" fill="none" stroke="#69776e" stroke-width="1.25" opacity="0.58" stroke-linecap="round" stroke-linejoin="round"/>
<path d="M335.7 171.1 L337.6 169.2 L335.2 165.1" fill="none" stroke="#69776e" stroke-width="1.25" opacity="0.58" stroke-linecap="round" stroke-linejoin="round"/>
<path d="M36.9 230.8 L45.8 229.2" fill="none" stroke="#69776e" stroke-width="1.25" opacity="0.58" stroke-linecap="round" stroke-linejoin="round"/>
<path d="M331.8 98.6 L340.3 100.8" fill="none" stroke="#69776e" stroke-width="1.25" opacity="0.58" stroke-linecap="round" stroke-linejoin="round"/>
<path d="M185 23.3 L186.9 29.8" fill="none" stroke="#69776e" stroke-width="1.25" opacity="0.58" stroke-linecap="round" stroke-linejoin="round"/>
<path d="M113.1 13.2 L122 13" fill="none" stroke="#69776e" stroke-width="1.25" opacity="0.58" stroke-linecap="round" stroke-linejoin="round"/>
<path d="M174.6 158 L183.2 158.5" fill="none" stroke="#69776e" stroke-width="1.25" opacity="0.58" stroke-linecap="round" stroke-linejoin="round"/>
<path d="M134.1 229.3 L136.4 235.6" fill="none" stroke="#69776e" stroke-width="1.25" opacity="0.58" stroke-linecap="round" stroke-linejoin="round"/>
<path d="M229.3 198.8 L224.3 193.5" fill="none" stroke="#69776e" stroke-width="1.25" opacity="0.58" stroke-linecap="round" stroke-linejoin="round"/>
<path d="M161.5 131.3 L169.7 129.4" fill="none" stroke="#69776e" stroke-width="1.25" opacity="0.58" stroke-linecap="round" stroke-linejoin="round"/>
<path d="M205.9 217.5 L208.5 223.5" fill="none" stroke="#69776e" stroke-width="1.25" opacity="0.58" stroke-linecap="round" stroke-linejoin="round"/>
<path d="M35.2 20.5 L29.4 16.1" fill="none" stroke="#69776e" stroke-width="1.25" opacity="0.58" stroke-linecap="round" stroke-linejoin="round"/>
<path d="M134.7 229.6 L135.5 223.5" fill="none" stroke="#69776e" stroke-width="1.25" opacity="0.58" stroke-linecap="round" stroke-linejoin="round"/>
<path d="M183 17.4 L185 23.3" fill="none" stroke="#69776e" stroke-width="1.25" opacity="0.58" stroke-linecap="round" stroke-linejoin="round"/>
<path d="M189.7 35.5 L187.8 29.6" fill="none" stroke="#69776e" stroke-width="1.25" opacity="0.58" stroke-linecap="round" stroke-linejoin="round"/>
<path d="M43.5 57.2 L37.2 53.7" fill="none" stroke="#69776e" stroke-width="1.25" opacity="0.58" stroke-linecap="round" stroke-linejoin="round"/>
<path d="M185.7 23 L183.9 17.3" fill="none" stroke="#69776e" stroke-width="1.25" opacity="0.58" stroke-linecap="round" stroke-linejoin="round"/>
<path d="M155.4 205.6 L161.8 202.2" fill="none" stroke="#69776e" stroke-width="1.25" opacity="0.58" stroke-linecap="round" stroke-linejoin="round"/>
<path d="M150.5 224.5 L150.1 230.1" fill="none" stroke="#69776e" stroke-width="1.25" opacity="0.58" stroke-linecap="round" stroke-linejoin="round"/>
<path d="M378.8 104.7 L371.4 105.7" fill="none" stroke="#69776e" stroke-width="1.25" opacity="0.58" stroke-linecap="round" stroke-linejoin="round"/>
<path d="M134.9 223.7 L134.1 229.3" fill="none" stroke="#69776e" stroke-width="1.25" opacity="0.58" stroke-linecap="round" stroke-linejoin="round"/>
<path d="M228.8 64 L236.3 64.5" fill="none" stroke="#69776e" stroke-width="1.25" opacity="0.58" stroke-linecap="round" stroke-linejoin="round"/>
<path d="M36.4 230.8 L34.8 225.6" fill="none" stroke="#69776e" stroke-width="1.25" opacity="0.58" stroke-linecap="round" stroke-linejoin="round"/>
<path d="M64.2 242.3 L65.5 247.6" fill="none" stroke="#69776e" stroke-width="1.25" opacity="0.58" stroke-linecap="round" stroke-linejoin="round"/>
<path d="M348.1 86.4 L348.9 91.8" fill="none" stroke="#69776e" stroke-width="1.25" opacity="0.58" stroke-linecap="round" stroke-linejoin="round"/>
<path d="M43.9 34.7 L37.4 32.6" fill="none" stroke="#69776e" stroke-width="1.25" opacity="0.58" stroke-linecap="round" stroke-linejoin="round"/>
<path d="M28.4 41.3 L31.8 36.8" fill="none" stroke="#69776e" stroke-width="1.25" opacity="0.58" stroke-linecap="round" stroke-linejoin="round"/>
<path d="M141.2 187.6 L134.5 187.9" fill="none" stroke="#69776e" stroke-width="1.25" opacity="0.58" stroke-linecap="round" stroke-linejoin="round"/>
<path d="M36.6 211.1 L43.2 212.1" fill="none" stroke="#69776e" stroke-width="1.25" opacity="0.58" stroke-linecap="round" stroke-linejoin="round"/>
<path d="M393.8 83.9 L387.4 85.4" fill="none" stroke="#69776e" stroke-width="1.25" opacity="0.58" stroke-linecap="round" stroke-linejoin="round"/>
<path d="M290.9 30.1 L297.5 30.7" fill="none" stroke="#69776e" stroke-width="1.25" opacity="0.58" stroke-linecap="round" stroke-linejoin="round"/>
<path d="M387.6 102.9 L381.1 103.5" fill="none" stroke="#69776e" stroke-width="1.25" opacity="0.58" stroke-linecap="round" stroke-linejoin="round"/>
<path d="M259.2 206.8 L265.2 204.9" fill="none" stroke="#69776e" stroke-width="1.25" opacity="0.58" stroke-linecap="round" stroke-linejoin="round"/>
<path d="M221.9 191 L218.2 186.9" fill="none" stroke="#69776e" stroke-width="1.25" opacity="0.58" stroke-linecap="round" stroke-linejoin="round"/>
<path d="M255.3 105.6 L259.3 101.8" fill="none" stroke="#69776e" stroke-width="1.25" opacity="0.58" stroke-linecap="round" stroke-linejoin="round"/>
<path d="M186.9 123.9 L180.7 124.9" fill="none" stroke="#69776e" stroke-width="1.25" opacity="0.58" stroke-linecap="round" stroke-linejoin="round"/>
<path d="M163.8 201.4 L158.4 203.5" fill="none" stroke="#69776e" stroke-width="1.25" opacity="0.58" stroke-linecap="round" stroke-linejoin="round"/>
<path d="M214.6 183.1 L211.1 179.4" fill="none" stroke="#69776e" stroke-width="1.25" opacity="0.58" stroke-linecap="round" stroke-linejoin="round"/>
<path d="M21.3 46.8 L26.1 44" fill="none" stroke="#69776e" stroke-width="1.25" opacity="0.58" stroke-linecap="round" stroke-linejoin="round"/>
<path d="M241.5 210.1 L247.5 209.6" fill="none" stroke="#69776e" stroke-width="1.25" opacity="0.58" stroke-linecap="round" stroke-linejoin="round"/>
<path d="M243.8 12.9 L249.8 13.6" fill="none" stroke="#69776e" stroke-width="1.25" opacity="0.58" stroke-linecap="round" stroke-linejoin="round"/>
<path d="M144.1 241.7 L149.3 244" fill="none" stroke="#69776e" stroke-width="1.25" opacity="0.58" stroke-linecap="round" stroke-linejoin="round"/>
<path d="M149.7 243.5 L144.3 241.4" fill="none" stroke="#69776e" stroke-width="1.25" opacity="0.58" stroke-linecap="round" stroke-linejoin="round"/>
<path d="M140.1 238.8 L136.9 235" fill="none" stroke="#69776e" stroke-width="1.25" opacity="0.58" stroke-linecap="round" stroke-linejoin="round"/>
<path d="M257.7 217.3 L261.1 213.7" fill="none" stroke="#69776e" stroke-width="1.25" opacity="0.58" stroke-linecap="round" stroke-linejoin="round"/>
<path d="M343.8 89.7 L348.9 91.8" fill="none" stroke="#69776e" stroke-width="1.25" opacity="0.58" stroke-linecap="round" stroke-linejoin="round"/>
<path d="M186.3 152.5 L180.6 152.1" fill="none" stroke="#69776e" stroke-width="1.25" opacity="0.58" stroke-linecap="round" stroke-linejoin="round"/>
<path d="M340.3 100.8 L345.9 101.9" fill="none" stroke="#69776e" stroke-width="1.25" opacity="0.58" stroke-linecap="round" stroke-linejoin="round"/>
<path d="M161.8 202.2 L167.5 201.6" fill="none" stroke="#69776e" stroke-width="1.25" opacity="0.58" stroke-linecap="round" stroke-linejoin="round"/>
<path d="M213.7 211.9 L219.3 211.5" fill="none" stroke="#69776e" stroke-width="1.25" opacity="0.58" stroke-linecap="round" stroke-linejoin="round"/>
<path d="M139.8 239 L144.1 241.7" fill="none" stroke="#69776e" stroke-width="1.25" opacity="0.58" stroke-linecap="round" stroke-linejoin="round"/>
<path d="M136.1 233.6 L134.7 229.6" fill="none" stroke="#69776e" stroke-width="1.25" opacity="0.58" stroke-linecap="round" stroke-linejoin="round"/>
<path d="M135.5 223.5 L137.2 219.6" fill="none" stroke="#69776e" stroke-width="1.25" opacity="0.58" stroke-linecap="round" stroke-linejoin="round"/>
</g>
</g>
<g data-layer="north-up-compass" fill="none" stroke="#233934" stroke-linecap="round" stroke-linejoin="round" opacity="0.62">
<path d="M382 48L382 23" stroke-width="1.8"/>
<path d="M382 23L373 39M382 23L391 39" stroke-width="1.8"/>
<circle cx="382" cy="48" r="13" stroke-width="1.1" opacity="0.38"/>
</g>
<rect x="8" y="8" width="404" height="304" rx="16" fill="none" stroke="#233934" stroke-width="1.4" opacity="0.44"/>
</svg>
