<svg xmlns="http://www.w3.org/2000/svg" viewBox="0 0 420 320" role="img" aria-label="Unlabeled street-grid crop">
<rect width="420" height="320" fill="#f6f3e9"/>
<g opacity="0.22" stroke="#d8d0bd" stroke-width="1">
<path d="M0 0L0 320" fill="none"/>
<path d="M60 0L60 320" fill="none"/>
<path d="M120 0L120 320" fill="none"/>
<path d="M180 0L180 320" fill="none"/>
<path d="M240 0L240 320" fill="none"/>
<path d="M300 0L300 320" fill="none"/>
<path d="M360 0L360 320" fill="none"/>
<path d="M420 0L420 320" fill="none"/>
<path d="M0 0L420 0" fill="none"/>
<path d="M0 54L420 54" fill="none"/>
<path d="M0 108L420 108" fill="none"/>
<path d="M0 162L420 162" fill="none"/>
<path d="M0 216L420 216" fill="none"/>
<path d="M0 270L420 270" fill="none"/>
<path d="M0 324L420 324" fill="none"/>
</g>
<path d="M315 136.2 L300.8 160.9" fill="none" stroke="#fdfbf5" stroke-width="9" stroke-linecap="round" stroke-linejoin="round" opacity="0.95"/>
<path d="M315 136.2 L306.1 134.6 L287.6 135.1" fill="none" stroke="#fdfbf5" stroke-width="9" stroke-linecap="round" stroke-linejoin="round" opacity="0.95"/>
<path d="M152.2 29 L181.7 29.8" fill="none" stroke="#fdfbf5" stroke-width="9" stroke-linecap="round" stroke-linejoin="round" opacity="0.95"/>
<path d="M347.1 114.3 L372 109.6" fill="none" stroke="#fdfbf5" stroke-width="9" stroke-linecap="round" stroke-linejoin="round" opacity="0.95"/>
<path d="M33.9 136.6 L45 136.8 L49.5 140.7 L64 143" fill="none" stroke="#fdfbf5" stroke-width="9" stroke-linecap="round" stroke-linejoin="round" opacity="0.95"/>
<path d="M33.9 136.6 L14.7 122.4 L1.1 116.6 L0 83.1" fill="none" stroke="#fdfbf5" stroke-width="9" stroke-linecap="round" stroke-linejoin="round" opacity="0.95"/>
<path d="M420 40.9 L420 60.7 L416.7 59.6 L405.5 65 L387.1 65.9 L379.4 70.5" fill="none" stroke="#fdfbf5" stroke-width="9" stroke-linecap="round" stroke-linejoin="round" opacity="0.95"/>
<path d="M401.1 253.1 L405.2 249 L412 247.6 L420 241.8 L420 233.7" fill="none" stroke="#fdfbf5" stroke-width="9" stroke-linecap="round" stroke-linejoin="round" opacity="0.95"/>
<path d="M293.4 55 L285.7 73.5 L278.9 81.3" fill="none" stroke="#fdfbf5" stroke-width="9" stroke-linecap="round" stroke-linejoin="round" opacity="0.95"/>
<path d="M244 82.9 L244.1 75.3 L246.8 72.6 L258.3 73.4" fill="none" stroke="#fdfbf5" stroke-width="9" stroke-linecap="round" stroke-linejoin="round" opacity="0.95"/>
<path d="M148 224.6 L143 220.1 L143.6 210.3 L140.2 201.9" fill="none" stroke="#fdfbf5" stroke-width="9" stroke-linecap="round" stroke-linejoin="round" opacity="0.95"/>
<path d="M378.5 119.8 L382 116.7 L391.8 116.7 L403 121.1 L412 120 L420 121.4 L420 123.9 L420 117.2" fill="none" stroke="#fdfbf5" stroke-width="9" stroke-linecap="round" stroke-linejoin="round" opacity="0.95"/>
<path d="M182 56.9 L172.4 91.5" fill="none" stroke="#fdfbf5" stroke-width="9" stroke-linecap="round" stroke-linejoin="round" opacity="0.95"/>
<path d="M90.8 90.5 L100.8 74" fill="none" stroke="#fdfbf5" stroke-width="9" stroke-linecap="round" stroke-linejoin="round" opacity="0.95"/>
<path d="M123.4 160.5 L122 147 L125.2 129.4" fill="none" stroke="#fdfbf5" stroke-width="9" stroke-linecap="round" stroke-linejoin="round" opacity="0.95"/>
<path d="M129.3 74.1 L120.4 79.3 L115.4 84.7 L112.6 95 L116.1 101" fill="none" stroke="#fdfbf5" stroke-width="9" stroke-linecap="round" stroke-linejoin="round" opacity="0.95"/>
<path d="M325.6 59.3 L314.7 63.3 L309.6 68.1 L298.2 71.7" fill="none" stroke="#fdfbf5" stroke-width="9" stroke-linecap="round" stroke-linejoin="round" opacity="0.95"/>
<path d="M270.8 300.5 L282.2 303.3 L313.5 317.7" fill="none" stroke="#fdfbf5" stroke-width="9" stroke-linecap="round" stroke-linejoin="round" opacity="0.95"/>
<path d="M181.7 29.8 L182.1 56.4" fill="none" stroke="#fdfbf5" stroke-width="9" stroke-linecap="round" stroke-linejoin="round" opacity="0.95"/>
<path d="M198.4 29.2 L218.5 0 L241.7 0" fill="none" stroke="#fdfbf5" stroke-width="9" stroke-linecap="round" stroke-linejoin="round" opacity="0.95"/>
<path d="M265.7 151.3 L238.6 145.6" fill="none" stroke="#fdfbf5" stroke-width="9" stroke-linecap="round" stroke-linejoin="round" opacity="0.95"/>
<path d="M251.5 265.2 L274 261.3 L279 255.8" fill="none" stroke="#fdfbf5" stroke-width="9" stroke-linecap="round" stroke-linejoin="round" opacity="0.95"/>
<path d="M294.4 235.9 L290.4 238.2 L283.7 247.6 L278.2 248.9" fill="none" stroke="#fdfbf5" stroke-width="9" stroke-linecap="round" stroke-linejoin="round" opacity="0.95"/>
<path d="M284.3 259.3 L306 272.7" fill="none" stroke="#fdfbf5" stroke-width="9" stroke-linecap="round" stroke-linejoin="round" opacity="0.95"/>
<path d="M159.1 92.8 L149.6 94 L133.9 101.9 L130.1 112.3" fill="none" stroke="#fdfbf5" stroke-width="9" stroke-linecap="round" stroke-linejoin="round" opacity="0.95"/>
<path d="M175.7 273.7 L152.7 297.2" fill="none" stroke="#fdfbf5" stroke-width="9" stroke-linecap="round" stroke-linejoin="round" opacity="0.95"/>
<path d="M121.1 113.3 L118 117.2 L115.9 117.2 L113.1 113.1 L105.1 113.7 L98.1 111.2 L85.6 110.5" fill="none" stroke="#fdfbf5" stroke-width="9" stroke-linecap="round" stroke-linejoin="round" opacity="0.95"/>
<path d="M248.3 37.2 L248.9 44.6 L257.6 50.7 L256.1 64.1" fill="none" stroke="#fdfbf5" stroke-width="9" stroke-linecap="round" stroke-linejoin="round" opacity="0.95"/>
<path d="M102.2 226 L86.2 224.2 L69.5 215 L45.9 211.5 L41.3 208.8" fill="none" stroke="#fdfbf5" stroke-width="9" stroke-linecap="round" stroke-linejoin="round" opacity="0.95"/>
<path d="M71.1 282.4 L74.2 287.6 L80.1 288.7 L92.9 299.3 L89.9 303.2 L91.8 309.5 L90.9 315.4 L87.6 319.6 L73 320 L65.7 318 L64.4 320 L71 320" fill="none" stroke="#fdfbf5" stroke-width="9" stroke-linecap="round" stroke-linejoin="round" opacity="0.95"/>
<path d="M420 81.5 L420 83.1 L411.2 86.6 L400.1 85.8" fill="none" stroke="#fdfbf5" stroke-width="9" stroke-linecap="round" stroke-linejoin="round" opacity="0.95"/>
<path d="M201.3 231.1 L190.5 252.4" fill="none" stroke="#fdfbf5" stroke-width="9" stroke-linecap="round" stroke-linejoin="round" opacity="0.95"/>
<path d="M128.8 169.6 L117.7 183.9 L115.2 191.6" fill="none" stroke="#fdfbf5" stroke-width="9" stroke-linecap="round" stroke-linejoin="round" opacity="0.95"/>
<path d="M143.5 289.3 L124.1 267 L124.6 240.1" fill="none" stroke="#fdfbf5" stroke-width="9" stroke-linecap="round" stroke-linejoin="round" opacity="0.95"/>
<path d="M395.2 207.5 L406.6 206.4 L420 202.1 L420 182" fill="none" stroke="#fdfbf5" stroke-width="9" stroke-linecap="round" stroke-linejoin="round" opacity="0.95"/>
<path d="M395.2 207.5 L398.8 202.7 L398.3 196.3 L403.9 186.1" fill="none" stroke="#fdfbf5" stroke-width="9" stroke-linecap="round" stroke-linejoin="round" opacity="0.95"/>
<path d="M393.3 96 L393 116.8" fill="none" stroke="#fdfbf5" stroke-width="9" stroke-linecap="round" stroke-linejoin="round" opacity="0.95"/>
<path d="M313.5 227.2 L305.3 237 L301 233.5 L295 233.6 L287.6 238.4 L282.5 246.3 L277.5 247.2" fill="none" stroke="#fdfbf5" stroke-width="9" stroke-linecap="round" stroke-linejoin="round" opacity="0.95"/>
<path d="M143.8 288.8 L124.6 266.6" fill="none" stroke="#fdfbf5" stroke-width="9" stroke-linecap="round" stroke-linejoin="round" opacity="0.95"/>
<path d="M135.5 59.5 L127.2 36.2 L123.6 31.7 L123 23" fill="none" stroke="#fdfbf5" stroke-width="9" stroke-linecap="round" stroke-linejoin="round" opacity="0.95"/>
<path d="M121.9 21.8 L114.2 10.4 L105.9 3.7" fill="none" stroke="#fdfbf5" stroke-width="9" stroke-linecap="round" stroke-linejoin="round" opacity="0.95"/>
<path d="M138.2 58.5 L139.6 40.8" fill="none" stroke="#fdfbf5" stroke-width="9" stroke-linecap="round" stroke-linejoin="round" opacity="0.95"/>
<path d="M408.2 306.9 L420 314.1" fill="none" stroke="#fdfbf5" stroke-width="9" stroke-linecap="round" stroke-linejoin="round" opacity="0.95"/>
<path d="M324.3 77.9 L321.8 70.6 L325.6 59.3" fill="none" stroke="#fdfbf5" stroke-width="9" stroke-linecap="round" stroke-linejoin="round" opacity="0.95"/>
<path d="M67.3 95.7 L71.7 99.6 L79.3 100.4 L84.2 110.4" fill="none" stroke="#fdfbf5" stroke-width="9" stroke-linecap="round" stroke-linejoin="round" opacity="0.95"/>
<path d="M261.3 119.7 L270.9 121.8 L274.7 117.5 L286.3 120.1" fill="none" stroke="#fdfbf5" stroke-width="9" stroke-linecap="round" stroke-linejoin="round" opacity="0.95"/>
<path d="M268.8 231.4 L271.1 226.8 L273.6 227.2 L277 223.5 L279.2 212.8" fill="none" stroke="#fdfbf5" stroke-width="9" stroke-linecap="round" stroke-linejoin="round" opacity="0.95"/>
<path d="M307.5 237.5 L314.8 229.8 L316.2 222.8 L318.6 220.8" fill="none" stroke="#fdfbf5" stroke-width="9" stroke-linecap="round" stroke-linejoin="round" opacity="0.95"/>
<path d="M289 284.4 L263.7 297.3" fill="none" stroke="#fdfbf5" stroke-width="9" stroke-linecap="round" stroke-linejoin="round" opacity="0.95"/>
<path d="M319.7 42.4 L318.7 54.8 L306.1 59.4 L297.9 71.4" fill="none" stroke="#fdfbf5" stroke-width="9" stroke-linecap="round" stroke-linejoin="round" opacity="0.95"/>
<path d="M29.7 167.9 L33.8 137.4" fill="none" stroke="#fdfbf5" stroke-width="9" stroke-linecap="round" stroke-linejoin="round" opacity="0.95"/>
<path d="M278.9 81.3 L269.6 94.2 L258.4 91.5" fill="none" stroke="#fdfbf5" stroke-width="9" stroke-linecap="round" stroke-linejoin="round" opacity="0.95"/>
<path d="M343.2 142.8 L349.5 142.3 L353.7 144.5 L356.2 156.2 L363.2 164.3" fill="none" stroke="#fdfbf5" stroke-width="9" stroke-linecap="round" stroke-linejoin="round" opacity="0.95"/>
<path d="M386.9 288.5 L397 295.7 L397.5 298.9 L400.3 301 L399.3 305.5" fill="none" stroke="#fdfbf5" stroke-width="9" stroke-linecap="round" stroke-linejoin="round" opacity="0.95"/>
<path d="M331.6 0 L336.1 0 L333.4 0 L340.8 8.5 L341.9 13.3 L341.5 16.5 L335.2 24.6" fill="none" stroke="#fdfbf5" stroke-width="9" stroke-linecap="round" stroke-linejoin="round" opacity="0.95"/>
<path d="M124.9 250.4 L125.6 268 L150.6 295.6 L154.2 297.4 L174.7 302.5 L218.2 320 L239.5 320 L251.5 309.4" fill="none" stroke="#fdfbf5" stroke-width="9" stroke-linecap="round" stroke-linejoin="round" opacity="0.95"/>
<path d="M412.7 220.3 L393.9 209.3" fill="none" stroke="#fdfbf5" stroke-width="9" stroke-linecap="round" stroke-linejoin="round" opacity="0.95"/>
<path d="M156.8 92.2 L129.5 90.4" fill="none" stroke="#fdfbf5" stroke-width="9" stroke-linecap="round" stroke-linejoin="round" opacity="0.95"/>
<path d="M286 10.3 L256.9 31.4" fill="none" stroke="#fdfbf5" stroke-width="9" stroke-linecap="round" stroke-linejoin="round" opacity="0.95"/>
<path d="M248.3 37.2 L229.9 50.1 L229.9 55.3 L225.7 56.8 L211.5 78.4" fill="none" stroke="#fdfbf5" stroke-width="9" stroke-linecap="round" stroke-linejoin="round" opacity="0.95"/>
<path d="M199 318.1 L177.4 303.7 L152.7 297.2" fill="none" stroke="#fdfbf5" stroke-width="9" stroke-linecap="round" stroke-linejoin="round" opacity="0.95"/>
<path d="M358.9 263.8 L352.3 263.1 L346.9 260.2 L344.1 255.8 L343.8 249.7" fill="none" stroke="#fdfbf5" stroke-width="9" stroke-linecap="round" stroke-linejoin="round" opacity="0.95"/>
<path d="M211.2 27.2 L250.3 7.5" fill="none" stroke="#fdfbf5" stroke-width="9" stroke-linecap="round" stroke-linejoin="round" opacity="0.95"/>
<path d="M335.2 24.6 L319.7 42.4" fill="none" stroke="#fdfbf5" stroke-width="9" stroke-linecap="round" stroke-linejoin="round" opacity="0.95"/>
<path d="M310.4 29.8 L300.8 17.5 L292.4 12.5" fill="none" stroke="#fdfbf5" stroke-width="9" stroke-linecap="round" stroke-linejoin="round" opacity="0.95"/>
<path d="M38.6 103.9 L40.9 95.5 L55.1 89.4" fill="none" stroke="#fdfbf5" stroke-width="9" stroke-linecap="round" stroke-linejoin="round" opacity="0.95"/>
<path d="M35.4 127 L38.6 103.9" fill="none" stroke="#fdfbf5" stroke-width="9" stroke-linecap="round" stroke-linejoin="round" opacity="0.95"/>
<path d="M38.8 102.6 L67.3 95.7" fill="none" stroke="#fdfbf5" stroke-width="9" stroke-linecap="round" stroke-linejoin="round" opacity="0.95"/>
<path d="M251.8 309.6 L238.3 320 L229.1 320" fill="none" stroke="#fdfbf5" stroke-width="9" stroke-linecap="round" stroke-linejoin="round" opacity="0.95"/>
<path d="M124.6 266.6 L125.5 231.5 L122.3 228.2 L115.4 227.3" fill="none" stroke="#fdfbf5" stroke-width="9" stroke-linecap="round" stroke-linejoin="round" opacity="0.95"/>
<path d="M55.1 89.4 L85.5 76.9" fill="none" stroke="#fdfbf5" stroke-width="9" stroke-linecap="round" stroke-linejoin="round" opacity="0.95"/>
<path d="M317.1 136.8 L328.8 143.8 L340.8 143.1" fill="none" stroke="#fdfbf5" stroke-width="9" stroke-linecap="round" stroke-linejoin="round" opacity="0.95"/>
<path d="M315 136.2 L300.8 160.9" fill="none" stroke="#1e3432" stroke-width="4.8" stroke-linecap="round" stroke-linejoin="round" opacity="0.94"/>
<path d="M315 136.2 L306.1 134.6 L287.6 135.1" fill="none" stroke="#1e3432" stroke-width="4.8" stroke-linecap="round" stroke-linejoin="round" opacity="0.94"/>
<path d="M152.2 29 L181.7 29.8" fill="none" stroke="#1e3432" stroke-width="4.8" stroke-linecap="round" stroke-linejoin="round" opacity="0.94"/>
<path d="M347.1 114.3 L372 109.6" fill="none" stroke="#1e3432" stroke-width="4.8" stroke-linecap="round" stroke-linejoin="round" opacity="0.94"/>
<path d="M33.9 136.6 L45 136.8 L49.5 140.7 L64 143" fill="none" stroke="#1e3432" stroke-width="4.8" stroke-linecap="round" stroke-linejoin="round" opacity="0.94"/>
<path d="M33.9 136.6 L14.7 122.4 L1.1 116.6 L0 83.1" fill="none" stroke="#1e3432" stroke-width="4.8" stroke-linecap="round" stroke-linejoin="round" opacity="0.94"/>
<path d="M420 40.9 L420 60.7 L416.7 59.6 L405.5 65 L387.1 65.9 L379.4 70.5" fill="none" stroke="#1e3432" stroke-width="4.8" stroke-linecap="round" stroke-linejoin="round" opacity="0.94"/>
<path d="M401.1 253.1 L405.2 249 L412 247.6 L420 241.8 L420 233.7" fill="none" stroke="#1e3432" stroke-width="4.8" stroke-linecap="round" stroke-linejoin="round" opacity="0.94"/>
<path d="M293.4 55 L285.7 73.5 L278.9 81.3" fill="none" stroke="#1e3432" stroke-width="4.8" stroke-linecap="round" stroke-linejoin="round" opacity="0.94"/>
<path d="M244 82.9 L244.1 75.3 L246.8 72.6 L258.3 73.4" fill="none" stroke="#1e3432" stroke-width="4.8" stroke-linecap="round" stroke-linejoin="round" opacity="0.94"/>
<path d="M148 224.6 L143 220.1 L143.6 210.3 L140.2 201.9" fill="none" stroke="#1e3432" stroke-width="4.8" stroke-linecap="round" stroke-linejoin="round" opacity="0.94"/>
<path d="M378.5 119.8 L382 116.7 L391.8 116.7 L403 121.1 L412 120 L420 121.4 L420 123.9 L420 117.2" fill="none" stroke="#1e3432" stroke-width="4.8" stroke-linecap="round" stroke-linejoin="round" opacity="0.94"/>
<path d="M182 56.9 L172.4 91.5" fill="none" stroke="#1e3432" stroke-width="4.8" stroke-linecap="round" stroke-linejoin="round" opacity="0.94"/>
<path d="M90.8 90.5 L100.8 74" fill="none" stroke="#1e3432" stroke-width="4.8" stroke-linecap="round" stroke-linejoin="round" opacity="0.94"/>
<path d="M123.4 160.5 L122 147 L125.2 129.4" fill="none" stroke="#1e3432" stroke-width="4.8" stroke-linecap="round" stroke-linejoin="round" opacity="0.94"/>
<path d="M129.3 74.1 L120.4 79.3 L115.4 84.7 L112.6 95 L116.1 101" fill="none" stroke="#1e3432" stroke-width="4.8" stroke-linecap="round" stroke-linejoin="round" opacity="0.94"/>
<path d="M325.6 59.3 L314.7 63.3 L309.6 68.1 L298.2 71.7" fill="none" stroke="#1e3432" stroke-width="4.8" stroke-linecap="round" stroke-linejoin="round" opacity="0.94"/>
<path d="M270.8 300.5 L282.2 303.3 L313.5 317.7" fill="none" stroke="#1e3432" stroke-width="4.8" stroke-linecap="round" stroke-linejoin="round" opacity="0.94"/>
<path d="M181.7 29.8 L182.1 56.4" fill="none" stroke="#1e3432" stroke-width="4.8" stroke-linecap="round" stroke-linejoin="round" opacity="0.94"/>
<path d="M198.4 29.2 L218.5 0 L241.7 0" fill="none" stroke="#1e3432" stroke-width="4.8" stroke-linecap="round" stroke-linejoin="round" opacity="0.94"/>
<path d="M265.7 151.3 L238.6 145.6" fill="none" stroke="#1e3432" stroke-width="4.8" stroke-linecap="round" stroke-linejoin="round" opacity="0.94"/>
<path d="M251.5 265.2 L274 261.3 L279 255.8" fill="none" stroke="#1e3432" stroke-width="4.8" stroke-linecap="round" stroke-linejoin="round" opacity="0.94"/>
<path d="M294.4 235.9 L290.4 238.2 L283.7 247.6 L278.2 248.9" fill="none" stroke="#1e3432" stroke-width="4.8" stroke-linecap="round" stroke-linejoin="round" opacity="0.94"/>
<path d="M284.3 259.3 L306 272.7" fill="none" stroke="#1e3432" stroke-width="4.8" stroke-linecap="round" stroke-linejoin="round" opacity="0.94"/>
<path d="M159.1 92.8 L149.6 94 L133.9 101.9 L130.1 112.3" fill="none" stroke="#1e3432" stroke-width="4.8" stroke-linecap="round" stroke-linejoin="round" opacity="0.94"/>
<path d="M175.7 273.7 L152.7 297.2" fill="none" stroke="#1e3432" stroke-width="4.8" stroke-linecap="round" stroke-linejoin="round" opacity="0.94"/>
<path d="M121.1 113.3 L118 117.2 L115.9 117.2 L113.1 113.1 L105.1 113.7 L98.1 111.2 L85.6 110.5" fill="none" stroke="#1e3432" stroke-width="4.8" stroke-linecap="round" stroke-linejoin="round" opacity="0.94"/>
<path d="M248.3 37.2 L248.9 44.6 L257.6 50.7 L256.1 64.1" fill="none" stroke="#1e3432" stroke-width="4.8" stroke-linecap="round" stroke-linejoin="round" opacity="0.94"/>
<path d="M102.2 226 L86.2 224.2 L69.5 215 L45.9 211.5 L41.3 208.8" fill="none" stroke="#1e3432" stroke-width="4.8" stroke-linecap="round" stroke-linejoin="round" opacity="0.94"/>
<path d="M71.1 282.4 L74.2 287.6 L80.1 288.7 L92.9 299.3 L89.9 303.2 L91.8 309.5 L90.9 315.4 L87.6 319.6 L73 320 L65.7 318 L64.4 320 L71 320" fill="none" stroke="#1e3432" stroke-width="4.8" stroke-linecap="round" stroke-linejoin="round" opacity="0.94"/>
<path d="M420 81.5 L420 83.1 L411.2 86.6 L400.1 85.8" fill="none" stroke="#1e3432" stroke-width="4.8" stroke-linecap="round" stroke-linejoin="round" opacity="0.94"/>
<path d="M201.3 231.1 L190.5 252.4" fill="none" stroke="#1e3432" stroke-width="4.8" stroke-linecap="round" stroke-linejoin="round" opacity="0.94"/>
<path d="M128.8 169.6 L117.7 183.9 L115.2 191.6" fill="none" stroke="#1e3432" stroke-width="4.8" stroke-linecap="round" stroke-linejoin="round" opacity="0.94"/>
<path d="M143.5 289.3 L124.1 267 L124.6 240.1" fill="none" stroke="#1e3432" stroke-width="4.8" stroke-linecap="round" stroke-linejoin="round" opacity="0.94"/>
<path d="M395.2 207.5 L406.6 206.4 L420 202.1 L420 182" fill="none" stroke="#1e3432" stroke-width="4.8" stroke-linecap="round" stroke-linejoin="round" opacity="0.94"/>
<path d="M395.2 207.5 L398.8 202.7 L398.3 196.3 L403.9 186.1" fill="none" stroke="#1e3432" stroke-width="4.8" stroke-linecap="round" stroke-linejoin="round" opacity="0.94"/>
<path d="M393.3 96 L393 116.8" fill="none" stroke="#1e3432" stroke-width="4.8" stroke-linecap="round" stroke-linejoin="round" opacity="0.94"/>
<path d="M313.5 227.2 L305.3 237 L301 233.5 L295 233.6 L287.6 238.4 L282.5 246.3 L277.5 247.2" fill="none" stroke="#1e3432" stroke-width="4.8" stroke-linecap="round" stroke-linejoin="round" opacity="0.94"/>
<path d="M143.8 288.8 L124.6 266.6" fill="none" stroke="#1e3432" stroke-width="4.8" stroke-linecap="round" stroke-linejoin="round" opacity="0.94"/>
<path d="M135.5 59.5 L127.2 36.2 L123.6 31.7 L123 23" fill="none" stroke="#1e3432" stroke-width="4.8" stroke-linecap="round" stroke-linejoin="round" opacity="0.94"/>
<path d="M121.9 21.8 L114.2 10.4 L105.9 3.7" fill="none" stroke="#1e3432" stroke-width="4.8" stroke-linecap="round" stroke-linejoin="round" opacity="0.94"/>
<path d="M138.2 58.5 L139.6 40.8" fill="none" stroke="#1e3432" stroke-width="4.8" stroke-linecap="round" stroke-linejoin="round" opacity="0.94"/>
<path d="M408.2 306.9 L420 314.1" fill="none" stroke="#1e3432" stroke-width="4.8" stroke-linecap="round" stroke-linejoin="round" opacity="0.94"/>
<path d="M324.3 77.9 L321.8 70.6 L325.6 59.3" fill="none" stroke="#1e3432" stroke-width="4.8" stroke-linecap="round" stroke-linejoin="round" opacity="0.94"/>
<path d="M67.3 95.7 L71.7 99.6 L79.3 100.4 L84.2 110.4" fill="none" stroke="#1e3432" stroke-width="4.8" stroke-linecap="round" stroke-linejoin="round" opacity="0.94"/>
<path d="M261.3 119.7 L270.9 121.8 L274.7 117.5 L286.3 120.1" fill="none" stroke="#1e3432" stroke-width="4.8" stroke-linecap="round" stroke-linejoin="round" opacity="0.94"/>
<path d="M268.8 231.4 L271.1 226.8 L273.6 227.2 L277 223.5 L279.2 212.8" fill="none" stroke="#1e3432" stroke-width="4.8" stroke-linecap="round" stroke-linejoin="round" opacity="0.94"/>
<path d="M307.5 237.5 L314.8 229.8 L316.2 222.8 L318.6 220.8" fill="none" stroke="#1e3432" stroke-width="4.8" stroke-linecap="round" stroke-linejoin="round" opacity="0.94"/>
<path d="M289 284.4 L263.7 297.3" fill="none" stroke="#1e3432" stroke-width="4.8" stroke-linecap="round" stroke-linejoin="round" opacity="0.94"/>
<path d="M319.7 42.4 L318.7 54.8 L306.1 59.4 L297.9 71.4" fill="none" stroke="#1e3432" stroke-width="4.8" stroke-linecap="round" stroke-linejoin="round" opacity="0.94"/>
<path d="M29.7 167.9 L33.8 137.4" fill="none" stroke="#1e3432" stroke-width="4.8" stroke-linecap="round" stroke-linejoin="round" opacity="0.94"/>
<path d="M278.9 81.3 L269.6 94.2 L258.4 91.5" fill="none" stroke="#1e3432" stroke-width="4.8" stroke-linecap="round" stroke-linejoin="round" opacity="0.94"/>
<path d="M343.2 142.8 L349.5 142.3 L353.7 144.5 L356.2 156.2 L363.2 164.3" fill="none" stroke="#1e3432" stroke-width="4.8" stroke-linecap="round" stroke-linejoin="round" opacity="0.94"/>
<path d="M386.9 288.5 L397 295.7 L397.5 298.9 L400.3 301 L399.3 305.5" fill="none" stroke="#1e3432" stroke-width="4.8" stroke-linecap="round" stroke-linejoin="round" opacity="0.94"/>
<path d="M331.6 0 L336.1 0 L333.4 0 L340.8 8.5 L341.9 13.3 L341.5 16.5 L335.2 24.6" fill="none" stroke="#1e3432" stroke-width="4.8" stroke-linecap="round" stroke-linejoin="round" opacity="0.94"/>
<path d="M124.9 250.4 L125.6 268 L150.6 295.6 L154.2 297.4 L174.7 302.5 L218.2 320 L239.5 320 L251.5 309.4" fill="none" stroke="#1e3432" stroke-width="4.8" stroke-linecap="round" stroke-linejoin="round" opacity="0.94"/>
<path d="M412.7 220.3 L393.9 209.3" fill="none" stroke="#1e3432" stroke-width="4.8" stroke-linecap="round" stroke-linejoin="round" opacity="0.94"/>
<path d="M156.8 92.2 L129.5 90.4" fill="none" stroke="#1e3432" stroke-width="4.8" stroke-linecap="round" stroke-linejoin="round" opacity="0.94"/>
<path d="M286 10.3 L256.9 31.4" fill="none" stroke="#1e3432" stroke-width="4.8" stroke-linecap="round" stroke-linejoin="round" opacity="0.94"/>
<path d="M248.3 37.2 L229.9 50.1 L229.9 55.3 L225.7 56.8 L211.5 78.4" fill="none" stroke="#1e3432" stroke-width="4.8" stroke-linecap="round" stroke-linejoin="round" opacity="0.94"/>
<path d="M199 318.1 L177.4 303.7 L152.7 297.2" fill="none" stroke="#1e3432" stroke-width="4.8" stroke-linecap="round" stroke-linejoin="round" opacity="0.94"/>
<path d="M358.9 263.8 L352.3 263.1 L346.9 260.2 L344.1 255.8 L343.8 249.7" fill="none" stroke="#1e3432" stroke-width="4.8" stroke-linecap="round" stroke-linejoin="round" opacity="0.94"/>
<path d="M211.2 27.2 L250.3 7.5" fill="none" stroke="#1e3432" stroke-width="4.8" stroke-linecap="round" stroke-linejoin="round" opacity="0.94"/>
<path d="M335.2 24.6 L319.7 42.4" fill="none" stroke="#1e3432" stroke-width="4.8" stroke-linecap="round" stroke-linejoin="round" opacity="0.94"/>
<path d="M310.4 29.8 L300.8 17.5 L292.4 12.5" fill="none" stroke="#1e3432" stroke-width="4.8" stroke-linecap="round" stroke-linejoin="round" opacity="0.94"/>
<path d="M38.6 103.9 L40.9 95.5 L55.1 89.4" fill="none" stroke="#1e3432" stroke-width="4.8" stroke-linecap="round" stroke-linejoin="round" opacity="0.94"/>
<path d="M35.4 127 L38.6 103.9" fill="none" stroke="#1e3432" stroke-width="4.8" stroke-linecap="round" stroke-linejoin="round" opacity="0.94"/>
<path d="M38.8 102.6 L67.3 95.7" fill="none" stroke="#1e3432" stroke-width="4.8" stroke-linecap="round" stroke-linejoin="round" opacity="0.94"/>
<path d="M251.8 309.6 L238.3 320 L229.1 320" fill="none" stroke="#1e3432" stroke-width="4.8" stroke-linecap="round" stroke-linejoin="round" opacity="0.94"/>
<path d="M124.6 266.6 L125.5 231.5 L122.3 228.2 L115.4 227.3" fill="none" stroke="#1e3432" stroke-width="4.8" stroke-linecap="round" stroke-linejoin="round" opacity="0.94"/>
<path d="M55.1 89.4 L85.5 76.9" fill="none" stroke="#1e3432" stroke-width="4.8" stroke-linecap="round" stroke-linejoin="round" opacity="0.94"/>
<path d="M317.1 136.8 L328.8 143.8 L340.8 143.1" fill="none" stroke="#1e3432" stroke-width="4.8" stroke-linecap="round" stroke-linejoin="round" opacity="0.94"/>
</svg>
