<svg xmlns="http://www.w3.org/2000/svg" viewBox="0 0 420 320" role="img" aria-label="Unlabeled north-up street-grid crop" data-orientation="north-up">
<metadata>{"orientation":"north-up","projection":"local-web-mercator"}</metadata>
<defs>
<clipPath id="mapCrop"><rect x="8" y="8" width="404" height="304" rx="16"/></clipPath>
</defs>
<rect width="420" height="320" fill="#ede7d8"/>
<rect x="8" y="8" width="404" height="304" rx="16" fill="#f7f1e3" stroke="#d8cbb2" stroke-width="1.25"/>
<g clip-path="url(#mapCrop)">
<g data-layer="major-road-casing">
<path d="M182.9 154.3 L192.1 166.6 M199.4 156.6 L187.1 154.6 M211.8 157.2 L208 158 M218.8 152.9 L217.5 158 M204.3 161.5 L207.9 160 M210.4 160.1 L213.5 160.8 M216.1 163.8 L220.1 168.3 M213.8 147.1 L205.2 144.9 M200.5 163.1 L204.3 161.5 M213.1 149.4 L219.5 150.3 M196.7 164.7 L200.5 163.1 M224.6 164.9 L222.4 162.4 M213.8 147.1 L215 142.3 M221.8 142.5 L224 134.2 M204.8 136.3 L200.9 141.7 M222.9 135.9 L221.2 142.4 M224.1 172.7 L227.5 176.5 M210.6 141.7 L216 138.7 M220.4 160.2 L219.9 159.8 M226.5 153.8 L235.2 163.8 M220.6 145.6 L220 148 M229.2 170.1 L227.2 167.8 M181.8 171 L187.2 168.6 M237.9 179.7 L233.7 175.1 M227.5 176.5 L230.2 179.5 M176.8 173 L181.8 171 M192.6 151.7 L200 147.6 M217.7 137.7 L221.1 135.8 M240.2 161.4 L233.2 153.1 M170.3 175.8 L176.8 173 M230.2 179.5 L232.8 182.5 M225.3 126.5 L223.8 132.5 M205 133.8 L205.3 129.8 M171.8 154.9 L176.1 154 M252.9 176.3 L243.8 165.5 M175.9 153.7 L173.4 154.2 M205.3 129.8 L205.6 126.3 M230.8 125.5 L239.1 126.7 M165.2 177.9 L170.3 175.8 M246.2 127.8 L257.9 129.6 M216 138.7 L217.8 131.6 M235.2 163.8 L238.7 167.9 M153.6 158.7 L156.6 158.1 M156.5 157.7 L153.5 158.3 M197.1 137.6 L200.9 141.7 M207.3 172 L188.5 169.2 M173.8 142.6 L179.2 149.9 M146.6 157.4 L139.4 156 M219.3 125.6 L224.3 106.6 M139.2 156.4 L146.5 157.7 M150.6 158.7 L153.6 158.7 M146.5 157.7 L150.6 158.7 M150.7 158.4 L146.6 157.4 M153.5 158.3 L150.7 158.4 M175.9 127.7 L172.7 139.8 M148.4 157.5 L162 146.2 M207.3 149.7 L205.3 157.5 M263.8 189.1 L252.9 176.3 M225.3 126.5 L213.8 124.8 M220.6 174.1 L207.3 172 M173.3 139.9 L175.5 130.8 M162.7 135.8 L149.9 118.4 M156.6 158.1 L156.8 158 M212.2 130.8 L217.8 131.6 M271.8 152.3 L243.8 165.5 M207.1 108.5 L229.3 111.6 M205.3 157.5 L204.3 161.5 M201.1 150.3 L199.4 156.6 M194.4 134 L191.9 129.8 M199.4 156.6 L197.5 162.1 M156.6 157.7 L156.5 157.7 M203.9 123.6 L193.6 123.2 M210.3 160.5 L209.5 163.5 M206 177.2 L202.1 191.3 M185.5 175.8 L200.2 176.3 M139.4 156 L134.7 154.9 M134.5 155.5 L139.2 156.4 M250.3 181.5 L256.7 188.7 M191.6 129.1 L188.9 123 M212.2 130.8 L209.2 142.5 M228.8 133.2 L229.8 129.4 M175.5 130.8 L179.7 123.6 M245.3 175.6 L248 178.8 M231.9 123 L234.5 112.4 M187.2 168.6 L181.1 160.6 M170.8 142.6 L165.4 144.7 M209.2 142.5 L207.6 148.6 M227.2 167.8 L235.2 163.8 M188.9 123 L186.2 114.1 M208.7 166.7 L207.8 170 M217.7 137.7 L204.8 135.8 M172.5 158.8 L180 168.5 M133.9 172.6 L144.7 160.7 M209.2 164.7 L208.7 166.7 M207.3 172 L206 177.2 M110.6 141.4 L121.2 148.6 M200.9 141.7 L197 147.2 M240.2 161.4 L252.7 155.2 M209.5 163.5 L209.2 164.7 M202 146.5 L201.1 150.3 M124 150.3 L128.8 153 M131.8 154.6 L134.5 155.5 M130 152.9 L125.9 150.6 M134.7 154.9 L132.3 154.1 M234.3 145.1 L237 134.6 M197.5 162.1 L196.7 164.7 M125.9 150.6 L120 146.9 M144.3 160.3 L135.3 170.1 M210.4 160.1 L210.3 160.5 M159.8 139.7 L163 144 M237.9 168.3 L230.8 171.8 M229.2 170.1 L224.1 172.7 M240.9 149.3 L233.2 153.1 M158.3 180.6 L149.1 178.1 M161.1 163.6 L170.3 175.8 M181.1 160.6 L176.1 154 M200.2 176.3 L206 177.2 M233 144.9 L225.5 143.8 M220.7 97.8 L213.8 124.8 M197 147.2 L195.3 150.2 M244.3 135.7 L241.7 146.2 M240.3 169.9 L249.5 165.4 M221.8 179.6 L227.5 176.5 M170 126.1 L171.5 129 L169.2 138.6 L170.2 141.3 M162.9 178.9 L150.8 164.7 M224.1 172.7 L220.6 174.1 M235.2 163.8 L240.2 161.4 M261.5 151 L293.3 135.2 M193.4 129.2 L205.3 129.8 M184.2 81.2 L183.6 102.2 M224.8 104.7 L228.4 90.9 M238.2 108.8 L250.4 109.8 M180 112 L179 117.6 M122 168 L90.5 155.9 M119.1 71.1 L133.2 64.3 M114.1 74 L101.5 81.8 M102 82.4 L110.4 77.7 M120.6 69 L114.1 74 M139.6 58.9 L132.8 63.7 M146.6 53.8 L156.4 47.3 M132.8 63.7 L125.9 66.2 M155.8 46.7 L146.3 53 M110.4 77.7 L114.8 74.5 M114.8 74.5 L119.1 71.1 M93.9 84.5 L85.7 87.6 M125.9 66.2 L120.6 69 M90.5 86.5 L96.9 84.2 M133.2 64.3 L137 62.2 M137 62.2 L140.4 59.4 M143.7 55.3 L139.6 58.9 M71 94.6 L80.7 90.5 M140.4 59.4 L143.6 56.5 M138.1 155.5 L134.7 154.9 M135.8 155.8 L138.3 156.5 M226.8 229.3 L227.9 229.5 M183.7 259.8 L171.9 260.8 M162.7 144.2 L163.6 143.7 M112 77.3 L119.1 71.1 M163.3 133.6 L164.2 133.6 M140 57.8 L132.8 63.7 M183.6 259.2 L177.5 260.3 M154.6 48.8 L161.8 44.5 L164.3 40.4 M186.9 259.7 L191.9 259.1 M95.2 83.2 L85.7 87.6 M191.9 259.1 L194.5 257.3 M146.3 194.3 L145.2 195.6 M186.5 258.4 L183.3 258.8 M174.9 261.5 L178.2 264.5 M143.3 195.8 L145.2 195.6 M120.6 69 L115.9 71.9 M176.3 261.9 L177.8 264.9 M141 194.5 L141.6 195.6 M137 62.2 L140.4 60.1 M85.2 89 L90.5 86.5 M272.3 120.3 L271.5 119.8 M270.8 120.8 L271.6 120.9 M292.4 135.9 L294.2 136.1 M115.9 71.9 L113.5 73.8 M81.6 90.9 L85.2 89 M113.5 73.8 L112 74.9 M179.5 272.5 L174.5 275.3 M304.2 136.6 L303.5 137 M151.8 237.6 L154.3 239 M171.6 25.7 L172.5 27.5 M400.6 97.6 L401.4 98.1 M158.7 157.6 L164.1 156.5 M246.3 189.1 L242.8 185.2 M237.5 187.8 L240.4 191.1 M238.9 200.6 L236.8 209.7 M229.3 111.6 L227.5 118.7 M241.9 127.2 L246.2 127.8 M245.9 194.3 L241.1 193.7 M255.7 194.4 L249 193.6 M257.9 129.6 L266 130.8 M156.9 181.5 L151.6 185.3 M206.6 114.4 L207 110.3 M206.3 118.3 L206.4 116.6 M207.9 104.2 L208.6 93.1 M149.7 186.2 L142.8 189.3 M143.2 189.5 L149.9 186.6 M244.5 206.1 L245.5 202.3 M230.4 107.5 L229.3 111.6 M278.5 132.7 L289.5 134.5 M207.1 108.5 L207.9 104.5 M213.6 238.6 L194.5 252.6 M237.9 212.1 L234 216.3 M269.3 196.1 L264.3 195.5 M270.9 131.5 L275.4 132.2 M227.5 228 L221.2 232.9 M232.8 217.7 L227.6 221.6 M231.2 104.2 L230.4 107.5 M132.3 154.1 L131 153.5 M130.6 154 L131.8 154.6 M237.1 233.9 L255.5 228.7 M293.5 134.7 L284.5 133.2 M207.6 170.8 L207.3 172 M232.2 102.4 L233.6 96.8 M214.7 178.5 L219.2 179.1 M233.7 175.1 L237.6 171.6 M241.7 146.2 L234.3 145.1 M207.6 148.6 L207.3 149.7 M278.8 132.2 L274.8 131.6 M225.5 143.8 L221.2 143.2 M221.2 232.9 L213.6 238.6 M214 238.8 L221.6 233.2 M221.6 233.2 L226.8 229.3 M207.8 170 L207.6 170.8 M199.3 249.9 L212.5 240 M121.2 148.6 L124 150.3 M131 153.5 L130.2 153 M111.3 141 L100.2 133.9 M243.8 165.5 L238.7 167.9 M174.9 170.6 L170.7 165 M178.1 128.4 L191.6 129.1 M275.4 132.2 L278.5 132.7 M128.8 153 L129.7 153.5 M129.9 153.6 L130.6 154 M120 146.9 L116.1 144.3 M244.3 159.4 L247.9 163.6 M222.3 138.3 L217.7 137.7 M190.6 189.9 L200 191.1 M181.8 171 L184.1 174.1 M266.8 157.1 L287.3 147.2 M299.1 139.5 L271.8 152.3 M170.7 165 L166.8 159.9 M236.2 233.4 L228.3 227.9 M219.2 179.1 L221.8 179.6 M213.8 124.8 L212.2 130.8 M237 134.6 L239.1 126.7 M280.8 197.4 L276.2 197 M130.2 153 L130 152.9 M180 168.5 L181.8 171 M153.5 131.2 L155.9 134.4 M135.3 193.3 L138.9 191.4 M180 112 L184 107.4 M129.7 153.5 L129.9 153.6 M296.6 202 L286.5 208.6 M135 173 L148.3 159.4 M136.9 174.1 L143.4 176.6 M133.1 172.7 L125.5 181 M233.6 96.8 L234.9 91.7 M241.7 146.2 L240.9 149.3 M234.5 237.3 L234 242.2 L239.4 256.8 L239.9 269.7 M158.8 118.7 L163.3 133.6 M158.4 137.6 L141.8 144.5 M142.2 144.8 L158.4 137.9 M252.6 169.1 L257.6 174.8 M170.2 155.2 L172.5 158.8 M188.5 169.2 L187.6 168.5 M242.8 185.2 L250.3 181.5 M133.3 172.3 L122.7 168.3 M122.2 201.6 L129.9 196.6 M280.9 212.2 L273.1 217.3 M184.1 174.1 L185.5 175.8 M104.8 137.7 L110.6 141.4 M237.6 171.6 L239.7 170.4 M178.8 175.8 L176.8 173 M258.1 161.2 L266.8 157.1 M249.5 165.4 L252.6 169.1 M129.2 196.5 L121.8 201.3 M133.6 193.7 L129.2 196.5 M250.3 181.5 L258.3 177.6 M181.4 102 L175.8 91 M95 131.4 L104.8 137.7 M172.8 179.1 L176.1 183.4 M116.1 144.3 L113.6 142.6 M299.3 135.7 L293.5 134.7 M176.8 173 L174.9 170.6 M287 196.1 L282.7 197 M236.4 108.3 L230.9 107.5 M150.5 157.1 L158.2 150.8 M235.6 233.5 L226.2 236.7 M158.2 150.8 L164.1 146 M261.4 179.2 L269.7 189.2 M204.7 250.1 L210.1 244.3 L218.6 242.1 M255.1 154 L261.5 151 M164.2 133.6 L165.6 123.3 M253.2 163.7 L258.1 161.2 M227.6 228.7 L228.3 227.9 M180.4 177.9 L178.8 175.8 M275.9 161.3 L294.5 152.2 M249.5 165.4 L253.2 163.7 M166.8 159.9 L164.1 156.5 M237.5 187.8 L242.4 185.4 M184 181.7 L182 179.8 M288.4 208.1 L295.7 203.3 M258.3 107.9 L250.3 109.4 M234.3 145.1 L233 144.9 M172.9 115.6 L174.3 96 M233.1 133.9 L237 134.6 M255.1 227.8 L247.3 230.3 M113.6 142.6 L111.3 141 M226.8 229.3 L227.6 228.7 M225.7 101.5 L202.1 98.8 M217.4 241.3 L209.6 243.2 L205.2 247.2 M247.9 163.6 L249.5 165.4 M238.7 167.9 L237.9 168.3 M142.1 131.9 L158.5 125.1 M182 179.8 L180.6 178.2 M299.6 193.1 L293.7 194.5 M293.9 194.9 L299.8 193.5 M307.4 137.7 L317.7 139.5 M180.3 184.5 L182.6 182.8 M186.7 189.5 L190.6 189.9 M168.4 150.9 L166.9 148.3 M95.5 130.9 L80.6 121.4 M239.7 170.4 L240.3 169.9 M277.1 179.3 L269.2 171.5 M226.2 236.7 L218.6 241 M149.9 118.4 L145.8 112.8 M255.2 108.9 L262.7 107.4 M179.2 188.4 L183.6 189 M217.8 44.2 L218.6 55.3 L210.8 77.1 M245.2 132 L244.3 135.7 M228.8 133.2 L231 133.6 M171.1 176.8 L172.8 179.1 M182.6 182.8 L184 181.7 M176.1 183.4 L178 185.9 M166.9 148.3 L164.9 145.6 M166 148.5 L167.8 150.7 M240.2 246.6 L235.3 237.5 M260.5 224.6 L265.3 222.3 M231 133.6 L233.1 133.9 M208.5 88 L208.8 84.2 M159.7 253 L149.2 247.4 L128.4 249.6 M252.7 155.2 L255.1 154 M178.1 185.9 L179.2 188.4 M72.7 117.2 L90.8 128.7 M164.1 146 L166 148.5 M208.8 84.2 L223.8 86 M179.2 188.4 L178.6 185.9 M183.6 189 L186.7 189.5 M296.8 202.6 L302.5 198.9 M200 191.1 L202.1 191.3 M299.8 193.5 L305.8 192.2 M170 126.1 L172.1 119 M237.3 105.1 L242.7 84.1 M246.2 127.8 L245.2 131.8 M164.8 139.3 L165.6 142.6 M269.9 220 L273.6 217.7" fill="none" stroke="#fcf7e8" stroke-width="6.4" opacity="0.92" stroke-linecap="round" stroke-linejoin="round"/>
</g>
<g data-layer="major-road">
<path d="M182.9 154.3 L192.1 166.6 M199.4 156.6 L187.1 154.6 M211.8 157.2 L208 158 M218.8 152.9 L217.5 158 M204.3 161.5 L207.9 160 M210.4 160.1 L213.5 160.8 M216.1 163.8 L220.1 168.3 M213.8 147.1 L205.2 144.9 M200.5 163.1 L204.3 161.5 M213.1 149.4 L219.5 150.3 M196.7 164.7 L200.5 163.1 M224.6 164.9 L222.4 162.4 M213.8 147.1 L215 142.3 M221.8 142.5 L224 134.2 M204.8 136.3 L200.9 141.7 M222.9 135.9 L221.2 142.4 M224.1 172.7 L227.5 176.5 M210.6 141.7 L216 138.7 M220.4 160.2 L219.9 159.8 M226.5 153.8 L235.2 163.8 M220.6 145.6 L220 148 M229.2 170.1 L227.2 167.8 M181.8 171 L187.2 168.6 M237.9 179.7 L233.7 175.1 M227.5 176.5 L230.2 179.5 M176.8 173 L181.8 171 M192.6 151.7 L200 147.6 M217.7 137.7 L221.1 135.8 M240.2 161.4 L233.2 153.1 M170.3 175.8 L176.8 173 M230.2 179.5 L232.8 182.5 M225.3 126.5 L223.8 132.5 M205 133.8 L205.3 129.8 M171.8 154.9 L176.1 154 M252.9 176.3 L243.8 165.5 M175.9 153.7 L173.4 154.2 M205.3 129.8 L205.6 126.3 M230.8 125.5 L239.1 126.7 M165.2 177.9 L170.3 175.8 M246.2 127.8 L257.9 129.6 M216 138.7 L217.8 131.6 M235.2 163.8 L238.7 167.9 M153.6 158.7 L156.6 158.1 M156.5 157.7 L153.5 158.3 M197.1 137.6 L200.9 141.7 M207.3 172 L188.5 169.2 M173.8 142.6 L179.2 149.9 M146.6 157.4 L139.4 156 M219.3 125.6 L224.3 106.6 M139.2 156.4 L146.5 157.7 M150.6 158.7 L153.6 158.7 M146.5 157.7 L150.6 158.7 M150.7 158.4 L146.6 157.4 M153.5 158.3 L150.7 158.4 M175.9 127.7 L172.7 139.8 M148.4 157.5 L162 146.2 M207.3 149.7 L205.3 157.5 M263.8 189.1 L252.9 176.3 M225.3 126.5 L213.8 124.8 M220.6 174.1 L207.3 172 M173.3 139.9 L175.5 130.8 M162.7 135.8 L149.9 118.4 M156.6 158.1 L156.8 158 M212.2 130.8 L217.8 131.6 M271.8 152.3 L243.8 165.5 M207.1 108.5 L229.3 111.6 M205.3 157.5 L204.3 161.5 M201.1 150.3 L199.4 156.6 M194.4 134 L191.9 129.8 M199.4 156.6 L197.5 162.1 M156.6 157.7 L156.5 157.7 M203.9 123.6 L193.6 123.2 M210.3 160.5 L209.5 163.5 M206 177.2 L202.1 191.3 M185.5 175.8 L200.2 176.3 M139.4 156 L134.7 154.9 M134.5 155.5 L139.2 156.4 M250.3 181.5 L256.7 188.7 M191.6 129.1 L188.9 123 M212.2 130.8 L209.2 142.5 M228.8 133.2 L229.8 129.4 M175.5 130.8 L179.7 123.6 M245.3 175.6 L248 178.8 M231.9 123 L234.5 112.4 M187.2 168.6 L181.1 160.6 M170.8 142.6 L165.4 144.7 M209.2 142.5 L207.6 148.6 M227.2 167.8 L235.2 163.8 M188.9 123 L186.2 114.1 M208.7 166.7 L207.8 170 M217.7 137.7 L204.8 135.8 M172.5 158.8 L180 168.5 M133.9 172.6 L144.7 160.7 M209.2 164.7 L208.7 166.7 M207.3 172 L206 177.2 M110.6 141.4 L121.2 148.6 M200.9 141.7 L197 147.2 M240.2 161.4 L252.7 155.2 M209.5 163.5 L209.2 164.7 M202 146.5 L201.1 150.3 M124 150.3 L128.8 153 M131.8 154.6 L134.5 155.5 M130 152.9 L125.9 150.6 M134.7 154.9 L132.3 154.1 M234.3 145.1 L237 134.6 M197.5 162.1 L196.7 164.7 M125.9 150.6 L120 146.9 M144.3 160.3 L135.3 170.1 M210.4 160.1 L210.3 160.5 M159.8 139.7 L163 144 M237.9 168.3 L230.8 171.8 M229.2 170.1 L224.1 172.7 M240.9 149.3 L233.2 153.1 M158.3 180.6 L149.1 178.1 M161.1 163.6 L170.3 175.8 M181.1 160.6 L176.1 154 M200.2 176.3 L206 177.2 M233 144.9 L225.5 143.8 M220.7 97.8 L213.8 124.8 M197 147.2 L195.3 150.2 M244.3 135.7 L241.7 146.2 M240.3 169.9 L249.5 165.4 M221.8 179.6 L227.5 176.5 M170 126.1 L171.5 129 L169.2 138.6 L170.2 141.3 M162.9 178.9 L150.8 164.7 M224.1 172.7 L220.6 174.1 M235.2 163.8 L240.2 161.4 M261.5 151 L293.3 135.2 M193.4 129.2 L205.3 129.8 M184.2 81.2 L183.6 102.2 M224.8 104.7 L228.4 90.9 M238.2 108.8 L250.4 109.8 M180 112 L179 117.6 M122 168 L90.5 155.9 M119.1 71.1 L133.2 64.3 M114.1 74 L101.5 81.8 M102 82.4 L110.4 77.7 M120.6 69 L114.1 74 M139.6 58.9 L132.8 63.7 M146.6 53.8 L156.4 47.3 M132.8 63.7 L125.9 66.2 M155.8 46.7 L146.3 53 M110.4 77.7 L114.8 74.5 M114.8 74.5 L119.1 71.1 M93.9 84.5 L85.7 87.6 M125.9 66.2 L120.6 69 M90.5 86.5 L96.9 84.2 M133.2 64.3 L137 62.2 M137 62.2 L140.4 59.4 M143.7 55.3 L139.6 58.9 M71 94.6 L80.7 90.5 M140.4 59.4 L143.6 56.5 M138.1 155.5 L134.7 154.9 M135.8 155.8 L138.3 156.5 M226.8 229.3 L227.9 229.5 M183.7 259.8 L171.9 260.8 M162.7 144.2 L163.6 143.7 M112 77.3 L119.1 71.1 M163.3 133.6 L164.2 133.6 M140 57.8 L132.8 63.7 M183.6 259.2 L177.5 260.3 M154.6 48.8 L161.8 44.5 L164.3 40.4 M186.9 259.7 L191.9 259.1 M95.2 83.2 L85.7 87.6 M191.9 259.1 L194.5 257.3 M146.3 194.3 L145.2 195.6 M186.5 258.4 L183.3 258.8 M174.9 261.5 L178.2 264.5 M143.3 195.8 L145.2 195.6 M120.6 69 L115.9 71.9 M176.3 261.9 L177.8 264.9 M141 194.5 L141.6 195.6 M137 62.2 L140.4 60.1 M85.2 89 L90.5 86.5 M272.3 120.3 L271.5 119.8 M270.8 120.8 L271.6 120.9 M292.4 135.9 L294.2 136.1 M115.9 71.9 L113.5 73.8 M81.6 90.9 L85.2 89 M113.5 73.8 L112 74.9 M179.5 272.5 L174.5 275.3 M304.2 136.6 L303.5 137 M151.8 237.6 L154.3 239 M171.6 25.7 L172.5 27.5 M400.6 97.6 L401.4 98.1 M158.7 157.6 L164.1 156.5 M246.3 189.1 L242.8 185.2 M237.5 187.8 L240.4 191.1 M238.9 200.6 L236.8 209.7 M229.3 111.6 L227.5 118.7 M241.9 127.2 L246.2 127.8 M245.9 194.3 L241.1 193.7 M255.7 194.4 L249 193.6 M257.9 129.6 L266 130.8 M156.9 181.5 L151.6 185.3 M206.6 114.4 L207 110.3 M206.3 118.3 L206.4 116.6 M207.9 104.2 L208.6 93.1 M149.7 186.2 L142.8 189.3 M143.2 189.5 L149.9 186.6 M244.5 206.1 L245.5 202.3 M230.4 107.5 L229.3 111.6 M278.5 132.7 L289.5 134.5 M207.1 108.5 L207.9 104.5 M213.6 238.6 L194.5 252.6 M237.9 212.1 L234 216.3 M269.3 196.1 L264.3 195.5 M270.9 131.5 L275.4 132.2 M227.5 228 L221.2 232.9 M232.8 217.7 L227.6 221.6 M231.2 104.2 L230.4 107.5 M132.3 154.1 L131 153.5 M130.6 154 L131.8 154.6 M237.1 233.9 L255.5 228.7 M293.5 134.7 L284.5 133.2 M207.6 170.8 L207.3 172 M232.2 102.4 L233.6 96.8 M214.7 178.5 L219.2 179.1 M233.7 175.1 L237.6 171.6 M241.7 146.2 L234.3 145.1 M207.6 148.6 L207.3 149.7 M278.8 132.2 L274.8 131.6 M225.5 143.8 L221.2 143.2 M221.2 232.9 L213.6 238.6 M214 238.8 L221.6 233.2 M221.6 233.2 L226.8 229.3 M207.8 170 L207.6 170.8 M199.3 249.9 L212.5 240 M121.2 148.6 L124 150.3 M131 153.5 L130.2 153 M111.3 141 L100.2 133.9 M243.8 165.5 L238.7 167.9 M174.9 170.6 L170.7 165 M178.1 128.4 L191.6 129.1 M275.4 132.2 L278.5 132.7 M128.8 153 L129.7 153.5 M129.9 153.6 L130.6 154 M120 146.9 L116.1 144.3 M244.3 159.4 L247.9 163.6 M222.3 138.3 L217.7 137.7 M190.6 189.9 L200 191.1 M181.8 171 L184.1 174.1 M266.8 157.1 L287.3 147.2 M299.1 139.5 L271.8 152.3 M170.7 165 L166.8 159.9 M236.2 233.4 L228.3 227.9 M219.2 179.1 L221.8 179.6 M213.8 124.8 L212.2 130.8 M237 134.6 L239.1 126.7 M280.8 197.4 L276.2 197 M130.2 153 L130 152.9 M180 168.5 L181.8 171 M153.5 131.2 L155.9 134.4 M135.3 193.3 L138.9 191.4 M180 112 L184 107.4 M129.7 153.5 L129.9 153.6 M296.6 202 L286.5 208.6 M135 173 L148.3 159.4 M136.9 174.1 L143.4 176.6 M133.1 172.7 L125.5 181 M233.6 96.8 L234.9 91.7 M241.7 146.2 L240.9 149.3 M234.5 237.3 L234 242.2 L239.4 256.8 L239.9 269.7 M158.8 118.7 L163.3 133.6 M158.4 137.6 L141.8 144.5 M142.2 144.8 L158.4 137.9 M252.6 169.1 L257.6 174.8 M170.2 155.2 L172.5 158.8 M188.5 169.2 L187.6 168.5 M242.8 185.2 L250.3 181.5 M133.3 172.3 L122.7 168.3 M122.2 201.6 L129.9 196.6 M280.9 212.2 L273.1 217.3 M184.1 174.1 L185.5 175.8 M104.8 137.7 L110.6 141.4 M237.6 171.6 L239.7 170.4 M178.8 175.8 L176.8 173 M258.1 161.2 L266.8 157.1 M249.5 165.4 L252.6 169.1 M129.2 196.5 L121.8 201.3 M133.6 193.7 L129.2 196.5 M250.3 181.5 L258.3 177.6 M181.4 102 L175.8 91 M95 131.4 L104.8 137.7 M172.8 179.1 L176.1 183.4 M116.1 144.3 L113.6 142.6 M299.3 135.7 L293.5 134.7 M176.8 173 L174.9 170.6 M287 196.1 L282.7 197 M236.4 108.3 L230.9 107.5 M150.5 157.1 L158.2 150.8 M235.6 233.5 L226.2 236.7 M158.2 150.8 L164.1 146 M261.4 179.2 L269.7 189.2 M204.7 250.1 L210.1 244.3 L218.6 242.1 M255.1 154 L261.5 151 M164.2 133.6 L165.6 123.3 M253.2 163.7 L258.1 161.2 M227.6 228.7 L228.3 227.9 M180.4 177.9 L178.8 175.8 M275.9 161.3 L294.5 152.2 M249.5 165.4 L253.2 163.7 M166.8 159.9 L164.1 156.5 M237.5 187.8 L242.4 185.4 M184 181.7 L182 179.8 M288.4 208.1 L295.7 203.3 M258.3 107.9 L250.3 109.4 M234.3 145.1 L233 144.9 M172.9 115.6 L174.3 96 M233.1 133.9 L237 134.6 M255.1 227.8 L247.3 230.3 M113.6 142.6 L111.3 141 M226.8 229.3 L227.6 228.7 M225.7 101.5 L202.1 98.8 M217.4 241.3 L209.6 243.2 L205.2 247.2 M247.9 163.6 L249.5 165.4 M238.7 167.9 L237.9 168.3 M142.1 131.9 L158.5 125.1 M182 179.8 L180.6 178.2 M299.6 193.1 L293.7 194.5 M293.9 194.9 L299.8 193.5 M307.4 137.7 L317.7 139.5 M180.3 184.5 L182.6 182.8 M186.7 189.5 L190.6 189.9 M168.4 150.9 L166.9 148.3 M95.5 130.9 L80.6 121.4 M239.7 170.4 L240.3 169.9 M277.1 179.3 L269.2 171.5 M226.2 236.7 L218.6 241 M149.9 118.4 L145.8 112.8 M255.2 108.9 L262.7 107.4 M179.2 188.4 L183.6 189 M217.8 44.2 L218.6 55.3 L210.8 77.1 M245.2 132 L244.3 135.7 M228.8 133.2 L231 133.6 M171.1 176.8 L172.8 179.1 M182.6 182.8 L184 181.7 M176.1 183.4 L178 185.9 M166.9 148.3 L164.9 145.6 M166 148.5 L167.8 150.7 M240.2 246.6 L235.3 237.5 M260.5 224.6 L265.3 222.3 M231 133.6 L233.1 133.9 M208.5 88 L208.8 84.2 M159.7 253 L149.2 247.4 L128.4 249.6 M252.7 155.2 L255.1 154 M178.1 185.9 L179.2 188.4 M72.7 117.2 L90.8 128.7 M164.1 146 L166 148.5 M208.8 84.2 L223.8 86 M179.2 188.4 L178.6 185.9 M183.6 189 L186.7 189.5 M296.8 202.6 L302.5 198.9 M200 191.1 L202.1 191.3 M299.8 193.5 L305.8 192.2 M170 126.1 L172.1 119 M237.3 105.1 L242.7 84.1 M246.2 127.8 L245.2 131.8 M164.8 139.3 L165.6 142.6 M269.9 220 L273.6 217.7" fill="none" stroke="#1f3733" stroke-width="2.7" opacity="0.9" stroke-linecap="round" stroke-linejoin="round"/>
</g>
<g data-layer="minor-road-casing">
<path d="M29.6 302.7 L104.2 254.1 M46.9 299.1 L118 252.9 M150.1 256.3 L83.8 299.5 M97.3 262.5 L32.9 305.6 M81.2 297.3 L144.8 255.9 M111.7 260.8 L51 300.3 M63.3 296 L114.1 262.9 M123 277.6 L73.5 310 M374 63.8 L342.4 58.8 L334.7 80.1 M79.4 310.1 L125.5 279.8 M278 139.9 L233.7 162.1 M137.5 257 L97.4 282.9 M55.9 265.8 L7.7 280.2 M74 270.2 L36.1 295.1 M253.8 21.1 L252.6 58.8 M191.5 159.3 L149.8 176.9 M396.2 78.8 L408.5 61 L403.4 46.5 M200.9 67.4 L208.1 33.2 M163.3 119.5 L123.3 136.2 M26.4 135.2 L20.5 139.6 L12.8 151 L11 156.3 L11.9 164.9 M125.3 113.7 L145.6 143 M409.4 160.4 L371.2 176.7 M410.7 201.3 L370.8 189.4 M52 44.2 L34.8 73.5 M127.2 301.5 L99.2 277.5 M22.3 96.3 L9.9 126.7 M121 296.5 L150.6 274.3 M21.4 36.8 L23.5 38.6 L21 58.2 L16.1 66.2 M376.8 227.7 L337.4 220.6 M344.1 172.7 L356.8 164.5 L377.3 155.7 M297.2 72.3 L271.5 95.3 M265.1 152.3 L298.4 136.1 M26.4 102 L15.3 130.4 M110.5 309.1 L84.7 286.9 M110.6 71.6 L120.8 64 L132.3 60 L140.1 53.1 M274.2 253.2 L261.8 245.2 L254.3 229.3 M145.8 274 L118 293.9 M136 94.2 L174.1 98.5 M10.2 280.7 L45.8 270.2 M14 125.6 L25.7 98.5 M60.7 272.7 L32.4 290.7 M132.8 292.6 L108.2 271.9 M341.2 178.7 L373.3 165.3 M410.6 189.8 L376.1 181.5 M343.6 237.7 L364.6 260.3 M9.4 120.6 L19.7 94.7 M138.8 89.8 L174.4 93.6 M244.5 256.8 L254.9 282.5 M294 101.8 L268.7 83.8 M251.2 282.8 L241.1 257.3 M121.9 262.9 L145.1 282.9 M308.5 69.4 L287.2 90.3 M228.8 58.3 L224.9 32.6 M138.6 100.9 L114.8 82 M136.4 124 L153.2 146.7 M65 55 L36.7 40.4 M196.6 129.4 L199.2 103.6 M365.6 138.4 L386.6 118.1 M109.1 279.1 L131.8 298.1 M42 104.5 L14.5 89.5 M358.5 288.9 L328.7 276.8 M226.4 246.6 L233.4 271.2 M236.9 165.9 L265.1 152.3 M290.5 103.2 L265.4 86.7 M117.3 212.7 L103.4 235.4 M337.5 223.6 L369.5 228.6 M367.5 235.4 L335.3 229.4 M356.6 30.7 L369 7.7 M15.6 88.4 L42.7 102.5 M140 57.8 L122.5 48.8 L111.2 46.4 M37.5 261.3 L50.9 255.8 L67.6 252.5 M124.9 203.9 L99.9 219.8 M57.2 89.3 L79.7 71.6 M255.6 44.5 L257.3 20.1 M112.9 61.6 L128.7 40.2 M374.2 96.6 L369.2 98.4 L360.7 114.8 L358.4 116.1 M333.2 263.2 L340.7 252.8 L353.8 245.4 M269.3 196.1 L265.2 220 M160.6 102.6 L165.4 79.1 M142.3 100.8 L173.7 104 M365.9 267.5 L395.6 275.4 M185.5 81.4 L189.9 58.2 M174.3 96 L143.6 92.9 M170.7 165 L143.7 176.3 M171.6 83.3 L168 106.3 M143.8 218.2 L131.5 239.4 M260.3 21.7 L258.6 44.7 M337.6 231.2 L367 236.7 M304.7 221.9 L308.1 199.3 M16.3 310.2 L34.1 292.1 M374.2 235.8 L403.7 240.6 M136.5 289.3 L115.3 305.3 M357.5 36.1 L329.5 28.1 M112.1 275.2 L134.6 260.8 M278.1 119.9 L306.8 124.8 M365.7 285.3 L348.5 267.4 M51.2 18.2 L77.8 27.1 M340.4 62.5 L350 66.1 L357.3 71.3 L365.5 72.7 M374.6 223 L346.3 217.7 M237.9 48.6 L237.6 41.8 L232.6 27.4 M94.6 280.5 L113.6 296.9 M339.3 218.7 L367.4 223.8 M32.6 209.8 L27.8 217.7 L15.9 227.1 M219.9 251.6 L227.1 272.7 M294.3 132 L322.5 137 M266.2 127.5 L294.3 132 M16.2 76.1 L42.5 84.8 M373.9 17.7 L363.8 20.1 L359 30.9 L356.6 30.7 M198.7 286.9 L192.6 305.2 L190.2 307 M295.9 246.7 L272.7 259.2 M291.6 129.6 L263.7 125 M217.3 165.1 L240.8 153 M59.8 311.5 L81.2 297.3 M145.2 70.5 L133.2 89.9 M16.1 95.1 L8.1 115.5 M303.4 298 L331.5 300.8 M106.4 88 L89.4 104.3 M160.6 141.1 L136 151.5 M138.9 44.2 L130.9 55.9 L123.2 61.5 M140.4 217.6 L150.2 197.9 M163.1 76 L158.3 96.7 M351.1 118.8 L343.6 138.8 M33.9 36.9 L45.6 17.7 M224.3 51.6 L219.7 72.2 M113.6 296.9 L92.7 310.8 M206.8 261.4 L226.4 246.6 M197.4 54.1 L192.9 74.6 M290.2 92.4 L310.3 78.1 M165.7 106 L169.4 85.7 M363.6 300.2 L385.9 288.3 M115.1 25.5 L91.8 14.8 M137.4 173.9 L161.1 163.6 M283.8 153 L271.8 158.8 L263.3 166 M174.9 88.9 L178 68.7 M174.1 136.7 L200.2 141 M248.1 142.3 L262.7 159.1 M240.2 72.9 L266.2 77.4 M334.5 282.9 L330.7 302.6 M390.6 273.2 L380.8 264.3 L370 261.9 M279.2 73.8 L303.4 65.7 M43 11 L67.7 18.3 M39.1 36.3 L65.5 36.8 M318.3 278.3 L325.4 281.2 L343.2 284 M356 269.1 L371.1 285.2 M191.2 51.1 L194.8 31.6 M48.2 227.9 L72.9 221.5 M394.4 295.1 L384.4 302.2 L372.9 304 M339.8 8.9 L363.9 16 M80.8 22.1 L66.2 21.6 L55.6 18.7 M215.2 105.3 L210.3 124.2 M18.2 131.3 L25.5 112.8 M376.3 19.5 L376.3 22.3 L380.5 26.8 L384.9 37.2 M203 104.3 L201.7 123.5 M8.1 115.5 L32 121.6 M286.2 155.4 L274.2 160.3 L269.9 164.3 L269.8 167.8 M238.9 77 L263.9 80.5 M369.6 257.6 L378.7 260.4 L388.9 269.2 M389.8 298.6 L375.1 283.1 M388.8 201.9 L365.3 195.3 M361.2 124.5 L366.7 132.2 L377.3 138.2 M34.1 292.1 L52.4 279.2 M149.4 133 L127.6 142.1 M9.5 103.8 L33.5 108.9 M208.6 93.1 L233.1 96.7 M121.7 134.1 L143.5 125 M173.9 101.2 L149.2 98.7 M393.7 75.3 L396.4 65.1 L404 59.3 M29.5 266.2 L52.7 259.4 M239.4 145.8 L244.2 127.5 M57.1 64.7 L55.7 69.9 L47.4 81.7 M301.2 175.6 L277.4 181 M325.8 252.3 L348 260.6 M221.2 33 L223.4 51.6 M329.1 275.6 L351.7 283.3 M326.6 286.4 L304.9 277.5 M379 118.9 L361.3 131.7 M144.5 162.3 L156.3 178.5 M74.1 298.1 L55.5 310.1 M202.1 67.3 L226 71.4 M92.5 286.1 L74.1 298.1" fill="none" stroke="#fbf7eb" stroke-width="3.4" opacity="0.62" stroke-linecap="round" stroke-linejoin="round"/>
</g>
<g data-layer="minor-road">
<path d="M29.6 302.7 L104.2 254.1 M46.9 299.1 L118 252.9 M150.1 256.3 L83.8 299.5 M97.3 262.5 L32.9 305.6 M81.2 297.3 L144.8 255.9 M111.7 260.8 L51 300.3 M63.3 296 L114.1 262.9 M123 277.6 L73.5 310 M374 63.8 L342.4 58.8 L334.7 80.1 M79.4 310.1 L125.5 279.8 M278 139.9 L233.7 162.1 M137.5 257 L97.4 282.9 M55.9 265.8 L7.7 280.2 M74 270.2 L36.1 295.1 M253.8 21.1 L252.6 58.8 M191.5 159.3 L149.8 176.9 M396.2 78.8 L408.5 61 L403.4 46.5 M200.9 67.4 L208.1 33.2 M163.3 119.5 L123.3 136.2 M26.4 135.2 L20.5 139.6 L12.8 151 L11 156.3 L11.9 164.9 M125.3 113.7 L145.6 143 M409.4 160.4 L371.2 176.7 M410.7 201.3 L370.8 189.4 M52 44.2 L34.8 73.5 M127.2 301.5 L99.2 277.5 M22.3 96.3 L9.9 126.7 M121 296.5 L150.6 274.3 M21.4 36.8 L23.5 38.6 L21 58.2 L16.1 66.2 M376.8 227.7 L337.4 220.6 M344.1 172.7 L356.8 164.5 L377.3 155.7 M297.2 72.3 L271.5 95.3 M265.1 152.3 L298.4 136.1 M26.4 102 L15.3 130.4 M110.5 309.1 L84.7 286.9 M110.6 71.6 L120.8 64 L132.3 60 L140.1 53.1 M274.2 253.2 L261.8 245.2 L254.3 229.3 M145.8 274 L118 293.9 M136 94.2 L174.1 98.5 M10.2 280.7 L45.8 270.2 M14 125.6 L25.7 98.5 M60.7 272.7 L32.4 290.7 M132.8 292.6 L108.2 271.9 M341.2 178.7 L373.3 165.3 M410.6 189.8 L376.1 181.5 M343.6 237.7 L364.6 260.3 M9.4 120.6 L19.7 94.7 M138.8 89.8 L174.4 93.6 M244.5 256.8 L254.9 282.5 M294 101.8 L268.7 83.8 M251.2 282.8 L241.1 257.3 M121.9 262.9 L145.1 282.9 M308.5 69.4 L287.2 90.3 M228.8 58.3 L224.9 32.6 M138.6 100.9 L114.8 82 M136.4 124 L153.2 146.7 M65 55 L36.7 40.4 M196.6 129.4 L199.2 103.6 M365.6 138.4 L386.6 118.1 M109.1 279.1 L131.8 298.1 M42 104.5 L14.5 89.5 M358.5 288.9 L328.7 276.8 M226.4 246.6 L233.4 271.2 M236.9 165.9 L265.1 152.3 M290.5 103.2 L265.4 86.7 M117.3 212.7 L103.4 235.4 M337.5 223.6 L369.5 228.6 M367.5 235.4 L335.3 229.4 M356.6 30.7 L369 7.7 M15.6 88.4 L42.7 102.5 M140 57.8 L122.5 48.8 L111.2 46.4 M37.5 261.3 L50.9 255.8 L67.6 252.5 M124.9 203.9 L99.9 219.8 M57.2 89.3 L79.7 71.6 M255.6 44.5 L257.3 20.1 M112.9 61.6 L128.7 40.2 M374.2 96.6 L369.2 98.4 L360.7 114.8 L358.4 116.1 M333.2 263.2 L340.7 252.8 L353.8 245.4 M269.3 196.1 L265.2 220 M160.6 102.6 L165.4 79.1 M142.3 100.8 L173.7 104 M365.9 267.5 L395.6 275.4 M185.5 81.4 L189.9 58.2 M174.3 96 L143.6 92.9 M170.7 165 L143.7 176.3 M171.6 83.3 L168 106.3 M143.8 218.2 L131.5 239.4 M260.3 21.7 L258.6 44.7 M337.6 231.2 L367 236.7 M304.7 221.9 L308.1 199.3 M16.3 310.2 L34.1 292.1 M374.2 235.8 L403.7 240.6 M136.5 289.3 L115.3 305.3 M357.5 36.1 L329.5 28.1 M112.1 275.2 L134.6 260.8 M278.1 119.9 L306.8 124.8 M365.7 285.3 L348.5 267.4 M51.2 18.2 L77.8 27.1 M340.4 62.5 L350 66.1 L357.3 71.3 L365.5 72.7 M374.6 223 L346.3 217.7 M237.9 48.6 L237.6 41.8 L232.6 27.4 M94.6 280.5 L113.6 296.9 M339.3 218.7 L367.4 223.8 M32.6 209.8 L27.8 217.7 L15.9 227.1 M219.9 251.6 L227.1 272.7 M294.3 132 L322.5 137 M266.2 127.5 L294.3 132 M16.2 76.1 L42.5 84.8 M373.9 17.7 L363.8 20.1 L359 30.9 L356.6 30.7 M198.7 286.9 L192.6 305.2 L190.2 307 M295.9 246.7 L272.7 259.2 M291.6 129.6 L263.7 125 M217.3 165.1 L240.8 153 M59.8 311.5 L81.2 297.3 M145.2 70.5 L133.2 89.9 M16.1 95.1 L8.1 115.5 M303.4 298 L331.5 300.8 M106.4 88 L89.4 104.3 M160.6 141.1 L136 151.5 M138.9 44.2 L130.9 55.9 L123.2 61.5 M140.4 217.6 L150.2 197.9 M163.1 76 L158.3 96.7 M351.1 118.8 L343.6 138.8 M33.9 36.9 L45.6 17.7 M224.3 51.6 L219.7 72.2 M113.6 296.9 L92.7 310.8 M206.8 261.4 L226.4 246.6 M197.4 54.1 L192.9 74.6 M290.2 92.4 L310.3 78.1 M165.7 106 L169.4 85.7 M363.6 300.2 L385.9 288.3 M115.1 25.5 L91.8 14.8 M137.4 173.9 L161.1 163.6 M283.8 153 L271.8 158.8 L263.3 166 M174.9 88.9 L178 68.7 M174.1 136.7 L200.2 141 M248.1 142.3 L262.7 159.1 M240.2 72.9 L266.2 77.4 M334.5 282.9 L330.7 302.6 M390.6 273.2 L380.8 264.3 L370 261.9 M279.2 73.8 L303.4 65.7 M43 11 L67.7 18.3 M39.1 36.3 L65.5 36.8 M318.3 278.3 L325.4 281.2 L343.2 284 M356 269.1 L371.1 285.2 M191.2 51.1 L194.8 31.6 M48.2 227.9 L72.9 221.5 M394.4 295.1 L384.4 302.2 L372.9 304 M339.8 8.9 L363.9 16 M80.8 22.1 L66.2 21.6 L55.6 18.7 M215.2 105.3 L210.3 124.2 M18.2 131.3 L25.5 112.8 M376.3 19.5 L376.3 22.3 L380.5 26.8 L384.9 37.2 M203 104.3 L201.7 123.5 M8.1 115.5 L32 121.6 M286.2 155.4 L274.2 160.3 L269.9 164.3 L269.8 167.8 M238.9 77 L263.9 80.5 M369.6 257.6 L378.7 260.4 L388.9 269.2 M389.8 298.6 L375.1 283.1 M388.8 201.9 L365.3 195.3 M361.2 124.5 L366.7 132.2 L377.3 138.2 M34.1 292.1 L52.4 279.2 M149.4 133 L127.6 142.1 M9.5 103.8 L33.5 108.9 M208.6 93.1 L233.1 96.7 M121.7 134.1 L143.5 125 M173.9 101.2 L149.2 98.7 M393.7 75.3 L396.4 65.1 L404 59.3 M29.5 266.2 L52.7 259.4 M239.4 145.8 L244.2 127.5 M57.1 64.7 L55.7 69.9 L47.4 81.7 M301.2 175.6 L277.4 181 M325.8 252.3 L348 260.6 M221.2 33 L223.4 51.6 M329.1 275.6 L351.7 283.3 M326.6 286.4 L304.9 277.5 M379 118.9 L361.3 131.7 M144.5 162.3 L156.3 178.5 M74.1 298.1 L55.5 310.1 M202.1 67.3 L226 71.4 M92.5 286.1 L74.1 298.1" fill="none" stroke="#69776e" stroke-width="1.25" opacity="0.58" stroke-linecap="round" stroke-linejoin="round"/>
</g>
</g>
<g data-layer="north-up-compass" fill="none" stroke="#233934" stroke-linecap="round" stroke-linejoin="round" opacity="0.62">
<path d="M382 48L382 23" stroke-width="1.8"/>
<path d="M382 23L373 39M382 23L391 39" stroke-width="1.8"/>
<circle cx="382" cy="48" r="13" stroke-width="1.1" opacity="0.38"/>
</g>
<rect x="8" y="8" width="404" height="304" rx="16" fill="none" stroke="#233934" stroke-width="1.4" opacity="0.44"/>
</svg>
