<svg xmlns="http://www.w3.org/2000/svg" viewBox="0 0 420 320" role="img" aria-label="Unlabeled north-up street-grid crop" data-orientation="north-up">
<metadata>{"orientation":"north-up","projection":"local-web-mercator"}</metadata>
<defs>
<clipPath id="mapCrop"><rect x="8" y="8" width="404" height="304" rx="16"/></clipPath>
</defs>
<rect width="420" height="320" fill="#ede7d8"/>
<rect x="8" y="8" width="404" height="304" rx="16" fill="#f7f1e3" stroke="#d8cbb2" stroke-width="1.25"/>
<g clip-path="url(#mapCrop)">
<g data-layer="major-road-casing">
<path d="M224.8 146.5 L219.5 140.5 M230.1 151.4 L226.7 148.3 M239.1 154.4 L233.4 153.2 M230.2 152.6 L233.4 153.2 M240.4 170.4 L230.9 177.9 M243 153.8 L240.2 154.7 M188.2 163.2 L187.5 158.1 M220.8 136.8 L222 135.6 M251.7 149.3 L257.4 146.3 M186.5 150.8 L185.7 145.1 M195.4 178.1 L194.4 173.6 M245.2 152.7 L243.7 153.4 M224.3 133.3 L225.8 131.9 M191.5 169.3 L189.8 166.6 M186 169.3 L184.6 173.8 M187 155 L186.7 151.8 M207.3 183.3 L202 180.8 M186.6 154.9 L186.9 157.6 M230.6 127.2 L234 123.8 M225.8 131.9 L227 130.7 M192.1 170.2 L191.5 169.3 M195 181.3 L194.8 185.1 M246.2 164 L244.1 167.7 M188.5 141 L191.1 138.4 M206.6 165.8 L212.9 169.1 M186.2 182.9 L189.2 186.4 M217.3 188.4 L221.2 191.6 M262.2 143.8 L265.2 142.2 M213.9 136.5 L215.4 137.4 M214.2 185 L211.8 184.8 M229.4 188.1 L224.6 190.1 M268.3 140.6 L274.3 137.5 M187.3 136 L184.9 138.4 M193.6 135.7 L195.6 133.6 M137.7 195.1 L137.6 214.8 M183.4 128 L173.5 123.4 M228 180 L226.8 181 M184.4 180.8 L186.2 182.9 M242.8 169.5 L244.6 168.1 M245.6 172.1 L243.4 170.4 M248.3 158.5 L247.4 160.8 M234.5 186.7 L230.3 188.8 M189.2 186.4 L191.6 189.2 M203 175 L210.8 180.7 M198.6 127.8 L202.3 124.1 M191.4 138.1 L192.5 136.9 M178.3 129.8 L169.9 132 M197.5 132.2 L198.1 129.6 M167.3 144.1 L172.4 143 M219.6 186.6 L221 185.6 M186.6 142.9 L187.3 142.2 M205 191.2 L208.4 190.8 M212.9 169.1 L215.9 170.6 M236.9 110 L237.8 113.5 M290.3 132 L310.9 122 M200.7 163.6 L198 164.4 M199.4 166.5 L199.2 169.2 M196 167.6 L199.4 166.5 M200.7 165.7 L202.2 164.3 M191.5 169.3 L196 167.6 M198 164.4 L199.4 166.5 M202.7 163.6 L200.7 163.6 M236.4 108.1 L235.1 102.8 M237.9 114.3 L238.4 116.2 M137.6 175 L136.5 179.9 M203.1 164.5 L204.5 164.8 M200.7 163.6 L202.2 164.3 M205.5 165.2 L206.6 165.8 M238 156.1 L235.9 161.3 M197.4 164.7 L194.7 165.7 M285.2 133.9 L278.3 135.9 M138.1 211 L138.2 198.7 M204.5 164.8 L205.5 165.2 M194.7 165.7 L193.4 163.6 M278.3 135.9 L284.3 134.7 M202.2 164.3 L202.7 163.6 M199.4 166.5 L200.7 165.7 M166.9 164 L177.7 163.9 M137.1 179.8 L137.9 176 M202.2 164.3 L203.1 164.5 M191.1 170.2 L186.2 170.2 M221.2 176.8 L226 176.5 M216.6 171.4 L217.2 172.8 M187 163.9 L182.8 163.6 M180.5 145.7 L187.1 145.8 M232.1 154.8 L229.2 154.2 M236.7 160.9 L238 157.5 M188.3 145.7 L192.9 145.3 M192.4 162.2 L190.4 162.9 M165.5 148.9 L170.1 146 L175.7 145.4 M138.2 190.9 L138.2 186.5 M199.1 170.3 L199 171.7 M235.9 161.3 L235.2 164.1 M199.2 169.2 L199.1 170.3 M215.9 170.6 L216.6 171.4 M217.6 173.4 L218.5 174.8 M200.4 173 L201.8 174.1 M138.1 184.6 L137.2 181.7 M198 164.4 L197.4 164.7 M187.2 200 L195.8 219.3 M243.3 157.3 L238.5 156.3 M274 214.1 L265.9 223.2 M193 163 L192.4 162.2 M178.3 163.7 L182.8 163.6 M235.2 164.1 L236.3 161.8 M210.8 180.7 L213.8 182.9 M137.7 187.1 L137.7 190.4 M136.5 182.4 L137.2 184.8 M141.1 171 L141.5 170.5 M284.3 134.7 L287.8 133.4 M280 208.5 L274 214.1 M231.5 94.6 L227.7 90.2 M274.4 214.4 L279.9 209.2 M292.6 187.2 L290.8 191.4 M137.9 220.6 L138.1 211 M138.2 198.7 L138.2 195.6 M141.6 272.4 L140.4 247.3 M139.9 247.3 L140.9 267.1 M139.7 244.5 L139.9 247.3 M140.3 245.9 L140.2 244.3 M140.4 247.3 L140.3 245.9 M228.6 185.9 L227.4 186.3 M140.9 267.1 L141.1 272.4 M141.9 279.8 L141.6 272.4 M141.1 272.4 L141.5 279.1 M137 303.7 L142.1 283.9 M141.6 284 L136.5 303.7 M237.7 166.2 L238 167.4 M139 234.2 L139.7 244.5 M140.2 244.3 L139.5 234.2 M9.6 98.7 L19.7 91 L25.8 79.9 M142.1 283.9 L142 281.5 M141.5 281.5 L141.6 284 M142 281.5 L141.9 279.8 M183.1 178.5 L182.3 180 M26.8 75.5 L21.4 87.7 L15.1 94.6 M141.5 279.1 L141.4 280.3 M141.4 280.3 L141.5 281.5 M182.3 180 L183.5 179.8 M251 166.1 L249.5 165.9 M79.3 21.6 L58.2 39.3 L36.4 50.8 M139 240.1 L139.7 244.5 M140.2 244.3 L140.6 241.3 M242.5 202.1 L242.3 202 M141.5 170.5 L140.9 170.5 M271.7 197.3 L271.4 196.1 M192.1 98.3 L193.2 96.5 M65.2 149.3 L72.1 148.2 M56.5 153.3 L64.4 150.3 M301.3 154 L298.7 153.7 M140.3 265.6 L140.6 271.8 M142 271.7 L141.9 266.1 M141.9 279.8 L142 271.7 M166.3 210.2 L166 209.8 M140.6 271.8 L141.2 279 M73.2 147.9 L75 147.4 M73 185.4 L74.1 184.5 M87.3 227.1 L85.1 224.8 M66.2 142.3 L64.3 141.7 M77.5 219.6 L78.8 221.4 M350.8 142.8 L349.9 140.8 M30 78 L30.1 81.4 L26.9 80.8 L29.8 72.4 M113.5 270.2 L114.9 275.6 M9 99.6 L22 89.2 M115.5 274.7 L114.3 270.6 M178.9 140.2 L176.5 141.7 M208.2 134.1 L209.6 134.2 M212.4 128.4 L209.6 126.7 M200.8 191.6 L204.1 191.3 M204.4 133.7 L205.6 133.8 M194.7 186.4 L194.6 188.1 M253.4 175.9 L249.7 177.7 M174.5 134.7 L178.4 135.7 M223.4 208.8 L224.3 205.7 L229.3 201.8 M195.1 192.8 L198.1 192 M257.9 159.4 L255.1 158.2 M233.1 192.2 L236.4 194.6 M252.2 187.8 L255.5 183.5 M239.2 184.7 L237.3 185.5 M136.7 175 L132.2 190.6 L129.9 193.3 M220.9 221.9 L223.4 208.8 M242.5 183.3 L244.4 184.6 M247.3 185.7 L251.8 187.6 M249.7 177.7 L248 179 M249.8 174.2 L251.8 174.8 M207.4 125.5 L205.4 124.3 M225.6 194.6 L228.4 196.1 M187 130.6 L188.4 131.4 M221.8 192.1 L223.2 193.2 M259.8 160.3 L263.1 161.7 M205.8 117.8 L208.2 112.9 M201.1 121 L197.1 119.8 M256 174.2 L257.7 172.3 M187.1 198.3 L189.4 195.7 M160.8 145.2 L164.1 144.7 M161.1 149.5 L162.8 147.7 M165.9 120.5 L173.3 123.8 M264.6 167.8 L269.1 165.7 M152.3 157.7 L153.7 154.3 M236.4 194.6 L239.2 195.8 M156.2 151.8 L158.8 150.7 M207.1 114.3 L205.6 117.5 M147.8 141.3 L138.7 137.6 M243.6 197.9 L246.1 195 M131.6 192.4 L135.8 179.5 M192.4 117.2 L191.7 113.2 M257.7 172.3 L258.6 171.4 M182.6 201.4 L185.7 199.4 M171.4 179.8 L161.2 173.6 M218.7 175.1 L220.4 176.3 M238 156.1 L234.7 155.4 M260.7 169.9 L262.2 168.9 M263.2 177.8 L267 178.8 M220.9 180.5 L217.8 182.9 M184.1 163.9 L186.9 164.5 M201.8 174.1 L203 175 M142.3 188.1 L150.7 193.2 M151.3 176.8 L165.3 185.5 M152.4 143.2 L147.8 141.3 M199.5 172.3 L200.4 173 M249.9 164.8 L247.7 170.3 M193.4 163.6 L193 163 M268 195.5 L261.4 192.2 M270.6 163.8 L267.4 163.6 M154 153.8 L155.2 152.4 M153.7 194.7 L146.5 190.2 M177 154.9 L177.6 158.5 M221.2 176.8 L223 178.2 M180.7 201.6 L176.7 203.9 M199 171.7 L199.5 172.3 M190.4 162.9 L189.4 163.3 M242.8 158.5 L241.5 161.5 M159.3 170.7 L166.9 164.8 M258.8 190.9 L255.7 189.4 M192.4 170.7 L191.1 170.2 M229.2 154.2 L229.6 153.4 M228.6 182.4 L232.8 185.4 M179.8 116 L176 112.3 M163.8 132.4 L161.1 131.7 M193 143.7 L194.6 144.7 M278.4 162.1 L284.8 159.8 M221.7 190.8 L224.1 186.2 M244.8 155.8 L246.2 152.2 M217.2 172.8 L217.5 173.3 M212.5 135.7 L215.1 133.3 M272.5 165.8 L276 167.3 M191.1 142.5 L193 143.7 M192.9 145.3 L194.5 145 M182.3 180 L178.4 184 M270 179.8 L274.6 181.5 M228.2 174.8 L226.9 175.8 M189.4 163.3 L188.7 163.7 M226 176.5 L224.8 177.5 M237.1 168.1 L235.5 169.3 M183.4 117.5 L185.8 118.2 M192 109.7 L192.4 104.6 M147.7 162.9 L149.2 161.3 M245.2 152.7 L244.1 155.6 M224.8 177.5 L223.5 178.5 M188.9 141.3 L191.1 142.5 M215.9 100.3 L212.2 105.9 M230 173.5 L228.8 174.3 M229.6 153.4 L229.8 152.8 M229.9 152.3 L230 151.8 M143.6 167.2 L145.8 165 M236.9 188.4 L245.5 192.5 M246.4 163.5 L243.1 162.4 M235.8 164.8 L236.9 165.6 M232.9 155 L232.1 154.8 M234.7 155.4 L233.7 155.1 M220.4 176.3 L221.2 176.8 M182.8 163.6 L184.1 163.9 M238 157.5 L238.5 156.3 M191.9 192.2 L186.3 188.8 M171.8 155.4 L175.6 155.1 M230.9 172.8 L230 173.5 M233.9 170.5 L232.9 171.2 M224.5 179.3 L226 180.4 M164.4 202.2 L168 205.8 M241.9 169.3 L240 167.9 M234.3 99.8 L233.3 97.5 M269.1 219.9 L274.4 214.4 M188.7 163.7 L188.3 163.8 M217.5 173.3 L217.6 173.4 M229.8 152.8 L229.8 152.5 M166.9 155.8 L171.8 155.4 M235.5 169.3 L234.6 170 M284.8 159.8 L292.3 157.2 M223.5 178.5 L224.5 179.3 M223.5 178.5 L222.5 179.3 M213.8 182.9 L215.3 184 M233.7 155.1 L233 155 M150.5 160 L151.2 159.2 M159.8 164.1 L166.9 164 M218.5 174.8 L218.7 175.1 M232.9 171.2 L232.1 171.8 M186.9 164.5 L187.3 164.7 M187.5 163.9 L187 163.9 M230 151.8 L230.1 151.4 M240.2 162.8 L241.4 163.8 M241 161.6 L240.2 162.8 M215.1 133.3 L217.2 131.2 M217.9 185.3 L215.8 184.3 M246.9 158.2 L244.1 157.5 M278.2 139.2 L297.9 153 M228.8 174.3 L228.2 174.8 M242.6 161.7 L243.2 160.1 M173 206.5 L176.4 204.6 M137.9 106.1 L124.2 102.6 M236.4 161.5 L236.7 160.9 M243.2 160.1 L243.9 158.5 M237.7 166.2 L238.7 166.9 M241.4 163.8 L240.9 165 M238 167.4 L237.1 168.1 M222.3 179.4 L221.5 180.1 M187.1 145.8 L188.3 145.7 M150.4 112.6 L157.9 116.6 M187.9 163.8 L187.5 163.9 M188.3 163.8 L188 163.8 M231.6 172.2 L231 172.6 M235.4 164.4 L235.8 164.8 M234.6 170 L233.9 170.5 M172.3 189.8 L177.2 185.1 M232.1 171.8 L231.6 172.2 M229.8 152.5 L229.9 152.3 M186.3 188.8 L182.2 186.3 M145.6 107.5 L148.3 102.7 M284.3 204.4 L280.6 208 M300.1 170.1 L321 170.6 M239.6 167.6 L238.7 166.9 M178 162.1 L177.7 163.3 M215.6 130.3 L213.6 132.1 M240.3 165.7 L239.4 166.4 M243.3 157.3 L242.8 158.5 M250.2 164.1 L247.1 163.6 M194.6 144.7 L194.5 145 M235.4 164.4 L235.2 164.1 M295.1 184.3 L299 179.1 L299.1 174.6 M241.4 163.8 L242.8 163.3 M188 163.8 L187.9 163.8 M238.7 166.9 L238 167.4 M224.1 185.8 L224 184 M226.9 175.8 L226.4 176.2 M237.2 165.8 L237.7 166.2 M157.2 196.9 L154 194.9 M253 171.3 L251.7 167.9 M226.4 176.2 L226 176.5 M223 178.2 L223.5 178.5 M137.6 214.8 L137.5 224 M236.3 161.8 L236.4 161.5 M258.2 154.9 L255.1 158.2 M240.9 165 L240.3 165.7 M157.9 116.6 L162.1 118.7 M162.1 156.2 L155.2 157.6 M186.2 170.2 L185.7 170.3 M221.5 180.1 L220.9 180.5 M252.2 159.3 L249.1 158.6 M280.9 208.2 L284.3 205 M242.8 163.3 L243.1 162.4 M226 180.4 L226.8 181 M173.2 110 L168.5 106.9 M212.7 133 L211.7 134 M289.8 196.8 L290.4 193.8 M175.6 155.1 L177 154.9 M238.5 156.3 L238 156.1 M233 155 L232.9 155 M243.9 158.5 L244.1 157.5 M211.7 134 L210.8 134.8 M227.3 181.4 L228.3 182.1 M264.5 225.6 L268.6 220.6 M279.4 168.8 L282.2 170.1 M255.3 236.2 L255.6 242 L262.3 244.9 L261.3 249 M254.7 175.3 L253.1 171.8 M298.5 187.9 L304.3 190.1 M244.1 155.6 L243.7 156.5 M243.7 163.4 L244.9 163.7 M243.7 156.5 L243.3 157.3 M244.4 156.8 L244.8 155.8 M175.7 145.4 L177.8 145.6 M178.9 145.6 L180.5 145.7 M243.1 162.4 L242.6 161.7 M158 197.3 L160.3 198.7 M215.8 184.3 L215.4 185.1 M147.4 131.5 L143.6 132 M239.4 166.4 L239 166.7 M236.9 165.6 L237.2 165.8 M231 172.6 L230.9 172.8 M163 156.2 L166.9 155.8 M152.5 130.9 L150.1 131.2 M156.4 130.8 L154.8 130.7 M177.7 163.3 L177.7 163.9 M154.9 215.9 L140.6 223.9 M222.5 179.3 L222.3 179.4 M162.2 151.3 L165.5 148.9 M240 167.9 L239.6 167.6 M244.9 163.7 L246.2 164 M244.1 157.5 L244.4 156.8 M175.1 191.3 L180.6 194.5 M217.5 183.1 L217.1 183.4 M226.8 181 L227.3 181.4 M242.2 161.5 L241.5 161.5 M157.7 215 L164.3 211.3 M216.8 183.6 L216.4 184 M242.8 163.3 L243.7 163.4 M284.3 169.9 L288.8 169.9 M241.5 161.5 L241 161.6 M246.9 164.1 L248.5 164.5 M215.3 184 L215.8 184.3 M192.4 104.6 L192.6 101.1 M216.4 184 L215.8 184.3 M177.7 163.9 L178.3 163.7 M239 166.7 L238.7 166.9 M224.3 194 L221.1 196.3 M248.3 158.5 L246.9 158.2 M131 104.5 L138.5 106.9 M255.6 161.8 L259.6 162.4 M251.5 162 L250.5 163.5 M261.5 152.1 L258.2 154.9 M217.8 198.7 L214.6 203 M232.8 185.4 L234.5 186.7 M242.6 161.7 L242.2 161.5 M250.7 164.7 L251.2 163.2 M188.5 141 L188.9 141.3 M213.4 132.3 L212.7 133 M217.8 182.9 L217.5 183.1 M178.4 184 L176.1 182.6 M188.5 128.3 L186.8 130.4 M177.8 145.6 L178.9 145.6 M217.1 183.4 L216.8 183.6 M247.2 171.6 L246.1 172.4 M165.3 185.5 L170.1 188.7 M248.5 164.5 L249.9 164.8 M157.5 153.4 L161.6 151.8 M243.8 157.4 L243.3 157.3 M255.6 161.8 L253.7 160.6 M149 99 L147.2 102.6 M175.1 182 L172.9 180.7 M147.2 102.6 L145.6 105.4 M251.2 163.2 L252.1 162.1 M247.1 163.6 L246.4 163.5 M246.2 164 L246.9 164.1 M251 166.1 L250.7 165 M228.3 182.1 L228.6 182.4 M247.1 171.9 L246.8 172.9 M163.5 198.5 L169.3 192.8 M244.1 157.5 L243.8 157.4 M234.9 187 L236.4 188.1 M253.7 160.6 L252.8 159.4 M180.6 194.5 L184.6 197 M254.3 159.7 L255.1 158.2 M251.7 167.9 L251.3 166.7 M293.4 186.4 L294.9 186.8 M277.3 200.1 L273.1 198 M252.8 161.5 L251.5 162 M247.6 170.8 L247.2 171.6 M292.4 169.9 L298.6 169.9 M217.8 97.4 L215.9 100.3 M224.1 186.2 L224.1 185.8 M251.9 161.1 L251.5 162 M166.3 210.2 L168.9 208.8 M160.6 139 L163.9 135.7 M124 196.1 L133.1 193.7 M255.1 158.2 L253.7 159.2 M249.1 158.6 L248.3 158.5 M161.2 173.6 L158 171.6 M272.1 144.7 L266.8 148.8 M153.9 164.2 L158.3 164.1 M138.5 106.9 L141.5 108.2 M252.2 160.5 L252.8 161.5 M250.2 164.1 L249.9 164.8 M186.2 210.8 L183.3 203.5 M252.8 161.5 L253.7 160.6 M283.1 187.3 L279.4 192.3 L271.4 196.1 M252.5 159.7 L252.2 160.5 M168.5 106.9 L164.6 104.9 M144.7 108.9 L145.6 107.5 M166.9 164.8 L167.6 164 M180.8 185.5 L179.5 184.7 M191.4 221.8 L186.2 210.8 M213.6 132.1 L213.4 132.3 M250.5 163.5 L250.2 164.1 M172.9 180.7 L171.4 179.8 M252.1 162.1 L252.8 161.5 M252.8 161.5 L254 161.5 M160.8 87.2 L156.3 91 M253.7 160.6 L254.3 159.7 M289 199.4 L289.5 198.1 M249.9 164.8 L250.7 165 M181.9 186.2 L180.8 185.5 M179.5 184.7 L178.4 184 M156.3 91 L152.7 94.2 M189.5 126.9 L188.5 128.3 M166.9 164 L166.9 164.8 M251.3 166.7 L251 166.1 M247.7 170.3 L247.6 170.8 M177.5 184.9 L178.4 184 M156.3 143.3 L159.1 140.3 M253.7 159.2 L252.8 159.4 M160.5 103.1 L153 100.4 M219.9 93.1 L222.6 87.5 M169.3 192.8 L172 190.1 M263.4 162.8 L267 163.4 M247.2 171.6 L247.1 171.9 M264 150.5 L261.5 152.1 M172.3 189.8 L175.1 191.3 M105.3 99.3 L120.5 102.4 M252.8 159.4 L252.2 159.3 M137.1 136.9 L135.2 136 M225.1 87.6 L224.3 86 M123.9 103.2 L131 104.5 M221.6 191.3 L221.7 190.8 M254.6 161.6 L255.6 161.8 M271.7 197.3 L270.2 196.6 M113.8 137.8 L122.2 135.8 M120.7 102 L105.6 98.9 M303.6 153.1 L310.1 148.3 M282.7 202.6 L278.2 200.5 M175.8 182.5 L175.1 182 M139 230.7 L138 224 M295.4 169.5 L292 169.5" fill="none" stroke="#fcf7e8" stroke-width="6.4" opacity="0.92" stroke-linecap="round" stroke-linejoin="round"/>
</g>
<g data-layer="major-road">
<path d="M224.8 146.5 L219.5 140.5 M230.1 151.4 L226.7 148.3 M239.1 154.4 L233.4 153.2 M230.2 152.6 L233.4 153.2 M240.4 170.4 L230.9 177.9 M243 153.8 L240.2 154.7 M188.2 163.2 L187.5 158.1 M220.8 136.8 L222 135.6 M251.7 149.3 L257.4 146.3 M186.5 150.8 L185.7 145.1 M195.4 178.1 L194.4 173.6 M245.2 152.7 L243.7 153.4 M224.3 133.3 L225.8 131.9 M191.5 169.3 L189.8 166.6 M186 169.3 L184.6 173.8 M187 155 L186.7 151.8 M207.3 183.3 L202 180.8 M186.6 154.9 L186.9 157.6 M230.6 127.2 L234 123.8 M225.8 131.9 L227 130.7 M192.1 170.2 L191.5 169.3 M195 181.3 L194.8 185.1 M246.2 164 L244.1 167.7 M188.5 141 L191.1 138.4 M206.6 165.8 L212.9 169.1 M186.2 182.9 L189.2 186.4 M217.3 188.4 L221.2 191.6 M262.2 143.8 L265.2 142.2 M213.9 136.5 L215.4 137.4 M214.2 185 L211.8 184.8 M229.4 188.1 L224.6 190.1 M268.3 140.6 L274.3 137.5 M187.3 136 L184.9 138.4 M193.6 135.7 L195.6 133.6 M137.7 195.1 L137.6 214.8 M183.4 128 L173.5 123.4 M228 180 L226.8 181 M184.4 180.8 L186.2 182.9 M242.8 169.5 L244.6 168.1 M245.6 172.1 L243.4 170.4 M248.3 158.5 L247.4 160.8 M234.5 186.7 L230.3 188.8 M189.2 186.4 L191.6 189.2 M203 175 L210.8 180.7 M198.6 127.8 L202.3 124.1 M191.4 138.1 L192.5 136.9 M178.3 129.8 L169.9 132 M197.5 132.2 L198.1 129.6 M167.3 144.1 L172.4 143 M219.6 186.6 L221 185.6 M186.6 142.9 L187.3 142.2 M205 191.2 L208.4 190.8 M212.9 169.1 L215.9 170.6 M236.9 110 L237.8 113.5 M290.3 132 L310.9 122 M200.7 163.6 L198 164.4 M199.4 166.5 L199.2 169.2 M196 167.6 L199.4 166.5 M200.7 165.7 L202.2 164.3 M191.5 169.3 L196 167.6 M198 164.4 L199.4 166.5 M202.7 163.6 L200.7 163.6 M236.4 108.1 L235.1 102.8 M237.9 114.3 L238.4 116.2 M137.6 175 L136.5 179.9 M203.1 164.5 L204.5 164.8 M200.7 163.6 L202.2 164.3 M205.5 165.2 L206.6 165.8 M238 156.1 L235.9 161.3 M197.4 164.7 L194.7 165.7 M285.2 133.9 L278.3 135.9 M138.1 211 L138.2 198.7 M204.5 164.8 L205.5 165.2 M194.7 165.7 L193.4 163.6 M278.3 135.9 L284.3 134.7 M202.2 164.3 L202.7 163.6 M199.4 166.5 L200.7 165.7 M166.9 164 L177.7 163.9 M137.1 179.8 L137.9 176 M202.2 164.3 L203.1 164.5 M191.1 170.2 L186.2 170.2 M221.2 176.8 L226 176.5 M216.6 171.4 L217.2 172.8 M187 163.9 L182.8 163.6 M180.5 145.7 L187.1 145.8 M232.1 154.8 L229.2 154.2 M236.7 160.9 L238 157.5 M188.3 145.7 L192.9 145.3 M192.4 162.2 L190.4 162.9 M165.5 148.9 L170.1 146 L175.7 145.4 M138.2 190.9 L138.2 186.5 M199.1 170.3 L199 171.7 M235.9 161.3 L235.2 164.1 M199.2 169.2 L199.1 170.3 M215.9 170.6 L216.6 171.4 M217.6 173.4 L218.5 174.8 M200.4 173 L201.8 174.1 M138.1 184.6 L137.2 181.7 M198 164.4 L197.4 164.7 M187.2 200 L195.8 219.3 M243.3 157.3 L238.5 156.3 M274 214.1 L265.9 223.2 M193 163 L192.4 162.2 M178.3 163.7 L182.8 163.6 M235.2 164.1 L236.3 161.8 M210.8 180.7 L213.8 182.9 M137.7 187.1 L137.7 190.4 M136.5 182.4 L137.2 184.8 M141.1 171 L141.5 170.5 M284.3 134.7 L287.8 133.4 M280 208.5 L274 214.1 M231.5 94.6 L227.7 90.2 M274.4 214.4 L279.9 209.2 M292.6 187.2 L290.8 191.4 M137.9 220.6 L138.1 211 M138.2 198.7 L138.2 195.6 M141.6 272.4 L140.4 247.3 M139.9 247.3 L140.9 267.1 M139.7 244.5 L139.9 247.3 M140.3 245.9 L140.2 244.3 M140.4 247.3 L140.3 245.9 M228.6 185.9 L227.4 186.3 M140.9 267.1 L141.1 272.4 M141.9 279.8 L141.6 272.4 M141.1 272.4 L141.5 279.1 M137 303.7 L142.1 283.9 M141.6 284 L136.5 303.7 M237.7 166.2 L238 167.4 M139 234.2 L139.7 244.5 M140.2 244.3 L139.5 234.2 M9.6 98.7 L19.7 91 L25.8 79.9 M142.1 283.9 L142 281.5 M141.5 281.5 L141.6 284 M142 281.5 L141.9 279.8 M183.1 178.5 L182.3 180 M26.8 75.5 L21.4 87.7 L15.1 94.6 M141.5 279.1 L141.4 280.3 M141.4 280.3 L141.5 281.5 M182.3 180 L183.5 179.8 M251 166.1 L249.5 165.9 M79.3 21.6 L58.2 39.3 L36.4 50.8 M139 240.1 L139.7 244.5 M140.2 244.3 L140.6 241.3 M242.5 202.1 L242.3 202 M141.5 170.5 L140.9 170.5 M271.7 197.3 L271.4 196.1 M192.1 98.3 L193.2 96.5 M65.2 149.3 L72.1 148.2 M56.5 153.3 L64.4 150.3 M301.3 154 L298.7 153.7 M140.3 265.6 L140.6 271.8 M142 271.7 L141.9 266.1 M141.9 279.8 L142 271.7 M166.3 210.2 L166 209.8 M140.6 271.8 L141.2 279 M73.2 147.9 L75 147.4 M73 185.4 L74.1 184.5 M87.3 227.1 L85.1 224.8 M66.2 142.3 L64.3 141.7 M77.5 219.6 L78.8 221.4 M350.8 142.8 L349.9 140.8 M30 78 L30.1 81.4 L26.9 80.8 L29.8 72.4 M113.5 270.2 L114.9 275.6 M9 99.6 L22 89.2 M115.5 274.7 L114.3 270.6 M178.9 140.2 L176.5 141.7 M208.2 134.1 L209.6 134.2 M212.4 128.4 L209.6 126.7 M200.8 191.6 L204.1 191.3 M204.4 133.7 L205.6 133.8 M194.7 186.4 L194.6 188.1 M253.4 175.9 L249.7 177.7 M174.5 134.7 L178.4 135.7 M223.4 208.8 L224.3 205.7 L229.3 201.8 M195.1 192.8 L198.1 192 M257.9 159.4 L255.1 158.2 M233.1 192.2 L236.4 194.6 M252.2 187.8 L255.5 183.5 M239.2 184.7 L237.3 185.5 M136.7 175 L132.2 190.6 L129.9 193.3 M220.9 221.9 L223.4 208.8 M242.5 183.3 L244.4 184.6 M247.3 185.7 L251.8 187.6 M249.7 177.7 L248 179 M249.8 174.2 L251.8 174.8 M207.4 125.5 L205.4 124.3 M225.6 194.6 L228.4 196.1 M187 130.6 L188.4 131.4 M221.8 192.1 L223.2 193.2 M259.8 160.3 L263.1 161.7 M205.8 117.8 L208.2 112.9 M201.1 121 L197.1 119.8 M256 174.2 L257.7 172.3 M187.1 198.3 L189.4 195.7 M160.8 145.2 L164.1 144.7 M161.1 149.5 L162.8 147.7 M165.9 120.5 L173.3 123.8 M264.6 167.8 L269.1 165.7 M152.3 157.7 L153.7 154.3 M236.4 194.6 L239.2 195.8 M156.2 151.8 L158.8 150.7 M207.1 114.3 L205.6 117.5 M147.8 141.3 L138.7 137.6 M243.6 197.9 L246.1 195 M131.6 192.4 L135.8 179.5 M192.4 117.2 L191.7 113.2 M257.7 172.3 L258.6 171.4 M182.6 201.4 L185.7 199.4 M171.4 179.8 L161.2 173.6 M218.7 175.1 L220.4 176.3 M238 156.1 L234.7 155.4 M260.7 169.9 L262.2 168.9 M263.2 177.8 L267 178.8 M220.9 180.5 L217.8 182.9 M184.1 163.9 L186.9 164.5 M201.8 174.1 L203 175 M142.3 188.1 L150.7 193.2 M151.3 176.8 L165.3 185.5 M152.4 143.2 L147.8 141.3 M199.5 172.3 L200.4 173 M249.9 164.8 L247.7 170.3 M193.4 163.6 L193 163 M268 195.5 L261.4 192.2 M270.6 163.8 L267.4 163.6 M154 153.8 L155.2 152.4 M153.7 194.7 L146.5 190.2 M177 154.9 L177.6 158.5 M221.2 176.8 L223 178.2 M180.7 201.6 L176.7 203.9 M199 171.7 L199.5 172.3 M190.4 162.9 L189.4 163.3 M242.8 158.5 L241.5 161.5 M159.3 170.7 L166.9 164.8 M258.8 190.9 L255.7 189.4 M192.4 170.7 L191.1 170.2 M229.2 154.2 L229.6 153.4 M228.6 182.4 L232.8 185.4 M179.8 116 L176 112.3 M163.8 132.4 L161.1 131.7 M193 143.7 L194.6 144.7 M278.4 162.1 L284.8 159.8 M221.7 190.8 L224.1 186.2 M244.8 155.8 L246.2 152.2 M217.2 172.8 L217.5 173.3 M212.5 135.7 L215.1 133.3 M272.5 165.8 L276 167.3 M191.1 142.5 L193 143.7 M192.9 145.3 L194.5 145 M182.3 180 L178.4 184 M270 179.8 L274.6 181.5 M228.2 174.8 L226.9 175.8 M189.4 163.3 L188.7 163.7 M226 176.5 L224.8 177.5 M237.1 168.1 L235.5 169.3 M183.4 117.5 L185.8 118.2 M192 109.7 L192.4 104.6 M147.7 162.9 L149.2 161.3 M245.2 152.7 L244.1 155.6 M224.8 177.5 L223.5 178.5 M188.9 141.3 L191.1 142.5 M215.9 100.3 L212.2 105.9 M230 173.5 L228.8 174.3 M229.6 153.4 L229.8 152.8 M229.9 152.3 L230 151.8 M143.6 167.2 L145.8 165 M236.9 188.4 L245.5 192.5 M246.4 163.5 L243.1 162.4 M235.8 164.8 L236.9 165.6 M232.9 155 L232.1 154.8 M234.7 155.4 L233.7 155.1 M220.4 176.3 L221.2 176.8 M182.8 163.6 L184.1 163.9 M238 157.5 L238.5 156.3 M191.9 192.2 L186.3 188.8 M171.8 155.4 L175.6 155.1 M230.9 172.8 L230 173.5 M233.9 170.5 L232.9 171.2 M224.5 179.3 L226 180.4 M164.4 202.2 L168 205.8 M241.9 169.3 L240 167.9 M234.3 99.8 L233.3 97.5 M269.1 219.9 L274.4 214.4 M188.7 163.7 L188.3 163.8 M217.5 173.3 L217.6 173.4 M229.8 152.8 L229.8 152.5 M166.9 155.8 L171.8 155.4 M235.5 169.3 L234.6 170 M284.8 159.8 L292.3 157.2 M223.5 178.5 L224.5 179.3 M223.5 178.5 L222.5 179.3 M213.8 182.9 L215.3 184 M233.7 155.1 L233 155 M150.5 160 L151.2 159.2 M159.8 164.1 L166.9 164 M218.5 174.8 L218.7 175.1 M232.9 171.2 L232.1 171.8 M186.9 164.5 L187.3 164.7 M187.5 163.9 L187 163.9 M230 151.8 L230.1 151.4 M240.2 162.8 L241.4 163.8 M241 161.6 L240.2 162.8 M215.1 133.3 L217.2 131.2 M217.9 185.3 L215.8 184.3 M246.9 158.2 L244.1 157.5 M278.2 139.2 L297.9 153 M228.8 174.3 L228.2 174.8 M242.6 161.7 L243.2 160.1 M173 206.5 L176.4 204.6 M137.9 106.1 L124.2 102.6 M236.4 161.5 L236.7 160.9 M243.2 160.1 L243.9 158.5 M237.7 166.2 L238.7 166.9 M241.4 163.8 L240.9 165 M238 167.4 L237.1 168.1 M222.3 179.4 L221.5 180.1 M187.1 145.8 L188.3 145.7 M150.4 112.6 L157.9 116.6 M187.9 163.8 L187.5 163.9 M188.3 163.8 L188 163.8 M231.6 172.2 L231 172.6 M235.4 164.4 L235.8 164.8 M234.6 170 L233.9 170.5 M172.3 189.8 L177.2 185.1 M232.1 171.8 L231.6 172.2 M229.8 152.5 L229.9 152.3 M186.3 188.8 L182.2 186.3 M145.6 107.5 L148.3 102.7 M284.3 204.4 L280.6 208 M300.1 170.1 L321 170.6 M239.6 167.6 L238.7 166.9 M178 162.1 L177.7 163.3 M215.6 130.3 L213.6 132.1 M240.3 165.7 L239.4 166.4 M243.3 157.3 L242.8 158.5 M250.2 164.1 L247.1 163.6 M194.6 144.7 L194.5 145 M235.4 164.4 L235.2 164.1 M295.1 184.3 L299 179.1 L299.1 174.6 M241.4 163.8 L242.8 163.3 M188 163.8 L187.9 163.8 M238.7 166.9 L238 167.4 M224.1 185.8 L224 184 M226.9 175.8 L226.4 176.2 M237.2 165.8 L237.7 166.2 M157.2 196.9 L154 194.9 M253 171.3 L251.7 167.9 M226.4 176.2 L226 176.5 M223 178.2 L223.5 178.5 M137.6 214.8 L137.5 224 M236.3 161.8 L236.4 161.5 M258.2 154.9 L255.1 158.2 M240.9 165 L240.3 165.7 M157.9 116.6 L162.1 118.7 M162.1 156.2 L155.2 157.6 M186.2 170.2 L185.7 170.3 M221.5 180.1 L220.9 180.5 M252.2 159.3 L249.1 158.6 M280.9 208.2 L284.3 205 M242.8 163.3 L243.1 162.4 M226 180.4 L226.8 181 M173.2 110 L168.5 106.9 M212.7 133 L211.7 134 M289.8 196.8 L290.4 193.8 M175.6 155.1 L177 154.9 M238.5 156.3 L238 156.1 M233 155 L232.9 155 M243.9 158.5 L244.1 157.5 M211.7 134 L210.8 134.8 M227.3 181.4 L228.3 182.1 M264.5 225.6 L268.6 220.6 M279.4 168.8 L282.2 170.1 M255.3 236.2 L255.6 242 L262.3 244.9 L261.3 249 M254.7 175.3 L253.1 171.8 M298.5 187.9 L304.3 190.1 M244.1 155.6 L243.7 156.5 M243.7 163.4 L244.9 163.7 M243.7 156.5 L243.3 157.3 M244.4 156.8 L244.8 155.8 M175.7 145.4 L177.8 145.6 M178.9 145.6 L180.5 145.7 M243.1 162.4 L242.6 161.7 M158 197.3 L160.3 198.7 M215.8 184.3 L215.4 185.1 M147.4 131.5 L143.6 132 M239.4 166.4 L239 166.7 M236.9 165.6 L237.2 165.8 M231 172.6 L230.9 172.8 M163 156.2 L166.9 155.8 M152.5 130.9 L150.1 131.2 M156.4 130.8 L154.8 130.7 M177.7 163.3 L177.7 163.9 M154.9 215.9 L140.6 223.9 M222.5 179.3 L222.3 179.4 M162.2 151.3 L165.5 148.9 M240 167.9 L239.6 167.6 M244.9 163.7 L246.2 164 M244.1 157.5 L244.4 156.8 M175.1 191.3 L180.6 194.5 M217.5 183.1 L217.1 183.4 M226.8 181 L227.3 181.4 M242.2 161.5 L241.5 161.5 M157.7 215 L164.3 211.3 M216.8 183.6 L216.4 184 M242.8 163.3 L243.7 163.4 M284.3 169.9 L288.8 169.9 M241.5 161.5 L241 161.6 M246.9 164.1 L248.5 164.5 M215.3 184 L215.8 184.3 M192.4 104.6 L192.6 101.1 M216.4 184 L215.8 184.3 M177.7 163.9 L178.3 163.7 M239 166.7 L238.7 166.9 M224.3 194 L221.1 196.3 M248.3 158.5 L246.9 158.2 M131 104.5 L138.5 106.9 M255.6 161.8 L259.6 162.4 M251.5 162 L250.5 163.5 M261.5 152.1 L258.2 154.9 M217.8 198.7 L214.6 203 M232.8 185.4 L234.5 186.7 M242.6 161.7 L242.2 161.5 M250.7 164.7 L251.2 163.2 M188.5 141 L188.9 141.3 M213.4 132.3 L212.7 133 M217.8 182.9 L217.5 183.1 M178.4 184 L176.1 182.6 M188.5 128.3 L186.8 130.4 M177.8 145.6 L178.9 145.6 M217.1 183.4 L216.8 183.6 M247.2 171.6 L246.1 172.4 M165.3 185.5 L170.1 188.7 M248.5 164.5 L249.9 164.8 M157.5 153.4 L161.6 151.8 M243.8 157.4 L243.3 157.3 M255.6 161.8 L253.7 160.6 M149 99 L147.2 102.6 M175.1 182 L172.9 180.7 M147.2 102.6 L145.6 105.4 M251.2 163.2 L252.1 162.1 M247.1 163.6 L246.4 163.5 M246.2 164 L246.9 164.1 M251 166.1 L250.7 165 M228.3 182.1 L228.6 182.4 M247.1 171.9 L246.8 172.9 M163.5 198.5 L169.3 192.8 M244.1 157.5 L243.8 157.4 M234.9 187 L236.4 188.1 M253.7 160.6 L252.8 159.4 M180.6 194.5 L184.6 197 M254.3 159.7 L255.1 158.2 M251.7 167.9 L251.3 166.7 M293.4 186.4 L294.9 186.8 M277.3 200.1 L273.1 198 M252.8 161.5 L251.5 162 M247.6 170.8 L247.2 171.6 M292.4 169.9 L298.6 169.9 M217.8 97.4 L215.9 100.3 M224.1 186.2 L224.1 185.8 M251.9 161.1 L251.5 162 M166.3 210.2 L168.9 208.8 M160.6 139 L163.9 135.7 M124 196.1 L133.1 193.7 M255.1 158.2 L253.7 159.2 M249.1 158.6 L248.3 158.5 M161.2 173.6 L158 171.6 M272.1 144.7 L266.8 148.8 M153.9 164.2 L158.3 164.1 M138.5 106.9 L141.5 108.2 M252.2 160.5 L252.8 161.5 M250.2 164.1 L249.9 164.8 M186.2 210.8 L183.3 203.5 M252.8 161.5 L253.7 160.6 M283.1 187.3 L279.4 192.3 L271.4 196.1 M252.5 159.7 L252.2 160.5 M168.5 106.9 L164.6 104.9 M144.7 108.9 L145.6 107.5 M166.9 164.8 L167.6 164 M180.8 185.5 L179.5 184.7 M191.4 221.8 L186.2 210.8 M213.6 132.1 L213.4 132.3 M250.5 163.5 L250.2 164.1 M172.9 180.7 L171.4 179.8 M252.1 162.1 L252.8 161.5 M252.8 161.5 L254 161.5 M160.8 87.2 L156.3 91 M253.7 160.6 L254.3 159.7 M289 199.4 L289.5 198.1 M249.9 164.8 L250.7 165 M181.9 186.2 L180.8 185.5 M179.5 184.7 L178.4 184 M156.3 91 L152.7 94.2 M189.5 126.9 L188.5 128.3 M166.9 164 L166.9 164.8 M251.3 166.7 L251 166.1 M247.7 170.3 L247.6 170.8 M177.5 184.9 L178.4 184 M156.3 143.3 L159.1 140.3 M253.7 159.2 L252.8 159.4 M160.5 103.1 L153 100.4 M219.9 93.1 L222.6 87.5 M169.3 192.8 L172 190.1 M263.4 162.8 L267 163.4 M247.2 171.6 L247.1 171.9 M264 150.5 L261.5 152.1 M172.3 189.8 L175.1 191.3 M105.3 99.3 L120.5 102.4 M252.8 159.4 L252.2 159.3 M137.1 136.9 L135.2 136 M225.1 87.6 L224.3 86 M123.9 103.2 L131 104.5 M221.6 191.3 L221.7 190.8 M254.6 161.6 L255.6 161.8 M271.7 197.3 L270.2 196.6 M113.8 137.8 L122.2 135.8 M120.7 102 L105.6 98.9 M303.6 153.1 L310.1 148.3 M282.7 202.6 L278.2 200.5 M175.8 182.5 L175.1 182 M139 230.7 L138 224 M295.4 169.5 L292 169.5" fill="none" stroke="#1f3733" stroke-width="2.7" opacity="0.9" stroke-linecap="round" stroke-linejoin="round"/>
</g>
<g data-layer="minor-road-casing">
<path d="M370.2 84.9 L367.1 83 L366.4 79.9 L375.5 67.2 L398.9 49.8 L401.6 44.9 L410.8 36.7 M375.5 67.2 L385.9 52.9 L393.3 37.1 L398.7 30.9 L387.3 35.8 M88.5 257.4 L87.5 262 L81.4 268.9 L66.4 275.8 L52.2 279.6 L34.8 279.4 M361.6 217.3 L320 209.2 L316.2 212.4 L306.2 209.1 M49.7 54.4 L54.4 50.8 L66.7 48.6 L85.6 33.8 M361.6 110.2 L390.9 86.4 M356.1 230.9 L345.4 224.4 L333.5 204.7 M224.6 277.1 L213.8 286.7 L201.3 302.9 M114.9 247.7 L122 259.3 L122.3 269.6 L124.6 275 M351 132.1 L345.7 127.7 L345.7 119.7 L342 117.5 L344.5 107.8 M342.2 199.5 L346.6 187.3 L353.6 175.4 M69.3 293 L92.1 311.1 M358.3 286.2 L336.1 302.5 M247.6 200.2 L274 214.1 M281.1 294.2 L305.4 309.7 M80.8 302.1 L98.7 290.1 L102 285.4 M380.1 170.8 L392.3 162.3 L395.4 151.8 M137.3 53.4 L141.5 56.3 L147.8 54.5 L154.5 59.7 L151.3 63.1 L151.9 65.2 M191.5 287.4 L211.1 270.1 M263.1 159.3 L286.3 144.9 M387.3 35.8 L399.5 22.9 L406.7 19.4 M412.2 34.8 L404.8 33.6 L397.7 40.4 L389.5 44 M82.7 303.6 L96 300.9 L107.5 293.6 M355.8 175.1 L356.2 168.8 L351.3 165.4 L353.3 162.5 L355.3 162.9 L354.9 168 M133.4 128 L106.2 123 M32 207 L44 225.8 M92.4 185.3 L86.6 195.6 L91.1 204.1 M107.5 252.7 L101.1 272.5 M349.2 183.4 L372.4 193.6 M46.1 100.9 L63.7 116.2 M370.7 49.5 L378.2 49.8 L377.6 52 L380.1 55.6 L377.3 58.9 L381.8 58.1 M343.3 303.2 L348.5 299.6 L351.7 294.1 L360.6 290.4 M29.6 219.6 L52.6 210.1 M375 111.7 L388.5 119 L394.6 124.4 M380.2 138.9 L387.9 132.8 L389.9 134.2 L383.6 139.4 L381.8 137.7 M122.1 102.7 L113.9 113.2 L105.7 117.3 M411.3 85.5 L389.5 96.3 M64.5 88.6 L45.3 100.3 M394.1 36.1 L390.4 37.7 L378.2 49.8 M324.8 238.1 L322.5 246.2 L324 256.2 M365.5 72.4 L354.6 79.7 L354.1 74.6 L351.9 75.3 M392.3 84.3 L402 77.3 L411.7 80.4 M341.9 109.9 L340.1 108.7 L341 98.1 L344.4 93.4 M27.2 156.7 L37.3 150.7 L43.7 144.3 M333.1 302 L350.5 303.5 L355.3 306 M181.4 113.9 L184.8 108.3 L186.1 96.9 M111.3 180.2 L88.3 183 M76.4 311.2 L62.3 297.1 M275 284.3 L276.7 281.5 L287.7 283.1 L287.6 279 M383.7 142 L399.1 129.2 M330.1 234.3 L343 220.4 M89.5 301.5 L74.4 289 M252.5 286.5 L268.2 274.7 M210.1 190.6 L205.5 206.9 M118.5 107 L137.2 115.6 M343.3 245.5 L344 238.4 L341.4 229.6 M91.1 46.9 L109.1 54.9 M8.9 171 L28 178.2 M94.5 94.8 L108.9 82.8 M337 227 L331.2 223.4 L340.1 215.6 M138.7 112.8 L121 103.9 M298.9 172.7 L310.7 175.4 L313.9 181.4 M76.4 128.5 L66.6 142.3 M390.1 239.5 L396.1 236.2 L392 228.1 L393.1 227.2 M343.6 245.6 L332 258.2 M262.1 306.5 L271.4 311.4 L273.3 310 L269.2 306.2 M52.2 279.6 L66.4 290.7 M140.3 115.3 L140 130.6 M47.2 58.7 L42.6 55.9 L35.9 60.9 L34.8 64.5 M119.9 105.1 L135 113 L134.2 114.2 M178 93.3 L174.3 100.1 L177.5 100.9 L179.5 96 M303.8 192.9 L290.9 204.3 M62.7 256.2 L60 249.5 L57.1 250.1 L54.4 244.8 M103.1 198.5 L93.6 185.4 M299.5 217.7 L282.4 210.3 M325.5 236.8 L336.6 233.2 L341.4 229.6 M321.8 236.3 L326.5 229.3 L331.6 232.7 M286.1 292.7 L282.9 290.7 L287.3 285.7 L292.9 289.2 M394.1 157.5 L404.5 161.9 L408.9 157.5 M135.4 17.1 L119.4 24.7 M80.8 144.7 L90.4 132.3 M398.2 175.8 L396.7 169.2 L392.3 162.3 M343.6 163.4 L342.5 165 L348.9 168.1 L347.9 174.7 M36.8 246.6 L52.3 238.6 M345.2 192.8 L330.7 183.9 M121.4 99.9 L113.4 98 L105.5 92.8 M130 301.8 L128.5 303.1 L124.3 298.4 L125.9 297.8 L130 301.8 M124.6 275 L138.4 284.3 M298.3 180.2 L282.6 172.6 M377.6 52 L369.6 57.7 L362.9 59.6 M186.2 210.8 L185.2 224.7 M88 198.9 L104 191.6 M91.2 187.6 L99.7 200.1 M88.5 91.8 L101.7 81.9 M107.5 137.8 L90.4 132.4 M377.8 62.6 L365.5 72.4 M171.4 179.8 L175 175.7 L177.2 167.1 M395 150.3 L393.2 144.4 L383.7 142 M255.3 305.4 L257.4 306.3 L268.2 300.1 L267 298.6 M66.3 189.7 L53.7 192.4 L56.1 195.8 M257.4 306.3 L261.2 307.4 L269.7 301.6 L268.2 300.1 M395.4 151.8 L410.7 158.8 M284.1 293.3 L269.4 285.6 M341.5 173.6 L333.5 185.6 M42.4 163.1 L35.4 156.8 L29.3 159.4 M123.7 199.1 L110.8 208.1 M212.7 288.4 L201 278.2 M193.6 193.9 L197.5 207 M156.4 26.2 L157.9 23.9 L153.2 19.7 L158.4 16.3 M154.6 174.2 L168.3 182.7 M273.8 296.2 L288 304.3 M356.2 280.6 L360.1 268.5 M36.7 198.8 L29 199.7 L32.8 206.1 M109.8 139.7 L111.6 147.9 L117.3 145.7 M86.9 217.5 L79.3 211.9 L77.4 207 M394.6 124.4 L406.1 133.9 M164 294.3 L152.1 303.7 M118.7 81.8 L128.2 71.2 M141.2 40.8 L150.3 47.3 L153.7 45.1 M160.6 169.6 L173.7 177.5 M83.7 25.2 L90.3 26.3 L97.2 31.7 M168.2 261.1 L156 269.6 M400.7 90.7 L410.4 100.9 M402.9 263.5 L399 258.9 L398.7 252.1 M265.3 308.7 L273.4 303.8 L271.2 301 L269.7 301.6 M9.8 165.7 L16.4 169.4 L22.6 165.8 M19.3 185.4 L22.5 187.8 L14.9 194.6 M275.3 152.1 L265.2 142.2 M100.1 247.9 L95.2 254.5 L90 257.3 M117.4 66.6 L115.8 63.9 L121.5 55.9 M186.1 96.9 L170.8 92.9 M144.8 19.3 L157.7 12 M35 74.1 L45.8 65.4 M111.2 158.7 L123.8 151.1 M49.6 68 L38.1 76.5 M302.3 287.9 L303.1 289.6 L300.7 293.4 L293.5 290.6 M273.5 205 L266.7 215.9 M382.4 240.9 L385.4 232.5 L381.2 231.4 M397.2 176.6 L391.5 171.1 L395 167 M145.1 164.3 L129.1 164.7 M107.4 118 L123 120.2 M90.7 302.3 L95.7 304.3 L92.4 305.2 L90.7 301.1 M39.6 148.7 L51.2 156.9 M146.7 143.5 L131.8 139.5 M77.4 282.8 L64.8 289.4 M355 132.3 L367.9 139.1 M220 93 L224.9 94.9 L226.4 93.1 L221.5 89.1 M214 271.8 L204.8 281.4 M157.6 83.8 L145.3 76.5 M129.2 185 L117.2 192.6 M282.6 172.6 L295.2 172 L294.9 169.9 M386 310.6 L391.1 307.7 L387.6 301.3 M272 282.7 L280.7 287 L283 283.6 M226 124.6 L235.5 115.3 M212.6 268.8 L223.4 260.6 M168.5 106.9 L158.7 116 M348.3 303.6 L359.9 295.8 M22.1 241.4 L13 232.1 M80.3 35 L76.2 36 L80.5 32.6 L81.9 34 L80.3 35 M381.7 142.6 L380.5 143.8 L373 138.2 L374.9 136.6 M18.6 259.8 L25.1 256.3 L24.4 254 L27.8 252.1 M86.2 263.5 L86.9 267.9 L81.8 273.3 M64.7 77.1 L72.7 78.4 L73.4 76.9 L70 74.5 M230.1 201 L229.4 212.5 M107.2 196 L100.3 185.8 M139.8 300.1 L138.8 302 L141.2 307.9 L140 310.8 M68.4 258.4 L63.4 247.7 M37.7 123.1 L50.7 128.8 M49.4 84 L63.6 88.2 M356.8 205 L352.9 208.7 L350.7 215.1 M323.1 310.2 L331.3 300.7 M394.9 149.3 L382 143.6 M59.6 237.2 L62.5 244.4 L62.5 246.4 L60.2 246.8 M76.4 96.7 L90.4 101 M63.2 126.5 L62.9 129.3 L72 134.1 M370.9 246.8 L384.6 251.3 M304.7 177.8 L297.3 187.6 M94 233.6 L88.4 237.1 L82.9 233.2 M320 209.2 L324.6 205.2 L332.1 206.7 M199.2 91.3 L198.7 80.4 M56.8 133.6 L59.2 133.7 L61.6 136.7 L60.6 142.4 M309.6 206.1 L319.5 197.9 M289.3 301.9 L288 304.7 L295.8 310.2 M307.6 124.2 L318.3 130.8 M104.2 225.4 L94.2 233.4 M88.4 192.3 L95.8 201.8 M395.2 227.6 L407.2 233.5 M143.8 78.9 L134.8 70.4 M280.2 265.1 L273.2 274.6 M46.1 247.3 L50.7 244.5 L55.2 250 M48.8 270.2 L45.3 272.5 L44.8 279.3 M259.7 190.5 L262.4 187.8 L270.7 191.7 M74.9 61.8 L64.6 69.4 M180 219.8 L180.9 209.2 M74.1 296.8 L84.6 289.6 M63.5 276.3 L58.8 272.7 L57.1 273.2 L59.5 276.8 M275.8 170.1 L270 179.8 M390.2 254.5 L402.4 249.9 M39.7 284.7 L52.2 279.6 M306.4 190.4 L313.9 181.4 M210.3 75 L216.4 65.7 M186.3 229.5 L188.6 240 M63.2 218.3 L57.2 208.8 M91.4 204.2 L103.1 198.5 M192.1 244 L189.5 254.2 M323.2 162.9 L313.6 155.3 M106.3 32 L105.4 33.5 L112.2 33 L115.2 35.3 M28.5 260.2 L34.9 269.4 M118.1 46.5 L122.8 48.9 L118.9 54.3 M193.1 243.9 L205.5 248.5 M84.2 110.2 L90.4 101 M333.6 204.9 L327.4 214.1 M51.4 199.5 L57.2 208.8 M97.9 201 L105.4 209.5 M66.7 70.3 L76.6 63.2 M88.7 58.1 L96.7 49.9 M331 239.5 L343.5 243.3 M131.9 61 L125.2 69.9 M283.1 160.4 L275.3 152.1 M78.3 189.4 L91.5 187.1 M406.2 303.4 L401.1 294.1 M383 303.4 L374.6 311 M40.2 236 L50.6 236.8 L52.3 238.6 M145.9 101.8 L136.4 94.6 M262.7 293.1 L252.5 286.5 M392.3 84.3 L381.8 78 M161.9 113 L151.5 106.7 M307.5 306.4 L311.4 301.5 L307.6 298.7 M85.2 25.7 L89.6 30.7 L93.3 28.6 M80.5 46.3 L86.3 49.6 L91.1 46.9 M403.6 231.1 L410.2 222.5 M7.4 265.8 L18.5 260.5 M169.2 299.3 L161 291.6 M86 137.9 L98.3 141.5 M178.6 85 L170.8 92.9 M392.3 162.3 L383.6 154.9 M265.7 289.7 L275.7 295.7 M379 146.3 L388.3 153.2 M136.5 26.8 L131 29.5 L136.8 27.2 M213.1 238.1 L212 247.8" fill="none" stroke="#fbf7eb" stroke-width="3.4" opacity="0.62" stroke-linecap="round" stroke-linejoin="round"/>
</g>
<g data-layer="minor-road">
<path d="M370.2 84.9 L367.1 83 L366.4 79.9 L375.5 67.2 L398.9 49.8 L401.6 44.9 L410.8 36.7 M375.5 67.2 L385.9 52.9 L393.3 37.1 L398.7 30.9 L387.3 35.8 M88.5 257.4 L87.5 262 L81.4 268.9 L66.4 275.8 L52.2 279.6 L34.8 279.4 M361.6 217.3 L320 209.2 L316.2 212.4 L306.2 209.1 M49.7 54.4 L54.4 50.8 L66.7 48.6 L85.6 33.8 M361.6 110.2 L390.9 86.4 M356.1 230.9 L345.4 224.4 L333.5 204.7 M224.6 277.1 L213.8 286.7 L201.3 302.9 M114.9 247.7 L122 259.3 L122.3 269.6 L124.6 275 M351 132.1 L345.7 127.7 L345.7 119.7 L342 117.5 L344.5 107.8 M342.2 199.5 L346.6 187.3 L353.6 175.4 M69.3 293 L92.1 311.1 M358.3 286.2 L336.1 302.5 M247.6 200.2 L274 214.1 M281.1 294.2 L305.4 309.7 M80.8 302.1 L98.7 290.1 L102 285.4 M380.1 170.8 L392.3 162.3 L395.4 151.8 M137.3 53.4 L141.5 56.3 L147.8 54.5 L154.5 59.7 L151.3 63.1 L151.9 65.2 M191.5 287.4 L211.1 270.1 M263.1 159.3 L286.3 144.9 M387.3 35.8 L399.5 22.9 L406.7 19.4 M412.2 34.8 L404.8 33.6 L397.7 40.4 L389.5 44 M82.7 303.6 L96 300.9 L107.5 293.6 M355.8 175.1 L356.2 168.8 L351.3 165.4 L353.3 162.5 L355.3 162.9 L354.9 168 M133.4 128 L106.2 123 M32 207 L44 225.8 M92.4 185.3 L86.6 195.6 L91.1 204.1 M107.5 252.7 L101.1 272.5 M349.2 183.4 L372.4 193.6 M46.1 100.9 L63.7 116.2 M370.7 49.5 L378.2 49.8 L377.6 52 L380.1 55.6 L377.3 58.9 L381.8 58.1 M343.3 303.2 L348.5 299.6 L351.7 294.1 L360.6 290.4 M29.6 219.6 L52.6 210.1 M375 111.7 L388.5 119 L394.6 124.4 M380.2 138.9 L387.9 132.8 L389.9 134.2 L383.6 139.4 L381.8 137.7 M122.1 102.7 L113.9 113.2 L105.7 117.3 M411.3 85.5 L389.5 96.3 M64.5 88.6 L45.3 100.3 M394.1 36.1 L390.4 37.7 L378.2 49.8 M324.8 238.1 L322.5 246.2 L324 256.2 M365.5 72.4 L354.6 79.7 L354.1 74.6 L351.9 75.3 M392.3 84.3 L402 77.3 L411.7 80.4 M341.9 109.9 L340.1 108.7 L341 98.1 L344.4 93.4 M27.2 156.7 L37.3 150.7 L43.7 144.3 M333.1 302 L350.5 303.5 L355.3 306 M181.4 113.9 L184.8 108.3 L186.1 96.9 M111.3 180.2 L88.3 183 M76.4 311.2 L62.3 297.1 M275 284.3 L276.7 281.5 L287.7 283.1 L287.6 279 M383.7 142 L399.1 129.2 M330.1 234.3 L343 220.4 M89.5 301.5 L74.4 289 M252.5 286.5 L268.2 274.7 M210.1 190.6 L205.5 206.9 M118.5 107 L137.2 115.6 M343.3 245.5 L344 238.4 L341.4 229.6 M91.1 46.9 L109.1 54.9 M8.9 171 L28 178.2 M94.5 94.8 L108.9 82.8 M337 227 L331.2 223.4 L340.1 215.6 M138.7 112.8 L121 103.9 M298.9 172.7 L310.7 175.4 L313.9 181.4 M76.4 128.5 L66.6 142.3 M390.1 239.5 L396.1 236.2 L392 228.1 L393.1 227.2 M343.6 245.6 L332 258.2 M262.1 306.5 L271.4 311.4 L273.3 310 L269.2 306.2 M52.2 279.6 L66.4 290.7 M140.3 115.3 L140 130.6 M47.2 58.7 L42.6 55.9 L35.9 60.9 L34.8 64.5 M119.9 105.1 L135 113 L134.2 114.2 M178 93.3 L174.3 100.1 L177.5 100.9 L179.5 96 M303.8 192.9 L290.9 204.3 M62.7 256.2 L60 249.5 L57.1 250.1 L54.4 244.8 M103.1 198.5 L93.6 185.4 M299.5 217.7 L282.4 210.3 M325.5 236.8 L336.6 233.2 L341.4 229.6 M321.8 236.3 L326.5 229.3 L331.6 232.7 M286.1 292.7 L282.9 290.7 L287.3 285.7 L292.9 289.2 M394.1 157.5 L404.5 161.9 L408.9 157.5 M135.4 17.1 L119.4 24.7 M80.8 144.7 L90.4 132.3 M398.2 175.8 L396.7 169.2 L392.3 162.3 M343.6 163.4 L342.5 165 L348.9 168.1 L347.9 174.7 M36.8 246.6 L52.3 238.6 M345.2 192.8 L330.7 183.9 M121.4 99.9 L113.4 98 L105.5 92.8 M130 301.8 L128.5 303.1 L124.3 298.4 L125.9 297.8 L130 301.8 M124.6 275 L138.4 284.3 M298.3 180.2 L282.6 172.6 M377.6 52 L369.6 57.7 L362.9 59.6 M186.2 210.8 L185.2 224.7 M88 198.9 L104 191.6 M91.2 187.6 L99.7 200.1 M88.5 91.8 L101.7 81.9 M107.5 137.8 L90.4 132.4 M377.8 62.6 L365.5 72.4 M171.4 179.8 L175 175.7 L177.2 167.1 M395 150.3 L393.2 144.4 L383.7 142 M255.3 305.4 L257.4 306.3 L268.2 300.1 L267 298.6 M66.3 189.7 L53.7 192.4 L56.1 195.8 M257.4 306.3 L261.2 307.4 L269.7 301.6 L268.2 300.1 M395.4 151.8 L410.7 158.8 M284.1 293.3 L269.4 285.6 M341.5 173.6 L333.5 185.6 M42.4 163.1 L35.4 156.8 L29.3 159.4 M123.7 199.1 L110.8 208.1 M212.7 288.4 L201 278.2 M193.6 193.9 L197.5 207 M156.4 26.2 L157.9 23.9 L153.2 19.7 L158.4 16.3 M154.6 174.2 L168.3 182.7 M273.8 296.2 L288 304.3 M356.2 280.6 L360.1 268.5 M36.7 198.8 L29 199.7 L32.8 206.1 M109.8 139.7 L111.6 147.9 L117.3 145.7 M86.9 217.5 L79.3 211.9 L77.4 207 M394.6 124.4 L406.1 133.9 M164 294.3 L152.1 303.7 M118.7 81.8 L128.2 71.2 M141.2 40.8 L150.3 47.3 L153.7 45.1 M160.6 169.6 L173.7 177.5 M83.7 25.2 L90.3 26.3 L97.2 31.7 M168.2 261.1 L156 269.6 M400.7 90.7 L410.4 100.9 M402.9 263.5 L399 258.9 L398.7 252.1 M265.3 308.7 L273.4 303.8 L271.2 301 L269.7 301.6 M9.8 165.7 L16.4 169.4 L22.6 165.8 M19.3 185.4 L22.5 187.8 L14.9 194.6 M275.3 152.1 L265.2 142.2 M100.1 247.9 L95.2 254.5 L90 257.3 M117.4 66.6 L115.8 63.9 L121.5 55.9 M186.1 96.9 L170.8 92.9 M144.8 19.3 L157.7 12 M35 74.1 L45.8 65.4 M111.2 158.7 L123.8 151.1 M49.6 68 L38.1 76.5 M302.3 287.9 L303.1 289.6 L300.7 293.4 L293.5 290.6 M273.5 205 L266.7 215.9 M382.4 240.9 L385.4 232.5 L381.2 231.4 M397.2 176.6 L391.5 171.1 L395 167 M145.1 164.3 L129.1 164.7 M107.4 118 L123 120.2 M90.7 302.3 L95.7 304.3 L92.4 305.2 L90.7 301.1 M39.6 148.7 L51.2 156.9 M146.7 143.5 L131.8 139.5 M77.4 282.8 L64.8 289.4 M355 132.3 L367.9 139.1 M220 93 L224.9 94.9 L226.4 93.1 L221.5 89.1 M214 271.8 L204.8 281.4 M157.6 83.8 L145.3 76.5 M129.2 185 L117.2 192.6 M282.6 172.6 L295.2 172 L294.9 169.9 M386 310.6 L391.1 307.7 L387.6 301.3 M272 282.7 L280.7 287 L283 283.6 M226 124.6 L235.5 115.3 M212.6 268.8 L223.4 260.6 M168.5 106.9 L158.7 116 M348.3 303.6 L359.9 295.8 M22.1 241.4 L13 232.1 M80.3 35 L76.2 36 L80.5 32.6 L81.9 34 L80.3 35 M381.7 142.6 L380.5 143.8 L373 138.2 L374.9 136.6 M18.6 259.8 L25.1 256.3 L24.4 254 L27.8 252.1 M86.2 263.5 L86.9 267.9 L81.8 273.3 M64.7 77.1 L72.7 78.4 L73.4 76.9 L70 74.5 M230.1 201 L229.4 212.5 M107.2 196 L100.3 185.8 M139.8 300.1 L138.8 302 L141.2 307.9 L140 310.8 M68.4 258.4 L63.4 247.7 M37.7 123.1 L50.7 128.8 M49.4 84 L63.6 88.2 M356.8 205 L352.9 208.7 L350.7 215.1 M323.1 310.2 L331.3 300.7 M394.9 149.3 L382 143.6 M59.6 237.2 L62.5 244.4 L62.5 246.4 L60.2 246.8 M76.4 96.7 L90.4 101 M63.2 126.5 L62.9 129.3 L72 134.1 M370.9 246.8 L384.6 251.3 M304.7 177.8 L297.3 187.6 M94 233.6 L88.4 237.1 L82.9 233.2 M320 209.2 L324.6 205.2 L332.1 206.7 M199.2 91.3 L198.7 80.4 M56.8 133.6 L59.2 133.7 L61.6 136.7 L60.6 142.4 M309.6 206.1 L319.5 197.9 M289.3 301.9 L288 304.7 L295.8 310.2 M307.6 124.2 L318.3 130.8 M104.2 225.4 L94.2 233.4 M88.4 192.3 L95.8 201.8 M395.2 227.6 L407.2 233.5 M143.8 78.9 L134.8 70.4 M280.2 265.1 L273.2 274.6 M46.1 247.3 L50.7 244.5 L55.2 250 M48.8 270.2 L45.3 272.5 L44.8 279.3 M259.7 190.5 L262.4 187.8 L270.7 191.7 M74.9 61.8 L64.6 69.4 M180 219.8 L180.9 209.2 M74.1 296.8 L84.6 289.6 M63.5 276.3 L58.8 272.7 L57.1 273.2 L59.5 276.8 M275.8 170.1 L270 179.8 M390.2 254.5 L402.4 249.9 M39.7 284.7 L52.2 279.6 M306.4 190.4 L313.9 181.4 M210.3 75 L216.4 65.7 M186.3 229.5 L188.6 240 M63.2 218.3 L57.2 208.8 M91.4 204.2 L103.1 198.5 M192.1 244 L189.5 254.2 M323.2 162.9 L313.6 155.3 M106.3 32 L105.4 33.5 L112.2 33 L115.2 35.3 M28.5 260.2 L34.9 269.4 M118.1 46.5 L122.8 48.9 L118.9 54.3 M193.1 243.9 L205.5 248.5 M84.2 110.2 L90.4 101 M333.6 204.9 L327.4 214.1 M51.4 199.5 L57.2 208.8 M97.9 201 L105.4 209.5 M66.7 70.3 L76.6 63.2 M88.7 58.1 L96.7 49.9 M331 239.5 L343.5 243.3 M131.9 61 L125.2 69.9 M283.1 160.4 L275.3 152.1 M78.3 189.4 L91.5 187.1 M406.2 303.4 L401.1 294.1 M383 303.4 L374.6 311 M40.2 236 L50.6 236.8 L52.3 238.6 M145.9 101.8 L136.4 94.6 M262.7 293.1 L252.5 286.5 M392.3 84.3 L381.8 78 M161.9 113 L151.5 106.7 M307.5 306.4 L311.4 301.5 L307.6 298.7 M85.2 25.7 L89.6 30.7 L93.3 28.6 M80.5 46.3 L86.3 49.6 L91.1 46.9 M403.6 231.1 L410.2 222.5 M7.4 265.8 L18.5 260.5 M169.2 299.3 L161 291.6 M86 137.9 L98.3 141.5 M178.6 85 L170.8 92.9 M392.3 162.3 L383.6 154.9 M265.7 289.7 L275.7 295.7 M379 146.3 L388.3 153.2 M136.5 26.8 L131 29.5 L136.8 27.2 M213.1 238.1 L212 247.8" fill="none" stroke="#69776e" stroke-width="1.25" opacity="0.58" stroke-linecap="round" stroke-linejoin="round"/>
</g>
</g>
<g data-layer="north-up-compass" fill="none" stroke="#233934" stroke-linecap="round" stroke-linejoin="round" opacity="0.62">
<path d="M382 48L382 23" stroke-width="1.8"/>
<path d="M382 23L373 39M382 23L391 39" stroke-width="1.8"/>
<circle cx="382" cy="48" r="13" stroke-width="1.1" opacity="0.38"/>
</g>
<rect x="8" y="8" width="404" height="304" rx="16" fill="none" stroke="#233934" stroke-width="1.4" opacity="0.44"/>
</svg>
