<svg xmlns="http://www.w3.org/2000/svg" viewBox="0 0 420 320" role="img" aria-label="Unlabeled north-up street-grid crop" data-orientation="north-up">
<metadata>{"orientation":"north-up","projection":"local-web-mercator"}</metadata>
<defs>
<clipPath id="mapCrop"><rect x="8" y="8" width="404" height="304" rx="16"/></clipPath>
</defs>
<rect width="420" height="320" fill="#ede7d8"/>
<rect x="8" y="8" width="404" height="304" rx="16" fill="#f7f1e3" stroke="#d8cbb2" stroke-width="1.25"/>
<g clip-path="url(#mapCrop)">
<g data-layer="major-road-casing">
<path d="M251.6 187.6 L247.4 170.6 M242.8 166.8 L245.9 174.1 M244.8 150.6 L243.2 156.3 M246.2 158.2 L247.6 151.9 M249.3 147.5 L254 136.9 M242.3 159.3 L241.4 162.9 M130.9 165.4 L134.5 150.7 L132.3 143.6 M135.1 193.4 L130.3 174.5 L130.9 165.4 M253.5 136.8 L249.8 145 M127.3 142.2 L130.4 145.8 L131.4 152 L127 165.2 M245.4 161.6 L246.2 158.2 M263.2 145.9 L251.8 147.9 M262.3 109.6 L258.1 124.6 M257.3 127.2 L254.9 134 M191.9 202.2 L207.7 205.1 M126.4 174.9 L131.7 187.5 M240.9 118.3 L256.2 126.2 M162.4 194 L154.2 190.7 L149 183 M197.1 241.2 L181.3 235.8 L163.6 225 L153.2 223.5 M254.6 191 L250.6 190.7 L243.5 195.8 M267.4 130.8 L265.3 144.1 M166.4 139.5 L158.4 144.6 M184.4 237.5 L165.6 226.5 L157.4 224.2 M238.2 204.4 L210.9 233.7 M157.2 226.3 L163.1 227.8 L184.6 240.3 L222.6 249.7 L242.2 261.6 M132.3 143.6 L118.2 137.2 M127 165.2 L125.2 169 L126.4 174.9 M212.5 204.5 L222.7 201.6 M246.6 194.3 L237 197.4 M141.2 146.1 L155.6 145.2 M131.4 206.5 L135.1 193.4 M161.7 133.5 L167.3 138.6 M172.9 128.1 L166.8 119.9 M263.9 196.2 L253.2 189.8 M215.6 146.3 L231.3 123 M169.5 137 L173.5 135.1 M157 226.9 L164.6 229.4 L176.8 237.4 M131.5 193.1 L128.3 205.8 M252.2 191.8 L253.2 189.8 M228.7 200.1 L235.5 198.2 M198.5 109.1 L210.6 111.1 M212.2 111.4 L222.5 113.5 M222.7 201.6 L228.7 200.1 M116.1 162.5 L79.8 175.9 M151.5 173.6 L148 180.4 M243.8 198.2 L238.6 203.4 M168.3 196.6 L176.2 199.1 M180 199.7 L186.8 201.3 M175.7 131.7 L173.6 129.1 M247.9 195.7 L252.2 191.8 M123.6 131.4 L138.5 143.8 M138.9 143.4 L123.6 131.4 M186.4 200.8 L180 199.7 M145.5 170.1 L153 170.2 M63.9 182.9 L121.8 160.8 M164.2 220.9 L170.7 206.2 M228 114.6 L235.6 116.1 M139.7 147.4 L138.8 156.4 M199.5 167 L189.4 165 M131.7 187.5 L131.5 193.1 M195.8 108.4 L184.5 107.3 M167.5 121.4 L164.5 126.7 M170.7 206.2 L174.2 199.8 M259.1 128.6 L266.4 130.5 M264 104.9 L266.5 95.4 L265.7 87.1 M117.8 137.8 L125.5 141 M129.3 213.6 L131.8 221.1 L141.3 226.1 M352.4 212.5 L349.3 220.5 L330.2 241.3 L298.2 261.9 L286.1 265.7 L266.8 266.8 L252.6 264.4 L222.9 249.1 L184.4 237.5 M218.5 159.6 L224.8 159.8 M213.4 171.7 L206.9 169.5 M224.8 159.8 L232.4 161.8 M219.7 174.2 L213.4 171.7 M200.9 170.1 L195.1 170 M215.6 146.3 L221.5 147.3 M221.5 147.3 L227.4 149 M225.8 153.9 L231.5 152.2 M234.3 151.4 L244.8 149.7 M207.7 175.8 L213.6 176.3 M171.5 165 L182.2 162.9 M206.3 145.8 L201 145.4 M221.1 155.8 L219.9 157.6 M219.9 157.6 L218.7 158.9 M194.5 173.7 L199.9 175.3 M213.6 176.3 L219.1 176.2 M190.4 168.8 L189.4 165 M201.7 167.8 L199.5 167 M245.3 148.7 L236.3 150.5 M203.7 168.4 L201.7 167.8 M153 170.2 L170.7 170.2 M227.5 178.2 L222.4 175.6 M190.1 174.9 L187.1 180.4 M204.5 168.6 L202.8 169.5 M206 169.1 L204.5 168.6 M190.4 133 L188.6 140.3 M213.7 146.3 L210.8 146.1 M223.8 154.2 L222 154.8 M222 154.8 L221.1 155.8 M210.8 146.1 L208.2 145.9 M204.4 175.8 L207.7 175.8 M218.6 159.1 L218.5 159.6 M178.8 190.3 L185 182.6 M223.5 176.4 L227.5 178.2 M215.6 146.3 L213.7 146.3 M227.4 149 L230.3 149.8 M204.5 168.6 L203.7 168.4 M232.4 161.8 L235.4 162.7 M189 164.1 L188.5 162.2 M226.8 153.1 L225.2 153.7 M190.6 171.4 L190.4 169.1 M201.9 175.7 L204.4 175.8 M264.2 87.3 L266 95.5 M265.2 85.9 L259.4 78.5 M260.3 81 L263.8 86.2 M252.2 63.8 L256.3 75 M254 62.9 L255.4 44.2 M127.7 78.2 L134.2 81.3 L137.6 80.6 M129.9 151.6 L124.1 154.8 L123.1 158.9 L116.1 162.5 M121.8 160.8 L136.8 153.9 M150.9 145 L141 145.5 M136.8 153.9 L140.1 146 M130.4 148.2 L127.8 159.6 M141 145.5 L138.1 147 L136.6 152.6 M151 145.2 L155.6 145.2 M177.7 231.7 L173.7 228.3 L160.5 223.2 M129.1 157.6 L116.1 162.5 M127.8 159.6 L124 167.2 M264.8 153 L264.4 151 M264.6 167.8 L264 166.9 M264.8 172.9 L264.3 171.9 M255.3 134 L254.9 134 M91 91.3 L95 92.7 M360.7 146.2 L362.4 147.8 L360.8 148.8 L359.3 146.3 M279.1 49.6 L285.5 55.3 M277.6 46.5 L274.6 44.3 L269.1 44.2 M248.9 309 L250.1 306.3 M322.3 255.1 L318.6 255.4 M91 46.3 L89.7 46.9 M80.9 40.1 L82.5 41.4 M69.1 29.3 L63.1 24.6 M63.1 24.6 L62.2 20.2 M62.2 19.8 L61.2 15.5 M191.9 242.5 L203.9 246.4 L213.9 254.8 M267.1 199.7 L285.9 204.8 M246 206.4 L246.7 200.4 M137.8 163.7 L138.8 156.4 M279.8 143.1 L271.8 144.8 M148 170.8 L152.5 171.3 M279.4 143.8 L291 141.7 M164.5 126.7 L162.9 129.5 M237.2 116.6 L240.9 118.3 M176.8 237.4 L191.9 242.5 M290.2 141.6 L302.2 139.6 L348.5 143 M231.4 211.9 L226.5 217.3 M108.6 134.5 L117.8 137.8 M241.5 245.8 L244.2 221.5 M125.5 141 L127.3 142.2 M128.3 205.8 L129.3 213.6 M268.4 125.2 L263 124.5 M153.2 223.5 L143 224 M155.2 104.6 L139 109.7 M178.4 107.1 L184.7 107.8 M96 127.2 L108.6 134.5 M164.9 117.2 L162.1 113.3 M160.1 111.6 L163.6 116.1 M226 220.6 L235.5 221.1 M133 215 L131.8 209 M113.4 135.5 L105.3 132.1 M118.2 137.2 L113.4 135.5 M268.4 125.2 L273.6 125.5 M166.4 105.5 L155.7 104.5 M105.3 132.1 L84.9 119.7 L73.9 106.5 M165.1 105.8 L172.8 106.5 M137.4 166.2 L137.8 163.7 M143 224 L135.2 220.4 M283.5 142.8 L288.2 140.7 M205.7 244.2 L197.1 241.2 M244.7 217.3 L245.3 212.9 M135.2 220.4 L133 215 M166.1 237.5 L190.3 248.7 M157.4 224.2 L153.2 223.5 M208.2 145.9 L206.3 145.8 M236 272.9 L214 250.9 M202.1 169.8 L200.9 170.1 M236.3 150.5 L232.3 150.4 M225 153.8 L223.8 154.2 M201 145.4 L198.5 145.2 M221.8 175.2 L219.7 174.2 M178 179.7 L185.7 180.5 M219.1 176.2 L221.9 176.3 M152.3 226.4 L157.2 226.3 M178.6 171.7 L183.7 170.9 M204 241.9 L207.3 238.2 M236.8 163.3 L240.6 164.4 M231.5 152.2 L234.3 151.4 M263.7 159.7 L252.1 160.2 M229.2 152.5 L227.4 152.9 M202.8 169.5 L202.1 169.8 M206.5 169.3 L206 169.1 M144.4 226.7 L150.9 226.4 M190.6 172.4 L193.2 173.3 M152.3 226.4 L157 226.9 M190.6 172.4 L190.1 174.9 M131.8 209 L131.4 206.5 M183.7 170.9 L187.4 170.9 M297 196.5 L286.2 198.3 M246.1 165.5 L254 165 M195.9 145.1 L198.2 145.3 M242.2 261.6 L252.1 266 L269 268.7 L286.7 267.3 L299.9 263.1 L330 246.1 L345.1 228 L351.5 215.5 M172.7 170.2 L178.6 171.7 M278.4 125.8 L283.3 126 M188.5 162.2 L187.8 161 M250.9 161.2 L245.5 163.1 M203.1 241.7 L198.9 246.3 M188.6 140.3 L191.6 142.2 M286.2 198.3 L279.7 199.4 M190.6 171.4 L188.5 171.3 M162.1 113.3 L160.7 111.4 M182.7 162.8 L185 162.3 M232.3 151.6 L230.6 152.1 M199.7 246.6 L203.8 242.1 M178.5 72.3 L203.4 73.2 M185.4 160.8 L185.6 162.2 M192.8 142.9 L194.7 144.1 M236.3 150.5 L233.9 151.2 M197.6 145.1 L196 144.9 M187.8 161 L186.8 160.3 M189.4 165 L189 164.1 M192.9 170.6 L191.6 171 M232 150.3 L230.3 149.8 M194.8 170 L193.9 170.3 M150.4 98 L155.2 104.6 M179.3 261.6 L188 257.8 L194.2 252.5 M183.5 137.1 L187.5 139.6 M193.9 170.3 L192.9 170.6 M193.2 173.3 L194.5 173.7 M221.9 176.3 L223.5 176.4 M189.3 171.7 L190.6 172.4 M199.9 175.3 L201 175.6 M227.4 152.9 L226.8 153.1 M230.1 152.2 L229.2 152.5 M205.6 239.3 L203.1 241.7 M166 182.8 L174.6 180.3 M191 124.5 L190.6 130.9 M228.7 178.8 L231.5 180.2 M190.6 171.4 L190.6 172.4 M211.3 112.6 L215.1 121.9 M193.6 252.1 L187.7 257.5 L180.7 260.6 M233.9 151.2 L232.5 151.5 M201 175.6 L201.9 175.7 M194.7 144.1 L195.7 144.7 M232.6 150.6 L233.9 151.2 M191.6 171 L190.6 171.4 M232.6 150.6 L232.5 151.5 M198.5 145.2 L197.6 145.1 M186.8 160.3 L185.8 160.5 M114.5 123.6 L101.1 110.9 M71.8 102.7 L73.9 107.8 L83.4 119.2 L90.8 124 M243.3 131.4 L252.9 133.5 M285.9 204.8 L296 208.2 M243.2 163.9 L243.1 165.8 M208 236.8 L206.8 238 M244.2 165.7 L243.2 163.9 M207.3 238.2 L208.5 237.1 M222.4 175.6 L221.8 175.2 M206.8 238 L205.6 239.3 M314.8 140.1 L304 139.6 M118.1 126.7 L123.6 131.4 M232.8 180.8 L235.8 182.3 M209.9 246.9 L205.7 244.2 M188.5 171.3 L189.3 171.7 M191.6 142.2 L192.8 142.9 M185 162.3 L185.6 162.2 M137.4 166.2 L152.5 166.4 M179.8 134.8 L183.5 137.1 M235.4 162.7 L236 163.1 M227.5 178.2 L228.7 178.8 M107 171 L93.4 175.9 M236 163.1 L236.8 163.3 M288.7 126.3 L293.7 126.5 M304.5 132.9 L298.4 135.7 M185.8 160.5 L185.4 160.8 M195.7 144.7 L195.9 145.1 M188.5 171.3 L187.8 171.1 M166.3 165.7 L160.4 165.5 M214 250.9 L209.9 246.9 M78.3 181.7 L99.2 174.1 M166.6 165.7 L170.5 165.2 M174.9 196.3 L178.8 190.3 M141.3 226.1 L144.4 226.7 M245.5 163.1 L243.8 163.8 M233.9 151.2 L234.3 151.4 M198.9 246.3 L195.4 250 M241.3 164.7 L242.4 165.3 M299.3 126.7 L308.2 127.1 M196.3 250.3 L199.7 246.6 M185 182.6 L186.4 181.1 M244.2 165.7 L246.1 165.5 M148.2 72.5 L172.4 72 M224.3 118.7 L217.3 121.1 M182.2 162.9 L182.7 162.8 M213.9 254.8 L221.5 263.2 M231.5 180.2 L232.8 180.8 M172 224 L168.4 222.8 M187.5 139.6 L188.6 140.3 M293.7 126.5 L298.9 126.7 M93.4 175.9 L68.8 184.9 M240.6 164.4 L241.3 164.7 M190.6 130.9 L190.4 133 M79.8 175.9 L63.6 182.7 M243.1 165.8 L244.2 165.7 M322 140.7 L343 141.9 M208.5 237.1 L211.7 233.5 M246.9 148.3 L245.3 148.7 M153.7 166.4 L154.4 168.2 L156.9 166.6 M170.7 170.2 L172.7 170.2 M159.2 166.6 L157.2 165.1 L156.9 166.6 M152.1 99.6 L148.9 95.3 M123 107.7 L113.3 97.8 M186.8 180.6 L185.7 180.5 M240.9 184.5 L243.8 185.7 M175.8 180 L178 179.7 M254 165 L257.1 165 M243.8 163.8 L243.2 163.9 M267.4 130.8 L282.9 131.6 M210.4 109.5 L205.7 98.9 M147.4 181.6 L142.3 192 M115.8 170.2 L112.2 170.6 M306.7 195.4 L317.5 196.4 M90.8 124 L96 127.2 M193.4 120.4 L191.4 123.9 M252.1 160.2 L250.9 161.2 M177.7 133.4 L179.8 134.8 M297 196.5 L302.1 195.6 M163.3 270.8 L170.8 265 L179.3 261.6 M296 208.2 L305.1 212.1 M240.1 130.1 L243.3 131.4 M220 104.9 L222.5 113.1 M131.8 111.6 L126.1 109.6 M243.3 131.4 L240.1 130.1 M184.4 106.5 L185.7 91.3 M235.8 182.3 L236.7 182.7 M170.5 165.2 L171.5 165 M239.3 183.8 L240.9 184.5 M156.9 166.6 L156.9 168.2 L159.2 168.2 M203.6 236.3 L193.3 234.6 L175.8 225.8 M221.5 263.2 L233.2 274.2 M264.4 176.5 L264.9 181.2 M264.9 181.2 L265 176.4 M194.9 117 L193.4 120.4 M238.3 183.4 L239.3 183.8 M237 182.9 L237.9 183.2 M174.6 180.3 L175.8 180 M232.9 120.6 L235.6 117 M176.5 262.2 L162.4 270.8 M209.7 73.5 L219.2 74 M135.3 180.6 L136.6 170.9 M259.4 76.2 L274.7 76.8 M309.8 214.1 L300.9 209.5 M349.9 220.2 L361.4 195.7 M159.8 234.5 L166.1 237.5 M195.4 250 L193.6 252.1 M217.3 121.1 L215.1 121.9 M265.1 185.7 L264.9 181.2 M245 186.4 L246.9 187.1 M219.3 60.4 L199.6 60.3 M237.9 183.2 L238.3 183.4 M245.6 108.8 L239.6 114.2 M365 183.4 L356 200.2 M248.4 187.7 L250.8 188.8 M229.5 121.6 L231.3 123 M229.5 121.6 L227.4 120 M134.7 82.4 L140.7 85.7 M142.3 192 L138.1 203.5 M220 104.9 L214.6 109.3 M248 187.3 L246.4 186.7 M195.3 114.8 L196.4 110.8 M191.9 202.4 L192.8 205.5 M100.9 196 L114.1 182.2 L112.2 170.6 M159.8 168.1 L159.9 166.9 M307.8 131.5 L305.3 132.6 M246.4 186.7 L245.1 186.2 M227.4 120 L225.3 118.6 M310.7 127.3 L316.7 127.6 M231.8 122.4 L232.9 120.6 M241.7 130.9 L240.5 130.6 M246.9 187.1 L248.4 187.7 M194.3 209.1 L192.8 205.5 M192.8 205.5 L193.8 209.3 M194.2 252.5 L195.5 251.2 M169.1 72 L166.9 100.1 M241.4 131.1 L242.5 131.1 M153.4 166.4 L153.3 168.4 M252.7 189.2 L250.7 188.3 M245.1 186.2 L244.3 186 M244.3 186 L245 186.4 M160.4 165.5 L160 166.2 M112.8 175.6 L113.7 182.2 L102.8 192 M252.9 133.5 L254.9 134 M150.8 236.9 L142.4 241.5 M159.9 166.9 L160 166.2 M153.3 168.4 L153 170.2 M195.3 114.8 L194.9 117 M243.8 185.7 L244.3 186 M360.7 199.2 L368.8 182.5 M250.7 188.3 L249.2 187.8 M234.9 74.7 L241.8 75 M340.8 168.2 L339.9 179.9 M191.4 123.9 L191 124.5 M127.5 183.1 L123.8 195.2 M228.9 74.4 L234.9 74.7 M145.6 90.8 L143 87.1 M309.3 214.3 L319.9 219.7 M123.9 171 L127.8 179.9 M160 166.2 L159.5 166.6 M241.8 75 L248.5 75.4 M265.2 188.4 L265.1 185.7 M159.9 166.9 L159.5 166.6 M231.3 123 L231.8 122.4 M159.2 168.2 L159.8 168.1 M201.6 219.7 L206.6 226.9 M141 242.3 L126.7 250 M164.9 117.2 L167.9 113.2 M249.2 187.8 L248.6 187.5 M319.4 127.7 L326.3 128.1 M165.4 183.2 L166 182.8 M339.6 191.6 L340.6 180.3 M248.6 187.5 L248 187.3 M220 104.9 L224.5 101.1 M265.3 191.1 L265.2 188.4 M212.3 262.1 L204 255 M207.9 227.9 L202.7 220.9 M339.3 186.2 L338.3 197.8 M364.1 189.9 L372.2 175.4 M378.5 164 L368.4 180 M139.6 78.5 L148.2 72.5 M174.9 196.3 L173.7 197.3 M298.8 271.1 L304.6 262.8 L313.9 255.3 M282.9 131.6 L293.2 132.1 M167.9 113.2 L170.7 109.2 M174.5 196.6 L173 196.7 M214.6 109.3 L212.8 110.8 M152.5 166.4 L153.4 166.4 M341.7 168.3 L342.4 159.5 M248.5 75.4 L253.9 75.6 M222.5 113.5 L222.9 114.7 M141.8 86.7 L142.6 87.6 M361.9 192.1 L355.7 203.3 M219.2 74 L222.8 74.1 M175.1 197.7 L174.9 196.7 M368.4 180 L361.9 192.1 M163.4 222.6 L175.8 225.8 M222.9 114.7 L223.1 115.6 M154.8 207.2 L145.3 208.2 M212.1 110.6 L210.4 109.5 M194.4 209.4 L195.7 211.3 M135.3 185.6 L135.3 180.6 M249.4 105 L245.6 108.8 M265.3 191.1 L265.1 193.3 M108.7 96.6 L99.2 95.6 L95.4 93.1 M97.7 107.4 L89.6 97.8 M265.6 193.3 L265.3 191.1 M361.9 192.1 L356.5 202.7 M319.5 220.6 L312.2 228.9 M323.4 124.7 L319.3 126.5 M235.6 117 L236.5 116.3 M353.6 213.5 L359.4 201.9 M312.6 228.9 L319.7 220.7 M218.5 101.9 L220 104.9 M187.9 64.8 L181 67.3 M198.3 215 L200.3 217.7 M132 79.8 L126.6 76.9 M338 199.9 L330.7 208.1 M191.9 201.8 L191.9 202.2 M235.6 116.1 L235.6 117 M237.9 116 L238.8 115 M311 233.4 L309 238 L300.7 240.5 M319.5 196.6 L324.5 197 M116 195.2 L98.6 199.4 L89.2 204.7 M174.9 196.7 L174.9 196.3 M175.8 225.8 L166.3 222.5 M361.5 200.2 L390.9 202.5 M92.8 203.2 L99.5 199.6 L116 195.2 M256.8 213.5 L257.2 209.1 M196.4 110.8 L197.1 109.8 M237.5 115.1 L236.4 114.8 M343 141.5 L334.7 141 M238.8 115 L237.5 115.1 M196.4 109.7 L196.4 110.8 M301.1 265.5 L288.3 284.4 M343 150.7 L343.5 143.2 M239.6 114.2 L238.8 115 M195.7 211.3 L196.6 212.6 M233.2 274.2 L243.1 282.2 M205.7 98.9 L203.7 94.6 M210.4 109.5 L210.4 110.4 M252.1 100.3 L249.4 105 M180.7 260.6 L178.1 261.5 M166.9 100.1 L166.4 105.5 M383.3 201.3 L360.9 199.7 M279 77 L287.4 77.3 M170.7 109.2 L172.8 106.5 M347.1 223.8 L339.6 233.8 M257.2 209.1 L257.5 206.2 M329.2 128.2 L335.8 128.5 M199.6 60.3 L192.8 63 M324.2 215.9 L330 209.7 M197 213.2 L197.9 214.5 M137.9 208.9 L125.1 210.2 M215.2 94.4 L216.9 98.2 M334.5 240.6 L343 230.9 M167.4 108.3 L170.7 109.2 M50.9 191.3 L60 185.3 M216.9 98.2 L218 100.9 M256.4 217.9 L256.8 213.5 M122.9 210.8 L136 209.4 M345.8 116.3 L337.8 106.9 M193.8 209.3 L194.4 209.4 M330.2 198 L337 199.3 M123.7 224.3 L142.5 231.4 M211.7 232.7 L207.9 227.9" fill="none" stroke="#fcf7e8" stroke-width="6.4" opacity="0.92" stroke-linecap="round" stroke-linejoin="round"/>
</g>
<g data-layer="major-road">
<path d="M251.6 187.6 L247.4 170.6 M242.8 166.8 L245.9 174.1 M244.8 150.6 L243.2 156.3 M246.2 158.2 L247.6 151.9 M249.3 147.5 L254 136.9 M242.3 159.3 L241.4 162.9 M130.9 165.4 L134.5 150.7 L132.3 143.6 M135.1 193.4 L130.3 174.5 L130.9 165.4 M253.5 136.8 L249.8 145 M127.3 142.2 L130.4 145.8 L131.4 152 L127 165.2 M245.4 161.6 L246.2 158.2 M263.2 145.9 L251.8 147.9 M262.3 109.6 L258.1 124.6 M257.3 127.2 L254.9 134 M191.9 202.2 L207.7 205.1 M126.4 174.9 L131.7 187.5 M240.9 118.3 L256.2 126.2 M162.4 194 L154.2 190.7 L149 183 M197.1 241.2 L181.3 235.8 L163.6 225 L153.2 223.5 M254.6 191 L250.6 190.7 L243.5 195.8 M267.4 130.8 L265.3 144.1 M166.4 139.5 L158.4 144.6 M184.4 237.5 L165.6 226.5 L157.4 224.2 M238.2 204.4 L210.9 233.7 M157.2 226.3 L163.1 227.8 L184.6 240.3 L222.6 249.7 L242.2 261.6 M132.3 143.6 L118.2 137.2 M127 165.2 L125.2 169 L126.4 174.9 M212.5 204.5 L222.7 201.6 M246.6 194.3 L237 197.4 M141.2 146.1 L155.6 145.2 M131.4 206.5 L135.1 193.4 M161.7 133.5 L167.3 138.6 M172.9 128.1 L166.8 119.9 M263.9 196.2 L253.2 189.8 M215.6 146.3 L231.3 123 M169.5 137 L173.5 135.1 M157 226.9 L164.6 229.4 L176.8 237.4 M131.5 193.1 L128.3 205.8 M252.2 191.8 L253.2 189.8 M228.7 200.1 L235.5 198.2 M198.5 109.1 L210.6 111.1 M212.2 111.4 L222.5 113.5 M222.7 201.6 L228.7 200.1 M116.1 162.5 L79.8 175.9 M151.5 173.6 L148 180.4 M243.8 198.2 L238.6 203.4 M168.3 196.6 L176.2 199.1 M180 199.7 L186.8 201.3 M175.7 131.7 L173.6 129.1 M247.9 195.7 L252.2 191.8 M123.6 131.4 L138.5 143.8 M138.9 143.4 L123.6 131.4 M186.4 200.8 L180 199.7 M145.5 170.1 L153 170.2 M63.9 182.9 L121.8 160.8 M164.2 220.9 L170.7 206.2 M228 114.6 L235.6 116.1 M139.7 147.4 L138.8 156.4 M199.5 167 L189.4 165 M131.7 187.5 L131.5 193.1 M195.8 108.4 L184.5 107.3 M167.5 121.4 L164.5 126.7 M170.7 206.2 L174.2 199.8 M259.1 128.6 L266.4 130.5 M264 104.9 L266.5 95.4 L265.7 87.1 M117.8 137.8 L125.5 141 M129.3 213.6 L131.8 221.1 L141.3 226.1 M352.4 212.5 L349.3 220.5 L330.2 241.3 L298.2 261.9 L286.1 265.7 L266.8 266.8 L252.6 264.4 L222.9 249.1 L184.4 237.5 M218.5 159.6 L224.8 159.8 M213.4 171.7 L206.9 169.5 M224.8 159.8 L232.4 161.8 M219.7 174.2 L213.4 171.7 M200.9 170.1 L195.1 170 M215.6 146.3 L221.5 147.3 M221.5 147.3 L227.4 149 M225.8 153.9 L231.5 152.2 M234.3 151.4 L244.8 149.7 M207.7 175.8 L213.6 176.3 M171.5 165 L182.2 162.9 M206.3 145.8 L201 145.4 M221.1 155.8 L219.9 157.6 M219.9 157.6 L218.7 158.9 M194.5 173.7 L199.9 175.3 M213.6 176.3 L219.1 176.2 M190.4 168.8 L189.4 165 M201.7 167.8 L199.5 167 M245.3 148.7 L236.3 150.5 M203.7 168.4 L201.7 167.8 M153 170.2 L170.7 170.2 M227.5 178.2 L222.4 175.6 M190.1 174.9 L187.1 180.4 M204.5 168.6 L202.8 169.5 M206 169.1 L204.5 168.6 M190.4 133 L188.6 140.3 M213.7 146.3 L210.8 146.1 M223.8 154.2 L222 154.8 M222 154.8 L221.1 155.8 M210.8 146.1 L208.2 145.9 M204.4 175.8 L207.7 175.8 M218.6 159.1 L218.5 159.6 M178.8 190.3 L185 182.6 M223.5 176.4 L227.5 178.2 M215.6 146.3 L213.7 146.3 M227.4 149 L230.3 149.8 M204.5 168.6 L203.7 168.4 M232.4 161.8 L235.4 162.7 M189 164.1 L188.5 162.2 M226.8 153.1 L225.2 153.7 M190.6 171.4 L190.4 169.1 M201.9 175.7 L204.4 175.8 M264.2 87.3 L266 95.5 M265.2 85.9 L259.4 78.5 M260.3 81 L263.8 86.2 M252.2 63.8 L256.3 75 M254 62.9 L255.4 44.2 M127.7 78.2 L134.2 81.3 L137.6 80.6 M129.9 151.6 L124.1 154.8 L123.1 158.9 L116.1 162.5 M121.8 160.8 L136.8 153.9 M150.9 145 L141 145.5 M136.8 153.9 L140.1 146 M130.4 148.2 L127.8 159.6 M141 145.5 L138.1 147 L136.6 152.6 M151 145.2 L155.6 145.2 M177.7 231.7 L173.7 228.3 L160.5 223.2 M129.1 157.6 L116.1 162.5 M127.8 159.6 L124 167.2 M264.8 153 L264.4 151 M264.6 167.8 L264 166.9 M264.8 172.9 L264.3 171.9 M255.3 134 L254.9 134 M91 91.3 L95 92.7 M360.7 146.2 L362.4 147.8 L360.8 148.8 L359.3 146.3 M279.1 49.6 L285.5 55.3 M277.6 46.5 L274.6 44.3 L269.1 44.2 M248.9 309 L250.1 306.3 M322.3 255.1 L318.6 255.4 M91 46.3 L89.7 46.9 M80.9 40.1 L82.5 41.4 M69.1 29.3 L63.1 24.6 M63.1 24.6 L62.2 20.2 M62.2 19.8 L61.2 15.5 M191.9 242.5 L203.9 246.4 L213.9 254.8 M267.1 199.7 L285.9 204.8 M246 206.4 L246.7 200.4 M137.8 163.7 L138.8 156.4 M279.8 143.1 L271.8 144.8 M148 170.8 L152.5 171.3 M279.4 143.8 L291 141.7 M164.5 126.7 L162.9 129.5 M237.2 116.6 L240.9 118.3 M176.8 237.4 L191.9 242.5 M290.2 141.6 L302.2 139.6 L348.5 143 M231.4 211.9 L226.5 217.3 M108.6 134.5 L117.8 137.8 M241.5 245.8 L244.2 221.5 M125.5 141 L127.3 142.2 M128.3 205.8 L129.3 213.6 M268.4 125.2 L263 124.5 M153.2 223.5 L143 224 M155.2 104.6 L139 109.7 M178.4 107.1 L184.7 107.8 M96 127.2 L108.6 134.5 M164.9 117.2 L162.1 113.3 M160.1 111.6 L163.6 116.1 M226 220.6 L235.5 221.1 M133 215 L131.8 209 M113.4 135.5 L105.3 132.1 M118.2 137.2 L113.4 135.5 M268.4 125.2 L273.6 125.5 M166.4 105.5 L155.7 104.5 M105.3 132.1 L84.9 119.7 L73.9 106.5 M165.1 105.8 L172.8 106.5 M137.4 166.2 L137.8 163.7 M143 224 L135.2 220.4 M283.5 142.8 L288.2 140.7 M205.7 244.2 L197.1 241.2 M244.7 217.3 L245.3 212.9 M135.2 220.4 L133 215 M166.1 237.5 L190.3 248.7 M157.4 224.2 L153.2 223.5 M208.2 145.9 L206.3 145.8 M236 272.9 L214 250.9 M202.1 169.8 L200.9 170.1 M236.3 150.5 L232.3 150.4 M225 153.8 L223.8 154.2 M201 145.4 L198.5 145.2 M221.8 175.2 L219.7 174.2 M178 179.7 L185.7 180.5 M219.1 176.2 L221.9 176.3 M152.3 226.4 L157.2 226.3 M178.6 171.7 L183.7 170.9 M204 241.9 L207.3 238.2 M236.8 163.3 L240.6 164.4 M231.5 152.2 L234.3 151.4 M263.7 159.7 L252.1 160.2 M229.2 152.5 L227.4 152.9 M202.8 169.5 L202.1 169.8 M206.5 169.3 L206 169.1 M144.4 226.7 L150.9 226.4 M190.6 172.4 L193.2 173.3 M152.3 226.4 L157 226.9 M190.6 172.4 L190.1 174.9 M131.8 209 L131.4 206.5 M183.7 170.9 L187.4 170.9 M297 196.5 L286.2 198.3 M246.1 165.5 L254 165 M195.9 145.1 L198.2 145.3 M242.2 261.6 L252.1 266 L269 268.7 L286.7 267.3 L299.9 263.1 L330 246.1 L345.1 228 L351.5 215.5 M172.7 170.2 L178.6 171.7 M278.4 125.8 L283.3 126 M188.5 162.2 L187.8 161 M250.9 161.2 L245.5 163.1 M203.1 241.7 L198.9 246.3 M188.6 140.3 L191.6 142.2 M286.2 198.3 L279.7 199.4 M190.6 171.4 L188.5 171.3 M162.1 113.3 L160.7 111.4 M182.7 162.8 L185 162.3 M232.3 151.6 L230.6 152.1 M199.7 246.6 L203.8 242.1 M178.5 72.3 L203.4 73.2 M185.4 160.8 L185.6 162.2 M192.8 142.9 L194.7 144.1 M236.3 150.5 L233.9 151.2 M197.6 145.1 L196 144.9 M187.8 161 L186.8 160.3 M189.4 165 L189 164.1 M192.9 170.6 L191.6 171 M232 150.3 L230.3 149.8 M194.8 170 L193.9 170.3 M150.4 98 L155.2 104.6 M179.3 261.6 L188 257.8 L194.2 252.5 M183.5 137.1 L187.5 139.6 M193.9 170.3 L192.9 170.6 M193.2 173.3 L194.5 173.7 M221.9 176.3 L223.5 176.4 M189.3 171.7 L190.6 172.4 M199.9 175.3 L201 175.6 M227.4 152.9 L226.8 153.1 M230.1 152.2 L229.2 152.5 M205.6 239.3 L203.1 241.7 M166 182.8 L174.6 180.3 M191 124.5 L190.6 130.9 M228.7 178.8 L231.5 180.2 M190.6 171.4 L190.6 172.4 M211.3 112.6 L215.1 121.9 M193.6 252.1 L187.7 257.5 L180.7 260.6 M233.9 151.2 L232.5 151.5 M201 175.6 L201.9 175.7 M194.7 144.1 L195.7 144.7 M232.6 150.6 L233.9 151.2 M191.6 171 L190.6 171.4 M232.6 150.6 L232.5 151.5 M198.5 145.2 L197.6 145.1 M186.8 160.3 L185.8 160.5 M114.5 123.6 L101.1 110.9 M71.8 102.7 L73.9 107.8 L83.4 119.2 L90.8 124 M243.3 131.4 L252.9 133.5 M285.9 204.8 L296 208.2 M243.2 163.9 L243.1 165.8 M208 236.8 L206.8 238 M244.2 165.7 L243.2 163.9 M207.3 238.2 L208.5 237.1 M222.4 175.6 L221.8 175.2 M206.8 238 L205.6 239.3 M314.8 140.1 L304 139.6 M118.1 126.7 L123.6 131.4 M232.8 180.8 L235.8 182.3 M209.9 246.9 L205.7 244.2 M188.5 171.3 L189.3 171.7 M191.6 142.2 L192.8 142.9 M185 162.3 L185.6 162.2 M137.4 166.2 L152.5 166.4 M179.8 134.8 L183.5 137.1 M235.4 162.7 L236 163.1 M227.5 178.2 L228.7 178.8 M107 171 L93.4 175.9 M236 163.1 L236.8 163.3 M288.7 126.3 L293.7 126.5 M304.5 132.9 L298.4 135.7 M185.8 160.5 L185.4 160.8 M195.7 144.7 L195.9 145.1 M188.5 171.3 L187.8 171.1 M166.3 165.7 L160.4 165.5 M214 250.9 L209.9 246.9 M78.3 181.7 L99.2 174.1 M166.6 165.7 L170.5 165.2 M174.9 196.3 L178.8 190.3 M141.3 226.1 L144.4 226.7 M245.5 163.1 L243.8 163.8 M233.9 151.2 L234.3 151.4 M198.9 246.3 L195.4 250 M241.3 164.7 L242.4 165.3 M299.3 126.7 L308.2 127.1 M196.3 250.3 L199.7 246.6 M185 182.6 L186.4 181.1 M244.2 165.7 L246.1 165.5 M148.2 72.5 L172.4 72 M224.3 118.7 L217.3 121.1 M182.2 162.9 L182.7 162.8 M213.9 254.8 L221.5 263.2 M231.5 180.2 L232.8 180.8 M172 224 L168.4 222.8 M187.5 139.6 L188.6 140.3 M293.7 126.5 L298.9 126.7 M93.4 175.9 L68.8 184.9 M240.6 164.4 L241.3 164.7 M190.6 130.9 L190.4 133 M79.8 175.9 L63.6 182.7 M243.1 165.8 L244.2 165.7 M322 140.7 L343 141.9 M208.5 237.1 L211.7 233.5 M246.9 148.3 L245.3 148.7 M153.7 166.4 L154.4 168.2 L156.9 166.6 M170.7 170.2 L172.7 170.2 M159.2 166.6 L157.2 165.1 L156.9 166.6 M152.1 99.6 L148.9 95.3 M123 107.7 L113.3 97.8 M186.8 180.6 L185.7 180.5 M240.9 184.5 L243.8 185.7 M175.8 180 L178 179.7 M254 165 L257.1 165 M243.8 163.8 L243.2 163.9 M267.4 130.8 L282.9 131.6 M210.4 109.5 L205.7 98.9 M147.4 181.6 L142.3 192 M115.8 170.2 L112.2 170.6 M306.7 195.4 L317.5 196.4 M90.8 124 L96 127.2 M193.4 120.4 L191.4 123.9 M252.1 160.2 L250.9 161.2 M177.7 133.4 L179.8 134.8 M297 196.5 L302.1 195.6 M163.3 270.8 L170.8 265 L179.3 261.6 M296 208.2 L305.1 212.1 M240.1 130.1 L243.3 131.4 M220 104.9 L222.5 113.1 M131.8 111.6 L126.1 109.6 M243.3 131.4 L240.1 130.1 M184.4 106.5 L185.7 91.3 M235.8 182.3 L236.7 182.7 M170.5 165.2 L171.5 165 M239.3 183.8 L240.9 184.5 M156.9 166.6 L156.9 168.2 L159.2 168.2 M203.6 236.3 L193.3 234.6 L175.8 225.8 M221.5 263.2 L233.2 274.2 M264.4 176.5 L264.9 181.2 M264.9 181.2 L265 176.4 M194.9 117 L193.4 120.4 M238.3 183.4 L239.3 183.8 M237 182.9 L237.9 183.2 M174.6 180.3 L175.8 180 M232.9 120.6 L235.6 117 M176.5 262.2 L162.4 270.8 M209.7 73.5 L219.2 74 M135.3 180.6 L136.6 170.9 M259.4 76.2 L274.7 76.8 M309.8 214.1 L300.9 209.5 M349.9 220.2 L361.4 195.7 M159.8 234.5 L166.1 237.5 M195.4 250 L193.6 252.1 M217.3 121.1 L215.1 121.9 M265.1 185.7 L264.9 181.2 M245 186.4 L246.9 187.1 M219.3 60.4 L199.6 60.3 M237.9 183.2 L238.3 183.4 M245.6 108.8 L239.6 114.2 M365 183.4 L356 200.2 M248.4 187.7 L250.8 188.8 M229.5 121.6 L231.3 123 M229.5 121.6 L227.4 120 M134.7 82.4 L140.7 85.7 M142.3 192 L138.1 203.5 M220 104.9 L214.6 109.3 M248 187.3 L246.4 186.7 M195.3 114.8 L196.4 110.8 M191.9 202.4 L192.8 205.5 M100.9 196 L114.1 182.2 L112.2 170.6 M159.8 168.1 L159.9 166.9 M307.8 131.5 L305.3 132.6 M246.4 186.7 L245.1 186.2 M227.4 120 L225.3 118.6 M310.7 127.3 L316.7 127.6 M231.8 122.4 L232.9 120.6 M241.7 130.9 L240.5 130.6 M246.9 187.1 L248.4 187.7 M194.3 209.1 L192.8 205.5 M192.8 205.5 L193.8 209.3 M194.2 252.5 L195.5 251.2 M169.1 72 L166.9 100.1 M241.4 131.1 L242.5 131.1 M153.4 166.4 L153.3 168.4 M252.7 189.2 L250.7 188.3 M245.1 186.2 L244.3 186 M244.3 186 L245 186.4 M160.4 165.5 L160 166.2 M112.8 175.6 L113.7 182.2 L102.8 192 M252.9 133.5 L254.9 134 M150.8 236.9 L142.4 241.5 M159.9 166.9 L160 166.2 M153.3 168.4 L153 170.2 M195.3 114.8 L194.9 117 M243.8 185.7 L244.3 186 M360.7 199.2 L368.8 182.5 M250.7 188.3 L249.2 187.8 M234.9 74.7 L241.8 75 M340.8 168.2 L339.9 179.9 M191.4 123.9 L191 124.5 M127.5 183.1 L123.8 195.2 M228.9 74.4 L234.9 74.7 M145.6 90.8 L143 87.1 M309.3 214.3 L319.9 219.7 M123.9 171 L127.8 179.9 M160 166.2 L159.5 166.6 M241.8 75 L248.5 75.4 M265.2 188.4 L265.1 185.7 M159.9 166.9 L159.5 166.6 M231.3 123 L231.8 122.4 M159.2 168.2 L159.8 168.1 M201.6 219.7 L206.6 226.9 M141 242.3 L126.7 250 M164.9 117.2 L167.9 113.2 M249.2 187.8 L248.6 187.5 M319.4 127.7 L326.3 128.1 M165.4 183.2 L166 182.8 M339.6 191.6 L340.6 180.3 M248.6 187.5 L248 187.3 M220 104.9 L224.5 101.1 M265.3 191.1 L265.2 188.4 M212.3 262.1 L204 255 M207.9 227.9 L202.7 220.9 M339.3 186.2 L338.3 197.8 M364.1 189.9 L372.2 175.4 M378.5 164 L368.4 180 M139.6 78.5 L148.2 72.5 M174.9 196.3 L173.7 197.3 M298.8 271.1 L304.6 262.8 L313.9 255.3 M282.9 131.6 L293.2 132.1 M167.9 113.2 L170.7 109.2 M174.5 196.6 L173 196.7 M214.6 109.3 L212.8 110.8 M152.5 166.4 L153.4 166.4 M341.7 168.3 L342.4 159.5 M248.5 75.4 L253.9 75.6 M222.5 113.5 L222.9 114.7 M141.8 86.7 L142.6 87.6 M361.9 192.1 L355.7 203.3 M219.2 74 L222.8 74.1 M175.1 197.7 L174.9 196.7 M368.4 180 L361.9 192.1 M163.4 222.6 L175.8 225.8 M222.9 114.7 L223.1 115.6 M154.8 207.2 L145.3 208.2 M212.1 110.6 L210.4 109.5 M194.4 209.4 L195.7 211.3 M135.3 185.6 L135.3 180.6 M249.4 105 L245.6 108.8 M265.3 191.1 L265.1 193.3 M108.7 96.6 L99.2 95.6 L95.4 93.1 M97.7 107.4 L89.6 97.8 M265.6 193.3 L265.3 191.1 M361.9 192.1 L356.5 202.7 M319.5 220.6 L312.2 228.9 M323.4 124.7 L319.3 126.5 M235.6 117 L236.5 116.3 M353.6 213.5 L359.4 201.9 M312.6 228.9 L319.7 220.7 M218.5 101.9 L220 104.9 M187.9 64.8 L181 67.3 M198.3 215 L200.3 217.7 M132 79.8 L126.6 76.9 M338 199.9 L330.7 208.1 M191.9 201.8 L191.9 202.2 M235.6 116.1 L235.6 117 M237.9 116 L238.8 115 M311 233.4 L309 238 L300.7 240.5 M319.5 196.6 L324.5 197 M116 195.2 L98.6 199.4 L89.2 204.7 M174.9 196.7 L174.9 196.3 M175.8 225.8 L166.3 222.5 M361.5 200.2 L390.9 202.5 M92.8 203.2 L99.5 199.6 L116 195.2 M256.8 213.5 L257.2 209.1 M196.4 110.8 L197.1 109.8 M237.5 115.1 L236.4 114.8 M343 141.5 L334.7 141 M238.8 115 L237.5 115.1 M196.4 109.7 L196.4 110.8 M301.1 265.5 L288.3 284.4 M343 150.7 L343.5 143.2 M239.6 114.2 L238.8 115 M195.7 211.3 L196.6 212.6 M233.2 274.2 L243.1 282.2 M205.7 98.9 L203.7 94.6 M210.4 109.5 L210.4 110.4 M252.1 100.3 L249.4 105 M180.7 260.6 L178.1 261.5 M166.9 100.1 L166.4 105.5 M383.3 201.3 L360.9 199.7 M279 77 L287.4 77.3 M170.7 109.2 L172.8 106.5 M347.1 223.8 L339.6 233.8 M257.2 209.1 L257.5 206.2 M329.2 128.2 L335.8 128.5 M199.6 60.3 L192.8 63 M324.2 215.9 L330 209.7 M197 213.2 L197.9 214.5 M137.9 208.9 L125.1 210.2 M215.2 94.4 L216.9 98.2 M334.5 240.6 L343 230.9 M167.4 108.3 L170.7 109.2 M50.9 191.3 L60 185.3 M216.9 98.2 L218 100.9 M256.4 217.9 L256.8 213.5 M122.9 210.8 L136 209.4 M345.8 116.3 L337.8 106.9 M193.8 209.3 L194.4 209.4 M330.2 198 L337 199.3 M123.7 224.3 L142.5 231.4 M211.7 232.7 L207.9 227.9" fill="none" stroke="#1f3733" stroke-width="2.7" opacity="0.9" stroke-linecap="round" stroke-linejoin="round"/>
</g>
<g data-layer="minor-road-casing">
<path d="M66.4 182 L126.6 159.6 M248.5 75.4 L244.7 119.9 M80.4 94.1 L85 102.9 L115.4 126.6 M203.1 83.5 L148.3 81.1 M259.5 81.8 L210.1 79.6 M121.3 161.5 L77.9 176.3 M318.7 308.7 L309.7 310.1 L303.6 307.7 L302.6 305.3 L304.6 302.5 L314.7 298.8 L318.7 290.4 M197.9 93 L152.5 89.8 M239 108.5 L241.8 75 M112.6 259.3 L155.5 267.4 M348.7 38.2 L344.3 54.4 L328.1 65.7 M159.7 71.6 L157.4 104.7 M82.7 229.5 L62.2 231.9 L54.2 235.3 L52.4 241.2 L47.6 241.9 M228.9 74.4 L231.6 42.7 M225.6 42.4 L222.8 74.1 M306.4 65.2 L327.2 51.9 L340.1 46.8 M121 171.7 L105.1 173.6 L81.6 182 M43.5 228.3 L74.3 225.4 L83.1 229.2 M349.2 31.2 L336 37.2 L310.7 41.8 M174.6 237 L205.1 247.6 L209.6 251.2 M194.1 275.7 L200 304.7 M129.1 182.2 L131.3 191.3 L127.5 203.4 L127.9 210.8 M292.7 77.6 L290.4 106.2 M283 77.2 L280.6 105.8 M9.2 240.4 L41.7 244.1 L46.4 242.8 M149.2 76.3 L186.8 78 M153.1 99.6 L155 71.5 M162.3 99.9 L164.1 71.8 M292.8 137.7 L266.5 136.4 L256.2 134.1 M113.7 61.1 L130 57.1 L128.1 43.5 M198.7 275 L204.5 302.3 M253.9 71 L217.2 69.2 M138.7 70.2 L133.2 63.6 L138.5 60 L136.9 46.2 M227.8 93.4 L264 91 M189.2 101.1 L153.1 99.6 M147.8 310.5 L152.5 290.2 L160 292.7 M175.4 292.4 L206 289.2 L210.4 290.2 M186.1 38.2 L188.1 36.2 L183.4 30.8 L182.9 20.9 L173.7 19.1 M332.2 52.7 L304.5 67.8 M14.3 240.6 L16.1 237.3 L43.5 228.3 M192.2 306.3 L187.5 281.1 M204.3 46.5 L237.1 48.3 M112.9 128.8 L90 111.1 M269.7 82.3 L302.4 83.9 M236.8 52.4 L204.1 50.9 M203.4 274.2 L207.9 298.4 M208 273.1 L210.5 297 M379.8 221.4 L381.8 218.5 L393.6 222.1 L388.4 232.2 M227.8 18.9 L225.6 41.9 M312.4 107.3 L314.3 84.4 M220.5 269.6 L191.5 276.1 M250.4 122.7 L253.7 100.3 M222.2 275.9 L211.5 282.7 L195.7 284.5 M231.6 42.2 L233.9 19.8 M211.2 55.5 L241 56.9 M236.8 52.4 L234.9 74.7 M13.8 266.2 L15.3 255.6 L9.2 245.1 M238.2 128.4 L238 150.6 M323.8 215.7 L298.5 204.2 M142.6 135.8 L129.2 119.3 L129.6 116.9 M143 170 L142.3 192 M330.2 198 L314.6 216.5 M221.8 293.3 L197.8 305.8 M321.1 289.8 L318.1 285.9 L331 272.2 M322 140.7 L320.4 162.3 M372.7 126.8 L346 119.1 M165.9 239.2 L169.1 260.3 M301 101.8 L272.7 100.4 M155.9 133.8 L153.3 136.7 L144.5 133.1 L143.5 129.3 L145.1 125.3 L147.5 124.9 M380.3 254.2 L356.1 244 M358.3 271.7 L342.5 288.9 M116.2 127.2 L133.3 143.4 M123.5 120.8 L142.3 135.9 M180.7 72.4 L179.2 93 M208.3 294.1 L205.9 273.6 M314.2 158.6 L341.6 160.3 M253.4 235.5 L256.8 234 L268.8 248.8 M315.3 144.8 L342.6 146.4 M147.5 85.4 L174.8 86.6 M77.9 18.2 L104.4 15.7 M309.8 214.1 L324.5 197 M137.2 244.2 L123.2 243.2 L110.6 245.1 M117.4 299.4 L126 292.4 L138.1 286.6 M144.5 227.5 L139.6 228.6 L134.9 227.3 L127.7 223.6 L123.5 218.5 M323 51.6 L315 44.7 L311.3 34 M180.5 22.1 L207.3 21.5 M273.6 125.5 L276.6 105.6 M280.6 105.8 L278.4 125.8 M290.4 106.2 L288.7 126.3 M327.2 153.4 L328.8 133.7 M173 106.2 L174.8 86.6 M271.4 144.8 L273.6 125.5 M406.4 275.9 L393.5 273.1 L383.1 267.6 M63.6 269.6 L79.7 269.1 L86.7 274.3 M387.1 172.3 L381.2 169.8 L377.4 171.7 L377 173.5 L381.5 175.2 L381.9 179.9 M85.8 230 L77.1 248.2 M223.6 65.2 L249.3 66.6 M259.4 95.8 L255.6 114.7 M175.4 297.7 L149.9 297.6 M329.6 67.9 L349.6 56.1 M315.3 33.8 L314.9 37.3 L317.8 44.2 L324.2 50.8 M25.1 216.4 L9.9 218.5 L9.6 223.7 L12.4 223.9 M111.5 258.2 L97.2 255.1 L87.3 255.2 M274.2 121.1 L299.2 122.3 M277.4 95.7 L279 77 M335.5 249.5 L339.1 239.1 L345.4 232.7 M361.9 100.6 L337.3 103.6 M189 248.1 L179.4 257.9 L171.8 261 M222.4 226.4 L219.3 244.9 M406.5 290.6 L381.7 290.5 M318.1 112.3 L342.6 113.8 M285.3 41.6 L296.4 25.2 M386.2 276.6 L379.9 285.4 L384.9 287 L389.8 285.3 M67.2 185.8 L77.7 202.4 M170.6 260.9 L173.4 242.9 M209.4 91.6 L214.6 109.3 M210.5 297 L197 304.2 L189.4 304.9 M369.7 110.3 L349.3 120 M294.5 116.6 L270.3 115.5 M129.3 106.9 L150.4 98 M318.4 196.5 L305.5 211.8 M155.7 241.1 L151.1 258.6 M99.1 180.3 L122.3 176 M278.4 125.8 L276.1 143.7 M112.6 259.3 L102.9 275.6 M257.6 39.5 L259.1 21.6 M387.8 239 L390 232.9 L376.2 228.5 M53.2 202.1 L76.9 202.7 M152.3 100.6 L131.6 109.2 M271.3 110 L294.9 111.1 M217.4 84.2 L240.9 85.3 M272 254.9 L250.4 262 M382.7 205.9 L371.8 204.7 L361.6 209.9 M333.4 226.5 L337.8 221.2 L341.5 210.6 M155.7 31.4 L163.2 27.2 L176.7 24.7 M326.3 49.5 L318.7 40.8 L317.9 34 M93.3 163.4 L91.5 165.8 L83.2 166.9 L72.9 165.5 M155.4 204.1 L152.2 204.5 L146.7 200.6 L144.1 192 M277.1 279.5 L277 285.9 L273.5 287.7 L270.3 285.1 L272.9 282.3 M344.4 134.7 L367 136 M136.6 247.3 L130.4 255 L127.1 262.6 M78.6 200.5 L68.9 185.2 M324.8 107.9 L323.4 124.7 M94.6 32.9 L102.6 32 L102.2 28 L93.6 28.3 M178 30.3 L155.9 32.2 M191.5 276.1 L170.1 277.3 M400.2 118 L393.3 122.1 L385.3 122.2 L383 118.8 M317.1 65.4 L332.7 53.6 M156.6 282.6 L158.3 289.1 L160.1 289.8 L163.7 287.7 L163.7 282.7 M138.3 186.5 L138.8 170 M387.4 247.3 L369.3 242.5 L367.6 244.3 M145.3 208.2 L142.3 192 M59.9 291.7 L41.9 299.2 M183.8 128 L182.5 111.8 M89.8 73.1 L80.2 67.8 L78.9 60.9 M165.7 240.3 L183.9 248.9 M340.1 229.9 L345.5 222.2 L347.5 215 M231 100.9 L252.1 100.3 M175.9 263.5 L193.1 254.5 M226.2 99.7 L231.5 115 M43.9 279.2 L48.5 284.9 L47.8 294 M82.2 108.3 L79.5 104.6 L76 105.2 L78.5 109.4 L82.2 108.3 M129.6 217.5 L134.5 224 L144.4 227.3 M132.4 206.8 L132.2 201.8 L135.9 191.5 M276.9 223.1 L256 221.9 M364.9 285.7 L375.2 272 M384.4 244 L364.9 238.5 M332.7 52.7 L332.6 56.4 L321.4 64.7 M391.8 64.5 L389.1 52.4 L391.2 49.7 M311.1 122.8 L312.4 107.3 M206.2 28.8 L226.7 30.6 M341.2 287.1 L353.3 274.5 M339.9 258.3 L352.6 246.1 M253.4 275.4 L239.6 263.9 M227 27.9 L206.5 26.7 M352.9 114.7 L370.1 106.3 M306.4 111.7 L305 127 M187.9 17 L191.9 15.9 L207.9 17.6 M90.4 305.7 L87.8 290.5 M338.4 204.7 L326.9 217.3 M370.3 110.7 L372.8 125.8 M410.3 127.6 L398.9 139.6 M330.6 165.4 L321.8 165.9 L332 166.1 M34.7 208.1 L33.2 216 L35.6 222.9 M55 181.1 L50.6 180.6 L49.3 172.3 L46.8 169.8 M358.2 157.9 L358.7 159.8 L363.8 158.2 L367.6 150.3 M192.1 274.6 L172.9 270.1 M368.4 231.5 L349.3 226.6 M353.6 223 L372.3 228.6 M370.9 229.6 L352 224.3 M235.5 221.1 L233.4 236 M205 196.4 L193.8 184 M265.6 34.7 L268.3 38 L282.3 41 M155.6 299.5 L175.4 299.3 M72.3 311.5 L90.4 305.7 M110.6 245.1 L91.3 242.6 M336.7 43 L343.2 50.4 L350.8 51.6 M384.6 10.3 L395.7 22.4 M204.6 125.1 L207.2 110.5 M319.7 238.6 L313 234.1 L312.8 235.8 L318.7 239.5 M193.3 271.7 L175.4 265.8 M104.3 310.2 L117.4 299.4 M225.4 180.6 L240.3 189.8 M321.7 21.9 L331.9 14.7 L333.8 11 M165.7 43.9 L162.8 37 L154.1 33.6 M79.9 20.6 L70.7 24.3 L70 26.5 L67.9 23 M384.5 230.9 L391.6 217.4 M275.4 49.2 L256.2 48.5 M103.7 263.3 L99.8 261.1 L85.5 260.5 M314.6 153.4 L333.7 154.3 M367.8 119.2 L368.4 114.3 L361.5 106.5 M352.1 120.9 L351.4 135.1 M288.7 126.3 L287.1 140.4 M244.1 222.5 L254.7 226.4 L259 230.6 M213.8 209.1 L231.7 204.6 M325.8 287.1 L340.9 295.6 M337 283.8 L328 296.1 M329.5 297.5 L337.6 284.7 M373.5 271.7 L364.1 283.9 M161 118.3 L151.1 106.3 M252.2 265 L269.1 259.4 M226.1 217.9 L244.5 219.1 M279.9 44.1 L263 38.7 M327 93.1 L340 83.3 M161.2 48.8 L142.9 46.9 M325.9 123.5 L344.4 124.5 M364.3 161.7 L368.9 159.3 L373 153.2 L371.7 151.2 M65.1 179.1 L72.9 176.6 L78.2 170.5 M154 32 L136.1 34.2 M105 198.5 L106.8 204.2 L96.7 205.7 M177.4 278.6 L182.4 291.7 M142.5 244 L160.1 240.1 M112.4 250.3 L120.8 247.6 L129.8 248.3 M329.7 121.8 L330.8 108.2 M269.4 215.7 L257.8 205.2 M160 292.7 L155.6 299.1 L157.1 305.3 M308.5 228.8 L300.5 237.3 L301.6 239.6 M127.9 275.5 L125 269.8 L127.1 262.6 M335.4 119.1 L317.6 117.7 M330.9 298.8 L338.7 286.6" fill="none" stroke="#fbf7eb" stroke-width="3.4" opacity="0.62" stroke-linecap="round" stroke-linejoin="round"/>
</g>
<g data-layer="minor-road">
<path d="M66.4 182 L126.6 159.6 M248.5 75.4 L244.7 119.9 M80.4 94.1 L85 102.9 L115.4 126.6 M203.1 83.5 L148.3 81.1 M259.5 81.8 L210.1 79.6 M121.3 161.5 L77.9 176.3 M318.7 308.7 L309.7 310.1 L303.6 307.7 L302.6 305.3 L304.6 302.5 L314.7 298.8 L318.7 290.4 M197.9 93 L152.5 89.8 M239 108.5 L241.8 75 M112.6 259.3 L155.5 267.4 M348.7 38.2 L344.3 54.4 L328.1 65.7 M159.7 71.6 L157.4 104.7 M82.7 229.5 L62.2 231.9 L54.2 235.3 L52.4 241.2 L47.6 241.9 M228.9 74.4 L231.6 42.7 M225.6 42.4 L222.8 74.1 M306.4 65.2 L327.2 51.9 L340.1 46.8 M121 171.7 L105.1 173.6 L81.6 182 M43.5 228.3 L74.3 225.4 L83.1 229.2 M349.2 31.2 L336 37.2 L310.7 41.8 M174.6 237 L205.1 247.6 L209.6 251.2 M194.1 275.7 L200 304.7 M129.1 182.2 L131.3 191.3 L127.5 203.4 L127.9 210.8 M292.7 77.6 L290.4 106.2 M283 77.2 L280.6 105.8 M9.2 240.4 L41.7 244.1 L46.4 242.8 M149.2 76.3 L186.8 78 M153.1 99.6 L155 71.5 M162.3 99.9 L164.1 71.8 M292.8 137.7 L266.5 136.4 L256.2 134.1 M113.7 61.1 L130 57.1 L128.1 43.5 M198.7 275 L204.5 302.3 M253.9 71 L217.2 69.2 M138.7 70.2 L133.2 63.6 L138.5 60 L136.9 46.2 M227.8 93.4 L264 91 M189.2 101.1 L153.1 99.6 M147.8 310.5 L152.5 290.2 L160 292.7 M175.4 292.4 L206 289.2 L210.4 290.2 M186.1 38.2 L188.1 36.2 L183.4 30.8 L182.9 20.9 L173.7 19.1 M332.2 52.7 L304.5 67.8 M14.3 240.6 L16.1 237.3 L43.5 228.3 M192.2 306.3 L187.5 281.1 M204.3 46.5 L237.1 48.3 M112.9 128.8 L90 111.1 M269.7 82.3 L302.4 83.9 M236.8 52.4 L204.1 50.9 M203.4 274.2 L207.9 298.4 M208 273.1 L210.5 297 M379.8 221.4 L381.8 218.5 L393.6 222.1 L388.4 232.2 M227.8 18.9 L225.6 41.9 M312.4 107.3 L314.3 84.4 M220.5 269.6 L191.5 276.1 M250.4 122.7 L253.7 100.3 M222.2 275.9 L211.5 282.7 L195.7 284.5 M231.6 42.2 L233.9 19.8 M211.2 55.5 L241 56.9 M236.8 52.4 L234.9 74.7 M13.8 266.2 L15.3 255.6 L9.2 245.1 M238.2 128.4 L238 150.6 M323.8 215.7 L298.5 204.2 M142.6 135.8 L129.2 119.3 L129.6 116.9 M143 170 L142.3 192 M330.2 198 L314.6 216.5 M221.8 293.3 L197.8 305.8 M321.1 289.8 L318.1 285.9 L331 272.2 M322 140.7 L320.4 162.3 M372.7 126.8 L346 119.1 M165.9 239.2 L169.1 260.3 M301 101.8 L272.7 100.4 M155.9 133.8 L153.3 136.7 L144.5 133.1 L143.5 129.3 L145.1 125.3 L147.5 124.9 M380.3 254.2 L356.1 244 M358.3 271.7 L342.5 288.9 M116.2 127.2 L133.3 143.4 M123.5 120.8 L142.3 135.9 M180.7 72.4 L179.2 93 M208.3 294.1 L205.9 273.6 M314.2 158.6 L341.6 160.3 M253.4 235.5 L256.8 234 L268.8 248.8 M315.3 144.8 L342.6 146.4 M147.5 85.4 L174.8 86.6 M77.9 18.2 L104.4 15.7 M309.8 214.1 L324.5 197 M137.2 244.2 L123.2 243.2 L110.6 245.1 M117.4 299.4 L126 292.4 L138.1 286.6 M144.5 227.5 L139.6 228.6 L134.9 227.3 L127.7 223.6 L123.5 218.5 M323 51.6 L315 44.7 L311.3 34 M180.5 22.1 L207.3 21.5 M273.6 125.5 L276.6 105.6 M280.6 105.8 L278.4 125.8 M290.4 106.2 L288.7 126.3 M327.2 153.4 L328.8 133.7 M173 106.2 L174.8 86.6 M271.4 144.8 L273.6 125.5 M406.4 275.9 L393.5 273.1 L383.1 267.6 M63.6 269.6 L79.7 269.1 L86.7 274.3 M387.1 172.3 L381.2 169.8 L377.4 171.7 L377 173.5 L381.5 175.2 L381.9 179.9 M85.8 230 L77.1 248.2 M223.6 65.2 L249.3 66.6 M259.4 95.8 L255.6 114.7 M175.4 297.7 L149.9 297.6 M329.6 67.9 L349.6 56.1 M315.3 33.8 L314.9 37.3 L317.8 44.2 L324.2 50.8 M25.1 216.4 L9.9 218.5 L9.6 223.7 L12.4 223.9 M111.5 258.2 L97.2 255.1 L87.3 255.2 M274.2 121.1 L299.2 122.3 M277.4 95.7 L279 77 M335.5 249.5 L339.1 239.1 L345.4 232.7 M361.9 100.6 L337.3 103.6 M189 248.1 L179.4 257.9 L171.8 261 M222.4 226.4 L219.3 244.9 M406.5 290.6 L381.7 290.5 M318.1 112.3 L342.6 113.8 M285.3 41.6 L296.4 25.2 M386.2 276.6 L379.9 285.4 L384.9 287 L389.8 285.3 M67.2 185.8 L77.7 202.4 M170.6 260.9 L173.4 242.9 M209.4 91.6 L214.6 109.3 M210.5 297 L197 304.2 L189.4 304.9 M369.7 110.3 L349.3 120 M294.5 116.6 L270.3 115.5 M129.3 106.9 L150.4 98 M318.4 196.5 L305.5 211.8 M155.7 241.1 L151.1 258.6 M99.1 180.3 L122.3 176 M278.4 125.8 L276.1 143.7 M112.6 259.3 L102.9 275.6 M257.6 39.5 L259.1 21.6 M387.8 239 L390 232.9 L376.2 228.5 M53.2 202.1 L76.9 202.7 M152.3 100.6 L131.6 109.2 M271.3 110 L294.9 111.1 M217.4 84.2 L240.9 85.3 M272 254.9 L250.4 262 M382.7 205.9 L371.8 204.7 L361.6 209.9 M333.4 226.5 L337.8 221.2 L341.5 210.6 M155.7 31.4 L163.2 27.2 L176.7 24.7 M326.3 49.5 L318.7 40.8 L317.9 34 M93.3 163.4 L91.5 165.8 L83.2 166.9 L72.9 165.5 M155.4 204.1 L152.2 204.5 L146.7 200.6 L144.1 192 M277.1 279.5 L277 285.9 L273.5 287.7 L270.3 285.1 L272.9 282.3 M344.4 134.7 L367 136 M136.6 247.3 L130.4 255 L127.1 262.6 M78.6 200.5 L68.9 185.2 M324.8 107.9 L323.4 124.7 M94.6 32.9 L102.6 32 L102.2 28 L93.6 28.3 M178 30.3 L155.9 32.2 M191.5 276.1 L170.1 277.3 M400.2 118 L393.3 122.1 L385.3 122.2 L383 118.8 M317.1 65.4 L332.7 53.6 M156.6 282.6 L158.3 289.1 L160.1 289.8 L163.7 287.7 L163.7 282.7 M138.3 186.5 L138.8 170 M387.4 247.3 L369.3 242.5 L367.6 244.3 M145.3 208.2 L142.3 192 M59.9 291.7 L41.9 299.2 M183.8 128 L182.5 111.8 M89.8 73.1 L80.2 67.8 L78.9 60.9 M165.7 240.3 L183.9 248.9 M340.1 229.9 L345.5 222.2 L347.5 215 M231 100.9 L252.1 100.3 M175.9 263.5 L193.1 254.5 M226.2 99.7 L231.5 115 M43.9 279.2 L48.5 284.9 L47.8 294 M82.2 108.3 L79.5 104.6 L76 105.2 L78.5 109.4 L82.2 108.3 M129.6 217.5 L134.5 224 L144.4 227.3 M132.4 206.8 L132.2 201.8 L135.9 191.5 M276.9 223.1 L256 221.9 M364.9 285.7 L375.2 272 M384.4 244 L364.9 238.5 M332.7 52.7 L332.6 56.4 L321.4 64.7 M391.8 64.5 L389.1 52.4 L391.2 49.7 M311.1 122.8 L312.4 107.3 M206.2 28.8 L226.7 30.6 M341.2 287.1 L353.3 274.5 M339.9 258.3 L352.6 246.1 M253.4 275.4 L239.6 263.9 M227 27.9 L206.5 26.7 M352.9 114.7 L370.1 106.3 M306.4 111.7 L305 127 M187.9 17 L191.9 15.9 L207.9 17.6 M90.4 305.7 L87.8 290.5 M338.4 204.7 L326.9 217.3 M370.3 110.7 L372.8 125.8 M410.3 127.6 L398.9 139.6 M330.6 165.4 L321.8 165.9 L332 166.1 M34.7 208.1 L33.2 216 L35.6 222.9 M55 181.1 L50.6 180.6 L49.3 172.3 L46.8 169.8 M358.2 157.9 L358.7 159.8 L363.8 158.2 L367.6 150.3 M192.1 274.6 L172.9 270.1 M368.4 231.5 L349.3 226.6 M353.6 223 L372.3 228.6 M370.9 229.6 L352 224.3 M235.5 221.1 L233.4 236 M205 196.4 L193.8 184 M265.6 34.7 L268.3 38 L282.3 41 M155.6 299.5 L175.4 299.3 M72.3 311.5 L90.4 305.7 M110.6 245.1 L91.3 242.6 M336.7 43 L343.2 50.4 L350.8 51.6 M384.6 10.3 L395.7 22.4 M204.6 125.1 L207.2 110.5 M319.7 238.6 L313 234.1 L312.8 235.8 L318.7 239.5 M193.3 271.7 L175.4 265.8 M104.3 310.2 L117.4 299.4 M225.4 180.6 L240.3 189.8 M321.7 21.9 L331.9 14.7 L333.8 11 M165.7 43.9 L162.8 37 L154.1 33.6 M79.9 20.6 L70.7 24.3 L70 26.5 L67.9 23 M384.5 230.9 L391.6 217.4 M275.4 49.2 L256.2 48.5 M103.7 263.3 L99.8 261.1 L85.5 260.5 M314.6 153.4 L333.7 154.3 M367.8 119.2 L368.4 114.3 L361.5 106.5 M352.1 120.9 L351.4 135.1 M288.7 126.3 L287.1 140.4 M244.1 222.5 L254.7 226.4 L259 230.6 M213.8 209.1 L231.7 204.6 M325.8 287.1 L340.9 295.6 M337 283.8 L328 296.1 M329.5 297.5 L337.6 284.7 M373.5 271.7 L364.1 283.9 M161 118.3 L151.1 106.3 M252.2 265 L269.1 259.4 M226.1 217.9 L244.5 219.1 M279.9 44.1 L263 38.7 M327 93.1 L340 83.3 M161.2 48.8 L142.9 46.9 M325.9 123.5 L344.4 124.5 M364.3 161.7 L368.9 159.3 L373 153.2 L371.7 151.2 M65.1 179.1 L72.9 176.6 L78.2 170.5 M154 32 L136.1 34.2 M105 198.5 L106.8 204.2 L96.7 205.7 M177.4 278.6 L182.4 291.7 M142.5 244 L160.1 240.1 M112.4 250.3 L120.8 247.6 L129.8 248.3 M329.7 121.8 L330.8 108.2 M269.4 215.7 L257.8 205.2 M160 292.7 L155.6 299.1 L157.1 305.3 M308.5 228.8 L300.5 237.3 L301.6 239.6 M127.9 275.5 L125 269.8 L127.1 262.6 M335.4 119.1 L317.6 117.7 M330.9 298.8 L338.7 286.6" fill="none" stroke="#69776e" stroke-width="1.25" opacity="0.58" stroke-linecap="round" stroke-linejoin="round"/>
</g>
</g>
<g data-layer="north-up-compass" fill="none" stroke="#233934" stroke-linecap="round" stroke-linejoin="round" opacity="0.62">
<path d="M382 48L382 23" stroke-width="1.8"/>
<path d="M382 23L373 39M382 23L391 39" stroke-width="1.8"/>
<circle cx="382" cy="48" r="13" stroke-width="1.1" opacity="0.38"/>
</g>
<rect x="8" y="8" width="404" height="304" rx="16" fill="none" stroke="#233934" stroke-width="1.4" opacity="0.44"/>
</svg>
