<svg xmlns="http://www.w3.org/2000/svg" viewBox="0 0 420 320" role="img" aria-label="Unlabeled north-up street-grid crop" data-orientation="north-up">
<metadata>{"orientation":"north-up","projection":"local-web-mercator"}</metadata>
<defs>
<clipPath id="mapCrop"><rect x="8" y="8" width="404" height="304" rx="16"/></clipPath>
</defs>
<rect width="420" height="320" fill="#ede7d8"/>
<rect x="8" y="8" width="404" height="304" rx="16" fill="#f7f1e3" stroke="#d8cbb2" stroke-width="1.25"/>
<g clip-path="url(#mapCrop)">
<g data-layer="major-road-casing">
<path d="M216.6 93.9 L215 159.5 L218.7 170.8 L224.9 178.4 M230.1 184.6 L230 182.2 L218.7 170.1 L215.3 156.9 M211.2 181.3 L174.5 176.8 M174.4 177.3 L211 181.7 M215.3 156.9 L216.9 93.2 M256.9 140.8 L255.7 187.3 M256 191.8 L257.3 140.8 M281.3 190.7 L248.6 190 L211.2 181.3 M211 181.7 L249.1 190.3 L281.3 191.2 M229.9 183.7 L223 203.4 M192.9 162.8 L193.5 152.9 M223.3 203.4 L230.1 184.6 M193 152.8 L192.4 162.8 M194 152.9 L194.7 142 M189.2 172.1 L193.3 163.3 M138.4 170.9 L171.2 177 M224.9 178.4 L229.9 183.7 M165.4 175.6 L138.2 170.4 M194.7 142 L195.2 133 M244.1 107 L254 113.4 L257.2 117.9 L256.9 140.8 M257.3 140.8 L257.4 117.3 L253.9 112.8 L243.3 106 M188.1 171.9 L184.4 178 M196.3 190.8 L212 193.9 M192.7 124.4 L194.2 133.2 M214.7 141.7 L215.1 163.3 M170.8 176.3 L165.4 175.6 M174.5 176.8 L170.8 176.3 M171.6 159.2 L173.5 154.3 L173.6 144.2 M216.6 163.4 L216.3 133.7 M221.7 195.7 L212.1 193.5 M196.5 190.3 L188.8 188.8 M212 193.9 L221.5 196.1 M173.6 144.2 L174.2 123.9 M188.6 189.3 L196.3 190.8 M214.6 153.2 L194 152.9 M179.9 187 L182.9 181.7 M180.2 187.7 L188.6 189.3 M179.3 186.9 L170.5 185.2 M239.6 153.5 L215.7 153.2 M182.2 181.9 L179.9 185.9 M170.5 185.2 L159.2 182.9 M205.7 156.9 L206.1 141.5 M227.4 125.1 L226.6 163.4 M260 85.2 L226.3 83 L177.5 70 L134.6 66.1 M159.2 183.3 L170.1 185.6 M213.9 82.5 L259.8 87.5 M201.9 174.5 L223.9 178.1 M225 177.5 L216.7 163.9 M140.1 123.3 L162.8 123.4 M229.1 185.6 L200.4 179.1 M200.1 179.8 L228.9 186.2 M238.6 199.4 L229.5 197.4 M192.6 123.8 L185.2 123.7 M229.4 197.8 L238.5 200 M215.2 163.9 L221.1 175.1 M168.6 168.1 L171.5 159.5 M170.7 159.4 L167.8 168 M201.9 174.5 L205.6 163.8 M205.3 163.8 L201.9 174.5 M205.7 156.9 L205.3 163.8 M155.5 158.2 L151.4 173 M250 200.8 L239.2 199.5 M181.9 123.6 L174.2 123.4 M177.2 196.2 L178.8 191.7 M205.7 162.6 L205.7 156.9 M181.8 72.2 L216.6 82 M216.9 81.5 L181.8 71.6 M151.4 181.8 L159.2 183.3 M278.2 202 L259 201.8 M135.1 68 L182.5 72.7 L213.9 82.5 M191.8 108.9 L191 116.3 M240.4 107.9 L240.2 124.8 M192 116.1 L192.8 109.1 M137.8 178.5 L149.3 181.3 M175.3 201.4 L177.2 196.2 M206.1 141.5 L206.6 124.7 M215.2 124.8 L214.7 141.7 M176.6 196.1 L174.8 201.3 M240.2 124.8 L227.4 124.6 M189.2 172.1 L201.9 174.5 M172.7 208.6 L175.3 201.4 M170.2 123.3 L163.4 123.1 M200.4 179.1 L185.5 178.2 M185.1 178.8 L200.1 179.8 M224.3 178.6 L238.6 186.6 M226.8 85.3 L238.5 87.7 M212.4 133.4 L195.2 133 M173.7 169.1 L188.1 171.9 M226.4 167.5 L226.2 175 M206.2 186.4 L190.8 183.3 M170.5 213.4 L166.9 227.5 M238.9 186.3 L226 178.5 M216.1 141.7 L227.1 141.8 M226.2 176.9 L239.1 177 M170.1 213.2 L165.6 225.8 L166.9 227.5 M171.4 213.4 L193.6 222.7 M237.3 87.2 L227.7 85 M255.7 153.7 L240.2 153.5 M173.7 112.6 L173.5 123.4 M238.1 215.6 L218.7 215.2 M218.7 215.2 L222.8 205.3 M131.1 121.6 L128.7 145.9 M204.6 215 L188.6 213.3 M226.5 164 L226.4 167.5 M255.4 163.7 L255 177.3 M239.7 177 L255 177.3 M227.7 85 L220.2 82.5 M200.4 179.1 L201.9 174.5 M188.8 212.9 L172.7 211.2 M240.5 142.2 L256.1 142.4 M256.2 141.9 L240.5 141.7 M260.5 215.6 L239.1 215.3 M215.8 103.6 L215.3 124.3 M188.6 213.3 L172.9 211.6 M244.4 87.3 L237.3 87.2 M207.1 105 L206.6 124.1 M216.6 124.4 L217.4 103.3 M218.5 214.4 L204.8 214.2 M257.1 177.2 L257.5 164.2 M192 116.1 L214.6 116.3 M205.7 163.2 L205.7 162.6 M238.5 87.7 L244.8 87.7 M288.9 149 L257.8 148.5 M214.2 230.3 L218.7 215.2 M228.2 103.9 L227.4 124.6 M221 83.4 L226.8 85.3 M205.6 163.8 L205.7 163.2 M288.8 177.8 L289.2 164.8 M257.6 216.4 L239 215.7 M256.6 86.1 L248.8 86.9 M248.4 87.3 L255.1 86.7 M181.8 71.6 L163 68.5 M289.5 154.4 L289.7 142.9 M215.6 154.6 L216.2 143.6 M174 102.8 L173.7 112.6 M216.6 82 L221 83.4 M248.8 86.9 L244.4 87.3 M287 216.1 L262.1 215.7 M162.9 69.1 L178.8 71.6 M131.6 121.8 L133.2 102.2 M244.8 87.7 L248.4 87.3 M132.7 102.2 L131.1 121.6 M186.2 219.2 L196.8 223.5 M288.4 189.9 L288.7 180.2 M288 202.1 L288.4 189.9 M201.1 224.9 L213.8 229.9 M279.8 216.4 L262.1 215.9 M287.8 190.8 L287.4 202.1 M238.6 231.7 L260.1 232 M214.9 146.5 L214.7 151.6 M309.7 165.2 L309.6 178 M287.4 202.6 L287.1 215.2 M213.8 229.9 L226.1 231.3 M287.7 215.2 L288 202.6 M214.7 151.6 L214.5 153.2 M256.9 129.6 L256.9 140.8 M227.2 193.5 L229.3 187.5 M257.3 159.1 L257.2 152.5 M173.1 175.8 L165.4 175.6 M255.5 179.8 L255.7 187.3 M216.6 123.8 L216.6 117 M243.3 106 L241.6 103.6 L241.9 96.3 M226.7 192.6 L225.7 194.9 M241.1 103.6 L241.4 94 M239.4 85.2 L240.9 95.8 M234.8 88.6 L240.3 96.2 M234.8 88.6 L239 91.3 L240.9 95.8 M241.4 94 L239.9 85.3 M196.7 94.5 L193.8 102.9 M216.4 162.3 L215.4 160.4 M232.9 82.7 L220.2 82.5 M215.2 157.2 L215.9 155.7 M226.8 85.3 L234.8 88.6 M241.2 106 L241.1 104 M237.3 87.2 L232.7 84.9 L235.8 83.2 M217.7 167 L216.5 165.6 M218.4 169.7 L218.1 168 M215.4 160.4 L214.6 160.4 M219.7 171 L218.4 169.7 M214.4 157.3 L215.2 157.2 M216.5 165.6 L215.7 165.7 M217.6 169.9 L218.4 169.7 M226.3 178.7 L226.2 176.9 M107 128.4 L111.5 120.8 M114.7 120.3 L119.9 120.9 M121.1 120.6 L117.5 119.9 M146.5 47.1 L141.9 37.1 L143.2 32.6 M136 35.5 L140 37.4 L143.7 43.8 M63.6 153.2 L66.3 152.1 M15.5 167.9 L26.7 163.1 M27.6 161.8 L24.9 161.8 L18.8 166.3 M30.2 162.9 L35.3 165 M260 205.6 L256.7 198.6 L256 191.8 M171.2 177 L174.4 177.3 M255.5 191.9 L258.7 204.2 M255.7 187.3 L255.5 191.9 M111 181.6 L120.7 170.9 L124.9 158.7 M124.5 158.6 L119.5 172.1 L109.8 182 M258.7 204.2 L261.1 216.5 M126.1 169.4 L138.4 170.9 M138.2 170.4 L126.3 168.9 M240.9 96.6 L240.7 103.6 L244.1 107 M260.6 264.3 L261.7 213.1 L260 205.6 M127.5 149.3 L124.5 158.6 M223 203.4 L222.4 204.5 M295.2 189.5 L281.3 190.7 M281.3 191.2 L294.7 189.9 M294.7 189.9 L321.6 191.6 M111.4 176.7 L115.8 178.2 L120.9 171.4 M208.7 84.5 L206.1 81.3 L206.5 77.2 L202.4 64.4 M126.3 168.9 L120.1 167.8 L117.1 169.4 M126.1 176.7 L136.7 178.5 M124.9 158.7 L126.1 154.2 M261.1 216.5 L260.1 264.3 M196.9 95 L194.3 102.9 M130 200.3 L133.8 189.3 M120.9 171.4 L122.7 169.4 L126.1 169.4 M212.1 88.5 L216.6 93.9 M152.9 112.4 L152.8 119.2 M132.1 189.2 L128.4 200 M108.3 125.2 L97.6 140.9 L51.4 172.7 M49.1 174.8 L97.5 141.6 L108.6 125.2 M216.9 93.2 L212.5 88.3 M128.4 146.7 L127.5 149.3 M288.2 177.7 L257.1 177.2 M207.1 207.7 L212 193.9 M257.1 177.4 L288.8 177.8 M215.1 163.3 L215.2 163.9 M221.1 175.1 L223.9 178.1 M136.4 182.1 L137.8 178.5 M258 142.4 L289.1 142.9 M256.1 142.4 L255.7 153.7 M215.7 153.2 L214.6 153.2 M198.4 184.9 L200.1 179.8 M289.1 142.3 L258.2 141.9 M255.7 153.7 L255.4 163.7 M216.7 163.9 L216.6 163.4 M98.4 189.9 L111 181.6 M199.2 141.5 L203.9 141.5 M182.5 143.2 L189.6 142.5 M206.1 141.5 L210.3 141.6 M184.4 178 L175.5 176.8 M272.9 164.5 L273.3 183.4 M216.6 133.1 L216.7 124.9 M228.9 186.2 L225.7 194.9 M214 188 L206.2 186.4 M175.2 177.5 L184 178.6 M110.6 120.9 L112.3 103.4 L106.4 84.3 M106 84.4 L112 103 L109.9 122 M240.7 133.1 L256.2 133.3 M130.7 121.9 L140.1 123.3 M257.5 163.7 L257.8 153.8 M237.5 133.1 L227.3 133 M226.9 194.6 L229.8 186.4 M190.8 183.3 L182.9 181.7 M258.2 141.9 L258.5 127.6 M199.4 86.2 L196.7 94.5 M207.5 83.8 L212.1 88.5 M134.5 186.2 L136.2 182.5 M193.3 199.4 L177.2 196.2 M177.8 239.5 L167.4 228 M208.9 202.5 L193.3 199.4 M77.3 156 L108.8 170.6 M108.8 170.6 L112.8 172.7 L112.1 175.1 M125.5 176 L116.8 173.8 M258.8 133.3 L289.3 133.7 M198.4 184.9 L196.5 190.3 M238.8 192.2 L226.9 194.6 M278.2 202.5 L287.4 202.6 M238.5 187.7 L229.9 185.8 M303 202.3 L288 202.1 M162.2 145.3 L172.9 144.2 M375.2 190 L353.6 188.9 L331 191.8 L295.2 189.5 M109.8 182 L99.8 188.6 M175.5 176.8 L166 175.6 M240.5 110.1 L217.2 109.8 M212.5 88.3 L208.7 84.5 M214.8 109.8 L192.8 109.1 M202.1 64.5 L206.1 78.2 M257 191.2 L287.8 190.8 M153.6 112.4 L153.7 107.5 M128.9 200.2 L125 211.1 M217 116.3 L233.9 116.6 M220.7 133.1 L227.3 133 M212.1 193.5 L214 188 M212.5 141.6 L214.7 141.7 M288.4 189.9 L260.5 190.6 M273.2 154.1 L258.9 153.9 M203.9 141.5 L206.1 141.5 M226.2 175 L226.2 176.9 M226.6 163.4 L226.5 164 M215.4 133.3 L220.7 133.1 M144.6 157 L145.7 171.4 M258.6 125.3 L257.5 115.6 L249.8 109.2 M171.2 210.5 L169.1 211.6 M220.2 82.5 L216.9 81.5 M177.4 239.7 L192 256 M196.7 141.8 L199.2 141.5 M255.1 86.7 L260.2 86.2 M210.3 141.6 L212 141.6 M255 177.3 L254.8 186.1 M153.6 174.3 L165.2 176.2 M177.8 143.7 L182.5 143.2 M206.1 78.2 L207.5 83.8 M208.9 202.5 L222.3 205.2 M120.8 120.9 L130.7 121.9 M227.1 141.8 L229.8 141.8 M117.1 169.4 L115.1 171.4 M194.7 142 L196.7 141.8 M191.5 142.3 L193.7 142.1 M153.1 102.3 L153 107.5 M194 152.9 L193.5 152.9 M193.5 152.9 L193 152.8 M214.8 141.7 L216.1 141.7 M256.2 133.3 L256.2 141.9 M168.6 168.1 L173.7 169.1 M121.1 120.6 L104.8 119.4 M257.1 185.7 L257.1 177.2 M262 207.8 L239.4 207.6 M153.8 102.3 L153.9 95.4 M225.2 196.4 L222.4 204.5 M238.3 207.6 L222.8 205.3 M161.1 166.7 L167.8 168 M230.8 141.9 L233.4 141.9 M236.1 141.9 L239.8 142 M226 178.5 L225 177.5 M223.9 178.1 L225 177.5 M225 177.5 L226.2 176.9 M113.1 171.9 L109.6 170.4 M247.4 189.7 L239.5 187.9 M229.9 182.9 L229.1 185.6 M238.5 188.5 L246.3 190.4 M206 80.9 L199.4 86.2 M99.8 188.6 L95 192.7 L90.5 201.5 L72.3 212.8 L57.5 218.9 M223.1 204.7 L225.9 197.1 M173.6 144.2 L177.8 143.7 M165.3 175.5 L156.8 174 M61.1 218.2 L90.7 201.7 L98.4 189.9 M165.6 176.3 L171.7 177.1 M257.8 153.8 L257.8 148.5 M156 156.3 L144.6 157 M246.3 190.4 L257 191.2 M196.3 190.8 L194.9 194.9 M395.8 92.9 L370 92.6 L338.2 86 L256.6 86.1 M144.6 157 L143.8 145.7 M233.5 187.3 L238.5 188.5 M254.6 190.6 L256.4 201.6 M200.1 179.8 L200.4 179.1 M282.3 118.5 L258.6 118.4 M229.9 185.8 L230.9 183.5 M257.8 148.5 L257.9 142.9 M273.1 154.5 L272.9 163.9 M260.2 86.2 L339.5 86.4 L370 93 L393.6 93.3 M212 141.6 L212.5 141.6 M229.8 186.4 L233.5 187.3 M321.6 191.6 L333 192.3 L354.6 189.2 L374 190.1 M188.1 171.9 L188.7 172 M189.6 142.5 L190.7 142.4 M223.9 178.1 L224.3 178.6 M188.7 172 L189.2 172.1" fill="none" stroke="#fcf7e8" stroke-width="6.4" opacity="0.92" stroke-linecap="round" stroke-linejoin="round"/>
</g>
<g data-layer="major-road">
<path d="M216.6 93.9 L215 159.5 L218.7 170.8 L224.9 178.4 M230.1 184.6 L230 182.2 L218.7 170.1 L215.3 156.9 M211.2 181.3 L174.5 176.8 M174.4 177.3 L211 181.7 M215.3 156.9 L216.9 93.2 M256.9 140.8 L255.7 187.3 M256 191.8 L257.3 140.8 M281.3 190.7 L248.6 190 L211.2 181.3 M211 181.7 L249.1 190.3 L281.3 191.2 M229.9 183.7 L223 203.4 M192.9 162.8 L193.5 152.9 M223.3 203.4 L230.1 184.6 M193 152.8 L192.4 162.8 M194 152.9 L194.7 142 M189.2 172.1 L193.3 163.3 M138.4 170.9 L171.2 177 M224.9 178.4 L229.9 183.7 M165.4 175.6 L138.2 170.4 M194.7 142 L195.2 133 M244.1 107 L254 113.4 L257.2 117.9 L256.9 140.8 M257.3 140.8 L257.4 117.3 L253.9 112.8 L243.3 106 M188.1 171.9 L184.4 178 M196.3 190.8 L212 193.9 M192.7 124.4 L194.2 133.2 M214.7 141.7 L215.1 163.3 M170.8 176.3 L165.4 175.6 M174.5 176.8 L170.8 176.3 M171.6 159.2 L173.5 154.3 L173.6 144.2 M216.6 163.4 L216.3 133.7 M221.7 195.7 L212.1 193.5 M196.5 190.3 L188.8 188.8 M212 193.9 L221.5 196.1 M173.6 144.2 L174.2 123.9 M188.6 189.3 L196.3 190.8 M214.6 153.2 L194 152.9 M179.9 187 L182.9 181.7 M180.2 187.7 L188.6 189.3 M179.3 186.9 L170.5 185.2 M239.6 153.5 L215.7 153.2 M182.2 181.9 L179.9 185.9 M170.5 185.2 L159.2 182.9 M205.7 156.9 L206.1 141.5 M227.4 125.1 L226.6 163.4 M260 85.2 L226.3 83 L177.5 70 L134.6 66.1 M159.2 183.3 L170.1 185.6 M213.9 82.5 L259.8 87.5 M201.9 174.5 L223.9 178.1 M225 177.5 L216.7 163.9 M140.1 123.3 L162.8 123.4 M229.1 185.6 L200.4 179.1 M200.1 179.8 L228.9 186.2 M238.6 199.4 L229.5 197.4 M192.6 123.8 L185.2 123.7 M229.4 197.8 L238.5 200 M215.2 163.9 L221.1 175.1 M168.6 168.1 L171.5 159.5 M170.7 159.4 L167.8 168 M201.9 174.5 L205.6 163.8 M205.3 163.8 L201.9 174.5 M205.7 156.9 L205.3 163.8 M155.5 158.2 L151.4 173 M250 200.8 L239.2 199.5 M181.9 123.6 L174.2 123.4 M177.2 196.2 L178.8 191.7 M205.7 162.6 L205.7 156.9 M181.8 72.2 L216.6 82 M216.9 81.5 L181.8 71.6 M151.4 181.8 L159.2 183.3 M278.2 202 L259 201.8 M135.1 68 L182.5 72.7 L213.9 82.5 M191.8 108.9 L191 116.3 M240.4 107.9 L240.2 124.8 M192 116.1 L192.8 109.1 M137.8 178.5 L149.3 181.3 M175.3 201.4 L177.2 196.2 M206.1 141.5 L206.6 124.7 M215.2 124.8 L214.7 141.7 M176.6 196.1 L174.8 201.3 M240.2 124.8 L227.4 124.6 M189.2 172.1 L201.9 174.5 M172.7 208.6 L175.3 201.4 M170.2 123.3 L163.4 123.1 M200.4 179.1 L185.5 178.2 M185.1 178.8 L200.1 179.8 M224.3 178.6 L238.6 186.6 M226.8 85.3 L238.5 87.7 M212.4 133.4 L195.2 133 M173.7 169.1 L188.1 171.9 M226.4 167.5 L226.2 175 M206.2 186.4 L190.8 183.3 M170.5 213.4 L166.9 227.5 M238.9 186.3 L226 178.5 M216.1 141.7 L227.1 141.8 M226.2 176.9 L239.1 177 M170.1 213.2 L165.6 225.8 L166.9 227.5 M171.4 213.4 L193.6 222.7 M237.3 87.2 L227.7 85 M255.7 153.7 L240.2 153.5 M173.7 112.6 L173.5 123.4 M238.1 215.6 L218.7 215.2 M218.7 215.2 L222.8 205.3 M131.1 121.6 L128.7 145.9 M204.6 215 L188.6 213.3 M226.5 164 L226.4 167.5 M255.4 163.7 L255 177.3 M239.7 177 L255 177.3 M227.7 85 L220.2 82.5 M200.4 179.1 L201.9 174.5 M188.8 212.9 L172.7 211.2 M240.5 142.2 L256.1 142.4 M256.2 141.9 L240.5 141.7 M260.5 215.6 L239.1 215.3 M215.8 103.6 L215.3 124.3 M188.6 213.3 L172.9 211.6 M244.4 87.3 L237.3 87.2 M207.1 105 L206.6 124.1 M216.6 124.4 L217.4 103.3 M218.5 214.4 L204.8 214.2 M257.1 177.2 L257.5 164.2 M192 116.1 L214.6 116.3 M205.7 163.2 L205.7 162.6 M238.5 87.7 L244.8 87.7 M288.9 149 L257.8 148.5 M214.2 230.3 L218.7 215.2 M228.2 103.9 L227.4 124.6 M221 83.4 L226.8 85.3 M205.6 163.8 L205.7 163.2 M288.8 177.8 L289.2 164.8 M257.6 216.4 L239 215.7 M256.6 86.1 L248.8 86.9 M248.4 87.3 L255.1 86.7 M181.8 71.6 L163 68.5 M289.5 154.4 L289.7 142.9 M215.6 154.6 L216.2 143.6 M174 102.8 L173.7 112.6 M216.6 82 L221 83.4 M248.8 86.9 L244.4 87.3 M287 216.1 L262.1 215.7 M162.9 69.1 L178.8 71.6 M131.6 121.8 L133.2 102.2 M244.8 87.7 L248.4 87.3 M132.7 102.2 L131.1 121.6 M186.2 219.2 L196.8 223.5 M288.4 189.9 L288.7 180.2 M288 202.1 L288.4 189.9 M201.1 224.9 L213.8 229.9 M279.8 216.4 L262.1 215.9 M287.8 190.8 L287.4 202.1 M238.6 231.7 L260.1 232 M214.9 146.5 L214.7 151.6 M309.7 165.2 L309.6 178 M287.4 202.6 L287.1 215.2 M213.8 229.9 L226.1 231.3 M287.7 215.2 L288 202.6 M214.7 151.6 L214.5 153.2 M256.9 129.6 L256.9 140.8 M227.2 193.5 L229.3 187.5 M257.3 159.1 L257.2 152.5 M173.1 175.8 L165.4 175.6 M255.5 179.8 L255.7 187.3 M216.6 123.8 L216.6 117 M243.3 106 L241.6 103.6 L241.9 96.3 M226.7 192.6 L225.7 194.9 M241.1 103.6 L241.4 94 M239.4 85.2 L240.9 95.8 M234.8 88.6 L240.3 96.2 M234.8 88.6 L239 91.3 L240.9 95.8 M241.4 94 L239.9 85.3 M196.7 94.5 L193.8 102.9 M216.4 162.3 L215.4 160.4 M232.9 82.7 L220.2 82.5 M215.2 157.2 L215.9 155.7 M226.8 85.3 L234.8 88.6 M241.2 106 L241.1 104 M237.3 87.2 L232.7 84.9 L235.8 83.2 M217.7 167 L216.5 165.6 M218.4 169.7 L218.1 168 M215.4 160.4 L214.6 160.4 M219.7 171 L218.4 169.7 M214.4 157.3 L215.2 157.2 M216.5 165.6 L215.7 165.7 M217.6 169.9 L218.4 169.7 M226.3 178.7 L226.2 176.9 M107 128.4 L111.5 120.8 M114.7 120.3 L119.9 120.9 M121.1 120.6 L117.5 119.9 M146.5 47.1 L141.9 37.1 L143.2 32.6 M136 35.5 L140 37.4 L143.7 43.8 M63.6 153.2 L66.3 152.1 M15.5 167.9 L26.7 163.1 M27.6 161.8 L24.9 161.8 L18.8 166.3 M30.2 162.9 L35.3 165 M260 205.6 L256.7 198.6 L256 191.8 M171.2 177 L174.4 177.3 M255.5 191.9 L258.7 204.2 M255.7 187.3 L255.5 191.9 M111 181.6 L120.7 170.9 L124.9 158.7 M124.5 158.6 L119.5 172.1 L109.8 182 M258.7 204.2 L261.1 216.5 M126.1 169.4 L138.4 170.9 M138.2 170.4 L126.3 168.9 M240.9 96.6 L240.7 103.6 L244.1 107 M260.6 264.3 L261.7 213.1 L260 205.6 M127.5 149.3 L124.5 158.6 M223 203.4 L222.4 204.5 M295.2 189.5 L281.3 190.7 M281.3 191.2 L294.7 189.9 M294.7 189.9 L321.6 191.6 M111.4 176.7 L115.8 178.2 L120.9 171.4 M208.7 84.5 L206.1 81.3 L206.5 77.2 L202.4 64.4 M126.3 168.9 L120.1 167.8 L117.1 169.4 M126.1 176.7 L136.7 178.5 M124.9 158.7 L126.1 154.2 M261.1 216.5 L260.1 264.3 M196.9 95 L194.3 102.9 M130 200.3 L133.8 189.3 M120.9 171.4 L122.7 169.4 L126.1 169.4 M212.1 88.5 L216.6 93.9 M152.9 112.4 L152.8 119.2 M132.1 189.2 L128.4 200 M108.3 125.2 L97.6 140.9 L51.4 172.7 M49.1 174.8 L97.5 141.6 L108.6 125.2 M216.9 93.2 L212.5 88.3 M128.4 146.7 L127.5 149.3 M288.2 177.7 L257.1 177.2 M207.1 207.7 L212 193.9 M257.1 177.4 L288.8 177.8 M215.1 163.3 L215.2 163.9 M221.1 175.1 L223.9 178.1 M136.4 182.1 L137.8 178.5 M258 142.4 L289.1 142.9 M256.1 142.4 L255.7 153.7 M215.7 153.2 L214.6 153.2 M198.4 184.9 L200.1 179.8 M289.1 142.3 L258.2 141.9 M255.7 153.7 L255.4 163.7 M216.7 163.9 L216.6 163.4 M98.4 189.9 L111 181.6 M199.2 141.5 L203.9 141.5 M182.5 143.2 L189.6 142.5 M206.1 141.5 L210.3 141.6 M184.4 178 L175.5 176.8 M272.9 164.5 L273.3 183.4 M216.6 133.1 L216.7 124.9 M228.9 186.2 L225.7 194.9 M214 188 L206.2 186.4 M175.2 177.5 L184 178.6 M110.6 120.9 L112.3 103.4 L106.4 84.3 M106 84.4 L112 103 L109.9 122 M240.7 133.1 L256.2 133.3 M130.7 121.9 L140.1 123.3 M257.5 163.7 L257.8 153.8 M237.5 133.1 L227.3 133 M226.9 194.6 L229.8 186.4 M190.8 183.3 L182.9 181.7 M258.2 141.9 L258.5 127.6 M199.4 86.2 L196.7 94.5 M207.5 83.8 L212.1 88.5 M134.5 186.2 L136.2 182.5 M193.3 199.4 L177.2 196.2 M177.8 239.5 L167.4 228 M208.9 202.5 L193.3 199.4 M77.3 156 L108.8 170.6 M108.8 170.6 L112.8 172.7 L112.1 175.1 M125.5 176 L116.8 173.8 M258.8 133.3 L289.3 133.7 M198.4 184.9 L196.5 190.3 M238.8 192.2 L226.9 194.6 M278.2 202.5 L287.4 202.6 M238.5 187.7 L229.9 185.8 M303 202.3 L288 202.1 M162.2 145.3 L172.9 144.2 M375.2 190 L353.6 188.9 L331 191.8 L295.2 189.5 M109.8 182 L99.8 188.6 M175.5 176.8 L166 175.6 M240.5 110.1 L217.2 109.8 M212.5 88.3 L208.7 84.5 M214.8 109.8 L192.8 109.1 M202.1 64.5 L206.1 78.2 M257 191.2 L287.8 190.8 M153.6 112.4 L153.7 107.5 M128.9 200.2 L125 211.1 M217 116.3 L233.9 116.6 M220.7 133.1 L227.3 133 M212.1 193.5 L214 188 M212.5 141.6 L214.7 141.7 M288.4 189.9 L260.5 190.6 M273.2 154.1 L258.9 153.9 M203.9 141.5 L206.1 141.5 M226.2 175 L226.2 176.9 M226.6 163.4 L226.5 164 M215.4 133.3 L220.7 133.1 M144.6 157 L145.7 171.4 M258.6 125.3 L257.5 115.6 L249.8 109.2 M171.2 210.5 L169.1 211.6 M220.2 82.5 L216.9 81.5 M177.4 239.7 L192 256 M196.7 141.8 L199.2 141.5 M255.1 86.7 L260.2 86.2 M210.3 141.6 L212 141.6 M255 177.3 L254.8 186.1 M153.6 174.3 L165.2 176.2 M177.8 143.7 L182.5 143.2 M206.1 78.2 L207.5 83.8 M208.9 202.5 L222.3 205.2 M120.8 120.9 L130.7 121.9 M227.1 141.8 L229.8 141.8 M117.1 169.4 L115.1 171.4 M194.7 142 L196.7 141.8 M191.5 142.3 L193.7 142.1 M153.1 102.3 L153 107.5 M194 152.9 L193.5 152.9 M193.5 152.9 L193 152.8 M214.8 141.7 L216.1 141.7 M256.2 133.3 L256.2 141.9 M168.6 168.1 L173.7 169.1 M121.1 120.6 L104.8 119.4 M257.1 185.7 L257.1 177.2 M262 207.8 L239.4 207.6 M153.8 102.3 L153.9 95.4 M225.2 196.4 L222.4 204.5 M238.3 207.6 L222.8 205.3 M161.1 166.7 L167.8 168 M230.8 141.9 L233.4 141.9 M236.1 141.9 L239.8 142 M226 178.5 L225 177.5 M223.9 178.1 L225 177.5 M225 177.5 L226.2 176.9 M113.1 171.9 L109.6 170.4 M247.4 189.7 L239.5 187.9 M229.9 182.9 L229.1 185.6 M238.5 188.5 L246.3 190.4 M206 80.9 L199.4 86.2 M99.8 188.6 L95 192.7 L90.5 201.5 L72.3 212.8 L57.5 218.9 M223.1 204.7 L225.9 197.1 M173.6 144.2 L177.8 143.7 M165.3 175.5 L156.8 174 M61.1 218.2 L90.7 201.7 L98.4 189.9 M165.6 176.3 L171.7 177.1 M257.8 153.8 L257.8 148.5 M156 156.3 L144.6 157 M246.3 190.4 L257 191.2 M196.3 190.8 L194.9 194.9 M395.8 92.9 L370 92.6 L338.2 86 L256.6 86.1 M144.6 157 L143.8 145.7 M233.5 187.3 L238.5 188.5 M254.6 190.6 L256.4 201.6 M200.1 179.8 L200.4 179.1 M282.3 118.5 L258.6 118.4 M229.9 185.8 L230.9 183.5 M257.8 148.5 L257.9 142.9 M273.1 154.5 L272.9 163.9 M260.2 86.2 L339.5 86.4 L370 93 L393.6 93.3 M212 141.6 L212.5 141.6 M229.8 186.4 L233.5 187.3 M321.6 191.6 L333 192.3 L354.6 189.2 L374 190.1 M188.1 171.9 L188.7 172 M189.6 142.5 L190.7 142.4 M223.9 178.1 L224.3 178.6 M188.7 172 L189.2 172.1" fill="none" stroke="#1f3733" stroke-width="2.7" opacity="0.9" stroke-linecap="round" stroke-linejoin="round"/>
</g>
<g data-layer="minor-road-casing">
<path d="M402.3 144.2 L340.6 148.3 M163.4 123.7 L162.3 80.5 M145 30.1 L141.5 20.9 L134.5 15.1 L102 9.8 M139.5 27.2 L135.2 21.5 L116.7 15.3 L104.9 16 L97.7 21.5 M384.4 130.4 L337.3 133.2 M140.2 227.2 L114.3 221.3 L94.2 220.8 M26.6 79.3 L9.7 81.3 L9.2 67.5 L18.5 65.9 M173.5 57.7 L165.2 45.9 L161.3 25.9 M72.3 128.3 L70 120.7 L67.1 120.9 L65.8 118.7 L61.8 119.5 L50.4 105.8 M56.8 271.3 L93.8 262.4 M42.3 82.7 L60.2 106.9 M418.3 62.9 L395.1 55.5 L387.7 54.5 L386.4 56 M31 286 L21.2 288.3 L11.8 294.2 L10.9 296.3 L14.2 303 M364.6 294.2 L358.5 285.1 L357.5 278 L354.6 274.1 L350 272.1 M312.2 45 L299 45.1 L299.6 57.7 L302.6 60.6 M186 175.4 L152.7 169.1 M63.7 37.2 L43.3 49.6 L36.1 50.1 M165.5 262.9 L158.5 264.8 L134.3 259 M65.4 71 L71.5 64.9 L90.6 56.3 M79.2 152.4 L72.3 128.7 M260.8 40.9 L266.9 43.4 L270 41.4 L290.3 43.7 M288.4 171.7 L257.5 171.1 M366.3 237.6 L397 238.3 M42.9 71.9 L32 66.5 L27 54.6 M403.6 243.9 L374.4 244.7 M335.2 45.7 L328.7 45.2 L325.7 47.3 L330 60.6 M51.6 224.5 L74.6 212.8 M66.1 136.4 L93.6 132.8 M69.5 67.1 L81.1 68.3 L95.4 62.9 M66 39.3 L44.2 52 M215 103.7 L214.8 124.3 M98.1 87.3 L72.2 92.6 M9.5 56.8 L15.7 46.3 L20.8 43 L19.4 39.9 M32.9 138.9 L6.7 138.4 M86.6 113 L112 108.6 M62.5 75 L49.7 58.2 M36.1 49 L19.1 50.8 L18.1 57 M36.2 50.8 L12.9 58.3 M267.3 134.9 L266.8 154 M25.7 305.5 L16.7 287.6 M381.6 60.4 L404.7 68 M343.5 63.1 L351.2 67 L357.7 67.2 L358.6 60.6 M306.8 252.1 L306.8 233.5 M113.8 25.7 L117.1 32 L132.2 31.9 M56.6 234.6 L68.5 238.7 L75.9 244.9 M183.8 143.1 L182.6 161.3 M127.8 220.8 L123.1 238.1 M42.8 60.1 L20.9 67 M132.5 77.6 L138.8 73.5 L153.8 74.2 M70.7 80.7 L80 97.1 M29.7 281 L16.5 287.7 L9.3 286.4 M95 140.8 L91.6 123.3 M118.5 252.8 L96.8 258.9 M65 38.3 L46.5 49.1 M108.8 263 L102.3 246.2 M97.3 121.5 L91.1 104.7 M70.3 266.4 L91.2 258.9 M408.2 44.6 L385 43.4 M177 160.2 L179.7 153.3 L180.1 143.5 M36.4 52.3 L47 54 L55.2 60.1 M14.2 303 L20.6 305.8 L35.8 305.3 M64.6 34.5 L78.6 47.8 M112.3 202.7 L117.3 186.4 M297.3 67.2 L315.3 67.8 L319.3 66.4 M223.5 214.5 L216.1 230.1 M86.8 229 L65 230.7 M70.7 80.7 L90.2 73.1 M133.2 186 L111.9 181.7 M17.2 258.9 L19.7 267.5 L24.7 274.3 M274.4 126.3 L273.6 142.6 M62.4 108.1 L82.9 103.8 M163.1 301 L168.1 301.5 L179.2 310.2 M153.1 73 L138.3 72.8 L132.9 70.4 M152.9 112.4 L131.8 112.7 M391.1 52.4 L391.3 36.6 M83.8 106.1 L104 101.9 M49.6 29.7 L46.3 28.1 L38.9 28.5 L31.9 33 M105.3 105.4 L85.1 109.3 M62.3 224.8 L74.1 212.5 M52.8 169.5 L35 161.5 M295.1 89.5 L315.3 89.5 M407.1 272 L405.9 275.4 L410.1 284.7 L409.1 286.6 M110.5 99.2 L90.9 103.9 M120.8 304.4 L135 293.1 M101.4 94.1 L81.8 98.5 M106.1 128.1 L95 140.8 M345.8 203.1 L343.4 197.2 L332.7 193.8 M71.7 61.7 L88.9 53.8 M240.3 274.2 L242.4 259.2 M52.1 99.8 L33.1 104.6 M66.3 141.3 L86.2 139.4 M173.7 112.6 L153.6 112.4 M206.7 21.6 L204 28.5 L206.1 35.9 M405.5 188 L405.7 202.6 M214.6 124.8 L214.1 139.7 M70 120.7 L72.2 118.6 L88 116.6 M399.9 275.3 L410.2 287.2 M35.7 39.8 L21.6 29.7 M32.5 135.7 L13.4 136.5 M176.7 258.2 L177.1 272.7 M222.7 231.5 L219.6 245.8 M20.2 37 L30.5 49.2 M403.8 221.1 L404.2 206.6 M306.8 232.8 L307.6 218.5 M252.2 278.1 L252.5 292.4 M316.7 60.2 L317.1 45.9 M235 259.2 L233.1 245.3 M266.2 288.2 L285 287.9 M253.1 141.8 L253.5 127.8 M332.8 194.2 L342.2 197.2 L344.9 203.1 M263.2 118.4 L263.4 104.4 M103.5 100.6 L98.7 87.2 M38.7 166.6 L35.2 170.3 L35 175.4 L38.4 178.8 M304.3 300.9 L289.7 292.3 M98.1 87.3 L103.5 100.6 M69.6 79 L86.5 73.8 M277 263.5 L275.8 270.1 L271.9 276.5 M43.6 71.1 L60.1 65.4 M188.1 65.7 L173.5 57.7 M257.6 203.6 L239.4 204.1 M374.3 307.1 L378.4 305.8 L383.7 309.7 L387.7 308.6 M63.9 279.9 L68.9 286.7 L75.6 289.6 M308.9 143.7 L298.5 154.7 M197.4 163.5 L192.9 176.5 M59.2 148.9 L50.5 137.3 M327 178.1 L326.4 191.5 M167.9 144.8 L164.2 157.8 M210.9 27.6 L193.8 24.2 M151.2 193.3 L133.3 192.9 M141.3 182.3 L136.7 195.2 M330.5 233.8 L328.9 247 M200.5 116.1 L202.2 103.1 M365.4 54.4 L360.4 47.5 L353.8 45.9 M276.4 61.9 L275.3 51.9 L271.2 51.4 M54.9 134.1 L66.1 144.1 M298.5 154.7 L309 144.1 M234.8 276.7 L233.1 289.7 M311.6 195.3 L329 195.6 M360.9 125 L362.4 138 M292 164.9 L291.6 177.8 M298.8 63.9 L300.6 65.3 L315.3 65.4 M142.7 253 L137.4 265.1 M31.9 33 L25.9 37.5 L28.7 39.5 L25.2 41.9 M374.4 253.9 L364.1 243.7 M99.4 274.9 L99.8 262.3 M374.7 73.2 L388.6 71.1 L387.6 69.3 M347.3 253.6 L341 265.3 M402 256.1 L410.4 266.7 M399.6 191.7 L399.1 204.3 M129.1 54.2 L132.6 59.3 L141.3 60.4 M238.6 286.7 L240.3 274.2 M175.3 201.4 L191.5 204.6 M368.5 60.2 L368 72.7 M403.3 238.4 L403.8 250.9 M95.9 201.7 L94.7 214.1 M250.3 96.4 L252.2 100.5 L262.4 100.3 M99.8 110.7 L109.8 118 L110 119.9 M345.3 280.9 L347.2 293.3 M83.9 273.9 L94.1 270.1 L98.8 271.1 M293.5 232.6 L293.8 220.2 M121 259.8 L110.4 250.3 M169.9 269.5 L186.4 270.1 M312 155.4 L328.5 155.7 M118.6 198.2 L119.9 210.5 M328.4 157.5 L312 157.2 M370.5 246.9 L362.1 251.6 L356.2 251.6 M372.8 191.4 L372.4 203.7 M352.5 256.1 L365.5 256.4 L367.5 258.3 M9.4 33.2 L13.1 29.1 L10.6 22.3 M210.5 198.1 L194.9 194.9 M154.1 86.5 L169.8 84.8 M307.9 279.7 L300.5 269.2 M308.2 280.5 L319.9 288.7 M280.5 42.3 L274.2 43.8 L274.3 46 L270.4 48.5 M276.7 202.5 L276.5 214.3 M347.4 145.3 L363.1 144.3 M347.2 142.8 L362.9 141.9 M222.6 7 L223.7 11.9 L222.3 14.1 L216.6 15.1 M174.6 57 L188.6 62.2 M18.3 128.6 L18.7 116.9" fill="none" stroke="#fbf7eb" stroke-width="3.4" opacity="0.62" stroke-linecap="round" stroke-linejoin="round"/>
</g>
<g data-layer="minor-road">
<path d="M402.3 144.2 L340.6 148.3 M163.4 123.7 L162.3 80.5 M145 30.1 L141.5 20.9 L134.5 15.1 L102 9.8 M139.5 27.2 L135.2 21.5 L116.7 15.3 L104.9 16 L97.7 21.5 M384.4 130.4 L337.3 133.2 M140.2 227.2 L114.3 221.3 L94.2 220.8 M26.6 79.3 L9.7 81.3 L9.2 67.5 L18.5 65.9 M173.5 57.7 L165.2 45.9 L161.3 25.9 M72.3 128.3 L70 120.7 L67.1 120.9 L65.8 118.7 L61.8 119.5 L50.4 105.8 M56.8 271.3 L93.8 262.4 M42.3 82.7 L60.2 106.9 M418.3 62.9 L395.1 55.5 L387.7 54.5 L386.4 56 M31 286 L21.2 288.3 L11.8 294.2 L10.9 296.3 L14.2 303 M364.6 294.2 L358.5 285.1 L357.5 278 L354.6 274.1 L350 272.1 M312.2 45 L299 45.1 L299.6 57.7 L302.6 60.6 M186 175.4 L152.7 169.1 M63.7 37.2 L43.3 49.6 L36.1 50.1 M165.5 262.9 L158.5 264.8 L134.3 259 M65.4 71 L71.5 64.9 L90.6 56.3 M79.2 152.4 L72.3 128.7 M260.8 40.9 L266.9 43.4 L270 41.4 L290.3 43.7 M288.4 171.7 L257.5 171.1 M366.3 237.6 L397 238.3 M42.9 71.9 L32 66.5 L27 54.6 M403.6 243.9 L374.4 244.7 M335.2 45.7 L328.7 45.2 L325.7 47.3 L330 60.6 M51.6 224.5 L74.6 212.8 M66.1 136.4 L93.6 132.8 M69.5 67.1 L81.1 68.3 L95.4 62.9 M66 39.3 L44.2 52 M215 103.7 L214.8 124.3 M98.1 87.3 L72.2 92.6 M9.5 56.8 L15.7 46.3 L20.8 43 L19.4 39.9 M32.9 138.9 L6.7 138.4 M86.6 113 L112 108.6 M62.5 75 L49.7 58.2 M36.1 49 L19.1 50.8 L18.1 57 M36.2 50.8 L12.9 58.3 M267.3 134.9 L266.8 154 M25.7 305.5 L16.7 287.6 M381.6 60.4 L404.7 68 M343.5 63.1 L351.2 67 L357.7 67.2 L358.6 60.6 M306.8 252.1 L306.8 233.5 M113.8 25.7 L117.1 32 L132.2 31.9 M56.6 234.6 L68.5 238.7 L75.9 244.9 M183.8 143.1 L182.6 161.3 M127.8 220.8 L123.1 238.1 M42.8 60.1 L20.9 67 M132.5 77.6 L138.8 73.5 L153.8 74.2 M70.7 80.7 L80 97.1 M29.7 281 L16.5 287.7 L9.3 286.4 M95 140.8 L91.6 123.3 M118.5 252.8 L96.8 258.9 M65 38.3 L46.5 49.1 M108.8 263 L102.3 246.2 M97.3 121.5 L91.1 104.7 M70.3 266.4 L91.2 258.9 M408.2 44.6 L385 43.4 M177 160.2 L179.7 153.3 L180.1 143.5 M36.4 52.3 L47 54 L55.2 60.1 M14.2 303 L20.6 305.8 L35.8 305.3 M64.6 34.5 L78.6 47.8 M112.3 202.7 L117.3 186.4 M297.3 67.2 L315.3 67.8 L319.3 66.4 M223.5 214.5 L216.1 230.1 M86.8 229 L65 230.7 M70.7 80.7 L90.2 73.1 M133.2 186 L111.9 181.7 M17.2 258.9 L19.7 267.5 L24.7 274.3 M274.4 126.3 L273.6 142.6 M62.4 108.1 L82.9 103.8 M163.1 301 L168.1 301.5 L179.2 310.2 M153.1 73 L138.3 72.8 L132.9 70.4 M152.9 112.4 L131.8 112.7 M391.1 52.4 L391.3 36.6 M83.8 106.1 L104 101.9 M49.6 29.7 L46.3 28.1 L38.9 28.5 L31.9 33 M105.3 105.4 L85.1 109.3 M62.3 224.8 L74.1 212.5 M52.8 169.5 L35 161.5 M295.1 89.5 L315.3 89.5 M407.1 272 L405.9 275.4 L410.1 284.7 L409.1 286.6 M110.5 99.2 L90.9 103.9 M120.8 304.4 L135 293.1 M101.4 94.1 L81.8 98.5 M106.1 128.1 L95 140.8 M345.8 203.1 L343.4 197.2 L332.7 193.8 M71.7 61.7 L88.9 53.8 M240.3 274.2 L242.4 259.2 M52.1 99.8 L33.1 104.6 M66.3 141.3 L86.2 139.4 M173.7 112.6 L153.6 112.4 M206.7 21.6 L204 28.5 L206.1 35.9 M405.5 188 L405.7 202.6 M214.6 124.8 L214.1 139.7 M70 120.7 L72.2 118.6 L88 116.6 M399.9 275.3 L410.2 287.2 M35.7 39.8 L21.6 29.7 M32.5 135.7 L13.4 136.5 M176.7 258.2 L177.1 272.7 M222.7 231.5 L219.6 245.8 M20.2 37 L30.5 49.2 M403.8 221.1 L404.2 206.6 M306.8 232.8 L307.6 218.5 M252.2 278.1 L252.5 292.4 M316.7 60.2 L317.1 45.9 M235 259.2 L233.1 245.3 M266.2 288.2 L285 287.9 M253.1 141.8 L253.5 127.8 M332.8 194.2 L342.2 197.2 L344.9 203.1 M263.2 118.4 L263.4 104.4 M103.5 100.6 L98.7 87.2 M38.7 166.6 L35.2 170.3 L35 175.4 L38.4 178.8 M304.3 300.9 L289.7 292.3 M98.1 87.3 L103.5 100.6 M69.6 79 L86.5 73.8 M277 263.5 L275.8 270.1 L271.9 276.5 M43.6 71.1 L60.1 65.4 M188.1 65.7 L173.5 57.7 M257.6 203.6 L239.4 204.1 M374.3 307.1 L378.4 305.8 L383.7 309.7 L387.7 308.6 M63.9 279.9 L68.9 286.7 L75.6 289.6 M308.9 143.7 L298.5 154.7 M197.4 163.5 L192.9 176.5 M59.2 148.9 L50.5 137.3 M327 178.1 L326.4 191.5 M167.9 144.8 L164.2 157.8 M210.9 27.6 L193.8 24.2 M151.2 193.3 L133.3 192.9 M141.3 182.3 L136.7 195.2 M330.5 233.8 L328.9 247 M200.5 116.1 L202.2 103.1 M365.4 54.4 L360.4 47.5 L353.8 45.9 M276.4 61.9 L275.3 51.9 L271.2 51.4 M54.9 134.1 L66.1 144.1 M298.5 154.7 L309 144.1 M234.8 276.7 L233.1 289.7 M311.6 195.3 L329 195.6 M360.9 125 L362.4 138 M292 164.9 L291.6 177.8 M298.8 63.9 L300.6 65.3 L315.3 65.4 M142.7 253 L137.4 265.1 M31.9 33 L25.9 37.5 L28.7 39.5 L25.2 41.9 M374.4 253.9 L364.1 243.7 M99.4 274.9 L99.8 262.3 M374.7 73.2 L388.6 71.1 L387.6 69.3 M347.3 253.6 L341 265.3 M402 256.1 L410.4 266.7 M399.6 191.7 L399.1 204.3 M129.1 54.2 L132.6 59.3 L141.3 60.4 M238.6 286.7 L240.3 274.2 M175.3 201.4 L191.5 204.6 M368.5 60.2 L368 72.7 M403.3 238.4 L403.8 250.9 M95.9 201.7 L94.7 214.1 M250.3 96.4 L252.2 100.5 L262.4 100.3 M99.8 110.7 L109.8 118 L110 119.9 M345.3 280.9 L347.2 293.3 M83.9 273.9 L94.1 270.1 L98.8 271.1 M293.5 232.6 L293.8 220.2 M121 259.8 L110.4 250.3 M169.9 269.5 L186.4 270.1 M312 155.4 L328.5 155.7 M118.6 198.2 L119.9 210.5 M328.4 157.5 L312 157.2 M370.5 246.9 L362.1 251.6 L356.2 251.6 M372.8 191.4 L372.4 203.7 M352.5 256.1 L365.5 256.4 L367.5 258.3 M9.4 33.2 L13.1 29.1 L10.6 22.3 M210.5 198.1 L194.9 194.9 M154.1 86.5 L169.8 84.8 M307.9 279.7 L300.5 269.2 M308.2 280.5 L319.9 288.7 M280.5 42.3 L274.2 43.8 L274.3 46 L270.4 48.5 M276.7 202.5 L276.5 214.3 M347.4 145.3 L363.1 144.3 M347.2 142.8 L362.9 141.9 M222.6 7 L223.7 11.9 L222.3 14.1 L216.6 15.1 M174.6 57 L188.6 62.2 M18.3 128.6 L18.7 116.9" fill="none" stroke="#69776e" stroke-width="1.25" opacity="0.58" stroke-linecap="round" stroke-linejoin="round"/>
</g>
</g>
<g data-layer="north-up-compass" fill="none" stroke="#233934" stroke-linecap="round" stroke-linejoin="round" opacity="0.62">
<path d="M382 48L382 23" stroke-width="1.8"/>
<path d="M382 23L373 39M382 23L391 39" stroke-width="1.8"/>
<circle cx="382" cy="48" r="13" stroke-width="1.1" opacity="0.38"/>
</g>
<rect x="8" y="8" width="404" height="304" rx="16" fill="none" stroke="#233934" stroke-width="1.4" opacity="0.44"/>
</svg>
