<svg xmlns="http://www.w3.org/2000/svg" viewBox="0 0 420 320" role="img" aria-label="Unlabeled north-up street-grid crop" data-orientation="north-up">
<metadata>{"orientation":"north-up","projection":"local-web-mercator"}</metadata>
<defs>
<clipPath id="mapCrop"><rect x="8" y="8" width="404" height="304" rx="16"/></clipPath>
</defs>
<rect width="420" height="320" fill="#ede7d8"/>
<rect x="8" y="8" width="404" height="304" rx="16" fill="#f7f1e3" stroke="#d8cbb2" stroke-width="1.25"/>
<g clip-path="url(#mapCrop)">
<g data-layer="water-casing">
<path d="M154.4 148.9 L155 151 L165.8 142.5 L184 135.5 L204.4 137.9 L222.3 147.7 L225.1 155.9 L216.5 162.1 L188.7 173 L197.7 184.2 L224.7 182.8 L228.6 187.4 L206.6 187.7 L194.5 186 L191.7 183.9 L185.7 171 L198.1 164.8 L220.2 157.4 L223.9 154.2 L215.7 146.9 L205.7 141.6 L195.4 138 L194.5 145.5 L191.1 137.4 L166.1 145.3 L157.3 153.3 L151.9 152.5 L147.9 146.4 L137 137.6 L140.5 136.7 L145.2 139 L154.4 148.9 Z" fill="#d9f2fb" stroke="#d9f2fb" stroke-width="2.4" opacity="0.9" stroke-linecap="round" stroke-linejoin="round"/>
<path d="M237.9 188.8 L253.6 190.9 L247.4 199 L223.5 210.1 L195.7 210.4 L149 197.3 L128.9 197.1 L105.1 206.6 L115.1 184 L123.9 187.7 L150.8 186.9 L205.8 198.9 L216 196.3 L228.6 187.5 L237.9 188.8 Z" fill="#d9f2fb" stroke="#d9f2fb" stroke-width="2.4" opacity="0.9" stroke-linecap="round" stroke-linejoin="round"/>
<path d="M411.8 174.4 L397.8 179.2 L385.4 186.3 L375.9 193.3 L362.4 208.2 L353.6 212.5 L304.5 220 L303.9 228.5 L311.7 231.9 L352.7 235.8 L371.9 232.1 L380.8 228.5 L393.7 221.3 L420 177.1" fill="none" stroke="#d9f2fb" stroke-width="6.8" opacity="0.9" stroke-linecap="round" stroke-linejoin="round"/>
<path d="M375.9 193.3 L364.9 196.3 L354.9 189.1 L346.1 177.5 L349.6 159.3 L368.4 127.2 L368.8 124.4 L355.4 124.4 L357.1 128.7 L356.1 132.1 L344.6 140.7 L337 155.5 L331.9 156.2 L322.8 161.1 L319.8 164.9 L327.2 168.4 L348.1 193.8 L364.3 205.8 L375.9 193.3 Z" fill="#d9f2fb" stroke="#d9f2fb" stroke-width="2.4" opacity="0.9" stroke-linecap="round" stroke-linejoin="round"/>
<path d="M273.5 177 L303.4 192.7 L323.9 210 L338.9 215.3 L304.5 220 L306 219 L305.3 211.5 L296.7 201.5 L287.9 195.8 L270.8 188.9 L262.7 188.2 L253.6 190.9 L248.6 175.8 L260.6 174.9 L273.5 177 Z" fill="#d9f2fb" stroke="#d9f2fb" stroke-width="2.4" opacity="0.9" stroke-linecap="round" stroke-linejoin="round"/>
<path d="M413.8 71.1 L408.3 68.7 L400.2 69.6 L387.1 79.9 L369.2 83.6 L362.7 79.8 L357.6 71.5 L359 65 L366.7 56.4 L368.6 57.1 L365.9 61.6 L365.7 75.3 L370 79.2 L396.3 66.8 L412.7 65.6" fill="none" stroke="#d9f2fb" stroke-width="6.8" opacity="0.9" stroke-linecap="round" stroke-linejoin="round"/>
<path d="M319.3 100.5 L322.1 91 L327 92.1 L356.6 109.1 L368.8 124.4 L355.4 124.4 L342.5 110.6 L319.3 100.5 Z" fill="#d9f2fb" stroke="#d9f2fb" stroke-width="2.4" opacity="0.9" stroke-linecap="round" stroke-linejoin="round"/>
<path d="M144.9 149.3 L134.4 158.9 L115.1 184 L112.5 183.3 L134.2 156.3 L141.7 149.7 L147.8 146.8 L147.9 148.3 L144.9 149.3 Z" fill="#d9f2fb" stroke="#d9f2fb" stroke-width="2.4" opacity="0.9" stroke-linecap="round" stroke-linejoin="round"/>
<path d="M270.8 188.9 L265 188.3 L272.2 199.3 L283.1 209.8 L296.1 221.3 L304.5 220 L280.4 201.9 L273.7 195 L270.8 188.9 Z" fill="#d9f2fb" stroke="#d9f2fb" stroke-width="2.4" opacity="0.9" stroke-linecap="round" stroke-linejoin="round"/>
<path d="M139.6 182.6 L155.8 178.6 L139.4 183.4 L139.1 186.1 L138.1 179.9 L145.2 177.4 L141.6 170.8 L159 167.1 L142.4 171 L145.7 177.7 L138.7 180 L139.6 182.6 Z" fill="#d9f2fb" stroke="#d9f2fb" stroke-width="2.4" opacity="0.9" stroke-linecap="round" stroke-linejoin="round"/>
<path d="M201 121.5 L174 112.5 L173.8 110.1 L172.8 113 L205.9 123.4 L219.9 131.6 L210.5 124.8 L201 121.5 Z" fill="#d9f2fb" stroke="#d9f2fb" stroke-width="2.4" opacity="0.9" stroke-linecap="round" stroke-linejoin="round"/>
<path d="M270.8 188.9 L275.2 196.8 L292.4 212.4 L302.3 219.4 L306 219 L305.3 211.5 L296.7 201.5 L283.1 193.2 L270.8 188.9 Z" fill="#d9f2fb" stroke="#d9f2fb" stroke-width="2.4" opacity="0.9" stroke-linecap="round" stroke-linejoin="round"/>
<path d="M414.7 109.4 L378.3 123.6 L368.8 124.4 L367.2 122.4 L380.4 121.6 L389.2 116.1 L411.3 109.2" fill="none" stroke="#d9f2fb" stroke-width="6.8" opacity="0.9" stroke-linecap="round" stroke-linejoin="round"/>
<path d="M186.5 176.4 L164.8 179.5 L165.7 185.7 L181.6 191.4 L165.2 185.9 L163.6 179.5 L186.5 176.4 Z" fill="#d9f2fb" stroke="#d9f2fb" stroke-width="2.4" opacity="0.9" stroke-linecap="round" stroke-linejoin="round"/>
<path d="M249.6 88.6 L260.8 84.2 L266.5 84 L271.9 91.5 L266.4 98.6 L277.4 97.5 L273.2 96.2 L273.1 88.6 L267.2 82.7 L254.3 84 L249.6 88.6 Z" fill="#d9f2fb" stroke="#d9f2fb" stroke-width="2.4" opacity="0.9" stroke-linecap="round" stroke-linejoin="round"/>
<path d="M288.1 168 L289.3 166.3 L292.1 166.7 L297 157.7 L320.5 162.8 L319.8 164.9 L309.7 163.1 L309.1 165 L303.5 165.9 L300.3 172.6 L289.3 171.5 L287.4 170.5 L288.1 168 Z" fill="#d9f2fb" stroke="#d9f2fb" stroke-width="2.4" opacity="0.9" stroke-linecap="round" stroke-linejoin="round"/>
<path d="M100.5 177.4 L120.3 152.5 L127.1 155.5 L107.7 181.2 L100.5 177.4 Z" fill="#d9f2fb" stroke="#d9f2fb" stroke-width="2.4" opacity="0.9" stroke-linecap="round" stroke-linejoin="round"/>
<path d="M364.1 242.9 L374.6 240.8 L383.8 235.9 L391.2 222.4 L393.7 221.3 L386.2 235.8 L371 243.2 L362.7 244.4 L364.1 242.9 Z" fill="#d9f2fb" stroke="#d9f2fb" stroke-width="2.4" opacity="0.9" stroke-linecap="round" stroke-linejoin="round"/>
<path d="M157.3 153.3 L159 162.6 L163.2 165.6 L186.5 170.2 L181.4 170.7 L158.2 164.2 L156 155 L157.3 153.3 Z" fill="#d9f2fb" stroke="#d9f2fb" stroke-width="2.4" opacity="0.9" stroke-linecap="round" stroke-linejoin="round"/>
<path d="M381.5 237.3 L387 232.1 L391.2 222.4 L374.3 231.4 L359.1 235.2 L364.1 242.9 L370.1 242.3 L381.5 237.3 Z" fill="#d9f2fb" stroke="#d9f2fb" stroke-width="2.4" opacity="0.9" stroke-linecap="round" stroke-linejoin="round"/>
<path d="M278.1 70.4 L283.1 69.5 L293.5 78 L293.9 76 L285.2 68.1 L272.8 66.8 L264.2 61.6 L260.2 67.6 L272.7 71.3 L278.1 70.4 Z" fill="#d9f2fb" stroke="#d9f2fb" stroke-width="2.4" opacity="0.9" stroke-linecap="round" stroke-linejoin="round"/>
<path d="M151.1 116.5 L180.5 130.5 L184 135.5 L182.6 136.1 L177.4 129.7 L161.1 123.6 L151.1 116.5 Z" fill="#d9f2fb" stroke="#d9f2fb" stroke-width="2.4" opacity="0.9" stroke-linecap="round" stroke-linejoin="round"/>
<path d="M365.4 255.9 L364.4 266.6 L364.4 265.3 L347.8 263.3 L364.5 264.9 L365.1 256.4 L353.6 253.6 L365.4 255.9 Z" fill="#d9f2fb" stroke="#d9f2fb" stroke-width="2.4" opacity="0.9" stroke-linecap="round" stroke-linejoin="round"/>
<path d="M282 112.7 L266.4 98.6 L283.2 96.8 L291.3 93.2 L283.1 113.4 L282 112.7 Z" fill="#d9f2fb" stroke="#d9f2fb" stroke-width="2.4" opacity="0.9" stroke-linecap="round" stroke-linejoin="round"/>
<path d="M165.7 183.2 L187.1 178.7 L179.2 180.4 L180.5 182.3 L187.3 181.6 L176.5 181.3 L177.2 185 L175.4 188.2 L176.3 181.5 L165.7 183.2 Z" fill="#d9f2fb" stroke="#d9f2fb" stroke-width="2.4" opacity="0.9" stroke-linecap="round" stroke-linejoin="round"/>
<path d="M262.7 107.7 L268.4 105.4 L267.1 108 L246 129.3 L242.6 128.1 L262.7 107.7 Z" fill="#d9f2fb" stroke="#d9f2fb" stroke-width="2.4" opacity="0.9" stroke-linecap="round" stroke-linejoin="round"/>
<path d="M348.9 175.3 L360.9 167.2 L364.4 163.3 L364.8 157.5 L371.9 153.7 L360.4 153.3 L352.5 164.8 L348.9 175.3 Z" fill="#d9f2fb" stroke="#d9f2fb" stroke-width="2.4" opacity="0.9" stroke-linecap="round" stroke-linejoin="round"/>
<path d="M207.6 176 L204.4 171.9 L206.2 170.7 L202.5 166.6 L205.9 170.8 L204.2 171.8 L198.1 168 L199.6 170.8 L202.7 170.2 L206.4 174.5 L201.1 184.7 L205.3 175.6 L207.6 176 Z" fill="#d9f2fb" stroke="#d9f2fb" stroke-width="2.4" opacity="0.9" stroke-linecap="round" stroke-linejoin="round"/>
<path d="M359.1 235.2 L364.1 242.9 L351 249.3 L347.4 235.8 L350.5 235.8 L352.5 243.7 L355.6 244 L357.3 241.9 L355.4 235.6 L359.1 235.2 Z" fill="#d9f2fb" stroke="#d9f2fb" stroke-width="2.4" opacity="0.9" stroke-linecap="round" stroke-linejoin="round"/>
<path d="M309.3 77.6 L314.5 71.5 L314.6 67.2 L306.4 63.6 L300.7 55.7 L304.7 63.4 L314.1 67.8 L313 71.7 L307.7 76.5 L309.3 77.6 Z" fill="#d9f2fb" stroke="#d9f2fb" stroke-width="2.4" opacity="0.9" stroke-linecap="round" stroke-linejoin="round"/>
<path d="M228.6 187.5 L253.6 190.9 L248.6 175.8 L227.6 181.8 L228.6 187.5 Z" fill="#d9f2fb" stroke="#d9f2fb" stroke-width="2.4" opacity="0.9" stroke-linecap="round" stroke-linejoin="round"/>
<path d="M347.1 289 L337.5 286.4 L336.7 288.1 L352.6 290.2 L347.8 298.5 L348.5 303.3 L348.4 298.2 L354.9 290.5 L347.1 289 Z" fill="#d9f2fb" stroke="#d9f2fb" stroke-width="2.4" opacity="0.9" stroke-linecap="round" stroke-linejoin="round"/>
<path d="M408.6 124.2 L403.4 125.9 L394 133.9 L396.6 132.4 L399 134.2 L396.8 132.3 L398.4 131.2 L400.9 132.9 L398.6 131 L402.4 131.7 L400.2 129.9 L402.1 128.7 L403.9 130 L402.3 128.5 L404.3 127.2 L405.9 128.4 L404.4 127 L407.8 126.8 L406.6 125.6 L408.6 124.2 Z" fill="#d9f2fb" stroke="#d9f2fb" stroke-width="2.4" opacity="0.9" stroke-linecap="round" stroke-linejoin="round"/>
<path d="M193.5 148.6 L203.9 140.8 L194.8 149.2 L196.3 150.2 L205.8 141.7 L196.4 150.3 L198.9 152.3 L193.5 148.6 Z" fill="#d9f2fb" stroke="#d9f2fb" stroke-width="2.4" opacity="0.9" stroke-linecap="round" stroke-linejoin="round"/>
<path d="M278.3 204.5 L277 203.4 L267.5 208.6 L248.5 212.4 L247.6 214.5 L263.7 211.1 L278.3 204.5 Z" fill="#d9f2fb" stroke="#d9f2fb" stroke-width="2.4" opacity="0.9" stroke-linecap="round" stroke-linejoin="round"/>
<path d="M319.2 206.4 L322.1 190.1 L321 183.8 L319.3 184.3 L321.1 190.6 L319 202.3 L315.1 203.5 L319.2 206.4 Z" fill="#d9f2fb" stroke="#d9f2fb" stroke-width="2.4" opacity="0.9" stroke-linecap="round" stroke-linejoin="round"/>
<path d="M156.5 135 L145.2 127 L144.8 128.3 L156.4 135.7 L164.2 124.8 L156.5 135 Z" fill="#d9f2fb" stroke="#d9f2fb" stroke-width="2.4" opacity="0.9" stroke-linecap="round" stroke-linejoin="round"/>
<path d="M170.6 167.1 L170.8 164.9 L167.9 162.8 L158.2 160.3 L161.7 160.2 L163.7 156 L160.9 151 L164.1 156.2 L162.3 160.4 L171.2 164.4 L170.6 167.1 Z" fill="#d9f2fb" stroke="#d9f2fb" stroke-width="2.4" opacity="0.9" stroke-linecap="round" stroke-linejoin="round"/>
<path d="M235.7 142.9 L239.1 131.3 L233.2 145.5 L222.3 147.7 L233 146.1 L235.7 142.9 Z" fill="#d9f2fb" stroke="#d9f2fb" stroke-width="2.4" opacity="0.9" stroke-linecap="round" stroke-linejoin="round"/>
<path d="M164.2 112.6 L163 119.1 L177.6 123.5 L183.3 123.2 L163.3 118.9 L165.9 112 L164.2 112.6 Z" fill="#d9f2fb" stroke="#d9f2fb" stroke-width="2.4" opacity="0.9" stroke-linecap="round" stroke-linejoin="round"/>
<path d="M280 96.9 L293.5 83.4 L294 77.9 L294 83.4 L280 96.9 Z" fill="#d9f2fb" stroke="#d9f2fb" stroke-width="2.4" opacity="0.9" stroke-linecap="round" stroke-linejoin="round"/>
<path d="M171.8 142 L183.1 152.5 L181 154.3 L172.7 152.1 L180.5 154.1 L182.6 152.4 L171.8 142 Z" fill="#d9f2fb" stroke="#d9f2fb" stroke-width="2.4" opacity="0.9" stroke-linecap="round" stroke-linejoin="round"/>
<path d="M385.9 145.6 L389.1 143 L387.9 140.7 L389.6 142.4 L392.2 141 L389.9 142.8 L391.1 144.1 L397.7 140.2 L392.6 143.9 L394 145.1 L397.3 142.9 L393.8 145.4 L389.2 143.3 L385.9 145.6 Z" fill="#d9f2fb" stroke="#d9f2fb" stroke-width="2.4" opacity="0.9" stroke-linecap="round" stroke-linejoin="round"/>
<path d="M306.9 180.4 L305.3 166.9 L315.8 170.4 L305.6 167.6 L306.9 180.4 Z" fill="#d9f2fb" stroke="#d9f2fb" stroke-width="2.4" opacity="0.9" stroke-linecap="round" stroke-linejoin="round"/>
<path d="M249.2 195.7 L244.9 213.8 L247.6 214.5 L252.5 202.9 L249.2 195.7 Z" fill="#d9f2fb" stroke="#d9f2fb" stroke-width="2.4" opacity="0.9" stroke-linecap="round" stroke-linejoin="round"/>
<path d="M272.7 71.3 L274.8 79.1 L267.2 82.7 L268.3 84.2 L276.1 81 L278.5 78 L276.9 73.8 L278.1 70.4 L272.7 71.3 Z" fill="#d9f2fb" stroke="#d9f2fb" stroke-width="2.4" opacity="0.9" stroke-linecap="round" stroke-linejoin="round"/>
<path d="M201.9 149.1 L206.9 142.4 L199.7 151.6 L192.1 156.5 L195.7 154.1 L198 155.5 L196 153.9 L201.9 149.1 Z" fill="#d9f2fb" stroke="#d9f2fb" stroke-width="2.4" opacity="0.9" stroke-linecap="round" stroke-linejoin="round"/>
<path d="M383.5 136.1 L385.4 138.4 L388.1 136.6 L386.1 134.3 L388.3 136.5 L390.2 135.3 L389.2 137.7 L385.7 138.6 L387.2 140.2 L393.6 137.5 L387 140.6 L383.5 136.1 Z" fill="#d9f2fb" stroke="#d9f2fb" stroke-width="2.4" opacity="0.9" stroke-linecap="round" stroke-linejoin="round"/>
<path d="M337.8 204.8 L340.6 215.4 L338.9 215.3 L335.5 197.5 L337.8 204.8 Z" fill="#d9f2fb" stroke="#d9f2fb" stroke-width="2.4" opacity="0.9" stroke-linecap="round" stroke-linejoin="round"/>
<path d="M288.3 179.8 L284.6 183.4 L285.1 180.8 L295.1 177.1 L306.2 177.9 L295.2 177.6 L288.3 179.8 Z" fill="#d9f2fb" stroke="#d9f2fb" stroke-width="2.4" opacity="0.9" stroke-linecap="round" stroke-linejoin="round"/>
<path d="M190.9 155.8 L186.5 148.7 L188.5 137.6 L186.1 149.2 L190.9 155.8 Z" fill="#d9f2fb" stroke="#d9f2fb" stroke-width="2.4" opacity="0.9" stroke-linecap="round" stroke-linejoin="round"/>
<path d="M264.3 170.8 L266 167.1 L264.7 157 L265.4 166.8 L262.6 175.1 L264.3 170.8 Z" fill="#d9f2fb" stroke="#d9f2fb" stroke-width="2.4" opacity="0.9" stroke-linecap="round" stroke-linejoin="round"/>
<path d="M348.4 306.1 L348.2 303.2 L347.3 304.5 L343.1 303.3 L331.9 297.6 L331.2 299 L348.4 306.1 Z" fill="#d9f2fb" stroke="#d9f2fb" stroke-width="2.4" opacity="0.9" stroke-linecap="round" stroke-linejoin="round"/>
<path d="M364 266.6 L358.1 271.3 L345.4 268.8 L357.8 271.7 L357.9 273.5 L364 266.6 Z" fill="#d9f2fb" stroke="#d9f2fb" stroke-width="2.4" opacity="0.9" stroke-linecap="round" stroke-linejoin="round"/>
<path d="M152.8 197.9 L146.9 210.6 L142.5 210.1 L146.5 205.4 L149 197.3 L152.8 197.9 Z" fill="#d9f2fb" stroke="#d9f2fb" stroke-width="2.4" opacity="0.9" stroke-linecap="round" stroke-linejoin="round"/>
<path d="M259 166.2 L258.9 156.5 L259 166.2 Z" fill="#d9f2fb" stroke="#d9f2fb" stroke-width="2.4" opacity="0.9" stroke-linecap="round" stroke-linejoin="round"/>
<path d="M353.7 289.2 L360.9 281.5 L357.9 273.5 L361.3 281.5 L353.7 289.2 Z" fill="#d9f2fb" stroke="#d9f2fb" stroke-width="2.4" opacity="0.9" stroke-linecap="round" stroke-linejoin="round"/>
<path d="M245.3 141 L239.9 149 L239.7 152.8 L245.3 141 Z" fill="#d9f2fb" stroke="#d9f2fb" stroke-width="2.4" opacity="0.9" stroke-linecap="round" stroke-linejoin="round"/>
<path d="M156.1 178.7 L169.4 172.5 L171.5 167.7 L169 172.4 L156.1 178.7 Z" fill="#d9f2fb" stroke="#d9f2fb" stroke-width="2.4" opacity="0.9" stroke-linecap="round" stroke-linejoin="round"/>
<path d="M247.7 143.6 L243.1 153.6 L251.8 139.1 L247.7 143.6 Z" fill="#d9f2fb" stroke="#d9f2fb" stroke-width="2.4" opacity="0.9" stroke-linecap="round" stroke-linejoin="round"/>
<path d="M208.1 120.1 L198.3 117.6 L216.9 124.8 L208.1 120.1 Z" fill="#d9f2fb" stroke="#d9f2fb" stroke-width="2.4" opacity="0.9" stroke-linecap="round" stroke-linejoin="round"/>
<path d="M127.8 206.7 L143.2 209.4 L124.2 204.7 L123.4 206.3 L127.8 206.7 Z" fill="#d9f2fb" stroke="#d9f2fb" stroke-width="2.4" opacity="0.9" stroke-linecap="round" stroke-linejoin="round"/>
<path d="M184.1 120.6 L164.4 115.4 L184.1 120.6 Z" fill="#d9f2fb" stroke="#d9f2fb" stroke-width="2.4" opacity="0.9" stroke-linecap="round" stroke-linejoin="round"/>
<path d="M301.7 190.6 L320.3 186.2 L301.7 190.6 Z" fill="#d9f2fb" stroke="#d9f2fb" stroke-width="2.4" opacity="0.9" stroke-linecap="round" stroke-linejoin="round"/>
<path d="M269 197.3 L275.7 202.8 L271.7 206.7 L265.1 208.8 L269 197.3 Z" fill="#d9f2fb" stroke="#d9f2fb" stroke-width="2.4" opacity="0.9" stroke-linecap="round" stroke-linejoin="round"/>
<path d="M151.5 212.7 L159.9 199.7 L152.8 213.3 L151.5 212.7 Z" fill="#d9f2fb" stroke="#d9f2fb" stroke-width="2.4" opacity="0.9" stroke-linecap="round" stroke-linejoin="round"/>
<path d="M197.7 197.5 L201.9 190.3 L207.9 190.3 L207.9 187.6 L207.6 190.2 L201.8 189.9 L197.7 197.5 Z" fill="#d9f2fb" stroke="#d9f2fb" stroke-width="2.4" opacity="0.9" stroke-linecap="round" stroke-linejoin="round"/>
<path d="M165.7 218.5 L171.6 204.2 L165.7 218.5 Z" fill="#d9f2fb" stroke="#d9f2fb" stroke-width="2.4" opacity="0.9" stroke-linecap="round" stroke-linejoin="round"/>
<path d="M123.4 206.3 L120.9 211.2 L116 210.6 L121.3 200.4 L125.8 201.4 L123.4 206.3 Z" fill="#d9f2fb" stroke="#d9f2fb" stroke-width="2.4" opacity="0.9" stroke-linecap="round" stroke-linejoin="round"/>
<path d="M209.9 144.5 L200.4 154.7 L198.2 153 L200.4 155.1 L209.9 144.5 Z" fill="#d9f2fb" stroke="#d9f2fb" stroke-width="2.4" opacity="0.9" stroke-linecap="round" stroke-linejoin="round"/>
<path d="M307.5 77.5 L305.5 77.6 L304.3 89.5 L310.4 87.2 L309.3 77.6 L307.5 77.5 Z" fill="#d9f2fb" stroke="#d9f2fb" stroke-width="2.4" opacity="0.9" stroke-linecap="round" stroke-linejoin="round"/>
<path d="M176.9 219.9 L186.3 208.2 L179.1 220.1 L176.9 219.9 Z" fill="#d9f2fb" stroke="#d9f2fb" stroke-width="2.4" opacity="0.9" stroke-linecap="round" stroke-linejoin="round"/>
<path d="M315.2 68.6 L320.8 67.6 L325.4 59.7 L323.8 58.9 L320.3 67.1 L315.2 68.6 Z" fill="#d9f2fb" stroke="#d9f2fb" stroke-width="2.4" opacity="0.9" stroke-linecap="round" stroke-linejoin="round"/>
<path d="M188.4 181.2 L180.2 193.2 L188.4 181.2 Z" fill="#d9f2fb" stroke="#d9f2fb" stroke-width="2.4" opacity="0.9" stroke-linecap="round" stroke-linejoin="round"/>
<path d="M155 300.8 L153.5 302 L155.1 307.5 L151 295.7 L153.4 301.1 L155 300.8 Z" fill="#d9f2fb" stroke="#d9f2fb" stroke-width="2.4" opacity="0.9" stroke-linecap="round" stroke-linejoin="round"/>
<path d="M202.5 157.2 L215 147.7 L202.5 157.2 Z" fill="#d9f2fb" stroke="#d9f2fb" stroke-width="2.4" opacity="0.9" stroke-linecap="round" stroke-linejoin="round"/>
<path d="M286 162.6 L288.7 165 L284.9 167.1 L287.8 168.7 L281.2 169.1 L284.1 162.4 L286 162.6 Z" fill="#d9f2fb" stroke="#d9f2fb" stroke-width="2.4" opacity="0.9" stroke-linecap="round" stroke-linejoin="round"/>
<path d="M191.1 180.7 L197.4 176.9 L199.1 177.7 L194.6 183.1 L198.7 177.8 L191.1 180.7 Z" fill="#d9f2fb" stroke="#d9f2fb" stroke-width="2.4" opacity="0.9" stroke-linecap="round" stroke-linejoin="round"/>
<path d="M176.5 162.3 L169.3 157.8 L172.7 152.1 L169.6 157.9 L176.5 162.3 Z" fill="#d9f2fb" stroke="#d9f2fb" stroke-width="2.4" opacity="0.9" stroke-linecap="round" stroke-linejoin="round"/>
<path d="M190.4 217.2 L194.2 209.9 L195.7 210.4 L191.1 220.9 L188 220.8 L190.4 217.2 Z" fill="#d9f2fb" stroke="#d9f2fb" stroke-width="2.4" opacity="0.9" stroke-linecap="round" stroke-linejoin="round"/>
<path d="M266.6 194.5 L254.3 190.6 L265 188.3 L268.4 193.7 L266.6 194.5 Z" fill="#d9f2fb" stroke="#d9f2fb" stroke-width="2.4" opacity="0.9" stroke-linecap="round" stroke-linejoin="round"/>
<path d="M266.8 157.1 L282.6 160.5 L274 157.4 L266.8 157.1 Z" fill="#d9f2fb" stroke="#d9f2fb" stroke-width="2.4" opacity="0.9" stroke-linecap="round" stroke-linejoin="round"/>
<path d="M200.2 125.1 L185 120.8 L200.2 125.1 Z" fill="#d9f2fb" stroke="#d9f2fb" stroke-width="2.4" opacity="0.9" stroke-linecap="round" stroke-linejoin="round"/>
<path d="M141 163.7 L157.2 160.4 L141 163.7 Z" fill="#d9f2fb" stroke="#d9f2fb" stroke-width="2.4" opacity="0.9" stroke-linecap="round" stroke-linejoin="round"/>
<path d="M221.5 132 L236.9 136.8 L221.5 132 Z" fill="#d9f2fb" stroke="#d9f2fb" stroke-width="2.4" opacity="0.9" stroke-linecap="round" stroke-linejoin="round"/>
<path d="M285.3 162.3 L287.6 153.5 L291 154.1 L288 162.9 L285.3 162.3 Z" fill="#d9f2fb" stroke="#d9f2fb" stroke-width="2.4" opacity="0.9" stroke-linecap="round" stroke-linejoin="round"/>
<path d="M293.5 78 L307.7 76.5 L293.9 76 L293.5 78 Z" fill="#d9f2fb" stroke="#d9f2fb" stroke-width="2.4" opacity="0.9" stroke-linecap="round" stroke-linejoin="round"/>
<path d="M283.5 169.8 L279.7 180.7 L283.5 169.8 Z" fill="#d9f2fb" stroke="#d9f2fb" stroke-width="2.4" opacity="0.9" stroke-linecap="round" stroke-linejoin="round"/>
<path d="M312 169.1 L309.5 173.8 L312.3 180.1 L309.9 174.1 L312 169.1 Z" fill="#d9f2fb" stroke="#d9f2fb" stroke-width="2.4" opacity="0.9" stroke-linecap="round" stroke-linejoin="round"/>
<path d="M244.5 176.4 L240.8 165.6 L244.5 176.4 Z" fill="#d9f2fb" stroke="#d9f2fb" stroke-width="2.4" opacity="0.9" stroke-linecap="round" stroke-linejoin="round"/>
<path d="M243.3 154.2 L235.2 152.2 L250.2 154.5 L243.3 154.2 Z" fill="#d9f2fb" stroke="#d9f2fb" stroke-width="2.4" opacity="0.9" stroke-linecap="round" stroke-linejoin="round"/>
<path d="M212.3 135.7 L208.5 140.1 L219.1 132.9 L212.3 135.7 Z" fill="#d9f2fb" stroke="#d9f2fb" stroke-width="2.4" opacity="0.9" stroke-linecap="round" stroke-linejoin="round"/>
<path d="M195.2 135.9 L200 125.5 L195.2 135.9 Z" fill="#d9f2fb" stroke="#d9f2fb" stroke-width="2.4" opacity="0.9" stroke-linecap="round" stroke-linejoin="round"/>
<path d="M239.2 157.2 L240.9 153.5 L238.6 157.8 L231.4 155.7 L239.2 157.2 Z" fill="#d9f2fb" stroke="#d9f2fb" stroke-width="2.4" opacity="0.9" stroke-linecap="round" stroke-linejoin="round"/>
<path d="M266.4 194.7 L253.2 191.6 L256 190.6 L266.4 194.7 Z" fill="#d9f2fb" stroke="#d9f2fb" stroke-width="2.4" opacity="0.9" stroke-linecap="round" stroke-linejoin="round"/>
<path d="M264.1 156.7 L250.1 154.7 L264.1 156.7 Z" fill="#d9f2fb" stroke="#d9f2fb" stroke-width="2.4" opacity="0.9" stroke-linecap="round" stroke-linejoin="round"/>
<path d="M251.1 159.6 L254.6 166.5 L250.3 159.4 L251.6 156.1 L251.1 159.6 Z" fill="#d9f2fb" stroke="#d9f2fb" stroke-width="2.4" opacity="0.9" stroke-linecap="round" stroke-linejoin="round"/>
<path d="M260.8 83.1 L261.7 78.7 L269.1 75.6 L263 78.5 L262.4 82.6 L260.8 83.1 Z" fill="#d9f2fb" stroke="#d9f2fb" stroke-width="2.4" opacity="0.9" stroke-linecap="round" stroke-linejoin="round"/>
<path d="M145.6 170.3 L147.4 173 L158 170.4 L148 172.4 L145.6 170.3 Z" fill="#d9f2fb" stroke="#d9f2fb" stroke-width="2.4" opacity="0.9" stroke-linecap="round" stroke-linejoin="round"/>
<path d="M199.1 164.6 L200.7 160.9 L198.3 164.2 L194 158.8 L195.1 162.4 L199.1 164.6 Z" fill="#d9f2fb" stroke="#d9f2fb" stroke-width="2.4" opacity="0.9" stroke-linecap="round" stroke-linejoin="round"/>
<path d="M193.5 196.6 L200.1 187.1 L193.5 196.6 Z" fill="#d9f2fb" stroke="#d9f2fb" stroke-width="2.4" opacity="0.9" stroke-linecap="round" stroke-linejoin="round"/>
<path d="M217 136.6 L211.9 142.3 L217 136.6 Z" fill="#d9f2fb" stroke="#d9f2fb" stroke-width="2.4" opacity="0.9" stroke-linecap="round" stroke-linejoin="round"/>
<path d="M159.3 122.6 L149.5 130.5 L159.3 122.6 Z" fill="#d9f2fb" stroke="#d9f2fb" stroke-width="2.4" opacity="0.9" stroke-linecap="round" stroke-linejoin="round"/>
<path d="M156.8 205.5 L169.6 209.1 L156.8 205.5 Z" fill="#d9f2fb" stroke="#d9f2fb" stroke-width="2.4" opacity="0.9" stroke-linecap="round" stroke-linejoin="round"/>
<path d="M212 222.1 L214.6 212.1 L213.5 222.3 L212 222.1 Z" fill="#d9f2fb" stroke="#d9f2fb" stroke-width="2.4" opacity="0.9" stroke-linecap="round" stroke-linejoin="round"/>
<path d="M186 113.7 L198.8 117 L186 113.7 Z" fill="#d9f2fb" stroke="#d9f2fb" stroke-width="2.4" opacity="0.9" stroke-linecap="round" stroke-linejoin="round"/>
<path d="M176.9 162.8 L188.7 168.8 L176.9 162.8 Z" fill="#d9f2fb" stroke="#d9f2fb" stroke-width="2.4" opacity="0.9" stroke-linecap="round" stroke-linejoin="round"/>
<path d="M230.4 180.9 L229.1 178.1 L235.9 176 L237.1 178.6 L235.7 176.8 L230.3 178.1 L230.4 180.9 Z" fill="#d9f2fb" stroke="#d9f2fb" stroke-width="2.4" opacity="0.9" stroke-linecap="round" stroke-linejoin="round"/>
<path d="M159.6 185.9 L155.8 178.6 L159.9 182.8 L159.6 185.9 Z" fill="#d9f2fb" stroke="#d9f2fb" stroke-width="2.4" opacity="0.9" stroke-linecap="round" stroke-linejoin="round"/>
<path d="M229.8 120.5 L228.4 119.5 L233.4 111.6 L235.4 111.9 L229.8 120.5 Z" fill="#d9f2fb" stroke="#d9f2fb" stroke-width="2.4" opacity="0.9" stroke-linecap="round" stroke-linejoin="round"/>
<path d="M186 113.7 L174.7 109.7 L186 113.7 Z" fill="#d9f2fb" stroke="#d9f2fb" stroke-width="2.4" opacity="0.9" stroke-linecap="round" stroke-linejoin="round"/>
<path d="M210.3 177.4 L211.6 173.5 L216.4 170.6 L211.3 174.4 L212.9 177.6 L210.3 177.4 Z" fill="#d9f2fb" stroke="#d9f2fb" stroke-width="2.4" opacity="0.9" stroke-linecap="round" stroke-linejoin="round"/>
<path d="M243.7 162.9 L239.2 157.2 L243.4 163.1 L240.5 165.5 L243.7 162.9 Z" fill="#d9f2fb" stroke="#d9f2fb" stroke-width="2.4" opacity="0.9" stroke-linecap="round" stroke-linejoin="round"/>
<path d="M207.4 182.9 L209.3 178 L207.3 177.6 L207.6 176 L207 177.7 L209.1 178.1 L207.4 182.9 Z" fill="#d9f2fb" stroke="#d9f2fb" stroke-width="2.4" opacity="0.9" stroke-linecap="round" stroke-linejoin="round"/>
<path d="M255.3 211.1 L250.9 204.8 L248.5 212.4 L255.3 211.1 Z" fill="#d9f2fb" stroke="#d9f2fb" stroke-width="2.4" opacity="0.9" stroke-linecap="round" stroke-linejoin="round"/>
<path d="M206.9 142.4 L200.2 151.1 L206.9 142.4 Z" fill="#d9f2fb" stroke="#d9f2fb" stroke-width="2.4" opacity="0.9" stroke-linecap="round" stroke-linejoin="round"/>
<path d="M209.9 188.6 L210.7 198.4 L209.9 188.6 Z" fill="#d9f2fb" stroke="#d9f2fb" stroke-width="2.4" opacity="0.9" stroke-linecap="round" stroke-linejoin="round"/>
<path d="M282.3 161 L277.5 170 L282.3 161 Z" fill="#d9f2fb" stroke="#d9f2fb" stroke-width="2.4" opacity="0.9" stroke-linecap="round" stroke-linejoin="round"/>
<path d="M138.9 164.4 L135.6 158.3 L136.9 157 L138.3 161.4 L140.8 161.1 L138.5 161.7 L138.9 164.4 Z" fill="#d9f2fb" stroke="#d9f2fb" stroke-width="2.4" opacity="0.9" stroke-linecap="round" stroke-linejoin="round"/>
<path d="M264.8 156.6 L265.9 147.5 L264.8 156.6 Z" fill="#d9f2fb" stroke="#d9f2fb" stroke-width="2.4" opacity="0.9" stroke-linecap="round" stroke-linejoin="round"/>
<path d="M158.4 165.1 L149.5 167 L149.8 169 L149.1 166.9 L158.4 165.1 Z" fill="#d9f2fb" stroke="#d9f2fb" stroke-width="2.4" opacity="0.9" stroke-linecap="round" stroke-linejoin="round"/>
<path d="M204.4 137.9 L207.2 136.8 L204 133.2 L206.3 131.9 L204.4 133.2 L207.7 137.2 L204.4 137.9 Z" fill="#d9f2fb" stroke="#d9f2fb" stroke-width="2.4" opacity="0.9" stroke-linecap="round" stroke-linejoin="round"/>
<path d="M217.5 171.4 L210.2 164.3 L217.5 171.4 Z" fill="#d9f2fb" stroke="#d9f2fb" stroke-width="2.4" opacity="0.9" stroke-linecap="round" stroke-linejoin="round"/>
<path d="M251.5 167.4 L249.4 168.5 L249.9 175.5 L249.7 168.7 L251.5 167.4 Z" fill="#d9f2fb" stroke="#d9f2fb" stroke-width="2.4" opacity="0.9" stroke-linecap="round" stroke-linejoin="round"/>
<path d="M305.1 180.5 L316.5 179.1 L305.1 180.5 Z" fill="#d9f2fb" stroke="#d9f2fb" stroke-width="2.4" opacity="0.9" stroke-linecap="round" stroke-linejoin="round"/>
<path d="M231.9 163 L231.6 155 L230 162 L231.9 163 Z" fill="#d9f2fb" stroke="#d9f2fb" stroke-width="2.4" opacity="0.9" stroke-linecap="round" stroke-linejoin="round"/>
<path d="M243.6 163.3 L252.3 167.3 L245.4 165.6 L243.6 163.3 Z" fill="#d9f2fb" stroke="#d9f2fb" stroke-width="2.4" opacity="0.9" stroke-linecap="round" stroke-linejoin="round"/>
<path d="M234.5 152.3 L228.1 149.2 L224.2 149.5 L228.3 149 L234.5 152.3 Z" fill="#d9f2fb" stroke="#d9f2fb" stroke-width="2.4" opacity="0.9" stroke-linecap="round" stroke-linejoin="round"/>
<path d="M233.9 229.7 L228.3 224.1 L230.6 223.6 L236.1 227.7 L233.9 229.7 Z" fill="#d9f2fb" stroke="#d9f2fb" stroke-width="2.4" opacity="0.9" stroke-linecap="round" stroke-linejoin="round"/>
<path d="M404.7 133.7 L411.2 127.2 L404.3 132.2 L404.7 133.7 Z" fill="#d9f2fb" stroke="#d9f2fb" stroke-width="2.4" opacity="0.9" stroke-linecap="round" stroke-linejoin="round"/>
<path d="M228.5 166.2 L220.6 160.1 L228.5 166.2 Z" fill="#d9f2fb" stroke="#d9f2fb" stroke-width="2.4" opacity="0.9" stroke-linecap="round" stroke-linejoin="round"/>
<path d="M240.9 166 L235.8 162.7 L232.3 162.7 L240.9 166 Z" fill="#d9f2fb" stroke="#d9f2fb" stroke-width="2.4" opacity="0.9" stroke-linecap="round" stroke-linejoin="round"/>
<path d="M216.8 133.4 L208.7 128.2 L216.8 133.4 Z" fill="#d9f2fb" stroke="#d9f2fb" stroke-width="2.4" opacity="0.9" stroke-linecap="round" stroke-linejoin="round"/>
<path d="M275.9 170.1 L276.7 173.4 L273.8 177.2 L277.1 173.4 L275.9 170.1 Z" fill="#d9f2fb" stroke="#d9f2fb" stroke-width="2.4" opacity="0.9" stroke-linecap="round" stroke-linejoin="round"/>
<path d="M130.8 212.8 L126.3 206.3 L129.2 213 L130.8 212.8 Z" fill="#d9f2fb" stroke="#d9f2fb" stroke-width="2.4" opacity="0.9" stroke-linecap="round" stroke-linejoin="round"/>
<path d="M183 123.3 L185 126.1 L189.5 122.8 L185.3 125.8 L183 123.3 Z" fill="#d9f2fb" stroke="#d9f2fb" stroke-width="2.4" opacity="0.9" stroke-linecap="round" stroke-linejoin="round"/>
<path d="M141.6 170.8 L139.4 164 L141.2 164 L141.6 170.8 Z" fill="#d9f2fb" stroke="#d9f2fb" stroke-width="2.4" opacity="0.9" stroke-linecap="round" stroke-linejoin="round"/>
<path d="M216.6 136.7 L225.6 140.9 L216.6 136.7 Z" fill="#d9f2fb" stroke="#d9f2fb" stroke-width="2.4" opacity="0.9" stroke-linecap="round" stroke-linejoin="round"/>
<path d="M275.6 162.8 L271.2 165 L275.6 162.8 Z" fill="#d9f2fb" stroke="#d9f2fb" stroke-width="2.4" opacity="0.9" stroke-linecap="round" stroke-linejoin="round"/>
<path d="M216.1 187 L218.9 194.3 L216.1 187 Z" fill="#d9f2fb" stroke="#d9f2fb" stroke-width="2.4" opacity="0.9" stroke-linecap="round" stroke-linejoin="round"/>
<path d="M258.5 158.5 L249.7 155.1 L258.5 158.5 Z" fill="#d9f2fb" stroke="#d9f2fb" stroke-width="2.4" opacity="0.9" stroke-linecap="round" stroke-linejoin="round"/>
<path d="M212.9 177.6 L214.1 184.4 L212.9 177.6 Z" fill="#d9f2fb" stroke="#d9f2fb" stroke-width="2.4" opacity="0.9" stroke-linecap="round" stroke-linejoin="round"/>
<path d="M220.9 176.4 L224.4 182.6 L220.9 176.4 Z" fill="#d9f2fb" stroke="#d9f2fb" stroke-width="2.4" opacity="0.9" stroke-linecap="round" stroke-linejoin="round"/>
<path d="M210.1 177.4 L209 184.7 L210.1 177.4 Z" fill="#d9f2fb" stroke="#d9f2fb" stroke-width="2.4" opacity="0.9" stroke-linecap="round" stroke-linejoin="round"/>
<path d="M235.7 142.9 L239.8 149.4 L235.7 142.9 Z" fill="#d9f2fb" stroke="#d9f2fb" stroke-width="2.4" opacity="0.9" stroke-linecap="round" stroke-linejoin="round"/>
<path d="M208.8 128 L200 125.5 L208.8 128 Z" fill="#d9f2fb" stroke="#d9f2fb" stroke-width="2.4" opacity="0.9" stroke-linecap="round" stroke-linejoin="round"/>
<path d="M207.8 129.9 L215.2 134.3 L207.8 129.9 Z" fill="#d9f2fb" stroke="#d9f2fb" stroke-width="2.4" opacity="0.9" stroke-linecap="round" stroke-linejoin="round"/>
<path d="M226.1 140 L229.2 134.7 L226.1 140 Z" fill="#d9f2fb" stroke="#d9f2fb" stroke-width="2.4" opacity="0.9" stroke-linecap="round" stroke-linejoin="round"/>
<path d="M191.6 215.4 L183.6 213.7 L191.6 215.4 Z" fill="#d9f2fb" stroke="#d9f2fb" stroke-width="2.4" opacity="0.9" stroke-linecap="round" stroke-linejoin="round"/>
<path d="M203.7 163.4 L202.1 157.5 L203.7 163.4 Z" fill="#d9f2fb" stroke="#d9f2fb" stroke-width="2.4" opacity="0.9" stroke-linecap="round" stroke-linejoin="round"/>
<path d="M400 139.7 L405 133.8 L400 139.7 Z" fill="#d9f2fb" stroke="#d9f2fb" stroke-width="2.4" opacity="0.9" stroke-linecap="round" stroke-linejoin="round"/>
<path d="M198 138.6 L193.8 144.7 L198 138.6 Z" fill="#d9f2fb" stroke="#d9f2fb" stroke-width="2.4" opacity="0.9" stroke-linecap="round" stroke-linejoin="round"/>
<path d="M250.8 158.9 L243.8 163.1 L250.8 158.9 Z" fill="#d9f2fb" stroke="#d9f2fb" stroke-width="2.4" opacity="0.9" stroke-linecap="round" stroke-linejoin="round"/>
<path d="M198.8 117 L202.8 111.5 L198.8 117 Z" fill="#d9f2fb" stroke="#d9f2fb" stroke-width="2.4" opacity="0.9" stroke-linecap="round" stroke-linejoin="round"/>
<path d="M218.7 132.6 L220.2 133.3 L224.5 128.7 L218.7 132.6 Z" fill="#d9f2fb" stroke="#d9f2fb" stroke-width="2.4" opacity="0.9" stroke-linecap="round" stroke-linejoin="round"/>
<path d="M232.4 137.6 L227.7 137.4 L232.4 137.6 Z" fill="#d9f2fb" stroke="#d9f2fb" stroke-width="2.4" opacity="0.9" stroke-linecap="round" stroke-linejoin="round"/>
<path d="M206.3 131.9 L213 135.6 L206.3 131.9 Z" fill="#d9f2fb" stroke="#d9f2fb" stroke-width="2.4" opacity="0.9" stroke-linecap="round" stroke-linejoin="round"/>
<path d="M271.2 165 L276.3 170.2 L271.2 165 Z" fill="#d9f2fb" stroke="#d9f2fb" stroke-width="2.4" opacity="0.9" stroke-linecap="round" stroke-linejoin="round"/>
<path d="M208.5 162.2 L204.2 156.7 L208.5 162.2 Z" fill="#d9f2fb" stroke="#d9f2fb" stroke-width="2.4" opacity="0.9" stroke-linecap="round" stroke-linejoin="round"/>
</g>
<g data-layer="water">
<path d="M154.4 148.9 L155 151 L165.8 142.5 L184 135.5 L204.4 137.9 L222.3 147.7 L225.1 155.9 L216.5 162.1 L188.7 173 L197.7 184.2 L224.7 182.8 L228.6 187.4 L206.6 187.7 L194.5 186 L191.7 183.9 L185.7 171 L198.1 164.8 L220.2 157.4 L223.9 154.2 L215.7 146.9 L205.7 141.6 L195.4 138 L194.5 145.5 L191.1 137.4 L166.1 145.3 L157.3 153.3 L151.9 152.5 L147.9 146.4 L137 137.6 L140.5 136.7 L145.2 139 L154.4 148.9 Z" fill="#7fc8e6" stroke="#117fa8" stroke-width="1.35" opacity="0.88" stroke-linecap="round" stroke-linejoin="round"/>
<path d="M237.9 188.8 L253.6 190.9 L247.4 199 L223.5 210.1 L195.7 210.4 L149 197.3 L128.9 197.1 L105.1 206.6 L115.1 184 L123.9 187.7 L150.8 186.9 L205.8 198.9 L216 196.3 L228.6 187.5 L237.9 188.8 Z" fill="#7fc8e6" stroke="#117fa8" stroke-width="1.35" opacity="0.88" stroke-linecap="round" stroke-linejoin="round"/>
<path d="M411.8 174.4 L397.8 179.2 L385.4 186.3 L375.9 193.3 L362.4 208.2 L353.6 212.5 L304.5 220 L303.9 228.5 L311.7 231.9 L352.7 235.8 L371.9 232.1 L380.8 228.5 L393.7 221.3 L420 177.1" fill="none" stroke="#117fa8" stroke-width="3.8" opacity="0.88" stroke-linecap="round" stroke-linejoin="round"/>
<path d="M375.9 193.3 L364.9 196.3 L354.9 189.1 L346.1 177.5 L349.6 159.3 L368.4 127.2 L368.8 124.4 L355.4 124.4 L357.1 128.7 L356.1 132.1 L344.6 140.7 L337 155.5 L331.9 156.2 L322.8 161.1 L319.8 164.9 L327.2 168.4 L348.1 193.8 L364.3 205.8 L375.9 193.3 Z" fill="#7fc8e6" stroke="#117fa8" stroke-width="1.35" opacity="0.88" stroke-linecap="round" stroke-linejoin="round"/>
<path d="M273.5 177 L303.4 192.7 L323.9 210 L338.9 215.3 L304.5 220 L306 219 L305.3 211.5 L296.7 201.5 L287.9 195.8 L270.8 188.9 L262.7 188.2 L253.6 190.9 L248.6 175.8 L260.6 174.9 L273.5 177 Z" fill="#7fc8e6" stroke="#117fa8" stroke-width="1.35" opacity="0.88" stroke-linecap="round" stroke-linejoin="round"/>
<path d="M413.8 71.1 L408.3 68.7 L400.2 69.6 L387.1 79.9 L369.2 83.6 L362.7 79.8 L357.6 71.5 L359 65 L366.7 56.4 L368.6 57.1 L365.9 61.6 L365.7 75.3 L370 79.2 L396.3 66.8 L412.7 65.6" fill="none" stroke="#117fa8" stroke-width="3.8" opacity="0.88" stroke-linecap="round" stroke-linejoin="round"/>
<path d="M319.3 100.5 L322.1 91 L327 92.1 L356.6 109.1 L368.8 124.4 L355.4 124.4 L342.5 110.6 L319.3 100.5 Z" fill="#7fc8e6" stroke="#117fa8" stroke-width="1.35" opacity="0.88" stroke-linecap="round" stroke-linejoin="round"/>
<path d="M144.9 149.3 L134.4 158.9 L115.1 184 L112.5 183.3 L134.2 156.3 L141.7 149.7 L147.8 146.8 L147.9 148.3 L144.9 149.3 Z" fill="#7fc8e6" stroke="#117fa8" stroke-width="1.35" opacity="0.88" stroke-linecap="round" stroke-linejoin="round"/>
<path d="M270.8 188.9 L265 188.3 L272.2 199.3 L283.1 209.8 L296.1 221.3 L304.5 220 L280.4 201.9 L273.7 195 L270.8 188.9 Z" fill="#7fc8e6" stroke="#117fa8" stroke-width="1.35" opacity="0.88" stroke-linecap="round" stroke-linejoin="round"/>
<path d="M139.6 182.6 L155.8 178.6 L139.4 183.4 L139.1 186.1 L138.1 179.9 L145.2 177.4 L141.6 170.8 L159 167.1 L142.4 171 L145.7 177.7 L138.7 180 L139.6 182.6 Z" fill="#7fc8e6" stroke="#117fa8" stroke-width="1.35" opacity="0.88" stroke-linecap="round" stroke-linejoin="round"/>
<path d="M201 121.5 L174 112.5 L173.8 110.1 L172.8 113 L205.9 123.4 L219.9 131.6 L210.5 124.8 L201 121.5 Z" fill="#7fc8e6" stroke="#117fa8" stroke-width="1.35" opacity="0.88" stroke-linecap="round" stroke-linejoin="round"/>
<path d="M270.8 188.9 L275.2 196.8 L292.4 212.4 L302.3 219.4 L306 219 L305.3 211.5 L296.7 201.5 L283.1 193.2 L270.8 188.9 Z" fill="#7fc8e6" stroke="#117fa8" stroke-width="1.35" opacity="0.88" stroke-linecap="round" stroke-linejoin="round"/>
<path d="M414.7 109.4 L378.3 123.6 L368.8 124.4 L367.2 122.4 L380.4 121.6 L389.2 116.1 L411.3 109.2" fill="none" stroke="#117fa8" stroke-width="3.8" opacity="0.88" stroke-linecap="round" stroke-linejoin="round"/>
<path d="M186.5 176.4 L164.8 179.5 L165.7 185.7 L181.6 191.4 L165.2 185.9 L163.6 179.5 L186.5 176.4 Z" fill="#7fc8e6" stroke="#117fa8" stroke-width="1.35" opacity="0.88" stroke-linecap="round" stroke-linejoin="round"/>
<path d="M249.6 88.6 L260.8 84.2 L266.5 84 L271.9 91.5 L266.4 98.6 L277.4 97.5 L273.2 96.2 L273.1 88.6 L267.2 82.7 L254.3 84 L249.6 88.6 Z" fill="#7fc8e6" stroke="#117fa8" stroke-width="1.35" opacity="0.88" stroke-linecap="round" stroke-linejoin="round"/>
<path d="M288.1 168 L289.3 166.3 L292.1 166.7 L297 157.7 L320.5 162.8 L319.8 164.9 L309.7 163.1 L309.1 165 L303.5 165.9 L300.3 172.6 L289.3 171.5 L287.4 170.5 L288.1 168 Z" fill="#7fc8e6" stroke="#117fa8" stroke-width="1.35" opacity="0.88" stroke-linecap="round" stroke-linejoin="round"/>
<path d="M100.5 177.4 L120.3 152.5 L127.1 155.5 L107.7 181.2 L100.5 177.4 Z" fill="#7fc8e6" stroke="#117fa8" stroke-width="1.35" opacity="0.88" stroke-linecap="round" stroke-linejoin="round"/>
<path d="M364.1 242.9 L374.6 240.8 L383.8 235.9 L391.2 222.4 L393.7 221.3 L386.2 235.8 L371 243.2 L362.7 244.4 L364.1 242.9 Z" fill="#7fc8e6" stroke="#117fa8" stroke-width="1.35" opacity="0.88" stroke-linecap="round" stroke-linejoin="round"/>
<path d="M157.3 153.3 L159 162.6 L163.2 165.6 L186.5 170.2 L181.4 170.7 L158.2 164.2 L156 155 L157.3 153.3 Z" fill="#7fc8e6" stroke="#117fa8" stroke-width="1.35" opacity="0.88" stroke-linecap="round" stroke-linejoin="round"/>
<path d="M381.5 237.3 L387 232.1 L391.2 222.4 L374.3 231.4 L359.1 235.2 L364.1 242.9 L370.1 242.3 L381.5 237.3 Z" fill="#7fc8e6" stroke="#117fa8" stroke-width="1.35" opacity="0.88" stroke-linecap="round" stroke-linejoin="round"/>
<path d="M278.1 70.4 L283.1 69.5 L293.5 78 L293.9 76 L285.2 68.1 L272.8 66.8 L264.2 61.6 L260.2 67.6 L272.7 71.3 L278.1 70.4 Z" fill="#7fc8e6" stroke="#117fa8" stroke-width="1.35" opacity="0.88" stroke-linecap="round" stroke-linejoin="round"/>
<path d="M151.1 116.5 L180.5 130.5 L184 135.5 L182.6 136.1 L177.4 129.7 L161.1 123.6 L151.1 116.5 Z" fill="#7fc8e6" stroke="#117fa8" stroke-width="1.35" opacity="0.88" stroke-linecap="round" stroke-linejoin="round"/>
<path d="M365.4 255.9 L364.4 266.6 L364.4 265.3 L347.8 263.3 L364.5 264.9 L365.1 256.4 L353.6 253.6 L365.4 255.9 Z" fill="#7fc8e6" stroke="#117fa8" stroke-width="1.35" opacity="0.88" stroke-linecap="round" stroke-linejoin="round"/>
<path d="M282 112.7 L266.4 98.6 L283.2 96.8 L291.3 93.2 L283.1 113.4 L282 112.7 Z" fill="#7fc8e6" stroke="#117fa8" stroke-width="1.35" opacity="0.88" stroke-linecap="round" stroke-linejoin="round"/>
<path d="M165.7 183.2 L187.1 178.7 L179.2 180.4 L180.5 182.3 L187.3 181.6 L176.5 181.3 L177.2 185 L175.4 188.2 L176.3 181.5 L165.7 183.2 Z" fill="#7fc8e6" stroke="#117fa8" stroke-width="1.35" opacity="0.88" stroke-linecap="round" stroke-linejoin="round"/>
<path d="M262.7 107.7 L268.4 105.4 L267.1 108 L246 129.3 L242.6 128.1 L262.7 107.7 Z" fill="#7fc8e6" stroke="#117fa8" stroke-width="1.35" opacity="0.88" stroke-linecap="round" stroke-linejoin="round"/>
<path d="M348.9 175.3 L360.9 167.2 L364.4 163.3 L364.8 157.5 L371.9 153.7 L360.4 153.3 L352.5 164.8 L348.9 175.3 Z" fill="#7fc8e6" stroke="#117fa8" stroke-width="1.35" opacity="0.88" stroke-linecap="round" stroke-linejoin="round"/>
<path d="M207.6 176 L204.4 171.9 L206.2 170.7 L202.5 166.6 L205.9 170.8 L204.2 171.8 L198.1 168 L199.6 170.8 L202.7 170.2 L206.4 174.5 L201.1 184.7 L205.3 175.6 L207.6 176 Z" fill="#7fc8e6" stroke="#117fa8" stroke-width="1.35" opacity="0.88" stroke-linecap="round" stroke-linejoin="round"/>
<path d="M359.1 235.2 L364.1 242.9 L351 249.3 L347.4 235.8 L350.5 235.8 L352.5 243.7 L355.6 244 L357.3 241.9 L355.4 235.6 L359.1 235.2 Z" fill="#7fc8e6" stroke="#117fa8" stroke-width="1.35" opacity="0.88" stroke-linecap="round" stroke-linejoin="round"/>
<path d="M309.3 77.6 L314.5 71.5 L314.6 67.2 L306.4 63.6 L300.7 55.7 L304.7 63.4 L314.1 67.8 L313 71.7 L307.7 76.5 L309.3 77.6 Z" fill="#7fc8e6" stroke="#117fa8" stroke-width="1.35" opacity="0.88" stroke-linecap="round" stroke-linejoin="round"/>
<path d="M228.6 187.5 L253.6 190.9 L248.6 175.8 L227.6 181.8 L228.6 187.5 Z" fill="#7fc8e6" stroke="#117fa8" stroke-width="1.35" opacity="0.88" stroke-linecap="round" stroke-linejoin="round"/>
<path d="M347.1 289 L337.5 286.4 L336.7 288.1 L352.6 290.2 L347.8 298.5 L348.5 303.3 L348.4 298.2 L354.9 290.5 L347.1 289 Z" fill="#7fc8e6" stroke="#117fa8" stroke-width="1.35" opacity="0.88" stroke-linecap="round" stroke-linejoin="round"/>
<path d="M408.6 124.2 L403.4 125.9 L394 133.9 L396.6 132.4 L399 134.2 L396.8 132.3 L398.4 131.2 L400.9 132.9 L398.6 131 L402.4 131.7 L400.2 129.9 L402.1 128.7 L403.9 130 L402.3 128.5 L404.3 127.2 L405.9 128.4 L404.4 127 L407.8 126.8 L406.6 125.6 L408.6 124.2 Z" fill="#7fc8e6" stroke="#117fa8" stroke-width="1.35" opacity="0.88" stroke-linecap="round" stroke-linejoin="round"/>
<path d="M193.5 148.6 L203.9 140.8 L194.8 149.2 L196.3 150.2 L205.8 141.7 L196.4 150.3 L198.9 152.3 L193.5 148.6 Z" fill="#7fc8e6" stroke="#117fa8" stroke-width="1.35" opacity="0.88" stroke-linecap="round" stroke-linejoin="round"/>
<path d="M278.3 204.5 L277 203.4 L267.5 208.6 L248.5 212.4 L247.6 214.5 L263.7 211.1 L278.3 204.5 Z" fill="#7fc8e6" stroke="#117fa8" stroke-width="1.35" opacity="0.88" stroke-linecap="round" stroke-linejoin="round"/>
<path d="M319.2 206.4 L322.1 190.1 L321 183.8 L319.3 184.3 L321.1 190.6 L319 202.3 L315.1 203.5 L319.2 206.4 Z" fill="#7fc8e6" stroke="#117fa8" stroke-width="1.35" opacity="0.88" stroke-linecap="round" stroke-linejoin="round"/>
<path d="M156.5 135 L145.2 127 L144.8 128.3 L156.4 135.7 L164.2 124.8 L156.5 135 Z" fill="#7fc8e6" stroke="#117fa8" stroke-width="1.35" opacity="0.88" stroke-linecap="round" stroke-linejoin="round"/>
<path d="M170.6 167.1 L170.8 164.9 L167.9 162.8 L158.2 160.3 L161.7 160.2 L163.7 156 L160.9 151 L164.1 156.2 L162.3 160.4 L171.2 164.4 L170.6 167.1 Z" fill="#7fc8e6" stroke="#117fa8" stroke-width="1.35" opacity="0.88" stroke-linecap="round" stroke-linejoin="round"/>
<path d="M235.7 142.9 L239.1 131.3 L233.2 145.5 L222.3 147.7 L233 146.1 L235.7 142.9 Z" fill="#7fc8e6" stroke="#117fa8" stroke-width="1.35" opacity="0.88" stroke-linecap="round" stroke-linejoin="round"/>
<path d="M164.2 112.6 L163 119.1 L177.6 123.5 L183.3 123.2 L163.3 118.9 L165.9 112 L164.2 112.6 Z" fill="#7fc8e6" stroke="#117fa8" stroke-width="1.35" opacity="0.88" stroke-linecap="round" stroke-linejoin="round"/>
<path d="M280 96.9 L293.5 83.4 L294 77.9 L294 83.4 L280 96.9 Z" fill="#7fc8e6" stroke="#117fa8" stroke-width="1.35" opacity="0.88" stroke-linecap="round" stroke-linejoin="round"/>
<path d="M171.8 142 L183.1 152.5 L181 154.3 L172.7 152.1 L180.5 154.1 L182.6 152.4 L171.8 142 Z" fill="#7fc8e6" stroke="#117fa8" stroke-width="1.35" opacity="0.88" stroke-linecap="round" stroke-linejoin="round"/>
<path d="M385.9 145.6 L389.1 143 L387.9 140.7 L389.6 142.4 L392.2 141 L389.9 142.8 L391.1 144.1 L397.7 140.2 L392.6 143.9 L394 145.1 L397.3 142.9 L393.8 145.4 L389.2 143.3 L385.9 145.6 Z" fill="#7fc8e6" stroke="#117fa8" stroke-width="1.35" opacity="0.88" stroke-linecap="round" stroke-linejoin="round"/>
<path d="M306.9 180.4 L305.3 166.9 L315.8 170.4 L305.6 167.6 L306.9 180.4 Z" fill="#7fc8e6" stroke="#117fa8" stroke-width="1.35" opacity="0.88" stroke-linecap="round" stroke-linejoin="round"/>
<path d="M249.2 195.7 L244.9 213.8 L247.6 214.5 L252.5 202.9 L249.2 195.7 Z" fill="#7fc8e6" stroke="#117fa8" stroke-width="1.35" opacity="0.88" stroke-linecap="round" stroke-linejoin="round"/>
<path d="M272.7 71.3 L274.8 79.1 L267.2 82.7 L268.3 84.2 L276.1 81 L278.5 78 L276.9 73.8 L278.1 70.4 L272.7 71.3 Z" fill="#7fc8e6" stroke="#117fa8" stroke-width="1.35" opacity="0.88" stroke-linecap="round" stroke-linejoin="round"/>
<path d="M201.9 149.1 L206.9 142.4 L199.7 151.6 L192.1 156.5 L195.7 154.1 L198 155.5 L196 153.9 L201.9 149.1 Z" fill="#7fc8e6" stroke="#117fa8" stroke-width="1.35" opacity="0.88" stroke-linecap="round" stroke-linejoin="round"/>
<path d="M383.5 136.1 L385.4 138.4 L388.1 136.6 L386.1 134.3 L388.3 136.5 L390.2 135.3 L389.2 137.7 L385.7 138.6 L387.2 140.2 L393.6 137.5 L387 140.6 L383.5 136.1 Z" fill="#7fc8e6" stroke="#117fa8" stroke-width="1.35" opacity="0.88" stroke-linecap="round" stroke-linejoin="round"/>
<path d="M337.8 204.8 L340.6 215.4 L338.9 215.3 L335.5 197.5 L337.8 204.8 Z" fill="#7fc8e6" stroke="#117fa8" stroke-width="1.35" opacity="0.88" stroke-linecap="round" stroke-linejoin="round"/>
<path d="M288.3 179.8 L284.6 183.4 L285.1 180.8 L295.1 177.1 L306.2 177.9 L295.2 177.6 L288.3 179.8 Z" fill="#7fc8e6" stroke="#117fa8" stroke-width="1.35" opacity="0.88" stroke-linecap="round" stroke-linejoin="round"/>
<path d="M190.9 155.8 L186.5 148.7 L188.5 137.6 L186.1 149.2 L190.9 155.8 Z" fill="#7fc8e6" stroke="#117fa8" stroke-width="1.35" opacity="0.88" stroke-linecap="round" stroke-linejoin="round"/>
<path d="M264.3 170.8 L266 167.1 L264.7 157 L265.4 166.8 L262.6 175.1 L264.3 170.8 Z" fill="#7fc8e6" stroke="#117fa8" stroke-width="1.35" opacity="0.88" stroke-linecap="round" stroke-linejoin="round"/>
<path d="M348.4 306.1 L348.2 303.2 L347.3 304.5 L343.1 303.3 L331.9 297.6 L331.2 299 L348.4 306.1 Z" fill="#7fc8e6" stroke="#117fa8" stroke-width="1.35" opacity="0.88" stroke-linecap="round" stroke-linejoin="round"/>
<path d="M364 266.6 L358.1 271.3 L345.4 268.8 L357.8 271.7 L357.9 273.5 L364 266.6 Z" fill="#7fc8e6" stroke="#117fa8" stroke-width="1.35" opacity="0.88" stroke-linecap="round" stroke-linejoin="round"/>
<path d="M152.8 197.9 L146.9 210.6 L142.5 210.1 L146.5 205.4 L149 197.3 L152.8 197.9 Z" fill="#7fc8e6" stroke="#117fa8" stroke-width="1.35" opacity="0.88" stroke-linecap="round" stroke-linejoin="round"/>
<path d="M259 166.2 L258.9 156.5 L259 166.2 Z" fill="#7fc8e6" stroke="#117fa8" stroke-width="1.35" opacity="0.88" stroke-linecap="round" stroke-linejoin="round"/>
<path d="M353.7 289.2 L360.9 281.5 L357.9 273.5 L361.3 281.5 L353.7 289.2 Z" fill="#7fc8e6" stroke="#117fa8" stroke-width="1.35" opacity="0.88" stroke-linecap="round" stroke-linejoin="round"/>
<path d="M245.3 141 L239.9 149 L239.7 152.8 L245.3 141 Z" fill="#7fc8e6" stroke="#117fa8" stroke-width="1.35" opacity="0.88" stroke-linecap="round" stroke-linejoin="round"/>
<path d="M156.1 178.7 L169.4 172.5 L171.5 167.7 L169 172.4 L156.1 178.7 Z" fill="#7fc8e6" stroke="#117fa8" stroke-width="1.35" opacity="0.88" stroke-linecap="round" stroke-linejoin="round"/>
<path d="M247.7 143.6 L243.1 153.6 L251.8 139.1 L247.7 143.6 Z" fill="#7fc8e6" stroke="#117fa8" stroke-width="1.35" opacity="0.88" stroke-linecap="round" stroke-linejoin="round"/>
<path d="M208.1 120.1 L198.3 117.6 L216.9 124.8 L208.1 120.1 Z" fill="#7fc8e6" stroke="#117fa8" stroke-width="1.35" opacity="0.88" stroke-linecap="round" stroke-linejoin="round"/>
<path d="M127.8 206.7 L143.2 209.4 L124.2 204.7 L123.4 206.3 L127.8 206.7 Z" fill="#7fc8e6" stroke="#117fa8" stroke-width="1.35" opacity="0.88" stroke-linecap="round" stroke-linejoin="round"/>
<path d="M184.1 120.6 L164.4 115.4 L184.1 120.6 Z" fill="#7fc8e6" stroke="#117fa8" stroke-width="1.35" opacity="0.88" stroke-linecap="round" stroke-linejoin="round"/>
<path d="M301.7 190.6 L320.3 186.2 L301.7 190.6 Z" fill="#7fc8e6" stroke="#117fa8" stroke-width="1.35" opacity="0.88" stroke-linecap="round" stroke-linejoin="round"/>
<path d="M269 197.3 L275.7 202.8 L271.7 206.7 L265.1 208.8 L269 197.3 Z" fill="#7fc8e6" stroke="#117fa8" stroke-width="1.35" opacity="0.88" stroke-linecap="round" stroke-linejoin="round"/>
<path d="M151.5 212.7 L159.9 199.7 L152.8 213.3 L151.5 212.7 Z" fill="#7fc8e6" stroke="#117fa8" stroke-width="1.35" opacity="0.88" stroke-linecap="round" stroke-linejoin="round"/>
<path d="M197.7 197.5 L201.9 190.3 L207.9 190.3 L207.9 187.6 L207.6 190.2 L201.8 189.9 L197.7 197.5 Z" fill="#7fc8e6" stroke="#117fa8" stroke-width="1.35" opacity="0.88" stroke-linecap="round" stroke-linejoin="round"/>
<path d="M165.7 218.5 L171.6 204.2 L165.7 218.5 Z" fill="#7fc8e6" stroke="#117fa8" stroke-width="1.35" opacity="0.88" stroke-linecap="round" stroke-linejoin="round"/>
<path d="M123.4 206.3 L120.9 211.2 L116 210.6 L121.3 200.4 L125.8 201.4 L123.4 206.3 Z" fill="#7fc8e6" stroke="#117fa8" stroke-width="1.35" opacity="0.88" stroke-linecap="round" stroke-linejoin="round"/>
<path d="M209.9 144.5 L200.4 154.7 L198.2 153 L200.4 155.1 L209.9 144.5 Z" fill="#7fc8e6" stroke="#117fa8" stroke-width="1.35" opacity="0.88" stroke-linecap="round" stroke-linejoin="round"/>
<path d="M307.5 77.5 L305.5 77.6 L304.3 89.5 L310.4 87.2 L309.3 77.6 L307.5 77.5 Z" fill="#7fc8e6" stroke="#117fa8" stroke-width="1.35" opacity="0.88" stroke-linecap="round" stroke-linejoin="round"/>
<path d="M176.9 219.9 L186.3 208.2 L179.1 220.1 L176.9 219.9 Z" fill="#7fc8e6" stroke="#117fa8" stroke-width="1.35" opacity="0.88" stroke-linecap="round" stroke-linejoin="round"/>
<path d="M315.2 68.6 L320.8 67.6 L325.4 59.7 L323.8 58.9 L320.3 67.1 L315.2 68.6 Z" fill="#7fc8e6" stroke="#117fa8" stroke-width="1.35" opacity="0.88" stroke-linecap="round" stroke-linejoin="round"/>
<path d="M188.4 181.2 L180.2 193.2 L188.4 181.2 Z" fill="#7fc8e6" stroke="#117fa8" stroke-width="1.35" opacity="0.88" stroke-linecap="round" stroke-linejoin="round"/>
<path d="M155 300.8 L153.5 302 L155.1 307.5 L151 295.7 L153.4 301.1 L155 300.8 Z" fill="#7fc8e6" stroke="#117fa8" stroke-width="1.35" opacity="0.88" stroke-linecap="round" stroke-linejoin="round"/>
<path d="M202.5 157.2 L215 147.7 L202.5 157.2 Z" fill="#7fc8e6" stroke="#117fa8" stroke-width="1.35" opacity="0.88" stroke-linecap="round" stroke-linejoin="round"/>
<path d="M286 162.6 L288.7 165 L284.9 167.1 L287.8 168.7 L281.2 169.1 L284.1 162.4 L286 162.6 Z" fill="#7fc8e6" stroke="#117fa8" stroke-width="1.35" opacity="0.88" stroke-linecap="round" stroke-linejoin="round"/>
<path d="M191.1 180.7 L197.4 176.9 L199.1 177.7 L194.6 183.1 L198.7 177.8 L191.1 180.7 Z" fill="#7fc8e6" stroke="#117fa8" stroke-width="1.35" opacity="0.88" stroke-linecap="round" stroke-linejoin="round"/>
<path d="M176.5 162.3 L169.3 157.8 L172.7 152.1 L169.6 157.9 L176.5 162.3 Z" fill="#7fc8e6" stroke="#117fa8" stroke-width="1.35" opacity="0.88" stroke-linecap="round" stroke-linejoin="round"/>
<path d="M190.4 217.2 L194.2 209.9 L195.7 210.4 L191.1 220.9 L188 220.8 L190.4 217.2 Z" fill="#7fc8e6" stroke="#117fa8" stroke-width="1.35" opacity="0.88" stroke-linecap="round" stroke-linejoin="round"/>
<path d="M266.6 194.5 L254.3 190.6 L265 188.3 L268.4 193.7 L266.6 194.5 Z" fill="#7fc8e6" stroke="#117fa8" stroke-width="1.35" opacity="0.88" stroke-linecap="round" stroke-linejoin="round"/>
<path d="M266.8 157.1 L282.6 160.5 L274 157.4 L266.8 157.1 Z" fill="#7fc8e6" stroke="#117fa8" stroke-width="1.35" opacity="0.88" stroke-linecap="round" stroke-linejoin="round"/>
<path d="M200.2 125.1 L185 120.8 L200.2 125.1 Z" fill="#7fc8e6" stroke="#117fa8" stroke-width="1.35" opacity="0.88" stroke-linecap="round" stroke-linejoin="round"/>
<path d="M141 163.7 L157.2 160.4 L141 163.7 Z" fill="#7fc8e6" stroke="#117fa8" stroke-width="1.35" opacity="0.88" stroke-linecap="round" stroke-linejoin="round"/>
<path d="M221.5 132 L236.9 136.8 L221.5 132 Z" fill="#7fc8e6" stroke="#117fa8" stroke-width="1.35" opacity="0.88" stroke-linecap="round" stroke-linejoin="round"/>
<path d="M285.3 162.3 L287.6 153.5 L291 154.1 L288 162.9 L285.3 162.3 Z" fill="#7fc8e6" stroke="#117fa8" stroke-width="1.35" opacity="0.88" stroke-linecap="round" stroke-linejoin="round"/>
<path d="M293.5 78 L307.7 76.5 L293.9 76 L293.5 78 Z" fill="#7fc8e6" stroke="#117fa8" stroke-width="1.35" opacity="0.88" stroke-linecap="round" stroke-linejoin="round"/>
<path d="M283.5 169.8 L279.7 180.7 L283.5 169.8 Z" fill="#7fc8e6" stroke="#117fa8" stroke-width="1.35" opacity="0.88" stroke-linecap="round" stroke-linejoin="round"/>
<path d="M312 169.1 L309.5 173.8 L312.3 180.1 L309.9 174.1 L312 169.1 Z" fill="#7fc8e6" stroke="#117fa8" stroke-width="1.35" opacity="0.88" stroke-linecap="round" stroke-linejoin="round"/>
<path d="M244.5 176.4 L240.8 165.6 L244.5 176.4 Z" fill="#7fc8e6" stroke="#117fa8" stroke-width="1.35" opacity="0.88" stroke-linecap="round" stroke-linejoin="round"/>
<path d="M243.3 154.2 L235.2 152.2 L250.2 154.5 L243.3 154.2 Z" fill="#7fc8e6" stroke="#117fa8" stroke-width="1.35" opacity="0.88" stroke-linecap="round" stroke-linejoin="round"/>
<path d="M212.3 135.7 L208.5 140.1 L219.1 132.9 L212.3 135.7 Z" fill="#7fc8e6" stroke="#117fa8" stroke-width="1.35" opacity="0.88" stroke-linecap="round" stroke-linejoin="round"/>
<path d="M195.2 135.9 L200 125.5 L195.2 135.9 Z" fill="#7fc8e6" stroke="#117fa8" stroke-width="1.35" opacity="0.88" stroke-linecap="round" stroke-linejoin="round"/>
<path d="M239.2 157.2 L240.9 153.5 L238.6 157.8 L231.4 155.7 L239.2 157.2 Z" fill="#7fc8e6" stroke="#117fa8" stroke-width="1.35" opacity="0.88" stroke-linecap="round" stroke-linejoin="round"/>
<path d="M266.4 194.7 L253.2 191.6 L256 190.6 L266.4 194.7 Z" fill="#7fc8e6" stroke="#117fa8" stroke-width="1.35" opacity="0.88" stroke-linecap="round" stroke-linejoin="round"/>
<path d="M264.1 156.7 L250.1 154.7 L264.1 156.7 Z" fill="#7fc8e6" stroke="#117fa8" stroke-width="1.35" opacity="0.88" stroke-linecap="round" stroke-linejoin="round"/>
<path d="M251.1 159.6 L254.6 166.5 L250.3 159.4 L251.6 156.1 L251.1 159.6 Z" fill="#7fc8e6" stroke="#117fa8" stroke-width="1.35" opacity="0.88" stroke-linecap="round" stroke-linejoin="round"/>
<path d="M260.8 83.1 L261.7 78.7 L269.1 75.6 L263 78.5 L262.4 82.6 L260.8 83.1 Z" fill="#7fc8e6" stroke="#117fa8" stroke-width="1.35" opacity="0.88" stroke-linecap="round" stroke-linejoin="round"/>
<path d="M145.6 170.3 L147.4 173 L158 170.4 L148 172.4 L145.6 170.3 Z" fill="#7fc8e6" stroke="#117fa8" stroke-width="1.35" opacity="0.88" stroke-linecap="round" stroke-linejoin="round"/>
<path d="M199.1 164.6 L200.7 160.9 L198.3 164.2 L194 158.8 L195.1 162.4 L199.1 164.6 Z" fill="#7fc8e6" stroke="#117fa8" stroke-width="1.35" opacity="0.88" stroke-linecap="round" stroke-linejoin="round"/>
<path d="M193.5 196.6 L200.1 187.1 L193.5 196.6 Z" fill="#7fc8e6" stroke="#117fa8" stroke-width="1.35" opacity="0.88" stroke-linecap="round" stroke-linejoin="round"/>
<path d="M217 136.6 L211.9 142.3 L217 136.6 Z" fill="#7fc8e6" stroke="#117fa8" stroke-width="1.35" opacity="0.88" stroke-linecap="round" stroke-linejoin="round"/>
<path d="M159.3 122.6 L149.5 130.5 L159.3 122.6 Z" fill="#7fc8e6" stroke="#117fa8" stroke-width="1.35" opacity="0.88" stroke-linecap="round" stroke-linejoin="round"/>
<path d="M156.8 205.5 L169.6 209.1 L156.8 205.5 Z" fill="#7fc8e6" stroke="#117fa8" stroke-width="1.35" opacity="0.88" stroke-linecap="round" stroke-linejoin="round"/>
<path d="M212 222.1 L214.6 212.1 L213.5 222.3 L212 222.1 Z" fill="#7fc8e6" stroke="#117fa8" stroke-width="1.35" opacity="0.88" stroke-linecap="round" stroke-linejoin="round"/>
<path d="M186 113.7 L198.8 117 L186 113.7 Z" fill="#7fc8e6" stroke="#117fa8" stroke-width="1.35" opacity="0.88" stroke-linecap="round" stroke-linejoin="round"/>
<path d="M176.9 162.8 L188.7 168.8 L176.9 162.8 Z" fill="#7fc8e6" stroke="#117fa8" stroke-width="1.35" opacity="0.88" stroke-linecap="round" stroke-linejoin="round"/>
<path d="M230.4 180.9 L229.1 178.1 L235.9 176 L237.1 178.6 L235.7 176.8 L230.3 178.1 L230.4 180.9 Z" fill="#7fc8e6" stroke="#117fa8" stroke-width="1.35" opacity="0.88" stroke-linecap="round" stroke-linejoin="round"/>
<path d="M159.6 185.9 L155.8 178.6 L159.9 182.8 L159.6 185.9 Z" fill="#7fc8e6" stroke="#117fa8" stroke-width="1.35" opacity="0.88" stroke-linecap="round" stroke-linejoin="round"/>
<path d="M229.8 120.5 L228.4 119.5 L233.4 111.6 L235.4 111.9 L229.8 120.5 Z" fill="#7fc8e6" stroke="#117fa8" stroke-width="1.35" opacity="0.88" stroke-linecap="round" stroke-linejoin="round"/>
<path d="M186 113.7 L174.7 109.7 L186 113.7 Z" fill="#7fc8e6" stroke="#117fa8" stroke-width="1.35" opacity="0.88" stroke-linecap="round" stroke-linejoin="round"/>
<path d="M210.3 177.4 L211.6 173.5 L216.4 170.6 L211.3 174.4 L212.9 177.6 L210.3 177.4 Z" fill="#7fc8e6" stroke="#117fa8" stroke-width="1.35" opacity="0.88" stroke-linecap="round" stroke-linejoin="round"/>
<path d="M243.7 162.9 L239.2 157.2 L243.4 163.1 L240.5 165.5 L243.7 162.9 Z" fill="#7fc8e6" stroke="#117fa8" stroke-width="1.35" opacity="0.88" stroke-linecap="round" stroke-linejoin="round"/>
<path d="M207.4 182.9 L209.3 178 L207.3 177.6 L207.6 176 L207 177.7 L209.1 178.1 L207.4 182.9 Z" fill="#7fc8e6" stroke="#117fa8" stroke-width="1.35" opacity="0.88" stroke-linecap="round" stroke-linejoin="round"/>
<path d="M255.3 211.1 L250.9 204.8 L248.5 212.4 L255.3 211.1 Z" fill="#7fc8e6" stroke="#117fa8" stroke-width="1.35" opacity="0.88" stroke-linecap="round" stroke-linejoin="round"/>
<path d="M206.9 142.4 L200.2 151.1 L206.9 142.4 Z" fill="#7fc8e6" stroke="#117fa8" stroke-width="1.35" opacity="0.88" stroke-linecap="round" stroke-linejoin="round"/>
<path d="M209.9 188.6 L210.7 198.4 L209.9 188.6 Z" fill="#7fc8e6" stroke="#117fa8" stroke-width="1.35" opacity="0.88" stroke-linecap="round" stroke-linejoin="round"/>
<path d="M282.3 161 L277.5 170 L282.3 161 Z" fill="#7fc8e6" stroke="#117fa8" stroke-width="1.35" opacity="0.88" stroke-linecap="round" stroke-linejoin="round"/>
<path d="M138.9 164.4 L135.6 158.3 L136.9 157 L138.3 161.4 L140.8 161.1 L138.5 161.7 L138.9 164.4 Z" fill="#7fc8e6" stroke="#117fa8" stroke-width="1.35" opacity="0.88" stroke-linecap="round" stroke-linejoin="round"/>
<path d="M264.8 156.6 L265.9 147.5 L264.8 156.6 Z" fill="#7fc8e6" stroke="#117fa8" stroke-width="1.35" opacity="0.88" stroke-linecap="round" stroke-linejoin="round"/>
<path d="M158.4 165.1 L149.5 167 L149.8 169 L149.1 166.9 L158.4 165.1 Z" fill="#7fc8e6" stroke="#117fa8" stroke-width="1.35" opacity="0.88" stroke-linecap="round" stroke-linejoin="round"/>
<path d="M204.4 137.9 L207.2 136.8 L204 133.2 L206.3 131.9 L204.4 133.2 L207.7 137.2 L204.4 137.9 Z" fill="#7fc8e6" stroke="#117fa8" stroke-width="1.35" opacity="0.88" stroke-linecap="round" stroke-linejoin="round"/>
<path d="M217.5 171.4 L210.2 164.3 L217.5 171.4 Z" fill="#7fc8e6" stroke="#117fa8" stroke-width="1.35" opacity="0.88" stroke-linecap="round" stroke-linejoin="round"/>
<path d="M251.5 167.4 L249.4 168.5 L249.9 175.5 L249.7 168.7 L251.5 167.4 Z" fill="#7fc8e6" stroke="#117fa8" stroke-width="1.35" opacity="0.88" stroke-linecap="round" stroke-linejoin="round"/>
<path d="M305.1 180.5 L316.5 179.1 L305.1 180.5 Z" fill="#7fc8e6" stroke="#117fa8" stroke-width="1.35" opacity="0.88" stroke-linecap="round" stroke-linejoin="round"/>
<path d="M231.9 163 L231.6 155 L230 162 L231.9 163 Z" fill="#7fc8e6" stroke="#117fa8" stroke-width="1.35" opacity="0.88" stroke-linecap="round" stroke-linejoin="round"/>
<path d="M243.6 163.3 L252.3 167.3 L245.4 165.6 L243.6 163.3 Z" fill="#7fc8e6" stroke="#117fa8" stroke-width="1.35" opacity="0.88" stroke-linecap="round" stroke-linejoin="round"/>
<path d="M234.5 152.3 L228.1 149.2 L224.2 149.5 L228.3 149 L234.5 152.3 Z" fill="#7fc8e6" stroke="#117fa8" stroke-width="1.35" opacity="0.88" stroke-linecap="round" stroke-linejoin="round"/>
<path d="M233.9 229.7 L228.3 224.1 L230.6 223.6 L236.1 227.7 L233.9 229.7 Z" fill="#7fc8e6" stroke="#117fa8" stroke-width="1.35" opacity="0.88" stroke-linecap="round" stroke-linejoin="round"/>
<path d="M404.7 133.7 L411.2 127.2 L404.3 132.2 L404.7 133.7 Z" fill="#7fc8e6" stroke="#117fa8" stroke-width="1.35" opacity="0.88" stroke-linecap="round" stroke-linejoin="round"/>
<path d="M228.5 166.2 L220.6 160.1 L228.5 166.2 Z" fill="#7fc8e6" stroke="#117fa8" stroke-width="1.35" opacity="0.88" stroke-linecap="round" stroke-linejoin="round"/>
<path d="M240.9 166 L235.8 162.7 L232.3 162.7 L240.9 166 Z" fill="#7fc8e6" stroke="#117fa8" stroke-width="1.35" opacity="0.88" stroke-linecap="round" stroke-linejoin="round"/>
<path d="M216.8 133.4 L208.7 128.2 L216.8 133.4 Z" fill="#7fc8e6" stroke="#117fa8" stroke-width="1.35" opacity="0.88" stroke-linecap="round" stroke-linejoin="round"/>
<path d="M275.9 170.1 L276.7 173.4 L273.8 177.2 L277.1 173.4 L275.9 170.1 Z" fill="#7fc8e6" stroke="#117fa8" stroke-width="1.35" opacity="0.88" stroke-linecap="round" stroke-linejoin="round"/>
<path d="M130.8 212.8 L126.3 206.3 L129.2 213 L130.8 212.8 Z" fill="#7fc8e6" stroke="#117fa8" stroke-width="1.35" opacity="0.88" stroke-linecap="round" stroke-linejoin="round"/>
<path d="M183 123.3 L185 126.1 L189.5 122.8 L185.3 125.8 L183 123.3 Z" fill="#7fc8e6" stroke="#117fa8" stroke-width="1.35" opacity="0.88" stroke-linecap="round" stroke-linejoin="round"/>
<path d="M141.6 170.8 L139.4 164 L141.2 164 L141.6 170.8 Z" fill="#7fc8e6" stroke="#117fa8" stroke-width="1.35" opacity="0.88" stroke-linecap="round" stroke-linejoin="round"/>
<path d="M216.6 136.7 L225.6 140.9 L216.6 136.7 Z" fill="#7fc8e6" stroke="#117fa8" stroke-width="1.35" opacity="0.88" stroke-linecap="round" stroke-linejoin="round"/>
<path d="M275.6 162.8 L271.2 165 L275.6 162.8 Z" fill="#7fc8e6" stroke="#117fa8" stroke-width="1.35" opacity="0.88" stroke-linecap="round" stroke-linejoin="round"/>
<path d="M216.1 187 L218.9 194.3 L216.1 187 Z" fill="#7fc8e6" stroke="#117fa8" stroke-width="1.35" opacity="0.88" stroke-linecap="round" stroke-linejoin="round"/>
<path d="M258.5 158.5 L249.7 155.1 L258.5 158.5 Z" fill="#7fc8e6" stroke="#117fa8" stroke-width="1.35" opacity="0.88" stroke-linecap="round" stroke-linejoin="round"/>
<path d="M212.9 177.6 L214.1 184.4 L212.9 177.6 Z" fill="#7fc8e6" stroke="#117fa8" stroke-width="1.35" opacity="0.88" stroke-linecap="round" stroke-linejoin="round"/>
<path d="M220.9 176.4 L224.4 182.6 L220.9 176.4 Z" fill="#7fc8e6" stroke="#117fa8" stroke-width="1.35" opacity="0.88" stroke-linecap="round" stroke-linejoin="round"/>
<path d="M210.1 177.4 L209 184.7 L210.1 177.4 Z" fill="#7fc8e6" stroke="#117fa8" stroke-width="1.35" opacity="0.88" stroke-linecap="round" stroke-linejoin="round"/>
<path d="M235.7 142.9 L239.8 149.4 L235.7 142.9 Z" fill="#7fc8e6" stroke="#117fa8" stroke-width="1.35" opacity="0.88" stroke-linecap="round" stroke-linejoin="round"/>
<path d="M208.8 128 L200 125.5 L208.8 128 Z" fill="#7fc8e6" stroke="#117fa8" stroke-width="1.35" opacity="0.88" stroke-linecap="round" stroke-linejoin="round"/>
<path d="M207.8 129.9 L215.2 134.3 L207.8 129.9 Z" fill="#7fc8e6" stroke="#117fa8" stroke-width="1.35" opacity="0.88" stroke-linecap="round" stroke-linejoin="round"/>
<path d="M226.1 140 L229.2 134.7 L226.1 140 Z" fill="#7fc8e6" stroke="#117fa8" stroke-width="1.35" opacity="0.88" stroke-linecap="round" stroke-linejoin="round"/>
<path d="M191.6 215.4 L183.6 213.7 L191.6 215.4 Z" fill="#7fc8e6" stroke="#117fa8" stroke-width="1.35" opacity="0.88" stroke-linecap="round" stroke-linejoin="round"/>
<path d="M203.7 163.4 L202.1 157.5 L203.7 163.4 Z" fill="#7fc8e6" stroke="#117fa8" stroke-width="1.35" opacity="0.88" stroke-linecap="round" stroke-linejoin="round"/>
<path d="M400 139.7 L405 133.8 L400 139.7 Z" fill="#7fc8e6" stroke="#117fa8" stroke-width="1.35" opacity="0.88" stroke-linecap="round" stroke-linejoin="round"/>
<path d="M198 138.6 L193.8 144.7 L198 138.6 Z" fill="#7fc8e6" stroke="#117fa8" stroke-width="1.35" opacity="0.88" stroke-linecap="round" stroke-linejoin="round"/>
<path d="M250.8 158.9 L243.8 163.1 L250.8 158.9 Z" fill="#7fc8e6" stroke="#117fa8" stroke-width="1.35" opacity="0.88" stroke-linecap="round" stroke-linejoin="round"/>
<path d="M198.8 117 L202.8 111.5 L198.8 117 Z" fill="#7fc8e6" stroke="#117fa8" stroke-width="1.35" opacity="0.88" stroke-linecap="round" stroke-linejoin="round"/>
<path d="M218.7 132.6 L220.2 133.3 L224.5 128.7 L218.7 132.6 Z" fill="#7fc8e6" stroke="#117fa8" stroke-width="1.35" opacity="0.88" stroke-linecap="round" stroke-linejoin="round"/>
<path d="M232.4 137.6 L227.7 137.4 L232.4 137.6 Z" fill="#7fc8e6" stroke="#117fa8" stroke-width="1.35" opacity="0.88" stroke-linecap="round" stroke-linejoin="round"/>
<path d="M206.3 131.9 L213 135.6 L206.3 131.9 Z" fill="#7fc8e6" stroke="#117fa8" stroke-width="1.35" opacity="0.88" stroke-linecap="round" stroke-linejoin="round"/>
<path d="M271.2 165 L276.3 170.2 L271.2 165 Z" fill="#7fc8e6" stroke="#117fa8" stroke-width="1.35" opacity="0.88" stroke-linecap="round" stroke-linejoin="round"/>
<path d="M208.5 162.2 L204.2 156.7 L208.5 162.2 Z" fill="#7fc8e6" stroke="#117fa8" stroke-width="1.35" opacity="0.88" stroke-linecap="round" stroke-linejoin="round"/>
</g>
<g data-layer="coastline">
<path d="M353.5 310 L355.6 310.1 L354.7 308.6 L358.8 304.9 L362.7 306.9 L358.6 304.2 L362.9 300.2 L367.2 302.5 L363.1 300 L364.5 297.4 L367.3 295.4 L371.5 297.7 L367.3 295.1 L369.5 292.3 L371.5 290.7 L376.2 292.8 L373.1 291 L374.5 288 L383.2 281.4 L387.4 282.5 L384.5 280.7 L385.7 277.7 L392.7 271.9 L395.4 273 L393.5 271.8 L394.6 269.4 L413.1 253" fill="none" stroke="#0f789e" stroke-width="2.8" opacity="0.78" stroke-linecap="round" stroke-linejoin="round"/>
</g>
<g data-layer="major-road-casing">
<path d="M120.3 118.2 L133.7 126.4 L137.3 134.5 M137.8 134.5 L135.2 127.4 L122.1 118.9 M144.6 149.9 L150.9 154.4 M148.6 152.5 L144.9 149.6 M151.4 154 L148.6 152.5 M138.1 139.4 L137.8 135.7 M137.4 135.9 L137.7 139.4 M140.5 145.5 L143.5 148.9 M138.3 140.7 L138.1 139.4 M142.9 147.7 L140.8 145.3 M151.3 154.5 L151.4 154 M150.9 154.4 L151.3 154.5 M137.3 134.5 L137.4 135.9 M137.8 135.7 L137.8 134.5 M144.9 149.6 L143.8 148.7 M143.5 148.9 L144.6 149.9 M139.3 143.4 L138.3 140.7 M139 143.7 L140.2 145.2 M140.5 144.9 L139.3 143.4 M143.8 148.7 L143.4 148.2 M143.4 148.2 L142.9 147.7 M137.7 139.4 L137.7 139.5 M138 141.5 L138.5 142.9 M140.8 145.3 L140.5 144.9 M137.7 139.5 L137.8 140.7 M140.2 145.2 L140.5 145.5 M138.7 143.2 L139 143.7 M137.8 140.7 L138 141.5 M138.5 142.9 L138.7 143.2 M122.1 118.9 L8.5 49.7 M0 40.2 L120.3 118.2 M138.8 142.5 L137.8 140.7 M388.7 259 L360.4 249.8 M354.9 264.3 L351.8 258.5 L354.8 253.9 M346.7 288.9 L353.3 270.6 M391.6 227.2 L397 215.8 M361.3 245.8 L370.8 243.9 M375.3 242.3 L385.5 237 M393.6 257.5 L408.6 239.1 M374.5 281 L390.1 261.9 M374.5 281 L344.5 311.8 M407.1 200.8 L411.9 194.7 M401.8 208.8 L404.8 204 M353.4 270.3 L355 265 M355 253.7 L356.6 251.9 M356.6 251.9 L357.4 250.1 M389.1 232.5 L391.4 227.8 M399.4 212.3 L397 215.8 M397 215.8 L399.4 212.3 M358.6 247.7 L357.7 248.6 M371.7 243.9 L371.7 243.9 M358.5 248.7 L358.6 247.7 M360.8 246.2 L359.8 246.8 M357.5 249.3 L357.4 250.1 M358.3 249.5 L359.6 249.6 M359.6 249.6 L358.6 249 M357.4 250.1 L358 249.5 M359.5 247 L358.9 247.4 M358.5 248.7 L357.7 248.6 M389.1 232.5 L387.3 235.3 M361.3 245.8 L360.8 246.2 M388 235.4 L389.1 232.5 M358.9 247.4 L358.6 247.7 M360.4 249.8 L359.6 249.6 M357.7 248.6 L357.4 248.9 M357.4 248.9 L357.5 249.3 M357.5 249.3 L358 249.5 M359.8 246.8 L359.5 247 M358.3 249.5 L358.6 249.2 M405.6 203 L407.1 200.8 M400.5 210.6 L401.8 208.8 M342.5 297.8 L346.3 290 M399.4 212.3 L400.5 210.6 M373.3 243.2 L374.5 242.6 M358.6 249 L358.5 248.7 M358.6 249.2 L358.6 249 M354.8 253.9 L355 253.7 M371.8 243.5 L370.8 243.9 M358 249.5 L358.3 249.5 M370.8 243.9 L371.8 243.9 M373.3 243.2 L372.5 243.3 M372.8 243.6 L373.3 243.2 M374.5 242.6 L375.3 242.3 M404.8 204 L405.6 203 M333.4 310.5 L339.3 302.1 M387 235.6 L386.4 236.4 M385.5 237 L386.4 236.4 M387.4 236.1 L388 235.4 M355 264.9 L354.9 264.3 M386.4 236.4 L387.4 236.1 M391.6 227.2 L391.4 227.8 M387 235.6 L387.4 236.1 M388 235.4 L387.3 235.3 M387.3 235.3 L387 235.6 M355 265 L355 264.9 M353.3 270.6 L353.4 270.3 M392.9 258 L389.7 259.2 M391.8 259.8 L393.6 257.5 M389.5 259.3 L390.1 261.3 M390.1 261.9 L391.5 260.2 M392.9 258 L391.1 259.3 M346.4 289.6 L346.7 288.9 M390.5 260.1 L390.1 261.3 M390.9 259.3 L389.7 259.2 M388.7 259 L389.5 259.3 M389.7 259.2 L388.7 259 M389.5 259.3 L390.4 259.8 M346.3 290 L346.4 289.6 M390.5 260.1 L391.5 260.2 M391.8 259.8 L390.9 259.3 M339.8 301.3 L340.6 300.1 M393.6 257.5 L392.9 258 M342.5 297.8 L341.9 298.6 M390.9 259.3 L390.4 259.8 M390.1 261.3 L390.1 261.9 M340.9 299.4 L340.6 300.1 M341.6 299.3 L341.9 298.6 M341.9 298.6 L341.3 299.1 M391.5 260.2 L391.8 259.8 M340.6 300.1 L341.3 299.7 M339.3 302.1 L339.8 301.3 M390.4 259.8 L390.5 260.1 M341.3 299.1 L340.9 299.4 M341.3 299.7 L341.6 299.3 M340.9 299.4 L341.3 299.7 M341.6 299.3 L341.3 299.1" fill="none" stroke="#fcf7e8" stroke-width="6.4" opacity="0.92" stroke-linecap="round" stroke-linejoin="round"/>
</g>
<g data-layer="major-road">
<path d="M120.3 118.2 L133.7 126.4 L137.3 134.5 M137.8 134.5 L135.2 127.4 L122.1 118.9 M144.6 149.9 L150.9 154.4 M148.6 152.5 L144.9 149.6 M151.4 154 L148.6 152.5 M138.1 139.4 L137.8 135.7 M137.4 135.9 L137.7 139.4 M140.5 145.5 L143.5 148.9 M138.3 140.7 L138.1 139.4 M142.9 147.7 L140.8 145.3 M151.3 154.5 L151.4 154 M150.9 154.4 L151.3 154.5 M137.3 134.5 L137.4 135.9 M137.8 135.7 L137.8 134.5 M144.9 149.6 L143.8 148.7 M143.5 148.9 L144.6 149.9 M139.3 143.4 L138.3 140.7 M139 143.7 L140.2 145.2 M140.5 144.9 L139.3 143.4 M143.8 148.7 L143.4 148.2 M143.4 148.2 L142.9 147.7 M137.7 139.4 L137.7 139.5 M138 141.5 L138.5 142.9 M140.8 145.3 L140.5 144.9 M137.7 139.5 L137.8 140.7 M140.2 145.2 L140.5 145.5 M138.7 143.2 L139 143.7 M137.8 140.7 L138 141.5 M138.5 142.9 L138.7 143.2 M122.1 118.9 L8.5 49.7 M0 40.2 L120.3 118.2 M138.8 142.5 L137.8 140.7 M388.7 259 L360.4 249.8 M354.9 264.3 L351.8 258.5 L354.8 253.9 M346.7 288.9 L353.3 270.6 M391.6 227.2 L397 215.8 M361.3 245.8 L370.8 243.9 M375.3 242.3 L385.5 237 M393.6 257.5 L408.6 239.1 M374.5 281 L390.1 261.9 M374.5 281 L344.5 311.8 M407.1 200.8 L411.9 194.7 M401.8 208.8 L404.8 204 M353.4 270.3 L355 265 M355 253.7 L356.6 251.9 M356.6 251.9 L357.4 250.1 M389.1 232.5 L391.4 227.8 M399.4 212.3 L397 215.8 M397 215.8 L399.4 212.3 M358.6 247.7 L357.7 248.6 M371.7 243.9 L371.7 243.9 M358.5 248.7 L358.6 247.7 M360.8 246.2 L359.8 246.8 M357.5 249.3 L357.4 250.1 M358.3 249.5 L359.6 249.6 M359.6 249.6 L358.6 249 M357.4 250.1 L358 249.5 M359.5 247 L358.9 247.4 M358.5 248.7 L357.7 248.6 M389.1 232.5 L387.3 235.3 M361.3 245.8 L360.8 246.2 M388 235.4 L389.1 232.5 M358.9 247.4 L358.6 247.7 M360.4 249.8 L359.6 249.6 M357.7 248.6 L357.4 248.9 M357.4 248.9 L357.5 249.3 M357.5 249.3 L358 249.5 M359.8 246.8 L359.5 247 M358.3 249.5 L358.6 249.2 M405.6 203 L407.1 200.8 M400.5 210.6 L401.8 208.8 M342.5 297.8 L346.3 290 M399.4 212.3 L400.5 210.6 M373.3 243.2 L374.5 242.6 M358.6 249 L358.5 248.7 M358.6 249.2 L358.6 249 M354.8 253.9 L355 253.7 M371.8 243.5 L370.8 243.9 M358 249.5 L358.3 249.5 M370.8 243.9 L371.8 243.9 M373.3 243.2 L372.5 243.3 M372.8 243.6 L373.3 243.2 M374.5 242.6 L375.3 242.3 M404.8 204 L405.6 203 M333.4 310.5 L339.3 302.1 M387 235.6 L386.4 236.4 M385.5 237 L386.4 236.4 M387.4 236.1 L388 235.4 M355 264.9 L354.9 264.3 M386.4 236.4 L387.4 236.1 M391.6 227.2 L391.4 227.8 M387 235.6 L387.4 236.1 M388 235.4 L387.3 235.3 M387.3 235.3 L387 235.6 M355 265 L355 264.9 M353.3 270.6 L353.4 270.3 M392.9 258 L389.7 259.2 M391.8 259.8 L393.6 257.5 M389.5 259.3 L390.1 261.3 M390.1 261.9 L391.5 260.2 M392.9 258 L391.1 259.3 M346.4 289.6 L346.7 288.9 M390.5 260.1 L390.1 261.3 M390.9 259.3 L389.7 259.2 M388.7 259 L389.5 259.3 M389.7 259.2 L388.7 259 M389.5 259.3 L390.4 259.8 M346.3 290 L346.4 289.6 M390.5 260.1 L391.5 260.2 M391.8 259.8 L390.9 259.3 M339.8 301.3 L340.6 300.1 M393.6 257.5 L392.9 258 M342.5 297.8 L341.9 298.6 M390.9 259.3 L390.4 259.8 M390.1 261.3 L390.1 261.9 M340.9 299.4 L340.6 300.1 M341.6 299.3 L341.9 298.6 M341.9 298.6 L341.3 299.1 M391.5 260.2 L391.8 259.8 M340.6 300.1 L341.3 299.7 M339.3 302.1 L339.8 301.3 M390.4 259.8 L390.5 260.1 M341.3 299.1 L340.9 299.4 M341.3 299.7 L341.6 299.3 M340.9 299.4 L341.3 299.7 M341.6 299.3 L341.3 299.1" fill="none" stroke="#1f3733" stroke-width="2.7" opacity="0.9" stroke-linecap="round" stroke-linejoin="round"/>
</g>
<g data-layer="minor-road-casing">
<path d="M386 252.5 L403.1 229.4 L402.8 223.7 L397 215.8 M363.4 285.9 L380.6 260.5 L380.3 256.2 M386 252.5 L374 249.4 L372.3 244.6 M391.4 249.3 L400.2 238.9 M346.3 290 L352.2 290.5 L348.3 297.2 M357.4 273.4 L360.9 279.4 L359 283.2 M365.5 261 L368.2 261.7 L371 266.5 L375.3 267.7 M365.6 258.8 L379.5 261.8 M369 252.6 L379.7 245.5 M391.8 226.9 L398.2 236 M332.7 297.8 L337.7 288.3 M396.9 236.9 L391.3 227.9 M400.5 210.6 L412.6 214.9 M351.8 258.5 L364.6 261 M388.9 248.6 L400.8 248.6 M363.2 258.4 L364.1 256.2 L354.6 254.1 M383.9 246.6 L387.4 237.3 M385.7 241.7 L396.9 236.9 M358.5 272 L370.4 275.5 M376.4 255 L380.6 246.1 M353 256.1 L364.8 258.7 M355.8 281.2 L355.3 272.9 M383.5 247.6 L380.3 256.2 M367.8 252.2 L372.6 244 M369.8 255.9 L381 258.7 M392.1 226.3 L402.8 229.9 M372.6 280.5 L363.7 286.1 M336.4 306.1 L346.5 309.6 M359.1 283.3 L350.7 278 M376.1 272.4 L372.9 279.9 M397.5 237.3 L406.2 242.1 M370 273.5 L368 273.1 L368.4 271.4 L362.3 269.9 M364.5 263.9 L354 262.8 M356.3 252.2 L366.2 254.9 M391.7 244.9 L401.7 245.3 M359.8 283.7 L368 288.5 M364.3 267.5 L374.4 269.4 M385.5 245.9 L391.6 239.7 M368.2 261.7 L373.2 264.7 L372 266.9 M393.7 240.9 L388.3 247.5 M359 283.2 L353.3 289.3 M389.2 232.4 L396.9 236.9 M365.1 244.7 L366.8 251.9 M340.5 296.8 L343.7 290 M355 265 L363.2 268.1 M347.6 269.5 L344.2 275.8 M355.3 287.1 L348.9 282.8 M351 270.3 L348.6 276.9 M342.3 275.4 L350.7 278 M341.6 290.3 L340.5 296.8 M358.6 291.5 L363.4 285.9 M374.7 269.5 L376.1 272.4 L380.2 274.2 M329.3 304.3 L332.8 310.3 M394.6 241.4 L401.5 244.7 M393.7 240.9 L387.4 237.3 M397 227.8 L400.2 222.4 M376.4 255 L373.7 260.5 M400.2 238.9 L402.3 244.5 M348.9 297.8 L353.9 301.9 M336.4 306.1 L329.7 303.9 M364.8 258.7 L364.5 263.9 M380.6 255.3 L386 252.5 M348.2 302.8 L342.5 300 M329.2 303.6 L332.1 299 M380.7 244.9 L385.7 241.7 M340 297.3 L334.8 294.1 M379.7 245.5 L374.2 242.7 M346.8 288.6 L353.3 289.3 M402.8 229.9 L407.6 233.2 M347.7 267.7 L353.7 269.1 M375.6 242.2 L380.7 244.9 M385.7 241.7 L390.8 244.4 M396.7 237.1 L393.7 240.9 M384.1 257.4 L386.7 253.5 M353.2 270.8 L347.6 269.5 M373.2 246.7 L378.1 244.7 M343.3 284.2 L345 280.1 M358.6 291.5 L363.5 293.5 M348.7 261.7 L354 262.8 M381.3 239.3 L385.7 241.7 M383.5 247.6 L387.8 249.9 M350.7 293 L345.4 292.5 M337.7 288.3 L342.8 289.4 M326.2 307.5 L328.7 304.1 M339.8 290.9 L335.4 292.9 M346.4 276.4 L345 280.1 M354.2 289.7 L358.6 291.5 M372.7 280.1 L368.6 277.9 M347.9 285.5 L343.3 284.2 M357.4 273.4 L352.7 272.3 M345 280.1 L349.6 281 M379.7 245.5 L383.5 247.6 M394.6 262.8 L394.7 259.9 M325.3 308.8 L329.3 310.2 M349.2 260.6 L353.1 261.4 M329.6 309.1 L326.2 307.5 M383.9 246.6 L380.7 244.9 M366.2 254.9 L369.8 255.9 M390.1 261.9 L393.8 262.3 M371.2 253.3 L369.8 255.9 M388.3 247.5 L385.5 245.9 M370.4 275.5 L373.4 276.5 M391.1 236.6 L392.7 238.8 M388 235.9 L391.1 236.6 M342.5 297.8 L345.5 298.5 M393.1 234.7 L391.1 236.6 M348.8 303.1 L351.2 304.5 M358.4 287.8 L360.8 289.1 M368.7 263.8 L371.4 262.9 M342.6 290.1 L339.8 290.9 M372.8 280 L372.8 280 M345.3 289.9 L342.6 290.1 M400.7 220.4 L400.2 222.4 M345.3 289.9 L342.8 289.4 M353.3 282.1 L354.9 280.6 M328.9 304.3 L328.9 304.3 M356.9 282 L355.4 283.4 M324.2 310.3 L325.3 308.8 M340.9 298.6 L340 297.3 M361.8 279.3 L363.6 279.4 M400.2 222.4 L401.7 221.8 M409.3 197.8 L409.6 197.4 M407.6 233.2 L408.2 234.3 M384.4 245.3 L385.5 245.9 M409 233.1 L407.6 233.2 M325.9 310.1 L326.5 309.1 M326.8 310.4 L327.5 309.5 M387.4 237.3 L387.7 236.4 M342.5 300 L341.6 299.4 M374.7 269.5 L374.9 268.7 M341.4 299.6 L342.5 300 M374.5 281 L373.6 280.5 M348.3 297.2 L348.9 297.8 M339.8 290.9 L340.5 291.4 M342.8 289.4 L342.6 290.1 M346.3 290 L345.3 289.9 M340.9 298.6 L340.9 299.3 M383.6 247.4 L383.8 246.8 M353.5 289.4 L354.2 289.7 M359.8 283.7 L359.1 283.3 M364.6 266.7 L363.8 266.5 M175 160.6 L174.7 161.2 M340 297.3 L340.5 296.8 M341.2 299.1 L340.9 298.6 M348.2 302.8 L348.8 303.1 M393.8 241 L394.3 241.3 M340.8 296.2 L340.2 296.2 M363.2 268.1 L363.7 268.1 M397.1 237 L397.5 237.3 M364.9 258.7 L365.4 258.8 M387.7 236.4 L387.9 236 M387.5 236.1 L387.7 236.4 M374.4 269.4 L374.7 269.5 M383.8 246.8 L383.9 246.6 M394.3 241.3 L394.6 241.4 M383.5 247.6 L383.6 247.4 M363.7 268.1 L364 268.1 M353.3 289.3 L353.5 289.4 M396.9 236.9 L397.1 237 M174.9 160.4 L175 160.6 M393.7 240.9 L393.8 241 M365.4 258.8 L365.6 258.8 M364.8 258.7 L364.9 258.7 M175 160.8 L174.9 160.8 M134.8 158.6 L133.4 163.7 L121.5 176.7 L121 179.4 L123.8 182.8 L131.8 182.9 L133.8 185.5 L138.8 185.6 M365.6 258.8 L364.3 267.5 L358.1 273.5 L361.8 279.3 L361.1 284.6 M116.9 138.8 L105.5 133.4 M103.2 132.6 L96.2 140.3 M96.2 140.3 L91.4 146.3 L92.9 147.7 M408.6 239.1 L406.4 236.8 L410.1 231.6 M98.9 142.2 L104.6 135.2 M124.7 143.4 L116.9 138.8 M116.6 139 L124.5 143.6 M136.4 141.6 L129 143.9 M94.7 147.4 L98.9 142.2 M137.6 150.7 L134.9 156.1 M142.5 185.6 L149.5 185.2 M149.5 185.2 L142.5 185.6 M124.5 144.8 L123.8 145.9 L127.9 145.6 M96.2 140.3 L96.5 142 L98.9 142.2 M137.4 143.2 L139.4 140.2 M137.3 142.9 L139.2 140.1 M139.2 147.8 L137.6 150.7 M131.9 145.6 L135.6 144.8 M113.6 137.6 L116.6 139 M128.1 144.9 L124.5 144.8 M104.6 135.2 L107.7 135 M402.2 245.3 L402.2 245.3 M134.9 156.1 L134.8 158.6 M129 143.9 L125.8 144 M139.4 137.8 L138.4 135.8 M139.8 185.6 L142.5 185.6 M105.5 133.4 L103.2 132.6 M108.7 135.4 L110.8 136.4 M137.7 139.5 L137 140.9 M129.9 145.8 L131.9 145.6 M139.9 146.3 L139.2 147.8 M135.6 144.8 L136.8 143.7 M149.4 185.2 L151.3 185.2 M92.9 147.7 L94.7 147.4 M139.7 139.2 L139.4 137.8 M138.4 135.8 L137.8 134.5 M124.5 143.6 L124.5 144.8 M110.8 136.4 L112.2 137 M112.2 137 L113.6 137.6 M127.1 144.6 L125.8 144 M139.4 140.2 L139.7 139.2 M125.8 144 L124.7 143.4 M139.2 140.1 L139.7 139.2 M107.7 135 L108.7 135.4 M140.5 145.5 L139.9 146.3 M136.8 143.7 L137.3 142.9 M128.4 144.2 L127.4 144.6 M128.8 145.7 L129.9 145.8 M137 140.9 L136.4 141.6 M138.8 185.6 L139.8 185.6 M402.5 245.1 L403.3 245.5 M128.1 144.9 L128.4 144.2 M127.9 145.6 L128.1 144.9 M136.4 141.6 L137.2 141.2 M136.8 143.7 L137.4 143.2 M127.9 145.6 L128.8 145.7 M137.8 140.7 L137 140.9 M137.2 141.2 L138 141.5 M391.4 249.3 L391.9 249.7 M129 143.9 L128.4 144.2 M140.8 145.3 L140.5 145.5 M151.2 116.5 L180.6 130.4 M325.4 192.9 L323.3 202.1 L324.4 206.2 L338 212.7 M317.1 155.1 L313.2 151.7 L310.7 153.9 L300.1 155.9 L291 154 M160.8 299.5 L163 306.7 L173 304.5 L171.6 297.7 M258.9 198.6 L255.8 204.8 L260.2 210 L262.7 209.5 L264.7 202.9 M338.6 215 L323.9 210 L319.3 206.3 L320 202.3 M303.4 192.2 L314.9 203.3 L318.9 202.2 M287.6 51.2 L296.2 56 L300.5 55.1 L301.2 50 M163.2 118.2 L164.5 116 L182.7 120.8 M217.2 133.6 L207.7 127.3 L199.3 124.7 M180.1 193 L160.1 188.1 M293.3 75.8 L285.5 68.2 L278.5 66 M304.6 174.9 L303.2 169.5 L305.2 165 L310.9 165.6 M285.1 183 L305 180.7 M250.2 194.1 L253.3 192.1 L266.3 195.2 M327.7 206.9 L325.2 206 L324.1 201.6 L325.9 194 M300.7 190.9 L285.1 183 M315.3 68.7 L320.9 67.6 L323.6 61.5 L326.1 60.4 M292 60.9 L290.6 56.8 L285.9 55.7 L278.7 57.1 M231.1 207.2 L237.4 219.2 M337.3 211.1 L335.2 197.6 M213.8 212.2 L196 210.6 M214.7 212.3 L231.1 207.2 M304.6 174.9 L289.5 174.1 L289.3 175.7 M289.3 179.5 L295.3 177.7 L306.1 178.3 M264.7 202.9 L251.6 199 L251.6 197.3 M157.6 162.8 L142 166.2 M160.2 297.1 L154.9 298 L155.6 300.3 L159.9 299.5 L159.2 297.2 M280.1 96.6 L289.4 87 M238.2 177.4 L237.1 174.4 L229.7 176.6 L228.6 174.2 M147.3 120.8 L150.6 117.7 L159 122.2 M173.2 217.1 L178.7 206.3 M304.3 89 L305.4 77.7 M273.4 96.1 L273.3 89 L269.6 85.8 M310.3 81.6 L309.5 77.5 L314.6 71.4 M199.4 212 L198.3 217 L196.3 216.6 L194.7 221.1 M289.2 176.7 L302.8 176.7 M150.6 151.3 L147.8 148.4 L140.5 153.3 M292.4 77.3 L293.6 83 L289.4 87 M159.7 134.9 L164.1 133.2 L170.9 138.4 M197.5 211.7 L193.7 220 L194.7 221.1 M305.5 188 L318.9 184.3 M198 124.3 L184.7 120.6 M172.2 204.7 L185.5 208.1 M227.3 124.6 L238.3 131 M266.4 194.4 L254 190.9 M168.3 140.9 L157.9 134.1 M188.1 123 L185.6 125 L183.8 123.6 L188.1 123 M300.1 55.3 L302.1 49.1 L297.3 48.7 M131.8 177 L134 177.9 L134.7 185.7 M311.3 64.9 L316.7 55.5 M155 134.9 L145.3 128.2 M156.4 206.3 L169.2 209.8 M154.9 298 L154.4 296.4 L163.8 293.3 M222.9 211.6 L225.6 217.9 L224.1 221 M156.1 160.9 L143.4 163.6 M224.1 211.3 L228.3 219.1 L230.2 218.8 M184.6 116.4 L196.7 120.2 M306.3 189.9 L318.6 186.5 M159 167.5 L146.5 170.3 M156.3 160.2 L143.9 163 M161.6 150.7 L169.6 143.2 M168.4 112.4 L180.5 115.4 M281.5 87.3 L279.4 80 L282.1 79.5 M300.4 181 L302 190.5 M300.5 57.6 L296.9 66.7 M298.1 70.5 L304 69.3 L308.3 65.7 M308 62.8 L313 54 M304.6 63.6 L312.7 66.5 L313.9 68.8 M337.3 197.5 L338.3 206.3 M226.5 177 L223.8 171.8 L219.1 173 M125.4 177.4 L137.6 175.8 M198.3 197.7 L210.5 198.3" fill="none" stroke="#fbf7eb" stroke-width="3.4" opacity="0.62" stroke-linecap="round" stroke-linejoin="round"/>
</g>
<g data-layer="minor-road">
<path d="M386 252.5 L403.1 229.4 L402.8 223.7 L397 215.8 M363.4 285.9 L380.6 260.5 L380.3 256.2 M386 252.5 L374 249.4 L372.3 244.6 M391.4 249.3 L400.2 238.9 M346.3 290 L352.2 290.5 L348.3 297.2 M357.4 273.4 L360.9 279.4 L359 283.2 M365.5 261 L368.2 261.7 L371 266.5 L375.3 267.7 M365.6 258.8 L379.5 261.8 M369 252.6 L379.7 245.5 M391.8 226.9 L398.2 236 M332.7 297.8 L337.7 288.3 M396.9 236.9 L391.3 227.9 M400.5 210.6 L412.6 214.9 M351.8 258.5 L364.6 261 M388.9 248.6 L400.8 248.6 M363.2 258.4 L364.1 256.2 L354.6 254.1 M383.9 246.6 L387.4 237.3 M385.7 241.7 L396.9 236.9 M358.5 272 L370.4 275.5 M376.4 255 L380.6 246.1 M353 256.1 L364.8 258.7 M355.8 281.2 L355.3 272.9 M383.5 247.6 L380.3 256.2 M367.8 252.2 L372.6 244 M369.8 255.9 L381 258.7 M392.1 226.3 L402.8 229.9 M372.6 280.5 L363.7 286.1 M336.4 306.1 L346.5 309.6 M359.1 283.3 L350.7 278 M376.1 272.4 L372.9 279.9 M397.5 237.3 L406.2 242.1 M370 273.5 L368 273.1 L368.4 271.4 L362.3 269.9 M364.5 263.9 L354 262.8 M356.3 252.2 L366.2 254.9 M391.7 244.9 L401.7 245.3 M359.8 283.7 L368 288.5 M364.3 267.5 L374.4 269.4 M385.5 245.9 L391.6 239.7 M368.2 261.7 L373.2 264.7 L372 266.9 M393.7 240.9 L388.3 247.5 M359 283.2 L353.3 289.3 M389.2 232.4 L396.9 236.9 M365.1 244.7 L366.8 251.9 M340.5 296.8 L343.7 290 M355 265 L363.2 268.1 M347.6 269.5 L344.2 275.8 M355.3 287.1 L348.9 282.8 M351 270.3 L348.6 276.9 M342.3 275.4 L350.7 278 M341.6 290.3 L340.5 296.8 M358.6 291.5 L363.4 285.9 M374.7 269.5 L376.1 272.4 L380.2 274.2 M329.3 304.3 L332.8 310.3 M394.6 241.4 L401.5 244.7 M393.7 240.9 L387.4 237.3 M397 227.8 L400.2 222.4 M376.4 255 L373.7 260.5 M400.2 238.9 L402.3 244.5 M348.9 297.8 L353.9 301.9 M336.4 306.1 L329.7 303.9 M364.8 258.7 L364.5 263.9 M380.6 255.3 L386 252.5 M348.2 302.8 L342.5 300 M329.2 303.6 L332.1 299 M380.7 244.9 L385.7 241.7 M340 297.3 L334.8 294.1 M379.7 245.5 L374.2 242.7 M346.8 288.6 L353.3 289.3 M402.8 229.9 L407.6 233.2 M347.7 267.7 L353.7 269.1 M375.6 242.2 L380.7 244.9 M385.7 241.7 L390.8 244.4 M396.7 237.1 L393.7 240.9 M384.1 257.4 L386.7 253.5 M353.2 270.8 L347.6 269.5 M373.2 246.7 L378.1 244.7 M343.3 284.2 L345 280.1 M358.6 291.5 L363.5 293.5 M348.7 261.7 L354 262.8 M381.3 239.3 L385.7 241.7 M383.5 247.6 L387.8 249.9 M350.7 293 L345.4 292.5 M337.7 288.3 L342.8 289.4 M326.2 307.5 L328.7 304.1 M339.8 290.9 L335.4 292.9 M346.4 276.4 L345 280.1 M354.2 289.7 L358.6 291.5 M372.7 280.1 L368.6 277.9 M347.9 285.5 L343.3 284.2 M357.4 273.4 L352.7 272.3 M345 280.1 L349.6 281 M379.7 245.5 L383.5 247.6 M394.6 262.8 L394.7 259.9 M325.3 308.8 L329.3 310.2 M349.2 260.6 L353.1 261.4 M329.6 309.1 L326.2 307.5 M383.9 246.6 L380.7 244.9 M366.2 254.9 L369.8 255.9 M390.1 261.9 L393.8 262.3 M371.2 253.3 L369.8 255.9 M388.3 247.5 L385.5 245.9 M370.4 275.5 L373.4 276.5 M391.1 236.6 L392.7 238.8 M388 235.9 L391.1 236.6 M342.5 297.8 L345.5 298.5 M393.1 234.7 L391.1 236.6 M348.8 303.1 L351.2 304.5 M358.4 287.8 L360.8 289.1 M368.7 263.8 L371.4 262.9 M342.6 290.1 L339.8 290.9 M372.8 280 L372.8 280 M345.3 289.9 L342.6 290.1 M400.7 220.4 L400.2 222.4 M345.3 289.9 L342.8 289.4 M353.3 282.1 L354.9 280.6 M328.9 304.3 L328.9 304.3 M356.9 282 L355.4 283.4 M324.2 310.3 L325.3 308.8 M340.9 298.6 L340 297.3 M361.8 279.3 L363.6 279.4 M400.2 222.4 L401.7 221.8 M409.3 197.8 L409.6 197.4 M407.6 233.2 L408.2 234.3 M384.4 245.3 L385.5 245.9 M409 233.1 L407.6 233.2 M325.9 310.1 L326.5 309.1 M326.8 310.4 L327.5 309.5 M387.4 237.3 L387.7 236.4 M342.5 300 L341.6 299.4 M374.7 269.5 L374.9 268.7 M341.4 299.6 L342.5 300 M374.5 281 L373.6 280.5 M348.3 297.2 L348.9 297.8 M339.8 290.9 L340.5 291.4 M342.8 289.4 L342.6 290.1 M346.3 290 L345.3 289.9 M340.9 298.6 L340.9 299.3 M383.6 247.4 L383.8 246.8 M353.5 289.4 L354.2 289.7 M359.8 283.7 L359.1 283.3 M364.6 266.7 L363.8 266.5 M175 160.6 L174.7 161.2 M340 297.3 L340.5 296.8 M341.2 299.1 L340.9 298.6 M348.2 302.8 L348.8 303.1 M393.8 241 L394.3 241.3 M340.8 296.2 L340.2 296.2 M363.2 268.1 L363.7 268.1 M397.1 237 L397.5 237.3 M364.9 258.7 L365.4 258.8 M387.7 236.4 L387.9 236 M387.5 236.1 L387.7 236.4 M374.4 269.4 L374.7 269.5 M383.8 246.8 L383.9 246.6 M394.3 241.3 L394.6 241.4 M383.5 247.6 L383.6 247.4 M363.7 268.1 L364 268.1 M353.3 289.3 L353.5 289.4 M396.9 236.9 L397.1 237 M174.9 160.4 L175 160.6 M393.7 240.9 L393.8 241 M365.4 258.8 L365.6 258.8 M364.8 258.7 L364.9 258.7 M175 160.8 L174.9 160.8 M134.8 158.6 L133.4 163.7 L121.5 176.7 L121 179.4 L123.8 182.8 L131.8 182.9 L133.8 185.5 L138.8 185.6 M365.6 258.8 L364.3 267.5 L358.1 273.5 L361.8 279.3 L361.1 284.6 M116.9 138.8 L105.5 133.4 M103.2 132.6 L96.2 140.3 M96.2 140.3 L91.4 146.3 L92.9 147.7 M408.6 239.1 L406.4 236.8 L410.1 231.6 M98.9 142.2 L104.6 135.2 M124.7 143.4 L116.9 138.8 M116.6 139 L124.5 143.6 M136.4 141.6 L129 143.9 M94.7 147.4 L98.9 142.2 M137.6 150.7 L134.9 156.1 M142.5 185.6 L149.5 185.2 M149.5 185.2 L142.5 185.6 M124.5 144.8 L123.8 145.9 L127.9 145.6 M96.2 140.3 L96.5 142 L98.9 142.2 M137.4 143.2 L139.4 140.2 M137.3 142.9 L139.2 140.1 M139.2 147.8 L137.6 150.7 M131.9 145.6 L135.6 144.8 M113.6 137.6 L116.6 139 M128.1 144.9 L124.5 144.8 M104.6 135.2 L107.7 135 M402.2 245.3 L402.2 245.3 M134.9 156.1 L134.8 158.6 M129 143.9 L125.8 144 M139.4 137.8 L138.4 135.8 M139.8 185.6 L142.5 185.6 M105.5 133.4 L103.2 132.6 M108.7 135.4 L110.8 136.4 M137.7 139.5 L137 140.9 M129.9 145.8 L131.9 145.6 M139.9 146.3 L139.2 147.8 M135.6 144.8 L136.8 143.7 M149.4 185.2 L151.3 185.2 M92.9 147.7 L94.7 147.4 M139.7 139.2 L139.4 137.8 M138.4 135.8 L137.8 134.5 M124.5 143.6 L124.5 144.8 M110.8 136.4 L112.2 137 M112.2 137 L113.6 137.6 M127.1 144.6 L125.8 144 M139.4 140.2 L139.7 139.2 M125.8 144 L124.7 143.4 M139.2 140.1 L139.7 139.2 M107.7 135 L108.7 135.4 M140.5 145.5 L139.9 146.3 M136.8 143.7 L137.3 142.9 M128.4 144.2 L127.4 144.6 M128.8 145.7 L129.9 145.8 M137 140.9 L136.4 141.6 M138.8 185.6 L139.8 185.6 M402.5 245.1 L403.3 245.5 M128.1 144.9 L128.4 144.2 M127.9 145.6 L128.1 144.9 M136.4 141.6 L137.2 141.2 M136.8 143.7 L137.4 143.2 M127.9 145.6 L128.8 145.7 M137.8 140.7 L137 140.9 M137.2 141.2 L138 141.5 M391.4 249.3 L391.9 249.7 M129 143.9 L128.4 144.2 M140.8 145.3 L140.5 145.5 M151.2 116.5 L180.6 130.4 M325.4 192.9 L323.3 202.1 L324.4 206.2 L338 212.7 M317.1 155.1 L313.2 151.7 L310.7 153.9 L300.1 155.9 L291 154 M160.8 299.5 L163 306.7 L173 304.5 L171.6 297.7 M258.9 198.6 L255.8 204.8 L260.2 210 L262.7 209.5 L264.7 202.9 M338.6 215 L323.9 210 L319.3 206.3 L320 202.3 M303.4 192.2 L314.9 203.3 L318.9 202.2 M287.6 51.2 L296.2 56 L300.5 55.1 L301.2 50 M163.2 118.2 L164.5 116 L182.7 120.8 M217.2 133.6 L207.7 127.3 L199.3 124.7 M180.1 193 L160.1 188.1 M293.3 75.8 L285.5 68.2 L278.5 66 M304.6 174.9 L303.2 169.5 L305.2 165 L310.9 165.6 M285.1 183 L305 180.7 M250.2 194.1 L253.3 192.1 L266.3 195.2 M327.7 206.9 L325.2 206 L324.1 201.6 L325.9 194 M300.7 190.9 L285.1 183 M315.3 68.7 L320.9 67.6 L323.6 61.5 L326.1 60.4 M292 60.9 L290.6 56.8 L285.9 55.7 L278.7 57.1 M231.1 207.2 L237.4 219.2 M337.3 211.1 L335.2 197.6 M213.8 212.2 L196 210.6 M214.7 212.3 L231.1 207.2 M304.6 174.9 L289.5 174.1 L289.3 175.7 M289.3 179.5 L295.3 177.7 L306.1 178.3 M264.7 202.9 L251.6 199 L251.6 197.3 M157.6 162.8 L142 166.2 M160.2 297.1 L154.9 298 L155.6 300.3 L159.9 299.5 L159.2 297.2 M280.1 96.6 L289.4 87 M238.2 177.4 L237.1 174.4 L229.7 176.6 L228.6 174.2 M147.3 120.8 L150.6 117.7 L159 122.2 M173.2 217.1 L178.7 206.3 M304.3 89 L305.4 77.7 M273.4 96.1 L273.3 89 L269.6 85.8 M310.3 81.6 L309.5 77.5 L314.6 71.4 M199.4 212 L198.3 217 L196.3 216.6 L194.7 221.1 M289.2 176.7 L302.8 176.7 M150.6 151.3 L147.8 148.4 L140.5 153.3 M292.4 77.3 L293.6 83 L289.4 87 M159.7 134.9 L164.1 133.2 L170.9 138.4 M197.5 211.7 L193.7 220 L194.7 221.1 M305.5 188 L318.9 184.3 M198 124.3 L184.7 120.6 M172.2 204.7 L185.5 208.1 M227.3 124.6 L238.3 131 M266.4 194.4 L254 190.9 M168.3 140.9 L157.9 134.1 M188.1 123 L185.6 125 L183.8 123.6 L188.1 123 M300.1 55.3 L302.1 49.1 L297.3 48.7 M131.8 177 L134 177.9 L134.7 185.7 M311.3 64.9 L316.7 55.5 M155 134.9 L145.3 128.2 M156.4 206.3 L169.2 209.8 M154.9 298 L154.4 296.4 L163.8 293.3 M222.9 211.6 L225.6 217.9 L224.1 221 M156.1 160.9 L143.4 163.6 M224.1 211.3 L228.3 219.1 L230.2 218.8 M184.6 116.4 L196.7 120.2 M306.3 189.9 L318.6 186.5 M159 167.5 L146.5 170.3 M156.3 160.2 L143.9 163 M161.6 150.7 L169.6 143.2 M168.4 112.4 L180.5 115.4 M281.5 87.3 L279.4 80 L282.1 79.5 M300.4 181 L302 190.5 M300.5 57.6 L296.9 66.7 M298.1 70.5 L304 69.3 L308.3 65.7 M308 62.8 L313 54 M304.6 63.6 L312.7 66.5 L313.9 68.8 M337.3 197.5 L338.3 206.3 M226.5 177 L223.8 171.8 L219.1 173 M125.4 177.4 L137.6 175.8 M198.3 197.7 L210.5 198.3" fill="none" stroke="#69776e" stroke-width="1.25" opacity="0.58" stroke-linecap="round" stroke-linejoin="round"/>
</g>
</g>
<g data-layer="north-up-compass" fill="none" stroke="#233934" stroke-linecap="round" stroke-linejoin="round" opacity="0.62">
<path d="M382 48L382 23" stroke-width="1.8"/>
<path d="M382 23L373 39M382 23L391 39" stroke-width="1.8"/>
<circle cx="382" cy="48" r="13" stroke-width="1.1" opacity="0.38"/>
</g>
<rect x="8" y="8" width="404" height="304" rx="16" fill="none" stroke="#233934" stroke-width="1.4" opacity="0.44"/>
</svg>
