<svg xmlns="http://www.w3.org/2000/svg" viewBox="0 0 420 320" role="img" aria-label="Unlabeled street-grid crop">
<rect width="420" height="320" fill="#f6f3e9"/>
<g opacity="0.22" stroke="#d8d0bd" stroke-width="1">
<path d="M0 0L0 320" fill="none"/>
<path d="M60 0L60 320" fill="none"/>
<path d="M120 0L120 320" fill="none"/>
<path d="M180 0L180 320" fill="none"/>
<path d="M240 0L240 320" fill="none"/>
<path d="M300 0L300 320" fill="none"/>
<path d="M360 0L360 320" fill="none"/>
<path d="M420 0L420 320" fill="none"/>
<path d="M0 0L420 0" fill="none"/>
<path d="M0 54L420 54" fill="none"/>
<path d="M0 108L420 108" fill="none"/>
<path d="M0 162L420 162" fill="none"/>
<path d="M0 216L420 216" fill="none"/>
<path d="M0 270L420 270" fill="none"/>
<path d="M0 324L420 324" fill="none"/>
</g>
<path d="M51.6 177.7 L20.4 180.5 L0 185.2" fill="none" stroke="#fdfbf5" stroke-width="9" stroke-linecap="round" stroke-linejoin="round" opacity="0.95"/>
<path d="M44 317.8 L32.2 242" fill="none" stroke="#fdfbf5" stroke-width="9" stroke-linecap="round" stroke-linejoin="round" opacity="0.95"/>
<path d="M113.1 234.1 L101.4 232.2 L59.8 237.4" fill="none" stroke="#fdfbf5" stroke-width="9" stroke-linecap="round" stroke-linejoin="round" opacity="0.95"/>
<path d="M139 279.8 L122.2 283.4 L102.1 291.2 L98.5 295.4 L94.9 310.3 L89.1 315.4" fill="none" stroke="#fdfbf5" stroke-width="9" stroke-linecap="round" stroke-linejoin="round" opacity="0.95"/>
<path d="M92.1 239.4 L104.1 262.1 L107.5 272.6 L105.1 290.5" fill="none" stroke="#fdfbf5" stroke-width="9" stroke-linecap="round" stroke-linejoin="round" opacity="0.95"/>
<path d="M119.9 196.4 L127.2 215.1 L136.5 225.7" fill="none" stroke="#fdfbf5" stroke-width="9" stroke-linecap="round" stroke-linejoin="round" opacity="0.95"/>
<path d="M192.3 268.5 L172.4 276.1 L128.9 281.9 L105.9 289.4 L98.7 295.6 L94.7 311.3 L86.6 316.5" fill="none" stroke="#fdfbf5" stroke-width="9" stroke-linecap="round" stroke-linejoin="round" opacity="0.95"/>
<path d="M86.8 316.9 L95.1 311.7 L99.2 295.7 L106 289.8 L129 282.3 L172.5 276.5 L192.8 268.8" fill="none" stroke="#fdfbf5" stroke-width="9" stroke-linecap="round" stroke-linejoin="round" opacity="0.95"/>
<path d="M251.5 75.8 L261.8 64.9 L280.6 61.9" fill="none" stroke="#fdfbf5" stroke-width="9" stroke-linecap="round" stroke-linejoin="round" opacity="0.95"/>
<path d="M231.3 11 L263.2 8.4 L283.8 9.2 L306.2 3.1" fill="none" stroke="#fdfbf5" stroke-width="9" stroke-linecap="round" stroke-linejoin="round" opacity="0.95"/>
<path d="M0 0 L19 15.4" fill="none" stroke="#fdfbf5" stroke-width="9" stroke-linecap="round" stroke-linejoin="round" opacity="0.95"/>
<path d="M74.6 58.6 L83.9 70.2 L90.9 83.5" fill="none" stroke="#fdfbf5" stroke-width="9" stroke-linecap="round" stroke-linejoin="round" opacity="0.95"/>
<path d="M75.1 58.3 L46.6 33.6" fill="none" stroke="#fdfbf5" stroke-width="9" stroke-linecap="round" stroke-linejoin="round" opacity="0.95"/>
<path d="M19.4 15 L0 0" fill="none" stroke="#fdfbf5" stroke-width="9" stroke-linecap="round" stroke-linejoin="round" opacity="0.95"/>
<path d="M96.4 100.3 L97.6 123 L124.1 208.7 L131.9 221 L159.5 247.5" fill="none" stroke="#fdfbf5" stroke-width="9" stroke-linecap="round" stroke-linejoin="round" opacity="0.95"/>
<path d="M91.5 83.4 L84.7 70 L75.1 58.3" fill="none" stroke="#fdfbf5" stroke-width="9" stroke-linecap="round" stroke-linejoin="round" opacity="0.95"/>
<path d="M0 196.1 L23.6 194" fill="none" stroke="#fdfbf5" stroke-width="9" stroke-linecap="round" stroke-linejoin="round" opacity="0.95"/>
<path d="M237.4 60.6 L256.5 60.7 L286.2 55.1" fill="none" stroke="#fdfbf5" stroke-width="9" stroke-linecap="round" stroke-linejoin="round" opacity="0.95"/>
<path d="M379.5 0 L385.6 22.7" fill="none" stroke="#fdfbf5" stroke-width="9" stroke-linecap="round" stroke-linejoin="round" opacity="0.95"/>
<path d="M285.8 54.6 L257.5 60 L237.5 60" fill="none" stroke="#fdfbf5" stroke-width="9" stroke-linecap="round" stroke-linejoin="round" opacity="0.95"/>
<path d="M24.3 82.9 L13.7 67.2 L0 61.1 L0 81.6" fill="none" stroke="#fdfbf5" stroke-width="9" stroke-linecap="round" stroke-linejoin="round" opacity="0.95"/>
<path d="M233.1 320 L228.6 320 L226.8 307.1 L220.5 297.6 L204.4 285.1" fill="none" stroke="#fdfbf5" stroke-width="9" stroke-linecap="round" stroke-linejoin="round" opacity="0.95"/>
<path d="M204.4 285.1 L169.5 254" fill="none" stroke="#fdfbf5" stroke-width="9" stroke-linecap="round" stroke-linejoin="round" opacity="0.95"/>
<path d="M333.7 80.5 L342 111.9" fill="none" stroke="#fdfbf5" stroke-width="9" stroke-linecap="round" stroke-linejoin="round" opacity="0.95"/>
<path d="M285.6 61.3 L324.9 55.4" fill="none" stroke="#fdfbf5" stroke-width="9" stroke-linecap="round" stroke-linejoin="round" opacity="0.95"/>
<path d="M255 207.2 L216.9 214.8" fill="none" stroke="#fdfbf5" stroke-width="9" stroke-linecap="round" stroke-linejoin="round" opacity="0.95"/>
<path d="M243.3 255.9 L353.1 245.4" fill="none" stroke="#fdfbf5" stroke-width="9" stroke-linecap="round" stroke-linejoin="round" opacity="0.95"/>
<path d="M171.2 134.6 L213.3 127.8" fill="none" stroke="#fdfbf5" stroke-width="9" stroke-linecap="round" stroke-linejoin="round" opacity="0.95"/>
<path d="M195.1 198.9 L170.6 203.5 L159.3 210.2" fill="none" stroke="#fdfbf5" stroke-width="9" stroke-linecap="round" stroke-linejoin="round" opacity="0.95"/>
<path d="M94.7 68.6 L102 67.6 L142.4 72.7 L159.8 72.7" fill="none" stroke="#fdfbf5" stroke-width="9" stroke-linecap="round" stroke-linejoin="round" opacity="0.95"/>
<path d="M106.8 15.5 L84.9 11.7 L71.1 5.2 L11 0" fill="none" stroke="#fdfbf5" stroke-width="9" stroke-linecap="round" stroke-linejoin="round" opacity="0.95"/>
<path d="M405 136.1 L413.5 170.4" fill="none" stroke="#fdfbf5" stroke-width="9" stroke-linecap="round" stroke-linejoin="round" opacity="0.95"/>
<path d="M409.4 213.6 L385 213.2 L322.5 219.1" fill="none" stroke="#fdfbf5" stroke-width="9" stroke-linecap="round" stroke-linejoin="round" opacity="0.95"/>
<path d="M33.2 98.7 L48.2 124.6" fill="none" stroke="#fdfbf5" stroke-width="9" stroke-linecap="round" stroke-linejoin="round" opacity="0.95"/>
<path d="M18.6 13.1 L10.6 10.6 L0 0" fill="none" stroke="#fdfbf5" stroke-width="9" stroke-linecap="round" stroke-linejoin="round" opacity="0.95"/>
<path d="M89.8 316.2 L96.1 310.5 L99.6 296 L103 291.8 L123.5 283.9 L139.3 281.3" fill="none" stroke="#fdfbf5" stroke-width="9" stroke-linecap="round" stroke-linejoin="round" opacity="0.95"/>
<path d="M263.1 129.6 L307.2 124.9" fill="none" stroke="#fdfbf5" stroke-width="9" stroke-linecap="round" stroke-linejoin="round" opacity="0.95"/>
<path d="M305.8 1.5 L283.2 8.4 L263.4 7.6 L230.9 10.1" fill="none" stroke="#fdfbf5" stroke-width="9" stroke-linecap="round" stroke-linejoin="round" opacity="0.95"/>
<path d="M49.3 125.3 L33.8 98.6" fill="none" stroke="#fdfbf5" stroke-width="9" stroke-linecap="round" stroke-linejoin="round" opacity="0.95"/>
<path d="M76.7 209.3 L92.1 239.4" fill="none" stroke="#fdfbf5" stroke-width="9" stroke-linecap="round" stroke-linejoin="round" opacity="0.95"/>
<path d="M0 82.1 L0 61.6 L13.2 67.5 L23.7 83" fill="none" stroke="#fdfbf5" stroke-width="9" stroke-linecap="round" stroke-linejoin="round" opacity="0.95"/>
<path d="M204.1 285.5 L220.1 297.9 L224.2 303.1 L227.7 320 L249.9 320" fill="none" stroke="#fdfbf5" stroke-width="9" stroke-linecap="round" stroke-linejoin="round" opacity="0.95"/>
<path d="M10 0 L67.4 3.4 L74.2 8.2 L90 14.5 L106.6 16.8" fill="none" stroke="#fdfbf5" stroke-width="9" stroke-linecap="round" stroke-linejoin="round" opacity="0.95"/>
<path d="M343.5 314.9 L337.1 282.4" fill="none" stroke="#fdfbf5" stroke-width="9" stroke-linecap="round" stroke-linejoin="round" opacity="0.95"/>
<path d="M390.9 241.4 L353 244.9" fill="none" stroke="#fdfbf5" stroke-width="9" stroke-linecap="round" stroke-linejoin="round" opacity="0.95"/>
<path d="M266 149 L303.5 144.3" fill="none" stroke="#fdfbf5" stroke-width="9" stroke-linecap="round" stroke-linejoin="round" opacity="0.95"/>
<path d="M202.7 13.2 L164.9 15.3" fill="none" stroke="#fdfbf5" stroke-width="9" stroke-linecap="round" stroke-linejoin="round" opacity="0.95"/>
<path d="M164.9 16.1 L203.5 14.5" fill="none" stroke="#fdfbf5" stroke-width="9" stroke-linecap="round" stroke-linejoin="round" opacity="0.95"/>
<path d="M39.4 45.6 L68.3 19.6" fill="none" stroke="#fdfbf5" stroke-width="9" stroke-linecap="round" stroke-linejoin="round" opacity="0.95"/>
<path d="M420 42.1 L420 34.5 L392.4 37.3" fill="none" stroke="#fdfbf5" stroke-width="9" stroke-linecap="round" stroke-linejoin="round" opacity="0.95"/>
<path d="M291.6 51.5 L297.6 49.1 L361.8 38.5" fill="none" stroke="#fdfbf5" stroke-width="9" stroke-linecap="round" stroke-linejoin="round" opacity="0.95"/>
<path d="M396.8 42.9 L393.4 37.7 L385.9 14.3" fill="none" stroke="#fdfbf5" stroke-width="9" stroke-linecap="round" stroke-linejoin="round" opacity="0.95"/>
<path d="M384.3 14.5 L392.8 41.8" fill="none" stroke="#fdfbf5" stroke-width="9" stroke-linecap="round" stroke-linejoin="round" opacity="0.95"/>
<path d="M339 296.3 L377.8 294.2" fill="none" stroke="#fdfbf5" stroke-width="9" stroke-linecap="round" stroke-linejoin="round" opacity="0.95"/>
<path d="M277.9 297.5 L201.2 305.5" fill="none" stroke="#fdfbf5" stroke-width="9" stroke-linecap="round" stroke-linejoin="round" opacity="0.95"/>
<path d="M29.9 92.6 L0 93.4 L0 96.2" fill="none" stroke="#fdfbf5" stroke-width="9" stroke-linecap="round" stroke-linejoin="round" opacity="0.95"/>
<path d="M0 96.6 L0 93.8 L30.1 93.1" fill="none" stroke="#fdfbf5" stroke-width="9" stroke-linecap="round" stroke-linejoin="round" opacity="0.95"/>
<path d="M173.3 155.3 L166 116.4" fill="none" stroke="#fdfbf5" stroke-width="9" stroke-linecap="round" stroke-linejoin="round" opacity="0.95"/>
<path d="M217 215 L255.1 207.5" fill="none" stroke="#fdfbf5" stroke-width="9" stroke-linecap="round" stroke-linejoin="round" opacity="0.95"/>
<path d="M137.6 225.1 L128.3 214.8 L121.1 196.2" fill="none" stroke="#fdfbf5" stroke-width="9" stroke-linecap="round" stroke-linejoin="round" opacity="0.95"/>
<path d="M234.9 67.2 L240.1 46 L239.2 38.6" fill="none" stroke="#fdfbf5" stroke-width="9" stroke-linecap="round" stroke-linejoin="round" opacity="0.95"/>
<path d="M238.8 38.6 L239.7 45.9 L234.5 67.2" fill="none" stroke="#fdfbf5" stroke-width="9" stroke-linecap="round" stroke-linejoin="round" opacity="0.95"/>
<path d="M0 147.2 L0 143.7 L6 141.7 L30.9 139.5 L53.9 142.7" fill="none" stroke="#fdfbf5" stroke-width="9" stroke-linecap="round" stroke-linejoin="round" opacity="0.95"/>
<path d="M0 76.2 L2.3 134.3 L19 170.8" fill="none" stroke="#fdfbf5" stroke-width="9" stroke-linecap="round" stroke-linejoin="round" opacity="0.95"/>
<path d="M357.7 171.9 L402.1 169.6" fill="none" stroke="#fdfbf5" stroke-width="9" stroke-linecap="round" stroke-linejoin="round" opacity="0.95"/>
<path d="M169.6 256.2 L204.1 285.5" fill="none" stroke="#fdfbf5" stroke-width="9" stroke-linecap="round" stroke-linejoin="round" opacity="0.95"/>
<path d="M353.1 245.4 L390.9 241.9" fill="none" stroke="#fdfbf5" stroke-width="9" stroke-linecap="round" stroke-linejoin="round" opacity="0.95"/>
<path d="M353 244.9 L243.1 255.5" fill="none" stroke="#fdfbf5" stroke-width="9" stroke-linecap="round" stroke-linejoin="round" opacity="0.95"/>
<path d="M155 240.7 L136.1 224.3 L128 214.8 L123.8 206.4 L115.6 178.5" fill="none" stroke="#fdfbf5" stroke-width="9" stroke-linecap="round" stroke-linejoin="round" opacity="0.95"/>
<path d="M361.8 38.1 L298.1 48.5 L291.4 51.1" fill="none" stroke="#fdfbf5" stroke-width="9" stroke-linecap="round" stroke-linejoin="round" opacity="0.95"/>
<path d="M115.6 178.5 L99.8 127.7 L100.5 118.5 L97 100.2" fill="none" stroke="#fdfbf5" stroke-width="9" stroke-linecap="round" stroke-linejoin="round" opacity="0.95"/>
<path d="M269.9 166.7 L315 162.6" fill="none" stroke="#fdfbf5" stroke-width="9" stroke-linecap="round" stroke-linejoin="round" opacity="0.95"/>
<path d="M51.6 177.7 L20.4 180.5 L0 185.2" fill="none" stroke="#1e3432" stroke-width="4.8" stroke-linecap="round" stroke-linejoin="round" opacity="0.94"/>
<path d="M44 317.8 L32.2 242" fill="none" stroke="#1e3432" stroke-width="4.8" stroke-linecap="round" stroke-linejoin="round" opacity="0.94"/>
<path d="M113.1 234.1 L101.4 232.2 L59.8 237.4" fill="none" stroke="#1e3432" stroke-width="4.8" stroke-linecap="round" stroke-linejoin="round" opacity="0.94"/>
<path d="M139 279.8 L122.2 283.4 L102.1 291.2 L98.5 295.4 L94.9 310.3 L89.1 315.4" fill="none" stroke="#1e3432" stroke-width="4.8" stroke-linecap="round" stroke-linejoin="round" opacity="0.94"/>
<path d="M92.1 239.4 L104.1 262.1 L107.5 272.6 L105.1 290.5" fill="none" stroke="#1e3432" stroke-width="4.8" stroke-linecap="round" stroke-linejoin="round" opacity="0.94"/>
<path d="M119.9 196.4 L127.2 215.1 L136.5 225.7" fill="none" stroke="#1e3432" stroke-width="4.8" stroke-linecap="round" stroke-linejoin="round" opacity="0.94"/>
<path d="M192.3 268.5 L172.4 276.1 L128.9 281.9 L105.9 289.4 L98.7 295.6 L94.7 311.3 L86.6 316.5" fill="none" stroke="#1e3432" stroke-width="4.8" stroke-linecap="round" stroke-linejoin="round" opacity="0.94"/>
<path d="M86.8 316.9 L95.1 311.7 L99.2 295.7 L106 289.8 L129 282.3 L172.5 276.5 L192.8 268.8" fill="none" stroke="#1e3432" stroke-width="4.8" stroke-linecap="round" stroke-linejoin="round" opacity="0.94"/>
<path d="M251.5 75.8 L261.8 64.9 L280.6 61.9" fill="none" stroke="#1e3432" stroke-width="4.8" stroke-linecap="round" stroke-linejoin="round" opacity="0.94"/>
<path d="M231.3 11 L263.2 8.4 L283.8 9.2 L306.2 3.1" fill="none" stroke="#1e3432" stroke-width="4.8" stroke-linecap="round" stroke-linejoin="round" opacity="0.94"/>
<path d="M0 0 L19 15.4" fill="none" stroke="#1e3432" stroke-width="4.8" stroke-linecap="round" stroke-linejoin="round" opacity="0.94"/>
<path d="M74.6 58.6 L83.9 70.2 L90.9 83.5" fill="none" stroke="#1e3432" stroke-width="4.8" stroke-linecap="round" stroke-linejoin="round" opacity="0.94"/>
<path d="M75.1 58.3 L46.6 33.6" fill="none" stroke="#1e3432" stroke-width="4.8" stroke-linecap="round" stroke-linejoin="round" opacity="0.94"/>
<path d="M19.4 15 L0 0" fill="none" stroke="#1e3432" stroke-width="4.8" stroke-linecap="round" stroke-linejoin="round" opacity="0.94"/>
<path d="M96.4 100.3 L97.6 123 L124.1 208.7 L131.9 221 L159.5 247.5" fill="none" stroke="#1e3432" stroke-width="4.8" stroke-linecap="round" stroke-linejoin="round" opacity="0.94"/>
<path d="M91.5 83.4 L84.7 70 L75.1 58.3" fill="none" stroke="#1e3432" stroke-width="4.8" stroke-linecap="round" stroke-linejoin="round" opacity="0.94"/>
<path d="M0 196.1 L23.6 194" fill="none" stroke="#1e3432" stroke-width="4.8" stroke-linecap="round" stroke-linejoin="round" opacity="0.94"/>
<path d="M237.4 60.6 L256.5 60.7 L286.2 55.1" fill="none" stroke="#1e3432" stroke-width="4.8" stroke-linecap="round" stroke-linejoin="round" opacity="0.94"/>
<path d="M379.5 0 L385.6 22.7" fill="none" stroke="#1e3432" stroke-width="4.8" stroke-linecap="round" stroke-linejoin="round" opacity="0.94"/>
<path d="M285.8 54.6 L257.5 60 L237.5 60" fill="none" stroke="#1e3432" stroke-width="4.8" stroke-linecap="round" stroke-linejoin="round" opacity="0.94"/>
<path d="M24.3 82.9 L13.7 67.2 L0 61.1 L0 81.6" fill="none" stroke="#1e3432" stroke-width="4.8" stroke-linecap="round" stroke-linejoin="round" opacity="0.94"/>
<path d="M233.1 320 L228.6 320 L226.8 307.1 L220.5 297.6 L204.4 285.1" fill="none" stroke="#1e3432" stroke-width="4.8" stroke-linecap="round" stroke-linejoin="round" opacity="0.94"/>
<path d="M204.4 285.1 L169.5 254" fill="none" stroke="#1e3432" stroke-width="4.8" stroke-linecap="round" stroke-linejoin="round" opacity="0.94"/>
<path d="M333.7 80.5 L342 111.9" fill="none" stroke="#1e3432" stroke-width="4.8" stroke-linecap="round" stroke-linejoin="round" opacity="0.94"/>
<path d="M285.6 61.3 L324.9 55.4" fill="none" stroke="#1e3432" stroke-width="4.8" stroke-linecap="round" stroke-linejoin="round" opacity="0.94"/>
<path d="M255 207.2 L216.9 214.8" fill="none" stroke="#1e3432" stroke-width="4.8" stroke-linecap="round" stroke-linejoin="round" opacity="0.94"/>
<path d="M243.3 255.9 L353.1 245.4" fill="none" stroke="#1e3432" stroke-width="4.8" stroke-linecap="round" stroke-linejoin="round" opacity="0.94"/>
<path d="M171.2 134.6 L213.3 127.8" fill="none" stroke="#1e3432" stroke-width="4.8" stroke-linecap="round" stroke-linejoin="round" opacity="0.94"/>
<path d="M195.1 198.9 L170.6 203.5 L159.3 210.2" fill="none" stroke="#1e3432" stroke-width="4.8" stroke-linecap="round" stroke-linejoin="round" opacity="0.94"/>
<path d="M94.7 68.6 L102 67.6 L142.4 72.7 L159.8 72.7" fill="none" stroke="#1e3432" stroke-width="4.8" stroke-linecap="round" stroke-linejoin="round" opacity="0.94"/>
<path d="M106.8 15.5 L84.9 11.7 L71.1 5.2 L11 0" fill="none" stroke="#1e3432" stroke-width="4.8" stroke-linecap="round" stroke-linejoin="round" opacity="0.94"/>
<path d="M405 136.1 L413.5 170.4" fill="none" stroke="#1e3432" stroke-width="4.8" stroke-linecap="round" stroke-linejoin="round" opacity="0.94"/>
<path d="M409.4 213.6 L385 213.2 L322.5 219.1" fill="none" stroke="#1e3432" stroke-width="4.8" stroke-linecap="round" stroke-linejoin="round" opacity="0.94"/>
<path d="M33.2 98.7 L48.2 124.6" fill="none" stroke="#1e3432" stroke-width="4.8" stroke-linecap="round" stroke-linejoin="round" opacity="0.94"/>
<path d="M18.6 13.1 L10.6 10.6 L0 0" fill="none" stroke="#1e3432" stroke-width="4.8" stroke-linecap="round" stroke-linejoin="round" opacity="0.94"/>
<path d="M89.8 316.2 L96.1 310.5 L99.6 296 L103 291.8 L123.5 283.9 L139.3 281.3" fill="none" stroke="#1e3432" stroke-width="4.8" stroke-linecap="round" stroke-linejoin="round" opacity="0.94"/>
<path d="M263.1 129.6 L307.2 124.9" fill="none" stroke="#1e3432" stroke-width="4.8" stroke-linecap="round" stroke-linejoin="round" opacity="0.94"/>
<path d="M305.8 1.5 L283.2 8.4 L263.4 7.6 L230.9 10.1" fill="none" stroke="#1e3432" stroke-width="4.8" stroke-linecap="round" stroke-linejoin="round" opacity="0.94"/>
<path d="M49.3 125.3 L33.8 98.6" fill="none" stroke="#1e3432" stroke-width="4.8" stroke-linecap="round" stroke-linejoin="round" opacity="0.94"/>
<path d="M76.7 209.3 L92.1 239.4" fill="none" stroke="#1e3432" stroke-width="4.8" stroke-linecap="round" stroke-linejoin="round" opacity="0.94"/>
<path d="M0 82.1 L0 61.6 L13.2 67.5 L23.7 83" fill="none" stroke="#1e3432" stroke-width="4.8" stroke-linecap="round" stroke-linejoin="round" opacity="0.94"/>
<path d="M204.1 285.5 L220.1 297.9 L224.2 303.1 L227.7 320 L249.9 320" fill="none" stroke="#1e3432" stroke-width="4.8" stroke-linecap="round" stroke-linejoin="round" opacity="0.94"/>
<path d="M10 0 L67.4 3.4 L74.2 8.2 L90 14.5 L106.6 16.8" fill="none" stroke="#1e3432" stroke-width="4.8" stroke-linecap="round" stroke-linejoin="round" opacity="0.94"/>
<path d="M343.5 314.9 L337.1 282.4" fill="none" stroke="#1e3432" stroke-width="4.8" stroke-linecap="round" stroke-linejoin="round" opacity="0.94"/>
<path d="M390.9 241.4 L353 244.9" fill="none" stroke="#1e3432" stroke-width="4.8" stroke-linecap="round" stroke-linejoin="round" opacity="0.94"/>
<path d="M266 149 L303.5 144.3" fill="none" stroke="#1e3432" stroke-width="4.8" stroke-linecap="round" stroke-linejoin="round" opacity="0.94"/>
<path d="M202.7 13.2 L164.9 15.3" fill="none" stroke="#1e3432" stroke-width="4.8" stroke-linecap="round" stroke-linejoin="round" opacity="0.94"/>
<path d="M164.9 16.1 L203.5 14.5" fill="none" stroke="#1e3432" stroke-width="4.8" stroke-linecap="round" stroke-linejoin="round" opacity="0.94"/>
<path d="M39.4 45.6 L68.3 19.6" fill="none" stroke="#1e3432" stroke-width="4.8" stroke-linecap="round" stroke-linejoin="round" opacity="0.94"/>
<path d="M420 42.1 L420 34.5 L392.4 37.3" fill="none" stroke="#1e3432" stroke-width="4.8" stroke-linecap="round" stroke-linejoin="round" opacity="0.94"/>
<path d="M291.6 51.5 L297.6 49.1 L361.8 38.5" fill="none" stroke="#1e3432" stroke-width="4.8" stroke-linecap="round" stroke-linejoin="round" opacity="0.94"/>
<path d="M396.8 42.9 L393.4 37.7 L385.9 14.3" fill="none" stroke="#1e3432" stroke-width="4.8" stroke-linecap="round" stroke-linejoin="round" opacity="0.94"/>
<path d="M384.3 14.5 L392.8 41.8" fill="none" stroke="#1e3432" stroke-width="4.8" stroke-linecap="round" stroke-linejoin="round" opacity="0.94"/>
<path d="M339 296.3 L377.8 294.2" fill="none" stroke="#1e3432" stroke-width="4.8" stroke-linecap="round" stroke-linejoin="round" opacity="0.94"/>
<path d="M277.9 297.5 L201.2 305.5" fill="none" stroke="#1e3432" stroke-width="4.8" stroke-linecap="round" stroke-linejoin="round" opacity="0.94"/>
<path d="M29.9 92.6 L0 93.4 L0 96.2" fill="none" stroke="#1e3432" stroke-width="4.8" stroke-linecap="round" stroke-linejoin="round" opacity="0.94"/>
<path d="M0 96.6 L0 93.8 L30.1 93.1" fill="none" stroke="#1e3432" stroke-width="4.8" stroke-linecap="round" stroke-linejoin="round" opacity="0.94"/>
<path d="M173.3 155.3 L166 116.4" fill="none" stroke="#1e3432" stroke-width="4.8" stroke-linecap="round" stroke-linejoin="round" opacity="0.94"/>
<path d="M217 215 L255.1 207.5" fill="none" stroke="#1e3432" stroke-width="4.8" stroke-linecap="round" stroke-linejoin="round" opacity="0.94"/>
<path d="M137.6 225.1 L128.3 214.8 L121.1 196.2" fill="none" stroke="#1e3432" stroke-width="4.8" stroke-linecap="round" stroke-linejoin="round" opacity="0.94"/>
<path d="M234.9 67.2 L240.1 46 L239.2 38.6" fill="none" stroke="#1e3432" stroke-width="4.8" stroke-linecap="round" stroke-linejoin="round" opacity="0.94"/>
<path d="M238.8 38.6 L239.7 45.9 L234.5 67.2" fill="none" stroke="#1e3432" stroke-width="4.8" stroke-linecap="round" stroke-linejoin="round" opacity="0.94"/>
<path d="M0 147.2 L0 143.7 L6 141.7 L30.9 139.5 L53.9 142.7" fill="none" stroke="#1e3432" stroke-width="4.8" stroke-linecap="round" stroke-linejoin="round" opacity="0.94"/>
<path d="M0 76.2 L2.3 134.3 L19 170.8" fill="none" stroke="#1e3432" stroke-width="4.8" stroke-linecap="round" stroke-linejoin="round" opacity="0.94"/>
<path d="M357.7 171.9 L402.1 169.6" fill="none" stroke="#1e3432" stroke-width="4.8" stroke-linecap="round" stroke-linejoin="round" opacity="0.94"/>
<path d="M169.6 256.2 L204.1 285.5" fill="none" stroke="#1e3432" stroke-width="4.8" stroke-linecap="round" stroke-linejoin="round" opacity="0.94"/>
<path d="M353.1 245.4 L390.9 241.9" fill="none" stroke="#1e3432" stroke-width="4.8" stroke-linecap="round" stroke-linejoin="round" opacity="0.94"/>
<path d="M353 244.9 L243.1 255.5" fill="none" stroke="#1e3432" stroke-width="4.8" stroke-linecap="round" stroke-linejoin="round" opacity="0.94"/>
<path d="M155 240.7 L136.1 224.3 L128 214.8 L123.8 206.4 L115.6 178.5" fill="none" stroke="#1e3432" stroke-width="4.8" stroke-linecap="round" stroke-linejoin="round" opacity="0.94"/>
<path d="M361.8 38.1 L298.1 48.5 L291.4 51.1" fill="none" stroke="#1e3432" stroke-width="4.8" stroke-linecap="round" stroke-linejoin="round" opacity="0.94"/>
<path d="M115.6 178.5 L99.8 127.7 L100.5 118.5 L97 100.2" fill="none" stroke="#1e3432" stroke-width="4.8" stroke-linecap="round" stroke-linejoin="round" opacity="0.94"/>
<path d="M269.9 166.7 L315 162.6" fill="none" stroke="#1e3432" stroke-width="4.8" stroke-linecap="round" stroke-linejoin="round" opacity="0.94"/>
</svg>
