<svg xmlns="http://www.w3.org/2000/svg" viewBox="0 0 420 320" role="img" aria-label="Unlabeled north-up street-grid crop" data-orientation="north-up">
<metadata>{"orientation":"north-up","projection":"local-web-mercator"}</metadata>
<defs>
<clipPath id="mapCrop"><rect x="8" y="8" width="404" height="304" rx="16"/></clipPath>
</defs>
<rect width="420" height="320" fill="#ede7d8"/>
<rect x="8" y="8" width="404" height="304" rx="16" fill="#f7f1e3" stroke="#d8cbb2" stroke-width="1.25"/>
<g clip-path="url(#mapCrop)">
<g data-layer="water-casing">
<path d="M32.4 146.9 L37.8 154.3 L35.7 155.3 L37.3 153.9 L32.3 147.5 L28.8 148.9 L32.4 153.9 L28 149 L32.4 146.9 Z" fill="#d9f2fb" stroke="#d9f2fb" stroke-width="2.4" opacity="0.9" stroke-linecap="round" stroke-linejoin="round"/>
<path d="M29.7 255.2 L27.2 257.1 L26.2 256 L41.3 245.7 L44.7 247.9 L41.6 251 L34.2 252.2 L29.7 255.2 Z" fill="#d9f2fb" stroke="#d9f2fb" stroke-width="2.4" opacity="0.9" stroke-linecap="round" stroke-linejoin="round"/>
<path d="M308.1 233.7 L309.2 232.3 L316 239.5 L314 239.9 L308.1 233.7 Z" fill="#d9f2fb" stroke="#d9f2fb" stroke-width="2.4" opacity="0.9" stroke-linecap="round" stroke-linejoin="round"/>
<path d="M10.8 141.3 L15 145.8 L11.7 146.7 L8.7 141.9 L10.8 141.3 Z" fill="#d9f2fb" stroke="#d9f2fb" stroke-width="2.4" opacity="0.9" stroke-linecap="round" stroke-linejoin="round"/>
<path d="M408 108 L406.5 113.5 L408 108 Z" fill="#d9f2fb" stroke="#d9f2fb" stroke-width="2.4" opacity="0.9" stroke-linecap="round" stroke-linejoin="round"/>
<path d="M175.7 237.8 L177.1 239.5 L174.9 241.9 L172.8 241.2 L175.7 237.8 Z" fill="#d9f2fb" stroke="#d9f2fb" stroke-width="2.4" opacity="0.9" stroke-linecap="round" stroke-linejoin="round"/>
<path d="M405.5 119 L407.4 117.9 L406 116.3 L407.9 116.9 L407.6 118.9 L405.5 119 Z" fill="#d9f2fb" stroke="#d9f2fb" stroke-width="2.4" opacity="0.9" stroke-linecap="round" stroke-linejoin="round"/>
<path d="M198.3 150.9 L203.3 147.3 L198.3 150.9 Z" fill="#d9f2fb" stroke="#d9f2fb" stroke-width="2.4" opacity="0.9" stroke-linecap="round" stroke-linejoin="round"/>
<path d="M407.7 120.2 L410.1 119 L410.3 122.1 L407.7 120.2 Z" fill="#d9f2fb" stroke="#d9f2fb" stroke-width="2.4" opacity="0.9" stroke-linecap="round" stroke-linejoin="round"/>
<path d="M406.6 115.7 L408.1 114.6 L410 116.6 L406.6 115.7 Z" fill="#d9f2fb" stroke="#d9f2fb" stroke-width="2.4" opacity="0.9" stroke-linecap="round" stroke-linejoin="round"/>
<path d="M163.6 241.9 L162.2 243.6 L164.5 244.7 L165.9 243 L163.6 241.9 Z" fill="#d9f2fb" stroke="#d9f2fb" stroke-width="2.4" opacity="0.9" stroke-linecap="round" stroke-linejoin="round"/>
<path d="M407.8 105.4 L410.2 102.8 L407.8 105.4 Z" fill="#d9f2fb" stroke="#d9f2fb" stroke-width="2.4" opacity="0.9" stroke-linecap="round" stroke-linejoin="round"/>
<path d="M85.6 255.9 L87.1 255 L85.2 253.4 L83.9 254.3 L85.6 255.9 Z" fill="#d9f2fb" stroke="#d9f2fb" stroke-width="2.4" opacity="0.9" stroke-linecap="round" stroke-linejoin="round"/>
<path d="M184.6 56.4 L187 57 L186 58.5 L184.6 56.4 Z" fill="#d9f2fb" stroke="#d9f2fb" stroke-width="2.4" opacity="0.9" stroke-linecap="round" stroke-linejoin="round"/>
<path d="M67 176 L64.5 175.7 L66.4 174.6 L67 176 Z" fill="#d9f2fb" stroke="#d9f2fb" stroke-width="2.4" opacity="0.9" stroke-linecap="round" stroke-linejoin="round"/>
<path d="M261.2 60.5 L257.6 60.2 L261.2 60.5 Z" fill="#d9f2fb" stroke="#d9f2fb" stroke-width="2.4" opacity="0.9" stroke-linecap="round" stroke-linejoin="round"/>
<path d="M371.1 166 L369 166.1 L371.1 166 Z" fill="#d9f2fb" stroke="#d9f2fb" stroke-width="2.4" opacity="0.9" stroke-linecap="round" stroke-linejoin="round"/>
<path d="M94.2 116.4 L96.6 117.8 L94.2 116.4 Z" fill="#d9f2fb" stroke="#d9f2fb" stroke-width="2.4" opacity="0.9" stroke-linecap="round" stroke-linejoin="round"/>
<path d="M110.8 117 L108 117.5 L110.8 117 Z" fill="#d9f2fb" stroke="#d9f2fb" stroke-width="2.4" opacity="0.9" stroke-linecap="round" stroke-linejoin="round"/>
<path d="M75.5 193.7 L75.8 192 L75.5 193.7 Z" fill="#d9f2fb" stroke="#d9f2fb" stroke-width="2.4" opacity="0.9" stroke-linecap="round" stroke-linejoin="round"/>
<path d="M242.3 167.6 L244.8 167.7 L242.3 167.6 Z" fill="#d9f2fb" stroke="#d9f2fb" stroke-width="2.4" opacity="0.9" stroke-linecap="round" stroke-linejoin="round"/>
<path d="M93.7 147.8 L95.3 147.1 L93.7 147.8 Z" fill="#d9f2fb" stroke="#d9f2fb" stroke-width="2.4" opacity="0.9" stroke-linecap="round" stroke-linejoin="round"/>
<path d="M254.4 64.5 L256.7 65 L254.4 64.5 Z" fill="#d9f2fb" stroke="#d9f2fb" stroke-width="2.4" opacity="0.9" stroke-linecap="round" stroke-linejoin="round"/>
<path d="M212.8 33.1 L212.8 33.1 Z" fill="#d9f2fb" stroke="#d9f2fb" stroke-width="2.4" opacity="0.9" stroke-linecap="round" stroke-linejoin="round"/>
<path d="M212 42.3 L212 42.3 Z" fill="#d9f2fb" stroke="#d9f2fb" stroke-width="2.4" opacity="0.9" stroke-linecap="round" stroke-linejoin="round"/>
<path d="M82.9 150.2 L82.9 150.2 Z" fill="#d9f2fb" stroke="#d9f2fb" stroke-width="2.4" opacity="0.9" stroke-linecap="round" stroke-linejoin="round"/>
<path d="M86 150.9 L86 150.9 Z" fill="#d9f2fb" stroke="#d9f2fb" stroke-width="2.4" opacity="0.9" stroke-linecap="round" stroke-linejoin="round"/>
<path d="M145 277.8 L145 277.8 Z" fill="#d9f2fb" stroke="#d9f2fb" stroke-width="2.4" opacity="0.9" stroke-linecap="round" stroke-linejoin="round"/>
<path d="M264.3 207.3 L264.3 207.3 Z" fill="#d9f2fb" stroke="#d9f2fb" stroke-width="2.4" opacity="0.9" stroke-linecap="round" stroke-linejoin="round"/>
<path d="M410.2 226.9 L410.8 225.2" fill="none" stroke="#d9f2fb" stroke-width="6.8" opacity="0.9" stroke-linecap="round" stroke-linejoin="round"/>
<path d="M91.1 114.3 L91.1 114.3 Z" fill="#d9f2fb" stroke="#d9f2fb" stroke-width="2.4" opacity="0.9" stroke-linecap="round" stroke-linejoin="round"/>
<path d="M178.4 109.6 L178.4 109.6 Z" fill="#d9f2fb" stroke="#d9f2fb" stroke-width="2.4" opacity="0.9" stroke-linecap="round" stroke-linejoin="round"/>
<path d="M161.9 296.3 L161.9 296.3 Z" fill="#d9f2fb" stroke="#d9f2fb" stroke-width="2.4" opacity="0.9" stroke-linecap="round" stroke-linejoin="round"/>
<path d="M124.7 282.4 L124.7 282.4 Z" fill="#d9f2fb" stroke="#d9f2fb" stroke-width="2.4" opacity="0.9" stroke-linecap="round" stroke-linejoin="round"/>
<path d="M233.4 27.1 L233.4 27.1 Z" fill="#d9f2fb" stroke="#d9f2fb" stroke-width="2.4" opacity="0.9" stroke-linecap="round" stroke-linejoin="round"/>
<path d="M94.8 115 L94.8 115 Z" fill="#d9f2fb" stroke="#d9f2fb" stroke-width="2.4" opacity="0.9" stroke-linecap="round" stroke-linejoin="round"/>
<path d="M99 215.6 L99 215.6 Z" fill="#d9f2fb" stroke="#d9f2fb" stroke-width="2.4" opacity="0.9" stroke-linecap="round" stroke-linejoin="round"/>
<path d="M204.5 188.2 L204.5 188.2 Z" fill="#d9f2fb" stroke="#d9f2fb" stroke-width="2.4" opacity="0.9" stroke-linecap="round" stroke-linejoin="round"/>
<path d="M198.4 151.7 L198.4 151.7 Z" fill="#d9f2fb" stroke="#d9f2fb" stroke-width="2.4" opacity="0.9" stroke-linecap="round" stroke-linejoin="round"/>
<path d="M122.7 293.4 L122.7 293.4 Z" fill="#d9f2fb" stroke="#d9f2fb" stroke-width="2.4" opacity="0.9" stroke-linecap="round" stroke-linejoin="round"/>
<path d="M64 174.4 L64 174.4 Z" fill="#d9f2fb" stroke="#d9f2fb" stroke-width="2.4" opacity="0.9" stroke-linecap="round" stroke-linejoin="round"/>
<path d="M116 119.1 L116 119.1 Z" fill="#d9f2fb" stroke="#d9f2fb" stroke-width="2.4" opacity="0.9" stroke-linecap="round" stroke-linejoin="round"/>
<path d="M191.2 122.8 L191.2 122.8 Z" fill="#d9f2fb" stroke="#d9f2fb" stroke-width="2.4" opacity="0.9" stroke-linecap="round" stroke-linejoin="round"/>
<path d="M233.9 27.6 L233.9 27.6 Z" fill="#d9f2fb" stroke="#d9f2fb" stroke-width="2.4" opacity="0.9" stroke-linecap="round" stroke-linejoin="round"/>
<path d="M233.2 27.1 L233.2 27.1 Z" fill="#d9f2fb" stroke="#d9f2fb" stroke-width="2.4" opacity="0.9" stroke-linecap="round" stroke-linejoin="round"/>
<path d="M248.6 278.8 L248.6 278.8 Z" fill="#d9f2fb" stroke="#d9f2fb" stroke-width="2.4" opacity="0.9" stroke-linecap="round" stroke-linejoin="round"/>
<path d="M231.2 149.1 L231.2 149.1 Z" fill="#d9f2fb" stroke="#d9f2fb" stroke-width="2.4" opacity="0.9" stroke-linecap="round" stroke-linejoin="round"/>
<path d="M145.7 261.7 L145.7 261.7 Z" fill="#d9f2fb" stroke="#d9f2fb" stroke-width="2.4" opacity="0.9" stroke-linecap="round" stroke-linejoin="round"/>
<path d="M170.8 114.4 L170.8 114.4 Z" fill="#d9f2fb" stroke="#d9f2fb" stroke-width="2.4" opacity="0.9" stroke-linecap="round" stroke-linejoin="round"/>
<path d="M153.5 139.5 L153.5 139.5 Z" fill="#d9f2fb" stroke="#d9f2fb" stroke-width="2.4" opacity="0.9" stroke-linecap="round" stroke-linejoin="round"/>
<path d="M388.6 248.3 L388.6 248.3 Z" fill="#d9f2fb" stroke="#d9f2fb" stroke-width="2.4" opacity="0.9" stroke-linecap="round" stroke-linejoin="round"/>
<path d="M240.9 197.4 L240.9 197.4 Z" fill="#d9f2fb" stroke="#d9f2fb" stroke-width="2.4" opacity="0.9" stroke-linecap="round" stroke-linejoin="round"/>
<path d="M257.1 64.7 L257.1 64.7 Z" fill="#d9f2fb" stroke="#d9f2fb" stroke-width="2.4" opacity="0.9" stroke-linecap="round" stroke-linejoin="round"/>
<path d="M213.6 133.6 L213.6 133.6 Z" fill="#d9f2fb" stroke="#d9f2fb" stroke-width="2.4" opacity="0.9" stroke-linecap="round" stroke-linejoin="round"/>
<path d="M208.5 156.8 L208.5 156.8 Z" fill="#d9f2fb" stroke="#d9f2fb" stroke-width="2.4" opacity="0.9" stroke-linecap="round" stroke-linejoin="round"/>
<path d="M153.2 267.7 L153.2 267.7 Z" fill="#d9f2fb" stroke="#d9f2fb" stroke-width="2.4" opacity="0.9" stroke-linecap="round" stroke-linejoin="round"/>
<path d="M135.9 127.5 L135.9 127.5 Z" fill="#d9f2fb" stroke="#d9f2fb" stroke-width="2.4" opacity="0.9" stroke-linecap="round" stroke-linejoin="round"/>
<path d="M191.7 210.7 L191.7 210.7 Z" fill="#d9f2fb" stroke="#d9f2fb" stroke-width="2.4" opacity="0.9" stroke-linecap="round" stroke-linejoin="round"/>
<path d="M61.9 22.3 L61.9 22.3 Z" fill="#d9f2fb" stroke="#d9f2fb" stroke-width="2.4" opacity="0.9" stroke-linecap="round" stroke-linejoin="round"/>
<path d="M61.5 22.3 L61.5 22.3 Z" fill="#d9f2fb" stroke="#d9f2fb" stroke-width="2.4" opacity="0.9" stroke-linecap="round" stroke-linejoin="round"/>
<path d="M61.2 22.3 L61.2 22.3 Z" fill="#d9f2fb" stroke="#d9f2fb" stroke-width="2.4" opacity="0.9" stroke-linecap="round" stroke-linejoin="round"/>
<path d="M60.9 22.2 L60.9 22.2 Z" fill="#d9f2fb" stroke="#d9f2fb" stroke-width="2.4" opacity="0.9" stroke-linecap="round" stroke-linejoin="round"/>
<path d="M60.5 22.2 L60.5 22.2 Z" fill="#d9f2fb" stroke="#d9f2fb" stroke-width="2.4" opacity="0.9" stroke-linecap="round" stroke-linejoin="round"/>
<path d="M60.2 22.2 L60.2 22.2 Z" fill="#d9f2fb" stroke="#d9f2fb" stroke-width="2.4" opacity="0.9" stroke-linecap="round" stroke-linejoin="round"/>
<path d="M59.9 22.2 L59.9 22.2 Z" fill="#d9f2fb" stroke="#d9f2fb" stroke-width="2.4" opacity="0.9" stroke-linecap="round" stroke-linejoin="round"/>
<path d="M59.5 22.1 L59.5 22.1 Z" fill="#d9f2fb" stroke="#d9f2fb" stroke-width="2.4" opacity="0.9" stroke-linecap="round" stroke-linejoin="round"/>
<path d="M121.9 64 L121.9 64 Z" fill="#d9f2fb" stroke="#d9f2fb" stroke-width="2.4" opacity="0.9" stroke-linecap="round" stroke-linejoin="round"/>
<path d="M313.5 75.1 L313.5 75.1 Z" fill="#d9f2fb" stroke="#d9f2fb" stroke-width="2.4" opacity="0.9" stroke-linecap="round" stroke-linejoin="round"/>
<path d="M125.1 126.5 L125.1 126.5 Z" fill="#d9f2fb" stroke="#d9f2fb" stroke-width="2.4" opacity="0.9" stroke-linecap="round" stroke-linejoin="round"/>
<path d="M315.4 68 L315.4 68 Z" fill="#d9f2fb" stroke="#d9f2fb" stroke-width="2.4" opacity="0.9" stroke-linecap="round" stroke-linejoin="round"/>
<path d="M213.2 133.6 L213.2 133.6 Z" fill="#d9f2fb" stroke="#d9f2fb" stroke-width="2.4" opacity="0.9" stroke-linecap="round" stroke-linejoin="round"/>
<path d="M214 133.4 L214 133.4 Z" fill="#d9f2fb" stroke="#d9f2fb" stroke-width="2.4" opacity="0.9" stroke-linecap="round" stroke-linejoin="round"/>
<path d="M242.1 87.6 L242.1 87.6 Z" fill="#d9f2fb" stroke="#d9f2fb" stroke-width="2.4" opacity="0.9" stroke-linecap="round" stroke-linejoin="round"/>
<path d="M294.3 125.8 L294.3 125.8 Z" fill="#d9f2fb" stroke="#d9f2fb" stroke-width="2.4" opacity="0.9" stroke-linecap="round" stroke-linejoin="round"/>
<path d="M294.1 125.7 L294.1 125.7 Z" fill="#d9f2fb" stroke="#d9f2fb" stroke-width="2.4" opacity="0.9" stroke-linecap="round" stroke-linejoin="round"/>
<path d="M33.7 0 L37.4 16.8 L90.4 71.1 L93 81.3 L89.9 82.4 L90.4 103 L88.7 108.9 L95.5 125.8 L91.5 144.4 L93.3 148.2 L89 153.5 L85.1 154 L83.8 156.9" fill="none" stroke="#d9f2fb" stroke-width="6.8" opacity="0.9" stroke-linecap="round" stroke-linejoin="round"/>
<path d="M174.2 7.8 L172.5 11.5 L171.1 36.8 L172.6 41.7 L186.6 55.2 L210.2 62.9 L212.8 75.1 L220.3 80.8 L223.5 101.2 L215.7 112.7 L216.4 124.3 L219.9 133.4 L216.5 136.1 L217 137.5" fill="none" stroke="#d9f2fb" stroke-width="6.8" opacity="0.9" stroke-linecap="round" stroke-linejoin="round"/>
<path d="M98.4 300 L110.8 290.6 L133.6 265.4 L141.6 255.4 L150.3 237.8 L160.6 224.6 L179.3 211.7 L183.7 193.1 L194.4 179.6" fill="none" stroke="#d9f2fb" stroke-width="6.8" opacity="0.9" stroke-linecap="round" stroke-linejoin="round"/>
<path d="M313.9 31.1 L325.3 33.9 L359.7 72.9 L365.5 86.7 L368.7 109.4 L365.1 116.5 L363.3 129.6 L355.8 134.3 L353.3 138.9 L357.3 148 L361.1 150.1" fill="none" stroke="#d9f2fb" stroke-width="6.8" opacity="0.9" stroke-linecap="round" stroke-linejoin="round"/>
<path d="M85 192 L72.6 210 L59.6 222.8 L30.2 241.8 L15.6 248.7" fill="none" stroke="#d9f2fb" stroke-width="6.8" opacity="0.9" stroke-linecap="round" stroke-linejoin="round"/>
<path d="M15.6 248.7 L8.5 252 L3.2 294.8 L17.6 307.2 L29.8 311.9" fill="none" stroke="#d9f2fb" stroke-width="6.8" opacity="0.9" stroke-linecap="round" stroke-linejoin="round"/>
<path d="M411.5 99.2 L407.8 101.9 L398.9 115.9 L398.9 123.1 L394.2 129.6 L383.3 134.1 L361.1 133.7 L356.3 138.2 L358.7 143.1" fill="none" stroke="#d9f2fb" stroke-width="6.8" opacity="0.9" stroke-linecap="round" stroke-linejoin="round"/>
<path d="M318 255 L320.9 266.3 L319.9 271 L317.8 274.3 L298.5 286.7 L295.6 290.4 L294.9 296 L299.7 313.5" fill="none" stroke="#d9f2fb" stroke-width="6.8" opacity="0.9" stroke-linecap="round" stroke-linejoin="round"/>
<path d="M216.1 0 L221.6 13.2 L220.4 26.7 L216.5 33.4 L216.7 40.5 L219.1 44.3 L225.5 48.4 L221.4 53.4" fill="none" stroke="#d9f2fb" stroke-width="6.8" opacity="0.9" stroke-linecap="round" stroke-linejoin="round"/>
<path d="M249.6 171.8 L265.2 177.4 L275.2 186.1 L285.1 200.4 L290.9 215.6" fill="none" stroke="#d9f2fb" stroke-width="6.8" opacity="0.9" stroke-linecap="round" stroke-linejoin="round"/>
<path d="M356.4 164.9 L344 174.6 L340.4 173.7 L333.4 167.4 L323 165.9 L295.9 169.8" fill="none" stroke="#d9f2fb" stroke-width="6.8" opacity="0.9" stroke-linecap="round" stroke-linejoin="round"/>
<path d="M370 217.5 L351.8 225.3 L340.8 232.9 L313.1 243.5" fill="none" stroke="#d9f2fb" stroke-width="6.8" opacity="0.9" stroke-linecap="round" stroke-linejoin="round"/>
<path d="M217 137.5 L200.3 150.7 L193.7 169.3 L197.9 176" fill="none" stroke="#d9f2fb" stroke-width="6.8" opacity="0.9" stroke-linecap="round" stroke-linejoin="round"/>
<path d="M217 137.5 L232.6 156.5 L233.8 168.9" fill="none" stroke="#d9f2fb" stroke-width="6.8" opacity="0.9" stroke-linecap="round" stroke-linejoin="round"/>
<path d="M291.7 217.6 L300.7 236.9 L311.1 246" fill="none" stroke="#d9f2fb" stroke-width="6.8" opacity="0.9" stroke-linecap="round" stroke-linejoin="round"/>
<path d="M64.5 312.7 L76.2 309.6 L98.4 300" fill="none" stroke="#d9f2fb" stroke-width="6.8" opacity="0.9" stroke-linecap="round" stroke-linejoin="round"/>
<path d="M194.4 179.6 L209.5 173.9 L230.1 171" fill="none" stroke="#d9f2fb" stroke-width="6.8" opacity="0.9" stroke-linecap="round" stroke-linejoin="round"/>
<path d="M83 160.2 L88.4 166.4 L89.7 171.8 L88.7 184.5" fill="none" stroke="#d9f2fb" stroke-width="6.8" opacity="0.9" stroke-linecap="round" stroke-linejoin="round"/>
<path d="M295.6 169.8 L276.9 174.2 L269.6 180.3" fill="none" stroke="#d9f2fb" stroke-width="6.8" opacity="0.9" stroke-linecap="round" stroke-linejoin="round"/>
<path d="M359.6 145 L363.3 155.9 L356.4 164.9" fill="none" stroke="#d9f2fb" stroke-width="6.8" opacity="0.9" stroke-linecap="round" stroke-linejoin="round"/>
<path d="M34.3 162.3 L50 156.2 L60.7 154.3" fill="none" stroke="#d9f2fb" stroke-width="6.8" opacity="0.9" stroke-linecap="round" stroke-linejoin="round"/>
<path d="M241.6 41.4 L237.5 46.8 L221.4 53.4" fill="none" stroke="#d9f2fb" stroke-width="6.8" opacity="0.9" stroke-linecap="round" stroke-linejoin="round"/>
<path d="M6 179.2 L25.3 167.6" fill="none" stroke="#d9f2fb" stroke-width="6.8" opacity="0.9" stroke-linecap="round" stroke-linejoin="round"/>
<path d="M60.7 154.3 L71.4 155.2 L83 160.2" fill="none" stroke="#d9f2fb" stroke-width="6.8" opacity="0.9" stroke-linecap="round" stroke-linejoin="round"/>
<path d="M230.1 171 L249.6 171.8" fill="none" stroke="#d9f2fb" stroke-width="6.8" opacity="0.9" stroke-linecap="round" stroke-linejoin="round"/>
<path d="M221.4 53.4 L210.2 62.9" fill="none" stroke="#d9f2fb" stroke-width="6.8" opacity="0.9" stroke-linecap="round" stroke-linejoin="round"/>
<path d="M311.1 246 L318 255" fill="none" stroke="#d9f2fb" stroke-width="6.8" opacity="0.9" stroke-linecap="round" stroke-linejoin="round"/>
<path d="M255.1 42.7 L241.6 41.4" fill="none" stroke="#d9f2fb" stroke-width="6.8" opacity="0.9" stroke-linecap="round" stroke-linejoin="round"/>
<path d="M25.3 167.6 L34.3 162.3" fill="none" stroke="#d9f2fb" stroke-width="6.8" opacity="0.9" stroke-linecap="round" stroke-linejoin="round"/>
<path d="M88.1 187.2 L85 192" fill="none" stroke="#d9f2fb" stroke-width="6.8" opacity="0.9" stroke-linecap="round" stroke-linejoin="round"/>
<path d="M313.1 243.5 L309.9 244.9" fill="none" stroke="#d9f2fb" stroke-width="6.8" opacity="0.9" stroke-linecap="round" stroke-linejoin="round"/>
<path d="M83.8 156.9 L81 158.7" fill="none" stroke="#d9f2fb" stroke-width="6.8" opacity="0.9" stroke-linecap="round" stroke-linejoin="round"/>
<path d="M88.7 184.5 L88.1 187.2" fill="none" stroke="#d9f2fb" stroke-width="6.8" opacity="0.9" stroke-linecap="round" stroke-linejoin="round"/>
<path d="M233.5 166.5 L233.6 168.8" fill="none" stroke="#d9f2fb" stroke-width="6.8" opacity="0.9" stroke-linecap="round" stroke-linejoin="round"/>
<path d="M290.9 215.6 L291.7 217.6" fill="none" stroke="#d9f2fb" stroke-width="6.8" opacity="0.9" stroke-linecap="round" stroke-linejoin="round"/>
<path d="M233.8 168.9 L234.8 170.6" fill="none" stroke="#d9f2fb" stroke-width="6.8" opacity="0.9" stroke-linecap="round" stroke-linejoin="round"/>
<path d="M180.8 194.3 L183.1 195.3" fill="none" stroke="#d9f2fb" stroke-width="6.8" opacity="0.9" stroke-linecap="round" stroke-linejoin="round"/>
<path d="M358.7 143.1 L359.6 145" fill="none" stroke="#d9f2fb" stroke-width="6.8" opacity="0.9" stroke-linecap="round" stroke-linejoin="round"/>
<path d="M197.9 176 L199.1 177.4" fill="none" stroke="#d9f2fb" stroke-width="6.8" opacity="0.9" stroke-linecap="round" stroke-linejoin="round"/>
<path d="M361.1 150.1 L361.8 150.1" fill="none" stroke="#d9f2fb" stroke-width="6.8" opacity="0.9" stroke-linecap="round" stroke-linejoin="round"/>
<path d="M295.9 169.8 L295.6 169.8" fill="none" stroke="#d9f2fb" stroke-width="6.8" opacity="0.9" stroke-linecap="round" stroke-linejoin="round"/>
<path d="M190 207 L200.9 195.4 L221 184.7 L234.7 181.5 L252.3 184.3 L258.2 187.4 L264.5 196.2 L268 203.6 L270.2 215 L277.6 229.3 L286.7 234.5 L300.7 236.9" fill="none" stroke="#d9f2fb" stroke-width="6.8" opacity="0.9" stroke-linecap="round" stroke-linejoin="round"/>
<path d="M178.4 212.6 L188.6 208.2" fill="none" stroke="#d9f2fb" stroke-width="6.8" opacity="0.9" stroke-linecap="round" stroke-linejoin="round"/>
<path d="M188.6 208.2 L190 207" fill="none" stroke="#d9f2fb" stroke-width="6.8" opacity="0.9" stroke-linecap="round" stroke-linejoin="round"/>
</g>
<g data-layer="water">
<path d="M32.4 146.9 L37.8 154.3 L35.7 155.3 L37.3 153.9 L32.3 147.5 L28.8 148.9 L32.4 153.9 L28 149 L32.4 146.9 Z" fill="#7fc8e6" stroke="#117fa8" stroke-width="1.35" opacity="0.88" stroke-linecap="round" stroke-linejoin="round"/>
<path d="M29.7 255.2 L27.2 257.1 L26.2 256 L41.3 245.7 L44.7 247.9 L41.6 251 L34.2 252.2 L29.7 255.2 Z" fill="#7fc8e6" stroke="#117fa8" stroke-width="1.35" opacity="0.88" stroke-linecap="round" stroke-linejoin="round"/>
<path d="M308.1 233.7 L309.2 232.3 L316 239.5 L314 239.9 L308.1 233.7 Z" fill="#7fc8e6" stroke="#117fa8" stroke-width="1.35" opacity="0.88" stroke-linecap="round" stroke-linejoin="round"/>
<path d="M10.8 141.3 L15 145.8 L11.7 146.7 L8.7 141.9 L10.8 141.3 Z" fill="#7fc8e6" stroke="#117fa8" stroke-width="1.35" opacity="0.88" stroke-linecap="round" stroke-linejoin="round"/>
<path d="M408 108 L406.5 113.5 L408 108 Z" fill="#7fc8e6" stroke="#117fa8" stroke-width="1.35" opacity="0.88" stroke-linecap="round" stroke-linejoin="round"/>
<path d="M175.7 237.8 L177.1 239.5 L174.9 241.9 L172.8 241.2 L175.7 237.8 Z" fill="#7fc8e6" stroke="#117fa8" stroke-width="1.35" opacity="0.88" stroke-linecap="round" stroke-linejoin="round"/>
<path d="M405.5 119 L407.4 117.9 L406 116.3 L407.9 116.9 L407.6 118.9 L405.5 119 Z" fill="#7fc8e6" stroke="#117fa8" stroke-width="1.35" opacity="0.88" stroke-linecap="round" stroke-linejoin="round"/>
<path d="M198.3 150.9 L203.3 147.3 L198.3 150.9 Z" fill="#7fc8e6" stroke="#117fa8" stroke-width="1.35" opacity="0.88" stroke-linecap="round" stroke-linejoin="round"/>
<path d="M407.7 120.2 L410.1 119 L410.3 122.1 L407.7 120.2 Z" fill="#7fc8e6" stroke="#117fa8" stroke-width="1.35" opacity="0.88" stroke-linecap="round" stroke-linejoin="round"/>
<path d="M406.6 115.7 L408.1 114.6 L410 116.6 L406.6 115.7 Z" fill="#7fc8e6" stroke="#117fa8" stroke-width="1.35" opacity="0.88" stroke-linecap="round" stroke-linejoin="round"/>
<path d="M163.6 241.9 L162.2 243.6 L164.5 244.7 L165.9 243 L163.6 241.9 Z" fill="#7fc8e6" stroke="#117fa8" stroke-width="1.35" opacity="0.88" stroke-linecap="round" stroke-linejoin="round"/>
<path d="M407.8 105.4 L410.2 102.8 L407.8 105.4 Z" fill="#7fc8e6" stroke="#117fa8" stroke-width="1.35" opacity="0.88" stroke-linecap="round" stroke-linejoin="round"/>
<path d="M85.6 255.9 L87.1 255 L85.2 253.4 L83.9 254.3 L85.6 255.9 Z" fill="#7fc8e6" stroke="#117fa8" stroke-width="1.35" opacity="0.88" stroke-linecap="round" stroke-linejoin="round"/>
<path d="M184.6 56.4 L187 57 L186 58.5 L184.6 56.4 Z" fill="#7fc8e6" stroke="#117fa8" stroke-width="1.35" opacity="0.88" stroke-linecap="round" stroke-linejoin="round"/>
<path d="M67 176 L64.5 175.7 L66.4 174.6 L67 176 Z" fill="#7fc8e6" stroke="#117fa8" stroke-width="1.35" opacity="0.88" stroke-linecap="round" stroke-linejoin="round"/>
<path d="M261.2 60.5 L257.6 60.2 L261.2 60.5 Z" fill="#7fc8e6" stroke="#117fa8" stroke-width="1.35" opacity="0.88" stroke-linecap="round" stroke-linejoin="round"/>
<path d="M371.1 166 L369 166.1 L371.1 166 Z" fill="#7fc8e6" stroke="#117fa8" stroke-width="1.35" opacity="0.88" stroke-linecap="round" stroke-linejoin="round"/>
<path d="M94.2 116.4 L96.6 117.8 L94.2 116.4 Z" fill="#7fc8e6" stroke="#117fa8" stroke-width="1.35" opacity="0.88" stroke-linecap="round" stroke-linejoin="round"/>
<path d="M110.8 117 L108 117.5 L110.8 117 Z" fill="#7fc8e6" stroke="#117fa8" stroke-width="1.35" opacity="0.88" stroke-linecap="round" stroke-linejoin="round"/>
<path d="M75.5 193.7 L75.8 192 L75.5 193.7 Z" fill="#7fc8e6" stroke="#117fa8" stroke-width="1.35" opacity="0.88" stroke-linecap="round" stroke-linejoin="round"/>
<path d="M242.3 167.6 L244.8 167.7 L242.3 167.6 Z" fill="#7fc8e6" stroke="#117fa8" stroke-width="1.35" opacity="0.88" stroke-linecap="round" stroke-linejoin="round"/>
<path d="M93.7 147.8 L95.3 147.1 L93.7 147.8 Z" fill="#7fc8e6" stroke="#117fa8" stroke-width="1.35" opacity="0.88" stroke-linecap="round" stroke-linejoin="round"/>
<path d="M254.4 64.5 L256.7 65 L254.4 64.5 Z" fill="#7fc8e6" stroke="#117fa8" stroke-width="1.35" opacity="0.88" stroke-linecap="round" stroke-linejoin="round"/>
<path d="M212.8 33.1 L212.8 33.1 Z" fill="#7fc8e6" stroke="#117fa8" stroke-width="1.35" opacity="0.88" stroke-linecap="round" stroke-linejoin="round"/>
<path d="M212 42.3 L212 42.3 Z" fill="#7fc8e6" stroke="#117fa8" stroke-width="1.35" opacity="0.88" stroke-linecap="round" stroke-linejoin="round"/>
<path d="M82.9 150.2 L82.9 150.2 Z" fill="#7fc8e6" stroke="#117fa8" stroke-width="1.35" opacity="0.88" stroke-linecap="round" stroke-linejoin="round"/>
<path d="M86 150.9 L86 150.9 Z" fill="#7fc8e6" stroke="#117fa8" stroke-width="1.35" opacity="0.88" stroke-linecap="round" stroke-linejoin="round"/>
<path d="M145 277.8 L145 277.8 Z" fill="#7fc8e6" stroke="#117fa8" stroke-width="1.35" opacity="0.88" stroke-linecap="round" stroke-linejoin="round"/>
<path d="M264.3 207.3 L264.3 207.3 Z" fill="#7fc8e6" stroke="#117fa8" stroke-width="1.35" opacity="0.88" stroke-linecap="round" stroke-linejoin="round"/>
<path d="M410.2 226.9 L410.8 225.2" fill="none" stroke="#117fa8" stroke-width="3.8" opacity="0.88" stroke-linecap="round" stroke-linejoin="round"/>
<path d="M91.1 114.3 L91.1 114.3 Z" fill="#7fc8e6" stroke="#117fa8" stroke-width="1.35" opacity="0.88" stroke-linecap="round" stroke-linejoin="round"/>
<path d="M178.4 109.6 L178.4 109.6 Z" fill="#7fc8e6" stroke="#117fa8" stroke-width="1.35" opacity="0.88" stroke-linecap="round" stroke-linejoin="round"/>
<path d="M161.9 296.3 L161.9 296.3 Z" fill="#7fc8e6" stroke="#117fa8" stroke-width="1.35" opacity="0.88" stroke-linecap="round" stroke-linejoin="round"/>
<path d="M124.7 282.4 L124.7 282.4 Z" fill="#7fc8e6" stroke="#117fa8" stroke-width="1.35" opacity="0.88" stroke-linecap="round" stroke-linejoin="round"/>
<path d="M233.4 27.1 L233.4 27.1 Z" fill="#7fc8e6" stroke="#117fa8" stroke-width="1.35" opacity="0.88" stroke-linecap="round" stroke-linejoin="round"/>
<path d="M94.8 115 L94.8 115 Z" fill="#7fc8e6" stroke="#117fa8" stroke-width="1.35" opacity="0.88" stroke-linecap="round" stroke-linejoin="round"/>
<path d="M99 215.6 L99 215.6 Z" fill="#7fc8e6" stroke="#117fa8" stroke-width="1.35" opacity="0.88" stroke-linecap="round" stroke-linejoin="round"/>
<path d="M204.5 188.2 L204.5 188.2 Z" fill="#7fc8e6" stroke="#117fa8" stroke-width="1.35" opacity="0.88" stroke-linecap="round" stroke-linejoin="round"/>
<path d="M198.4 151.7 L198.4 151.7 Z" fill="#7fc8e6" stroke="#117fa8" stroke-width="1.35" opacity="0.88" stroke-linecap="round" stroke-linejoin="round"/>
<path d="M122.7 293.4 L122.7 293.4 Z" fill="#7fc8e6" stroke="#117fa8" stroke-width="1.35" opacity="0.88" stroke-linecap="round" stroke-linejoin="round"/>
<path d="M64 174.4 L64 174.4 Z" fill="#7fc8e6" stroke="#117fa8" stroke-width="1.35" opacity="0.88" stroke-linecap="round" stroke-linejoin="round"/>
<path d="M116 119.1 L116 119.1 Z" fill="#7fc8e6" stroke="#117fa8" stroke-width="1.35" opacity="0.88" stroke-linecap="round" stroke-linejoin="round"/>
<path d="M191.2 122.8 L191.2 122.8 Z" fill="#7fc8e6" stroke="#117fa8" stroke-width="1.35" opacity="0.88" stroke-linecap="round" stroke-linejoin="round"/>
<path d="M233.9 27.6 L233.9 27.6 Z" fill="#7fc8e6" stroke="#117fa8" stroke-width="1.35" opacity="0.88" stroke-linecap="round" stroke-linejoin="round"/>
<path d="M233.2 27.1 L233.2 27.1 Z" fill="#7fc8e6" stroke="#117fa8" stroke-width="1.35" opacity="0.88" stroke-linecap="round" stroke-linejoin="round"/>
<path d="M248.6 278.8 L248.6 278.8 Z" fill="#7fc8e6" stroke="#117fa8" stroke-width="1.35" opacity="0.88" stroke-linecap="round" stroke-linejoin="round"/>
<path d="M231.2 149.1 L231.2 149.1 Z" fill="#7fc8e6" stroke="#117fa8" stroke-width="1.35" opacity="0.88" stroke-linecap="round" stroke-linejoin="round"/>
<path d="M145.7 261.7 L145.7 261.7 Z" fill="#7fc8e6" stroke="#117fa8" stroke-width="1.35" opacity="0.88" stroke-linecap="round" stroke-linejoin="round"/>
<path d="M170.8 114.4 L170.8 114.4 Z" fill="#7fc8e6" stroke="#117fa8" stroke-width="1.35" opacity="0.88" stroke-linecap="round" stroke-linejoin="round"/>
<path d="M153.5 139.5 L153.5 139.5 Z" fill="#7fc8e6" stroke="#117fa8" stroke-width="1.35" opacity="0.88" stroke-linecap="round" stroke-linejoin="round"/>
<path d="M388.6 248.3 L388.6 248.3 Z" fill="#7fc8e6" stroke="#117fa8" stroke-width="1.35" opacity="0.88" stroke-linecap="round" stroke-linejoin="round"/>
<path d="M240.9 197.4 L240.9 197.4 Z" fill="#7fc8e6" stroke="#117fa8" stroke-width="1.35" opacity="0.88" stroke-linecap="round" stroke-linejoin="round"/>
<path d="M257.1 64.7 L257.1 64.7 Z" fill="#7fc8e6" stroke="#117fa8" stroke-width="1.35" opacity="0.88" stroke-linecap="round" stroke-linejoin="round"/>
<path d="M213.6 133.6 L213.6 133.6 Z" fill="#7fc8e6" stroke="#117fa8" stroke-width="1.35" opacity="0.88" stroke-linecap="round" stroke-linejoin="round"/>
<path d="M208.5 156.8 L208.5 156.8 Z" fill="#7fc8e6" stroke="#117fa8" stroke-width="1.35" opacity="0.88" stroke-linecap="round" stroke-linejoin="round"/>
<path d="M153.2 267.7 L153.2 267.7 Z" fill="#7fc8e6" stroke="#117fa8" stroke-width="1.35" opacity="0.88" stroke-linecap="round" stroke-linejoin="round"/>
<path d="M135.9 127.5 L135.9 127.5 Z" fill="#7fc8e6" stroke="#117fa8" stroke-width="1.35" opacity="0.88" stroke-linecap="round" stroke-linejoin="round"/>
<path d="M191.7 210.7 L191.7 210.7 Z" fill="#7fc8e6" stroke="#117fa8" stroke-width="1.35" opacity="0.88" stroke-linecap="round" stroke-linejoin="round"/>
<path d="M61.9 22.3 L61.9 22.3 Z" fill="#7fc8e6" stroke="#117fa8" stroke-width="1.35" opacity="0.88" stroke-linecap="round" stroke-linejoin="round"/>
<path d="M61.5 22.3 L61.5 22.3 Z" fill="#7fc8e6" stroke="#117fa8" stroke-width="1.35" opacity="0.88" stroke-linecap="round" stroke-linejoin="round"/>
<path d="M61.2 22.3 L61.2 22.3 Z" fill="#7fc8e6" stroke="#117fa8" stroke-width="1.35" opacity="0.88" stroke-linecap="round" stroke-linejoin="round"/>
<path d="M60.9 22.2 L60.9 22.2 Z" fill="#7fc8e6" stroke="#117fa8" stroke-width="1.35" opacity="0.88" stroke-linecap="round" stroke-linejoin="round"/>
<path d="M60.5 22.2 L60.5 22.2 Z" fill="#7fc8e6" stroke="#117fa8" stroke-width="1.35" opacity="0.88" stroke-linecap="round" stroke-linejoin="round"/>
<path d="M60.2 22.2 L60.2 22.2 Z" fill="#7fc8e6" stroke="#117fa8" stroke-width="1.35" opacity="0.88" stroke-linecap="round" stroke-linejoin="round"/>
<path d="M59.9 22.2 L59.9 22.2 Z" fill="#7fc8e6" stroke="#117fa8" stroke-width="1.35" opacity="0.88" stroke-linecap="round" stroke-linejoin="round"/>
<path d="M59.5 22.1 L59.5 22.1 Z" fill="#7fc8e6" stroke="#117fa8" stroke-width="1.35" opacity="0.88" stroke-linecap="round" stroke-linejoin="round"/>
<path d="M121.9 64 L121.9 64 Z" fill="#7fc8e6" stroke="#117fa8" stroke-width="1.35" opacity="0.88" stroke-linecap="round" stroke-linejoin="round"/>
<path d="M313.5 75.1 L313.5 75.1 Z" fill="#7fc8e6" stroke="#117fa8" stroke-width="1.35" opacity="0.88" stroke-linecap="round" stroke-linejoin="round"/>
<path d="M125.1 126.5 L125.1 126.5 Z" fill="#7fc8e6" stroke="#117fa8" stroke-width="1.35" opacity="0.88" stroke-linecap="round" stroke-linejoin="round"/>
<path d="M315.4 68 L315.4 68 Z" fill="#7fc8e6" stroke="#117fa8" stroke-width="1.35" opacity="0.88" stroke-linecap="round" stroke-linejoin="round"/>
<path d="M213.2 133.6 L213.2 133.6 Z" fill="#7fc8e6" stroke="#117fa8" stroke-width="1.35" opacity="0.88" stroke-linecap="round" stroke-linejoin="round"/>
<path d="M214 133.4 L214 133.4 Z" fill="#7fc8e6" stroke="#117fa8" stroke-width="1.35" opacity="0.88" stroke-linecap="round" stroke-linejoin="round"/>
<path d="M242.1 87.6 L242.1 87.6 Z" fill="#7fc8e6" stroke="#117fa8" stroke-width="1.35" opacity="0.88" stroke-linecap="round" stroke-linejoin="round"/>
<path d="M294.3 125.8 L294.3 125.8 Z" fill="#7fc8e6" stroke="#117fa8" stroke-width="1.35" opacity="0.88" stroke-linecap="round" stroke-linejoin="round"/>
<path d="M294.1 125.7 L294.1 125.7 Z" fill="#7fc8e6" stroke="#117fa8" stroke-width="1.35" opacity="0.88" stroke-linecap="round" stroke-linejoin="round"/>
<path d="M33.7 0 L37.4 16.8 L90.4 71.1 L93 81.3 L89.9 82.4 L90.4 103 L88.7 108.9 L95.5 125.8 L91.5 144.4 L93.3 148.2 L89 153.5 L85.1 154 L83.8 156.9" fill="none" stroke="#117fa8" stroke-width="3.8" opacity="0.88" stroke-linecap="round" stroke-linejoin="round"/>
<path d="M174.2 7.8 L172.5 11.5 L171.1 36.8 L172.6 41.7 L186.6 55.2 L210.2 62.9 L212.8 75.1 L220.3 80.8 L223.5 101.2 L215.7 112.7 L216.4 124.3 L219.9 133.4 L216.5 136.1 L217 137.5" fill="none" stroke="#117fa8" stroke-width="3.8" opacity="0.88" stroke-linecap="round" stroke-linejoin="round"/>
<path d="M98.4 300 L110.8 290.6 L133.6 265.4 L141.6 255.4 L150.3 237.8 L160.6 224.6 L179.3 211.7 L183.7 193.1 L194.4 179.6" fill="none" stroke="#117fa8" stroke-width="3.8" opacity="0.88" stroke-linecap="round" stroke-linejoin="round"/>
<path d="M313.9 31.1 L325.3 33.9 L359.7 72.9 L365.5 86.7 L368.7 109.4 L365.1 116.5 L363.3 129.6 L355.8 134.3 L353.3 138.9 L357.3 148 L361.1 150.1" fill="none" stroke="#117fa8" stroke-width="3.8" opacity="0.88" stroke-linecap="round" stroke-linejoin="round"/>
<path d="M85 192 L72.6 210 L59.6 222.8 L30.2 241.8 L15.6 248.7" fill="none" stroke="#117fa8" stroke-width="3.8" opacity="0.88" stroke-linecap="round" stroke-linejoin="round"/>
<path d="M15.6 248.7 L8.5 252 L3.2 294.8 L17.6 307.2 L29.8 311.9" fill="none" stroke="#117fa8" stroke-width="3.8" opacity="0.88" stroke-linecap="round" stroke-linejoin="round"/>
<path d="M411.5 99.2 L407.8 101.9 L398.9 115.9 L398.9 123.1 L394.2 129.6 L383.3 134.1 L361.1 133.7 L356.3 138.2 L358.7 143.1" fill="none" stroke="#117fa8" stroke-width="3.8" opacity="0.88" stroke-linecap="round" stroke-linejoin="round"/>
<path d="M318 255 L320.9 266.3 L319.9 271 L317.8 274.3 L298.5 286.7 L295.6 290.4 L294.9 296 L299.7 313.5" fill="none" stroke="#117fa8" stroke-width="3.8" opacity="0.88" stroke-linecap="round" stroke-linejoin="round"/>
<path d="M216.1 0 L221.6 13.2 L220.4 26.7 L216.5 33.4 L216.7 40.5 L219.1 44.3 L225.5 48.4 L221.4 53.4" fill="none" stroke="#117fa8" stroke-width="3.8" opacity="0.88" stroke-linecap="round" stroke-linejoin="round"/>
<path d="M249.6 171.8 L265.2 177.4 L275.2 186.1 L285.1 200.4 L290.9 215.6" fill="none" stroke="#117fa8" stroke-width="3.8" opacity="0.88" stroke-linecap="round" stroke-linejoin="round"/>
<path d="M356.4 164.9 L344 174.6 L340.4 173.7 L333.4 167.4 L323 165.9 L295.9 169.8" fill="none" stroke="#117fa8" stroke-width="3.8" opacity="0.88" stroke-linecap="round" stroke-linejoin="round"/>
<path d="M370 217.5 L351.8 225.3 L340.8 232.9 L313.1 243.5" fill="none" stroke="#117fa8" stroke-width="3.8" opacity="0.88" stroke-linecap="round" stroke-linejoin="round"/>
<path d="M217 137.5 L200.3 150.7 L193.7 169.3 L197.9 176" fill="none" stroke="#117fa8" stroke-width="3.8" opacity="0.88" stroke-linecap="round" stroke-linejoin="round"/>
<path d="M217 137.5 L232.6 156.5 L233.8 168.9" fill="none" stroke="#117fa8" stroke-width="3.8" opacity="0.88" stroke-linecap="round" stroke-linejoin="round"/>
<path d="M291.7 217.6 L300.7 236.9 L311.1 246" fill="none" stroke="#117fa8" stroke-width="3.8" opacity="0.88" stroke-linecap="round" stroke-linejoin="round"/>
<path d="M64.5 312.7 L76.2 309.6 L98.4 300" fill="none" stroke="#117fa8" stroke-width="3.8" opacity="0.88" stroke-linecap="round" stroke-linejoin="round"/>
<path d="M194.4 179.6 L209.5 173.9 L230.1 171" fill="none" stroke="#117fa8" stroke-width="3.8" opacity="0.88" stroke-linecap="round" stroke-linejoin="round"/>
<path d="M83 160.2 L88.4 166.4 L89.7 171.8 L88.7 184.5" fill="none" stroke="#117fa8" stroke-width="3.8" opacity="0.88" stroke-linecap="round" stroke-linejoin="round"/>
<path d="M295.6 169.8 L276.9 174.2 L269.6 180.3" fill="none" stroke="#117fa8" stroke-width="3.8" opacity="0.88" stroke-linecap="round" stroke-linejoin="round"/>
<path d="M359.6 145 L363.3 155.9 L356.4 164.9" fill="none" stroke="#117fa8" stroke-width="3.8" opacity="0.88" stroke-linecap="round" stroke-linejoin="round"/>
<path d="M34.3 162.3 L50 156.2 L60.7 154.3" fill="none" stroke="#117fa8" stroke-width="3.8" opacity="0.88" stroke-linecap="round" stroke-linejoin="round"/>
<path d="M241.6 41.4 L237.5 46.8 L221.4 53.4" fill="none" stroke="#117fa8" stroke-width="3.8" opacity="0.88" stroke-linecap="round" stroke-linejoin="round"/>
<path d="M6 179.2 L25.3 167.6" fill="none" stroke="#117fa8" stroke-width="3.8" opacity="0.88" stroke-linecap="round" stroke-linejoin="round"/>
<path d="M60.7 154.3 L71.4 155.2 L83 160.2" fill="none" stroke="#117fa8" stroke-width="3.8" opacity="0.88" stroke-linecap="round" stroke-linejoin="round"/>
<path d="M230.1 171 L249.6 171.8" fill="none" stroke="#117fa8" stroke-width="3.8" opacity="0.88" stroke-linecap="round" stroke-linejoin="round"/>
<path d="M221.4 53.4 L210.2 62.9" fill="none" stroke="#117fa8" stroke-width="3.8" opacity="0.88" stroke-linecap="round" stroke-linejoin="round"/>
<path d="M311.1 246 L318 255" fill="none" stroke="#117fa8" stroke-width="3.8" opacity="0.88" stroke-linecap="round" stroke-linejoin="round"/>
<path d="M255.1 42.7 L241.6 41.4" fill="none" stroke="#117fa8" stroke-width="3.8" opacity="0.88" stroke-linecap="round" stroke-linejoin="round"/>
<path d="M25.3 167.6 L34.3 162.3" fill="none" stroke="#117fa8" stroke-width="3.8" opacity="0.88" stroke-linecap="round" stroke-linejoin="round"/>
<path d="M88.1 187.2 L85 192" fill="none" stroke="#117fa8" stroke-width="3.8" opacity="0.88" stroke-linecap="round" stroke-linejoin="round"/>
<path d="M313.1 243.5 L309.9 244.9" fill="none" stroke="#117fa8" stroke-width="3.8" opacity="0.88" stroke-linecap="round" stroke-linejoin="round"/>
<path d="M83.8 156.9 L81 158.7" fill="none" stroke="#117fa8" stroke-width="3.8" opacity="0.88" stroke-linecap="round" stroke-linejoin="round"/>
<path d="M88.7 184.5 L88.1 187.2" fill="none" stroke="#117fa8" stroke-width="3.8" opacity="0.88" stroke-linecap="round" stroke-linejoin="round"/>
<path d="M233.5 166.5 L233.6 168.8" fill="none" stroke="#117fa8" stroke-width="3.8" opacity="0.88" stroke-linecap="round" stroke-linejoin="round"/>
<path d="M290.9 215.6 L291.7 217.6" fill="none" stroke="#117fa8" stroke-width="3.8" opacity="0.88" stroke-linecap="round" stroke-linejoin="round"/>
<path d="M233.8 168.9 L234.8 170.6" fill="none" stroke="#117fa8" stroke-width="3.8" opacity="0.88" stroke-linecap="round" stroke-linejoin="round"/>
<path d="M180.8 194.3 L183.1 195.3" fill="none" stroke="#117fa8" stroke-width="3.8" opacity="0.88" stroke-linecap="round" stroke-linejoin="round"/>
<path d="M358.7 143.1 L359.6 145" fill="none" stroke="#117fa8" stroke-width="3.8" opacity="0.88" stroke-linecap="round" stroke-linejoin="round"/>
<path d="M197.9 176 L199.1 177.4" fill="none" stroke="#117fa8" stroke-width="3.8" opacity="0.88" stroke-linecap="round" stroke-linejoin="round"/>
<path d="M361.1 150.1 L361.8 150.1" fill="none" stroke="#117fa8" stroke-width="3.8" opacity="0.88" stroke-linecap="round" stroke-linejoin="round"/>
<path d="M295.9 169.8 L295.6 169.8" fill="none" stroke="#117fa8" stroke-width="3.8" opacity="0.88" stroke-linecap="round" stroke-linejoin="round"/>
<path d="M190 207 L200.9 195.4 L221 184.7 L234.7 181.5 L252.3 184.3 L258.2 187.4 L264.5 196.2 L268 203.6 L270.2 215 L277.6 229.3 L286.7 234.5 L300.7 236.9" fill="none" stroke="#117fa8" stroke-width="3.8" opacity="0.88" stroke-linecap="round" stroke-linejoin="round"/>
<path d="M178.4 212.6 L188.6 208.2" fill="none" stroke="#117fa8" stroke-width="3.8" opacity="0.88" stroke-linecap="round" stroke-linejoin="round"/>
<path d="M188.6 208.2 L190 207" fill="none" stroke="#117fa8" stroke-width="3.8" opacity="0.88" stroke-linecap="round" stroke-linejoin="round"/>
</g>
<g data-layer="coastline">
</g>
<g data-layer="major-road-casing">
<path d="M227.5 168.6 L200.5 174.5 M190.2 173.3 L199.1 187.6 M199.9 187.3 L192.5 175.4 M188.8 158.4 L175.7 157.3 M193 154.6 L194.5 150.8 M188.1 164.3 L189.8 160.4 M191 173 L186.5 169.8 M203.3 141.9 L207.5 138.5 M186.6 167.8 L188.1 164.3 M269.7 175.6 L250.3 169.2 M197.7 146.9 L199.9 144.4 M236 168 L230.8 168.2 M198.4 175.2 L194.2 174.9 M251 169.6 L269.4 175.9 M245 143.4 L252.9 151.3 M194.5 150.8 L196 148.9 M200.9 140.6 L197.1 137.7 M179.3 168.7 L184.5 170.7 M175.7 157.3 L166.1 156.7 M172.5 166.2 L179.3 168.7 M241.4 168.3 L236 168 M198.3 139.5 L201.4 141.6 M264.9 180.2 L249.6 173.9 L234.7 172.4 M193.7 133.3 L187.8 125.4 M234.9 134.7 L240.7 140.3 M249.4 169 L243.1 168.4 M212.5 135.8 L216.3 134.9 M234.7 172.6 L251.8 174.8 M116.3 158.2 L158 156.9 M197.1 137.7 L194.9 134.9 M156 156.6 L115.1 157.8 M167.6 186.9 L162.5 183.7 L160.5 179.8 L162.9 163.9 M222.2 133.6 L226.4 132.9 M167.4 164.4 L171.8 165.9 M228.8 185.6 L229.6 201.1 M253.6 155 L252.8 159.1 M200.4 189.7 L202.4 193.4 M251 166 L249.4 169 M190.9 130.6 L193 133.6 M187.7 126.4 L190.9 130.6 M263.8 111.9 L256.9 121.1 L249.4 127.1 M223.1 154.6 L227.2 159.1 M217.6 183.9 L205.7 190.3 M229.3 174.2 L228.7 167.8 M228.5 164.9 L228.6 162 L230.5 162.6 M228.6 207.9 L227 240.9 M279.8 165.5 L288 163.3 L292.6 156.4 M287.9 127.4 L283.3 121.9 L270.2 113.2 M231.9 158.6 L227.6 160 M219.2 103.3 L201.5 100.1 M238.1 157.4 L231.9 158.6 M230.5 162.6 L230.6 166 M233.8 182.5 L247.7 184.3 M239.8 201.6 L239.2 193.2 L236.6 186.9 M237.8 146.9 L231.6 149.7 M218.8 80.9 L219.1 102.1 M228.7 167.8 L228.5 164.9 M208.8 183.2 L202 187.2 M255.5 184.5 L240.4 181.3 M292.6 156.4 L295.9 146.3 L293.3 141.8 M229.6 178.3 L229.3 174.2 M230.2 150.5 L227.4 151.7 M210.1 192.2 L217.6 187.6 M212.8 180.8 L208.8 183.2 M194.1 150.6 L191.6 149.6 M230.6 166 L230.6 168.3 M232.8 180.1 L231.8 175.6 M226.6 152.2 L225 153 M224.2 153.5 L223.1 154.1 M191.6 149.6 L188.7 148.4 M227.7 160.7 L227.5 162 M242.8 157.2 L238.1 157.4 M240.4 181.3 L232.9 180.6 M227.2 159.1 L227.6 160 M238.6 176.4 L245.3 178.5 M216 180.4 L212.8 180.8 M229 181.1 L224.2 181.8 M217.6 187.6 L222.8 185.2 M225 153 L224.2 153.5 M233.8 175.4 L238.6 176.4 M223.1 154.1 L223.1 154.6 M227.6 160 L227.7 160.7 M237.7 221.9 L239.8 201.6 M217.3 182.6 L216 180.4 M222.8 185.2 L227.3 183.7 M214.2 130.2 L216 134.1 M227.4 151.7 L226.6 152.2 M184.4 146.5 L181 145 M231.6 149.7 L230.2 150.5 M224.2 181.8 L220.9 182.4 M229.7 181 L229.6 178.3 M301 126.7 L313.4 117.3 M93.7 184.5 L93.6 167.6 M222.7 58.9 L216.4 69 L216.7 77.2 M134.4 256.7 L153.3 226.1 M84.7 183.6 L85.1 171.6 L82.3 165.2 M93.2 184.6 L79.9 205.9 M349.5 182 L326.2 193.1 M302.1 247.9 L275.6 238.9 M144.4 237.7 L133.9 256.5 M80.3 206 L90.9 189.4 M193.3 251.2 L188.8 271.5 M188.9 273 L193.9 250.8 M314.1 243 L303.5 234.4 L298.5 225.8 M278.1 240.2 L301.8 248.4 M80.1 163.1 L83.9 168.6 L85 175.5 M347.2 171.9 L342 173.6 L333.6 166.6 M209.8 277.5 L203.8 257 M358.2 164.2 L364.3 154.6 L358.7 140.2 L359.4 136.5 L364.7 133.7 L376.5 134.7 M361.5 157.8 L349.2 169.6 M340.4 231.6 L326 217.9 M297.3 69.4 L283.3 57.1 M51.8 152.4 L70.6 151.5 M355.2 146 L362 152.7 L361.6 157.7 M121.4 273.1 L134.4 256.7 M133.9 256.5 L121 272.9 M233.1 242.5 L244.9 240.6 M263.5 85.3 L253.9 83.2 M114.8 160.4 L116.3 158.2 M164.5 187.2 L166.3 185.9 M142.1 225.9 L140.6 229.9 M191.1 242 L193.8 244 M124.4 210.9 L123.9 211.4 M280.1 92.1 L280.4 91.6 M283.4 92.9 L283 93.3 M118.3 212.3 L118 212.1 M74.6 285.7 L64.3 281.7 L63.5 283.6 L71 286.5 M371.8 61.1 L358.9 53.8 M353 49.8 L343 42.3 M176.8 259.3 L177.6 259.7 M86.5 291.7 L73.1 285.7 M145.8 11 L132.7 10.5 M172.8 264.1 L172.1 263.6 M32 181.4 L31.1 180.4 L35.9 178.2 M92.3 228 L92.1 227.7 M397.4 115.4 L394.2 120.6 M251 166 L250.3 169.2 M231.8 132.4 L234.9 134.7 M164.2 161.5 L167.4 164.4 M194 134.8 L195.3 136.2 M196 228.1 L204.4 209 M203.4 209.5 L195.6 227.3 M226.4 132.9 L229.4 132.3 M206.4 201.7 L203.4 209.5 M164.1 157.6 L163.8 159.9 M205.7 198.5 L204.3 195.6 M177.6 115.1 L183.4 121.3 M183.9 121 L178.3 115.2 M207 201.9 L205.7 198.5 M205.1 198.6 L206.4 201.7 M273.4 179.1 L279.9 187.6 M183.4 121.3 L185.7 123.9 M204.4 209 L206.4 205 M276.8 182.9 L273.9 178.8 M281.4 189.4 L287.3 198.4 M287.5 198.3 L281.7 189.3 M202.6 80.8 L232.4 80.6 M232.5 80.2 L202.6 80.4 M172.8 110.8 L167.8 107.2 M320.5 136.5 L315.9 158 M299.3 208.9 L281.7 224.8 M115.1 157.8 L93.2 157.8 M120.6 205.9 L115.9 190.7 M282.6 224.9 L298.5 210.4 M119.3 132.4 L124.8 122 M163 104.2 L168.1 108 M113.1 170.6 L114.4 160.2 M195.4 228 L194 239.8 M272.3 177.1 L271.7 176.6 M113.8 160.2 L112.4 170.5 M271.3 176.9 L271.8 177.4 M125.8 119 L120 129.1 M281.7 189.3 L279.6 186.5 M114.8 156.7 L116 148.3 M314.9 172.9 L313.5 187.2 M127.2 118 L134.8 109.2 M115.3 148.3 L114.3 156.7 M194.6 239.8 L195.7 229.4 M314.1 187.2 L315.4 172.9 M133 110.1 L125.8 119 M115 190.5 L118.5 202.6 M316.2 164 L319 150.7 M116 148.3 L117.3 140.5 M279.6 186.5 L278.5 185 M299.4 99.8 L316.1 115.3 M251.6 155.9 L246.5 157.3 M281.7 92.1 L264.1 85.4 M187 147.7 L185 146.8 M92.4 158.3 L108.7 158.3 M158.7 100.6 L151.6 95.2 M188.7 148.4 L187 147.7 M112.3 178.1 L113.1 170.6 M246.5 157.3 L242.8 157.2 M240.5 145.6 L244.1 143.3 M151.2 95.4 L158.1 100.6 M229.7 183.2 L233.8 182.5 M240.5 145.6 L237.8 146.9 M186.3 179.7 L183.5 178.2 M287.3 198.4 L289.5 203.8 M321.3 136.5 L319.2 120.4 M219.5 182.7 L217.6 183.9 M230.9 174.4 L230.6 173.2 M162.9 228.8 L153.2 224.6 M194.5 150.8 L194.1 150.6 M219.5 182.7 L217.3 182.6 M231.8 175.6 L230.9 174.4 M231.8 175.6 L233.8 175.4 M143.2 220.3 L132.7 215.3 M257 187.9 L266.1 201.9 L268.9 214.7 L273.5 224.6 M152.9 225 L162.6 229.2 M316.7 114.8 L302 101.4 M168.2 84.1 L155.7 89.3 M134.8 109.2 L141.1 103.3 M178 143.9 L174 143 M235.5 185.2 L233.8 182.5 M171.7 232.6 L162.9 228.8 M227.3 183.7 L228.8 185.6 M217.3 182.6 L217.6 183.9 M232 180.6 L229.7 181 M184.4 238.1 L174.7 233.9 M198.5 199.5 L202.5 207 M162.6 229.2 L171.4 232.9 M260 237.8 L244.7 240 M154.4 92.9 L163.5 88.5 M113.9 184.3 L112.3 178.1 M205.7 190.3 L202.5 192.1 M292.5 210.3 L289.8 203.8 M147.6 96.9 L141.2 102.4 M115.9 190.7 L113.9 184.3 M264.9 86.2 L278.2 91.4 M311.8 194.7 L304.8 203.8 M122.2 210.3 L132.2 215.8 M220.9 182.4 L219.5 182.7 M220 133.3 L219.2 131.2 M305.2 204 L312.3 194.8 M251 83.8 L264 86 M142 102.4 L148 97.2 M158.1 100.6 L161.2 102.9 M206.7 194.3 L210.1 192.2 M183.5 178.2 L181.7 177.2 M142 227.8 L145.6 219.7 M187.9 180.6 L186.3 179.7 M238.8 81.5 L250.2 83.7 M132.2 215.8 L140.9 219.9 M289.5 203.8 L291.9 209.6 M218.7 129.8 L217.6 127.1 M288.9 201.7 L287.5 198.3 M180 144.6 L178 143.9 M153.2 224.6 L145.8 221.5 M316.8 116.2 L320.2 129.5 M112.4 170.5 L111.8 175.3 M229.9 182.9 L229.8 181.6 M114.4 160.2 L114.8 156.7 M227.3 183.7 L229.1 183.4 M145.6 221.8 L152.9 225 M249.1 184.6 L255.6 186.9 M218.6 134.4 L220 133.7 M173 84.8 L182.3 82.8 M148 97.2 L154.4 92.9 M120 129.1 L118.1 133.3 M114.3 156.7 L113.8 160.2 M132.7 215.3 L124.4 210.9 M212.6 126.4 L213.6 128.8 M154.1 92.6 L147.6 96.9 M315 170.7 L314 177.5 M244.7 240 L232.9 241.8 M233.6 182.2 L233.1 181 M145.6 219.7 L147 215.4 M245.3 178.5 L248.6 179.5 M279 157.7 L268.7 155.7 M124.8 122 L127.2 118 M173.5 142.9 L170.2 142.2 M185 146.8 L184.4 146.5 M244.9 240.6 L257.7 238.7 M117.3 140.5 L117.9 137.1 M233 242.2 L244.9 240.6 M112 158.3 L116.3 158.2 M203.7 195.8 L200.1 198.3 M116.2 143.2 L115.6 146.4 M216 134.1 L216.3 134.9 M132.3 135.3 L148.4 138 M189.6 81.8 L197.9 81.1 M117 137.6 L116.5 140.9 M216.5 124 L216.3 120.4 M192.5 241.2 L184.4 238.1 M248.6 179.5 L252.2 180.6 M184 238.3 L192.3 241.6 M113.5 185.8 L115 190.5 M201.2 188 L202 187.2 M165.7 141.5 L160.4 140.4 M229.8 181.6 L229.7 181 M236.6 186.9 L235.5 185.2 M141.2 102.4 L137.4 106 M229.7 181 L229 181.1 M253.6 155 L251.6 155.9 M160.6 102 L158.7 100.6 M232.9 180.6 L232 180.6 M193.2 80.8 L185.4 81.7 M185.1 81.1 L176.7 82.1 M180.8 144.9 L180 144.6 M202 187.2 L201 187.1 M204.3 195.6 L206.7 194.3 M169.8 85.4 L163.1 88 M146.1 140.2 L131.5 138.5 M111.5 179.5 L106.8 182.6 M232.9 180.6 L232.8 180.1 M313.9 178.6 L313.3 184.2 M111.5 179.5 L112.6 183.3 M200.9 242.6 L192.5 241.2 M192.3 241.6 L200.9 243 M313.3 184.2 L312.6 190.3 M261.7 190.2 L257.5 185.6 M213.6 128.8 L214 129.8 M208 243 L216.6 242.9 M158.3 91.2 L163.5 88.5 M229.1 183.4 L229.7 183.2 M216.3 242.5 L208 242.6 M233.1 181 L232.9 180.6 M315.8 158.4 L315.5 163.1 M188.2 180.8 L187.9 180.6 M216 244.4 L225 243.2 M159.1 89.8 L154.1 92.6 M210.5 122.3 L211.4 124.3 M216.6 242.9 L224.8 242.7 M219.2 131.2 L219 130.5 M307.9 206.1 L313.7 215.9 M314.2 215.6 L308.4 205.7 M303.6 209.6 L298.3 216.3 M232.9 241.8 L224.8 242.3 M219 130.5 L218.7 129.8 M220 133.7 L220 133.3 M224.6 241.8 L217.3 241.5 M263.5 85.3 L255.2 83.9 M229.7 183.2 L229.9 182.9 M224.8 242.7 L233 242.2 M212 125.2 L212.6 126.4 M312.3 194.8 L313.9 188.8 M114.4 249 L136.9 236.4 M219.7 104.7 L215.8 111.2 M104 182.8 L94.3 184.1 M232.4 80.6 L238.8 81.5 M244.6 82 L237.9 80.8 M137.4 106 L134.9 108.3 M313.3 189.1 L311.8 194.7 M252.2 180.6 L255 181.4 M217.3 126.5 L216.8 125.3 M96.9 184.3 L105.4 183.3 M202 197.1 L203.8 196 M233.8 182.5 L233.6 182.2 M304.8 203.8 L300.2 208.1 M320.8 143.6 L321.3 136.9 M214 129.8 L214.2 130.2 M300.6 208.4 L305.2 204 M116.6 133.7 L113.4 133.1 M203.9 108.4 L206.9 113.2 M200.1 198.3 L202 197.1 M290.5 156.6 L279.6 157.8 M118.5 202.6 L120.2 206.9 M197.9 81.1 L202.6 80.8 M232.1 239.5 L236.8 230.7 L237.7 221.9 M216.6 111.5 L220.4 106.2 M202.6 80.4 L197.8 80.5 M255 181.4 L257.6 182.7 M155 93.1 L158.3 91.2 M298.5 98.3 L289 95 M168.3 141.9 L166.6 141.6 M312.9 195.7 L314.1 190.4 M94.3 184.1 L78.9 184.6 M163.1 88 L159.1 89.8 M237.9 80.8 L232.5 80.2 M211.4 124.3 L212 125.2 M78.9 185.1 L94.3 184.7 M269.4 204.2 L265.5 195.7 M217.6 127.1 L217.3 126.5 M170.2 142.2 L169 142 M197.8 80.5 L193.2 80.8 M105.4 183.3 L109.9 184.3 M320.2 130 L320.5 136.5 M205.1 240.9 L200.1 240.6 M200.1 240.9 L205.2 241.2 M210.1 241.2 L205.1 240.9 M250.5 66.3 L250 76.5 M179.9 82.6 L175.4 83.6 M184.4 81.8 L179.9 82.6 M198.5 199.5 L200.1 198.3 M163.5 88.5 L167.2 87 M137.1 235.6 L116.8 246.2 L109.4 253.2 M250.7 82.2 L250.5 76.2 M174 143 L173.5 142.9 M209.7 120 L210.2 121.5 M275.7 229.1 L270.7 232.9 M217.3 241.5 L212.5 241.3 M107.1 129.5 L110.5 132.1 M211.6 112.5 L206.9 113.2 M224.8 242.3 L219.3 242.4 M185.7 82.3 L189.6 81.8 M247.7 184.3 L249.1 184.6 M195.5 240.8 L200.1 240.9 M151.6 95.2 L149.2 92.9 M250.2 83.1 L245.2 82.1 M281.9 92.9 L288.6 95.6 M291.9 209.6 L293.4 212.4 M208.7 117.3 L209.4 119.2 M216.6 124.7 L216.5 124 M235.7 267.4 L230.3 253.2 M260.7 184.4 L258.4 186.6 M257.6 182.7 L260 184 M200.1 240.6 L196 240.4 M151.6 95.2 L153.8 93.8 M216.8 125.3 L216.6 124.7 M216.3 120.4 L216.2 118.8 M101.7 127.7 L91.9 126.3 M270.7 232.9 L265.5 236.2 M206.9 113.2 L208.1 115.7 M181 237 L184 238.3 M191.6 247.2 L184.7 252.4 M210.2 121.5 L210.5 122.3 M159.6 140.2 L157 139.8 M257.5 185.6 L255.5 184.5 M266.2 236.6 L271.3 233.3 M203.8 196 L204.3 195.6 M250.2 79.1 L250.2 83.1 M205.3 242.7 L200.9 242.6 M292.6 156.4 L307.3 154.1 M194 240.9 L193.7 244.5 M169.6 71.4 L163.7 60 M166.6 141.6 L165.7 141.5 M200.9 243 L205.3 243.1 M169 142 L168.3 141.9 M216.1 115.3 L216 112.8 M204.3 195.6 L203.7 195.8 M151.1 138.4 L154.9 139 M216.2 118.2 L216.1 116.7 M305.7 205.6 L304.4 202.8 M208.1 115.7 L208.7 117.3 M292.9 97 L299.4 99.8 M293.4 212.4 L294.6 215.2 M171.5 83.1 L168.2 84.1 M319.6 148.5 L320.4 145.5 M265.5 195.7 L263 192.1 M184.7 252.4 L175.6 260.5 M87.8 158 L77.9 161.7 M225.2 249.6 L224 257.2 M230.2 250 L231.2 245 M209.4 119.2 L209.7 120 M202.5 207 L203.4 209.5 M157 139.8 L154.9 139 M312.7 200.2 L318.5 202.7 M294.6 215.2 L295.6 218.7 M255.6 186.9 L257 187.9 M154.9 139.9 L157 139.8 M216.1 116.7 L216.1 115.3 M193.9 250.8 L201.6 250.7 M201.4 244.5 L205.5 245.3 M151.2 91.8 L149.2 92.9 M289 95 L284.2 93.2 M258.4 186.6 L257.2 187.6 M101.7 127.7 L105.8 128.7 M265.5 236.2 L261.2 237.6 M257.4 187.8 L258.7 186.8 M259.8 185.8 L261.1 184.7 M258.7 186.8 L259.8 185.8 M150.7 140.7 L153.1 140.4 M214.6 112.6 L212.2 112.5 M284.6 99.3 L270.6 108 M292.9 97 L298.5 98.3 M318.5 202.7 L325.1 207.8 M153.1 140.4 L154.9 139.9 M200.3 247.5 L200 244.5 M139.3 233.9 L141.1 230 M216.2 118.8 L216.2 118.2 M320.7 200.4 L329.6 203 M160.4 140.4 L159.6 140.2 M298.3 216.3 L295.6 218.7 M288.6 95.6 L292.9 97 M325.9 207.8 L319.3 202.8 M263 192.1 L261.7 190.2 M144.3 89.1 L141.1 86.6 M215.8 111.2 L214.6 112.6 M271.3 233.3 L273.8 231.3 M93.2 157.8 L87.8 158 M81.5 161.1 L88.4 158.5 M148.4 138 L151.1 138.4 M294.9 88.9 L290.4 93 M279.6 226.4 L277.5 227.8 M161.7 273.8 L176.4 260.8 M176.4 260.8 L183.9 253.9 M150.7 140.7 L148.3 140.5 M216 112.8 L216.6 111.5 M177.8 101.9 L179 106.8 M140.6 229.9 L139.1 232.9 M250.5 76.2 L250.5 72.2 M216 112.8 L214.6 112.6 M314.1 199.2 L318 199.6 M318.7 222.8 L314.2 215.6 M351.1 227.3 L333.2 213.4 M88.8 126.2 L95.6 127.3 M202.5 106.5 L203.9 108.4 M148.3 140.5 L146.1 140.2 M171 75.3 L169.6 71.4 M123.5 133.4 L132.3 135.3 M263.3 237.6 L266.2 236.6 M200.7 104.3 L202.5 106.5 M138.3 84.8 L141.5 87.4 M188.8 250.7 L193.9 250.8 M95.6 127.3 L99.6 127.9 M260.7 184.4 L261.1 184.7 M257.2 187.6 L257 187.9 M340 205.8 L363.4 208 M275.3 223 L271 213.5 M228.9 80.7 L231 90.9 M134.5 81.9 L138.3 84.8 M183.9 253.9 L187.3 250.9 M314.6 217.4 L318.4 223.3 M212.2 112.5 L211.6 112.5 M197.2 250.5 L193.8 250.4 M176.7 97.2 L177.8 101.9 M223.3 261.3 L222.7 271.1 M250.6 70.9 L251 66.4 M231.1 91.8 L229.6 97 M251.2 65 L252.6 57.3 M199.4 102.6 L200.7 104.3 M226.8 102.7 L226.1 104.7 M300.6 96.2 L302.5 93 M220.4 106.2 L221.1 105 M180.4 108.6 L181.5 109.6 M302.5 93 L304.5 88.6 M230 252.2 L230.2 250 M269.9 67.2 L264.1 85.4 M228.5 98.5 L227.5 101 M324.2 230.2 L318.7 222.8 M134.8 81.6 L130.8 78.4 M89.7 126 L84.2 125 M127.9 76.8 L132.7 80.5 M318.4 223.3 L323.6 230.4 M175.3 92.2 L176.7 97.2 M72.6 164.5 L78.6 162.2 M170.3 74.7 L170.7 75.9 M82 125.1 L87.9 126.1 M172.1 263.6 L162.3 272.5 M80.2 124.3 L69.2 122.1 M227.5 101 L226.8 102.7 M173 84.8 L175.3 92.2 M179.1 107 L179.9 108 M105.4 183.3 L99 194.7 M279.6 157.8 L279 157.7 M77.9 161.7 L72.2 163.9 M224 257.2 L223.3 261.3 M269.8 206.7 L269.4 204.2 M198.3 101 L199.1 102.2 M126.2 137 L121.4 135.6 M306.7 80.6 L304.6 86.4 M136.8 83.2 L134.8 81.6 M59.5 168.7 L23.5 182.4 M292.6 156.4 L290.5 156.6 M250.9 62.6 L250.5 66.3 M326.9 209.1 L331.2 212.4 M329.6 210.6 L325.9 207.8 M181.5 109.6 L181.8 109.9 M112.5 166.4 L104.4 166.1 M73.4 184.9 L63.7 183.4 M288 86 L286.8 87.2 M128.4 76.6 L122.6 72.2 M323.1 199.1 L339.8 192.9 L349.2 186.5 M72.3 185.3 L78.9 185.1 M270 209.1 L269.8 206.7 M68.6 165.2 L59.5 168.7 M298.1 86.9 L295.6 88.3 M65.9 121.9 L76.2 124 M256.2 43.6 L252.6 54.5 M134.9 108.3 L128.1 103.8 M270.6 108 L267.9 109.8 M229.6 97 L228.5 98.5 M285.7 88.3 L285.1 88.8 M64.5 124.6 L94.1 135 M131.5 138.5 L129.6 138 M333.7 204.2 L340 205.8 M329.6 203 L333.7 204.2 M303.6 86.7 L299.6 86.8 M289.1 84.9 L288 86 M251.8 58.1 L250.9 62.6 M257.8 104.6 L256.9 106.2 M199.1 102.2 L199.4 102.6 M63.7 183.4 L49 181.4 M101.4 261.7 L113.6 249.7 M125.3 228.2 L114.6 218.3 M296 79.3 L292.8 81.4 M119.3 132.4 L123.5 133.4 M253.2 54.5 L256.3 45.2 M128.4 137.6 L126.2 137 M323.6 230.4 L328.5 238.8 M222.7 275.2 L222.6 290.1 M84.2 125 L80.2 124.3 M168.2 84.1 L159.3 77.9 M329.2 238.6 L324.2 230.2 M119.4 70.3 L125.2 74.7 M307.3 154.1 L311.5 151.4 M270.2 210.9 L270 209.1 M175.6 260.5 L172.1 263.6 M258.6 103.1 L257.8 104.6 M267.6 110 L266.1 110.7 M159.8 274.8 L143.7 289.4 M38.1 177.4 L54.8 171.2 M255.3 84.9 L263.9 86.4 M259.4 101.5 L258.6 103.1 M129.6 138 L128.4 137.6 M104.4 166.1 L96.7 167.5 M292.8 81.4 L291.5 82.6 M45.3 181.3 L59.4 183.3 M237.3 273.6 L235.7 267.4 M336.4 216.4 L342.8 221.3 M72.2 163.9 L68.6 165.2 M260.1 99.7 L259.4 101.5 M46.1 235.9 L67 221.7 L80.3 206 M66.8 184.5 L72.3 185.3 M76.2 124 L80.1 124.7 M270.6 212.3 L270.2 210.9 M79.9 205.9 L68.7 219.7 L39.7 240.6 M332.6 213.5 L336.4 216.4 M62.5 168.3 L67.4 166.4 M161.4 56.4 L158.1 51.2 M260.7 97.9 L260.1 99.7 M277.8 227.6 L275.3 223 M251.5 66.5 L269.9 67.2 M64.8 94.2 L85.9 84.1 M303.2 76.1 L299.3 77.8 M108.1 62.2 L88.5 50.2 M271 213.5 L270.6 212.3 M159.3 77.9 L148.7 70.6 M267.3 86.4 L271.1 79.3 M93.1 213.5 L109 214.7 M143.5 99.8 L141.2 102.4 M77.2 196.2 L58.5 218.3 L27.7 237.4 M160.8 55.9 L162.7 59 M121.4 135.6 L119.8 135.1 M306.7 82.4 L307.4 79.7 M147.7 96.5 L144.9 98.5 M118.3 134.9 L120 135.4 M308.6 248.1 L313.3 253.9 L316.7 263.3 M261.1 96.4 L260.7 97.9 M267.9 109.8 L267.6 110 M311.6 77.1 L318 73.9 M120 135.4 L121.4 135.6 M394.2 212.3 L365.9 208 M231 90.9 L231.1 91.8 M275.9 229.7 L282.1 233.4 M119.8 135.1 L118.4 134.7 M282.1 233.4 L292.7 236.7 M353.6 180.7 L355.3 181.7 L358.7 200.9 M99 194.7 L96.5 201.9 M109.4 253.2 L101 261.4 M288.3 96.1 L284.6 99.3 M224.8 307.5 L235.9 286.8 M222.7 271.1 L222.7 275.2 M66 121.4 L58.8 119.5 M262.5 90.5 L262.1 92.7 M122.8 310.7 L161.7 273.8 M62.8 245 L84 232.8 M363.2 208.5 L354.4 223.6 M274.1 225.9 L275.7 229.1 M311.5 151.4 L313.6 150.8 M122.6 72.2 L119.8 70 M16.2 244.8 L57 220.1 L75.1 199.6 M54.8 171.2 L59.9 169.2 M145.6 236.6 L138.3 234.3 M320.2 71.6 L313.2 73.8 M70.8 39.8 L107.6 62.6 M253.7 54.7 L275.2 57.7 M144.9 98.5 L143.5 99.8 M261.4 95.5 L261.1 96.4 M364 208.1 L380.7 210.6 M238.4 80.4 L235.1 79.8 M45.5 180.8 L28.6 181.6 M313.6 150.8 L315.8 150.2 M325.8 119 L336.5 122 M124.1 66.5 L151.7 42.1 M315.8 150.2 L318.5 150 M263.9 86.4 L263 88.8 M192.5 77.7 L195.1 75.7 M233.7 79.7 L230.7 79.6 M52.3 116.7 L51.9 110.3 L40.1 95.8 M375.4 190.5 L369.7 198.6 M137.7 235.8 L144.4 237.7 M84.2 96.5 L82.9 111.2 M190.4 79.3 L192.5 77.7 M313.2 73.8 L309.4 75.1 M143 96.8 L144.4 97.8 M30.2 182 L45.3 181.3 M81.1 143.7 L77 151.2 M273.1 67 L289.3 66.8 M365.2 206 L370.1 198.8 M261.6 94.8 L261.4 95.5 M328.9 239.5 L331.8 245.4 M51.1 118.4 L44.1 132.1 M135.9 235.9 L130.2 232.5 M253.2 84.2 L255.3 84.9 M156.7 49 L153.8 44.5 M74.9 141.8 L70.7 151.1 M139.6 94.1 L141.4 95.5 M231.5 241 L232.1 239.5" fill="none" stroke="#fcf7e8" stroke-width="6.4" opacity="0.92" stroke-linecap="round" stroke-linejoin="round"/>
</g>
<g data-layer="major-road">
<path d="M227.5 168.6 L200.5 174.5 M190.2 173.3 L199.1 187.6 M199.9 187.3 L192.5 175.4 M188.8 158.4 L175.7 157.3 M193 154.6 L194.5 150.8 M188.1 164.3 L189.8 160.4 M191 173 L186.5 169.8 M203.3 141.9 L207.5 138.5 M186.6 167.8 L188.1 164.3 M269.7 175.6 L250.3 169.2 M197.7 146.9 L199.9 144.4 M236 168 L230.8 168.2 M198.4 175.2 L194.2 174.9 M251 169.6 L269.4 175.9 M245 143.4 L252.9 151.3 M194.5 150.8 L196 148.9 M200.9 140.6 L197.1 137.7 M179.3 168.7 L184.5 170.7 M175.7 157.3 L166.1 156.7 M172.5 166.2 L179.3 168.7 M241.4 168.3 L236 168 M198.3 139.5 L201.4 141.6 M264.9 180.2 L249.6 173.9 L234.7 172.4 M193.7 133.3 L187.8 125.4 M234.9 134.7 L240.7 140.3 M249.4 169 L243.1 168.4 M212.5 135.8 L216.3 134.9 M234.7 172.6 L251.8 174.8 M116.3 158.2 L158 156.9 M197.1 137.7 L194.9 134.9 M156 156.6 L115.1 157.8 M167.6 186.9 L162.5 183.7 L160.5 179.8 L162.9 163.9 M222.2 133.6 L226.4 132.9 M167.4 164.4 L171.8 165.9 M228.8 185.6 L229.6 201.1 M253.6 155 L252.8 159.1 M200.4 189.7 L202.4 193.4 M251 166 L249.4 169 M190.9 130.6 L193 133.6 M187.7 126.4 L190.9 130.6 M263.8 111.9 L256.9 121.1 L249.4 127.1 M223.1 154.6 L227.2 159.1 M217.6 183.9 L205.7 190.3 M229.3 174.2 L228.7 167.8 M228.5 164.9 L228.6 162 L230.5 162.6 M228.6 207.9 L227 240.9 M279.8 165.5 L288 163.3 L292.6 156.4 M287.9 127.4 L283.3 121.9 L270.2 113.2 M231.9 158.6 L227.6 160 M219.2 103.3 L201.5 100.1 M238.1 157.4 L231.9 158.6 M230.5 162.6 L230.6 166 M233.8 182.5 L247.7 184.3 M239.8 201.6 L239.2 193.2 L236.6 186.9 M237.8 146.9 L231.6 149.7 M218.8 80.9 L219.1 102.1 M228.7 167.8 L228.5 164.9 M208.8 183.2 L202 187.2 M255.5 184.5 L240.4 181.3 M292.6 156.4 L295.9 146.3 L293.3 141.8 M229.6 178.3 L229.3 174.2 M230.2 150.5 L227.4 151.7 M210.1 192.2 L217.6 187.6 M212.8 180.8 L208.8 183.2 M194.1 150.6 L191.6 149.6 M230.6 166 L230.6 168.3 M232.8 180.1 L231.8 175.6 M226.6 152.2 L225 153 M224.2 153.5 L223.1 154.1 M191.6 149.6 L188.7 148.4 M227.7 160.7 L227.5 162 M242.8 157.2 L238.1 157.4 M240.4 181.3 L232.9 180.6 M227.2 159.1 L227.6 160 M238.6 176.4 L245.3 178.5 M216 180.4 L212.8 180.8 M229 181.1 L224.2 181.8 M217.6 187.6 L222.8 185.2 M225 153 L224.2 153.5 M233.8 175.4 L238.6 176.4 M223.1 154.1 L223.1 154.6 M227.6 160 L227.7 160.7 M237.7 221.9 L239.8 201.6 M217.3 182.6 L216 180.4 M222.8 185.2 L227.3 183.7 M214.2 130.2 L216 134.1 M227.4 151.7 L226.6 152.2 M184.4 146.5 L181 145 M231.6 149.7 L230.2 150.5 M224.2 181.8 L220.9 182.4 M229.7 181 L229.6 178.3 M301 126.7 L313.4 117.3 M93.7 184.5 L93.6 167.6 M222.7 58.9 L216.4 69 L216.7 77.2 M134.4 256.7 L153.3 226.1 M84.7 183.6 L85.1 171.6 L82.3 165.2 M93.2 184.6 L79.9 205.9 M349.5 182 L326.2 193.1 M302.1 247.9 L275.6 238.9 M144.4 237.7 L133.9 256.5 M80.3 206 L90.9 189.4 M193.3 251.2 L188.8 271.5 M188.9 273 L193.9 250.8 M314.1 243 L303.5 234.4 L298.5 225.8 M278.1 240.2 L301.8 248.4 M80.1 163.1 L83.9 168.6 L85 175.5 M347.2 171.9 L342 173.6 L333.6 166.6 M209.8 277.5 L203.8 257 M358.2 164.2 L364.3 154.6 L358.7 140.2 L359.4 136.5 L364.7 133.7 L376.5 134.7 M361.5 157.8 L349.2 169.6 M340.4 231.6 L326 217.9 M297.3 69.4 L283.3 57.1 M51.8 152.4 L70.6 151.5 M355.2 146 L362 152.7 L361.6 157.7 M121.4 273.1 L134.4 256.7 M133.9 256.5 L121 272.9 M233.1 242.5 L244.9 240.6 M263.5 85.3 L253.9 83.2 M114.8 160.4 L116.3 158.2 M164.5 187.2 L166.3 185.9 M142.1 225.9 L140.6 229.9 M191.1 242 L193.8 244 M124.4 210.9 L123.9 211.4 M280.1 92.1 L280.4 91.6 M283.4 92.9 L283 93.3 M118.3 212.3 L118 212.1 M74.6 285.7 L64.3 281.7 L63.5 283.6 L71 286.5 M371.8 61.1 L358.9 53.8 M353 49.8 L343 42.3 M176.8 259.3 L177.6 259.7 M86.5 291.7 L73.1 285.7 M145.8 11 L132.7 10.5 M172.8 264.1 L172.1 263.6 M32 181.4 L31.1 180.4 L35.9 178.2 M92.3 228 L92.1 227.7 M397.4 115.4 L394.2 120.6 M251 166 L250.3 169.2 M231.8 132.4 L234.9 134.7 M164.2 161.5 L167.4 164.4 M194 134.8 L195.3 136.2 M196 228.1 L204.4 209 M203.4 209.5 L195.6 227.3 M226.4 132.9 L229.4 132.3 M206.4 201.7 L203.4 209.5 M164.1 157.6 L163.8 159.9 M205.7 198.5 L204.3 195.6 M177.6 115.1 L183.4 121.3 M183.9 121 L178.3 115.2 M207 201.9 L205.7 198.5 M205.1 198.6 L206.4 201.7 M273.4 179.1 L279.9 187.6 M183.4 121.3 L185.7 123.9 M204.4 209 L206.4 205 M276.8 182.9 L273.9 178.8 M281.4 189.4 L287.3 198.4 M287.5 198.3 L281.7 189.3 M202.6 80.8 L232.4 80.6 M232.5 80.2 L202.6 80.4 M172.8 110.8 L167.8 107.2 M320.5 136.5 L315.9 158 M299.3 208.9 L281.7 224.8 M115.1 157.8 L93.2 157.8 M120.6 205.9 L115.9 190.7 M282.6 224.9 L298.5 210.4 M119.3 132.4 L124.8 122 M163 104.2 L168.1 108 M113.1 170.6 L114.4 160.2 M195.4 228 L194 239.8 M272.3 177.1 L271.7 176.6 M113.8 160.2 L112.4 170.5 M271.3 176.9 L271.8 177.4 M125.8 119 L120 129.1 M281.7 189.3 L279.6 186.5 M114.8 156.7 L116 148.3 M314.9 172.9 L313.5 187.2 M127.2 118 L134.8 109.2 M115.3 148.3 L114.3 156.7 M194.6 239.8 L195.7 229.4 M314.1 187.2 L315.4 172.9 M133 110.1 L125.8 119 M115 190.5 L118.5 202.6 M316.2 164 L319 150.7 M116 148.3 L117.3 140.5 M279.6 186.5 L278.5 185 M299.4 99.8 L316.1 115.3 M251.6 155.9 L246.5 157.3 M281.7 92.1 L264.1 85.4 M187 147.7 L185 146.8 M92.4 158.3 L108.7 158.3 M158.7 100.6 L151.6 95.2 M188.7 148.4 L187 147.7 M112.3 178.1 L113.1 170.6 M246.5 157.3 L242.8 157.2 M240.5 145.6 L244.1 143.3 M151.2 95.4 L158.1 100.6 M229.7 183.2 L233.8 182.5 M240.5 145.6 L237.8 146.9 M186.3 179.7 L183.5 178.2 M287.3 198.4 L289.5 203.8 M321.3 136.5 L319.2 120.4 M219.5 182.7 L217.6 183.9 M230.9 174.4 L230.6 173.2 M162.9 228.8 L153.2 224.6 M194.5 150.8 L194.1 150.6 M219.5 182.7 L217.3 182.6 M231.8 175.6 L230.9 174.4 M231.8 175.6 L233.8 175.4 M143.2 220.3 L132.7 215.3 M257 187.9 L266.1 201.9 L268.9 214.7 L273.5 224.6 M152.9 225 L162.6 229.2 M316.7 114.8 L302 101.4 M168.2 84.1 L155.7 89.3 M134.8 109.2 L141.1 103.3 M178 143.9 L174 143 M235.5 185.2 L233.8 182.5 M171.7 232.6 L162.9 228.8 M227.3 183.7 L228.8 185.6 M217.3 182.6 L217.6 183.9 M232 180.6 L229.7 181 M184.4 238.1 L174.7 233.9 M198.5 199.5 L202.5 207 M162.6 229.2 L171.4 232.9 M260 237.8 L244.7 240 M154.4 92.9 L163.5 88.5 M113.9 184.3 L112.3 178.1 M205.7 190.3 L202.5 192.1 M292.5 210.3 L289.8 203.8 M147.6 96.9 L141.2 102.4 M115.9 190.7 L113.9 184.3 M264.9 86.2 L278.2 91.4 M311.8 194.7 L304.8 203.8 M122.2 210.3 L132.2 215.8 M220.9 182.4 L219.5 182.7 M220 133.3 L219.2 131.2 M305.2 204 L312.3 194.8 M251 83.8 L264 86 M142 102.4 L148 97.2 M158.1 100.6 L161.2 102.9 M206.7 194.3 L210.1 192.2 M183.5 178.2 L181.7 177.2 M142 227.8 L145.6 219.7 M187.9 180.6 L186.3 179.7 M238.8 81.5 L250.2 83.7 M132.2 215.8 L140.9 219.9 M289.5 203.8 L291.9 209.6 M218.7 129.8 L217.6 127.1 M288.9 201.7 L287.5 198.3 M180 144.6 L178 143.9 M153.2 224.6 L145.8 221.5 M316.8 116.2 L320.2 129.5 M112.4 170.5 L111.8 175.3 M229.9 182.9 L229.8 181.6 M114.4 160.2 L114.8 156.7 M227.3 183.7 L229.1 183.4 M145.6 221.8 L152.9 225 M249.1 184.6 L255.6 186.9 M218.6 134.4 L220 133.7 M173 84.8 L182.3 82.8 M148 97.2 L154.4 92.9 M120 129.1 L118.1 133.3 M114.3 156.7 L113.8 160.2 M132.7 215.3 L124.4 210.9 M212.6 126.4 L213.6 128.8 M154.1 92.6 L147.6 96.9 M315 170.7 L314 177.5 M244.7 240 L232.9 241.8 M233.6 182.2 L233.1 181 M145.6 219.7 L147 215.4 M245.3 178.5 L248.6 179.5 M279 157.7 L268.7 155.7 M124.8 122 L127.2 118 M173.5 142.9 L170.2 142.2 M185 146.8 L184.4 146.5 M244.9 240.6 L257.7 238.7 M117.3 140.5 L117.9 137.1 M233 242.2 L244.9 240.6 M112 158.3 L116.3 158.2 M203.7 195.8 L200.1 198.3 M116.2 143.2 L115.6 146.4 M216 134.1 L216.3 134.9 M132.3 135.3 L148.4 138 M189.6 81.8 L197.9 81.1 M117 137.6 L116.5 140.9 M216.5 124 L216.3 120.4 M192.5 241.2 L184.4 238.1 M248.6 179.5 L252.2 180.6 M184 238.3 L192.3 241.6 M113.5 185.8 L115 190.5 M201.2 188 L202 187.2 M165.7 141.5 L160.4 140.4 M229.8 181.6 L229.7 181 M236.6 186.9 L235.5 185.2 M141.2 102.4 L137.4 106 M229.7 181 L229 181.1 M253.6 155 L251.6 155.9 M160.6 102 L158.7 100.6 M232.9 180.6 L232 180.6 M193.2 80.8 L185.4 81.7 M185.1 81.1 L176.7 82.1 M180.8 144.9 L180 144.6 M202 187.2 L201 187.1 M204.3 195.6 L206.7 194.3 M169.8 85.4 L163.1 88 M146.1 140.2 L131.5 138.5 M111.5 179.5 L106.8 182.6 M232.9 180.6 L232.8 180.1 M313.9 178.6 L313.3 184.2 M111.5 179.5 L112.6 183.3 M200.9 242.6 L192.5 241.2 M192.3 241.6 L200.9 243 M313.3 184.2 L312.6 190.3 M261.7 190.2 L257.5 185.6 M213.6 128.8 L214 129.8 M208 243 L216.6 242.9 M158.3 91.2 L163.5 88.5 M229.1 183.4 L229.7 183.2 M216.3 242.5 L208 242.6 M233.1 181 L232.9 180.6 M315.8 158.4 L315.5 163.1 M188.2 180.8 L187.9 180.6 M216 244.4 L225 243.2 M159.1 89.8 L154.1 92.6 M210.5 122.3 L211.4 124.3 M216.6 242.9 L224.8 242.7 M219.2 131.2 L219 130.5 M307.9 206.1 L313.7 215.9 M314.2 215.6 L308.4 205.7 M303.6 209.6 L298.3 216.3 M232.9 241.8 L224.8 242.3 M219 130.5 L218.7 129.8 M220 133.7 L220 133.3 M224.6 241.8 L217.3 241.5 M263.5 85.3 L255.2 83.9 M229.7 183.2 L229.9 182.9 M224.8 242.7 L233 242.2 M212 125.2 L212.6 126.4 M312.3 194.8 L313.9 188.8 M114.4 249 L136.9 236.4 M219.7 104.7 L215.8 111.2 M104 182.8 L94.3 184.1 M232.4 80.6 L238.8 81.5 M244.6 82 L237.9 80.8 M137.4 106 L134.9 108.3 M313.3 189.1 L311.8 194.7 M252.2 180.6 L255 181.4 M217.3 126.5 L216.8 125.3 M96.9 184.3 L105.4 183.3 M202 197.1 L203.8 196 M233.8 182.5 L233.6 182.2 M304.8 203.8 L300.2 208.1 M320.8 143.6 L321.3 136.9 M214 129.8 L214.2 130.2 M300.6 208.4 L305.2 204 M116.6 133.7 L113.4 133.1 M203.9 108.4 L206.9 113.2 M200.1 198.3 L202 197.1 M290.5 156.6 L279.6 157.8 M118.5 202.6 L120.2 206.9 M197.9 81.1 L202.6 80.8 M232.1 239.5 L236.8 230.7 L237.7 221.9 M216.6 111.5 L220.4 106.2 M202.6 80.4 L197.8 80.5 M255 181.4 L257.6 182.7 M155 93.1 L158.3 91.2 M298.5 98.3 L289 95 M168.3 141.9 L166.6 141.6 M312.9 195.7 L314.1 190.4 M94.3 184.1 L78.9 184.6 M163.1 88 L159.1 89.8 M237.9 80.8 L232.5 80.2 M211.4 124.3 L212 125.2 M78.9 185.1 L94.3 184.7 M269.4 204.2 L265.5 195.7 M217.6 127.1 L217.3 126.5 M170.2 142.2 L169 142 M197.8 80.5 L193.2 80.8 M105.4 183.3 L109.9 184.3 M320.2 130 L320.5 136.5 M205.1 240.9 L200.1 240.6 M200.1 240.9 L205.2 241.2 M210.1 241.2 L205.1 240.9 M250.5 66.3 L250 76.5 M179.9 82.6 L175.4 83.6 M184.4 81.8 L179.9 82.6 M198.5 199.5 L200.1 198.3 M163.5 88.5 L167.2 87 M137.1 235.6 L116.8 246.2 L109.4 253.2 M250.7 82.2 L250.5 76.2 M174 143 L173.5 142.9 M209.7 120 L210.2 121.5 M275.7 229.1 L270.7 232.9 M217.3 241.5 L212.5 241.3 M107.1 129.5 L110.5 132.1 M211.6 112.5 L206.9 113.2 M224.8 242.3 L219.3 242.4 M185.7 82.3 L189.6 81.8 M247.7 184.3 L249.1 184.6 M195.5 240.8 L200.1 240.9 M151.6 95.2 L149.2 92.9 M250.2 83.1 L245.2 82.1 M281.9 92.9 L288.6 95.6 M291.9 209.6 L293.4 212.4 M208.7 117.3 L209.4 119.2 M216.6 124.7 L216.5 124 M235.7 267.4 L230.3 253.2 M260.7 184.4 L258.4 186.6 M257.6 182.7 L260 184 M200.1 240.6 L196 240.4 M151.6 95.2 L153.8 93.8 M216.8 125.3 L216.6 124.7 M216.3 120.4 L216.2 118.8 M101.7 127.7 L91.9 126.3 M270.7 232.9 L265.5 236.2 M206.9 113.2 L208.1 115.7 M181 237 L184 238.3 M191.6 247.2 L184.7 252.4 M210.2 121.5 L210.5 122.3 M159.6 140.2 L157 139.8 M257.5 185.6 L255.5 184.5 M266.2 236.6 L271.3 233.3 M203.8 196 L204.3 195.6 M250.2 79.1 L250.2 83.1 M205.3 242.7 L200.9 242.6 M292.6 156.4 L307.3 154.1 M194 240.9 L193.7 244.5 M169.6 71.4 L163.7 60 M166.6 141.6 L165.7 141.5 M200.9 243 L205.3 243.1 M169 142 L168.3 141.9 M216.1 115.3 L216 112.8 M204.3 195.6 L203.7 195.8 M151.1 138.4 L154.9 139 M216.2 118.2 L216.1 116.7 M305.7 205.6 L304.4 202.8 M208.1 115.7 L208.7 117.3 M292.9 97 L299.4 99.8 M293.4 212.4 L294.6 215.2 M171.5 83.1 L168.2 84.1 M319.6 148.5 L320.4 145.5 M265.5 195.7 L263 192.1 M184.7 252.4 L175.6 260.5 M87.8 158 L77.9 161.7 M225.2 249.6 L224 257.2 M230.2 250 L231.2 245 M209.4 119.2 L209.7 120 M202.5 207 L203.4 209.5 M157 139.8 L154.9 139 M312.7 200.2 L318.5 202.7 M294.6 215.2 L295.6 218.7 M255.6 186.9 L257 187.9 M154.9 139.9 L157 139.8 M216.1 116.7 L216.1 115.3 M193.9 250.8 L201.6 250.7 M201.4 244.5 L205.5 245.3 M151.2 91.8 L149.2 92.9 M289 95 L284.2 93.2 M258.4 186.6 L257.2 187.6 M101.7 127.7 L105.8 128.7 M265.5 236.2 L261.2 237.6 M257.4 187.8 L258.7 186.8 M259.8 185.8 L261.1 184.7 M258.7 186.8 L259.8 185.8 M150.7 140.7 L153.1 140.4 M214.6 112.6 L212.2 112.5 M284.6 99.3 L270.6 108 M292.9 97 L298.5 98.3 M318.5 202.7 L325.1 207.8 M153.1 140.4 L154.9 139.9 M200.3 247.5 L200 244.5 M139.3 233.9 L141.1 230 M216.2 118.8 L216.2 118.2 M320.7 200.4 L329.6 203 M160.4 140.4 L159.6 140.2 M298.3 216.3 L295.6 218.7 M288.6 95.6 L292.9 97 M325.9 207.8 L319.3 202.8 M263 192.1 L261.7 190.2 M144.3 89.1 L141.1 86.6 M215.8 111.2 L214.6 112.6 M271.3 233.3 L273.8 231.3 M93.2 157.8 L87.8 158 M81.5 161.1 L88.4 158.5 M148.4 138 L151.1 138.4 M294.9 88.9 L290.4 93 M279.6 226.4 L277.5 227.8 M161.7 273.8 L176.4 260.8 M176.4 260.8 L183.9 253.9 M150.7 140.7 L148.3 140.5 M216 112.8 L216.6 111.5 M177.8 101.9 L179 106.8 M140.6 229.9 L139.1 232.9 M250.5 76.2 L250.5 72.2 M216 112.8 L214.6 112.6 M314.1 199.2 L318 199.6 M318.7 222.8 L314.2 215.6 M351.1 227.3 L333.2 213.4 M88.8 126.2 L95.6 127.3 M202.5 106.5 L203.9 108.4 M148.3 140.5 L146.1 140.2 M171 75.3 L169.6 71.4 M123.5 133.4 L132.3 135.3 M263.3 237.6 L266.2 236.6 M200.7 104.3 L202.5 106.5 M138.3 84.8 L141.5 87.4 M188.8 250.7 L193.9 250.8 M95.6 127.3 L99.6 127.9 M260.7 184.4 L261.1 184.7 M257.2 187.6 L257 187.9 M340 205.8 L363.4 208 M275.3 223 L271 213.5 M228.9 80.7 L231 90.9 M134.5 81.9 L138.3 84.8 M183.9 253.9 L187.3 250.9 M314.6 217.4 L318.4 223.3 M212.2 112.5 L211.6 112.5 M197.2 250.5 L193.8 250.4 M176.7 97.2 L177.8 101.9 M223.3 261.3 L222.7 271.1 M250.6 70.9 L251 66.4 M231.1 91.8 L229.6 97 M251.2 65 L252.6 57.3 M199.4 102.6 L200.7 104.3 M226.8 102.7 L226.1 104.7 M300.6 96.2 L302.5 93 M220.4 106.2 L221.1 105 M180.4 108.6 L181.5 109.6 M302.5 93 L304.5 88.6 M230 252.2 L230.2 250 M269.9 67.2 L264.1 85.4 M228.5 98.5 L227.5 101 M324.2 230.2 L318.7 222.8 M134.8 81.6 L130.8 78.4 M89.7 126 L84.2 125 M127.9 76.8 L132.7 80.5 M318.4 223.3 L323.6 230.4 M175.3 92.2 L176.7 97.2 M72.6 164.5 L78.6 162.2 M170.3 74.7 L170.7 75.9 M82 125.1 L87.9 126.1 M172.1 263.6 L162.3 272.5 M80.2 124.3 L69.2 122.1 M227.5 101 L226.8 102.7 M173 84.8 L175.3 92.2 M179.1 107 L179.9 108 M105.4 183.3 L99 194.7 M279.6 157.8 L279 157.7 M77.9 161.7 L72.2 163.9 M224 257.2 L223.3 261.3 M269.8 206.7 L269.4 204.2 M198.3 101 L199.1 102.2 M126.2 137 L121.4 135.6 M306.7 80.6 L304.6 86.4 M136.8 83.2 L134.8 81.6 M59.5 168.7 L23.5 182.4 M292.6 156.4 L290.5 156.6 M250.9 62.6 L250.5 66.3 M326.9 209.1 L331.2 212.4 M329.6 210.6 L325.9 207.8 M181.5 109.6 L181.8 109.9 M112.5 166.4 L104.4 166.1 M73.4 184.9 L63.7 183.4 M288 86 L286.8 87.2 M128.4 76.6 L122.6 72.2 M323.1 199.1 L339.8 192.9 L349.2 186.5 M72.3 185.3 L78.9 185.1 M270 209.1 L269.8 206.7 M68.6 165.2 L59.5 168.7 M298.1 86.9 L295.6 88.3 M65.9 121.9 L76.2 124 M256.2 43.6 L252.6 54.5 M134.9 108.3 L128.1 103.8 M270.6 108 L267.9 109.8 M229.6 97 L228.5 98.5 M285.7 88.3 L285.1 88.8 M64.5 124.6 L94.1 135 M131.5 138.5 L129.6 138 M333.7 204.2 L340 205.8 M329.6 203 L333.7 204.2 M303.6 86.7 L299.6 86.8 M289.1 84.9 L288 86 M251.8 58.1 L250.9 62.6 M257.8 104.6 L256.9 106.2 M199.1 102.2 L199.4 102.6 M63.7 183.4 L49 181.4 M101.4 261.7 L113.6 249.7 M125.3 228.2 L114.6 218.3 M296 79.3 L292.8 81.4 M119.3 132.4 L123.5 133.4 M253.2 54.5 L256.3 45.2 M128.4 137.6 L126.2 137 M323.6 230.4 L328.5 238.8 M222.7 275.2 L222.6 290.1 M84.2 125 L80.2 124.3 M168.2 84.1 L159.3 77.9 M329.2 238.6 L324.2 230.2 M119.4 70.3 L125.2 74.7 M307.3 154.1 L311.5 151.4 M270.2 210.9 L270 209.1 M175.6 260.5 L172.1 263.6 M258.6 103.1 L257.8 104.6 M267.6 110 L266.1 110.7 M159.8 274.8 L143.7 289.4 M38.1 177.4 L54.8 171.2 M255.3 84.9 L263.9 86.4 M259.4 101.5 L258.6 103.1 M129.6 138 L128.4 137.6 M104.4 166.1 L96.7 167.5 M292.8 81.4 L291.5 82.6 M45.3 181.3 L59.4 183.3 M237.3 273.6 L235.7 267.4 M336.4 216.4 L342.8 221.3 M72.2 163.9 L68.6 165.2 M260.1 99.7 L259.4 101.5 M46.1 235.9 L67 221.7 L80.3 206 M66.8 184.5 L72.3 185.3 M76.2 124 L80.1 124.7 M270.6 212.3 L270.2 210.9 M79.9 205.9 L68.7 219.7 L39.7 240.6 M332.6 213.5 L336.4 216.4 M62.5 168.3 L67.4 166.4 M161.4 56.4 L158.1 51.2 M260.7 97.9 L260.1 99.7 M277.8 227.6 L275.3 223 M251.5 66.5 L269.9 67.2 M64.8 94.2 L85.9 84.1 M303.2 76.1 L299.3 77.8 M108.1 62.2 L88.5 50.2 M271 213.5 L270.6 212.3 M159.3 77.9 L148.7 70.6 M267.3 86.4 L271.1 79.3 M93.1 213.5 L109 214.7 M143.5 99.8 L141.2 102.4 M77.2 196.2 L58.5 218.3 L27.7 237.4 M160.8 55.9 L162.7 59 M121.4 135.6 L119.8 135.1 M306.7 82.4 L307.4 79.7 M147.7 96.5 L144.9 98.5 M118.3 134.9 L120 135.4 M308.6 248.1 L313.3 253.9 L316.7 263.3 M261.1 96.4 L260.7 97.9 M267.9 109.8 L267.6 110 M311.6 77.1 L318 73.9 M120 135.4 L121.4 135.6 M394.2 212.3 L365.9 208 M231 90.9 L231.1 91.8 M275.9 229.7 L282.1 233.4 M119.8 135.1 L118.4 134.7 M282.1 233.4 L292.7 236.7 M353.6 180.7 L355.3 181.7 L358.7 200.9 M99 194.7 L96.5 201.9 M109.4 253.2 L101 261.4 M288.3 96.1 L284.6 99.3 M224.8 307.5 L235.9 286.8 M222.7 271.1 L222.7 275.2 M66 121.4 L58.8 119.5 M262.5 90.5 L262.1 92.7 M122.8 310.7 L161.7 273.8 M62.8 245 L84 232.8 M363.2 208.5 L354.4 223.6 M274.1 225.9 L275.7 229.1 M311.5 151.4 L313.6 150.8 M122.6 72.2 L119.8 70 M16.2 244.8 L57 220.1 L75.1 199.6 M54.8 171.2 L59.9 169.2 M145.6 236.6 L138.3 234.3 M320.2 71.6 L313.2 73.8 M70.8 39.8 L107.6 62.6 M253.7 54.7 L275.2 57.7 M144.9 98.5 L143.5 99.8 M261.4 95.5 L261.1 96.4 M364 208.1 L380.7 210.6 M238.4 80.4 L235.1 79.8 M45.5 180.8 L28.6 181.6 M313.6 150.8 L315.8 150.2 M325.8 119 L336.5 122 M124.1 66.5 L151.7 42.1 M315.8 150.2 L318.5 150 M263.9 86.4 L263 88.8 M192.5 77.7 L195.1 75.7 M233.7 79.7 L230.7 79.6 M52.3 116.7 L51.9 110.3 L40.1 95.8 M375.4 190.5 L369.7 198.6 M137.7 235.8 L144.4 237.7 M84.2 96.5 L82.9 111.2 M190.4 79.3 L192.5 77.7 M313.2 73.8 L309.4 75.1 M143 96.8 L144.4 97.8 M30.2 182 L45.3 181.3 M81.1 143.7 L77 151.2 M273.1 67 L289.3 66.8 M365.2 206 L370.1 198.8 M261.6 94.8 L261.4 95.5 M328.9 239.5 L331.8 245.4 M51.1 118.4 L44.1 132.1 M135.9 235.9 L130.2 232.5 M253.2 84.2 L255.3 84.9 M156.7 49 L153.8 44.5 M74.9 141.8 L70.7 151.1 M139.6 94.1 L141.4 95.5 M231.5 241 L232.1 239.5" fill="none" stroke="#1f3733" stroke-width="2.7" opacity="0.9" stroke-linecap="round" stroke-linejoin="round"/>
</g>
<g data-layer="minor-road-casing">
<path d="M233.8 235.3 L231.1 234.3 L232.7 201.3 M83.3 240.5 L72.5 248.4 L53.9 254.4 M356.4 95.8 L368.3 106.2 L368.5 110.5 L365.5 116.5 M64 235.7 L63.3 232 L67.2 227.6 L81.3 218.2 M106.9 112.9 L111 114.9 L112.7 113.9 L124.6 100.1 M355.5 109.4 L373.9 104.8 L382.1 104.8 M125.3 228.2 L100.9 237.9 M84.5 182.3 L83.4 170.4 L79.2 163.4 M208.8 137.3 L196.7 119.4 M236.6 306.1 L237.3 286.1 M385.4 211 L394.6 192.6 M364.4 276.8 L374.6 294.8 M121.4 273.1 L101 261.4 M97 69 L82.8 57.9 L79.1 59.6 M277 213.4 L270.1 195.5 M100.7 262.5 L120.4 273.7 M235.8 245.5 L259.3 241.9 M373.4 240.4 L377.2 237.6 L377.1 233.6 L371.5 224.9 M378.3 252.3 L383.1 259.4 L370.9 260.3 M358.6 233.5 L376 222.2 M238.6 63 L235.8 79.9 M36 144 L35.3 127.2 M294.5 271.2 L290.6 287.8 M124.7 130.6 L146.4 134.4 M147.1 121 L152.3 131.8 L156.8 135.7 M310.1 109.8 L291.7 118.4 M154.1 90.2 L139.3 78.3 M226.8 102.7 L248.4 102.8 M361.5 54.9 L374.7 42 M295.6 121.8 L313 112.4 M139 72.6 L152.8 60.7 M25 174.4 L8.8 184.2 M16.4 112.6 L12 127.7 M357 241.5 L355.7 243.8 L362 255.6 M221 62.1 L223.8 63.1 L223.3 65 L238.1 66.3 M323.2 275.7 L307.9 285.6 M79.1 59.6 L92.4 70.7 M8.8 76 L23.5 65.6 M270.7 232.9 L263.1 219.1 M316.1 219.7 L313.9 220.4 L303.6 209.6 M290 301.2 L276.5 304.7 L273.2 307.7 M400.2 28 L388.6 39.8 M89.7 126 L88.3 111.6 M83.9 174 L65.4 172.7 M67.4 268.1 L82.1 259.3 M214.8 208.8 L208.1 196.1 M363.5 101.5 L381.3 98.7 M52.4 24 L67.3 31.6 M23.7 163.7 L14.5 152.1 M160.5 196.1 L175.3 203.3 M176.7 97.2 L188.9 95.4 L193 92.8 M248.4 257 L244.4 244 M24.6 126.3 L42.3 127.4 M297.2 123.2 L285.7 113.2 M290.8 62.3 L273.5 62.2 M94.9 230.8 L83.3 240.5 M97.2 199.8 L107.8 202.5 L113.9 201.8 M263.1 247.9 L246.5 250.6 M367.8 245 L360.7 250.6 L354 251.9 M383.4 161.8 L400.2 162.3 M246.5 250.6 L230.3 253.2 M361 231.7 L373.4 240.4 M99.5 110.2 L82.9 111.2 M182.4 263.2 L189.9 251.9 M183.1 33.3 L197.6 39.6 M67 45.2 L76 55.8 M230.4 95.8 L247 95.7 M237.3 273.6 L252.3 269.1 M99.8 224.7 L108.8 234.9 M117.2 239.7 L130.2 232.5 M106.5 29.9 L120.3 36.4 M381.6 231.8 L397.7 230.4 M23.5 65.6 L27.7 62.8 L37.8 60.6 M103.7 246.4 L117.2 239.7 M91.5 209 L81.3 218.2 M219.7 73.3 L218.4 68.7 L222.2 62.5 M210.1 192.2 L216.5 203.1 M40.4 16.1 L52.4 24 M65.6 178.9 L55 178.1 L54.1 181.6 M396.6 25.8 L408.7 33.3 M380.4 93.9 L395.9 92.2 M280.5 101.9 L288.2 112.1 M252.6 223.2 L237.6 225.8 M339.2 247.4 L338.8 259 M129.9 119.7 L124.7 130.6 M250.8 191 L243.8 191.4 L237.5 188.7 M395.6 25.2 L408.3 18.7 M256 253.5 L255.8 242 M234.2 201.3 L235.5 209.6 L239.1 209.6 M325.4 177.8 L334.4 168.8 M127.2 142.1 L123.6 152.9 M246 90.9 L231.1 91.8 M169.2 98.9 L162.6 88.9 M375.5 139.5 L375.6 141.6 L387 142.9 M131 49.2 L125.5 43.9 L127.1 39.8 M146.4 134.4 L138.5 125.3 M247.3 196.1 L261.2 193.2 M73.4 184.9 L77.7 174.5 M269.9 57 L265.5 67.3 M397.7 230.4 L398.9 241.2 M114.5 190.6 L117.5 201.3 M45.6 235.7 L58.2 240.9 M187.2 229.5 L190.4 218.9 M45.6 102.4 L50.3 92.5 M175.6 132.6 L170.2 142.2 M379 227.4 L392.7 225.3 M265.3 200.4 L252.4 204.5 M290.1 306.5 L276.9 310.1 M129.1 39.2 L131.3 28.8 M160.1 220.1 L147.9 215.2 M214.3 218 L216.6 217.2 L214.8 208.8 M376.2 73.3 L365.8 66.4 M146 87.9 L136.4 80.4 M65.7 133.7 L78.7 137 M114.7 53.5 L104.1 47.1 M228.1 207.2 L214.8 208.8 M36.4 115.4 L40.6 106 M293.8 110.3 L306.5 106.6 M114.6 148.2 L101.1 148.4 M154.5 210.6 L164.3 217.4 M155.1 112.5 L143 116.5 M205.6 90.8 L204.8 81.1 M159.6 140.2 L165.2 149.2 M163.5 137.1 L172.9 130.1 M126.8 229.5 L116 235 M382.9 164.6 L395.5 166.7 M410.5 291 L398.8 295.2 M105.4 62.8 L103.1 66.5 L97 69 M302.4 256.7 L313.3 261.9 M240.8 228.2 L249.7 225.7 L248.6 223.3 M387 142.9 L395 135.4 M24.6 192.1 L31.8 200 M293.8 110.3 L289.4 101.3 M346.6 153.7 L354.6 146.5 M108.8 136.8 L103.7 135.6 L105.5 130.4 M101.6 274.9 L109.3 267.4 M113.4 169.5 L125.1 166.1 M302.2 251.6 L295.1 259.3 M367.8 245 L358.6 238.8 M124.1 66.5 L132.7 73.2 M381 170.9 L383.1 161.8 M23.3 132.2 L35.5 131.2 M228 231.4 L216.1 233.2 M171.8 165.9 L175.7 157.3 M237.7 221.9 L248.1 217.3 M196.3 118.8 L190.3 110.9 M236.7 75.6 L224.7 76 M376.4 251.4 L367.8 245 M316.3 259.4 L306.4 254.2 M365.1 229.2 L356.5 223.1 M149.2 81.9 L157.3 88.5 M195 198.5 L188.7 206.1 M166.1 100.8 L176.7 97.2 M242.8 286.2 L254.4 288.3 M345 223.1 L335.6 228.4 M30.4 135.7 L31.4 144.5 M383.3 114.2 L372 112 M334.7 227.7 L323.6 230.4 M73 131.8 L62.2 128.5 M162.5 308.3 L159.6 299.9 M252.5 24.4 L241.6 27.6 M167.5 94.9 L158.7 100.6 M338.9 177.1 L329.2 172.4 M23.5 203.3 L17 196.2 M372.5 216.2 L362.7 220.4 M138.5 125.3 L129.9 119.7 M378.3 36.9 L384.8 29.9 M101.7 85.1 L101 87.4 L105.4 88.4 L104.6 91 M128.4 76.6 L136.2 70.5 M189.6 81.8 L200.7 81.2 M380.5 94.3 L369.6 92.9 M399.5 90.5 L410.3 90.7 M395.6 25.2 L389.1 32 M19.6 205 L13.2 198.2 M315.8 171.7 L320 173.5 L320.2 178 M158.1 125 L151.1 118.6 M205.9 88.6 L194.9 89.1 M350.8 48.4 L358.3 42.4 M151.6 83.8 L159.3 77.9 M68.3 22.4 L65 30.3 M398 37.2 L404.3 30.6 M287.9 127.4 L297.2 123.2 M183.8 237.2 L187.2 229.5 M166.5 216.1 L158.5 210.6 M248.1 217.3 L257.2 213 M174.5 278.9 L178.2 271.2 M113.6 270.2 L107 276.6 M159.8 274.8 L151.9 269.3 M239.4 252.5 L248 257.4 M11.9 140 L19 146 M400.4 56.8 L393.4 62.9 M75.7 306.4 L68.1 300.7 M130 75.3 L122.5 69.8 M394.9 227.3 L399.1 224.7 L400.5 221.1 M387.8 18.9 L394.1 12.6 M185.8 52.7 L191.2 46 M371 45.6 L379.3 50.3 M138.5 125.3 L147.1 121 M97.2 167.4 L97.6 172.7 L94.4 173.1 M68.2 184.2 L69.5 180.7 L65.6 178.9 M153.1 207.7 L159.3 202 M9.6 200.6 L15.4 207 M163.9 214.3 L168.9 207.5 M408.7 33.3 L402.8 39.5 M116.1 209.3 L113.9 201.8 M159.6 73.9 L169.2 71.4 M219.9 191.6 L229.5 189.1 M328.9 247.6 L325.8 240.5 M158.1 125 L151.6 130.5 M51.6 46.9 L43.7 42.3 M159.3 202 L163 203.6 L163.3 207.7 M94.1 135 L94.2 127.5 M396.8 65.2 L389.5 60.2 M365.1 199.1 L364.7 191.6 M153.6 61.2 L161.7 57.3 M373.1 109.3 L382.9 110.5 M194.9 89.1 L195 81.7 M154.1 116.6 L160.3 122.3 M230 252.2 L227.5 245.1 M368.8 100.2 L369.6 92.9 M301 187.2 L309.3 191 M373.4 240.4 L376.8 243.1 L376.5 246.3 M336.9 246.9 L341 240.3 M381.5 28.1 L389.3 32.4 M237.7 223.8 L228.1 225 M287.3 59.1 L289.6 56.7 L287.1 53.2 M26.8 182.3 L31.1 188.7 M280.5 116.3 L288.2 112.1 M134.1 32.1 L136.3 29.6 L141.5 29 M122.9 47.7 L130.9 49.3 M396.2 13.8 L388.4 9.7 M132.7 73.2 L139.3 78.3 M284 114.1 L289.3 119.9 M252.1 204.1 L244 207.4 M405.7 222.4 L406.8 229.2 M81.5 134.4 L73 131.8 M368.2 48.4 L375.5 52.5 M108 138.9 L116.5 140.9 M111 202.2 L113 208.4 M271.5 96.1 L278.2 91.4 M304 177.1 L301.4 183.7 M316.4 37.4 L324.4 34.2 M67.4 141.4 L69.7 134.8 M156.3 148 L147.6 146.1 M188.2 15.9 L197.2 15.5 M341 240.3 L332.9 241.8 M320.7 231.2 L322.2 231.8 L321.1 229.4 L320.7 231.2 M216.5 203.1 L225.5 202.8 M142.7 144.5 L134.5 141.9 M198.4 279.4 L198.4 286 M168.9 207.5 L160.3 208.3 M125.1 166.1 L128 172.2 M168.1 145.5 L176.8 146.5 M368.3 87.4 L371.6 91.4 L369.6 92.6 M104.4 166.1 L105.7 159.5 M65.1 134.8 L64.7 141.3 M164.5 191.1 L171.3 195.3 M139.8 64.1 L134.1 69.1 M402.9 165.1 L411.2 163.1 M39 14.1 L32.9 9.4 M169.8 288.8 L172.7 282.6 M371.5 155.7 L379.1 157.5 M385 14.2 L388.1 20.3 M137.6 111.5 L143 116.5 M382.4 106.9 L373.8 106.8 M186 232.9 L184.5 229.2 L187.2 229.5 M54.3 126 L62.2 128.5 M158.6 155.1 L156.9 148.9 M175.3 92.2 L167.5 94.9 M335.3 253.6 L326.8 253.9 M176.9 199.7 L169.5 196.7 M222.9 197.5 L219.9 191.6 M242.2 236.1 L233.8 235.3 M139.5 149 L147 151.9 M290.3 288.7 L281.9 289.1 M249.6 229.2 L241.8 231.2 M151.1 118.6 L157.5 114.8 M242.9 201.8 L244.1 207.9 M159.2 294.3 L166.7 291.7 M169.5 196.7 L163 192.9 M400.4 56.8 L406.2 52.4 M231.1 75.6 L231.9 69.5 M252.3 269.1 L260 271.1 M93.1 140.9 L94.1 135 M112.5 184.8 L115 190.4 M314.2 215.6 L320.3 211.9 M322.9 44.7 L316.3 47.9 M300.3 170.2 L298.6 176 M388.8 21 L394.9 24.8 M182.4 263.2 L175.6 260.5 M333.7 247.4 L341.2 247.5 M138.8 228.3 L134.2 226 L132.4 226.9 M198 15.1 L205.7 14.9 M330.3 152.4 L323.2 154.6 M80.5 136.4 L83.2 131.2 M230 195.8 L222.9 197.5 M180.3 127.6 L185.7 123.9 M385.2 262.3 L388.7 267.3 M236.2 99.7 L243.6 99.2 M248.9 264.4 L248.2 263 L252.4 260.4" fill="none" stroke="#fbf7eb" stroke-width="3.4" opacity="0.62" stroke-linecap="round" stroke-linejoin="round"/>
</g>
<g data-layer="minor-road">
<path d="M233.8 235.3 L231.1 234.3 L232.7 201.3 M83.3 240.5 L72.5 248.4 L53.9 254.4 M356.4 95.8 L368.3 106.2 L368.5 110.5 L365.5 116.5 M64 235.7 L63.3 232 L67.2 227.6 L81.3 218.2 M106.9 112.9 L111 114.9 L112.7 113.9 L124.6 100.1 M355.5 109.4 L373.9 104.8 L382.1 104.8 M125.3 228.2 L100.9 237.9 M84.5 182.3 L83.4 170.4 L79.2 163.4 M208.8 137.3 L196.7 119.4 M236.6 306.1 L237.3 286.1 M385.4 211 L394.6 192.6 M364.4 276.8 L374.6 294.8 M121.4 273.1 L101 261.4 M97 69 L82.8 57.9 L79.1 59.6 M277 213.4 L270.1 195.5 M100.7 262.5 L120.4 273.7 M235.8 245.5 L259.3 241.9 M373.4 240.4 L377.2 237.6 L377.1 233.6 L371.5 224.9 M378.3 252.3 L383.1 259.4 L370.9 260.3 M358.6 233.5 L376 222.2 M238.6 63 L235.8 79.9 M36 144 L35.3 127.2 M294.5 271.2 L290.6 287.8 M124.7 130.6 L146.4 134.4 M147.1 121 L152.3 131.8 L156.8 135.7 M310.1 109.8 L291.7 118.4 M154.1 90.2 L139.3 78.3 M226.8 102.7 L248.4 102.8 M361.5 54.9 L374.7 42 M295.6 121.8 L313 112.4 M139 72.6 L152.8 60.7 M25 174.4 L8.8 184.2 M16.4 112.6 L12 127.7 M357 241.5 L355.7 243.8 L362 255.6 M221 62.1 L223.8 63.1 L223.3 65 L238.1 66.3 M323.2 275.7 L307.9 285.6 M79.1 59.6 L92.4 70.7 M8.8 76 L23.5 65.6 M270.7 232.9 L263.1 219.1 M316.1 219.7 L313.9 220.4 L303.6 209.6 M290 301.2 L276.5 304.7 L273.2 307.7 M400.2 28 L388.6 39.8 M89.7 126 L88.3 111.6 M83.9 174 L65.4 172.7 M67.4 268.1 L82.1 259.3 M214.8 208.8 L208.1 196.1 M363.5 101.5 L381.3 98.7 M52.4 24 L67.3 31.6 M23.7 163.7 L14.5 152.1 M160.5 196.1 L175.3 203.3 M176.7 97.2 L188.9 95.4 L193 92.8 M248.4 257 L244.4 244 M24.6 126.3 L42.3 127.4 M297.2 123.2 L285.7 113.2 M290.8 62.3 L273.5 62.2 M94.9 230.8 L83.3 240.5 M97.2 199.8 L107.8 202.5 L113.9 201.8 M263.1 247.9 L246.5 250.6 M367.8 245 L360.7 250.6 L354 251.9 M383.4 161.8 L400.2 162.3 M246.5 250.6 L230.3 253.2 M361 231.7 L373.4 240.4 M99.5 110.2 L82.9 111.2 M182.4 263.2 L189.9 251.9 M183.1 33.3 L197.6 39.6 M67 45.2 L76 55.8 M230.4 95.8 L247 95.7 M237.3 273.6 L252.3 269.1 M99.8 224.7 L108.8 234.9 M117.2 239.7 L130.2 232.5 M106.5 29.9 L120.3 36.4 M381.6 231.8 L397.7 230.4 M23.5 65.6 L27.7 62.8 L37.8 60.6 M103.7 246.4 L117.2 239.7 M91.5 209 L81.3 218.2 M219.7 73.3 L218.4 68.7 L222.2 62.5 M210.1 192.2 L216.5 203.1 M40.4 16.1 L52.4 24 M65.6 178.9 L55 178.1 L54.1 181.6 M396.6 25.8 L408.7 33.3 M380.4 93.9 L395.9 92.2 M280.5 101.9 L288.2 112.1 M252.6 223.2 L237.6 225.8 M339.2 247.4 L338.8 259 M129.9 119.7 L124.7 130.6 M250.8 191 L243.8 191.4 L237.5 188.7 M395.6 25.2 L408.3 18.7 M256 253.5 L255.8 242 M234.2 201.3 L235.5 209.6 L239.1 209.6 M325.4 177.8 L334.4 168.8 M127.2 142.1 L123.6 152.9 M246 90.9 L231.1 91.8 M169.2 98.9 L162.6 88.9 M375.5 139.5 L375.6 141.6 L387 142.9 M131 49.2 L125.5 43.9 L127.1 39.8 M146.4 134.4 L138.5 125.3 M247.3 196.1 L261.2 193.2 M73.4 184.9 L77.7 174.5 M269.9 57 L265.5 67.3 M397.7 230.4 L398.9 241.2 M114.5 190.6 L117.5 201.3 M45.6 235.7 L58.2 240.9 M187.2 229.5 L190.4 218.9 M45.6 102.4 L50.3 92.5 M175.6 132.6 L170.2 142.2 M379 227.4 L392.7 225.3 M265.3 200.4 L252.4 204.5 M290.1 306.5 L276.9 310.1 M129.1 39.2 L131.3 28.8 M160.1 220.1 L147.9 215.2 M214.3 218 L216.6 217.2 L214.8 208.8 M376.2 73.3 L365.8 66.4 M146 87.9 L136.4 80.4 M65.7 133.7 L78.7 137 M114.7 53.5 L104.1 47.1 M228.1 207.2 L214.8 208.8 M36.4 115.4 L40.6 106 M293.8 110.3 L306.5 106.6 M114.6 148.2 L101.1 148.4 M154.5 210.6 L164.3 217.4 M155.1 112.5 L143 116.5 M205.6 90.8 L204.8 81.1 M159.6 140.2 L165.2 149.2 M163.5 137.1 L172.9 130.1 M126.8 229.5 L116 235 M382.9 164.6 L395.5 166.7 M410.5 291 L398.8 295.2 M105.4 62.8 L103.1 66.5 L97 69 M302.4 256.7 L313.3 261.9 M240.8 228.2 L249.7 225.7 L248.6 223.3 M387 142.9 L395 135.4 M24.6 192.1 L31.8 200 M293.8 110.3 L289.4 101.3 M346.6 153.7 L354.6 146.5 M108.8 136.8 L103.7 135.6 L105.5 130.4 M101.6 274.9 L109.3 267.4 M113.4 169.5 L125.1 166.1 M302.2 251.6 L295.1 259.3 M367.8 245 L358.6 238.8 M124.1 66.5 L132.7 73.2 M381 170.9 L383.1 161.8 M23.3 132.2 L35.5 131.2 M228 231.4 L216.1 233.2 M171.8 165.9 L175.7 157.3 M237.7 221.9 L248.1 217.3 M196.3 118.8 L190.3 110.9 M236.7 75.6 L224.7 76 M376.4 251.4 L367.8 245 M316.3 259.4 L306.4 254.2 M365.1 229.2 L356.5 223.1 M149.2 81.9 L157.3 88.5 M195 198.5 L188.7 206.1 M166.1 100.8 L176.7 97.2 M242.8 286.2 L254.4 288.3 M345 223.1 L335.6 228.4 M30.4 135.7 L31.4 144.5 M383.3 114.2 L372 112 M334.7 227.7 L323.6 230.4 M73 131.8 L62.2 128.5 M162.5 308.3 L159.6 299.9 M252.5 24.4 L241.6 27.6 M167.5 94.9 L158.7 100.6 M338.9 177.1 L329.2 172.4 M23.5 203.3 L17 196.2 M372.5 216.2 L362.7 220.4 M138.5 125.3 L129.9 119.7 M378.3 36.9 L384.8 29.9 M101.7 85.1 L101 87.4 L105.4 88.4 L104.6 91 M128.4 76.6 L136.2 70.5 M189.6 81.8 L200.7 81.2 M380.5 94.3 L369.6 92.9 M399.5 90.5 L410.3 90.7 M395.6 25.2 L389.1 32 M19.6 205 L13.2 198.2 M315.8 171.7 L320 173.5 L320.2 178 M158.1 125 L151.1 118.6 M205.9 88.6 L194.9 89.1 M350.8 48.4 L358.3 42.4 M151.6 83.8 L159.3 77.9 M68.3 22.4 L65 30.3 M398 37.2 L404.3 30.6 M287.9 127.4 L297.2 123.2 M183.8 237.2 L187.2 229.5 M166.5 216.1 L158.5 210.6 M248.1 217.3 L257.2 213 M174.5 278.9 L178.2 271.2 M113.6 270.2 L107 276.6 M159.8 274.8 L151.9 269.3 M239.4 252.5 L248 257.4 M11.9 140 L19 146 M400.4 56.8 L393.4 62.9 M75.7 306.4 L68.1 300.7 M130 75.3 L122.5 69.8 M394.9 227.3 L399.1 224.7 L400.5 221.1 M387.8 18.9 L394.1 12.6 M185.8 52.7 L191.2 46 M371 45.6 L379.3 50.3 M138.5 125.3 L147.1 121 M97.2 167.4 L97.6 172.7 L94.4 173.1 M68.2 184.2 L69.5 180.7 L65.6 178.9 M153.1 207.7 L159.3 202 M9.6 200.6 L15.4 207 M163.9 214.3 L168.9 207.5 M408.7 33.3 L402.8 39.5 M116.1 209.3 L113.9 201.8 M159.6 73.9 L169.2 71.4 M219.9 191.6 L229.5 189.1 M328.9 247.6 L325.8 240.5 M158.1 125 L151.6 130.5 M51.6 46.9 L43.7 42.3 M159.3 202 L163 203.6 L163.3 207.7 M94.1 135 L94.2 127.5 M396.8 65.2 L389.5 60.2 M365.1 199.1 L364.7 191.6 M153.6 61.2 L161.7 57.3 M373.1 109.3 L382.9 110.5 M194.9 89.1 L195 81.7 M154.1 116.6 L160.3 122.3 M230 252.2 L227.5 245.1 M368.8 100.2 L369.6 92.9 M301 187.2 L309.3 191 M373.4 240.4 L376.8 243.1 L376.5 246.3 M336.9 246.9 L341 240.3 M381.5 28.1 L389.3 32.4 M237.7 223.8 L228.1 225 M287.3 59.1 L289.6 56.7 L287.1 53.2 M26.8 182.3 L31.1 188.7 M280.5 116.3 L288.2 112.1 M134.1 32.1 L136.3 29.6 L141.5 29 M122.9 47.7 L130.9 49.3 M396.2 13.8 L388.4 9.7 M132.7 73.2 L139.3 78.3 M284 114.1 L289.3 119.9 M252.1 204.1 L244 207.4 M405.7 222.4 L406.8 229.2 M81.5 134.4 L73 131.8 M368.2 48.4 L375.5 52.5 M108 138.9 L116.5 140.9 M111 202.2 L113 208.4 M271.5 96.1 L278.2 91.4 M304 177.1 L301.4 183.7 M316.4 37.4 L324.4 34.2 M67.4 141.4 L69.7 134.8 M156.3 148 L147.6 146.1 M188.2 15.9 L197.2 15.5 M341 240.3 L332.9 241.8 M320.7 231.2 L322.2 231.8 L321.1 229.4 L320.7 231.2 M216.5 203.1 L225.5 202.8 M142.7 144.5 L134.5 141.9 M198.4 279.4 L198.4 286 M168.9 207.5 L160.3 208.3 M125.1 166.1 L128 172.2 M168.1 145.5 L176.8 146.5 M368.3 87.4 L371.6 91.4 L369.6 92.6 M104.4 166.1 L105.7 159.5 M65.1 134.8 L64.7 141.3 M164.5 191.1 L171.3 195.3 M139.8 64.1 L134.1 69.1 M402.9 165.1 L411.2 163.1 M39 14.1 L32.9 9.4 M169.8 288.8 L172.7 282.6 M371.5 155.7 L379.1 157.5 M385 14.2 L388.1 20.3 M137.6 111.5 L143 116.5 M382.4 106.9 L373.8 106.8 M186 232.9 L184.5 229.2 L187.2 229.5 M54.3 126 L62.2 128.5 M158.6 155.1 L156.9 148.9 M175.3 92.2 L167.5 94.9 M335.3 253.6 L326.8 253.9 M176.9 199.7 L169.5 196.7 M222.9 197.5 L219.9 191.6 M242.2 236.1 L233.8 235.3 M139.5 149 L147 151.9 M290.3 288.7 L281.9 289.1 M249.6 229.2 L241.8 231.2 M151.1 118.6 L157.5 114.8 M242.9 201.8 L244.1 207.9 M159.2 294.3 L166.7 291.7 M169.5 196.7 L163 192.9 M400.4 56.8 L406.2 52.4 M231.1 75.6 L231.9 69.5 M252.3 269.1 L260 271.1 M93.1 140.9 L94.1 135 M112.5 184.8 L115 190.4 M314.2 215.6 L320.3 211.9 M322.9 44.7 L316.3 47.9 M300.3 170.2 L298.6 176 M388.8 21 L394.9 24.8 M182.4 263.2 L175.6 260.5 M333.7 247.4 L341.2 247.5 M138.8 228.3 L134.2 226 L132.4 226.9 M198 15.1 L205.7 14.9 M330.3 152.4 L323.2 154.6 M80.5 136.4 L83.2 131.2 M230 195.8 L222.9 197.5 M180.3 127.6 L185.7 123.9 M385.2 262.3 L388.7 267.3 M236.2 99.7 L243.6 99.2 M248.9 264.4 L248.2 263 L252.4 260.4" fill="none" stroke="#69776e" stroke-width="1.25" opacity="0.58" stroke-linecap="round" stroke-linejoin="round"/>
</g>
</g>
<g data-layer="north-up-compass" fill="none" stroke="#233934" stroke-linecap="round" stroke-linejoin="round" opacity="0.62">
<path d="M382 48L382 23" stroke-width="1.8"/>
<path d="M382 23L373 39M382 23L391 39" stroke-width="1.8"/>
<circle cx="382" cy="48" r="13" stroke-width="1.1" opacity="0.38"/>
</g>
<rect x="8" y="8" width="404" height="304" rx="16" fill="none" stroke="#233934" stroke-width="1.4" opacity="0.44"/>
</svg>
