<svg xmlns="http://www.w3.org/2000/svg" viewBox="0 0 420 320" role="img" aria-label="Unlabeled street-grid crop">
<defs>
<clipPath id="mapCrop"><rect x="8" y="8" width="404" height="304" rx="16"/></clipPath>
</defs>
<rect width="420" height="320" fill="#ede7d8"/>
<rect x="8" y="8" width="404" height="304" rx="16" fill="#f7f1e3" stroke="#d8cbb2" stroke-width="1.25"/>
<g clip-path="url(#mapCrop)">
<g data-layer="major-road-casing">
<path d="M420 131.7 L420 99.5 L405.8 62.2 L389.8 38.5 L252.9 0" fill="none" stroke="#fcf7e8" stroke-width="6.4" opacity="0.92" stroke-linecap="round" stroke-linejoin="round"/>
<path d="M251.8 0 L392.2 45 L405.1 62.9 L420 101.6 L420 132" fill="none" stroke="#fcf7e8" stroke-width="6.4" opacity="0.92" stroke-linecap="round" stroke-linejoin="round"/>
<path d="M14.6 133 L66.5 218.1 L72 225.6 L84 235.1" fill="none" stroke="#fcf7e8" stroke-width="6.4" opacity="0.92" stroke-linecap="round" stroke-linejoin="round"/>
<path d="M84.6 234.7 L69.1 220.7 L15.2 132.8" fill="none" stroke="#fcf7e8" stroke-width="6.4" opacity="0.92" stroke-linecap="round" stroke-linejoin="round"/>
<path d="M117 304.4 L108 254.5 L102.6 247.5 L88.4 237.6" fill="none" stroke="#fcf7e8" stroke-width="6.4" opacity="0.92" stroke-linecap="round" stroke-linejoin="round"/>
<path d="M87.9 238 L100.8 246.8 L107.3 254.8 L116 304.4" fill="none" stroke="#fcf7e8" stroke-width="6.4" opacity="0.92" stroke-linecap="round" stroke-linejoin="round"/>
<path d="M182.5 146.2 L193.6 141.8 L253 131.6 L269.5 124" fill="none" stroke="#fcf7e8" stroke-width="6.4" opacity="0.92" stroke-linecap="round" stroke-linejoin="round"/>
<path d="M268.9 123.6 L252.5 131.2 L186.9 143.1" fill="none" stroke="#fcf7e8" stroke-width="6.4" opacity="0.92" stroke-linecap="round" stroke-linejoin="round"/>
<path d="M12.9 129 L0 72.1" fill="none" stroke="#fcf7e8" stroke-width="6.4" opacity="0.92" stroke-linecap="round" stroke-linejoin="round"/>
<path d="M0 80.3 L12.3 129.2" fill="none" stroke="#fcf7e8" stroke-width="6.4" opacity="0.92" stroke-linecap="round" stroke-linejoin="round"/>
<path d="M119.7 172.1 L166.4 158.2 L180 148" fill="none" stroke="#fcf7e8" stroke-width="6.4" opacity="0.92" stroke-linecap="round" stroke-linejoin="round"/>
<path d="M397.5 55.6 L344.4 83.1" fill="none" stroke="#fcf7e8" stroke-width="6.4" opacity="0.92" stroke-linecap="round" stroke-linejoin="round"/>
<path d="M332.2 90 L381.2 64.9" fill="none" stroke="#fcf7e8" stroke-width="6.4" opacity="0.92" stroke-linecap="round" stroke-linejoin="round"/>
<path d="M156.7 160 L106.4 176" fill="none" stroke="#fcf7e8" stroke-width="6.4" opacity="0.92" stroke-linecap="round" stroke-linejoin="round"/>
<path d="M4.8 208.4 L26.7 204.2 L49.8 196.5" fill="none" stroke="#fcf7e8" stroke-width="6.4" opacity="0.92" stroke-linecap="round" stroke-linejoin="round"/>
<path d="M49.5 195.9 L27.1 203.4 L4.6 207.8" fill="none" stroke="#fcf7e8" stroke-width="6.4" opacity="0.92" stroke-linecap="round" stroke-linejoin="round"/>
<path d="M273.4 121.8 L309.4 102" fill="none" stroke="#fcf7e8" stroke-width="6.4" opacity="0.92" stroke-linecap="round" stroke-linejoin="round"/>
<path d="M277.3 320 L122.1 320 L109.4 255.9 L104.2 247.5 L82.2 232.1 L65.5 213.1 L62.2 206.7 L63.2 195.6" fill="none" stroke="#fcf7e8" stroke-width="6.4" opacity="0.92" stroke-linecap="round" stroke-linejoin="round"/>
<path d="M334.6 0 L338.8 0 L391.5 46.4 L392.9 50.7 L391.8 56 L386.2 60.8 L336.3 86.5" fill="none" stroke="#fcf7e8" stroke-width="6.4" opacity="0.92" stroke-linecap="round" stroke-linejoin="round"/>
<path d="M269.8 308.8 L284.5 300 L293.3 297 L359.6 293.7 L420 269.8" fill="none" stroke="#fcf7e8" stroke-width="6.4" opacity="0.92" stroke-linecap="round" stroke-linejoin="round"/>
<path d="M420 240.7 L360.1 292.9" fill="none" stroke="#fcf7e8" stroke-width="6.4" opacity="0.92" stroke-linecap="round" stroke-linejoin="round"/>
<path d="M51.7 202.8 L60 209 L71.4 226.1 L105 252.2 L114 297.6" fill="none" stroke="#fcf7e8" stroke-width="6.4" opacity="0.92" stroke-linecap="round" stroke-linejoin="round"/>
<path d="M348.4 131.3 L392.4 217.1 L384.6 219.3" fill="none" stroke="#fcf7e8" stroke-width="6.4" opacity="0.92" stroke-linecap="round" stroke-linejoin="round"/>
<path d="M393.1 216.9 L390.7 208.4 L352.2 130.2" fill="none" stroke="#fcf7e8" stroke-width="6.4" opacity="0.92" stroke-linecap="round" stroke-linejoin="round"/>
<path d="M31.2 267.4 L97.4 230 L121.5 209" fill="none" stroke="#fcf7e8" stroke-width="6.4" opacity="0.92" stroke-linecap="round" stroke-linejoin="round"/>
<path d="M120.6 209.1 L92.9 232.2 L34 265.3" fill="none" stroke="#fcf7e8" stroke-width="6.4" opacity="0.92" stroke-linecap="round" stroke-linejoin="round"/>
<path d="M144.1 251 L172.8 312.9 L177.7 320" fill="none" stroke="#fcf7e8" stroke-width="6.4" opacity="0.92" stroke-linecap="round" stroke-linejoin="round"/>
<path d="M47.5 191.5 L41 197.8 L16.2 205.5 L2 207.5 L0 210.1" fill="none" stroke="#fcf7e8" stroke-width="6.4" opacity="0.92" stroke-linecap="round" stroke-linejoin="round"/>
<path d="M45.2 151.1 L7 89.3" fill="none" stroke="#fcf7e8" stroke-width="6.4" opacity="0.92" stroke-linecap="round" stroke-linejoin="round"/>
<path d="M123.7 207 L176.8 152.1" fill="none" stroke="#fcf7e8" stroke-width="6.4" opacity="0.92" stroke-linecap="round" stroke-linejoin="round"/>
<path d="M72.6 28.2 L0 56.4" fill="none" stroke="#fcf7e8" stroke-width="6.4" opacity="0.92" stroke-linecap="round" stroke-linejoin="round"/>
<path d="M370 299.1 L335.2 243.4" fill="none" stroke="#fcf7e8" stroke-width="6.4" opacity="0.92" stroke-linecap="round" stroke-linejoin="round"/>
<path d="M35.5 266.5 L62.2 312.6 L71.9 319.4" fill="none" stroke="#fcf7e8" stroke-width="6.4" opacity="0.92" stroke-linecap="round" stroke-linejoin="round"/>
<path d="M335.3 245.3 L369.6 299.2" fill="none" stroke="#fcf7e8" stroke-width="6.4" opacity="0.92" stroke-linecap="round" stroke-linejoin="round"/>
<path d="M360.1 292.9 L296 295.9 L282.7 300.2" fill="none" stroke="#fcf7e8" stroke-width="6.4" opacity="0.92" stroke-linecap="round" stroke-linejoin="round"/>
<path d="M96.9 228.1 L86.9 219.8 L61.3 177.3" fill="none" stroke="#fcf7e8" stroke-width="6.4" opacity="0.92" stroke-linecap="round" stroke-linejoin="round"/>
<path d="M158.1 22 L200.5 68.6" fill="none" stroke="#fcf7e8" stroke-width="6.4" opacity="0.92" stroke-linecap="round" stroke-linejoin="round"/>
<path d="M201.2 68.1 L158.9 21.7" fill="none" stroke="#fcf7e8" stroke-width="6.4" opacity="0.92" stroke-linecap="round" stroke-linejoin="round"/>
<path d="M394.3 221.5 L401.5 235.2 L417.1 255.4 L420 270.2" fill="none" stroke="#fcf7e8" stroke-width="6.4" opacity="0.92" stroke-linecap="round" stroke-linejoin="round"/>
<path d="M54.8 190.4 L44.7 179.5 L22.5 143.1" fill="none" stroke="#fcf7e8" stroke-width="6.4" opacity="0.92" stroke-linecap="round" stroke-linejoin="round"/>
<path d="M159.2 162.5 L159.8 167.8 L123 206.8" fill="none" stroke="#fcf7e8" stroke-width="6.4" opacity="0.92" stroke-linecap="round" stroke-linejoin="round"/>
<path d="M3.6 281.5 L13.5 302.8 L26.9 308.7 L50 314.8" fill="none" stroke="#fcf7e8" stroke-width="6.4" opacity="0.92" stroke-linecap="round" stroke-linejoin="round"/>
<path d="M50.4 314.2 L26.6 308.1 L14.1 302.4 L4.2 281.1" fill="none" stroke="#fcf7e8" stroke-width="6.4" opacity="0.92" stroke-linecap="round" stroke-linejoin="round"/>
<path d="M259.4 250.9 L201.4 278.4" fill="none" stroke="#fcf7e8" stroke-width="6.4" opacity="0.92" stroke-linecap="round" stroke-linejoin="round"/>
<path d="M115.2 304.7 L119.5 320 L122.8 320" fill="none" stroke="#fcf7e8" stroke-width="6.4" opacity="0.92" stroke-linecap="round" stroke-linejoin="round"/>
<path d="M202.3 278.6 L259.8 251.4" fill="none" stroke="#fcf7e8" stroke-width="6.4" opacity="0.92" stroke-linecap="round" stroke-linejoin="round"/>
<path d="M232.1 193 L218 143.6" fill="none" stroke="#fcf7e8" stroke-width="6.4" opacity="0.92" stroke-linecap="round" stroke-linejoin="round"/>
<path d="M420 269.8 L417.9 255 L403.8 237 L397.7 225.3" fill="none" stroke="#fcf7e8" stroke-width="6.4" opacity="0.92" stroke-linecap="round" stroke-linejoin="round"/>
<path d="M158.4 295.4 L155.7 289.2 L129.1 273.5 L121.8 258.5" fill="none" stroke="#fcf7e8" stroke-width="6.4" opacity="0.92" stroke-linecap="round" stroke-linejoin="round"/>
<path d="M336.3 86.5 L284.7 114.3" fill="none" stroke="#fcf7e8" stroke-width="6.4" opacity="0.92" stroke-linecap="round" stroke-linejoin="round"/>
<path d="M121.4 259.4 L128.6 274 L153.8 288.5 L157.6 295.6" fill="none" stroke="#fcf7e8" stroke-width="6.4" opacity="0.92" stroke-linecap="round" stroke-linejoin="round"/>
<path d="M103.6 174.6 L101.1 170.2 L101.5 167.1 L119.3 130.3" fill="none" stroke="#fcf7e8" stroke-width="6.4" opacity="0.92" stroke-linecap="round" stroke-linejoin="round"/>
<path d="M336.4 243.4 L349.4 231.5 L386.4 219.8" fill="none" stroke="#fcf7e8" stroke-width="6.4" opacity="0.92" stroke-linecap="round" stroke-linejoin="round"/>
<path d="M251.2 130.9 L193.2 140.2" fill="none" stroke="#fcf7e8" stroke-width="6.4" opacity="0.92" stroke-linecap="round" stroke-linejoin="round"/>
<path d="M122.9 209.6 L144.1 251" fill="none" stroke="#fcf7e8" stroke-width="6.4" opacity="0.92" stroke-linecap="round" stroke-linejoin="round"/>
<path d="M24.5 150.9 L46 185.9 L47.5 191.5" fill="none" stroke="#fcf7e8" stroke-width="6.4" opacity="0.92" stroke-linecap="round" stroke-linejoin="round"/>
<path d="M68.9 189.9 L86.9 220.3 L96.6 228.3" fill="none" stroke="#fcf7e8" stroke-width="6.4" opacity="0.92" stroke-linecap="round" stroke-linejoin="round"/>
<path d="M140.6 83.7 L121.1 124.5" fill="none" stroke="#fcf7e8" stroke-width="6.4" opacity="0.92" stroke-linecap="round" stroke-linejoin="round"/>
<path d="M144 249.7 L129.5 218.8 L123.2 209.5" fill="none" stroke="#fcf7e8" stroke-width="6.4" opacity="0.92" stroke-linecap="round" stroke-linejoin="round"/>
<path d="M34.4 263.7 L12.2 225.8" fill="none" stroke="#fcf7e8" stroke-width="6.4" opacity="0.92" stroke-linecap="round" stroke-linejoin="round"/>
<path d="M11.6 226.3 L34 263.9" fill="none" stroke="#fcf7e8" stroke-width="6.4" opacity="0.92" stroke-linecap="round" stroke-linejoin="round"/>
<path d="M24.3 46.4 L72.8 28.7" fill="none" stroke="#fcf7e8" stroke-width="6.4" opacity="0.92" stroke-linecap="round" stroke-linejoin="round"/>
<path d="M114 175.1 L150.8 162.2 L160.1 167" fill="none" stroke="#fcf7e8" stroke-width="6.4" opacity="0.92" stroke-linecap="round" stroke-linejoin="round"/>
<path d="M74.2 31.2 L87.9 49.4 L96.1 56.5 L105.6 61.5" fill="none" stroke="#fcf7e8" stroke-width="6.4" opacity="0.92" stroke-linecap="round" stroke-linejoin="round"/>
<path d="M164.4 3 L116 15.7" fill="none" stroke="#fcf7e8" stroke-width="6.4" opacity="0.92" stroke-linecap="round" stroke-linejoin="round"/>
<path d="M117 16.2 L164.6 3.7" fill="none" stroke="#fcf7e8" stroke-width="6.4" opacity="0.92" stroke-linecap="round" stroke-linejoin="round"/>
<path d="M420 202.2 L420 206.3 L392.4 217.1" fill="none" stroke="#fcf7e8" stroke-width="6.4" opacity="0.92" stroke-linecap="round" stroke-linejoin="round"/>
<path d="M1.4 191.3 L3.4 197.9 L3.1 210.3 L11.6 226.3" fill="none" stroke="#fcf7e8" stroke-width="6.4" opacity="0.92" stroke-linecap="round" stroke-linejoin="round"/>
<path d="M12.2 225.8 L3.6 210.3 L4 197.4 L1.9 191.2" fill="none" stroke="#fcf7e8" stroke-width="6.4" opacity="0.92" stroke-linecap="round" stroke-linejoin="round"/>
<path d="M6.4 208.8 L39.6 201 L51.7 202.8" fill="none" stroke="#fcf7e8" stroke-width="6.4" opacity="0.92" stroke-linecap="round" stroke-linejoin="round"/>
<path d="M121.5 206.5 L103.6 174.6" fill="none" stroke="#fcf7e8" stroke-width="6.4" opacity="0.92" stroke-linecap="round" stroke-linejoin="round"/>
<path d="M99.4 230 L111.5 239.4 L121.4 259.4" fill="none" stroke="#fcf7e8" stroke-width="6.4" opacity="0.92" stroke-linecap="round" stroke-linejoin="round"/>
</g>
<g data-layer="major-road">
<path d="M420 131.7 L420 99.5 L405.8 62.2 L389.8 38.5 L252.9 0" fill="none" stroke="#1f3733" stroke-width="2.7" opacity="0.9" stroke-linecap="round" stroke-linejoin="round"/>
<path d="M251.8 0 L392.2 45 L405.1 62.9 L420 101.6 L420 132" fill="none" stroke="#1f3733" stroke-width="2.7" opacity="0.9" stroke-linecap="round" stroke-linejoin="round"/>
<path d="M14.6 133 L66.5 218.1 L72 225.6 L84 235.1" fill="none" stroke="#1f3733" stroke-width="2.7" opacity="0.9" stroke-linecap="round" stroke-linejoin="round"/>
<path d="M84.6 234.7 L69.1 220.7 L15.2 132.8" fill="none" stroke="#1f3733" stroke-width="2.7" opacity="0.9" stroke-linecap="round" stroke-linejoin="round"/>
<path d="M117 304.4 L108 254.5 L102.6 247.5 L88.4 237.6" fill="none" stroke="#1f3733" stroke-width="2.7" opacity="0.9" stroke-linecap="round" stroke-linejoin="round"/>
<path d="M87.9 238 L100.8 246.8 L107.3 254.8 L116 304.4" fill="none" stroke="#1f3733" stroke-width="2.7" opacity="0.9" stroke-linecap="round" stroke-linejoin="round"/>
<path d="M182.5 146.2 L193.6 141.8 L253 131.6 L269.5 124" fill="none" stroke="#1f3733" stroke-width="2.7" opacity="0.9" stroke-linecap="round" stroke-linejoin="round"/>
<path d="M268.9 123.6 L252.5 131.2 L186.9 143.1" fill="none" stroke="#1f3733" stroke-width="2.7" opacity="0.9" stroke-linecap="round" stroke-linejoin="round"/>
<path d="M12.9 129 L0 72.1" fill="none" stroke="#1f3733" stroke-width="2.7" opacity="0.9" stroke-linecap="round" stroke-linejoin="round"/>
<path d="M0 80.3 L12.3 129.2" fill="none" stroke="#1f3733" stroke-width="2.7" opacity="0.9" stroke-linecap="round" stroke-linejoin="round"/>
<path d="M119.7 172.1 L166.4 158.2 L180 148" fill="none" stroke="#1f3733" stroke-width="2.7" opacity="0.9" stroke-linecap="round" stroke-linejoin="round"/>
<path d="M397.5 55.6 L344.4 83.1" fill="none" stroke="#1f3733" stroke-width="2.7" opacity="0.9" stroke-linecap="round" stroke-linejoin="round"/>
<path d="M332.2 90 L381.2 64.9" fill="none" stroke="#1f3733" stroke-width="2.7" opacity="0.9" stroke-linecap="round" stroke-linejoin="round"/>
<path d="M156.7 160 L106.4 176" fill="none" stroke="#1f3733" stroke-width="2.7" opacity="0.9" stroke-linecap="round" stroke-linejoin="round"/>
<path d="M4.8 208.4 L26.7 204.2 L49.8 196.5" fill="none" stroke="#1f3733" stroke-width="2.7" opacity="0.9" stroke-linecap="round" stroke-linejoin="round"/>
<path d="M49.5 195.9 L27.1 203.4 L4.6 207.8" fill="none" stroke="#1f3733" stroke-width="2.7" opacity="0.9" stroke-linecap="round" stroke-linejoin="round"/>
<path d="M273.4 121.8 L309.4 102" fill="none" stroke="#1f3733" stroke-width="2.7" opacity="0.9" stroke-linecap="round" stroke-linejoin="round"/>
<path d="M277.3 320 L122.1 320 L109.4 255.9 L104.2 247.5 L82.2 232.1 L65.5 213.1 L62.2 206.7 L63.2 195.6" fill="none" stroke="#1f3733" stroke-width="2.7" opacity="0.9" stroke-linecap="round" stroke-linejoin="round"/>
<path d="M334.6 0 L338.8 0 L391.5 46.4 L392.9 50.7 L391.8 56 L386.2 60.8 L336.3 86.5" fill="none" stroke="#1f3733" stroke-width="2.7" opacity="0.9" stroke-linecap="round" stroke-linejoin="round"/>
<path d="M269.8 308.8 L284.5 300 L293.3 297 L359.6 293.7 L420 269.8" fill="none" stroke="#1f3733" stroke-width="2.7" opacity="0.9" stroke-linecap="round" stroke-linejoin="round"/>
<path d="M420 240.7 L360.1 292.9" fill="none" stroke="#1f3733" stroke-width="2.7" opacity="0.9" stroke-linecap="round" stroke-linejoin="round"/>
<path d="M51.7 202.8 L60 209 L71.4 226.1 L105 252.2 L114 297.6" fill="none" stroke="#1f3733" stroke-width="2.7" opacity="0.9" stroke-linecap="round" stroke-linejoin="round"/>
<path d="M348.4 131.3 L392.4 217.1 L384.6 219.3" fill="none" stroke="#1f3733" stroke-width="2.7" opacity="0.9" stroke-linecap="round" stroke-linejoin="round"/>
<path d="M393.1 216.9 L390.7 208.4 L352.2 130.2" fill="none" stroke="#1f3733" stroke-width="2.7" opacity="0.9" stroke-linecap="round" stroke-linejoin="round"/>
<path d="M31.2 267.4 L97.4 230 L121.5 209" fill="none" stroke="#1f3733" stroke-width="2.7" opacity="0.9" stroke-linecap="round" stroke-linejoin="round"/>
<path d="M120.6 209.1 L92.9 232.2 L34 265.3" fill="none" stroke="#1f3733" stroke-width="2.7" opacity="0.9" stroke-linecap="round" stroke-linejoin="round"/>
<path d="M144.1 251 L172.8 312.9 L177.7 320" fill="none" stroke="#1f3733" stroke-width="2.7" opacity="0.9" stroke-linecap="round" stroke-linejoin="round"/>
<path d="M47.5 191.5 L41 197.8 L16.2 205.5 L2 207.5 L0 210.1" fill="none" stroke="#1f3733" stroke-width="2.7" opacity="0.9" stroke-linecap="round" stroke-linejoin="round"/>
<path d="M45.2 151.1 L7 89.3" fill="none" stroke="#1f3733" stroke-width="2.7" opacity="0.9" stroke-linecap="round" stroke-linejoin="round"/>
<path d="M123.7 207 L176.8 152.1" fill="none" stroke="#1f3733" stroke-width="2.7" opacity="0.9" stroke-linecap="round" stroke-linejoin="round"/>
<path d="M72.6 28.2 L0 56.4" fill="none" stroke="#1f3733" stroke-width="2.7" opacity="0.9" stroke-linecap="round" stroke-linejoin="round"/>
<path d="M370 299.1 L335.2 243.4" fill="none" stroke="#1f3733" stroke-width="2.7" opacity="0.9" stroke-linecap="round" stroke-linejoin="round"/>
<path d="M35.5 266.5 L62.2 312.6 L71.9 319.4" fill="none" stroke="#1f3733" stroke-width="2.7" opacity="0.9" stroke-linecap="round" stroke-linejoin="round"/>
<path d="M335.3 245.3 L369.6 299.2" fill="none" stroke="#1f3733" stroke-width="2.7" opacity="0.9" stroke-linecap="round" stroke-linejoin="round"/>
<path d="M360.1 292.9 L296 295.9 L282.7 300.2" fill="none" stroke="#1f3733" stroke-width="2.7" opacity="0.9" stroke-linecap="round" stroke-linejoin="round"/>
<path d="M96.9 228.1 L86.9 219.8 L61.3 177.3" fill="none" stroke="#1f3733" stroke-width="2.7" opacity="0.9" stroke-linecap="round" stroke-linejoin="round"/>
<path d="M158.1 22 L200.5 68.6" fill="none" stroke="#1f3733" stroke-width="2.7" opacity="0.9" stroke-linecap="round" stroke-linejoin="round"/>
<path d="M201.2 68.1 L158.9 21.7" fill="none" stroke="#1f3733" stroke-width="2.7" opacity="0.9" stroke-linecap="round" stroke-linejoin="round"/>
<path d="M394.3 221.5 L401.5 235.2 L417.1 255.4 L420 270.2" fill="none" stroke="#1f3733" stroke-width="2.7" opacity="0.9" stroke-linecap="round" stroke-linejoin="round"/>
<path d="M54.8 190.4 L44.7 179.5 L22.5 143.1" fill="none" stroke="#1f3733" stroke-width="2.7" opacity="0.9" stroke-linecap="round" stroke-linejoin="round"/>
<path d="M159.2 162.5 L159.8 167.8 L123 206.8" fill="none" stroke="#1f3733" stroke-width="2.7" opacity="0.9" stroke-linecap="round" stroke-linejoin="round"/>
<path d="M3.6 281.5 L13.5 302.8 L26.9 308.7 L50 314.8" fill="none" stroke="#1f3733" stroke-width="2.7" opacity="0.9" stroke-linecap="round" stroke-linejoin="round"/>
<path d="M50.4 314.2 L26.6 308.1 L14.1 302.4 L4.2 281.1" fill="none" stroke="#1f3733" stroke-width="2.7" opacity="0.9" stroke-linecap="round" stroke-linejoin="round"/>
<path d="M259.4 250.9 L201.4 278.4" fill="none" stroke="#1f3733" stroke-width="2.7" opacity="0.9" stroke-linecap="round" stroke-linejoin="round"/>
<path d="M115.2 304.7 L119.5 320 L122.8 320" fill="none" stroke="#1f3733" stroke-width="2.7" opacity="0.9" stroke-linecap="round" stroke-linejoin="round"/>
<path d="M202.3 278.6 L259.8 251.4" fill="none" stroke="#1f3733" stroke-width="2.7" opacity="0.9" stroke-linecap="round" stroke-linejoin="round"/>
<path d="M232.1 193 L218 143.6" fill="none" stroke="#1f3733" stroke-width="2.7" opacity="0.9" stroke-linecap="round" stroke-linejoin="round"/>
<path d="M420 269.8 L417.9 255 L403.8 237 L397.7 225.3" fill="none" stroke="#1f3733" stroke-width="2.7" opacity="0.9" stroke-linecap="round" stroke-linejoin="round"/>
<path d="M158.4 295.4 L155.7 289.2 L129.1 273.5 L121.8 258.5" fill="none" stroke="#1f3733" stroke-width="2.7" opacity="0.9" stroke-linecap="round" stroke-linejoin="round"/>
<path d="M336.3 86.5 L284.7 114.3" fill="none" stroke="#1f3733" stroke-width="2.7" opacity="0.9" stroke-linecap="round" stroke-linejoin="round"/>
<path d="M121.4 259.4 L128.6 274 L153.8 288.5 L157.6 295.6" fill="none" stroke="#1f3733" stroke-width="2.7" opacity="0.9" stroke-linecap="round" stroke-linejoin="round"/>
<path d="M103.6 174.6 L101.1 170.2 L101.5 167.1 L119.3 130.3" fill="none" stroke="#1f3733" stroke-width="2.7" opacity="0.9" stroke-linecap="round" stroke-linejoin="round"/>
<path d="M336.4 243.4 L349.4 231.5 L386.4 219.8" fill="none" stroke="#1f3733" stroke-width="2.7" opacity="0.9" stroke-linecap="round" stroke-linejoin="round"/>
<path d="M251.2 130.9 L193.2 140.2" fill="none" stroke="#1f3733" stroke-width="2.7" opacity="0.9" stroke-linecap="round" stroke-linejoin="round"/>
<path d="M122.9 209.6 L144.1 251" fill="none" stroke="#1f3733" stroke-width="2.7" opacity="0.9" stroke-linecap="round" stroke-linejoin="round"/>
<path d="M24.5 150.9 L46 185.9 L47.5 191.5" fill="none" stroke="#1f3733" stroke-width="2.7" opacity="0.9" stroke-linecap="round" stroke-linejoin="round"/>
<path d="M68.9 189.9 L86.9 220.3 L96.6 228.3" fill="none" stroke="#1f3733" stroke-width="2.7" opacity="0.9" stroke-linecap="round" stroke-linejoin="round"/>
<path d="M140.6 83.7 L121.1 124.5" fill="none" stroke="#1f3733" stroke-width="2.7" opacity="0.9" stroke-linecap="round" stroke-linejoin="round"/>
<path d="M144 249.7 L129.5 218.8 L123.2 209.5" fill="none" stroke="#1f3733" stroke-width="2.7" opacity="0.9" stroke-linecap="round" stroke-linejoin="round"/>
<path d="M34.4 263.7 L12.2 225.8" fill="none" stroke="#1f3733" stroke-width="2.7" opacity="0.9" stroke-linecap="round" stroke-linejoin="round"/>
<path d="M11.6 226.3 L34 263.9" fill="none" stroke="#1f3733" stroke-width="2.7" opacity="0.9" stroke-linecap="round" stroke-linejoin="round"/>
<path d="M24.3 46.4 L72.8 28.7" fill="none" stroke="#1f3733" stroke-width="2.7" opacity="0.9" stroke-linecap="round" stroke-linejoin="round"/>
<path d="M114 175.1 L150.8 162.2 L160.1 167" fill="none" stroke="#1f3733" stroke-width="2.7" opacity="0.9" stroke-linecap="round" stroke-linejoin="round"/>
<path d="M74.2 31.2 L87.9 49.4 L96.1 56.5 L105.6 61.5" fill="none" stroke="#1f3733" stroke-width="2.7" opacity="0.9" stroke-linecap="round" stroke-linejoin="round"/>
<path d="M164.4 3 L116 15.7" fill="none" stroke="#1f3733" stroke-width="2.7" opacity="0.9" stroke-linecap="round" stroke-linejoin="round"/>
<path d="M117 16.2 L164.6 3.7" fill="none" stroke="#1f3733" stroke-width="2.7" opacity="0.9" stroke-linecap="round" stroke-linejoin="round"/>
<path d="M420 202.2 L420 206.3 L392.4 217.1" fill="none" stroke="#1f3733" stroke-width="2.7" opacity="0.9" stroke-linecap="round" stroke-linejoin="round"/>
<path d="M1.4 191.3 L3.4 197.9 L3.1 210.3 L11.6 226.3" fill="none" stroke="#1f3733" stroke-width="2.7" opacity="0.9" stroke-linecap="round" stroke-linejoin="round"/>
<path d="M12.2 225.8 L3.6 210.3 L4 197.4 L1.9 191.2" fill="none" stroke="#1f3733" stroke-width="2.7" opacity="0.9" stroke-linecap="round" stroke-linejoin="round"/>
<path d="M6.4 208.8 L39.6 201 L51.7 202.8" fill="none" stroke="#1f3733" stroke-width="2.7" opacity="0.9" stroke-linecap="round" stroke-linejoin="round"/>
<path d="M121.5 206.5 L103.6 174.6" fill="none" stroke="#1f3733" stroke-width="2.7" opacity="0.9" stroke-linecap="round" stroke-linejoin="round"/>
<path d="M99.4 230 L111.5 239.4 L121.4 259.4" fill="none" stroke="#1f3733" stroke-width="2.7" opacity="0.9" stroke-linecap="round" stroke-linejoin="round"/>
</g>
<g data-layer="minor-road-casing">
<path d="M337.5 250.1 L363.1 291.5 L355.2 293.2 L293.9 295.8 L285.2 298.3 L269 307.4" fill="none" stroke="#fbf7eb" stroke-width="3.4" opacity="0.62" stroke-linecap="round" stroke-linejoin="round"/>
<path d="M276.1 320 L267.1 320 L269.2 310.7 L291.9 297.7 L356.2 294.7 L363.9 292.8 L366 294.6" fill="none" stroke="#fbf7eb" stroke-width="3.4" opacity="0.62" stroke-linecap="round" stroke-linejoin="round"/>
<path d="M306.4 180.3 L319.3 172.6 L333.9 166.9 L400.9 148.5" fill="none" stroke="#fbf7eb" stroke-width="3.4" opacity="0.62" stroke-linecap="round" stroke-linejoin="round"/>
<path d="M153.7 174.3 L162.3 184.7 L162.3 242.9" fill="none" stroke="#fbf7eb" stroke-width="3.4" opacity="0.62" stroke-linecap="round" stroke-linejoin="round"/>
<path d="M162.9 242.6 L163 184.1 L154.4 174.4" fill="none" stroke="#fbf7eb" stroke-width="3.4" opacity="0.62" stroke-linecap="round" stroke-linejoin="round"/>
<path d="M412 72.7 L334.7 112.2" fill="none" stroke="#fbf7eb" stroke-width="3.4" opacity="0.62" stroke-linecap="round" stroke-linejoin="round"/>
<path d="M335.2 112.7 L412.5 73.2" fill="none" stroke="#fbf7eb" stroke-width="3.4" opacity="0.62" stroke-linecap="round" stroke-linejoin="round"/>
<path d="M2.6 20 L42.6 82.5" fill="none" stroke="#fbf7eb" stroke-width="3.4" opacity="0.62" stroke-linecap="round" stroke-linejoin="round"/>
<path d="M420 161.9 L379.5 185.4" fill="none" stroke="#fbf7eb" stroke-width="3.4" opacity="0.62" stroke-linecap="round" stroke-linejoin="round"/>
<path d="M379.8 186 L420 162.4" fill="none" stroke="#fbf7eb" stroke-width="3.4" opacity="0.62" stroke-linecap="round" stroke-linejoin="round"/>
<path d="M395.4 148.5 L327.1 167.2 L312.3 175" fill="none" stroke="#fbf7eb" stroke-width="3.4" opacity="0.62" stroke-linecap="round" stroke-linejoin="round"/>
<path d="M409.4 146.2 L411.3 149.1 L420 205.4" fill="none" stroke="#fbf7eb" stroke-width="3.4" opacity="0.62" stroke-linecap="round" stroke-linejoin="round"/>
<path d="M189.2 87.6 L184.1 94.8 L124.1 123.1" fill="none" stroke="#fbf7eb" stroke-width="3.4" opacity="0.62" stroke-linecap="round" stroke-linejoin="round"/>
<path d="M156.1 245.7 L150.3 232.8 L145.7 209.4 L147.1 191.5 L144.7 184.9" fill="none" stroke="#fbf7eb" stroke-width="3.4" opacity="0.62" stroke-linecap="round" stroke-linejoin="round"/>
<path d="M96.6 244.9 L93.7 247.6 L97.6 295.1 L101.1 301.1 L99.9 302.5" fill="none" stroke="#fbf7eb" stroke-width="3.4" opacity="0.62" stroke-linecap="round" stroke-linejoin="round"/>
<path d="M410.2 320 L401.7 315.8 L384.3 300.8 L378.3 287.7" fill="none" stroke="#fbf7eb" stroke-width="3.4" opacity="0.62" stroke-linecap="round" stroke-linejoin="round"/>
<path d="M377.2 288.1 L384.1 301.6 L391.7 306.3 L400.8 315.6 L409.6 320" fill="none" stroke="#fbf7eb" stroke-width="3.4" opacity="0.62" stroke-linecap="round" stroke-linejoin="round"/>
<path d="M216.5 242.2 L222.4 255.4 L235.6 271.5 L230.4 292.7" fill="none" stroke="#fbf7eb" stroke-width="3.4" opacity="0.62" stroke-linecap="round" stroke-linejoin="round"/>
<path d="M231.2 292.4 L236.3 271.1 L223.1 255.3 L217.8 242.9" fill="none" stroke="#fbf7eb" stroke-width="3.4" opacity="0.62" stroke-linecap="round" stroke-linejoin="round"/>
<path d="M393.2 320 L382.5 317.9 L376.4 309.5 L382 320" fill="none" stroke="#fbf7eb" stroke-width="3.4" opacity="0.62" stroke-linecap="round" stroke-linejoin="round"/>
<path d="M108.4 265.2 L47.5 286" fill="none" stroke="#fbf7eb" stroke-width="3.4" opacity="0.62" stroke-linecap="round" stroke-linejoin="round"/>
<path d="M190.9 256.8 L172.2 256.5 L142.5 268.1 L131.4 275.6" fill="none" stroke="#fbf7eb" stroke-width="3.4" opacity="0.62" stroke-linecap="round" stroke-linejoin="round"/>
<path d="M47.9 286.7 L83 275.5 L99.5 268.3 L108.8 267.3" fill="none" stroke="#fbf7eb" stroke-width="3.4" opacity="0.62" stroke-linecap="round" stroke-linejoin="round"/>
<path d="M420 267.9 L418.9 254.7 L397.7 225.3" fill="none" stroke="#fbf7eb" stroke-width="3.4" opacity="0.62" stroke-linecap="round" stroke-linejoin="round"/>
<path d="M131.9 275.9 L141 269.5 L172 257.1 L190.9 257.2" fill="none" stroke="#fbf7eb" stroke-width="3.4" opacity="0.62" stroke-linecap="round" stroke-linejoin="round"/>
<path d="M102.5 60.1 L42.6 80.4" fill="none" stroke="#fbf7eb" stroke-width="3.4" opacity="0.62" stroke-linecap="round" stroke-linejoin="round"/>
<path d="M193.1 211.9 L149.8 212.3 L130.1 219.9" fill="none" stroke="#fbf7eb" stroke-width="3.4" opacity="0.62" stroke-linecap="round" stroke-linejoin="round"/>
<path d="M130.7 221.2 L150.1 212.7 L193.1 212.5" fill="none" stroke="#fbf7eb" stroke-width="3.4" opacity="0.62" stroke-linecap="round" stroke-linejoin="round"/>
<path d="M0 226.5 L0 235.5 L15.7 233" fill="none" stroke="#fbf7eb" stroke-width="3.4" opacity="0.62" stroke-linecap="round" stroke-linejoin="round"/>
<path d="M98.2 292.5 L94.5 248.5 L97.2 245.3" fill="none" stroke="#fbf7eb" stroke-width="3.4" opacity="0.62" stroke-linecap="round" stroke-linejoin="round"/>
<path d="M175.2 150.6 L113.8 139.7" fill="none" stroke="#fbf7eb" stroke-width="3.4" opacity="0.62" stroke-linecap="round" stroke-linejoin="round"/>
<path d="M326.6 108.5 L317.8 147.7 L319.1 154.5" fill="none" stroke="#fbf7eb" stroke-width="3.4" opacity="0.62" stroke-linecap="round" stroke-linejoin="round"/>
<path d="M319 154.1 L318.7 147.7 L327.8 109.8" fill="none" stroke="#fbf7eb" stroke-width="3.4" opacity="0.62" stroke-linecap="round" stroke-linejoin="round"/>
<path d="M47.5 287.6 L0 293.6" fill="none" stroke="#fbf7eb" stroke-width="3.4" opacity="0.62" stroke-linecap="round" stroke-linejoin="round"/>
<path d="M31.8 211.9 L56.5 253.4" fill="none" stroke="#fbf7eb" stroke-width="3.4" opacity="0.62" stroke-linecap="round" stroke-linejoin="round"/>
<path d="M57.1 253.1 L32.3 211.8" fill="none" stroke="#fbf7eb" stroke-width="3.4" opacity="0.62" stroke-linecap="round" stroke-linejoin="round"/>
<path d="M115.1 140.4 L171.6 151.1 L171.8 152.4" fill="none" stroke="#fbf7eb" stroke-width="3.4" opacity="0.62" stroke-linecap="round" stroke-linejoin="round"/>
<path d="M14.4 230.8 L0 235.2 L0 231.1" fill="none" stroke="#fbf7eb" stroke-width="3.4" opacity="0.62" stroke-linecap="round" stroke-linejoin="round"/>
<path d="M380.9 22.1 L417.8 3.2 L420 0" fill="none" stroke="#fbf7eb" stroke-width="3.4" opacity="0.62" stroke-linecap="round" stroke-linejoin="round"/>
<path d="M420 0 L380.6 21.6" fill="none" stroke="#fbf7eb" stroke-width="3.4" opacity="0.62" stroke-linecap="round" stroke-linejoin="round"/>
<path d="M0 104.9 L47.8 86.7" fill="none" stroke="#fbf7eb" stroke-width="3.4" opacity="0.62" stroke-linecap="round" stroke-linejoin="round"/>
<path d="M340.8 14.7 L336.4 9.3 L295.7 23.8" fill="none" stroke="#fbf7eb" stroke-width="3.4" opacity="0.62" stroke-linecap="round" stroke-linejoin="round"/>
<path d="M287.2 307.2 L301.5 313.2 L304.9 320" fill="none" stroke="#fbf7eb" stroke-width="3.4" opacity="0.62" stroke-linecap="round" stroke-linejoin="round"/>
<path d="M295.9 24.2 L336.3 9.8 L340 14.9" fill="none" stroke="#fbf7eb" stroke-width="3.4" opacity="0.62" stroke-linecap="round" stroke-linejoin="round"/>
<path d="M0 293.9 L36.6 289.4" fill="none" stroke="#fbf7eb" stroke-width="3.4" opacity="0.62" stroke-linecap="round" stroke-linejoin="round"/>
<path d="M420 289.2 L390.8 305.7" fill="none" stroke="#fbf7eb" stroke-width="3.4" opacity="0.62" stroke-linecap="round" stroke-linejoin="round"/>
<path d="M123.9 123.3 L167.2 102.6" fill="none" stroke="#fbf7eb" stroke-width="3.4" opacity="0.62" stroke-linecap="round" stroke-linejoin="round"/>
<path d="M58.3 75.9 L105.6 61.5" fill="none" stroke="#fbf7eb" stroke-width="3.4" opacity="0.62" stroke-linecap="round" stroke-linejoin="round"/>
<path d="M391.3 306.1 L420 290.5" fill="none" stroke="#fbf7eb" stroke-width="3.4" opacity="0.62" stroke-linecap="round" stroke-linejoin="round"/>
<path d="M42.6 80.4 L20.4 47" fill="none" stroke="#fbf7eb" stroke-width="3.4" opacity="0.62" stroke-linecap="round" stroke-linejoin="round"/>
<path d="M144.2 185.4 L146.5 191.7 L144.7 207.5 L147.3 222.6" fill="none" stroke="#fbf7eb" stroke-width="3.4" opacity="0.62" stroke-linecap="round" stroke-linejoin="round"/>
<path d="M162.1 132.2 L181.6 98.1" fill="none" stroke="#fbf7eb" stroke-width="3.4" opacity="0.62" stroke-linecap="round" stroke-linejoin="round"/>
<path d="M12 9.4 L0 18.3 L0 26.1" fill="none" stroke="#fbf7eb" stroke-width="3.4" opacity="0.62" stroke-linecap="round" stroke-linejoin="round"/>
<path d="M420 225.4 L407.7 240.9" fill="none" stroke="#fbf7eb" stroke-width="3.4" opacity="0.62" stroke-linecap="round" stroke-linejoin="round"/>
<path d="M408.6 242.1 L420 226.8" fill="none" stroke="#fbf7eb" stroke-width="3.4" opacity="0.62" stroke-linecap="round" stroke-linejoin="round"/>
<path d="M396.2 117.9 L352.2 130.2" fill="none" stroke="#fbf7eb" stroke-width="3.4" opacity="0.62" stroke-linecap="round" stroke-linejoin="round"/>
<path d="M352.5 130.7 L396.5 118.5" fill="none" stroke="#fbf7eb" stroke-width="3.4" opacity="0.62" stroke-linecap="round" stroke-linejoin="round"/>
<path d="M17.9 12.8 L1.2 0" fill="none" stroke="#fbf7eb" stroke-width="3.4" opacity="0.62" stroke-linecap="round" stroke-linejoin="round"/>
</g>
<g data-layer="minor-road">
<path d="M337.5 250.1 L363.1 291.5 L355.2 293.2 L293.9 295.8 L285.2 298.3 L269 307.4" fill="none" stroke="#69776e" stroke-width="1.25" opacity="0.58" stroke-linecap="round" stroke-linejoin="round"/>
<path d="M276.1 320 L267.1 320 L269.2 310.7 L291.9 297.7 L356.2 294.7 L363.9 292.8 L366 294.6" fill="none" stroke="#69776e" stroke-width="1.25" opacity="0.58" stroke-linecap="round" stroke-linejoin="round"/>
<path d="M306.4 180.3 L319.3 172.6 L333.9 166.9 L400.9 148.5" fill="none" stroke="#69776e" stroke-width="1.25" opacity="0.58" stroke-linecap="round" stroke-linejoin="round"/>
<path d="M153.7 174.3 L162.3 184.7 L162.3 242.9" fill="none" stroke="#69776e" stroke-width="1.25" opacity="0.58" stroke-linecap="round" stroke-linejoin="round"/>
<path d="M162.9 242.6 L163 184.1 L154.4 174.4" fill="none" stroke="#69776e" stroke-width="1.25" opacity="0.58" stroke-linecap="round" stroke-linejoin="round"/>
<path d="M412 72.7 L334.7 112.2" fill="none" stroke="#69776e" stroke-width="1.25" opacity="0.58" stroke-linecap="round" stroke-linejoin="round"/>
<path d="M335.2 112.7 L412.5 73.2" fill="none" stroke="#69776e" stroke-width="1.25" opacity="0.58" stroke-linecap="round" stroke-linejoin="round"/>
<path d="M2.6 20 L42.6 82.5" fill="none" stroke="#69776e" stroke-width="1.25" opacity="0.58" stroke-linecap="round" stroke-linejoin="round"/>
<path d="M420 161.9 L379.5 185.4" fill="none" stroke="#69776e" stroke-width="1.25" opacity="0.58" stroke-linecap="round" stroke-linejoin="round"/>
<path d="M379.8 186 L420 162.4" fill="none" stroke="#69776e" stroke-width="1.25" opacity="0.58" stroke-linecap="round" stroke-linejoin="round"/>
<path d="M395.4 148.5 L327.1 167.2 L312.3 175" fill="none" stroke="#69776e" stroke-width="1.25" opacity="0.58" stroke-linecap="round" stroke-linejoin="round"/>
<path d="M409.4 146.2 L411.3 149.1 L420 205.4" fill="none" stroke="#69776e" stroke-width="1.25" opacity="0.58" stroke-linecap="round" stroke-linejoin="round"/>
<path d="M189.2 87.6 L184.1 94.8 L124.1 123.1" fill="none" stroke="#69776e" stroke-width="1.25" opacity="0.58" stroke-linecap="round" stroke-linejoin="round"/>
<path d="M156.1 245.7 L150.3 232.8 L145.7 209.4 L147.1 191.5 L144.7 184.9" fill="none" stroke="#69776e" stroke-width="1.25" opacity="0.58" stroke-linecap="round" stroke-linejoin="round"/>
<path d="M96.6 244.9 L93.7 247.6 L97.6 295.1 L101.1 301.1 L99.9 302.5" fill="none" stroke="#69776e" stroke-width="1.25" opacity="0.58" stroke-linecap="round" stroke-linejoin="round"/>
<path d="M410.2 320 L401.7 315.8 L384.3 300.8 L378.3 287.7" fill="none" stroke="#69776e" stroke-width="1.25" opacity="0.58" stroke-linecap="round" stroke-linejoin="round"/>
<path d="M377.2 288.1 L384.1 301.6 L391.7 306.3 L400.8 315.6 L409.6 320" fill="none" stroke="#69776e" stroke-width="1.25" opacity="0.58" stroke-linecap="round" stroke-linejoin="round"/>
<path d="M216.5 242.2 L222.4 255.4 L235.6 271.5 L230.4 292.7" fill="none" stroke="#69776e" stroke-width="1.25" opacity="0.58" stroke-linecap="round" stroke-linejoin="round"/>
<path d="M231.2 292.4 L236.3 271.1 L223.1 255.3 L217.8 242.9" fill="none" stroke="#69776e" stroke-width="1.25" opacity="0.58" stroke-linecap="round" stroke-linejoin="round"/>
<path d="M393.2 320 L382.5 317.9 L376.4 309.5 L382 320" fill="none" stroke="#69776e" stroke-width="1.25" opacity="0.58" stroke-linecap="round" stroke-linejoin="round"/>
<path d="M108.4 265.2 L47.5 286" fill="none" stroke="#69776e" stroke-width="1.25" opacity="0.58" stroke-linecap="round" stroke-linejoin="round"/>
<path d="M190.9 256.8 L172.2 256.5 L142.5 268.1 L131.4 275.6" fill="none" stroke="#69776e" stroke-width="1.25" opacity="0.58" stroke-linecap="round" stroke-linejoin="round"/>
<path d="M47.9 286.7 L83 275.5 L99.5 268.3 L108.8 267.3" fill="none" stroke="#69776e" stroke-width="1.25" opacity="0.58" stroke-linecap="round" stroke-linejoin="round"/>
<path d="M420 267.9 L418.9 254.7 L397.7 225.3" fill="none" stroke="#69776e" stroke-width="1.25" opacity="0.58" stroke-linecap="round" stroke-linejoin="round"/>
<path d="M131.9 275.9 L141 269.5 L172 257.1 L190.9 257.2" fill="none" stroke="#69776e" stroke-width="1.25" opacity="0.58" stroke-linecap="round" stroke-linejoin="round"/>
<path d="M102.5 60.1 L42.6 80.4" fill="none" stroke="#69776e" stroke-width="1.25" opacity="0.58" stroke-linecap="round" stroke-linejoin="round"/>
<path d="M193.1 211.9 L149.8 212.3 L130.1 219.9" fill="none" stroke="#69776e" stroke-width="1.25" opacity="0.58" stroke-linecap="round" stroke-linejoin="round"/>
<path d="M130.7 221.2 L150.1 212.7 L193.1 212.5" fill="none" stroke="#69776e" stroke-width="1.25" opacity="0.58" stroke-linecap="round" stroke-linejoin="round"/>
<path d="M0 226.5 L0 235.5 L15.7 233" fill="none" stroke="#69776e" stroke-width="1.25" opacity="0.58" stroke-linecap="round" stroke-linejoin="round"/>
<path d="M98.2 292.5 L94.5 248.5 L97.2 245.3" fill="none" stroke="#69776e" stroke-width="1.25" opacity="0.58" stroke-linecap="round" stroke-linejoin="round"/>
<path d="M175.2 150.6 L113.8 139.7" fill="none" stroke="#69776e" stroke-width="1.25" opacity="0.58" stroke-linecap="round" stroke-linejoin="round"/>
<path d="M326.6 108.5 L317.8 147.7 L319.1 154.5" fill="none" stroke="#69776e" stroke-width="1.25" opacity="0.58" stroke-linecap="round" stroke-linejoin="round"/>
<path d="M319 154.1 L318.7 147.7 L327.8 109.8" fill="none" stroke="#69776e" stroke-width="1.25" opacity="0.58" stroke-linecap="round" stroke-linejoin="round"/>
<path d="M47.5 287.6 L0 293.6" fill="none" stroke="#69776e" stroke-width="1.25" opacity="0.58" stroke-linecap="round" stroke-linejoin="round"/>
<path d="M31.8 211.9 L56.5 253.4" fill="none" stroke="#69776e" stroke-width="1.25" opacity="0.58" stroke-linecap="round" stroke-linejoin="round"/>
<path d="M57.1 253.1 L32.3 211.8" fill="none" stroke="#69776e" stroke-width="1.25" opacity="0.58" stroke-linecap="round" stroke-linejoin="round"/>
<path d="M115.1 140.4 L171.6 151.1 L171.8 152.4" fill="none" stroke="#69776e" stroke-width="1.25" opacity="0.58" stroke-linecap="round" stroke-linejoin="round"/>
<path d="M14.4 230.8 L0 235.2 L0 231.1" fill="none" stroke="#69776e" stroke-width="1.25" opacity="0.58" stroke-linecap="round" stroke-linejoin="round"/>
<path d="M380.9 22.1 L417.8 3.2 L420 0" fill="none" stroke="#69776e" stroke-width="1.25" opacity="0.58" stroke-linecap="round" stroke-linejoin="round"/>
<path d="M420 0 L380.6 21.6" fill="none" stroke="#69776e" stroke-width="1.25" opacity="0.58" stroke-linecap="round" stroke-linejoin="round"/>
<path d="M0 104.9 L47.8 86.7" fill="none" stroke="#69776e" stroke-width="1.25" opacity="0.58" stroke-linecap="round" stroke-linejoin="round"/>
<path d="M340.8 14.7 L336.4 9.3 L295.7 23.8" fill="none" stroke="#69776e" stroke-width="1.25" opacity="0.58" stroke-linecap="round" stroke-linejoin="round"/>
<path d="M287.2 307.2 L301.5 313.2 L304.9 320" fill="none" stroke="#69776e" stroke-width="1.25" opacity="0.58" stroke-linecap="round" stroke-linejoin="round"/>
<path d="M295.9 24.2 L336.3 9.8 L340 14.9" fill="none" stroke="#69776e" stroke-width="1.25" opacity="0.58" stroke-linecap="round" stroke-linejoin="round"/>
<path d="M0 293.9 L36.6 289.4" fill="none" stroke="#69776e" stroke-width="1.25" opacity="0.58" stroke-linecap="round" stroke-linejoin="round"/>
<path d="M420 289.2 L390.8 305.7" fill="none" stroke="#69776e" stroke-width="1.25" opacity="0.58" stroke-linecap="round" stroke-linejoin="round"/>
<path d="M123.9 123.3 L167.2 102.6" fill="none" stroke="#69776e" stroke-width="1.25" opacity="0.58" stroke-linecap="round" stroke-linejoin="round"/>
<path d="M58.3 75.9 L105.6 61.5" fill="none" stroke="#69776e" stroke-width="1.25" opacity="0.58" stroke-linecap="round" stroke-linejoin="round"/>
<path d="M391.3 306.1 L420 290.5" fill="none" stroke="#69776e" stroke-width="1.25" opacity="0.58" stroke-linecap="round" stroke-linejoin="round"/>
<path d="M42.6 80.4 L20.4 47" fill="none" stroke="#69776e" stroke-width="1.25" opacity="0.58" stroke-linecap="round" stroke-linejoin="round"/>
<path d="M144.2 185.4 L146.5 191.7 L144.7 207.5 L147.3 222.6" fill="none" stroke="#69776e" stroke-width="1.25" opacity="0.58" stroke-linecap="round" stroke-linejoin="round"/>
<path d="M162.1 132.2 L181.6 98.1" fill="none" stroke="#69776e" stroke-width="1.25" opacity="0.58" stroke-linecap="round" stroke-linejoin="round"/>
<path d="M12 9.4 L0 18.3 L0 26.1" fill="none" stroke="#69776e" stroke-width="1.25" opacity="0.58" stroke-linecap="round" stroke-linejoin="round"/>
<path d="M420 225.4 L407.7 240.9" fill="none" stroke="#69776e" stroke-width="1.25" opacity="0.58" stroke-linecap="round" stroke-linejoin="round"/>
<path d="M408.6 242.1 L420 226.8" fill="none" stroke="#69776e" stroke-width="1.25" opacity="0.58" stroke-linecap="round" stroke-linejoin="round"/>
<path d="M396.2 117.9 L352.2 130.2" fill="none" stroke="#69776e" stroke-width="1.25" opacity="0.58" stroke-linecap="round" stroke-linejoin="round"/>
<path d="M352.5 130.7 L396.5 118.5" fill="none" stroke="#69776e" stroke-width="1.25" opacity="0.58" stroke-linecap="round" stroke-linejoin="round"/>
<path d="M17.9 12.8 L1.2 0" fill="none" stroke="#69776e" stroke-width="1.25" opacity="0.58" stroke-linecap="round" stroke-linejoin="round"/>
</g>
</g>
<rect x="8" y="8" width="404" height="304" rx="16" fill="none" stroke="#233934" stroke-width="1.4" opacity="0.44"/>
</svg>
