<svg xmlns="http://www.w3.org/2000/svg" viewBox="0 0 420 320" role="img" aria-label="Unlabeled north-up street-grid crop" data-orientation="north-up">
<metadata>{"orientation":"north-up","projection":"local-web-mercator"}</metadata>
<defs>
<clipPath id="mapCrop"><rect x="8" y="8" width="404" height="304" rx="16"/></clipPath>
</defs>
<rect width="420" height="320" fill="#ede7d8"/>
<rect x="8" y="8" width="404" height="304" rx="16" fill="#f7f1e3" stroke="#d8cbb2" stroke-width="1.25"/>
<g clip-path="url(#mapCrop)">
<g data-layer="major-road-casing">
<path d="M187.9 123.1 L212 131.3 M212.2 131.1 L187.9 122.8 M223.1 135.1 L237 139.8 M237.2 139.5 L223.2 134.9 M237 139.8 L249.2 143.3 M249.4 143.1 L237.2 139.5 M249.2 143.3 L265.1 148.6 M175 171.4 L173.4 166.4 L176.5 161 M181.1 155.7 L185.9 149.7 M219.2 133.7 L223.1 135.1 M212 131.3 L216.4 132.8 M223.2 134.9 L219.5 133.6 M196.6 136.2 L203 128.9 M211.2 129.9 L218.8 116.7 M216.1 132.4 L212.2 131.1 M219.5 133.6 L216.1 132.4 M177.7 159.8 L181.1 155.7 M189.1 145.8 L191.9 142.1 M216.4 132.8 L219.2 133.7 M219.6 114.6 L211.1 127.5 M256.1 145.2 L249.4 143.1 M192.3 141.6 L195.6 137.6 M265.2 148.4 L256.1 145.2 M232.6 138.5 L239.7 140.8 M173.3 163.9 L172.8 169.4 M174.4 175.2 L176.2 182.5 M116.3 98.9 L187.9 123.1 M187.9 122.8 L116.5 98.6 M265.1 148.6 L273.9 153.9 M230.5 137.2 L225.4 135.4 M203 128.9 L209.4 130.6 M167 162.5 L173.2 164.2 M177.5 179.5 L176 174.9 M178.3 188.9 L181.3 198.6 M239.7 140.8 L244.8 142.5 M176.2 182.5 L178.3 188.9 M182.8 197.1 L180.5 189.6 M159.9 162.4 L149.1 163.5 M149.6 163.6 L159.9 162.6 M252.9 206.1 L233.2 215.6 M231.7 137.6 L230.5 137.2 M160.7 162.5 L164.8 161.9 M122.8 166.2 L143.6 164.2 M226.9 106.1 L231 102.7 L243.9 83.7 M250.3 185.3 L255.1 174.2 M175.5 118.7 L161.4 113.7 M270.7 190.1 L294.4 195.9 M166.7 161.7 L165 161.3 M185.9 149.7 L196.8 156.6 M305 186.5 L280.5 180.4 M261 148.3 L265.3 149.7 M202.8 127.3 L201.4 126.8 M163.4 161.5 L161.4 162.2 M207.4 165.9 L202.7 162 M184 201.1 L182.8 197.1 M200.7 169.7 L207.4 165.9 M176.5 119.1 L181.8 120.9 M258.8 147.5 L261 148.3 M198.5 158.1 L202.2 161.5 M212.8 161.3 L210.8 163.6 M177.5 99.9 L172.8 107.8 L175.5 118.7 M215.4 158.3 L213.5 160.5 M210.4 163.9 L207.4 165.9 M216.6 155.6 L215.5 158 M163.1 186.8 L171.1 184.2 M267.6 177.3 L258.4 175 M150.9 192.3 L163.1 186.8 M273 132.3 L268.2 143.3 M219.1 149 L221 144 M251.1 189.6 L261.9 192.2 M217.9 152.1 L219.1 149 M218.6 156.8 L216.6 155.6 M216.6 155.6 L217.3 153.7 M195.7 173.3 L199.8 170.3 M220.7 161.2 L222.8 163 M248.9 161.7 L240.2 168.2 M240.7 168.5 L249 162 M226.4 159.8 L223.1 158.7 M189.7 177.4 L195.3 173.5 M220.3 157.7 L218.6 156.8 M216 158.6 L217.2 159.1 M231.1 161.6 L227.2 160.1 M228.1 165.7 L233.2 167.2 M217.2 159.1 L218.4 159.7 M217.3 153.7 L217.9 152.1 M224.3 164 L227 165.3 M236.7 163.2 L231.6 161.8 M197.3 157 L198.5 158.1 M233.2 167.2 L237.7 170.7 M176.4 148.4 L183.8 149 M269.2 177.9 L266.9 183.1 M266.9 183.1 L264.6 188.6 M221 144 L221.8 140.9 M175.8 126.8 L159.7 133.6 M223.1 163.2 L223.8 163.7 M240.2 168.2 L236.4 166.1 M236.1 124.6 L232.2 133.4 M166.1 140.1 L172.1 147.4 M236.4 166.1 L236.7 163.2 M170.8 204.8 L178.6 204.7 M180.4 181 L186.7 178.7 M210.6 185.7 L215.8 188.9 M145.9 172.5 L158.6 163.8 M227 165.3 L228.1 165.7 M240.2 168.2 L237.8 170.8 M238.4 171.2 L240.7 168.5 M207.2 183.6 L210.6 185.7 M191.8 192.4 L196.1 187.5 M271.4 116.1 L273.5 124.5 M274 124.5 L271.8 116.2 M144.3 195.8 L150.9 192.3 M231 218.5 L238.2 226.4 M166.7 204.8 L162 209.1 M186.6 88.3 L178.9 98.3 M195.6 251.9 L167.6 236.9 M271.8 116.2 L270.1 109.4 M155.1 215.5 L144.9 224.9 M132 201.6 L140.7 197.7 M266.2 94.6 L268.9 105.3 M299.1 161.7 L309.5 162.4 M275.3 208.2 L282.1 214.7 M211.3 233 L204.1 242.2 M111.2 181.2 L93.2 185.4 M120.7 206.1 L132.1 202.6 M309.5 162.4 L305.8 157.2 M123.3 202.6 L112.9 205.5 M142.6 101.2 L138.4 93.8 M197.2 75.5 L205.6 64.7 M203.7 242.6 L196.5 251.9 M158 232.6 L149 241 M231 250.9 L233.7 240.7 M233.7 240.7 L235.4 234.5 M191.8 124.4 L198.5 127.1 M199.1 126.2 L191.9 124.2 M191.2 82.8 L195.2 78 M194.8 77.9 L191.2 82.8 M219.2 133.7 L221.5 134.8 M221.5 133.9 L219.5 133.6 M253.7 144.1 L249.6 142.9 M214.5 132.4 L216.4 132.8 M216.1 132.4 L214.5 131.5 M256.1 145.2 L253.7 144.1 M189.3 123.9 L191.8 124.4 M191.9 124.2 L189.7 123.2 M265.3 198.4 L266.2 198.6 M297.9 47.5 L295.8 39.5 M31.2 309.4 L16.4 301.8 M75.9 261.3 L76.4 259.1 M416.4 213.8 L406.8 211.3 M19.7 16.5 L29.2 8.4 M67.8 260.2 L69.2 262 M16.2 302.5 L27.4 308.5 M19.7 15.7 L11.3 23.2 M28.6 8 L20 15.3 M14.3 21.4 L19.7 16.5 M27.4 308.5 L34.2 311.3 M13.7 299.7 L9 295.3 M36.2 311.4 L31.2 309.4 M10.2 25.1 L14.3 21.4 M65.6 254.6 L64 256.4 M395.9 228.7 L394 233.5 M11.3 23.2 L8.5 25.8 M31.9 212.1 L33.2 212.9 M16.4 301.8 L13.7 299.7 M13.5 300.5 L16.2 302.5 M9 26.2 L10.2 25.1 M55.8 305.6 L53.9 310.7 M10.5 297.9 L12 299.3 M55.1 306.7 L51.8 311.9 M12 299.3 L13.5 300.5 M9.5 296.9 L10.5 297.9 M20 15.3 L19.7 15.7 M31.2 309.4 L23.8 305.3 M18.9 305.4 L27.4 308.5 M54.8 310.8 L55.8 308.8 M23.8 305.3 L18.2 301.1 M55.2 310.7 L55.8 308.8 M55.8 305.6 L55.1 306.7 M12.6 21.1 L8 25 M15.6 18.8 L12.6 21.1 M274.2 153.9 L272.4 151.3 L265.2 148.4 M215.7 224.9 L202.6 228.1 L193.6 227.1 L189.5 222.9 M189.1 223 L192.5 227.1 L202 228.5 L208 228.3 L215.8 225.1 M270.4 189.3 L264.8 199 M265.1 199.1 L270.7 189.3 M240 212.9 L228 218.8 M275.3 158.8 L274.2 153.9 M228.2 219 L240.3 213.1 M273.9 153.9 L274.9 158.6 M275.4 160.5 L276.6 165.1 M276.9 166.4 L277.7 171.8 M229.8 216.6 L240.4 228.7 M278.3 171.8 L277.2 166.4 M274.6 179.7 L272.3 184.8 M276.9 165 L275.9 161.1 M277.1 173.7 L275.2 178.4 M275.5 178.5 L277.7 173.8 M272.9 184.4 L274.9 179.8 M270.7 189.3 L272.9 184.4 M272.3 184.8 L270.4 189.3 M246.7 209.6 L240 212.9 M264.8 199 L259.3 202.8 M240.3 213.1 L246.9 209.8 M240.7 228.6 L232 218.7 M275.9 161.1 L275.3 158.8 M252.5 206.7 L246.7 209.6 M274.9 158.6 L275.4 160.5 M246.9 209.8 L252.6 207 M247.8 76.9 L228.9 104.4 M259.3 202.8 L254.9 205.4 M255.1 205.6 L259.6 203 M225.2 106.8 L221.4 111.8 M189.5 222.9 L187.7 216.8 M277.7 173.8 L278.3 171.8 M277.7 171.8 L277.1 173.7 M276.6 165.1 L276.9 166.4 M259.6 203 L263.1 200.7 M277.2 166.4 L276.9 165 M275.5 179.2 L277.7 173.8 M222.7 221.5 L215.7 224.9 M215.8 225.1 L222.9 221.7 M228 218.8 L222.7 221.5 M222.9 221.7 L228.2 219 M187.5 217.9 L189.1 223 M275.2 178.4 L274.6 179.7 M274.9 179.8 L275.5 178.5 M186 122.3 L187 122.7 M184.4 208.6 L186.2 213.6 M254.9 205.4 L252.5 206.7 M252.6 207 L255.1 205.6 M244.2 211.5 L251.3 208 M275.6 162.5 L276.3 165.5 M263.1 200.7 L265.1 199.1 M145.3 164 L147.6 163.7 M186 211 L185.1 207.8 M181.2 211.1 L178.1 214 M160 113.3 L152.7 110.9 M135.4 110.8 L111.6 101.7 M170.2 221.9 L176 216.6 M245.9 234.5 L240.7 228.6 M240.4 228.7 L245.6 234.7 M213 225.4 L205.8 227.8 M162.3 229.2 L170.2 221.9 M310 199.6 L320.3 198.7 L323.7 193.2 M245.6 234.7 L253.2 243.5 M137.3 111.6 L146.3 109.4 M234.4 132.6 L237.7 125.1 M146.8 108.6 L142.6 101.2 M250 173.3 L244.3 175.9 M186.7 178.7 L189.7 177.4 M178.1 214 L176.5 215.5 M321 190.5 L309.6 187.6 M197.6 226.8 L198.6 223.6 L214.2 207.1 M259.5 163.4 L256.5 170.1 M202.8 181.6 L205.3 182.3 M214.9 206.2 L219.3 197.1 M256.9 170.2 L259.8 163.5 M236 182.3 L232.4 185.3 M205.3 182.3 L207.2 183.6 M107.3 119.2 L123.6 115.1 M101.5 168.3 L113.5 167.1 M264.1 152.7 L260.9 160.2 M228 187.4 L223.4 189.9 M243.5 177 L245.6 181.2 M261.2 160.3 L264.5 152.8 M172.1 147.4 L176.4 148.4 M223.9 190.5 L228.5 188 M216.9 196.9 L211 203.4 M200 124.7 L205 118.6 M123.6 164.5 L133.2 143.7 M223.2 137.6 L224.4 135.6 M198.8 184.4 L196.9 186.5 M239.4 172 L241.4 173.7 M221.8 140.9 L222.2 139.8 M253.5 243.4 L247.5 236.3 M201.3 181.6 L200.1 182.9 M252.9 156.9 L250.6 160.2 M246.8 178.3 L247.9 174.3 M232.4 137.5 L233.6 134.6 M231.7 134.1 L230.6 136.8 M222.4 138.9 L223.2 137.6 M255.5 152.7 L253.1 156.5 M127.5 114.1 L135.7 112 M251 160.5 L253 157.5 M233.4 202 L224.3 209.6 M223.4 189.9 L219.6 191.4 M184.3 149.1 L185.2 149.5 M162.7 159.6 L157.8 155.9 M215.8 225.9 L218.1 224.6 M222.2 139.8 L222.4 138.9 M157.8 155.9 L151.3 150.8 M122 166.6 L118.4 166.9 M239 179.8 L236.9 181.5 M189.2 225.7 L190.5 228.6 M201.8 181 L201.3 181.6 M239.4 172 L238.4 171.2 M238.4 171.2 L239.4 172 M151.3 150.8 L140.4 144.5 M230.1 187 L232.4 185.3 M254 156 L255.8 152.9 M161.4 135.1 L166.1 140.1 M220.6 191.9 L223.9 190.5 M245.6 181.2 L246.8 178.3 M241.4 173.7 L242.5 175 M257.3 147.4 L255.7 151.2 M199.6 183.5 L198.8 184.4 M209.1 112.1 L216.2 101.7 M262.8 254 L253.5 243.4 M253.2 243.5 L262.5 254.2 M205 118.6 L209.1 112.1 M255.8 152.9 L257.8 149.4 M200.1 182.9 L199.6 183.5 M137.2 135.2 L153.2 134.2 M119.5 167.1 L122 166.6 M215.8 188.9 L217.5 190 M242.5 175 L243.1 176.5 M217.6 193.2 L220.6 191.9 M219.6 191.4 L216.8 192.2 M232.4 197.8 L227.7 195 M243.6 176.3 L242.5 175 M148.7 110.1 L150.8 110.7 M242.4 189.9 L242.2 186.6 M240.3 178.8 L239 179.8 M256.4 140.5 L258.2 144.6 M178.2 181.8 L180.4 181 M189.3 195.2 L191.8 192.4 M196.9 186.5 L196.1 187.5 M244.9 183.9 L245.6 181.2 M229.6 186.5 L228 187.4 M249.9 160.7 L248.9 161.7 M228.5 188 L230.1 187 M237.7 125.1 L243.4 126.6 M99.8 97.1 L105.2 99.1 L116.3 98.9 M225.8 116.1 L233.4 118.3 M231.7 134.1 L233.6 134.6 M276.5 142.3 L276.4 151.5 M233.7 134.3 L234.4 132.6 M241.9 177.5 L243.5 177 M220.2 195.1 L224 195.4 M224.6 209.8 L231.3 204 M243.5 126.3 L237.8 124.8 M231.1 185.7 L229.6 186.5 M257.8 148 L256.6 150.8 M123.4 114.6 L114.9 116.7 M249 162 L250.1 161.2 M255.1 173.9 L256.2 171.3 M236.9 181.5 L236 182.3 M116.7 166.7 L113.5 167.1 M233.7 117.5 L226 115.7 M324 192.8 L334.2 187.3 M210.8 203.7 L206.2 208.7 M217.5 190 L218.8 190.9 M216.2 101.7 L226.9 85.8 M232.4 185.3 L231.1 185.7 M248.9 142.1 L250 140.1 M241.9 177.5 L241.1 178.1 M243.6 193.5 L239.8 196.7 M241.1 178.1 L240.3 178.8 M136.6 178.8 L145.9 172.5 M188 196.8 L182.8 197.1 M330.9 192.9 L321 190.5 M247.5 236.3 L245.9 234.5 M252.1 173.4 L250 173.3 M252 136.3 L250.7 138.9 M250.7 138.9 L252.2 136.5 M192.5 113.9 L189 118.5 M78.3 170.6 L94.8 169 M254.4 174 L252.1 173.4 M228.4 196.4 L230.9 199.1 M242.2 186.6 L243.7 185.1 M243.1 176.5 L242.5 177 M184.6 123.3 L180.5 124.9 M116.5 98.6 L106.4 90.8 M224 195.4 L227 195.3 M219.6 196.3 L216.9 196.9 M238 120.2 L236.3 124 M230.6 136.8 L230.5 137.2 M185.4 199.7 L188 196.8 M334.2 187.3 L360.8 173.4 L388.3 165.1 M188.6 119 L186 122.3 M255 137.8 L256.4 140.5 M200 126.4 L199.4 127.6 M250.6 161.1 L251 160.5 M232.2 133.4 L231.7 134.1 M258.4 145.8 L257.8 148 M243.7 185.1 L244.9 183.9 M141.6 186.6 L150.9 192.3 M219.6 191.4 L220.6 191.9 M179.4 125.4 L175.8 126.8 M218.8 190.9 L219.6 191.4 M163.9 160.6 L162.7 159.6 M255.7 151.2 L255.6 152.5 M298.6 196.9 L302.7 197.8 M253.4 157 L253.1 156.5 M200 124.7 L199.3 125.9 M247.8 143.2 L246.8 143.2 M196.8 107.6 L193.1 113.1 M248.5 143 L248.9 142.1 M147.8 128.2 L137.8 134 M265.2 150 L264.1 152.7 M255.8 152.9 L256.3 151.7 M260.2 161.8 L259.5 163.4 M260.9 160.2 L260.2 161.8 M253.6 156.7 L254 156 M260.5 161.9 L261.2 160.3 M250 140.1 L250.7 138.9 M243.4 126.6 L246.6 127.8 M129.9 99.2 L119.8 95.7 M252 128.8 L248 128 M236 112.5 L233.9 117.2 M215.6 113.7 L210.3 112.5 M152 230.4 L157.6 232.6 M188 196.8 L189.3 195.2 M246.6 127.5 L243.5 126.3 M219.6 196.3 L220.2 195.1 M269.6 143.5 L274.3 139.6 M247.9 128.3 L251.5 129.1 M257.8 149.4 L258.5 148.1 M128.5 184.5 L117.1 195 L108.3 207.7 M237.3 198.6 L234.6 201 M238.5 118.7 L233.7 117.5 M226 115.7 L221.5 114.2 M221.4 115.4 L225.8 116.1 M256.1 151.7 L255.6 152.5 M157.5 196.5 L163.9 200.5 M157.8 232.3 L153 230.4 M248.1 189.2 L246.6 190.8 M246.6 190.8 L248.5 189.4 M260 163.1 L260.5 161.9 M150.9 192.3 L157.5 196.5 M330.6 98.6 L330.8 105.9 L334.8 111.4 L353.1 119 M353.3 118.7 L336.2 112 L331.9 107.1 L330.7 101.5 M227.4 195.4 L228.4 196.4 M254.2 136.6 L252.7 135.5 M238 124.4 L238.9 122.3 M235.1 200.9 L237.6 198.8 M199.7 215.1 L192.6 222.2 M233.4 118.3 L237.2 119.2 M256.5 170.1 L256.2 171 M139.2 101.2 L135.1 100.3 M158.6 163.8 L159.8 163 M264.8 152.3 L265.6 150.3 M239.4 196.8 L237.3 198.6 M237.6 198.8 L239.7 197 M256.5 171 L256.9 170.2 M107 110.8 L111.8 102.9 M246.6 190.8 L244.7 191.8 M234.8 198.2 L232.4 197.8 M223.6 212.1 L229.7 217 M219.3 197.1 L219.6 196.3 M135.1 100.3 L129.9 99.2 M305.3 198.4 L310 199.6 M258.2 144.6 L258.4 145.8 M243.9 191.1 L242.7 190.3 M110.9 102.7 L106.2 110.6 M237.3 198.6 L234.8 198.2 M254.2 136.6 L255 137.8 M244.7 191.8 L243.9 193.2 M215.6 113.7 L219.1 114.5 M237.8 124.8 L236.1 124.6 M240.6 118.4 L242.2 114.8 M202.4 109.5 L197 107.3 M99.6 116.1 L91.6 123.4 M46.2 173.8 L78.3 170.6 M161.4 113.7 L168.4 108.8 M236.1 124.6 L237.3 125 M185.5 123.4 L186 122.3 M206.2 208.7 L203.4 211.4 M203.4 211.4 L199.7 215.1 M186 122.3 L184.9 123.1 M236 112.5 L240.8 113.6 M231.3 204 L233.3 202.4 M240.8 113.6 L239.5 116.8 M134.6 75.7 L128.2 77.2 L122.2 83.6 M262.5 254.2 L271.6 264.7 M140.3 230.4 L145.6 229.6 M163.9 200.5 L168.2 203.2 M184 201.1 L185.4 199.7 M244.7 191.8 L243.9 191.1 M196.8 107.6 L201.4 109.3 M330.8 192.9 L339.4 195.2 M231.3 199.4 L232.3 200.5 M234 201.5 L232.3 200.5 M232.3 200.5 L233.4 202 M159.7 133.9 L161.4 135.1 M339.5 194.9 L330.9 192.9 M278.4 133.7 L281.6 127 M243 108.7 L241.1 113.1 M180.5 124.9 L179.4 125.4 M156.5 134 L159.4 133.8 M246.6 127.8 L247.9 128.3 M242.7 113.5 L244.6 109.1 M149.4 126 L153.3 121.3 M140.4 144.5 L133.2 143.7 M290.9 195.1 L295.9 184.2 M205.8 110.8 L202.4 109.5 M248 128 L246.6 127.5 M133.2 143.7 L136 137.7 M276.5 138.4 L276.5 142.3 M230.5 216.5 L226.7 212.7 M224.3 209.6 L221.9 211 M121.9 84.4 L116.7 93 M185.4 199.7 L184.4 200.6 M239.3 121.3 L239.7 120 M105.9 118.9 L100.7 116 M103.1 147.1 L101.8 142 L110.5 131 M347.9 197.3 L375.9 204.2 M376 204 L348.1 197 M109.8 131.2 L101.2 141.9 L102.6 147.3 M238.2 119.6 L239.7 120 M125.3 233.1 L112.6 238.8 M130.5 232.1 L137.2 231 M251.5 129.1 L252.7 129 M233.3 202.4 L234.3 201.6 M134.9 180 L128.5 184.5 M325.3 192.5 L328.9 192.5 M71.3 140.7 L56 148.2 L46.6 160.8 L45.4 169.4 M388.1 165 L357.2 174.9 M239.9 120 L240.4 119 M240.3 119 L238.7 118.6" fill="none" stroke="#fcf7e8" stroke-width="6.4" opacity="0.92" stroke-linecap="round" stroke-linejoin="round"/>
</g>
<g data-layer="major-road">
<path d="M187.9 123.1 L212 131.3 M212.2 131.1 L187.9 122.8 M223.1 135.1 L237 139.8 M237.2 139.5 L223.2 134.9 M237 139.8 L249.2 143.3 M249.4 143.1 L237.2 139.5 M249.2 143.3 L265.1 148.6 M175 171.4 L173.4 166.4 L176.5 161 M181.1 155.7 L185.9 149.7 M219.2 133.7 L223.1 135.1 M212 131.3 L216.4 132.8 M223.2 134.9 L219.5 133.6 M196.6 136.2 L203 128.9 M211.2 129.9 L218.8 116.7 M216.1 132.4 L212.2 131.1 M219.5 133.6 L216.1 132.4 M177.7 159.8 L181.1 155.7 M189.1 145.8 L191.9 142.1 M216.4 132.8 L219.2 133.7 M219.6 114.6 L211.1 127.5 M256.1 145.2 L249.4 143.1 M192.3 141.6 L195.6 137.6 M265.2 148.4 L256.1 145.2 M232.6 138.5 L239.7 140.8 M173.3 163.9 L172.8 169.4 M174.4 175.2 L176.2 182.5 M116.3 98.9 L187.9 123.1 M187.9 122.8 L116.5 98.6 M265.1 148.6 L273.9 153.9 M230.5 137.2 L225.4 135.4 M203 128.9 L209.4 130.6 M167 162.5 L173.2 164.2 M177.5 179.5 L176 174.9 M178.3 188.9 L181.3 198.6 M239.7 140.8 L244.8 142.5 M176.2 182.5 L178.3 188.9 M182.8 197.1 L180.5 189.6 M159.9 162.4 L149.1 163.5 M149.6 163.6 L159.9 162.6 M252.9 206.1 L233.2 215.6 M231.7 137.6 L230.5 137.2 M160.7 162.5 L164.8 161.9 M122.8 166.2 L143.6 164.2 M226.9 106.1 L231 102.7 L243.9 83.7 M250.3 185.3 L255.1 174.2 M175.5 118.7 L161.4 113.7 M270.7 190.1 L294.4 195.9 M166.7 161.7 L165 161.3 M185.9 149.7 L196.8 156.6 M305 186.5 L280.5 180.4 M261 148.3 L265.3 149.7 M202.8 127.3 L201.4 126.8 M163.4 161.5 L161.4 162.2 M207.4 165.9 L202.7 162 M184 201.1 L182.8 197.1 M200.7 169.7 L207.4 165.9 M176.5 119.1 L181.8 120.9 M258.8 147.5 L261 148.3 M198.5 158.1 L202.2 161.5 M212.8 161.3 L210.8 163.6 M177.5 99.9 L172.8 107.8 L175.5 118.7 M215.4 158.3 L213.5 160.5 M210.4 163.9 L207.4 165.9 M216.6 155.6 L215.5 158 M163.1 186.8 L171.1 184.2 M267.6 177.3 L258.4 175 M150.9 192.3 L163.1 186.8 M273 132.3 L268.2 143.3 M219.1 149 L221 144 M251.1 189.6 L261.9 192.2 M217.9 152.1 L219.1 149 M218.6 156.8 L216.6 155.6 M216.6 155.6 L217.3 153.7 M195.7 173.3 L199.8 170.3 M220.7 161.2 L222.8 163 M248.9 161.7 L240.2 168.2 M240.7 168.5 L249 162 M226.4 159.8 L223.1 158.7 M189.7 177.4 L195.3 173.5 M220.3 157.7 L218.6 156.8 M216 158.6 L217.2 159.1 M231.1 161.6 L227.2 160.1 M228.1 165.7 L233.2 167.2 M217.2 159.1 L218.4 159.7 M217.3 153.7 L217.9 152.1 M224.3 164 L227 165.3 M236.7 163.2 L231.6 161.8 M197.3 157 L198.5 158.1 M233.2 167.2 L237.7 170.7 M176.4 148.4 L183.8 149 M269.2 177.9 L266.9 183.1 M266.9 183.1 L264.6 188.6 M221 144 L221.8 140.9 M175.8 126.8 L159.7 133.6 M223.1 163.2 L223.8 163.7 M240.2 168.2 L236.4 166.1 M236.1 124.6 L232.2 133.4 M166.1 140.1 L172.1 147.4 M236.4 166.1 L236.7 163.2 M170.8 204.8 L178.6 204.7 M180.4 181 L186.7 178.7 M210.6 185.7 L215.8 188.9 M145.9 172.5 L158.6 163.8 M227 165.3 L228.1 165.7 M240.2 168.2 L237.8 170.8 M238.4 171.2 L240.7 168.5 M207.2 183.6 L210.6 185.7 M191.8 192.4 L196.1 187.5 M271.4 116.1 L273.5 124.5 M274 124.5 L271.8 116.2 M144.3 195.8 L150.9 192.3 M231 218.5 L238.2 226.4 M166.7 204.8 L162 209.1 M186.6 88.3 L178.9 98.3 M195.6 251.9 L167.6 236.9 M271.8 116.2 L270.1 109.4 M155.1 215.5 L144.9 224.9 M132 201.6 L140.7 197.7 M266.2 94.6 L268.9 105.3 M299.1 161.7 L309.5 162.4 M275.3 208.2 L282.1 214.7 M211.3 233 L204.1 242.2 M111.2 181.2 L93.2 185.4 M120.7 206.1 L132.1 202.6 M309.5 162.4 L305.8 157.2 M123.3 202.6 L112.9 205.5 M142.6 101.2 L138.4 93.8 M197.2 75.5 L205.6 64.7 M203.7 242.6 L196.5 251.9 M158 232.6 L149 241 M231 250.9 L233.7 240.7 M233.7 240.7 L235.4 234.5 M191.8 124.4 L198.5 127.1 M199.1 126.2 L191.9 124.2 M191.2 82.8 L195.2 78 M194.8 77.9 L191.2 82.8 M219.2 133.7 L221.5 134.8 M221.5 133.9 L219.5 133.6 M253.7 144.1 L249.6 142.9 M214.5 132.4 L216.4 132.8 M216.1 132.4 L214.5 131.5 M256.1 145.2 L253.7 144.1 M189.3 123.9 L191.8 124.4 M191.9 124.2 L189.7 123.2 M265.3 198.4 L266.2 198.6 M297.9 47.5 L295.8 39.5 M31.2 309.4 L16.4 301.8 M75.9 261.3 L76.4 259.1 M416.4 213.8 L406.8 211.3 M19.7 16.5 L29.2 8.4 M67.8 260.2 L69.2 262 M16.2 302.5 L27.4 308.5 M19.7 15.7 L11.3 23.2 M28.6 8 L20 15.3 M14.3 21.4 L19.7 16.5 M27.4 308.5 L34.2 311.3 M13.7 299.7 L9 295.3 M36.2 311.4 L31.2 309.4 M10.2 25.1 L14.3 21.4 M65.6 254.6 L64 256.4 M395.9 228.7 L394 233.5 M11.3 23.2 L8.5 25.8 M31.9 212.1 L33.2 212.9 M16.4 301.8 L13.7 299.7 M13.5 300.5 L16.2 302.5 M9 26.2 L10.2 25.1 M55.8 305.6 L53.9 310.7 M10.5 297.9 L12 299.3 M55.1 306.7 L51.8 311.9 M12 299.3 L13.5 300.5 M9.5 296.9 L10.5 297.9 M20 15.3 L19.7 15.7 M31.2 309.4 L23.8 305.3 M18.9 305.4 L27.4 308.5 M54.8 310.8 L55.8 308.8 M23.8 305.3 L18.2 301.1 M55.2 310.7 L55.8 308.8 M55.8 305.6 L55.1 306.7 M12.6 21.1 L8 25 M15.6 18.8 L12.6 21.1 M274.2 153.9 L272.4 151.3 L265.2 148.4 M215.7 224.9 L202.6 228.1 L193.6 227.1 L189.5 222.9 M189.1 223 L192.5 227.1 L202 228.5 L208 228.3 L215.8 225.1 M270.4 189.3 L264.8 199 M265.1 199.1 L270.7 189.3 M240 212.9 L228 218.8 M275.3 158.8 L274.2 153.9 M228.2 219 L240.3 213.1 M273.9 153.9 L274.9 158.6 M275.4 160.5 L276.6 165.1 M276.9 166.4 L277.7 171.8 M229.8 216.6 L240.4 228.7 M278.3 171.8 L277.2 166.4 M274.6 179.7 L272.3 184.8 M276.9 165 L275.9 161.1 M277.1 173.7 L275.2 178.4 M275.5 178.5 L277.7 173.8 M272.9 184.4 L274.9 179.8 M270.7 189.3 L272.9 184.4 M272.3 184.8 L270.4 189.3 M246.7 209.6 L240 212.9 M264.8 199 L259.3 202.8 M240.3 213.1 L246.9 209.8 M240.7 228.6 L232 218.7 M275.9 161.1 L275.3 158.8 M252.5 206.7 L246.7 209.6 M274.9 158.6 L275.4 160.5 M246.9 209.8 L252.6 207 M247.8 76.9 L228.9 104.4 M259.3 202.8 L254.9 205.4 M255.1 205.6 L259.6 203 M225.2 106.8 L221.4 111.8 M189.5 222.9 L187.7 216.8 M277.7 173.8 L278.3 171.8 M277.7 171.8 L277.1 173.7 M276.6 165.1 L276.9 166.4 M259.6 203 L263.1 200.7 M277.2 166.4 L276.9 165 M275.5 179.2 L277.7 173.8 M222.7 221.5 L215.7 224.9 M215.8 225.1 L222.9 221.7 M228 218.8 L222.7 221.5 M222.9 221.7 L228.2 219 M187.5 217.9 L189.1 223 M275.2 178.4 L274.6 179.7 M274.9 179.8 L275.5 178.5 M186 122.3 L187 122.7 M184.4 208.6 L186.2 213.6 M254.9 205.4 L252.5 206.7 M252.6 207 L255.1 205.6 M244.2 211.5 L251.3 208 M275.6 162.5 L276.3 165.5 M263.1 200.7 L265.1 199.1 M145.3 164 L147.6 163.7 M186 211 L185.1 207.8 M181.2 211.1 L178.1 214 M160 113.3 L152.7 110.9 M135.4 110.8 L111.6 101.7 M170.2 221.9 L176 216.6 M245.9 234.5 L240.7 228.6 M240.4 228.7 L245.6 234.7 M213 225.4 L205.8 227.8 M162.3 229.2 L170.2 221.9 M310 199.6 L320.3 198.7 L323.7 193.2 M245.6 234.7 L253.2 243.5 M137.3 111.6 L146.3 109.4 M234.4 132.6 L237.7 125.1 M146.8 108.6 L142.6 101.2 M250 173.3 L244.3 175.9 M186.7 178.7 L189.7 177.4 M178.1 214 L176.5 215.5 M321 190.5 L309.6 187.6 M197.6 226.8 L198.6 223.6 L214.2 207.1 M259.5 163.4 L256.5 170.1 M202.8 181.6 L205.3 182.3 M214.9 206.2 L219.3 197.1 M256.9 170.2 L259.8 163.5 M236 182.3 L232.4 185.3 M205.3 182.3 L207.2 183.6 M107.3 119.2 L123.6 115.1 M101.5 168.3 L113.5 167.1 M264.1 152.7 L260.9 160.2 M228 187.4 L223.4 189.9 M243.5 177 L245.6 181.2 M261.2 160.3 L264.5 152.8 M172.1 147.4 L176.4 148.4 M223.9 190.5 L228.5 188 M216.9 196.9 L211 203.4 M200 124.7 L205 118.6 M123.6 164.5 L133.2 143.7 M223.2 137.6 L224.4 135.6 M198.8 184.4 L196.9 186.5 M239.4 172 L241.4 173.7 M221.8 140.9 L222.2 139.8 M253.5 243.4 L247.5 236.3 M201.3 181.6 L200.1 182.9 M252.9 156.9 L250.6 160.2 M246.8 178.3 L247.9 174.3 M232.4 137.5 L233.6 134.6 M231.7 134.1 L230.6 136.8 M222.4 138.9 L223.2 137.6 M255.5 152.7 L253.1 156.5 M127.5 114.1 L135.7 112 M251 160.5 L253 157.5 M233.4 202 L224.3 209.6 M223.4 189.9 L219.6 191.4 M184.3 149.1 L185.2 149.5 M162.7 159.6 L157.8 155.9 M215.8 225.9 L218.1 224.6 M222.2 139.8 L222.4 138.9 M157.8 155.9 L151.3 150.8 M122 166.6 L118.4 166.9 M239 179.8 L236.9 181.5 M189.2 225.7 L190.5 228.6 M201.8 181 L201.3 181.6 M239.4 172 L238.4 171.2 M238.4 171.2 L239.4 172 M151.3 150.8 L140.4 144.5 M230.1 187 L232.4 185.3 M254 156 L255.8 152.9 M161.4 135.1 L166.1 140.1 M220.6 191.9 L223.9 190.5 M245.6 181.2 L246.8 178.3 M241.4 173.7 L242.5 175 M257.3 147.4 L255.7 151.2 M199.6 183.5 L198.8 184.4 M209.1 112.1 L216.2 101.7 M262.8 254 L253.5 243.4 M253.2 243.5 L262.5 254.2 M205 118.6 L209.1 112.1 M255.8 152.9 L257.8 149.4 M200.1 182.9 L199.6 183.5 M137.2 135.2 L153.2 134.2 M119.5 167.1 L122 166.6 M215.8 188.9 L217.5 190 M242.5 175 L243.1 176.5 M217.6 193.2 L220.6 191.9 M219.6 191.4 L216.8 192.2 M232.4 197.8 L227.7 195 M243.6 176.3 L242.5 175 M148.7 110.1 L150.8 110.7 M242.4 189.9 L242.2 186.6 M240.3 178.8 L239 179.8 M256.4 140.5 L258.2 144.6 M178.2 181.8 L180.4 181 M189.3 195.2 L191.8 192.4 M196.9 186.5 L196.1 187.5 M244.9 183.9 L245.6 181.2 M229.6 186.5 L228 187.4 M249.9 160.7 L248.9 161.7 M228.5 188 L230.1 187 M237.7 125.1 L243.4 126.6 M99.8 97.1 L105.2 99.1 L116.3 98.9 M225.8 116.1 L233.4 118.3 M231.7 134.1 L233.6 134.6 M276.5 142.3 L276.4 151.5 M233.7 134.3 L234.4 132.6 M241.9 177.5 L243.5 177 M220.2 195.1 L224 195.4 M224.6 209.8 L231.3 204 M243.5 126.3 L237.8 124.8 M231.1 185.7 L229.6 186.5 M257.8 148 L256.6 150.8 M123.4 114.6 L114.9 116.7 M249 162 L250.1 161.2 M255.1 173.9 L256.2 171.3 M236.9 181.5 L236 182.3 M116.7 166.7 L113.5 167.1 M233.7 117.5 L226 115.7 M324 192.8 L334.2 187.3 M210.8 203.7 L206.2 208.7 M217.5 190 L218.8 190.9 M216.2 101.7 L226.9 85.8 M232.4 185.3 L231.1 185.7 M248.9 142.1 L250 140.1 M241.9 177.5 L241.1 178.1 M243.6 193.5 L239.8 196.7 M241.1 178.1 L240.3 178.8 M136.6 178.8 L145.9 172.5 M188 196.8 L182.8 197.1 M330.9 192.9 L321 190.5 M247.5 236.3 L245.9 234.5 M252.1 173.4 L250 173.3 M252 136.3 L250.7 138.9 M250.7 138.9 L252.2 136.5 M192.5 113.9 L189 118.5 M78.3 170.6 L94.8 169 M254.4 174 L252.1 173.4 M228.4 196.4 L230.9 199.1 M242.2 186.6 L243.7 185.1 M243.1 176.5 L242.5 177 M184.6 123.3 L180.5 124.9 M116.5 98.6 L106.4 90.8 M224 195.4 L227 195.3 M219.6 196.3 L216.9 196.9 M238 120.2 L236.3 124 M230.6 136.8 L230.5 137.2 M185.4 199.7 L188 196.8 M334.2 187.3 L360.8 173.4 L388.3 165.1 M188.6 119 L186 122.3 M255 137.8 L256.4 140.5 M200 126.4 L199.4 127.6 M250.6 161.1 L251 160.5 M232.2 133.4 L231.7 134.1 M258.4 145.8 L257.8 148 M243.7 185.1 L244.9 183.9 M141.6 186.6 L150.9 192.3 M219.6 191.4 L220.6 191.9 M179.4 125.4 L175.8 126.8 M218.8 190.9 L219.6 191.4 M163.9 160.6 L162.7 159.6 M255.7 151.2 L255.6 152.5 M298.6 196.9 L302.7 197.8 M253.4 157 L253.1 156.5 M200 124.7 L199.3 125.9 M247.8 143.2 L246.8 143.2 M196.8 107.6 L193.1 113.1 M248.5 143 L248.9 142.1 M147.8 128.2 L137.8 134 M265.2 150 L264.1 152.7 M255.8 152.9 L256.3 151.7 M260.2 161.8 L259.5 163.4 M260.9 160.2 L260.2 161.8 M253.6 156.7 L254 156 M260.5 161.9 L261.2 160.3 M250 140.1 L250.7 138.9 M243.4 126.6 L246.6 127.8 M129.9 99.2 L119.8 95.7 M252 128.8 L248 128 M236 112.5 L233.9 117.2 M215.6 113.7 L210.3 112.5 M152 230.4 L157.6 232.6 M188 196.8 L189.3 195.2 M246.6 127.5 L243.5 126.3 M219.6 196.3 L220.2 195.1 M269.6 143.5 L274.3 139.6 M247.9 128.3 L251.5 129.1 M257.8 149.4 L258.5 148.1 M128.5 184.5 L117.1 195 L108.3 207.7 M237.3 198.6 L234.6 201 M238.5 118.7 L233.7 117.5 M226 115.7 L221.5 114.2 M221.4 115.4 L225.8 116.1 M256.1 151.7 L255.6 152.5 M157.5 196.5 L163.9 200.5 M157.8 232.3 L153 230.4 M248.1 189.2 L246.6 190.8 M246.6 190.8 L248.5 189.4 M260 163.1 L260.5 161.9 M150.9 192.3 L157.5 196.5 M330.6 98.6 L330.8 105.9 L334.8 111.4 L353.1 119 M353.3 118.7 L336.2 112 L331.9 107.1 L330.7 101.5 M227.4 195.4 L228.4 196.4 M254.2 136.6 L252.7 135.5 M238 124.4 L238.9 122.3 M235.1 200.9 L237.6 198.8 M199.7 215.1 L192.6 222.2 M233.4 118.3 L237.2 119.2 M256.5 170.1 L256.2 171 M139.2 101.2 L135.1 100.3 M158.6 163.8 L159.8 163 M264.8 152.3 L265.6 150.3 M239.4 196.8 L237.3 198.6 M237.6 198.8 L239.7 197 M256.5 171 L256.9 170.2 M107 110.8 L111.8 102.9 M246.6 190.8 L244.7 191.8 M234.8 198.2 L232.4 197.8 M223.6 212.1 L229.7 217 M219.3 197.1 L219.6 196.3 M135.1 100.3 L129.9 99.2 M305.3 198.4 L310 199.6 M258.2 144.6 L258.4 145.8 M243.9 191.1 L242.7 190.3 M110.9 102.7 L106.2 110.6 M237.3 198.6 L234.8 198.2 M254.2 136.6 L255 137.8 M244.7 191.8 L243.9 193.2 M215.6 113.7 L219.1 114.5 M237.8 124.8 L236.1 124.6 M240.6 118.4 L242.2 114.8 M202.4 109.5 L197 107.3 M99.6 116.1 L91.6 123.4 M46.2 173.8 L78.3 170.6 M161.4 113.7 L168.4 108.8 M236.1 124.6 L237.3 125 M185.5 123.4 L186 122.3 M206.2 208.7 L203.4 211.4 M203.4 211.4 L199.7 215.1 M186 122.3 L184.9 123.1 M236 112.5 L240.8 113.6 M231.3 204 L233.3 202.4 M240.8 113.6 L239.5 116.8 M134.6 75.7 L128.2 77.2 L122.2 83.6 M262.5 254.2 L271.6 264.7 M140.3 230.4 L145.6 229.6 M163.9 200.5 L168.2 203.2 M184 201.1 L185.4 199.7 M244.7 191.8 L243.9 191.1 M196.8 107.6 L201.4 109.3 M330.8 192.9 L339.4 195.2 M231.3 199.4 L232.3 200.5 M234 201.5 L232.3 200.5 M232.3 200.5 L233.4 202 M159.7 133.9 L161.4 135.1 M339.5 194.9 L330.9 192.9 M278.4 133.7 L281.6 127 M243 108.7 L241.1 113.1 M180.5 124.9 L179.4 125.4 M156.5 134 L159.4 133.8 M246.6 127.8 L247.9 128.3 M242.7 113.5 L244.6 109.1 M149.4 126 L153.3 121.3 M140.4 144.5 L133.2 143.7 M290.9 195.1 L295.9 184.2 M205.8 110.8 L202.4 109.5 M248 128 L246.6 127.5 M133.2 143.7 L136 137.7 M276.5 138.4 L276.5 142.3 M230.5 216.5 L226.7 212.7 M224.3 209.6 L221.9 211 M121.9 84.4 L116.7 93 M185.4 199.7 L184.4 200.6 M239.3 121.3 L239.7 120 M105.9 118.9 L100.7 116 M103.1 147.1 L101.8 142 L110.5 131 M347.9 197.3 L375.9 204.2 M376 204 L348.1 197 M109.8 131.2 L101.2 141.9 L102.6 147.3 M238.2 119.6 L239.7 120 M125.3 233.1 L112.6 238.8 M130.5 232.1 L137.2 231 M251.5 129.1 L252.7 129 M233.3 202.4 L234.3 201.6 M134.9 180 L128.5 184.5 M325.3 192.5 L328.9 192.5 M71.3 140.7 L56 148.2 L46.6 160.8 L45.4 169.4 M388.1 165 L357.2 174.9 M239.9 120 L240.4 119 M240.3 119 L238.7 118.6" fill="none" stroke="#1f3733" stroke-width="2.7" opacity="0.9" stroke-linecap="round" stroke-linejoin="round"/>
</g>
<g data-layer="minor-road-casing">
<path d="M133.4 182.7 L119.6 194.8 L111.8 205.7 M47.6 72.8 L68.9 78.8 L77.4 79.4 M77.3 79 L69.1 78.5 L47.7 72.5 M184.6 298.2 L190.4 281.9 L195.3 276.6 M205.9 303.4 L177.4 304.6 M17.8 299.6 L44.2 306.8 M324.4 164.7 L348.7 172.2 M151.4 269.9 L147.2 250.6 M63 128.9 L59.9 128.9 L56.8 125.9 L39.6 122.8 M62.8 243.2 L71.5 225.1 M34.6 205.9 L9.8 201 M252.8 209.2 L241.7 226.2 M156.3 246.8 L160.1 265.5 M387.7 97.1 L386.7 115.9 M108 122.4 L131.7 116.4 M368.9 128 L372.2 127 L384.2 114.1 M146.6 43.5 L139.5 61.3 M170.9 94.7 L186.3 80.5 M234.5 263.2 L256.1 271.1 M136.1 260.7 L150.9 247 M195.3 276.6 L195.4 294.3 M242.5 95.7 L249.4 78.8 M410.2 62.2 L398.2 77.3 M221.5 276.4 L218.9 275.6 L199.1 280.3 M341.9 227.8 L359.2 215.9 M59.2 207.6 L52.7 199.2 L44.3 194.7 M386.9 225.9 L394.6 209.5 M351.4 293.5 L337.9 279.3 M227.3 113.9 L233.8 104.4 L240.8 100.9 M182.7 309.2 L205.2 308.3 M118.2 291.5 L119.2 308.3 M269.6 143.5 L290.7 149.1 M44.2 268.9 L33.7 283.7 M209.4 253.7 L226 264.2 M293.3 233.9 L276.9 223.1 M70.8 241.8 L77.3 226.5 M30.9 246.7 L49.2 237.9 M317.6 291.2 L334.5 281.2 M248.5 312.5 L243.9 296.8 M251.1 206.4 L233.2 215.1 M396.4 79.8 L385.6 93.4 M203.7 127.6 L214.4 113.8 M326.2 80.8 L344.1 72.6 M354.7 60.5 L366.3 60.7 L375.1 58.4 M266.7 96.8 L279.3 84.4 M306.7 63.5 L326.2 68.9 M401 77 L411.2 63.5 M242.9 312.4 L239.3 297.1 M166.1 140.1 L151.3 150.8 M170.4 95.2 L158.2 107.6 M344 86.5 L363.2 81 M396.7 215.3 L390.1 229.9 M172.9 255.8 L180.7 251.3 L177.7 243.8 M374.8 58.1 L354.7 60.5 M353 119.6 L360.7 123.8 L367.2 130.3 M367.2 235.9 L379.7 247.9 M70.8 112 L90.1 107.2 M310.3 54.9 L303.6 69.2 M72.7 150.6 L53.1 153 M115.4 165.3 L117.1 155.5 L115.9 150.5 M343.6 63.7 L359.2 73.3 M53.1 54.8 L50 59.1 L48.2 69.2 M404.2 106.6 L401.3 110.7 L389.7 114.2 M92.1 276.8 L81.6 264.2 M342.3 151.4 L357.1 161.3 M329.9 277.3 L340.9 289.4 M325.6 146.6 L341.3 137.7 M274.8 128.7 L256.2 123.7 M20 188.2 L22 193.5 L21 202.3 M260.3 221.7 L259.9 236 M238 292 L255.9 286.4 M258.8 251 L269.4 263.2 M228.9 310.1 L244.1 301.6 M339.6 216.3 L349.8 228.4 M389.8 173.5 L371.6 178.4 M306.2 304.2 L319.8 294 M332.3 181.5 L348.6 173.9 M257.5 270.1 L257.3 255.9 M168.8 95 L156.1 105.5 M151.8 177.4 L164.1 166.4 M167.2 224.8 L181.1 234.5 M236.1 49.8 L243.1 37 M57.5 258.9 L44.2 268.9 M164.3 82.3 L181.9 77.6 M256.5 100.9 L251.3 114.6 M265.5 231.1 L275.5 243.1 M57.8 205 L39.4 206.2 M55.9 231.1 L50.3 244.6 M327.3 171.1 L335.1 158.2 M144.2 254.8 L162.9 252.8 M389.9 101.7 L389.6 115.8 M209.4 54.9 L218.4 53.6 L227.6 55.6 M292.2 150.5 L302.6 162.2 M132 146.3 L145.8 155.7 M311.1 73.1 L322.9 62.3 M202.3 257.7 L216.7 266.4 M219.2 33 L214.8 19.6 M68.1 185.6 L64.7 172 M93.8 199.9 L91.7 193.4 L92 186.4 M144.6 165 L131.1 174.3 M23.8 272.1 L8.3 279.4 M240.8 276.2 L251.4 265 M28.1 243.4 L37.9 254.9 M59.1 193 L77.3 191.4 M37.2 73 L28.8 74.9 L37.6 73.4 M103 42.5 L120.9 40.9 M104.8 17.5 L86.9 16 M131.6 40 L149.5 38.3 M186.9 276.1 L171.8 281.9 M404.6 261.8 L399 255.9 L396.5 250.1 M360.3 229.3 L361.1 242.7 M315.6 145.6 L333.3 147.3 M98.7 143 L82.4 148.2 M278.6 249 L268.9 259.9 M302.6 78.3 L318.9 83.3 M295.2 139.5 L302.7 127.6 M343.9 280.6 L353.4 291.6 M323.8 152.5 L325.4 139.5 M331.5 172.7 L338.8 160.8 M257.7 294.4 L258.8 307.4 M58.9 101.9 L43.8 108.2 M218.7 82.7 L233 75.4 M236 273.6 L245.8 263.1 M78.8 241.1 L75.1 244.7 L65.2 248.1 M254.8 308.1 L253.6 295.3 M188.5 51.8 L190.1 47.4 L187.5 39.4 M316.5 129.5 L307.5 140.4 M408.3 259.4 L398.7 249 M135.3 204.3 L129.2 216.1 M390 177.6 L373.7 180.8 M30.4 229.6 L27.4 242.1 M18.3 259.3 L15.8 263.4 L11.7 263.8 L9.8 268.6 M71.5 225.1 L83.4 234 M218.2 132.7 L225.1 121.2 M396.4 179.8 L411.8 174.9 M365.8 240.3 L376.2 250.1 M254.7 243.6 L245.6 233.1 M128.5 138.6 L113.2 143.6 M108.2 51.7 L105.3 46.3 L113.8 44.9 M28.6 229.5 L14.6 236 M402 178 L407.6 189.6 M225.4 258.9 L212.6 251.3 M297.4 208.6 L300.7 211.4 L299.4 216.2 L294.7 217.3 M389.2 165.5 L404.2 160.8 M231.5 271.2 L240.6 261.1 M99.2 131.9 L83.1 132 M124.6 118.2 L127.3 125.7 L132 128.3 M231.1 289.1 L243.1 281 M105.5 115.5 L120.9 111.7 M242.6 280.6 L230.5 288.6 M69 105.6 L83.9 101.1 M245.6 69.3 L238.9 58.4 M322.6 114.4 L334.5 122.4 M65.1 208 L49.2 208 M92 145.1 L85.2 134.4 M50.3 183.2 L61.4 174.6 M399.2 220.4 L384 216.7 M46.4 161.2 L34.5 159.7 L34.4 157.1 M141.6 186.6 L151.8 177.4 M376.7 129.8 L388.6 137.6 M325 138.9 L310.1 135.1 M405.8 39.7 L412 28.9 M329.4 260 L317.1 267.3 M220.7 265.5 L205.8 269 M382.8 193.1 L397.5 189 M273 100.7 L280.5 90.3 M220 244.9 L215.6 233.6 M97.4 62.6 L82.2 65.4 M82.3 65.7 L97.4 62.9 M149.9 206.8 L140.3 216 M60.8 134.9 L46.9 139.9 M378.9 186.8 L390.9 179.4 M198.4 130.8 L190.4 140.8 M215.2 95.1 L201.4 89.8 M197.3 29.3 L203.4 29.5 L205.8 36.2 M262.2 141 L267.7 136.6 L270.2 131.4 M67.5 247.9 L69.6 255 L72.4 255.8 L71.8 257.5 M37.1 119.6 L43.4 118.2 L50.1 113.9 M231.5 271.2 L225.8 281.9 M48.8 278.2 L35.2 272.8 M382 190.5 L396.3 186.4 M157.7 144.6 L142.4 144.8 M248.7 224.2 L240.2 214.7 M312.2 73.7 L326.2 69.3 M69.5 86.2 L63.6 86.8 L55.7 83.1 M231.2 123 L225.2 133.5 M410.6 24.2 L400.4 32.7 M405.3 170.9 L410.4 181.7 M151.3 303.2 L155.8 305.2 L165.5 305.5 M140.8 85.9 L134.6 75.7 M340.8 213.5 L325.8 213.9 M172.7 92.9 L187.7 93.2 M129.5 216.4 L144.4 215.8 M126.5 54.5 L117.5 63.4 M162.1 72.3 L168.7 70.2 L161.6 69.9 M127.1 52.7 L132.3 63.1 M172.1 147.4 L164.5 157 M156.5 134.5 L143.1 139.6 M101 206.2 L100.8 195.1 M102 154 L95.7 143.9 M392.2 47.1 L389 52.8 L384.3 56.3 M139.1 160.2 L149.7 152.4 M57.6 89 L45.5 95.4 M194.8 110.6 L205 118.6 M334.1 50 L323.8 57.9 M317 261.7 L327.3 269.6 M347.5 162.9 L336.9 155.3 M156.2 267.5 L151.1 277.5 M69.9 57 L79.6 65.2 M321.3 229.6 L323.8 240.3 M168 197.2 L160.1 187.9 M319.1 210.3 L333.7 209.6 M273 304.7 L258.8 307.4 M318.8 243.4 L333.4 243.7 M379 50.9 L386.2 45.9 L387.6 42.5 M30.1 68 L18 74.1 M202.8 121.5 L192.8 113.5 M216.3 130.2 L222.8 120.4 M344 51.5 L350.9 61 M11.9 70.4 L23.8 64.3 M410.1 256.3 L401.8 247.3 M55.7 83.1 L44.1 76.6 M209.9 71.2 L216.7 70.9 L221.1 66.2 M312.2 143.7 L323 136.4 M169.5 156.1 L172.9 155.9 L175.7 153.3 L176.4 148.4 M98.6 97.5 L84.8 100.7 M100.9 139.7 L98.9 129 M314.1 238.6 L320.6 229 M230.2 291.7 L234.5 302 M213.9 291.2 L201.1 286.3 M177.3 240 L190.1 235.1 M348.5 146.2 L359.3 139.1 M24.3 283.8 L12.7 277.5 M256.4 271.8 L245.8 278.9 M308 119.1 L304.1 108.8 M44.1 282.7 L33.8 275.3 M97.3 72.8 L107.8 80 M86.9 189.7 L76.8 197 M209.1 131.3 L196.6 136.2 M350.3 53.3 L363.5 49.3" fill="none" stroke="#fbf7eb" stroke-width="3.4" opacity="0.62" stroke-linecap="round" stroke-linejoin="round"/>
</g>
<g data-layer="minor-road">
<path d="M133.4 182.7 L119.6 194.8 L111.8 205.7 M47.6 72.8 L68.9 78.8 L77.4 79.4 M77.3 79 L69.1 78.5 L47.7 72.5 M184.6 298.2 L190.4 281.9 L195.3 276.6 M205.9 303.4 L177.4 304.6 M17.8 299.6 L44.2 306.8 M324.4 164.7 L348.7 172.2 M151.4 269.9 L147.2 250.6 M63 128.9 L59.9 128.9 L56.8 125.9 L39.6 122.8 M62.8 243.2 L71.5 225.1 M34.6 205.9 L9.8 201 M252.8 209.2 L241.7 226.2 M156.3 246.8 L160.1 265.5 M387.7 97.1 L386.7 115.9 M108 122.4 L131.7 116.4 M368.9 128 L372.2 127 L384.2 114.1 M146.6 43.5 L139.5 61.3 M170.9 94.7 L186.3 80.5 M234.5 263.2 L256.1 271.1 M136.1 260.7 L150.9 247 M195.3 276.6 L195.4 294.3 M242.5 95.7 L249.4 78.8 M410.2 62.2 L398.2 77.3 M221.5 276.4 L218.9 275.6 L199.1 280.3 M341.9 227.8 L359.2 215.9 M59.2 207.6 L52.7 199.2 L44.3 194.7 M386.9 225.9 L394.6 209.5 M351.4 293.5 L337.9 279.3 M227.3 113.9 L233.8 104.4 L240.8 100.9 M182.7 309.2 L205.2 308.3 M118.2 291.5 L119.2 308.3 M269.6 143.5 L290.7 149.1 M44.2 268.9 L33.7 283.7 M209.4 253.7 L226 264.2 M293.3 233.9 L276.9 223.1 M70.8 241.8 L77.3 226.5 M30.9 246.7 L49.2 237.9 M317.6 291.2 L334.5 281.2 M248.5 312.5 L243.9 296.8 M251.1 206.4 L233.2 215.1 M396.4 79.8 L385.6 93.4 M203.7 127.6 L214.4 113.8 M326.2 80.8 L344.1 72.6 M354.7 60.5 L366.3 60.7 L375.1 58.4 M266.7 96.8 L279.3 84.4 M306.7 63.5 L326.2 68.9 M401 77 L411.2 63.5 M242.9 312.4 L239.3 297.1 M166.1 140.1 L151.3 150.8 M170.4 95.2 L158.2 107.6 M344 86.5 L363.2 81 M396.7 215.3 L390.1 229.9 M172.9 255.8 L180.7 251.3 L177.7 243.8 M374.8 58.1 L354.7 60.5 M353 119.6 L360.7 123.8 L367.2 130.3 M367.2 235.9 L379.7 247.9 M70.8 112 L90.1 107.2 M310.3 54.9 L303.6 69.2 M72.7 150.6 L53.1 153 M115.4 165.3 L117.1 155.5 L115.9 150.5 M343.6 63.7 L359.2 73.3 M53.1 54.8 L50 59.1 L48.2 69.2 M404.2 106.6 L401.3 110.7 L389.7 114.2 M92.1 276.8 L81.6 264.2 M342.3 151.4 L357.1 161.3 M329.9 277.3 L340.9 289.4 M325.6 146.6 L341.3 137.7 M274.8 128.7 L256.2 123.7 M20 188.2 L22 193.5 L21 202.3 M260.3 221.7 L259.9 236 M238 292 L255.9 286.4 M258.8 251 L269.4 263.2 M228.9 310.1 L244.1 301.6 M339.6 216.3 L349.8 228.4 M389.8 173.5 L371.6 178.4 M306.2 304.2 L319.8 294 M332.3 181.5 L348.6 173.9 M257.5 270.1 L257.3 255.9 M168.8 95 L156.1 105.5 M151.8 177.4 L164.1 166.4 M167.2 224.8 L181.1 234.5 M236.1 49.8 L243.1 37 M57.5 258.9 L44.2 268.9 M164.3 82.3 L181.9 77.6 M256.5 100.9 L251.3 114.6 M265.5 231.1 L275.5 243.1 M57.8 205 L39.4 206.2 M55.9 231.1 L50.3 244.6 M327.3 171.1 L335.1 158.2 M144.2 254.8 L162.9 252.8 M389.9 101.7 L389.6 115.8 M209.4 54.9 L218.4 53.6 L227.6 55.6 M292.2 150.5 L302.6 162.2 M132 146.3 L145.8 155.7 M311.1 73.1 L322.9 62.3 M202.3 257.7 L216.7 266.4 M219.2 33 L214.8 19.6 M68.1 185.6 L64.7 172 M93.8 199.9 L91.7 193.4 L92 186.4 M144.6 165 L131.1 174.3 M23.8 272.1 L8.3 279.4 M240.8 276.2 L251.4 265 M28.1 243.4 L37.9 254.9 M59.1 193 L77.3 191.4 M37.2 73 L28.8 74.9 L37.6 73.4 M103 42.5 L120.9 40.9 M104.8 17.5 L86.9 16 M131.6 40 L149.5 38.3 M186.9 276.1 L171.8 281.9 M404.6 261.8 L399 255.9 L396.5 250.1 M360.3 229.3 L361.1 242.7 M315.6 145.6 L333.3 147.3 M98.7 143 L82.4 148.2 M278.6 249 L268.9 259.9 M302.6 78.3 L318.9 83.3 M295.2 139.5 L302.7 127.6 M343.9 280.6 L353.4 291.6 M323.8 152.5 L325.4 139.5 M331.5 172.7 L338.8 160.8 M257.7 294.4 L258.8 307.4 M58.9 101.9 L43.8 108.2 M218.7 82.7 L233 75.4 M236 273.6 L245.8 263.1 M78.8 241.1 L75.1 244.7 L65.2 248.1 M254.8 308.1 L253.6 295.3 M188.5 51.8 L190.1 47.4 L187.5 39.4 M316.5 129.5 L307.5 140.4 M408.3 259.4 L398.7 249 M135.3 204.3 L129.2 216.1 M390 177.6 L373.7 180.8 M30.4 229.6 L27.4 242.1 M18.3 259.3 L15.8 263.4 L11.7 263.8 L9.8 268.6 M71.5 225.1 L83.4 234 M218.2 132.7 L225.1 121.2 M396.4 179.8 L411.8 174.9 M365.8 240.3 L376.2 250.1 M254.7 243.6 L245.6 233.1 M128.5 138.6 L113.2 143.6 M108.2 51.7 L105.3 46.3 L113.8 44.9 M28.6 229.5 L14.6 236 M402 178 L407.6 189.6 M225.4 258.9 L212.6 251.3 M297.4 208.6 L300.7 211.4 L299.4 216.2 L294.7 217.3 M389.2 165.5 L404.2 160.8 M231.5 271.2 L240.6 261.1 M99.2 131.9 L83.1 132 M124.6 118.2 L127.3 125.7 L132 128.3 M231.1 289.1 L243.1 281 M105.5 115.5 L120.9 111.7 M242.6 280.6 L230.5 288.6 M69 105.6 L83.9 101.1 M245.6 69.3 L238.9 58.4 M322.6 114.4 L334.5 122.4 M65.1 208 L49.2 208 M92 145.1 L85.2 134.4 M50.3 183.2 L61.4 174.6 M399.2 220.4 L384 216.7 M46.4 161.2 L34.5 159.7 L34.4 157.1 M141.6 186.6 L151.8 177.4 M376.7 129.8 L388.6 137.6 M325 138.9 L310.1 135.1 M405.8 39.7 L412 28.9 M329.4 260 L317.1 267.3 M220.7 265.5 L205.8 269 M382.8 193.1 L397.5 189 M273 100.7 L280.5 90.3 M220 244.9 L215.6 233.6 M97.4 62.6 L82.2 65.4 M82.3 65.7 L97.4 62.9 M149.9 206.8 L140.3 216 M60.8 134.9 L46.9 139.9 M378.9 186.8 L390.9 179.4 M198.4 130.8 L190.4 140.8 M215.2 95.1 L201.4 89.8 M197.3 29.3 L203.4 29.5 L205.8 36.2 M262.2 141 L267.7 136.6 L270.2 131.4 M67.5 247.9 L69.6 255 L72.4 255.8 L71.8 257.5 M37.1 119.6 L43.4 118.2 L50.1 113.9 M231.5 271.2 L225.8 281.9 M48.8 278.2 L35.2 272.8 M382 190.5 L396.3 186.4 M157.7 144.6 L142.4 144.8 M248.7 224.2 L240.2 214.7 M312.2 73.7 L326.2 69.3 M69.5 86.2 L63.6 86.8 L55.7 83.1 M231.2 123 L225.2 133.5 M410.6 24.2 L400.4 32.7 M405.3 170.9 L410.4 181.7 M151.3 303.2 L155.8 305.2 L165.5 305.5 M140.8 85.9 L134.6 75.7 M340.8 213.5 L325.8 213.9 M172.7 92.9 L187.7 93.2 M129.5 216.4 L144.4 215.8 M126.5 54.5 L117.5 63.4 M162.1 72.3 L168.7 70.2 L161.6 69.9 M127.1 52.7 L132.3 63.1 M172.1 147.4 L164.5 157 M156.5 134.5 L143.1 139.6 M101 206.2 L100.8 195.1 M102 154 L95.7 143.9 M392.2 47.1 L389 52.8 L384.3 56.3 M139.1 160.2 L149.7 152.4 M57.6 89 L45.5 95.4 M194.8 110.6 L205 118.6 M334.1 50 L323.8 57.9 M317 261.7 L327.3 269.6 M347.5 162.9 L336.9 155.3 M156.2 267.5 L151.1 277.5 M69.9 57 L79.6 65.2 M321.3 229.6 L323.8 240.3 M168 197.2 L160.1 187.9 M319.1 210.3 L333.7 209.6 M273 304.7 L258.8 307.4 M318.8 243.4 L333.4 243.7 M379 50.9 L386.2 45.9 L387.6 42.5 M30.1 68 L18 74.1 M202.8 121.5 L192.8 113.5 M216.3 130.2 L222.8 120.4 M344 51.5 L350.9 61 M11.9 70.4 L23.8 64.3 M410.1 256.3 L401.8 247.3 M55.7 83.1 L44.1 76.6 M209.9 71.2 L216.7 70.9 L221.1 66.2 M312.2 143.7 L323 136.4 M169.5 156.1 L172.9 155.9 L175.7 153.3 L176.4 148.4 M98.6 97.5 L84.8 100.7 M100.9 139.7 L98.9 129 M314.1 238.6 L320.6 229 M230.2 291.7 L234.5 302 M213.9 291.2 L201.1 286.3 M177.3 240 L190.1 235.1 M348.5 146.2 L359.3 139.1 M24.3 283.8 L12.7 277.5 M256.4 271.8 L245.8 278.9 M308 119.1 L304.1 108.8 M44.1 282.7 L33.8 275.3 M97.3 72.8 L107.8 80 M86.9 189.7 L76.8 197 M209.1 131.3 L196.6 136.2 M350.3 53.3 L363.5 49.3" fill="none" stroke="#69776e" stroke-width="1.25" opacity="0.58" stroke-linecap="round" stroke-linejoin="round"/>
</g>
</g>
<g data-layer="north-up-compass" fill="none" stroke="#233934" stroke-linecap="round" stroke-linejoin="round" opacity="0.62">
<path d="M382 48L382 23" stroke-width="1.8"/>
<path d="M382 23L373 39M382 23L391 39" stroke-width="1.8"/>
<circle cx="382" cy="48" r="13" stroke-width="1.1" opacity="0.38"/>
</g>
<rect x="8" y="8" width="404" height="304" rx="16" fill="none" stroke="#233934" stroke-width="1.4" opacity="0.44"/>
</svg>
