<svg xmlns="http://www.w3.org/2000/svg" viewBox="0 0 420 320" role="img" aria-label="Unlabeled street-grid crop">
<rect width="420" height="320" fill="#f6f3e9"/>
<g opacity="0.22" stroke="#d8d0bd" stroke-width="1">
<path d="M0 0L0 320" fill="none"/>
<path d="M60 0L60 320" fill="none"/>
<path d="M120 0L120 320" fill="none"/>
<path d="M180 0L180 320" fill="none"/>
<path d="M240 0L240 320" fill="none"/>
<path d="M300 0L300 320" fill="none"/>
<path d="M360 0L360 320" fill="none"/>
<path d="M420 0L420 320" fill="none"/>
<path d="M0 0L420 0" fill="none"/>
<path d="M0 54L420 54" fill="none"/>
<path d="M0 108L420 108" fill="none"/>
<path d="M0 162L420 162" fill="none"/>
<path d="M0 216L420 216" fill="none"/>
<path d="M0 270L420 270" fill="none"/>
<path d="M0 324L420 324" fill="none"/>
</g>
<path d="M56.1 137.9 L60 140.1 L76.9 138.5 L82.7 136.1 L94.3 138.9 L129.7 132.3" fill="none" stroke="#fdfbf5" stroke-width="9" stroke-linecap="round" stroke-linejoin="round" opacity="0.95"/>
<path d="M130.5 124.1 L138.8 108.9 L148.4 97" fill="none" stroke="#fdfbf5" stroke-width="9" stroke-linecap="round" stroke-linejoin="round" opacity="0.95"/>
<path d="M233.4 160.5 L264 151.3" fill="none" stroke="#fdfbf5" stroke-width="9" stroke-linecap="round" stroke-linejoin="round" opacity="0.95"/>
<path d="M216.8 163.9 L231.7 160.8" fill="none" stroke="#fdfbf5" stroke-width="9" stroke-linecap="round" stroke-linejoin="round" opacity="0.95"/>
<path d="M38.3 183.2 L13.5 164.3" fill="none" stroke="#fdfbf5" stroke-width="9" stroke-linecap="round" stroke-linejoin="round" opacity="0.95"/>
<path d="M172.2 71.5 L183.4 45.8 L182 38.3" fill="none" stroke="#fdfbf5" stroke-width="9" stroke-linecap="round" stroke-linejoin="round" opacity="0.95"/>
<path d="M283.6 153.8 L273.5 162.3" fill="none" stroke="#fdfbf5" stroke-width="9" stroke-linecap="round" stroke-linejoin="round" opacity="0.95"/>
<path d="M88.4 240.6 L100.4 254.4 L119.3 263.1 L126.5 263.2 L150.4 254.6" fill="none" stroke="#fdfbf5" stroke-width="9" stroke-linecap="round" stroke-linejoin="round" opacity="0.95"/>
<path d="M187.6 170.7 L143.3 179.3" fill="none" stroke="#fdfbf5" stroke-width="9" stroke-linecap="round" stroke-linejoin="round" opacity="0.95"/>
<path d="M187.6 107.7 L149.2 97.3" fill="none" stroke="#fdfbf5" stroke-width="9" stroke-linecap="round" stroke-linejoin="round" opacity="0.95"/>
<path d="M270.7 51.9 L262.4 32.4" fill="none" stroke="#fdfbf5" stroke-width="9" stroke-linecap="round" stroke-linejoin="round" opacity="0.95"/>
<path d="M299 107.9 L295.8 81.3 L278.8 65.6 L273.6 57.8" fill="none" stroke="#fdfbf5" stroke-width="9" stroke-linecap="round" stroke-linejoin="round" opacity="0.95"/>
<path d="M199.3 110.2 L214.7 114.4" fill="none" stroke="#fdfbf5" stroke-width="9" stroke-linecap="round" stroke-linejoin="round" opacity="0.95"/>
<path d="M180.3 0 L179.5 27.1" fill="none" stroke="#fdfbf5" stroke-width="9" stroke-linecap="round" stroke-linejoin="round" opacity="0.95"/>
<path d="M172.6 72.3 L168.2 80.9 L162.9 84.6" fill="none" stroke="#fdfbf5" stroke-width="9" stroke-linecap="round" stroke-linejoin="round" opacity="0.95"/>
<path d="M149.2 97.3 L140.2 107.7 L130.9 124.3" fill="none" stroke="#fdfbf5" stroke-width="9" stroke-linecap="round" stroke-linejoin="round" opacity="0.95"/>
<path d="M230 236.1 L228.4 226.7 L206.8 195.2" fill="none" stroke="#fdfbf5" stroke-width="9" stroke-linecap="round" stroke-linejoin="round" opacity="0.95"/>
<path d="M205 192.5 L194.4 175.9" fill="none" stroke="#fdfbf5" stroke-width="9" stroke-linecap="round" stroke-linejoin="round" opacity="0.95"/>
<path d="M350 299.4 L336.5 297.3 L324.6 299.2" fill="none" stroke="#fdfbf5" stroke-width="9" stroke-linecap="round" stroke-linejoin="round" opacity="0.95"/>
<path d="M214.5 114.8 L190.1 108.3" fill="none" stroke="#fdfbf5" stroke-width="9" stroke-linecap="round" stroke-linejoin="round" opacity="0.95"/>
<path d="M0 151.3 L13.7 163.8" fill="none" stroke="#fdfbf5" stroke-width="9" stroke-linecap="round" stroke-linejoin="round" opacity="0.95"/>
<path d="M260.7 292.6 L296.1 301.9 L302.2 301 L309.2 296.7" fill="none" stroke="#fdfbf5" stroke-width="9" stroke-linecap="round" stroke-linejoin="round" opacity="0.95"/>
<path d="M271.1 270.5 L266 281.4" fill="none" stroke="#fdfbf5" stroke-width="9" stroke-linecap="round" stroke-linejoin="round" opacity="0.95"/>
<path d="M289.6 227.1 L271.1 270.5" fill="none" stroke="#fdfbf5" stroke-width="9" stroke-linecap="round" stroke-linejoin="round" opacity="0.95"/>
<path d="M58.5 100.9 L77.5 91" fill="none" stroke="#fdfbf5" stroke-width="9" stroke-linecap="round" stroke-linejoin="round" opacity="0.95"/>
<path d="M49.8 133.4 L54.8 122.8 L50.5 111.1 L52.5 105.7" fill="none" stroke="#fdfbf5" stroke-width="9" stroke-linecap="round" stroke-linejoin="round" opacity="0.95"/>
<path d="M87 80.4 L0 57.9" fill="none" stroke="#fdfbf5" stroke-width="9" stroke-linecap="round" stroke-linejoin="round" opacity="0.95"/>
<path d="M87.5 207.9 L75.7 220.7" fill="none" stroke="#fdfbf5" stroke-width="9" stroke-linecap="round" stroke-linejoin="round" opacity="0.95"/>
<path d="M388.5 164.6 L420 193.4 L420 232.7" fill="none" stroke="#fdfbf5" stroke-width="9" stroke-linecap="round" stroke-linejoin="round" opacity="0.95"/>
<path d="M107.1 232.6 L191.5 200.4" fill="none" stroke="#fdfbf5" stroke-width="9" stroke-linecap="round" stroke-linejoin="round" opacity="0.95"/>
<path d="M278.1 189.4 L294.1 187.1" fill="none" stroke="#fdfbf5" stroke-width="9" stroke-linecap="round" stroke-linejoin="round" opacity="0.95"/>
<path d="M13.9 164 L38.7 182.9" fill="none" stroke="#fdfbf5" stroke-width="9" stroke-linecap="round" stroke-linejoin="round" opacity="0.95"/>
<path d="M150.7 255 L127.1 263.5 L120 263.7 L99.8 254.6 L88.5 241.7" fill="none" stroke="#fdfbf5" stroke-width="9" stroke-linecap="round" stroke-linejoin="round" opacity="0.95"/>
<path d="M267.1 129.8 L290.4 114" fill="none" stroke="#fdfbf5" stroke-width="9" stroke-linecap="round" stroke-linejoin="round" opacity="0.95"/>
<path d="M161.3 84.4 L167.3 81 L172 72.1" fill="none" stroke="#fdfbf5" stroke-width="9" stroke-linecap="round" stroke-linejoin="round" opacity="0.95"/>
<path d="M230.6 236.1 L232.2 251" fill="none" stroke="#fdfbf5" stroke-width="9" stroke-linecap="round" stroke-linejoin="round" opacity="0.95"/>
<path d="M217.5 0 L243 0 L262.9 32.5" fill="none" stroke="#fdfbf5" stroke-width="9" stroke-linecap="round" stroke-linejoin="round" opacity="0.95"/>
<path d="M290.8 114.4 L266.5 131.2" fill="none" stroke="#fdfbf5" stroke-width="9" stroke-linecap="round" stroke-linejoin="round" opacity="0.95"/>
<path d="M274.1 57.6 L278.6 64.6 L296.2 81.2 L299.4 108.2" fill="none" stroke="#fdfbf5" stroke-width="9" stroke-linecap="round" stroke-linejoin="round" opacity="0.95"/>
<path d="M244 175.8 L271 163.8" fill="none" stroke="#fdfbf5" stroke-width="9" stroke-linecap="round" stroke-linejoin="round" opacity="0.95"/>
<path d="M232.2 251 L242.9 263.1 L269 270.2" fill="none" stroke="#fdfbf5" stroke-width="9" stroke-linecap="round" stroke-linejoin="round" opacity="0.95"/>
<path d="M222.5 292.3 L251.7 291.3 L260.7 292.6" fill="none" stroke="#fdfbf5" stroke-width="9" stroke-linecap="round" stroke-linejoin="round" opacity="0.95"/>
<path d="M45.6 254.4 L65.7 247.2" fill="none" stroke="#fdfbf5" stroke-width="9" stroke-linecap="round" stroke-linejoin="round" opacity="0.95"/>
<path d="M33.4 259.6 L6.5 270.7" fill="none" stroke="#fdfbf5" stroke-width="9" stroke-linecap="round" stroke-linejoin="round" opacity="0.95"/>
<path d="M183.3 40.6 L182.8 50.3 L172.9 71.8" fill="none" stroke="#fdfbf5" stroke-width="9" stroke-linecap="round" stroke-linejoin="round" opacity="0.95"/>
<path d="M148.4 97 L87 80.4" fill="none" stroke="#fdfbf5" stroke-width="9" stroke-linecap="round" stroke-linejoin="round" opacity="0.95"/>
<path d="M229.2 118.9 L215.6 115.2" fill="none" stroke="#fdfbf5" stroke-width="9" stroke-linecap="round" stroke-linejoin="round" opacity="0.95"/>
<path d="M87.4 207.4 L100.9 192.8" fill="none" stroke="#fdfbf5" stroke-width="9" stroke-linecap="round" stroke-linejoin="round" opacity="0.95"/>
<path d="M143.3 179.3 L110.3 185.9" fill="none" stroke="#fdfbf5" stroke-width="9" stroke-linecap="round" stroke-linejoin="round" opacity="0.95"/>
<path d="M150.4 254.6 L162.8 255.9 L192.2 274.8" fill="none" stroke="#fdfbf5" stroke-width="9" stroke-linecap="round" stroke-linejoin="round" opacity="0.95"/>
<path d="M257.2 292.2 L221.6 292.6" fill="none" stroke="#fdfbf5" stroke-width="9" stroke-linecap="round" stroke-linejoin="round" opacity="0.95"/>
<path d="M65.5 248 L33.4 259.6" fill="none" stroke="#fdfbf5" stroke-width="9" stroke-linecap="round" stroke-linejoin="round" opacity="0.95"/>
<path d="M75 220.5 L64.6 207.8" fill="none" stroke="#fdfbf5" stroke-width="9" stroke-linecap="round" stroke-linejoin="round" opacity="0.95"/>
<path d="M266.5 131.2 L265 136.2 L271.7 151.9" fill="none" stroke="#fdfbf5" stroke-width="9" stroke-linecap="round" stroke-linejoin="round" opacity="0.95"/>
<path d="M191.9 275.1 L163.8 257 L150.7 255" fill="none" stroke="#fdfbf5" stroke-width="9" stroke-linecap="round" stroke-linejoin="round" opacity="0.95"/>
<path d="M195.7 198.4 L217.9 187.6" fill="none" stroke="#fdfbf5" stroke-width="9" stroke-linecap="round" stroke-linejoin="round" opacity="0.95"/>
<path d="M272.2 162.8 L270.2 165.1 L244.8 175.9" fill="none" stroke="#fdfbf5" stroke-width="9" stroke-linecap="round" stroke-linejoin="round" opacity="0.95"/>
<path d="M194.7 199.6 L108.1 233" fill="none" stroke="#fdfbf5" stroke-width="9" stroke-linecap="round" stroke-linejoin="round" opacity="0.95"/>
<path d="M7.1 269.9 L33 259.3" fill="none" stroke="#fdfbf5" stroke-width="9" stroke-linecap="round" stroke-linejoin="round" opacity="0.95"/>
<path d="M270.3 162.7 L251.6 124.8" fill="none" stroke="#fdfbf5" stroke-width="9" stroke-linecap="round" stroke-linejoin="round" opacity="0.95"/>
<path d="M44.8 187.6 L60.5 201.7" fill="none" stroke="#fdfbf5" stroke-width="9" stroke-linecap="round" stroke-linejoin="round" opacity="0.95"/>
<path d="M0 104.1 L0 113.7 L6 124.1 L17.9 132.1 L32.7 130.4 L49 133" fill="none" stroke="#fdfbf5" stroke-width="9" stroke-linecap="round" stroke-linejoin="round" opacity="0.95"/>
<path d="M0 57.1 L147.6 96.1" fill="none" stroke="#fdfbf5" stroke-width="9" stroke-linecap="round" stroke-linejoin="round" opacity="0.95"/>
<path d="M96 198.7 L87.5 207.9" fill="none" stroke="#fdfbf5" stroke-width="9" stroke-linecap="round" stroke-linejoin="round" opacity="0.95"/>
<path d="M13.3 164.1 L0 151.3" fill="none" stroke="#fdfbf5" stroke-width="9" stroke-linecap="round" stroke-linejoin="round" opacity="0.95"/>
<path d="M10.8 168.2 L18.3 177.1 L2.2 185.9 L0 186.3 L0 183.8 L0 189" fill="none" stroke="#fdfbf5" stroke-width="9" stroke-linecap="round" stroke-linejoin="round" opacity="0.95"/>
<path d="M262.4 32.4 L242.7 0.1 L217.9 0" fill="none" stroke="#fdfbf5" stroke-width="9" stroke-linecap="round" stroke-linejoin="round" opacity="0.95"/>
<path d="M262.9 32.5 L271.1 51.8" fill="none" stroke="#fdfbf5" stroke-width="9" stroke-linecap="round" stroke-linejoin="round" opacity="0.95"/>
<path d="M179 29.2 L179.5 0" fill="none" stroke="#fdfbf5" stroke-width="9" stroke-linecap="round" stroke-linejoin="round" opacity="0.95"/>
<path d="M206.1 284.5 L192.2 275.4" fill="none" stroke="#fdfbf5" stroke-width="9" stroke-linecap="round" stroke-linejoin="round" opacity="0.95"/>
<path d="M221.6 292.6 L207.2 285.2" fill="none" stroke="#fdfbf5" stroke-width="9" stroke-linecap="round" stroke-linejoin="round" opacity="0.95"/>
<path d="M193.5 275.7 L207.6 284.9" fill="none" stroke="#fdfbf5" stroke-width="9" stroke-linecap="round" stroke-linejoin="round" opacity="0.95"/>
<path d="M56.1 137.9 L60 140.1 L76.9 138.5 L82.7 136.1 L94.3 138.9 L129.7 132.3" fill="none" stroke="#1e3432" stroke-width="4.8" stroke-linecap="round" stroke-linejoin="round" opacity="0.94"/>
<path d="M130.5 124.1 L138.8 108.9 L148.4 97" fill="none" stroke="#1e3432" stroke-width="4.8" stroke-linecap="round" stroke-linejoin="round" opacity="0.94"/>
<path d="M233.4 160.5 L264 151.3" fill="none" stroke="#1e3432" stroke-width="4.8" stroke-linecap="round" stroke-linejoin="round" opacity="0.94"/>
<path d="M216.8 163.9 L231.7 160.8" fill="none" stroke="#1e3432" stroke-width="4.8" stroke-linecap="round" stroke-linejoin="round" opacity="0.94"/>
<path d="M38.3 183.2 L13.5 164.3" fill="none" stroke="#1e3432" stroke-width="4.8" stroke-linecap="round" stroke-linejoin="round" opacity="0.94"/>
<path d="M172.2 71.5 L183.4 45.8 L182 38.3" fill="none" stroke="#1e3432" stroke-width="4.8" stroke-linecap="round" stroke-linejoin="round" opacity="0.94"/>
<path d="M283.6 153.8 L273.5 162.3" fill="none" stroke="#1e3432" stroke-width="4.8" stroke-linecap="round" stroke-linejoin="round" opacity="0.94"/>
<path d="M88.4 240.6 L100.4 254.4 L119.3 263.1 L126.5 263.2 L150.4 254.6" fill="none" stroke="#1e3432" stroke-width="4.8" stroke-linecap="round" stroke-linejoin="round" opacity="0.94"/>
<path d="M187.6 170.7 L143.3 179.3" fill="none" stroke="#1e3432" stroke-width="4.8" stroke-linecap="round" stroke-linejoin="round" opacity="0.94"/>
<path d="M187.6 107.7 L149.2 97.3" fill="none" stroke="#1e3432" stroke-width="4.8" stroke-linecap="round" stroke-linejoin="round" opacity="0.94"/>
<path d="M270.7 51.9 L262.4 32.4" fill="none" stroke="#1e3432" stroke-width="4.8" stroke-linecap="round" stroke-linejoin="round" opacity="0.94"/>
<path d="M299 107.9 L295.8 81.3 L278.8 65.6 L273.6 57.8" fill="none" stroke="#1e3432" stroke-width="4.8" stroke-linecap="round" stroke-linejoin="round" opacity="0.94"/>
<path d="M199.3 110.2 L214.7 114.4" fill="none" stroke="#1e3432" stroke-width="4.8" stroke-linecap="round" stroke-linejoin="round" opacity="0.94"/>
<path d="M180.3 0 L179.5 27.1" fill="none" stroke="#1e3432" stroke-width="4.8" stroke-linecap="round" stroke-linejoin="round" opacity="0.94"/>
<path d="M172.6 72.3 L168.2 80.9 L162.9 84.6" fill="none" stroke="#1e3432" stroke-width="4.8" stroke-linecap="round" stroke-linejoin="round" opacity="0.94"/>
<path d="M149.2 97.3 L140.2 107.7 L130.9 124.3" fill="none" stroke="#1e3432" stroke-width="4.8" stroke-linecap="round" stroke-linejoin="round" opacity="0.94"/>
<path d="M230 236.1 L228.4 226.7 L206.8 195.2" fill="none" stroke="#1e3432" stroke-width="4.8" stroke-linecap="round" stroke-linejoin="round" opacity="0.94"/>
<path d="M205 192.5 L194.4 175.9" fill="none" stroke="#1e3432" stroke-width="4.8" stroke-linecap="round" stroke-linejoin="round" opacity="0.94"/>
<path d="M350 299.4 L336.5 297.3 L324.6 299.2" fill="none" stroke="#1e3432" stroke-width="4.8" stroke-linecap="round" stroke-linejoin="round" opacity="0.94"/>
<path d="M214.5 114.8 L190.1 108.3" fill="none" stroke="#1e3432" stroke-width="4.8" stroke-linecap="round" stroke-linejoin="round" opacity="0.94"/>
<path d="M0 151.3 L13.7 163.8" fill="none" stroke="#1e3432" stroke-width="4.8" stroke-linecap="round" stroke-linejoin="round" opacity="0.94"/>
<path d="M260.7 292.6 L296.1 301.9 L302.2 301 L309.2 296.7" fill="none" stroke="#1e3432" stroke-width="4.8" stroke-linecap="round" stroke-linejoin="round" opacity="0.94"/>
<path d="M271.1 270.5 L266 281.4" fill="none" stroke="#1e3432" stroke-width="4.8" stroke-linecap="round" stroke-linejoin="round" opacity="0.94"/>
<path d="M289.6 227.1 L271.1 270.5" fill="none" stroke="#1e3432" stroke-width="4.8" stroke-linecap="round" stroke-linejoin="round" opacity="0.94"/>
<path d="M58.5 100.9 L77.5 91" fill="none" stroke="#1e3432" stroke-width="4.8" stroke-linecap="round" stroke-linejoin="round" opacity="0.94"/>
<path d="M49.8 133.4 L54.8 122.8 L50.5 111.1 L52.5 105.7" fill="none" stroke="#1e3432" stroke-width="4.8" stroke-linecap="round" stroke-linejoin="round" opacity="0.94"/>
<path d="M87 80.4 L0 57.9" fill="none" stroke="#1e3432" stroke-width="4.8" stroke-linecap="round" stroke-linejoin="round" opacity="0.94"/>
<path d="M87.5 207.9 L75.7 220.7" fill="none" stroke="#1e3432" stroke-width="4.8" stroke-linecap="round" stroke-linejoin="round" opacity="0.94"/>
<path d="M388.5 164.6 L420 193.4 L420 232.7" fill="none" stroke="#1e3432" stroke-width="4.8" stroke-linecap="round" stroke-linejoin="round" opacity="0.94"/>
<path d="M107.1 232.6 L191.5 200.4" fill="none" stroke="#1e3432" stroke-width="4.8" stroke-linecap="round" stroke-linejoin="round" opacity="0.94"/>
<path d="M278.1 189.4 L294.1 187.1" fill="none" stroke="#1e3432" stroke-width="4.8" stroke-linecap="round" stroke-linejoin="round" opacity="0.94"/>
<path d="M13.9 164 L38.7 182.9" fill="none" stroke="#1e3432" stroke-width="4.8" stroke-linecap="round" stroke-linejoin="round" opacity="0.94"/>
<path d="M150.7 255 L127.1 263.5 L120 263.7 L99.8 254.6 L88.5 241.7" fill="none" stroke="#1e3432" stroke-width="4.8" stroke-linecap="round" stroke-linejoin="round" opacity="0.94"/>
<path d="M267.1 129.8 L290.4 114" fill="none" stroke="#1e3432" stroke-width="4.8" stroke-linecap="round" stroke-linejoin="round" opacity="0.94"/>
<path d="M161.3 84.4 L167.3 81 L172 72.1" fill="none" stroke="#1e3432" stroke-width="4.8" stroke-linecap="round" stroke-linejoin="round" opacity="0.94"/>
<path d="M230.6 236.1 L232.2 251" fill="none" stroke="#1e3432" stroke-width="4.8" stroke-linecap="round" stroke-linejoin="round" opacity="0.94"/>
<path d="M217.5 0 L243 0 L262.9 32.5" fill="none" stroke="#1e3432" stroke-width="4.8" stroke-linecap="round" stroke-linejoin="round" opacity="0.94"/>
<path d="M290.8 114.4 L266.5 131.2" fill="none" stroke="#1e3432" stroke-width="4.8" stroke-linecap="round" stroke-linejoin="round" opacity="0.94"/>
<path d="M274.1 57.6 L278.6 64.6 L296.2 81.2 L299.4 108.2" fill="none" stroke="#1e3432" stroke-width="4.8" stroke-linecap="round" stroke-linejoin="round" opacity="0.94"/>
<path d="M244 175.8 L271 163.8" fill="none" stroke="#1e3432" stroke-width="4.8" stroke-linecap="round" stroke-linejoin="round" opacity="0.94"/>
<path d="M232.2 251 L242.9 263.1 L269 270.2" fill="none" stroke="#1e3432" stroke-width="4.8" stroke-linecap="round" stroke-linejoin="round" opacity="0.94"/>
<path d="M222.5 292.3 L251.7 291.3 L260.7 292.6" fill="none" stroke="#1e3432" stroke-width="4.8" stroke-linecap="round" stroke-linejoin="round" opacity="0.94"/>
<path d="M45.6 254.4 L65.7 247.2" fill="none" stroke="#1e3432" stroke-width="4.8" stroke-linecap="round" stroke-linejoin="round" opacity="0.94"/>
<path d="M33.4 259.6 L6.5 270.7" fill="none" stroke="#1e3432" stroke-width="4.8" stroke-linecap="round" stroke-linejoin="round" opacity="0.94"/>
<path d="M183.3 40.6 L182.8 50.3 L172.9 71.8" fill="none" stroke="#1e3432" stroke-width="4.8" stroke-linecap="round" stroke-linejoin="round" opacity="0.94"/>
<path d="M148.4 97 L87 80.4" fill="none" stroke="#1e3432" stroke-width="4.8" stroke-linecap="round" stroke-linejoin="round" opacity="0.94"/>
<path d="M229.2 118.9 L215.6 115.2" fill="none" stroke="#1e3432" stroke-width="4.8" stroke-linecap="round" stroke-linejoin="round" opacity="0.94"/>
<path d="M87.4 207.4 L100.9 192.8" fill="none" stroke="#1e3432" stroke-width="4.8" stroke-linecap="round" stroke-linejoin="round" opacity="0.94"/>
<path d="M143.3 179.3 L110.3 185.9" fill="none" stroke="#1e3432" stroke-width="4.8" stroke-linecap="round" stroke-linejoin="round" opacity="0.94"/>
<path d="M150.4 254.6 L162.8 255.9 L192.2 274.8" fill="none" stroke="#1e3432" stroke-width="4.8" stroke-linecap="round" stroke-linejoin="round" opacity="0.94"/>
<path d="M257.2 292.2 L221.6 292.6" fill="none" stroke="#1e3432" stroke-width="4.8" stroke-linecap="round" stroke-linejoin="round" opacity="0.94"/>
<path d="M65.5 248 L33.4 259.6" fill="none" stroke="#1e3432" stroke-width="4.8" stroke-linecap="round" stroke-linejoin="round" opacity="0.94"/>
<path d="M75 220.5 L64.6 207.8" fill="none" stroke="#1e3432" stroke-width="4.8" stroke-linecap="round" stroke-linejoin="round" opacity="0.94"/>
<path d="M266.5 131.2 L265 136.2 L271.7 151.9" fill="none" stroke="#1e3432" stroke-width="4.8" stroke-linecap="round" stroke-linejoin="round" opacity="0.94"/>
<path d="M191.9 275.1 L163.8 257 L150.7 255" fill="none" stroke="#1e3432" stroke-width="4.8" stroke-linecap="round" stroke-linejoin="round" opacity="0.94"/>
<path d="M195.7 198.4 L217.9 187.6" fill="none" stroke="#1e3432" stroke-width="4.8" stroke-linecap="round" stroke-linejoin="round" opacity="0.94"/>
<path d="M272.2 162.8 L270.2 165.1 L244.8 175.9" fill="none" stroke="#1e3432" stroke-width="4.8" stroke-linecap="round" stroke-linejoin="round" opacity="0.94"/>
<path d="M194.7 199.6 L108.1 233" fill="none" stroke="#1e3432" stroke-width="4.8" stroke-linecap="round" stroke-linejoin="round" opacity="0.94"/>
<path d="M7.1 269.9 L33 259.3" fill="none" stroke="#1e3432" stroke-width="4.8" stroke-linecap="round" stroke-linejoin="round" opacity="0.94"/>
<path d="M270.3 162.7 L251.6 124.8" fill="none" stroke="#1e3432" stroke-width="4.8" stroke-linecap="round" stroke-linejoin="round" opacity="0.94"/>
<path d="M44.8 187.6 L60.5 201.7" fill="none" stroke="#1e3432" stroke-width="4.8" stroke-linecap="round" stroke-linejoin="round" opacity="0.94"/>
<path d="M0 104.1 L0 113.7 L6 124.1 L17.9 132.1 L32.7 130.4 L49 133" fill="none" stroke="#1e3432" stroke-width="4.8" stroke-linecap="round" stroke-linejoin="round" opacity="0.94"/>
<path d="M0 57.1 L147.6 96.1" fill="none" stroke="#1e3432" stroke-width="4.8" stroke-linecap="round" stroke-linejoin="round" opacity="0.94"/>
<path d="M96 198.7 L87.5 207.9" fill="none" stroke="#1e3432" stroke-width="4.8" stroke-linecap="round" stroke-linejoin="round" opacity="0.94"/>
<path d="M13.3 164.1 L0 151.3" fill="none" stroke="#1e3432" stroke-width="4.8" stroke-linecap="round" stroke-linejoin="round" opacity="0.94"/>
<path d="M10.8 168.2 L18.3 177.1 L2.2 185.9 L0 186.3 L0 183.8 L0 189" fill="none" stroke="#1e3432" stroke-width="4.8" stroke-linecap="round" stroke-linejoin="round" opacity="0.94"/>
<path d="M262.4 32.4 L242.7 0.1 L217.9 0" fill="none" stroke="#1e3432" stroke-width="4.8" stroke-linecap="round" stroke-linejoin="round" opacity="0.94"/>
<path d="M262.9 32.5 L271.1 51.8" fill="none" stroke="#1e3432" stroke-width="4.8" stroke-linecap="round" stroke-linejoin="round" opacity="0.94"/>
<path d="M179 29.2 L179.5 0" fill="none" stroke="#1e3432" stroke-width="4.8" stroke-linecap="round" stroke-linejoin="round" opacity="0.94"/>
<path d="M206.1 284.5 L192.2 275.4" fill="none" stroke="#1e3432" stroke-width="4.8" stroke-linecap="round" stroke-linejoin="round" opacity="0.94"/>
<path d="M221.6 292.6 L207.2 285.2" fill="none" stroke="#1e3432" stroke-width="4.8" stroke-linecap="round" stroke-linejoin="round" opacity="0.94"/>
<path d="M193.5 275.7 L207.6 284.9" fill="none" stroke="#1e3432" stroke-width="4.8" stroke-linecap="round" stroke-linejoin="round" opacity="0.94"/>
</svg>
