<svg xmlns="http://www.w3.org/2000/svg" viewBox="0 0 420 320" role="img" aria-label="Unlabeled street grid stage 0">
  <rect width="420" height="320" fill="#efe7d2"/>
  
  
  
  <g><path d="M10 104 C70 64 110 164 340 82" fill="none" stroke="hsl(322 18% 28%)" stroke-width="5" stroke-linecap="round" opacity="0.92"/><path d="M57 135 C107 95 147 195 369 135" fill="none" stroke="hsl(322 10% 48%)" stroke-width="3" stroke-linecap="round" opacity="0.92"/><path d="M44 166 C144 126 184 226 398 188" fill="none" stroke="hsl(322 18% 28%)" stroke-width="5" stroke-linecap="round" opacity="0.92"/><path d="M31 197 C181 157 221 257 357 175" fill="none" stroke="hsl(322 10% 48%)" stroke-width="3" stroke-linecap="round" opacity="0.92"/><path d="M18 228 C218 188 258 288 386 228" fill="none" stroke="hsl(322 18% 28%)" stroke-width="5" stroke-linecap="round" opacity="0.92"/><path d="M65 259 C255 219 295 319 345 281" fill="none" stroke="hsl(322 10% 48%)" stroke-width="3" stroke-linecap="round" opacity="0.92"/><path d="M52 38 C292 -2 332 98 374 16" fill="none" stroke="hsl(322 18% 28%)" stroke-width="5" stroke-linecap="round" opacity="0.92"/><path d="M39 69 C99 29 139 129 403 69" fill="none" stroke="hsl(322 10% 48%)" stroke-width="3" stroke-linecap="round" opacity="0.92"/><path d="M26 100 C136 60 176 160 362 122" fill="none" stroke="hsl(322 18% 28%)" stroke-width="5" stroke-linecap="round" opacity="0.92"/><path d="M-186 22 C-152 88 -228 168 -166 300" fill="none" stroke="hsl(322 10% 48%)" stroke-width="3" stroke-linecap="round" opacity="0.8"/><path d="M-143 22 C-109 88 -185 168 -123 300" fill="none" stroke="hsl(322 10% 48%)" stroke-width="3" stroke-linecap="round" opacity="0.8"/><path d="M-100 22 C-66 88 -142 168 -80 300" fill="none" stroke="hsl(322 10% 48%)" stroke-width="3" stroke-linecap="round" opacity="0.8"/><path d="M-57 22 C-23 88 -99 168 -37 300" fill="none" stroke="hsl(322 10% 48%)" stroke-width="3" stroke-linecap="round" opacity="0.8"/><path d="M-14 22 C20 88 -56 168 6 300" fill="none" stroke="hsl(322 10% 48%)" stroke-width="3" stroke-linecap="round" opacity="0.8"/></g>
  
  
  
</svg>
