<svg xmlns="http://www.w3.org/2000/svg" viewBox="0 0 420 320" role="img" aria-label="Unlabeled street grid stage 1">
  <rect width="420" height="320" fill="#efe7d2"/>
  
  
  
  <g><path d="M10 104 C87 64 127 164 340 82" fill="none" stroke="hsl(322 18% 28%)" stroke-width="5" stroke-linecap="round" opacity="0.92"/><path d="M57 135 C124 95 164 195 369 135" fill="none" stroke="hsl(322 10% 48%)" stroke-width="3" stroke-linecap="round" opacity="0.92"/><path d="M44 166 C161 126 201 226 398 188" fill="none" stroke="hsl(322 18% 28%)" stroke-width="5" stroke-linecap="round" opacity="0.92"/><path d="M31 197 C198 157 238 257 357 175" fill="none" stroke="hsl(322 10% 48%)" stroke-width="3" stroke-linecap="round" opacity="0.92"/><path d="M18 228 C235 188 275 288 386 228" fill="none" stroke="hsl(322 18% 28%)" stroke-width="5" stroke-linecap="round" opacity="0.92"/><path d="M65 259 C272 219 312 319 345 281" fill="none" stroke="hsl(322 10% 48%)" stroke-width="3" stroke-linecap="round" opacity="0.92"/><path d="M52 38 C79 -2 119 98 374 16" fill="none" stroke="hsl(322 18% 28%)" stroke-width="5" stroke-linecap="round" opacity="0.92"/><path d="M39 69 C116 29 156 129 403 69" fill="none" stroke="hsl(322 10% 48%)" stroke-width="3" stroke-linecap="round" opacity="0.92"/><path d="M26 100 C153 60 193 160 362 122" fill="none" stroke="hsl(322 18% 28%)" stroke-width="5" stroke-linecap="round" opacity="0.92"/><path d="M13 131 C190 91 230 191 391 109" fill="none" stroke="hsl(322 10% 48%)" stroke-width="3" stroke-linecap="round" opacity="0.92"/><path d="M60 162 C227 122 267 222 350 162" fill="none" stroke="hsl(322 18% 28%)" stroke-width="5" stroke-linecap="round" opacity="0.92"/><path d="M47 193 C264 153 304 253 379 215" fill="none" stroke="hsl(322 10% 48%)" stroke-width="3" stroke-linecap="round" opacity="0.92"/><path d="M34 224 C71 184 111 284 408 202" fill="none" stroke="hsl(322 18% 28%)" stroke-width="5" stroke-linecap="round" opacity="0.92"/><path d="M21 255 C108 215 148 315 367 255" fill="none" stroke="hsl(322 10% 48%)" stroke-width="3" stroke-linecap="round" opacity="0.92"/><path d="M68 34 C145 -6 185 94 396 56" fill="none" stroke="hsl(322 18% 28%)" stroke-width="5" stroke-linecap="round" opacity="0.92"/><path d="M55 65 C182 25 222 125 355 43" fill="none" stroke="hsl(322 10% 48%)" stroke-width="3" stroke-linecap="round" opacity="0.92"/><path d="M-186 22 C-152 88 -228 168 -166 300" fill="none" stroke="hsl(322 10% 48%)" stroke-width="3" stroke-linecap="round" opacity="0.8"/><path d="M-143 22 C-109 88 -185 168 -123 300" fill="none" stroke="hsl(322 10% 48%)" stroke-width="3" stroke-linecap="round" opacity="0.8"/><path d="M-100 22 C-66 88 -142 168 -80 300" fill="none" stroke="hsl(322 10% 48%)" stroke-width="3" stroke-linecap="round" opacity="0.8"/><path d="M-57 22 C-23 88 -99 168 -37 300" fill="none" stroke="hsl(322 10% 48%)" stroke-width="3" stroke-linecap="round" opacity="0.8"/><path d="M-14 22 C20 88 -56 168 6 300" fill="none" stroke="hsl(322 10% 48%)" stroke-width="3" stroke-linecap="round" opacity="0.8"/><path d="M29 22 C63 88 -13 168 49 300" fill="none" stroke="hsl(322 10% 48%)" stroke-width="3" stroke-linecap="round" opacity="0.8"/><path d="M-268 22 C-234 88 -310 168 -248 300" fill="none" stroke="hsl(322 10% 48%)" stroke-width="3" stroke-linecap="round" opacity="0.8"/><path d="M-225 22 C-191 88 -267 168 -205 300" fill="none" stroke="hsl(322 10% 48%)" stroke-width="3" stroke-linecap="round" opacity="0.8"/><path d="M-182 22 C-148 88 -224 168 -162 300" fill="none" stroke="hsl(322 10% 48%)" stroke-width="3" stroke-linecap="round" opacity="0.8"/></g>
  
  
  
</svg>
