<svg xmlns="http://www.w3.org/2000/svg" viewBox="0 0 420 320" role="img" aria-label="Unlabeled north-up street-grid crop" data-orientation="north-up">
<metadata>{"orientation":"north-up","projection":"local-web-mercator"}</metadata>
<defs>
<clipPath id="mapCrop"><rect x="8" y="8" width="404" height="304" rx="16"/></clipPath>
</defs>
<rect width="420" height="320" fill="#ede7d8"/>
<rect x="8" y="8" width="404" height="304" rx="16" fill="#f7f1e3" stroke="#d8cbb2" stroke-width="1.25"/>
<g clip-path="url(#mapCrop)">
<g data-layer="major-road-casing">
<path d="M231.1 164.2 L233.1 138.1 M233.5 139.4 L231.7 164.3 M213.5 158.6 L200.1 152.6 M201.5 151.6 L214.6 157.6 M200.2 149.2 L214 133.8 M212.9 135.5 L201.5 150.2 M197.1 150.3 L169.9 137.4 M227.9 166 L216.2 159.9 M216.8 159.3 L229.3 164.6 M214.1 173.1 L226.6 168.3 M226.2 180.7 L205.7 179.9 M233.1 138.1 L218.8 140 L212.9 135.5 M213.3 135.1 L216.4 139 L219.4 139.7 L233.2 137.5 M261.4 181.8 L233.3 168.3 M234.2 166.9 L262 181.2 M196.5 193.8 L229.1 195.2 M220.1 115.4 L171.1 134.3 M215.4 157.6 L216.9 159 L215.2 160.2 M230.8 180.6 L261.4 181.8 M261.4 182.4 L230.8 181.2 M205 176.6 L214.1 173.1 M178.6 130.9 L216.9 116.1 M229.8 180.3 L230.5 169 M215.2 160.2 L213.5 158.6 M231.7 169 L230.7 180.4 M188.4 145.3 L198 149.4 M218.2 157.5 L221.6 155 L222.9 139.5 M178.4 197.6 L180.4 185.1 L180.5 197.7 M233.2 137.5 L254.6 137.3 M181 185.5 L195.3 180.2 M235.6 164.8 L245.8 161 M201.5 150.2 L200.1 152.6 M229.1 195.2 L229.7 181.3 M227.9 167.2 L231.1 164.2 M233.2 136.9 L234.3 122.2 M229.1 195.2 L276.9 197.1 M264.7 153.5 L254.4 137.8 M209.5 134.2 L193.2 140.1 L188.4 145.3 M192.9 158.6 L182.7 170.7 M168.3 137.9 L166.1 162.3 M165 162.2 L166.1 137.7 M197.7 152.9 L192.9 158.6 M183.2 172 L195.8 178.2 M195.1 179.2 L182.4 172.9 M180.9 158.7 L183.5 162.3 L188.3 163.9 M187.9 163.9 L192.1 159 M194.6 156.1 L197.3 152.8 M163.6 163 L137.4 150.1 M135.8 148.9 L164.1 162.6 M167.5 164.5 L179.9 170.7 M167.3 162.9 L179.8 158.4 M179.6 171 L167.2 164.9 M178.1 131 L175.7 127.2 L177.2 106.1 M192.1 159 L194.6 156.1 M179.5 158.7 L167.4 163.1 M218.2 157.5 L216.9 158.6 M185.8 163.9 L180.7 159.1 M216.5 158 L218.2 157.5 M177.3 110.7 L176.1 126.9 L178.6 130.9 M182.3 170.5 L186.3 165.7 M152.4 192 L178.7 193.1 M166.3 165.4 L165.2 176.8 M182.4 172.9 L179.4 171.7 L182.3 170.5 M214.6 108.1 L177.7 106.1 M164 176.6 L164.5 165.3 M260.5 209.7 L262.2 183.3 M263.2 183.4 L261.5 209.8 M198.7 152.7 L197.7 152.9 M197.3 152.8 L197.3 151.9 M240.3 105.9 L242 110 L239 113.6 L233.9 114.3 L229.4 111.4 L229 107.9 L231.8 105.1 L240.3 105.9 M161.7 110 L159.9 131.7 M159.1 131.2 L161.3 110 M187.1 164.8 L185.8 163.9 M187.1 164.8 L187.9 163.9 M186.3 165.7 L187.1 164.8 M212.6 135.3 L209.5 134.2 M159.1 131.2 L125.6 114.6 M125.8 114.4 L159.2 130.9 M153.2 177.9 L131.5 176.7 M182.3 170.5 L183.2 172 M377.9 142.9 L394.5 187.6 M376.4 137.6 L376.2 118.3 M411.3 233.9 L377.6 143.5 M376.9 126.9 L377 137.8 M377.4 104.7 L377.6 99.7 L380.1 98 L409.9 98.2 M376.8 118.4 L376.9 126.9 M192.9 158.6 L194.5 158.2 M186.3 165.7 L185.8 163.9 M377.8 109.1 L376.8 118 M376.7 140.6 L376.4 137.6 M377.6 143.5 L376.7 140.6 M378.1 100.4 L377.8 109.1 M376.2 117.2 L375.9 111.7 M377 137.8 L377.4 140.6 M398.4 198.1 L412.9 235.2 M377.4 140.6 L377.9 142.9 M125.2 7.7 L158.5 22.1 M394.5 187.6 L398.4 198.1 M377.1 109.1 L377.4 104.7 M375.9 111.7 L376.8 109.8 M410.4 99.2 L391.5 98.6 M146.8 17.8 L124.5 7.9 M167 139.7 L167.4 139.7 M156 22 L146.8 17.8 M377.8 109.1 L379.1 123.8 L384.2 124.9 L389.1 129.6 M395.7 130.4 L391.1 130.1 M391.3 129.7 L395.7 130.1 M153.2 177.9 L153.3 177.6 M395.7 130.1 L401.2 130 M401 130.4 L395.7 130.4 M346.6 158 L347.6 160 L343.7 165.4 M377.6 143.5 L375.9 140 L375.8 130.2 M409.9 131 L403.3 130.5 M404.1 130 L410.5 130 M403.5 124.1 L394.6 133.1 L384 134.9 M375.8 129.6 L376.2 117.2 M401.2 130 L404.1 130 M387.8 130 L378.1 139 M345.6 189.3 L348.6 195.5 M403.3 130.5 L401 130.4 M357.2 198.5 L374 199.4 M377.8 130.1 L378.1 139 M382.9 129 L384.9 127 L382.8 124.7 L379.4 124.6 L376.9 126.9 M297.3 161 L297.8 161 M296.3 180.9 L295.7 180.9 M361.7 286 L379.2 310.1 M378.7 310.3 L372.3 300.1 L359.5 286.7 M377 133.6 L380.8 135.5 L383.8 133.4 M384.6 97.4 L409.9 98.2 M378.9 123.5 L377.8 129.5 M259.5 59.8 L256.8 60.7 M175.7 77.7 L175.9 79.3 M133.4 105.5 L134 105.7 M173 77.9 L175 77.8 M411.1 130.9 L409.9 131 M393 181.1 L396 180.1 L398.3 181.8 L394.4 185.7 M394.5 187.6 L398.4 198.1 M399.5 202.8 L395.5 198.6 L388.7 200.1 M386.2 185.7 L393 181.1 M393.4 181.4 L386.7 186.2 M393.7 182.8 L396.4 183.7 L397.9 181.8 L396 180.4 L393.4 181.4 M387 184.8 L389.7 179 M159.6 50.1 L158.2 47.5 M409 199.7 L395.2 197.9 M155.4 79 L154.8 78.8 M382.8 200.8 L389.6 199.2 M345.6 264.8 L355.5 279.6 M360.2 283.8 L361.7 286 M391.3 129.7 L402.9 124 M395 197.6 L406.3 198 M359 286.6 L358 284.7 M358.2 284.4 L360.2 283.8 M361.7 286 L359.5 286.7 M358 284.7 L358.2 284.4 M359.5 286.7 L359 286.6 M36.7 250.2 L32.8 247.5 L26.1 249.3 M311 287.4 L315.5 289.1 M281.3 294.1 L282.8 292.2 M234.8 123.1 L233.7 136.9 M254.8 137.7 L265.2 153.3 M205.7 179.9 L199.3 179.5 M164.8 137 L135.7 148.4 M234.2 166.1 L231.7 169 M134.5 147.5 L164 135.7 M254.4 137.8 L243.6 121.8 M219.2 128.8 L212.9 135.5 M197.1 207.6 L227.3 209.1 M249.4 138.5 L235.4 138.2 M196.5 187.2 L196.1 180.8 M227.3 209.8 L197.1 208.5 M244.2 121.8 L254.6 137.3 M248.5 160 L261 155.2 M178.7 193.1 L196 193.8 M201.9 177.7 L205 176.6 M171.1 136.1 L180.4 141.3 M198.9 178.5 L201.9 177.7 M230.4 181.4 L229.9 187.5 M184.2 143.2 L188.4 145.3 M214 133.8 L218.3 128.9 M197.3 182.6 L197 187.3 M273 166.3 L264.7 153.5 M198 209.3 L223.9 221.1 M228.8 209.1 L259.4 210.4 M229.9 187.5 L229.4 195.2 M228 208.8 L229.1 195.2 M259.3 211.2 L228.6 210 M254.6 137.3 L263.4 133 L270.4 126.8 M214.8 136.4 L211.9 136.6 M221.6 221.2 L197.7 209.6 M180.4 141.3 L184.2 143.2 M269.6 128.2 L254.8 137.7 M270.4 126.8 L248.8 117.2 M250.3 115.5 L270.6 126.5 M268.8 152.2 L290.2 144 M220 126.9 L224.9 121.3 M286.6 186.1 L274.6 168.6 M275.7 168.1 L287.2 185.8 M270.6 126.5 L297.5 139.3 M245.8 161 L248.5 160 M248.5 160 L245.8 161 M229.4 195.2 L228.7 204.1 M133.2 152.9 L131.8 173.7 M196 193.8 L196.3 189.6 M193.3 207.2 L180.1 200.7 M225.3 121.7 L221.1 126.7 M230.7 221.7 L259.3 211.3 M196.8 189.8 L196.5 193.8 M170.6 133.5 L178.1 131 M259.9 211.9 L231.5 222.8 M197 187.3 L196.8 189.8 M276.5 203 L278.9 189.3 L293.1 183.6 M196.3 189.6 L196.5 187.2 M261 155.2 L268.8 152.2 M268.8 152.2 L261 155.2 M245 98.6 L252.1 106.4 L252.5 110.7 L250.3 115.5 M221.1 126.7 L219.2 128.8 M218.3 128.9 L220 126.9 M196.5 193.8 L196.2 197.8 M195.7 197.8 L196 193.8 M164.1 206.1 L178.3 200.6 M179.3 81 L222.1 102 M164.2 134 L167.5 132.4 L170.6 133.5 M254.8 137.7 L249.4 138.5 M221.6 102.6 L172.7 78.6 M180.5 197.7 L179 201 L178.4 197.6 M264.7 182.1 L261.4 182.4 L262.8 180.9 L264.7 182.1 M234.3 122.2 L227.6 120.7 M241.8 121.3 L234.3 122.2 M275.3 188.5 L264 183.2 M264.7 182.6 L275.8 188.3 M273.4 166 L275.9 166.7 L275.4 168.3 L272.8 168.1 L273.4 166 M224.9 119.3 L220.1 115.4 M269.6 160 L273.9 165.9 M194.4 235.5 L222.7 224.7 M223.4 225.7 L195.2 236.6 M109.7 135.4 L133.4 147.4 M196.2 197.8 L195.9 201.2 M265.2 153.3 L267.5 156.7 M195.9 201.2 L195.6 205.8 M194.3 206.7 L195.4 201.8 M226.1 220.6 L227.5 210 M181.3 213.4 L192.1 209.2 M195.5 200.5 L195.7 197.8 M164.2 207.1 L176.9 213.3 M228.3 210.1 L228.2 220.8 M267.5 156.7 L269.6 160 M229.4 68.9 L228.5 96.2 L231.1 96.9 M219.7 114.3 L218.4 108.5 M176.1 214 L163.4 208 M343.8 132.8 L253.8 88.2 M227.6 120.7 L224.9 119.3 M226.7 98.4 L228.6 90 L229 69 M180.6 217.9 L191 233.6 M259.7 237.3 L280.3 214.8 L283.6 210.6 L283.1 208.4 M230.9 224.7 L256.9 237.8 M228.7 204.1 L228.3 208.8 M275.7 120.5 L291.5 102.4 M291.9 102.6 L276.1 120.7 M283.3 133.2 L272.3 127.6 M255.9 239 L229.8 226.1 M262 210 L276.5 203 M248.8 117.2 L244.3 120.4 M287.2 210.4 L284 210.7 L263.1 234.9 M302.6 185.9 L305.4 185.6 L341.8 143.6 M322.5 160.4 L301.9 143.1 M216.9 116.1 L219.7 114.3 M279.5 206.4 L273 206.4 L262.6 210.7 M162.2 208.2 L160.2 206.7 L162.4 205.2 L164.2 206.7 L162.2 208.2 M218.4 108.5 L221.6 102.6 M342.6 143.8 L305.9 185.8 L306.4 187.6 M224.4 250.6 L225.8 227.3 M244.5 98.3 L259.4 81 M227.4 227.3 L225.8 250.8 M267.3 73.1 L245 98.6 M148.2 206.2 L160.2 206.7 M275.5 98.6 L344.3 132.2 M161.4 218.3 L162.1 208.2 M231.1 96.9 L244.5 98.3 M196.6 209.3 L193.2 209 M253.6 87.6 L275.5 98.6 M262.6 181 L263.6 171.5 M193 208.6 L194.3 206.7 M275.3 166.1 L297.5 158.2 M211.5 136.4 L211.3 134.7 M263.8 171.6 L263.6 181 M123.1 143 L132.2 147.8 M120.4 205 L141.5 205.8 M211.4 134.2 L214 133.8 M195.3 237.1 L223.5 250.9 M297.5 158.6 L276.1 167.1 M195.5 209.7 L196.3 227.2 L189.3 230.8 M189.1 230.5 L195.9 227.4 L194.4 209.7 M299.1 143.3 L296.3 180.9 M222 251.1 L194.8 237.8 M161.8 222.8 L159.8 248 M187.3 165.1 L187.1 164.8 M341.8 143.6 L301.7 141.1 M180.7 159.1 L179.5 158.7 M158.7 247.9 L160.6 222.8 M179.8 158.4 L180.9 158.7 M306.4 187.6 L313.2 192.7 L312.4 203.9 L310.1 207.4 L304.3 209.5 M87.6 210 L81 193.5 L81.9 183.8 L84.8 176.7 L91.4 168.1 L98.4 162.6 L121.8 152.4 M129.5 206.6 L128.1 232.3 M183.2 172 L182.4 172.9 M211.4 134.2 L212.9 134.9 M209.5 134.2 L211.4 134.2 M126.9 232.2 L129 206.6 M165.2 176.8 L165.5 179.3 L162.4 178.5 M137.1 176.9 L153.3 177.6 M160.9 248.5 L190.9 237 M121.9 152.8 L99.6 162.2 L91.5 168.6 L85 177.2 L82.1 184.4 L81.4 193.9 L84.4 204 L89 211 M277.3 192.5 L275.3 188.5 M295.7 180.9 L297.5 158.6 M296.7 140.1 L288.2 135.7 M191.4 237.8 L161.4 249.4 M228.2 220.8 L231.5 222.8 L229.3 226.5 M153.3 177.6 L162.4 177.8 M162.4 178.2 L153.2 177.9 M222.1 102 L226.7 98.4 M123.1 143 L109.6 136.8 M226.1 120.2 L231.7 113.4 M122.4 151 L123.1 143 M167.4 163.1 L166.3 165.4 M264.1 171.2 L272.4 167.3 M193.5 87.9 L177.8 105.7 M291.6 241.5 L293.3 215.1 L291 212.4 M275.8 188.3 L280.6 188.4 M272.8 168.1 L264.1 171.4 M234.3 122.2 L234.8 114.4 M226.3 251 L255.7 240.1 M272.4 124.3 L275.7 120.5 M296.1 212.6 L293.9 214.7 L292 241.4 M176 214.6 L179.8 213.4 M276.1 120.7 L273 124.5 M255.8 240.7 L227.1 252 M229.6 111.7 L220.1 115.4 M129.9 149.6 L123.9 151.9 M249.7 116.1 L248.8 117.2 M134.3 150.2 L133.2 152.9 M288.2 135.7 L283.3 133.2 M270.6 126.5 L272.4 124.3 M158.6 219.5 L132 206.4 M290.2 144 L296.5 141.2 M273 124.5 L271 126.7 M158.3 219.8 L131.9 206.7 M135.3 149.8 L132.2 149.5 M133.2 152.9 L133 150.2 M166.1 162.3 L167.4 163.1 M159.2 130.9 L165.6 132.8 M193.8 238.4 L191.3 263.8 M131.8 173.7 L131.5 176.7 M131.5 176.7 L131.8 173.7 M312.8 141.1 L339.7 142.2 M190.5 264.7 L192.3 238.3 M164 134.6 L159.1 131.2 M258.4 237.2 L260.4 212.1 M163.5 164.6 L163.6 163 M107.8 134.7 L141.8 95.5 M261.4 212.1 L259.3 237.2 M141.5 205.8 L148.2 206.2 M226.7 98.4 L231.1 96.9 M161.6 104 L162.3 97.9 L173.1 85.2 L172.7 80.5 M304.3 209.5 L303.6 210.7 L318.6 233.1 M310.1 189.3 L315 190.2 L330.2 184.6 M116.4 204.8 L96.8 203.9 L86.6 207.7 M232 262.9 L255.8 240.4 M129.6 234.4 L157.6 248.3 M174.8 78.8 L173.1 81.2 L173.9 85.4 L163.2 97.9 L162.4 104 M142.9 95.4 L118.7 123.7 M257.1 240.9 L232.5 263.1 M107.1 136.3 L87.6 125.3 L79 105 M79.7 104.7 L88.3 124.8 L107.4 134.9 M164.5 165.3 L163.5 164.6 M165 162.2 L166.1 162.3 M301.6 210.6 L292.7 212.8 L287.2 210.4 M180.6 217.9 L178.6 216.4 M157 249 L128.8 235.4 M164.1 162.6 L165 162.2 M297.5 158.6 L298.7 143.3 M163.6 220.8 L161.1 222.8 L159.1 220.6 M293.4 143 L290.2 144 M166.3 165.4 L165.4 165.5 M165.4 165.5 L164.5 165.3 M162.4 177.8 L164 176.6 M279.5 206.4 L276.5 203 M259.4 210.4 L262 210 M224.6 226.8 L222.4 223.9 M318.1 233.3 L301.6 210.6 M293.1 183.6 L298.2 183.4 M177.7 106.1 L163.7 105.2 M342.3 167.6 L325.6 163 L322.5 160.4 M297.1 142.2 L293.4 143 M163.6 163 L164.1 162.6 M89 211 L99.1 219.7 L125.9 232.6 M330.4 185.1 L313.2 192.7 M164 176.6 L165.2 176.8 M193.1 264.4 L221.5 253.5 M229.8 106.6 L221.6 102.6 M322.5 160.4 L327.5 163.2 L342.4 166.4 M221.7 253.8 L193.2 264.7 M125.1 233.5 L97.3 218.9 L89.7 212.4 M297.5 139.3 L301.7 140.5 M118.6 176.1 L98.7 175.3 L89.5 170.8 M301.7 140.5 L308.4 140.9 M160.7 104.7 L141.8 95.5 M298.2 183.4 L302.6 185.9 M142.9 95.4 L161 104.3 M120.4 205 L118.3 206.4 L116.4 204.8 L118.4 203.4 L120.4 205 M263.9 171 L263.9 171 M178.8 131.2 L178.6 130.9 M178.4 131.4 L178.1 131 M241 112.1 L245.9 114.4 M342.4 166.6 L345 148 L343.4 144.3 M250.2 103.1 L241.2 106.8 M283.1 208.4 L279.5 206.4 M229 69 L176.8 75.5 M345.1 145.8 L343.4 167.8 M259.4 81 L272.4 66.2 M159.9 219.7 L163 219.9 M239.1 105.1 L245.2 98.7 M174.9 215.7 L164.1 219.9 M236.4 96.3 L235.8 104.3 M245.9 114.4 L249.7 116.1 M162.4 178.2 L162.4 177.8 M162.4 178.5 L162.4 178.2 M287.2 210.4 L283.1 208.4 M161.3 72.4 L142.9 95.4 M177.7 106.1 L177.3 110.7 M192.8 235.2 L195.2 236.3 L193.8 238.4 M142.1 95.1 L158.9 74 M161.3 72.4 L174.3 78.6 M157.9 84.6 L150.2 93.2 L152.1 97.1 L150.8 99.2 M291.5 102.4 L294.3 92.6 M338.1 213.7 L325.9 212.4 L314.4 207.6 M204.3 72.4 L201.4 75.2 L201.2 79.2 L193.5 87.9 M314.6 207.2 L326 212.2 L337.7 213.4 M172.7 78.6 L160.3 72.9 M302.6 185.9 L306.4 187.6 M226 39.3 L226.4 53.8 L229.4 68.9 M300.2 125.7 L299.3 137.4 M294.3 92.6 L296.5 75.6 M217.2 108.3 L214.6 108.1 M297.1 75.7 L294.8 92.6 M118.6 176.1 L120.9 174.7 L122.5 176.6 L120.2 177.7 L118.6 176.1 M131.5 176.7 L123.3 176.3 M345 77.1 L297.1 75.7 L273.9 66.4 M118.7 123.7 L109.7 135.4 M308.4 140.9 L312.8 141.1 M283.6 210.6 L284 210.7 M192.3 238.3 L191.4 235.7 M280.7 91.3 L260.1 81.1 M329 185 L342.1 178 M79.4 103 L100.8 82.5 L116.8 60.9 M343.4 167.8 L342.5 183.1 M141.1 270.5 L157.5 250.8 M294.3 96.7 L291.9 102.6 M158.4 251.3 L141.1 270.5 M133.7 176.7 L137.1 176.9 M118.9 56.2 L116.4 64 L100.7 83.7 L80.1 103.9 M218.4 108.5 L217.2 108.3 M341.5 188.9 L339.3 183.4 L330.4 185.1 M161.9 106.3 L161.7 110 M161.3 110 L161.4 106.2 M347.5 130.8 L345.3 108.7 L346.1 87.9 M137.4 150.1 L135.6 149.4 M347.1 86.3 L346 107.2 L348.4 131.3 M274.8 65.7 L294.3 74.4 M163.7 105.2 L161.9 106.3 L160.7 104.7 M229 69 L226.7 59.1 M341.1 197.9 L341.8 183.4 M341.9 198.4 L341.2 213.3 L344.8 260.1 M149.7 64.9 L121.2 54.6 M161.2 250.3 L158.4 251.3 L157 249 L159.8 248 L161.2 250.3 M299.2 243 L318.1 233.3 M318.4 233.6 L299.5 243.4 M183.5 51.9 L176.8 75.5 M176.2 79.5 L179.3 81 M232.5 263.1 L201.3 290.9 M243.7 56 L225.4 58.7 M152.3 64 L155.4 69 L161.3 72.4 M226.7 59.1 L225.4 39.1 M225.2 58.3 L243.5 55.6 M226.3 253.7 L232.5 263.1 M131.5 176.7 L133.7 176.7 M121.7 53.5 L149.2 63.1 M331.1 184.3 L341.5 180.3 M293.1 183.6 L295.7 180.9 M199.6 291.6 L230.1 264.8 M302 68.4 L278.1 61.6 M341.5 180.6 L331.3 184.7 M77.9 104.8 L66.2 124.2 L53.7 137.4 L24.3 155.1 L11.7 167.9 M174.9 215.7 L176 214.6 M342.1 177.5 L342.3 167.6 M67.6 227.7 L87.3 211.5 M260 238.2 L257.1 240.9 M177.2 106.1 L177.7 106.1 M176.8 216 L174.9 215.7 M231.2 262.1 L225.4 254 M87.4 212 L67.8 228.1 M256.6 56.6 L272.2 64.8 M278.4 61.3 L302 67.6 M264.9 236.4 L284.7 244.7 M341.9 197.9 L378.8 200.6 M171.1 272.6 L155 270.2 L127 272.5 M255.8 240.4 L256.9 237.8 M191.8 266 L199.2 289.6 M126.2 271.3 L138.1 272 L155.2 269.8 L170.9 272.2 M158.3 71.9 L149.7 64.9 M225.4 254 L222.6 252.9 L224.4 250.6 M262.1 236.2 L260 238.2 M161.6 104 L163.7 105.2 M256.9 237.8 L259.7 237.3 M302 68.4 L317.6 72.9 L344.7 76.3 M212.7 58 L198.7 54.3 M304.3 209.5 L301.6 210.6 M138.5 176.9 L138.5 177.2 M302.9 68.3 L317.4 72.3 L335.5 74.3 M199 291.9 L190.7 266.2 M318.6 233.1 L337.8 224.2 M296.3 180.9 L298.2 183.4" fill="none" stroke="#fcf7e8" stroke-width="6.4" opacity="0.92" stroke-linecap="round" stroke-linejoin="round"/>
</g>
<g data-layer="major-road">
<path d="M231.1 164.2 L233.1 138.1 M233.5 139.4 L231.7 164.3 M213.5 158.6 L200.1 152.6 M201.5 151.6 L214.6 157.6 M200.2 149.2 L214 133.8 M212.9 135.5 L201.5 150.2 M197.1 150.3 L169.9 137.4 M227.9 166 L216.2 159.9 M216.8 159.3 L229.3 164.6 M214.1 173.1 L226.6 168.3 M226.2 180.7 L205.7 179.9 M233.1 138.1 L218.8 140 L212.9 135.5 M213.3 135.1 L216.4 139 L219.4 139.7 L233.2 137.5 M261.4 181.8 L233.3 168.3 M234.2 166.9 L262 181.2 M196.5 193.8 L229.1 195.2 M220.1 115.4 L171.1 134.3 M215.4 157.6 L216.9 159 L215.2 160.2 M230.8 180.6 L261.4 181.8 M261.4 182.4 L230.8 181.2 M205 176.6 L214.1 173.1 M178.6 130.9 L216.9 116.1 M229.8 180.3 L230.5 169 M215.2 160.2 L213.5 158.6 M231.7 169 L230.7 180.4 M188.4 145.3 L198 149.4 M218.2 157.5 L221.6 155 L222.9 139.5 M178.4 197.6 L180.4 185.1 L180.5 197.7 M233.2 137.5 L254.6 137.3 M181 185.5 L195.3 180.2 M235.6 164.8 L245.8 161 M201.5 150.2 L200.1 152.6 M229.1 195.2 L229.7 181.3 M227.9 167.2 L231.1 164.2 M233.2 136.9 L234.3 122.2 M229.1 195.2 L276.9 197.1 M264.7 153.5 L254.4 137.8 M209.5 134.2 L193.2 140.1 L188.4 145.3 M192.9 158.6 L182.7 170.7 M168.3 137.9 L166.1 162.3 M165 162.2 L166.1 137.7 M197.7 152.9 L192.9 158.6 M183.2 172 L195.8 178.2 M195.1 179.2 L182.4 172.9 M180.9 158.7 L183.5 162.3 L188.3 163.9 M187.9 163.9 L192.1 159 M194.6 156.1 L197.3 152.8 M163.6 163 L137.4 150.1 M135.8 148.9 L164.1 162.6 M167.5 164.5 L179.9 170.7 M167.3 162.9 L179.8 158.4 M179.6 171 L167.2 164.9 M178.1 131 L175.7 127.2 L177.2 106.1 M192.1 159 L194.6 156.1 M179.5 158.7 L167.4 163.1 M218.2 157.5 L216.9 158.6 M185.8 163.9 L180.7 159.1 M216.5 158 L218.2 157.5 M177.3 110.7 L176.1 126.9 L178.6 130.9 M182.3 170.5 L186.3 165.7 M152.4 192 L178.7 193.1 M166.3 165.4 L165.2 176.8 M182.4 172.9 L179.4 171.7 L182.3 170.5 M214.6 108.1 L177.7 106.1 M164 176.6 L164.5 165.3 M260.5 209.7 L262.2 183.3 M263.2 183.4 L261.5 209.8 M198.7 152.7 L197.7 152.9 M197.3 152.8 L197.3 151.9 M240.3 105.9 L242 110 L239 113.6 L233.9 114.3 L229.4 111.4 L229 107.9 L231.8 105.1 L240.3 105.9 M161.7 110 L159.9 131.7 M159.1 131.2 L161.3 110 M187.1 164.8 L185.8 163.9 M187.1 164.8 L187.9 163.9 M186.3 165.7 L187.1 164.8 M212.6 135.3 L209.5 134.2 M159.1 131.2 L125.6 114.6 M125.8 114.4 L159.2 130.9 M153.2 177.9 L131.5 176.7 M182.3 170.5 L183.2 172 M377.9 142.9 L394.5 187.6 M376.4 137.6 L376.2 118.3 M411.3 233.9 L377.6 143.5 M376.9 126.9 L377 137.8 M377.4 104.7 L377.6 99.7 L380.1 98 L409.9 98.2 M376.8 118.4 L376.9 126.9 M192.9 158.6 L194.5 158.2 M186.3 165.7 L185.8 163.9 M377.8 109.1 L376.8 118 M376.7 140.6 L376.4 137.6 M377.6 143.5 L376.7 140.6 M378.1 100.4 L377.8 109.1 M376.2 117.2 L375.9 111.7 M377 137.8 L377.4 140.6 M398.4 198.1 L412.9 235.2 M377.4 140.6 L377.9 142.9 M125.2 7.7 L158.5 22.1 M394.5 187.6 L398.4 198.1 M377.1 109.1 L377.4 104.7 M375.9 111.7 L376.8 109.8 M410.4 99.2 L391.5 98.6 M146.8 17.8 L124.5 7.9 M167 139.7 L167.4 139.7 M156 22 L146.8 17.8 M377.8 109.1 L379.1 123.8 L384.2 124.9 L389.1 129.6 M395.7 130.4 L391.1 130.1 M391.3 129.7 L395.7 130.1 M153.2 177.9 L153.3 177.6 M395.7 130.1 L401.2 130 M401 130.4 L395.7 130.4 M346.6 158 L347.6 160 L343.7 165.4 M377.6 143.5 L375.9 140 L375.8 130.2 M409.9 131 L403.3 130.5 M404.1 130 L410.5 130 M403.5 124.1 L394.6 133.1 L384 134.9 M375.8 129.6 L376.2 117.2 M401.2 130 L404.1 130 M387.8 130 L378.1 139 M345.6 189.3 L348.6 195.5 M403.3 130.5 L401 130.4 M357.2 198.5 L374 199.4 M377.8 130.1 L378.1 139 M382.9 129 L384.9 127 L382.8 124.7 L379.4 124.6 L376.9 126.9 M297.3 161 L297.8 161 M296.3 180.9 L295.7 180.9 M361.7 286 L379.2 310.1 M378.7 310.3 L372.3 300.1 L359.5 286.7 M377 133.6 L380.8 135.5 L383.8 133.4 M384.6 97.4 L409.9 98.2 M378.9 123.5 L377.8 129.5 M259.5 59.8 L256.8 60.7 M175.7 77.7 L175.9 79.3 M133.4 105.5 L134 105.7 M173 77.9 L175 77.8 M411.1 130.9 L409.9 131 M393 181.1 L396 180.1 L398.3 181.8 L394.4 185.7 M394.5 187.6 L398.4 198.1 M399.5 202.8 L395.5 198.6 L388.7 200.1 M386.2 185.7 L393 181.1 M393.4 181.4 L386.7 186.2 M393.7 182.8 L396.4 183.7 L397.9 181.8 L396 180.4 L393.4 181.4 M387 184.8 L389.7 179 M159.6 50.1 L158.2 47.5 M409 199.7 L395.2 197.9 M155.4 79 L154.8 78.8 M382.8 200.8 L389.6 199.2 M345.6 264.8 L355.5 279.6 M360.2 283.8 L361.7 286 M391.3 129.7 L402.9 124 M395 197.6 L406.3 198 M359 286.6 L358 284.7 M358.2 284.4 L360.2 283.8 M361.7 286 L359.5 286.7 M358 284.7 L358.2 284.4 M359.5 286.7 L359 286.6 M36.7 250.2 L32.8 247.5 L26.1 249.3 M311 287.4 L315.5 289.1 M281.3 294.1 L282.8 292.2 M234.8 123.1 L233.7 136.9 M254.8 137.7 L265.2 153.3 M205.7 179.9 L199.3 179.5 M164.8 137 L135.7 148.4 M234.2 166.1 L231.7 169 M134.5 147.5 L164 135.7 M254.4 137.8 L243.6 121.8 M219.2 128.8 L212.9 135.5 M197.1 207.6 L227.3 209.1 M249.4 138.5 L235.4 138.2 M196.5 187.2 L196.1 180.8 M227.3 209.8 L197.1 208.5 M244.2 121.8 L254.6 137.3 M248.5 160 L261 155.2 M178.7 193.1 L196 193.8 M201.9 177.7 L205 176.6 M171.1 136.1 L180.4 141.3 M198.9 178.5 L201.9 177.7 M230.4 181.4 L229.9 187.5 M184.2 143.2 L188.4 145.3 M214 133.8 L218.3 128.9 M197.3 182.6 L197 187.3 M273 166.3 L264.7 153.5 M198 209.3 L223.9 221.1 M228.8 209.1 L259.4 210.4 M229.9 187.5 L229.4 195.2 M228 208.8 L229.1 195.2 M259.3 211.2 L228.6 210 M254.6 137.3 L263.4 133 L270.4 126.8 M214.8 136.4 L211.9 136.6 M221.6 221.2 L197.7 209.6 M180.4 141.3 L184.2 143.2 M269.6 128.2 L254.8 137.7 M270.4 126.8 L248.8 117.2 M250.3 115.5 L270.6 126.5 M268.8 152.2 L290.2 144 M220 126.9 L224.9 121.3 M286.6 186.1 L274.6 168.6 M275.7 168.1 L287.2 185.8 M270.6 126.5 L297.5 139.3 M245.8 161 L248.5 160 M248.5 160 L245.8 161 M229.4 195.2 L228.7 204.1 M133.2 152.9 L131.8 173.7 M196 193.8 L196.3 189.6 M193.3 207.2 L180.1 200.7 M225.3 121.7 L221.1 126.7 M230.7 221.7 L259.3 211.3 M196.8 189.8 L196.5 193.8 M170.6 133.5 L178.1 131 M259.9 211.9 L231.5 222.8 M197 187.3 L196.8 189.8 M276.5 203 L278.9 189.3 L293.1 183.6 M196.3 189.6 L196.5 187.2 M261 155.2 L268.8 152.2 M268.8 152.2 L261 155.2 M245 98.6 L252.1 106.4 L252.5 110.7 L250.3 115.5 M221.1 126.7 L219.2 128.8 M218.3 128.9 L220 126.9 M196.5 193.8 L196.2 197.8 M195.7 197.8 L196 193.8 M164.1 206.1 L178.3 200.6 M179.3 81 L222.1 102 M164.2 134 L167.5 132.4 L170.6 133.5 M254.8 137.7 L249.4 138.5 M221.6 102.6 L172.7 78.6 M180.5 197.7 L179 201 L178.4 197.6 M264.7 182.1 L261.4 182.4 L262.8 180.9 L264.7 182.1 M234.3 122.2 L227.6 120.7 M241.8 121.3 L234.3 122.2 M275.3 188.5 L264 183.2 M264.7 182.6 L275.8 188.3 M273.4 166 L275.9 166.7 L275.4 168.3 L272.8 168.1 L273.4 166 M224.9 119.3 L220.1 115.4 M269.6 160 L273.9 165.9 M194.4 235.5 L222.7 224.7 M223.4 225.7 L195.2 236.6 M109.7 135.4 L133.4 147.4 M196.2 197.8 L195.9 201.2 M265.2 153.3 L267.5 156.7 M195.9 201.2 L195.6 205.8 M194.3 206.7 L195.4 201.8 M226.1 220.6 L227.5 210 M181.3 213.4 L192.1 209.2 M195.5 200.5 L195.7 197.8 M164.2 207.1 L176.9 213.3 M228.3 210.1 L228.2 220.8 M267.5 156.7 L269.6 160 M229.4 68.9 L228.5 96.2 L231.1 96.9 M219.7 114.3 L218.4 108.5 M176.1 214 L163.4 208 M343.8 132.8 L253.8 88.2 M227.6 120.7 L224.9 119.3 M226.7 98.4 L228.6 90 L229 69 M180.6 217.9 L191 233.6 M259.7 237.3 L280.3 214.8 L283.6 210.6 L283.1 208.4 M230.9 224.7 L256.9 237.8 M228.7 204.1 L228.3 208.8 M275.7 120.5 L291.5 102.4 M291.9 102.6 L276.1 120.7 M283.3 133.2 L272.3 127.6 M255.9 239 L229.8 226.1 M262 210 L276.5 203 M248.8 117.2 L244.3 120.4 M287.2 210.4 L284 210.7 L263.1 234.9 M302.6 185.9 L305.4 185.6 L341.8 143.6 M322.5 160.4 L301.9 143.1 M216.9 116.1 L219.7 114.3 M279.5 206.4 L273 206.4 L262.6 210.7 M162.2 208.2 L160.2 206.7 L162.4 205.2 L164.2 206.7 L162.2 208.2 M218.4 108.5 L221.6 102.6 M342.6 143.8 L305.9 185.8 L306.4 187.6 M224.4 250.6 L225.8 227.3 M244.5 98.3 L259.4 81 M227.4 227.3 L225.8 250.8 M267.3 73.1 L245 98.6 M148.2 206.2 L160.2 206.7 M275.5 98.6 L344.3 132.2 M161.4 218.3 L162.1 208.2 M231.1 96.9 L244.5 98.3 M196.6 209.3 L193.2 209 M253.6 87.6 L275.5 98.6 M262.6 181 L263.6 171.5 M193 208.6 L194.3 206.7 M275.3 166.1 L297.5 158.2 M211.5 136.4 L211.3 134.7 M263.8 171.6 L263.6 181 M123.1 143 L132.2 147.8 M120.4 205 L141.5 205.8 M211.4 134.2 L214 133.8 M195.3 237.1 L223.5 250.9 M297.5 158.6 L276.1 167.1 M195.5 209.7 L196.3 227.2 L189.3 230.8 M189.1 230.5 L195.9 227.4 L194.4 209.7 M299.1 143.3 L296.3 180.9 M222 251.1 L194.8 237.8 M161.8 222.8 L159.8 248 M187.3 165.1 L187.1 164.8 M341.8 143.6 L301.7 141.1 M180.7 159.1 L179.5 158.7 M158.7 247.9 L160.6 222.8 M179.8 158.4 L180.9 158.7 M306.4 187.6 L313.2 192.7 L312.4 203.9 L310.1 207.4 L304.3 209.5 M87.6 210 L81 193.5 L81.9 183.8 L84.8 176.7 L91.4 168.1 L98.4 162.6 L121.8 152.4 M129.5 206.6 L128.1 232.3 M183.2 172 L182.4 172.9 M211.4 134.2 L212.9 134.9 M209.5 134.2 L211.4 134.2 M126.9 232.2 L129 206.6 M165.2 176.8 L165.5 179.3 L162.4 178.5 M137.1 176.9 L153.3 177.6 M160.9 248.5 L190.9 237 M121.9 152.8 L99.6 162.2 L91.5 168.6 L85 177.2 L82.1 184.4 L81.4 193.9 L84.4 204 L89 211 M277.3 192.5 L275.3 188.5 M295.7 180.9 L297.5 158.6 M296.7 140.1 L288.2 135.7 M191.4 237.8 L161.4 249.4 M228.2 220.8 L231.5 222.8 L229.3 226.5 M153.3 177.6 L162.4 177.8 M162.4 178.2 L153.2 177.9 M222.1 102 L226.7 98.4 M123.1 143 L109.6 136.8 M226.1 120.2 L231.7 113.4 M122.4 151 L123.1 143 M167.4 163.1 L166.3 165.4 M264.1 171.2 L272.4 167.3 M193.5 87.9 L177.8 105.7 M291.6 241.5 L293.3 215.1 L291 212.4 M275.8 188.3 L280.6 188.4 M272.8 168.1 L264.1 171.4 M234.3 122.2 L234.8 114.4 M226.3 251 L255.7 240.1 M272.4 124.3 L275.7 120.5 M296.1 212.6 L293.9 214.7 L292 241.4 M176 214.6 L179.8 213.4 M276.1 120.7 L273 124.5 M255.8 240.7 L227.1 252 M229.6 111.7 L220.1 115.4 M129.9 149.6 L123.9 151.9 M249.7 116.1 L248.8 117.2 M134.3 150.2 L133.2 152.9 M288.2 135.7 L283.3 133.2 M270.6 126.5 L272.4 124.3 M158.6 219.5 L132 206.4 M290.2 144 L296.5 141.2 M273 124.5 L271 126.7 M158.3 219.8 L131.9 206.7 M135.3 149.8 L132.2 149.5 M133.2 152.9 L133 150.2 M166.1 162.3 L167.4 163.1 M159.2 130.9 L165.6 132.8 M193.8 238.4 L191.3 263.8 M131.8 173.7 L131.5 176.7 M131.5 176.7 L131.8 173.7 M312.8 141.1 L339.7 142.2 M190.5 264.7 L192.3 238.3 M164 134.6 L159.1 131.2 M258.4 237.2 L260.4 212.1 M163.5 164.6 L163.6 163 M107.8 134.7 L141.8 95.5 M261.4 212.1 L259.3 237.2 M141.5 205.8 L148.2 206.2 M226.7 98.4 L231.1 96.9 M161.6 104 L162.3 97.9 L173.1 85.2 L172.7 80.5 M304.3 209.5 L303.6 210.7 L318.6 233.1 M310.1 189.3 L315 190.2 L330.2 184.6 M116.4 204.8 L96.8 203.9 L86.6 207.7 M232 262.9 L255.8 240.4 M129.6 234.4 L157.6 248.3 M174.8 78.8 L173.1 81.2 L173.9 85.4 L163.2 97.9 L162.4 104 M142.9 95.4 L118.7 123.7 M257.1 240.9 L232.5 263.1 M107.1 136.3 L87.6 125.3 L79 105 M79.7 104.7 L88.3 124.8 L107.4 134.9 M164.5 165.3 L163.5 164.6 M165 162.2 L166.1 162.3 M301.6 210.6 L292.7 212.8 L287.2 210.4 M180.6 217.9 L178.6 216.4 M157 249 L128.8 235.4 M164.1 162.6 L165 162.2 M297.5 158.6 L298.7 143.3 M163.6 220.8 L161.1 222.8 L159.1 220.6 M293.4 143 L290.2 144 M166.3 165.4 L165.4 165.5 M165.4 165.5 L164.5 165.3 M162.4 177.8 L164 176.6 M279.5 206.4 L276.5 203 M259.4 210.4 L262 210 M224.6 226.8 L222.4 223.9 M318.1 233.3 L301.6 210.6 M293.1 183.6 L298.2 183.4 M177.7 106.1 L163.7 105.2 M342.3 167.6 L325.6 163 L322.5 160.4 M297.1 142.2 L293.4 143 M163.6 163 L164.1 162.6 M89 211 L99.1 219.7 L125.9 232.6 M330.4 185.1 L313.2 192.7 M164 176.6 L165.2 176.8 M193.1 264.4 L221.5 253.5 M229.8 106.6 L221.6 102.6 M322.5 160.4 L327.5 163.2 L342.4 166.4 M221.7 253.8 L193.2 264.7 M125.1 233.5 L97.3 218.9 L89.7 212.4 M297.5 139.3 L301.7 140.5 M118.6 176.1 L98.7 175.3 L89.5 170.8 M301.7 140.5 L308.4 140.9 M160.7 104.7 L141.8 95.5 M298.2 183.4 L302.6 185.9 M142.9 95.4 L161 104.3 M120.4 205 L118.3 206.4 L116.4 204.8 L118.4 203.4 L120.4 205 M263.9 171 L263.9 171 M178.8 131.2 L178.6 130.9 M178.4 131.4 L178.1 131 M241 112.1 L245.9 114.4 M342.4 166.6 L345 148 L343.4 144.3 M250.2 103.1 L241.2 106.8 M283.1 208.4 L279.5 206.4 M229 69 L176.8 75.5 M345.1 145.8 L343.4 167.8 M259.4 81 L272.4 66.2 M159.9 219.7 L163 219.9 M239.1 105.1 L245.2 98.7 M174.9 215.7 L164.1 219.9 M236.4 96.3 L235.8 104.3 M245.9 114.4 L249.7 116.1 M162.4 178.2 L162.4 177.8 M162.4 178.5 L162.4 178.2 M287.2 210.4 L283.1 208.4 M161.3 72.4 L142.9 95.4 M177.7 106.1 L177.3 110.7 M192.8 235.2 L195.2 236.3 L193.8 238.4 M142.1 95.1 L158.9 74 M161.3 72.4 L174.3 78.6 M157.9 84.6 L150.2 93.2 L152.1 97.1 L150.8 99.2 M291.5 102.4 L294.3 92.6 M338.1 213.7 L325.9 212.4 L314.4 207.6 M204.3 72.4 L201.4 75.2 L201.2 79.2 L193.5 87.9 M314.6 207.2 L326 212.2 L337.7 213.4 M172.7 78.6 L160.3 72.9 M302.6 185.9 L306.4 187.6 M226 39.3 L226.4 53.8 L229.4 68.9 M300.2 125.7 L299.3 137.4 M294.3 92.6 L296.5 75.6 M217.2 108.3 L214.6 108.1 M297.1 75.7 L294.8 92.6 M118.6 176.1 L120.9 174.7 L122.5 176.6 L120.2 177.7 L118.6 176.1 M131.5 176.7 L123.3 176.3 M345 77.1 L297.1 75.7 L273.9 66.4 M118.7 123.7 L109.7 135.4 M308.4 140.9 L312.8 141.1 M283.6 210.6 L284 210.7 M192.3 238.3 L191.4 235.7 M280.7 91.3 L260.1 81.1 M329 185 L342.1 178 M79.4 103 L100.8 82.5 L116.8 60.9 M343.4 167.8 L342.5 183.1 M141.1 270.5 L157.5 250.8 M294.3 96.7 L291.9 102.6 M158.4 251.3 L141.1 270.5 M133.7 176.7 L137.1 176.9 M118.9 56.2 L116.4 64 L100.7 83.7 L80.1 103.9 M218.4 108.5 L217.2 108.3 M341.5 188.9 L339.3 183.4 L330.4 185.1 M161.9 106.3 L161.7 110 M161.3 110 L161.4 106.2 M347.5 130.8 L345.3 108.7 L346.1 87.9 M137.4 150.1 L135.6 149.4 M347.1 86.3 L346 107.2 L348.4 131.3 M274.8 65.7 L294.3 74.4 M163.7 105.2 L161.9 106.3 L160.7 104.7 M229 69 L226.7 59.1 M341.1 197.9 L341.8 183.4 M341.9 198.4 L341.2 213.3 L344.8 260.1 M149.7 64.9 L121.2 54.6 M161.2 250.3 L158.4 251.3 L157 249 L159.8 248 L161.2 250.3 M299.2 243 L318.1 233.3 M318.4 233.6 L299.5 243.4 M183.5 51.9 L176.8 75.5 M176.2 79.5 L179.3 81 M232.5 263.1 L201.3 290.9 M243.7 56 L225.4 58.7 M152.3 64 L155.4 69 L161.3 72.4 M226.7 59.1 L225.4 39.1 M225.2 58.3 L243.5 55.6 M226.3 253.7 L232.5 263.1 M131.5 176.7 L133.7 176.7 M121.7 53.5 L149.2 63.1 M331.1 184.3 L341.5 180.3 M293.1 183.6 L295.7 180.9 M199.6 291.6 L230.1 264.8 M302 68.4 L278.1 61.6 M341.5 180.6 L331.3 184.7 M77.9 104.8 L66.2 124.2 L53.7 137.4 L24.3 155.1 L11.7 167.9 M174.9 215.7 L176 214.6 M342.1 177.5 L342.3 167.6 M67.6 227.7 L87.3 211.5 M260 238.2 L257.1 240.9 M177.2 106.1 L177.7 106.1 M176.8 216 L174.9 215.7 M231.2 262.1 L225.4 254 M87.4 212 L67.8 228.1 M256.6 56.6 L272.2 64.8 M278.4 61.3 L302 67.6 M264.9 236.4 L284.7 244.7 M341.9 197.9 L378.8 200.6 M171.1 272.6 L155 270.2 L127 272.5 M255.8 240.4 L256.9 237.8 M191.8 266 L199.2 289.6 M126.2 271.3 L138.1 272 L155.2 269.8 L170.9 272.2 M158.3 71.9 L149.7 64.9 M225.4 254 L222.6 252.9 L224.4 250.6 M262.1 236.2 L260 238.2 M161.6 104 L163.7 105.2 M256.9 237.8 L259.7 237.3 M302 68.4 L317.6 72.9 L344.7 76.3 M212.7 58 L198.7 54.3 M304.3 209.5 L301.6 210.6 M138.5 176.9 L138.5 177.2 M302.9 68.3 L317.4 72.3 L335.5 74.3 M199 291.9 L190.7 266.2 M318.6 233.1 L337.8 224.2 M296.3 180.9 L298.2 183.4" fill="none" stroke="#1f3733" stroke-width="2.7" opacity="0.9" stroke-linecap="round" stroke-linejoin="round"/>
</g>
<g data-layer="minor-road-casing">
<path d="M282.9 33.1 L290 38.8 L300.4 40.3 L307 43.5 L330.2 61.6 L339.4 71.1 L339.1 73.3 M342.8 229.8 L357 229.5 L359.5 261.5 L345.2 262.8 M234.6 118.6 L242.9 116.8 L247.4 112.2 L247.4 106.5 L242.2 101.4 L234.4 99.9 L227.1 102.3 L223.2 107.5 L224.4 113.6 M344.9 144.3 L350.2 146.1 L361.6 155.3 L367.3 164.3 L375.3 183.7 M150.2 99.5 L116 138.7 M83.1 269.8 L85.1 271.1 L79.7 280.1 L64.5 304.8 L62.1 304.4 M61.7 304.2 L59.7 303 L72.2 282.2 L80.1 269.5 L82.7 269.6 M34.3 256.9 L30.1 255 L13.8 262 L18.7 268.1 L30.6 255.1 M238.7 268.2 L209.7 294 L210 300.6 M336.6 132.9 L293.8 111 M144 152.9 L142.9 172.6 L163.5 164.6 M91.2 288.7 L46.8 273.2 M337.7 225.6 L340.6 226.8 L343 258.6 L340.1 259.5 M79.9 104.5 L95 116.7 L106.6 117.7 L115.9 122 L117.1 124.4 M374.7 305.5 L378.7 311.4 L361.4 309.4 L354.3 303.9 L364.5 301.6 M142.9 57.7 L145.1 55.4 L137.7 51.5 L133.1 56.7 L144.5 61.1 L151.7 53.5 M292.7 257.2 L294.2 291.8 M290.4 289.7 L288 255.1 M337.7 225.6 L321.6 234.1 L332.4 250.7 M257.3 48.7 L234.1 20.6 M297 287.7 L297.4 254.7 M346.2 262.7 L343.8 229.7 M310.7 150.6 L308.1 152.6 L306.2 173.7 L303.8 176.8 L296.6 176.6 M25.1 75.7 L62.3 92.9 M135.8 273.3 L131.8 293 L137.9 297.1 L136 301.6 L137.5 302.6 M302.9 68.3 L304.6 67.2 L317.9 70.5 L343.1 72.2 M222.1 124.5 L218.7 122.2 L199.8 129.3 L193.4 136.1 L189 136 M193.2 271.9 L181.2 275.7 L188.5 288.1 L198.3 286.7 M334.9 93.5 L294.3 92.6 M188.7 60.1 L227.9 64.7 M151.6 246.1 L134.5 265.2 L134.1 271.9 M265.2 8.7 L277.3 25.6 L283.9 28.5 L286.1 32.1 M88.7 56.6 L88.4 55.1 L109.9 32.4 M319.8 114.1 L299.9 104.3 L300.6 93 M272.5 239.5 L285.6 218.9 L293.1 219.1 M34.1 118.2 L42.5 108.3 L24 99.5 M107.4 223.9 L113.4 217.6 L140.8 218.4 M163.4 257.6 L174.7 254.4 L180.3 257.4 L178.6 261.8 L167.8 265.5 M22.7 288.6 L31.2 270.5 L37.8 263.5 M138.7 260.6 L128.3 255.1 L135.9 251.8 L144.1 242.4 M33.5 298.3 L24 296.6 L13.3 310 L8.2 308.7 M189.4 231.1 L168.5 238.7 L164.9 242.7 L167.4 246.4 M81.4 55.9 L115.9 51.6 M127.6 205.2 L126.1 230.2 L127.4 230.6 M123.8 205.1 L122 231.1 M232 160.4 L238.5 160.4 L263.5 150.8 M131.3 150.7 L129.6 176.6 M126.1 176.5 L126.8 150.8 M215 299 L215.1 295.3 L230.8 281.5 L227.3 278.9 M239.6 267 L261.6 247.7 M127.9 230.6 L129.4 230.7 L131.2 206.7 M312.8 110.6 L313.5 99.3 L294.9 98.6 M303.8 210.1 L317.5 230.5 L319.7 229.7 M110.4 245.3 L118.5 245.8 L126.4 259 L122.5 260.6 M47.4 264.3 L77.2 274.3 M196.5 199.9 L228.6 200.1 M208.8 16 L197.1 28.2 L185.6 26.7 M123.5 142.5 L140.9 122 M198.8 187.8 L229.3 191.2 M118.7 123.7 L144.7 136.4 M157.3 125.2 L148.6 120.3 L157.1 110.1 L161.3 110 M346.8 98.4 L361.5 103.1 L360.3 107.9 L367.2 109.7 M284.9 87.9 L264.9 77.5 L261.3 81.7 M271.8 126.5 L297.7 139.2 M316.4 231.5 L302.7 210.7 M112.1 171.1 L123 167.1 L123.5 159.6 L119.7 153.7 M198.5 64.1 L216.2 68.3 L226.4 67.1 M69.9 290.9 L41.8 281.4 M181.4 234 L174.6 223.5 L187.8 218.3 M157.1 102.8 L140.9 122 M296.6 140.4 L271.6 127.6 M167.7 144.9 L172.4 142.5 L188.3 150.1 L193.4 150.4 M72.1 252.4 L51.3 245.2 L48.4 240.3 M335.5 179.2 L338.2 178 L338.2 170.9 L333.6 168.3 L329.9 169.9 L326.2 168.3 L324.8 170 M298.3 153.5 L272.1 163.8 M325.7 238.7 L332.2 236 L338.2 239.8 L335.4 244.2 L329.7 246.2 M290.2 219 L289.2 238.8 L292 238.8 M189.1 74.5 L187.2 66.6 L190.5 53 M266.8 236.2 L264.4 234.9 L278.8 218.8 M259.7 144.9 L279.1 137.8 L283.1 133.4 M288 135.9 L284.5 140.6 L294 154.9 M267.5 156.7 L241.9 166.2 M78.9 237.3 L66.9 246.7 L59.8 240.4 M62.7 298 L37.1 289.2 M359.1 257.9 L387.2 256.5 M230.5 173.6 L237.2 174.9 L240.6 176.7 L241 178.9 L251.5 179.4 L251.4 181.9 M255.2 285.6 L282.8 283.1 M221.6 75.8 L206.4 93 M255.2 281.5 L282.6 279.2 M283 287.1 L255.7 289.5 M197.2 176.4 L198.6 160.6 L193.5 157.8 M282.7 290.8 L256 293.2 M95.6 248.9 L97.8 249.9 L96.5 252.5 L88.9 264.6 L86.3 264.3 M226.1 52.5 L204.5 50 L200.8 47.6 M85.9 264.2 L83.8 263.2 L92.6 248.5 L95.1 248.8 M245.3 140.9 L244.7 148 L246.3 149.6 L259.2 145.1 M229.2 74.7 L227.8 94.5 M217 122.8 L217.8 124.8 L200.4 131.4 L198.1 134 M156.4 129.5 L158.2 109.9 M30.6 71.3 L52.7 81.7 M166.8 144.6 L188.9 155.1 M228.6 96.4 L230.5 76.9 M302.3 307.7 L303.5 307.9 L302.9 305.8 L297.6 306.3 L299.6 318.6 M9.6 37.4 L16.1 37 L22.9 23.7 M159.8 126.8 L160.5 107.7 M200.2 274.4 L202.9 281.6 L213.3 272.7 M49.8 251.3 L66.1 256.9 L69.5 251.6 M30.1 255 L25.8 250.8 L9.9 258 M96.9 243.3 L95.1 236.3 L102.1 236.7 L108.7 241.3 M152.2 224.3 L129.4 233.1 M133.2 227.1 L134.6 208 M288.5 83.7 L267.3 73.1 M266.2 236.9 L280 220.9 M284.5 140.6 L261.6 148.7 M144 152.9 L166.7 144.6 M301.6 64.2 L304.3 57.9 L307 56.2 L310.2 47.2 M166.6 143.9 L162.4 142.4 L144.3 149.3 M159.4 155.1 L161.7 158.1 L170.3 158.2 L172.2 152.4 L170.7 150.1 M199.1 72.7 L197.3 60.3 L198.7 54.3 M164.2 48.3 L167.2 39.8 L179.2 40.8 M269.6 160 L291.6 151.6 M333.1 112.6 L319.8 114.1 L313.4 121 M15.2 82.1 L11.1 85 L15.9 91.9 L15.4 98.4 M293.9 165.2 L289.2 167.1 L288.7 175.9 L296.1 176.6 M46.2 78.7 L55.1 68 L61.6 71 M289.3 148.3 L267.5 156.7 M176.1 235.9 L165 219.6 M402.3 310.8 L403.8 306.5 L406.6 304.6 L406.3 293.5 M24.4 11.3 L1.4 17.5 M215.3 156.8 L216 138.7 M207.5 258.8 L215.1 269.5 L221.1 273.4 M201.8 45.6 L225.8 44.6 M284.4 278.9 L287.2 287.6 L287.1 290.2 L285.1 289.8 L285 286.2 L286.4 285.8 M31.5 293.3 L12.6 282.6 M177.3 110.7 L196.1 111.8 L199.7 109.6 M138.7 234.4 L153 241.7 L159.5 242.3 M88.5 48.1 L68.4 38.7 M314.8 228.2 L302.4 232.1 L292.3 231.6 M301.5 119.8 L283.9 112.8 L281.8 115 M66.6 32.8 L78.9 17.7 M258.9 50.1 L278.8 59.2 M285.8 225.8 L284.9 240.8 L283.3 242.9 M198.1 169.1 L205.4 169 L205.8 162.7 L199 160.5 M321.5 55.4 L317.7 58.9 L317.5 63.9 L313.4 65.2 L312 69.1 M224.6 275.7 L209.8 289.1 M167.7 246.6 L177 262.5 M227.8 307.3 L205.4 310.1 M337.5 223.8 L332.5 217.6 L321.2 222.6 M210.5 262.9 L198.5 267.7 L200.2 274.4 M324.3 234 L333.2 232.9 L334.6 229.4 L337.1 228.6 L338.4 232.1 M318.7 93.8 L319.7 76.8 M60.1 67.3 L48.1 81.7 M158.3 138.6 L155.6 134.2 L141.9 127.8 M263.4 171.2 L249 163.6 L246.8 160.4 M38.9 113.6 L19.9 104.6 M245.1 11.5 L240.3 23.4 L236.7 26.4 M26.1 68.3 L48.1 65.7 M194.5 275.6 L201.1 274.1 L213.1 267 M358.6 252.1 L349.7 252.6 L349.5 249.4 L358.4 249.1 M193.8 157.5 L198.9 160.7 L197.9 172.1 M26.6 291.4 L9.9 301.7 M33.8 303.1 L28.4 302.6 L27 308.6 L34.7 310.3 M170.4 40.4 L175.8 24.5 M188.1 89.3 L178.4 99.5 L181 102.3 M9.4 301.3 L26.1 291.1 M61.1 16.4 L79.7 24.9 M353.7 72.3 L352.6 56.1 M81.3 23 L63.2 14 M121.3 52.8 L134.1 39.6 M34.1 118.2 L15.7 109.8 M329.4 212.8 L330.1 204.8 L340.9 205 M178.8 47 L199.9 50.4 M179.9 44.1 L200.8 47.6 M166 93.7 L159.5 90 L157.1 91.4 L156.6 92.6 L163.9 96 M258.5 31 L256.5 37.6 L245.1 36.1 M26.3 250.9 L32.4 248.4 L37.7 252 L33.6 256.5 M28.3 73.7 L46.2 82.2 M41 104.8 L54.5 102.3 L58.5 97.6 M50 242.3 L48.4 245.2 L41.3 248.4 L49.3 251.1 M101.8 13.5 L94 10 L100.6 2.4 M248.6 138.6 L257.8 152.9 M344.1 233.3 L352.5 232.9 L352.7 236.1 L344.3 236.7 M203.2 31.4 L215.8 33.2 L223.6 31 M267.3 130.6 L284.9 139.2 M209.5 88.9 L227.4 97.3 M345.5 256.1 L354.4 255.8 L354.2 258.4 L345.7 259.1 M246.8 160.4 L242.5 153.7 L243 147.1 L244.8 146.1 M84.3 239.9 L87.1 237.5 L75.2 228.8 M343.8 40.8 L345.3 56.3 M22.7 8.7 L25.2 14.5 L22.9 23.7 M160.1 232.8 L157.7 232.4 L157 227.9 L156.6 236.2 M292.6 228.4 L285.4 228 L273.3 223.5 M316.6 173.6 L325.3 177.9 L330.2 184.6 M183 53.2 L202.4 55.3 M220.5 309.2 L200.1 309.7 M333.1 175.2 L335.6 172.7 L332.1 171.1 L325.1 177.8 M344 67.4 L364.3 68.5 M112.5 8.6 L130.4 16.2 M102.8 20.5 L119.9 28.8 M328.5 244.7 L334.8 239.8 L332 238.3 L325.5 240.6 M121.8 26.4 L104.5 18.4 M317.4 131.3 L309.2 124.7 L300.9 124.2 M11.7 84.6 L28.2 93.2 M279.9 117.3 L296.6 125.7 M321.7 45.1 L341.8 46.3 M8.1 261.4 L18.4 274.4 M132.2 14.1 L114.5 6.8 M57.4 247.3 L58.6 244.4 L56.5 243.9 L52.4 250.5 L55.4 250.5 M266.9 130.4 L250.6 122.5 M281.8 115 L298.4 123.3 M185.2 26.6 L171 23.1 L166 23.7 M332.5 58.4 L332.7 51.4 L337.3 48.8 L342 48.9 M290.3 248.1 L292.1 255.8 L301.2 256.7 M193.4 24 L197.8 25.4 L206.3 16.1 M363.4 60.5 L343.5 61.2 M188.3 127.5 L188.8 138.7 L192.5 140.7 M10.4 85.5 L14.2 92.8 L13.2 96.6 L9.7 95.4 M51.4 77.7 L68.3 85.4 M363.2 48.3 L358.3 34 M131.7 55.8 L142.9 43.7 M191.7 13.9 L172.4 11.9 M137.1 176.9 L137.8 164.8 L134.4 164.7 M169.2 90 L152.8 82.1 M295.2 127.4 L307.3 127.8 L312.1 132 M214.2 112.7 L201.6 111.8 L199.4 107.2 M212 265.2 L229.2 258.4 M279.7 59.7 L285.4 45.8 M32.2 260.4 L47.7 269 M337.5 223.8 L321.3 231.4 M119.7 214.1 L108.7 208.6 L108 204.4 M178.7 74.2 L182.6 60.3 M331.3 126.7 L333.1 112.6 M399.8 310.1 L382.7 304.1 M216.7 270.8 L201.8 279.4 M254.5 21.3 L262.1 18.5 L267.1 12.5 M361.9 55.7 L343.2 56.4 M9.5 120.7 L23.7 116.4 L24.6 114.1 M190.6 52.5 L194.6 38.9 M65.8 57.9 L65.8 44.4 M139.4 112 L154.9 119.4" fill="none" stroke="#fbf7eb" stroke-width="3.4" opacity="0.62" stroke-linecap="round" stroke-linejoin="round"/>
</g>
<g data-layer="minor-road">
<path d="M282.9 33.1 L290 38.8 L300.4 40.3 L307 43.5 L330.2 61.6 L339.4 71.1 L339.1 73.3 M342.8 229.8 L357 229.5 L359.5 261.5 L345.2 262.8 M234.6 118.6 L242.9 116.8 L247.4 112.2 L247.4 106.5 L242.2 101.4 L234.4 99.9 L227.1 102.3 L223.2 107.5 L224.4 113.6 M344.9 144.3 L350.2 146.1 L361.6 155.3 L367.3 164.3 L375.3 183.7 M150.2 99.5 L116 138.7 M83.1 269.8 L85.1 271.1 L79.7 280.1 L64.5 304.8 L62.1 304.4 M61.7 304.2 L59.7 303 L72.2 282.2 L80.1 269.5 L82.7 269.6 M34.3 256.9 L30.1 255 L13.8 262 L18.7 268.1 L30.6 255.1 M238.7 268.2 L209.7 294 L210 300.6 M336.6 132.9 L293.8 111 M144 152.9 L142.9 172.6 L163.5 164.6 M91.2 288.7 L46.8 273.2 M337.7 225.6 L340.6 226.8 L343 258.6 L340.1 259.5 M79.9 104.5 L95 116.7 L106.6 117.7 L115.9 122 L117.1 124.4 M374.7 305.5 L378.7 311.4 L361.4 309.4 L354.3 303.9 L364.5 301.6 M142.9 57.7 L145.1 55.4 L137.7 51.5 L133.1 56.7 L144.5 61.1 L151.7 53.5 M292.7 257.2 L294.2 291.8 M290.4 289.7 L288 255.1 M337.7 225.6 L321.6 234.1 L332.4 250.7 M257.3 48.7 L234.1 20.6 M297 287.7 L297.4 254.7 M346.2 262.7 L343.8 229.7 M310.7 150.6 L308.1 152.6 L306.2 173.7 L303.8 176.8 L296.6 176.6 M25.1 75.7 L62.3 92.9 M135.8 273.3 L131.8 293 L137.9 297.1 L136 301.6 L137.5 302.6 M302.9 68.3 L304.6 67.2 L317.9 70.5 L343.1 72.2 M222.1 124.5 L218.7 122.2 L199.8 129.3 L193.4 136.1 L189 136 M193.2 271.9 L181.2 275.7 L188.5 288.1 L198.3 286.7 M334.9 93.5 L294.3 92.6 M188.7 60.1 L227.9 64.7 M151.6 246.1 L134.5 265.2 L134.1 271.9 M265.2 8.7 L277.3 25.6 L283.9 28.5 L286.1 32.1 M88.7 56.6 L88.4 55.1 L109.9 32.4 M319.8 114.1 L299.9 104.3 L300.6 93 M272.5 239.5 L285.6 218.9 L293.1 219.1 M34.1 118.2 L42.5 108.3 L24 99.5 M107.4 223.9 L113.4 217.6 L140.8 218.4 M163.4 257.6 L174.7 254.4 L180.3 257.4 L178.6 261.8 L167.8 265.5 M22.7 288.6 L31.2 270.5 L37.8 263.5 M138.7 260.6 L128.3 255.1 L135.9 251.8 L144.1 242.4 M33.5 298.3 L24 296.6 L13.3 310 L8.2 308.7 M189.4 231.1 L168.5 238.7 L164.9 242.7 L167.4 246.4 M81.4 55.9 L115.9 51.6 M127.6 205.2 L126.1 230.2 L127.4 230.6 M123.8 205.1 L122 231.1 M232 160.4 L238.5 160.4 L263.5 150.8 M131.3 150.7 L129.6 176.6 M126.1 176.5 L126.8 150.8 M215 299 L215.1 295.3 L230.8 281.5 L227.3 278.9 M239.6 267 L261.6 247.7 M127.9 230.6 L129.4 230.7 L131.2 206.7 M312.8 110.6 L313.5 99.3 L294.9 98.6 M303.8 210.1 L317.5 230.5 L319.7 229.7 M110.4 245.3 L118.5 245.8 L126.4 259 L122.5 260.6 M47.4 264.3 L77.2 274.3 M196.5 199.9 L228.6 200.1 M208.8 16 L197.1 28.2 L185.6 26.7 M123.5 142.5 L140.9 122 M198.8 187.8 L229.3 191.2 M118.7 123.7 L144.7 136.4 M157.3 125.2 L148.6 120.3 L157.1 110.1 L161.3 110 M346.8 98.4 L361.5 103.1 L360.3 107.9 L367.2 109.7 M284.9 87.9 L264.9 77.5 L261.3 81.7 M271.8 126.5 L297.7 139.2 M316.4 231.5 L302.7 210.7 M112.1 171.1 L123 167.1 L123.5 159.6 L119.7 153.7 M198.5 64.1 L216.2 68.3 L226.4 67.1 M69.9 290.9 L41.8 281.4 M181.4 234 L174.6 223.5 L187.8 218.3 M157.1 102.8 L140.9 122 M296.6 140.4 L271.6 127.6 M167.7 144.9 L172.4 142.5 L188.3 150.1 L193.4 150.4 M72.1 252.4 L51.3 245.2 L48.4 240.3 M335.5 179.2 L338.2 178 L338.2 170.9 L333.6 168.3 L329.9 169.9 L326.2 168.3 L324.8 170 M298.3 153.5 L272.1 163.8 M325.7 238.7 L332.2 236 L338.2 239.8 L335.4 244.2 L329.7 246.2 M290.2 219 L289.2 238.8 L292 238.8 M189.1 74.5 L187.2 66.6 L190.5 53 M266.8 236.2 L264.4 234.9 L278.8 218.8 M259.7 144.9 L279.1 137.8 L283.1 133.4 M288 135.9 L284.5 140.6 L294 154.9 M267.5 156.7 L241.9 166.2 M78.9 237.3 L66.9 246.7 L59.8 240.4 M62.7 298 L37.1 289.2 M359.1 257.9 L387.2 256.5 M230.5 173.6 L237.2 174.9 L240.6 176.7 L241 178.9 L251.5 179.4 L251.4 181.9 M255.2 285.6 L282.8 283.1 M221.6 75.8 L206.4 93 M255.2 281.5 L282.6 279.2 M283 287.1 L255.7 289.5 M197.2 176.4 L198.6 160.6 L193.5 157.8 M282.7 290.8 L256 293.2 M95.6 248.9 L97.8 249.9 L96.5 252.5 L88.9 264.6 L86.3 264.3 M226.1 52.5 L204.5 50 L200.8 47.6 M85.9 264.2 L83.8 263.2 L92.6 248.5 L95.1 248.8 M245.3 140.9 L244.7 148 L246.3 149.6 L259.2 145.1 M229.2 74.7 L227.8 94.5 M217 122.8 L217.8 124.8 L200.4 131.4 L198.1 134 M156.4 129.5 L158.2 109.9 M30.6 71.3 L52.7 81.7 M166.8 144.6 L188.9 155.1 M228.6 96.4 L230.5 76.9 M302.3 307.7 L303.5 307.9 L302.9 305.8 L297.6 306.3 L299.6 318.6 M9.6 37.4 L16.1 37 L22.9 23.7 M159.8 126.8 L160.5 107.7 M200.2 274.4 L202.9 281.6 L213.3 272.7 M49.8 251.3 L66.1 256.9 L69.5 251.6 M30.1 255 L25.8 250.8 L9.9 258 M96.9 243.3 L95.1 236.3 L102.1 236.7 L108.7 241.3 M152.2 224.3 L129.4 233.1 M133.2 227.1 L134.6 208 M288.5 83.7 L267.3 73.1 M266.2 236.9 L280 220.9 M284.5 140.6 L261.6 148.7 M144 152.9 L166.7 144.6 M301.6 64.2 L304.3 57.9 L307 56.2 L310.2 47.2 M166.6 143.9 L162.4 142.4 L144.3 149.3 M159.4 155.1 L161.7 158.1 L170.3 158.2 L172.2 152.4 L170.7 150.1 M199.1 72.7 L197.3 60.3 L198.7 54.3 M164.2 48.3 L167.2 39.8 L179.2 40.8 M269.6 160 L291.6 151.6 M333.1 112.6 L319.8 114.1 L313.4 121 M15.2 82.1 L11.1 85 L15.9 91.9 L15.4 98.4 M293.9 165.2 L289.2 167.1 L288.7 175.9 L296.1 176.6 M46.2 78.7 L55.1 68 L61.6 71 M289.3 148.3 L267.5 156.7 M176.1 235.9 L165 219.6 M402.3 310.8 L403.8 306.5 L406.6 304.6 L406.3 293.5 M24.4 11.3 L1.4 17.5 M215.3 156.8 L216 138.7 M207.5 258.8 L215.1 269.5 L221.1 273.4 M201.8 45.6 L225.8 44.6 M284.4 278.9 L287.2 287.6 L287.1 290.2 L285.1 289.8 L285 286.2 L286.4 285.8 M31.5 293.3 L12.6 282.6 M177.3 110.7 L196.1 111.8 L199.7 109.6 M138.7 234.4 L153 241.7 L159.5 242.3 M88.5 48.1 L68.4 38.7 M314.8 228.2 L302.4 232.1 L292.3 231.6 M301.5 119.8 L283.9 112.8 L281.8 115 M66.6 32.8 L78.9 17.7 M258.9 50.1 L278.8 59.2 M285.8 225.8 L284.9 240.8 L283.3 242.9 M198.1 169.1 L205.4 169 L205.8 162.7 L199 160.5 M321.5 55.4 L317.7 58.9 L317.5 63.9 L313.4 65.2 L312 69.1 M224.6 275.7 L209.8 289.1 M167.7 246.6 L177 262.5 M227.8 307.3 L205.4 310.1 M337.5 223.8 L332.5 217.6 L321.2 222.6 M210.5 262.9 L198.5 267.7 L200.2 274.4 M324.3 234 L333.2 232.9 L334.6 229.4 L337.1 228.6 L338.4 232.1 M318.7 93.8 L319.7 76.8 M60.1 67.3 L48.1 81.7 M158.3 138.6 L155.6 134.2 L141.9 127.8 M263.4 171.2 L249 163.6 L246.8 160.4 M38.9 113.6 L19.9 104.6 M245.1 11.5 L240.3 23.4 L236.7 26.4 M26.1 68.3 L48.1 65.7 M194.5 275.6 L201.1 274.1 L213.1 267 M358.6 252.1 L349.7 252.6 L349.5 249.4 L358.4 249.1 M193.8 157.5 L198.9 160.7 L197.9 172.1 M26.6 291.4 L9.9 301.7 M33.8 303.1 L28.4 302.6 L27 308.6 L34.7 310.3 M170.4 40.4 L175.8 24.5 M188.1 89.3 L178.4 99.5 L181 102.3 M9.4 301.3 L26.1 291.1 M61.1 16.4 L79.7 24.9 M353.7 72.3 L352.6 56.1 M81.3 23 L63.2 14 M121.3 52.8 L134.1 39.6 M34.1 118.2 L15.7 109.8 M329.4 212.8 L330.1 204.8 L340.9 205 M178.8 47 L199.9 50.4 M179.9 44.1 L200.8 47.6 M166 93.7 L159.5 90 L157.1 91.4 L156.6 92.6 L163.9 96 M258.5 31 L256.5 37.6 L245.1 36.1 M26.3 250.9 L32.4 248.4 L37.7 252 L33.6 256.5 M28.3 73.7 L46.2 82.2 M41 104.8 L54.5 102.3 L58.5 97.6 M50 242.3 L48.4 245.2 L41.3 248.4 L49.3 251.1 M101.8 13.5 L94 10 L100.6 2.4 M248.6 138.6 L257.8 152.9 M344.1 233.3 L352.5 232.9 L352.7 236.1 L344.3 236.7 M203.2 31.4 L215.8 33.2 L223.6 31 M267.3 130.6 L284.9 139.2 M209.5 88.9 L227.4 97.3 M345.5 256.1 L354.4 255.8 L354.2 258.4 L345.7 259.1 M246.8 160.4 L242.5 153.7 L243 147.1 L244.8 146.1 M84.3 239.9 L87.1 237.5 L75.2 228.8 M343.8 40.8 L345.3 56.3 M22.7 8.7 L25.2 14.5 L22.9 23.7 M160.1 232.8 L157.7 232.4 L157 227.9 L156.6 236.2 M292.6 228.4 L285.4 228 L273.3 223.5 M316.6 173.6 L325.3 177.9 L330.2 184.6 M183 53.2 L202.4 55.3 M220.5 309.2 L200.1 309.7 M333.1 175.2 L335.6 172.7 L332.1 171.1 L325.1 177.8 M344 67.4 L364.3 68.5 M112.5 8.6 L130.4 16.2 M102.8 20.5 L119.9 28.8 M328.5 244.7 L334.8 239.8 L332 238.3 L325.5 240.6 M121.8 26.4 L104.5 18.4 M317.4 131.3 L309.2 124.7 L300.9 124.2 M11.7 84.6 L28.2 93.2 M279.9 117.3 L296.6 125.7 M321.7 45.1 L341.8 46.3 M8.1 261.4 L18.4 274.4 M132.2 14.1 L114.5 6.8 M57.4 247.3 L58.6 244.4 L56.5 243.9 L52.4 250.5 L55.4 250.5 M266.9 130.4 L250.6 122.5 M281.8 115 L298.4 123.3 M185.2 26.6 L171 23.1 L166 23.7 M332.5 58.4 L332.7 51.4 L337.3 48.8 L342 48.9 M290.3 248.1 L292.1 255.8 L301.2 256.7 M193.4 24 L197.8 25.4 L206.3 16.1 M363.4 60.5 L343.5 61.2 M188.3 127.5 L188.8 138.7 L192.5 140.7 M10.4 85.5 L14.2 92.8 L13.2 96.6 L9.7 95.4 M51.4 77.7 L68.3 85.4 M363.2 48.3 L358.3 34 M131.7 55.8 L142.9 43.7 M191.7 13.9 L172.4 11.9 M137.1 176.9 L137.8 164.8 L134.4 164.7 M169.2 90 L152.8 82.1 M295.2 127.4 L307.3 127.8 L312.1 132 M214.2 112.7 L201.6 111.8 L199.4 107.2 M212 265.2 L229.2 258.4 M279.7 59.7 L285.4 45.8 M32.2 260.4 L47.7 269 M337.5 223.8 L321.3 231.4 M119.7 214.1 L108.7 208.6 L108 204.4 M178.7 74.2 L182.6 60.3 M331.3 126.7 L333.1 112.6 M399.8 310.1 L382.7 304.1 M216.7 270.8 L201.8 279.4 M254.5 21.3 L262.1 18.5 L267.1 12.5 M361.9 55.7 L343.2 56.4 M9.5 120.7 L23.7 116.4 L24.6 114.1 M190.6 52.5 L194.6 38.9 M65.8 57.9 L65.8 44.4 M139.4 112 L154.9 119.4" fill="none" stroke="#69776e" stroke-width="1.25" opacity="0.58" stroke-linecap="round" stroke-linejoin="round"/>
</g>
</g>
<g data-layer="north-up-compass" fill="none" stroke="#233934" stroke-linecap="round" stroke-linejoin="round" opacity="0.62">
<path d="M382 48L382 23" stroke-width="1.8"/>
<path d="M382 23L373 39M382 23L391 39" stroke-width="1.8"/>
<circle cx="382" cy="48" r="13" stroke-width="1.1" opacity="0.38"/>
</g>
<rect x="8" y="8" width="404" height="304" rx="16" fill="none" stroke="#233934" stroke-width="1.4" opacity="0.44"/>
</svg>
