<svg xmlns="http://www.w3.org/2000/svg" viewBox="0 0 420 320" role="img" aria-label="Unlabeled north-up street-grid crop" data-orientation="north-up">
<metadata>{"orientation":"north-up","projection":"local-web-mercator"}</metadata>
<defs>
<clipPath id="mapCrop"><rect x="8" y="8" width="404" height="304" rx="16"/></clipPath>
</defs>
<rect width="420" height="320" fill="#ede7d8"/>
<rect x="8" y="8" width="404" height="304" rx="16" fill="#f7f1e3" stroke="#d8cbb2" stroke-width="1.25"/>
<g clip-path="url(#mapCrop)">
<g data-layer="water-casing">
<path d="M381.9 270.1 L394 270.2 L393.8 276.5 L402.8 283.1 L401 283.9 L403 289.3 L406.1 287.7 L407.6 283.5 L410.1 285.6 L409.1 294.1 L402 298.7 L405.4 298.9 L410.1 278 L403.9 277.8 L390.9 266.1 L389.3 269.6 L384.9 269.4 L385.3 265.7 L381.9 270.1 Z" fill="#d9f2fb" stroke="#d9f2fb" stroke-width="2.4" opacity="0.9" stroke-linecap="round" stroke-linejoin="round"/>
<path d="M359.5 220.4 L360.8 219.7 L369.5 228.5 L372.6 221.4 L378.5 221.6 L378.2 229.8 L373.8 229.4 L380.4 233.9 L376.6 236.4 L373.5 235.3 L372.9 239.2 L369.4 238.1 L369.6 233.1 L365.2 229.5 L359.5 220.4 Z" fill="#d9f2fb" stroke="#d9f2fb" stroke-width="2.4" opacity="0.9" stroke-linecap="round" stroke-linejoin="round"/>
<path d="M357.3 281.4 L356.3 289.2 L358.1 285.5 L364.5 282.2 L370.9 282.2 L376.4 277.9 L379.3 279 L378.8 277 L383.1 272.1 L380.4 269.8 L376 271.4 L374 270.3 L372.6 272.9 L374.3 274.7 L369.9 276.2 L370.4 278.4 L359.2 283.7 L357.3 281.4 Z" fill="#d9f2fb" stroke="#d9f2fb" stroke-width="2.4" opacity="0.9" stroke-linecap="round" stroke-linejoin="round"/>
<path d="M157.8 237.8 L165.7 235.3 L159.3 231.5 L162.3 225.7 L162.1 227.7 L164.8 228.3 L163.4 230.6 L166.8 230.9 L166.5 232.4 L172.1 235 L175.8 232.9 L173.9 235.3 L177.5 236.8 L170.3 237 L166.8 239.2 L169.3 240.3 L168 241.1 L158.4 240.8 L157.8 237.8 Z" fill="#d9f2fb" stroke="#d9f2fb" stroke-width="2.4" opacity="0.9" stroke-linecap="round" stroke-linejoin="round"/>
<path d="M145.7 251.5 L149.5 250.1 L149.2 247 L145.8 243.4 L152.2 239.8 L148.8 242.9 L151 243.3 L151.9 248.9 L155.8 250 L154.3 257.5 L148.2 255 L145.7 251.5 Z" fill="#d9f2fb" stroke="#d9f2fb" stroke-width="2.4" opacity="0.9" stroke-linecap="round" stroke-linejoin="round"/>
<path d="M368.5 245.6 L368.1 243.7 L373.8 240.1 L383.1 243.2 L378.2 244 L376.5 247.2 L377.4 243.2 L373.1 241.3 L368.5 245.6 Z" fill="#d9f2fb" stroke="#d9f2fb" stroke-width="2.4" opacity="0.9" stroke-linecap="round" stroke-linejoin="round"/>
<path d="M35.5 210.1 L35.9 207.8 L50.5 204 L42.1 208.9 L44.6 212.3 L41 213.2 L35.5 210.1 Z" fill="#d9f2fb" stroke="#d9f2fb" stroke-width="2.4" opacity="0.9" stroke-linecap="round" stroke-linejoin="round"/>
<path d="M301.3 241.2 L300.8 238.8 L309 236.8 L305.4 239.1 L308.8 243.6 L304.2 241.7 L304.1 243.8 L301.3 241.2 Z" fill="#d9f2fb" stroke="#d9f2fb" stroke-width="2.4" opacity="0.9" stroke-linecap="round" stroke-linejoin="round"/>
<path d="M195.4 270.5 L205 272.1 L195.4 270.5 Z" fill="#d9f2fb" stroke="#d9f2fb" stroke-width="2.4" opacity="0.9" stroke-linecap="round" stroke-linejoin="round"/>
<path d="M198.5 102.3 L199 100.5 L197.1 100.1 L198.8 101.2 L197 102.2 L198.5 102.3 Z" fill="#d9f2fb" stroke="#d9f2fb" stroke-width="2.4" opacity="0.9" stroke-linecap="round" stroke-linejoin="round"/>
<path d="M209.1 277.1 L212.8 278.6 L212.3 280.3 L209.1 277.1 Z" fill="#d9f2fb" stroke="#d9f2fb" stroke-width="2.4" opacity="0.9" stroke-linecap="round" stroke-linejoin="round"/>
<path d="M147.8 150.3 L147.7 151.8 L148.1 150.5 L150.1 151.6 L147.8 150.3 Z" fill="#d9f2fb" stroke="#d9f2fb" stroke-width="2.4" opacity="0.9" stroke-linecap="round" stroke-linejoin="round"/>
<path d="M186.2 79.7 L189.5 80.3 L186.2 79.7 Z" fill="#d9f2fb" stroke="#d9f2fb" stroke-width="2.4" opacity="0.9" stroke-linecap="round" stroke-linejoin="round"/>
<path d="M145.4 252.5 L144 255.5 L145.4 252.5 Z" fill="#d9f2fb" stroke="#d9f2fb" stroke-width="2.4" opacity="0.9" stroke-linecap="round" stroke-linejoin="round"/>
<path d="M151.7 162.9 L149.7 163.4 L151.7 162.9 Z" fill="#d9f2fb" stroke="#d9f2fb" stroke-width="2.4" opacity="0.9" stroke-linecap="round" stroke-linejoin="round"/>
<path d="M150.2 162 L153.4 161.8 L150.2 162 Z" fill="#d9f2fb" stroke="#d9f2fb" stroke-width="2.4" opacity="0.9" stroke-linecap="round" stroke-linejoin="round"/>
<path d="M20.5 255.4 L19.3 256.7 L20.5 255.4 Z" fill="#d9f2fb" stroke="#d9f2fb" stroke-width="2.4" opacity="0.9" stroke-linecap="round" stroke-linejoin="round"/>
<path d="M191.9 77.3 L192.8 78.4 L191.9 77.3 Z" fill="#d9f2fb" stroke="#d9f2fb" stroke-width="2.4" opacity="0.9" stroke-linecap="round" stroke-linejoin="round"/>
<path d="M291.8 45.7 L289.2 44.9 L291.8 45.7 Z" fill="#d9f2fb" stroke="#d9f2fb" stroke-width="2.4" opacity="0.9" stroke-linecap="round" stroke-linejoin="round"/>
<path d="M195.3 191.3 L196.6 190.4 L195.3 191.3 Z" fill="#d9f2fb" stroke="#d9f2fb" stroke-width="2.4" opacity="0.9" stroke-linecap="round" stroke-linejoin="round"/>
<path d="M352.6 26.2 L354.4 27.8 L352.6 26.2 Z" fill="#d9f2fb" stroke="#d9f2fb" stroke-width="2.4" opacity="0.9" stroke-linecap="round" stroke-linejoin="round"/>
<path d="M119 172.2 L119.6 173.5 L119 172.2 Z" fill="#d9f2fb" stroke="#d9f2fb" stroke-width="2.4" opacity="0.9" stroke-linecap="round" stroke-linejoin="round"/>
<path d="M166.8 149.4 L167.4 147.4 L166.8 149.4 Z" fill="#d9f2fb" stroke="#d9f2fb" stroke-width="2.4" opacity="0.9" stroke-linecap="round" stroke-linejoin="round"/>
<path d="M191.5 84.1 L192.2 85.1 L191.5 84.1 Z" fill="#d9f2fb" stroke="#d9f2fb" stroke-width="2.4" opacity="0.9" stroke-linecap="round" stroke-linejoin="round"/>
<path d="M190 80.3 L191.9 80.7 L190 80.3 Z" fill="#d9f2fb" stroke="#d9f2fb" stroke-width="2.4" opacity="0.9" stroke-linecap="round" stroke-linejoin="round"/>
<path d="M167.5 149 L168 147.5 L167.5 149 Z" fill="#d9f2fb" stroke="#d9f2fb" stroke-width="2.4" opacity="0.9" stroke-linecap="round" stroke-linejoin="round"/>
<path d="M302.1 271.2 L304 271.9 L302.1 271.2 Z" fill="#d9f2fb" stroke="#d9f2fb" stroke-width="2.4" opacity="0.9" stroke-linecap="round" stroke-linejoin="round"/>
<path d="M76.8 115.3 L78.7 115.9 L76.8 115.3 Z" fill="#d9f2fb" stroke="#d9f2fb" stroke-width="2.4" opacity="0.9" stroke-linecap="round" stroke-linejoin="round"/>
<path d="M139.9 142.1 L141.5 142.4 L139.9 142.1 Z" fill="#d9f2fb" stroke="#d9f2fb" stroke-width="2.4" opacity="0.9" stroke-linecap="round" stroke-linejoin="round"/>
<path d="M123.1 75.2 L122.2 76.2 L123.1 75.2 Z" fill="#d9f2fb" stroke="#d9f2fb" stroke-width="2.4" opacity="0.9" stroke-linecap="round" stroke-linejoin="round"/>
<path d="M138.2 141.3 L139.7 141.6 L138.2 141.3 Z" fill="#d9f2fb" stroke="#d9f2fb" stroke-width="2.4" opacity="0.9" stroke-linecap="round" stroke-linejoin="round"/>
<path d="M142.7 147 L142.7 147 Z" fill="#d9f2fb" stroke="#d9f2fb" stroke-width="2.4" opacity="0.9" stroke-linecap="round" stroke-linejoin="round"/>
<path d="M218 83.4 L216.2 83.2 L218 83.4 Z" fill="#d9f2fb" stroke="#d9f2fb" stroke-width="2.4" opacity="0.9" stroke-linecap="round" stroke-linejoin="round"/>
<path d="M294.4 53.8 L294.4 53.8 Z" fill="#d9f2fb" stroke="#d9f2fb" stroke-width="2.4" opacity="0.9" stroke-linecap="round" stroke-linejoin="round"/>
<path d="M296.2 114.3 L296.2 114.3 Z" fill="#d9f2fb" stroke="#d9f2fb" stroke-width="2.4" opacity="0.9" stroke-linecap="round" stroke-linejoin="round"/>
<path d="M126.9 161.1 L126.9 161.1 Z" fill="#d9f2fb" stroke="#d9f2fb" stroke-width="2.4" opacity="0.9" stroke-linecap="round" stroke-linejoin="round"/>
<path d="M224.4 80.1 L224.4 80.1 Z" fill="#d9f2fb" stroke="#d9f2fb" stroke-width="2.4" opacity="0.9" stroke-linecap="round" stroke-linejoin="round"/>
<path d="M216.3 169.4 L216.3 169.4 Z" fill="#d9f2fb" stroke="#d9f2fb" stroke-width="2.4" opacity="0.9" stroke-linecap="round" stroke-linejoin="round"/>
<path d="M292.3 187.3 L292.3 187.3 Z" fill="#d9f2fb" stroke="#d9f2fb" stroke-width="2.4" opacity="0.9" stroke-linecap="round" stroke-linejoin="round"/>
<path d="M188 74.9 L188 74.9 Z" fill="#d9f2fb" stroke="#d9f2fb" stroke-width="2.4" opacity="0.9" stroke-linecap="round" stroke-linejoin="round"/>
<path d="M131.4 297.5 L131.4 297.5 Z" fill="#d9f2fb" stroke="#d9f2fb" stroke-width="2.4" opacity="0.9" stroke-linecap="round" stroke-linejoin="round"/>
<path d="M362.4 33.8 L362.4 33.8 Z" fill="#d9f2fb" stroke="#d9f2fb" stroke-width="2.4" opacity="0.9" stroke-linecap="round" stroke-linejoin="round"/>
<path d="M44.2 143.7 L44.2 143.7 Z" fill="#d9f2fb" stroke="#d9f2fb" stroke-width="2.4" opacity="0.9" stroke-linecap="round" stroke-linejoin="round"/>
<path d="M347.7 22.4 L347.7 22.4 Z" fill="#d9f2fb" stroke="#d9f2fb" stroke-width="2.4" opacity="0.9" stroke-linecap="round" stroke-linejoin="round"/>
</g>
<g data-layer="water">
<path d="M381.9 270.1 L394 270.2 L393.8 276.5 L402.8 283.1 L401 283.9 L403 289.3 L406.1 287.7 L407.6 283.5 L410.1 285.6 L409.1 294.1 L402 298.7 L405.4 298.9 L410.1 278 L403.9 277.8 L390.9 266.1 L389.3 269.6 L384.9 269.4 L385.3 265.7 L381.9 270.1 Z" fill="#7fc8e6" stroke="#117fa8" stroke-width="1.35" opacity="0.88" stroke-linecap="round" stroke-linejoin="round"/>
<path d="M359.5 220.4 L360.8 219.7 L369.5 228.5 L372.6 221.4 L378.5 221.6 L378.2 229.8 L373.8 229.4 L380.4 233.9 L376.6 236.4 L373.5 235.3 L372.9 239.2 L369.4 238.1 L369.6 233.1 L365.2 229.5 L359.5 220.4 Z" fill="#7fc8e6" stroke="#117fa8" stroke-width="1.35" opacity="0.88" stroke-linecap="round" stroke-linejoin="round"/>
<path d="M357.3 281.4 L356.3 289.2 L358.1 285.5 L364.5 282.2 L370.9 282.2 L376.4 277.9 L379.3 279 L378.8 277 L383.1 272.1 L380.4 269.8 L376 271.4 L374 270.3 L372.6 272.9 L374.3 274.7 L369.9 276.2 L370.4 278.4 L359.2 283.7 L357.3 281.4 Z" fill="#7fc8e6" stroke="#117fa8" stroke-width="1.35" opacity="0.88" stroke-linecap="round" stroke-linejoin="round"/>
<path d="M157.8 237.8 L165.7 235.3 L159.3 231.5 L162.3 225.7 L162.1 227.7 L164.8 228.3 L163.4 230.6 L166.8 230.9 L166.5 232.4 L172.1 235 L175.8 232.9 L173.9 235.3 L177.5 236.8 L170.3 237 L166.8 239.2 L169.3 240.3 L168 241.1 L158.4 240.8 L157.8 237.8 Z" fill="#7fc8e6" stroke="#117fa8" stroke-width="1.35" opacity="0.88" stroke-linecap="round" stroke-linejoin="round"/>
<path d="M145.7 251.5 L149.5 250.1 L149.2 247 L145.8 243.4 L152.2 239.8 L148.8 242.9 L151 243.3 L151.9 248.9 L155.8 250 L154.3 257.5 L148.2 255 L145.7 251.5 Z" fill="#7fc8e6" stroke="#117fa8" stroke-width="1.35" opacity="0.88" stroke-linecap="round" stroke-linejoin="round"/>
<path d="M368.5 245.6 L368.1 243.7 L373.8 240.1 L383.1 243.2 L378.2 244 L376.5 247.2 L377.4 243.2 L373.1 241.3 L368.5 245.6 Z" fill="#7fc8e6" stroke="#117fa8" stroke-width="1.35" opacity="0.88" stroke-linecap="round" stroke-linejoin="round"/>
<path d="M35.5 210.1 L35.9 207.8 L50.5 204 L42.1 208.9 L44.6 212.3 L41 213.2 L35.5 210.1 Z" fill="#7fc8e6" stroke="#117fa8" stroke-width="1.35" opacity="0.88" stroke-linecap="round" stroke-linejoin="round"/>
<path d="M301.3 241.2 L300.8 238.8 L309 236.8 L305.4 239.1 L308.8 243.6 L304.2 241.7 L304.1 243.8 L301.3 241.2 Z" fill="#7fc8e6" stroke="#117fa8" stroke-width="1.35" opacity="0.88" stroke-linecap="round" stroke-linejoin="round"/>
<path d="M195.4 270.5 L205 272.1 L195.4 270.5 Z" fill="#7fc8e6" stroke="#117fa8" stroke-width="1.35" opacity="0.88" stroke-linecap="round" stroke-linejoin="round"/>
<path d="M198.5 102.3 L199 100.5 L197.1 100.1 L198.8 101.2 L197 102.2 L198.5 102.3 Z" fill="#7fc8e6" stroke="#117fa8" stroke-width="1.35" opacity="0.88" stroke-linecap="round" stroke-linejoin="round"/>
<path d="M209.1 277.1 L212.8 278.6 L212.3 280.3 L209.1 277.1 Z" fill="#7fc8e6" stroke="#117fa8" stroke-width="1.35" opacity="0.88" stroke-linecap="round" stroke-linejoin="round"/>
<path d="M147.8 150.3 L147.7 151.8 L148.1 150.5 L150.1 151.6 L147.8 150.3 Z" fill="#7fc8e6" stroke="#117fa8" stroke-width="1.35" opacity="0.88" stroke-linecap="round" stroke-linejoin="round"/>
<path d="M186.2 79.7 L189.5 80.3 L186.2 79.7 Z" fill="#7fc8e6" stroke="#117fa8" stroke-width="1.35" opacity="0.88" stroke-linecap="round" stroke-linejoin="round"/>
<path d="M145.4 252.5 L144 255.5 L145.4 252.5 Z" fill="#7fc8e6" stroke="#117fa8" stroke-width="1.35" opacity="0.88" stroke-linecap="round" stroke-linejoin="round"/>
<path d="M151.7 162.9 L149.7 163.4 L151.7 162.9 Z" fill="#7fc8e6" stroke="#117fa8" stroke-width="1.35" opacity="0.88" stroke-linecap="round" stroke-linejoin="round"/>
<path d="M150.2 162 L153.4 161.8 L150.2 162 Z" fill="#7fc8e6" stroke="#117fa8" stroke-width="1.35" opacity="0.88" stroke-linecap="round" stroke-linejoin="round"/>
<path d="M20.5 255.4 L19.3 256.7 L20.5 255.4 Z" fill="#7fc8e6" stroke="#117fa8" stroke-width="1.35" opacity="0.88" stroke-linecap="round" stroke-linejoin="round"/>
<path d="M191.9 77.3 L192.8 78.4 L191.9 77.3 Z" fill="#7fc8e6" stroke="#117fa8" stroke-width="1.35" opacity="0.88" stroke-linecap="round" stroke-linejoin="round"/>
<path d="M291.8 45.7 L289.2 44.9 L291.8 45.7 Z" fill="#7fc8e6" stroke="#117fa8" stroke-width="1.35" opacity="0.88" stroke-linecap="round" stroke-linejoin="round"/>
<path d="M195.3 191.3 L196.6 190.4 L195.3 191.3 Z" fill="#7fc8e6" stroke="#117fa8" stroke-width="1.35" opacity="0.88" stroke-linecap="round" stroke-linejoin="round"/>
<path d="M352.6 26.2 L354.4 27.8 L352.6 26.2 Z" fill="#7fc8e6" stroke="#117fa8" stroke-width="1.35" opacity="0.88" stroke-linecap="round" stroke-linejoin="round"/>
<path d="M119 172.2 L119.6 173.5 L119 172.2 Z" fill="#7fc8e6" stroke="#117fa8" stroke-width="1.35" opacity="0.88" stroke-linecap="round" stroke-linejoin="round"/>
<path d="M166.8 149.4 L167.4 147.4 L166.8 149.4 Z" fill="#7fc8e6" stroke="#117fa8" stroke-width="1.35" opacity="0.88" stroke-linecap="round" stroke-linejoin="round"/>
<path d="M191.5 84.1 L192.2 85.1 L191.5 84.1 Z" fill="#7fc8e6" stroke="#117fa8" stroke-width="1.35" opacity="0.88" stroke-linecap="round" stroke-linejoin="round"/>
<path d="M190 80.3 L191.9 80.7 L190 80.3 Z" fill="#7fc8e6" stroke="#117fa8" stroke-width="1.35" opacity="0.88" stroke-linecap="round" stroke-linejoin="round"/>
<path d="M167.5 149 L168 147.5 L167.5 149 Z" fill="#7fc8e6" stroke="#117fa8" stroke-width="1.35" opacity="0.88" stroke-linecap="round" stroke-linejoin="round"/>
<path d="M302.1 271.2 L304 271.9 L302.1 271.2 Z" fill="#7fc8e6" stroke="#117fa8" stroke-width="1.35" opacity="0.88" stroke-linecap="round" stroke-linejoin="round"/>
<path d="M76.8 115.3 L78.7 115.9 L76.8 115.3 Z" fill="#7fc8e6" stroke="#117fa8" stroke-width="1.35" opacity="0.88" stroke-linecap="round" stroke-linejoin="round"/>
<path d="M139.9 142.1 L141.5 142.4 L139.9 142.1 Z" fill="#7fc8e6" stroke="#117fa8" stroke-width="1.35" opacity="0.88" stroke-linecap="round" stroke-linejoin="round"/>
<path d="M123.1 75.2 L122.2 76.2 L123.1 75.2 Z" fill="#7fc8e6" stroke="#117fa8" stroke-width="1.35" opacity="0.88" stroke-linecap="round" stroke-linejoin="round"/>
<path d="M138.2 141.3 L139.7 141.6 L138.2 141.3 Z" fill="#7fc8e6" stroke="#117fa8" stroke-width="1.35" opacity="0.88" stroke-linecap="round" stroke-linejoin="round"/>
<path d="M142.7 147 L142.7 147 Z" fill="#7fc8e6" stroke="#117fa8" stroke-width="1.35" opacity="0.88" stroke-linecap="round" stroke-linejoin="round"/>
<path d="M218 83.4 L216.2 83.2 L218 83.4 Z" fill="#7fc8e6" stroke="#117fa8" stroke-width="1.35" opacity="0.88" stroke-linecap="round" stroke-linejoin="round"/>
<path d="M294.4 53.8 L294.4 53.8 Z" fill="#7fc8e6" stroke="#117fa8" stroke-width="1.35" opacity="0.88" stroke-linecap="round" stroke-linejoin="round"/>
<path d="M296.2 114.3 L296.2 114.3 Z" fill="#7fc8e6" stroke="#117fa8" stroke-width="1.35" opacity="0.88" stroke-linecap="round" stroke-linejoin="round"/>
<path d="M126.9 161.1 L126.9 161.1 Z" fill="#7fc8e6" stroke="#117fa8" stroke-width="1.35" opacity="0.88" stroke-linecap="round" stroke-linejoin="round"/>
<path d="M224.4 80.1 L224.4 80.1 Z" fill="#7fc8e6" stroke="#117fa8" stroke-width="1.35" opacity="0.88" stroke-linecap="round" stroke-linejoin="round"/>
<path d="M216.3 169.4 L216.3 169.4 Z" fill="#7fc8e6" stroke="#117fa8" stroke-width="1.35" opacity="0.88" stroke-linecap="round" stroke-linejoin="round"/>
<path d="M292.3 187.3 L292.3 187.3 Z" fill="#7fc8e6" stroke="#117fa8" stroke-width="1.35" opacity="0.88" stroke-linecap="round" stroke-linejoin="round"/>
<path d="M188 74.9 L188 74.9 Z" fill="#7fc8e6" stroke="#117fa8" stroke-width="1.35" opacity="0.88" stroke-linecap="round" stroke-linejoin="round"/>
<path d="M131.4 297.5 L131.4 297.5 Z" fill="#7fc8e6" stroke="#117fa8" stroke-width="1.35" opacity="0.88" stroke-linecap="round" stroke-linejoin="round"/>
<path d="M362.4 33.8 L362.4 33.8 Z" fill="#7fc8e6" stroke="#117fa8" stroke-width="1.35" opacity="0.88" stroke-linecap="round" stroke-linejoin="round"/>
<path d="M44.2 143.7 L44.2 143.7 Z" fill="#7fc8e6" stroke="#117fa8" stroke-width="1.35" opacity="0.88" stroke-linecap="round" stroke-linejoin="round"/>
<path d="M347.7 22.4 L347.7 22.4 Z" fill="#7fc8e6" stroke="#117fa8" stroke-width="1.35" opacity="0.88" stroke-linecap="round" stroke-linejoin="round"/>
</g>
<g data-layer="coastline">
<path d="M14.9 13.7 L21.3 16.4 L25.1 29.5 L25.9 26.7 L22.4 12.4 L39.8 10 L43.2 23.8 L31.4 26.2 L44.6 24.3 L42 13.4 L44.7 12.9 L52.6 14.2 L62.4 24.2 L73.3 13.5 L71.7 9.8" fill="none" stroke="#0f789e" stroke-width="2.8" opacity="0.78" stroke-linecap="round" stroke-linejoin="round"/>
<path d="M369.6 36.1 L325.7 4.8 L330.4 0 L375.7 31.1" fill="none" stroke="#0f789e" stroke-width="2.8" opacity="0.78" stroke-linecap="round" stroke-linejoin="round"/>
<path d="M316.4 9.5 L396.3 67.4 L398.3 67.7 L404.5 62.7 L402.1 59.6" fill="none" stroke="#0f789e" stroke-width="2.8" opacity="0.78" stroke-linecap="round" stroke-linejoin="round"/>
<path d="M8.4 237.4 L15 244.6 L14.4 251.5 L16.3 256.8 L20.6 256.8 L33 268.4 L41.2 270.5 L50.5 269.1 L61.5 272.1 L68.5 271.7 L73.4 280.7" fill="none" stroke="#0f789e" stroke-width="2.8" opacity="0.78" stroke-linecap="round" stroke-linejoin="round"/>
<path d="M101 122.6 L96.7 118.9 L77.1 115 L53.4 114.3 L46.8 115.7 L46.3 114.4 L46.4 115.8 L43.5 115 L44 116.3 L38.5 117.4 L37.4 116.2 L37.9 117.5 L33.9 118.3 L33.4 117 L33.2 118.5 L29.6 117.8 L25.9 120" fill="none" stroke="#0f789e" stroke-width="2.8" opacity="0.78" stroke-linecap="round" stroke-linejoin="round"/>
<path d="M218.6 96.2 L239.7 81.4 L246 81.3 L246 87.4 L243.3 88.6 L244.5 90 L248.2 88.4 L248.1 81.6 L251.8 81.6 L253.4 84.6 L275.3 77.2" fill="none" stroke="#0f789e" stroke-width="2.8" opacity="0.78" stroke-linecap="round" stroke-linejoin="round"/>
<path d="M123.7 57.4 L120.3 55.5 L120.3 28.6 L116.7 26 L119.5 28.6 L119.7 55.5 L123.7 57.4" fill="none" stroke="#0f789e" stroke-width="2.8" opacity="0.78" stroke-linecap="round" stroke-linejoin="round"/>
<path d="M73.4 280.7 L69.4 272 L82.3 271.2 L91.7 273.6 L97.3 272.3 L116.7 275.1 L120 277.2 L135.8 275.7 L142.6 278.3" fill="none" stroke="#0f789e" stroke-width="2.8" opacity="0.78" stroke-linecap="round" stroke-linejoin="round"/>
<path d="M234.3 283.9 L246.2 281.7 L254.7 282.7 L260.5 280.6 L267.3 284.3 L271.6 291.7 L264.9 296 L264.3 301.9 L271.5 310" fill="none" stroke="#0f789e" stroke-width="2.8" opacity="0.78" stroke-linecap="round" stroke-linejoin="round"/>
<path d="M415.1 119.2 L395.9 116.4 L376.7 109.4 L341.2 103" fill="none" stroke="#0f789e" stroke-width="2.8" opacity="0.78" stroke-linecap="round" stroke-linejoin="round"/>
<path d="M341.2 103 L331.1 103.7 L328.4 99 L329.4 104 L325.8 104.5 L323.8 100.4 L325.1 104.7 L307.7 106.8 L293.8 113.6" fill="none" stroke="#0f789e" stroke-width="2.8" opacity="0.78" stroke-linecap="round" stroke-linejoin="round"/>
<path d="M139.8 282.5 L131.6 280.4 L115.7 284.8 L100.7 280.6 L91.7 280.6 L84.5 283.3 L75.1 283.9" fill="none" stroke="#0f789e" stroke-width="2.8" opacity="0.78" stroke-linecap="round" stroke-linejoin="round"/>
<path d="M275 129.7 L279.5 134.6 L259.9 138.8 L248.8 145.3 L249.6 137 L247.6 135.9 L249.5 135.3 L246.8 135.8 L245.3 133.3" fill="none" stroke="#0f789e" stroke-width="2.8" opacity="0.78" stroke-linecap="round" stroke-linejoin="round"/>
<path d="M143.7 279.6 L150 282.6 L159.4 281.3 L164 284.1 L159.7 286.8 L159.3 290.5 L168.9 296.5 L168.4 302.7 L163.2 307.7" fill="none" stroke="#0f789e" stroke-width="2.8" opacity="0.78" stroke-linecap="round" stroke-linejoin="round"/>
<path d="M75.1 283.9 L70.5 288.3 L74.8 288.4 L85.7 295.1 L88.1 301.5 L91.1 304 L105.6 306.5 L109.7 310.8" fill="none" stroke="#0f789e" stroke-width="2.8" opacity="0.78" stroke-linecap="round" stroke-linejoin="round"/>
<path d="M120.3 67.2 L119.6 63.2 L116.1 62.2 L119.7 64.6 L119.6 69.4 L117.2 72.5 L117.2 80.8 L120.2 84.1 L133.9 84.8 L138.7 80.5" fill="none" stroke="#0f789e" stroke-width="2.8" opacity="0.78" stroke-linecap="round" stroke-linejoin="round"/>
<path d="M245.3 133.3 L245.9 136 L240.8 136.9 L242.7 137.7 L242.8 141.9 L238.3 143.7 L235.4 144.5 L234 141.7 L238.1 137.8 L229.8 142.7 L218 142.5" fill="none" stroke="#0f789e" stroke-width="2.8" opacity="0.78" stroke-linecap="round" stroke-linejoin="round"/>
<path d="M176.7 82.8 L180.4 96.1 L164 98.7 L164.8 101.2 L181.1 98.6 L181.5 101.2" fill="none" stroke="#0f789e" stroke-width="2.8" opacity="0.78" stroke-linecap="round" stroke-linejoin="round"/>
<path d="M402.1 59.6 L395.5 54.6 L394.9 49.5 L385.7 42.9 L384.2 45.1 L379.6 43.2 L369.6 36.1" fill="none" stroke="#0f789e" stroke-width="2.8" opacity="0.78" stroke-linecap="round" stroke-linejoin="round"/>
<path d="M375.7 31.1 L386.9 22.4 L411.1 42.6" fill="none" stroke="#0f789e" stroke-width="2.8" opacity="0.78" stroke-linecap="round" stroke-linejoin="round"/>
<path d="M25.9 120 L14 118.6 L26.3 121.1 L27.5 124.6 L16.6 123.3 L9.8 128.2" fill="none" stroke="#0f789e" stroke-width="2.8" opacity="0.78" stroke-linecap="round" stroke-linejoin="round"/>
<path d="M309.6 43.5 L331.1 35.4 L309.6 43.5" fill="none" stroke="#0f789e" stroke-width="2.8" opacity="0.78" stroke-linecap="round" stroke-linejoin="round"/>
<path d="M208.7 142.1 L209.7 137.6 L208.2 134.6 L208 136.5 L198.6 136.8 L192.4 143.8 L181.7 143.3" fill="none" stroke="#0f789e" stroke-width="2.8" opacity="0.78" stroke-linecap="round" stroke-linejoin="round"/>
<path d="M212.2 310 L218.2 304.4 L219.2 299.9 L224.4 296.6 L227.5 288 L234.3 283.9" fill="none" stroke="#0f789e" stroke-width="2.8" opacity="0.78" stroke-linecap="round" stroke-linejoin="round"/>
<path d="M145.5 310.2 L148.3 304.5 L145.6 298.4 L138.6 293.8 L142.2 286.4 L139.8 282.5" fill="none" stroke="#0f789e" stroke-width="2.8" opacity="0.78" stroke-linecap="round" stroke-linejoin="round"/>
<path d="M293.8 113.6 L290.3 111.9 L272.5 125.9 L268.5 124.6" fill="none" stroke="#0f789e" stroke-width="2.8" opacity="0.78" stroke-linecap="round" stroke-linejoin="round"/>
<path d="M142.6 38.2 L142.6 53.8 L134.1 63" fill="none" stroke="#0f789e" stroke-width="2.8" opacity="0.78" stroke-linecap="round" stroke-linejoin="round"/>
<path d="M148.7 129.2 L121.4 122.7 L116.5 126.4" fill="none" stroke="#0f789e" stroke-width="2.8" opacity="0.78" stroke-linecap="round" stroke-linejoin="round"/>
<path d="M42.2 288.8 L49 290.9 L57.2 287.8 L42.2 288.8" fill="none" stroke="#0f789e" stroke-width="2.8" opacity="0.78" stroke-linecap="round" stroke-linejoin="round"/>
<path d="M301 27.6 L310.2 37.6 L301 27.6" fill="none" stroke="#0f789e" stroke-width="2.8" opacity="0.78" stroke-linecap="round" stroke-linejoin="round"/>
<path d="M289 26.2 L291.7 25.4 L297.2 15.5 L300 16.3 L297.4 15.1 L298.2 13.9 L300.4 13.7" fill="none" stroke="#0f789e" stroke-width="2.8" opacity="0.78" stroke-linecap="round" stroke-linejoin="round"/>
<path d="M175.3 78 L174.3 82.3 L164.7 84.3 L176.7 82.8" fill="none" stroke="#0f789e" stroke-width="2.8" opacity="0.78" stroke-linecap="round" stroke-linejoin="round"/>
<path d="M284.3 73.4 L294.1 69.5 L292.7 65.8 L295.6 56.2" fill="none" stroke="#0f789e" stroke-width="2.8" opacity="0.78" stroke-linecap="round" stroke-linejoin="round"/>
<path d="M140.1 17.5 L142.6 22.3 L142.6 38.2" fill="none" stroke="#0f789e" stroke-width="2.8" opacity="0.78" stroke-linecap="round" stroke-linejoin="round"/>
<path d="M288 43.1 L290.2 40.9 L288.2 40.9 L289 26.2" fill="none" stroke="#0f789e" stroke-width="2.8" opacity="0.78" stroke-linecap="round" stroke-linejoin="round"/>
<path d="M247.8 132.7 L268.4 127.8" fill="none" stroke="#0f789e" stroke-width="2.8" opacity="0.78" stroke-linecap="round" stroke-linejoin="round"/>
<path d="M295.6 56.2 L297.5 48.9 L288 43.1" fill="none" stroke="#0f789e" stroke-width="2.8" opacity="0.78" stroke-linecap="round" stroke-linejoin="round"/>
<path d="M268.4 127.8 L247.8 132.7" fill="none" stroke="#0f789e" stroke-width="2.8" opacity="0.78" stroke-linecap="round" stroke-linejoin="round"/>
<path d="M110 119 L113 118.6 L103.4 116.7 L109.4 118.8" fill="none" stroke="#0f789e" stroke-width="2.8" opacity="0.78" stroke-linecap="round" stroke-linejoin="round"/>
<path d="M120.3 17.5 L140.1 17.5" fill="none" stroke="#0f789e" stroke-width="2.8" opacity="0.78" stroke-linecap="round" stroke-linejoin="round"/>
<path d="M184.8 103.7 L186.6 106 L201.3 104.8" fill="none" stroke="#0f789e" stroke-width="2.8" opacity="0.78" stroke-linecap="round" stroke-linejoin="round"/>
<path d="M134.1 63 L130.1 67.2 L120.3 67.2" fill="none" stroke="#0f789e" stroke-width="2.8" opacity="0.78" stroke-linecap="round" stroke-linejoin="round"/>
<path d="M180.9 101.6 L179 103.9 L181.5 102.3 L183 103.7 L181.7 105.9 L183.8 104.1" fill="none" stroke="#0f789e" stroke-width="2.8" opacity="0.78" stroke-linecap="round" stroke-linejoin="round"/>
<path d="M119.8 5 L119.8 17.2" fill="none" stroke="#0f789e" stroke-width="2.8" opacity="0.78" stroke-linecap="round" stroke-linejoin="round"/>
<path d="M157.7 137.7 L152.7 130.6 L148.7 129.2" fill="none" stroke="#0f789e" stroke-width="2.8" opacity="0.78" stroke-linecap="round" stroke-linejoin="round"/>
<path d="M181.7 143.3 L170.2 141.2" fill="none" stroke="#0f789e" stroke-width="2.8" opacity="0.78" stroke-linecap="round" stroke-linejoin="round"/>
<path d="M201.7 104.5 L204 102.8 L204.2 105 L209.8 104.6" fill="none" stroke="#0f789e" stroke-width="2.8" opacity="0.78" stroke-linecap="round" stroke-linejoin="round"/>
<path d="M138.7 80.5 L150.1 78.4" fill="none" stroke="#0f789e" stroke-width="2.8" opacity="0.78" stroke-linecap="round" stroke-linejoin="round"/>
<path d="M119.8 17.2 L119.6 21.5 L120.3 17.5" fill="none" stroke="#0f789e" stroke-width="2.8" opacity="0.78" stroke-linecap="round" stroke-linejoin="round"/>
<path d="M213 102.9 L218.6 96.2" fill="none" stroke="#0f789e" stroke-width="2.8" opacity="0.78" stroke-linecap="round" stroke-linejoin="round"/>
<path d="M150.1 78.4 L161.1 77.3" fill="none" stroke="#0f789e" stroke-width="2.8" opacity="0.78" stroke-linecap="round" stroke-linejoin="round"/>
<path d="M3.8 14.8 L13.2 13" fill="none" stroke="#0f789e" stroke-width="2.8" opacity="0.78" stroke-linecap="round" stroke-linejoin="round"/>
<path d="M268.5 124.6 L274.8 127.8 L275 129.7" fill="none" stroke="#0f789e" stroke-width="2.8" opacity="0.78" stroke-linecap="round" stroke-linejoin="round"/>
<path d="M410 60.6 L405.4 60.5 L410.3 61.2" fill="none" stroke="#0f789e" stroke-width="2.8" opacity="0.78" stroke-linecap="round" stroke-linejoin="round"/>
<path d="M163.2 307.7 L155.6 309.9" fill="none" stroke="#0f789e" stroke-width="2.8" opacity="0.78" stroke-linecap="round" stroke-linejoin="round"/>
<path d="M216.3 142.7 L208.7 142.1" fill="none" stroke="#0f789e" stroke-width="2.8" opacity="0.78" stroke-linecap="round" stroke-linejoin="round"/>
<path d="M161.1 77.3 L169.1 76.6" fill="none" stroke="#0f789e" stroke-width="2.8" opacity="0.78" stroke-linecap="round" stroke-linejoin="round"/>
<path d="M300.4 13.7 L298.9 12.8 L301.1 9.1" fill="none" stroke="#0f789e" stroke-width="2.8" opacity="0.78" stroke-linecap="round" stroke-linejoin="round"/>
<path d="M275.3 77.2 L277.1 79.4 L276.7 76.7" fill="none" stroke="#0f789e" stroke-width="2.8" opacity="0.78" stroke-linecap="round" stroke-linejoin="round"/>
<path d="M169.1 76.6 L171.8 76.6" fill="none" stroke="#0f789e" stroke-width="2.8" opacity="0.78" stroke-linecap="round" stroke-linejoin="round"/>
<path d="M217.8 142.4 L217.3 140 L216.5 142.5" fill="none" stroke="#0f789e" stroke-width="2.8" opacity="0.78" stroke-linecap="round" stroke-linejoin="round"/>
<path d="M155.6 309.9 L163 308.6" fill="none" stroke="#0f789e" stroke-width="2.8" opacity="0.78" stroke-linecap="round" stroke-linejoin="round"/>
<path d="M108.9 122.2 L112.1 122.4 L109.3 120.9" fill="none" stroke="#0f789e" stroke-width="2.8" opacity="0.78" stroke-linecap="round" stroke-linejoin="round"/>
<path d="M166.5 140.4 L160.4 138.6" fill="none" stroke="#0f789e" stroke-width="2.8" opacity="0.78" stroke-linecap="round" stroke-linejoin="round"/>
<path d="M116.5 126.4 L111.2 124.6" fill="none" stroke="#0f789e" stroke-width="2.8" opacity="0.78" stroke-linecap="round" stroke-linejoin="round"/>
<path d="M169.7 80.9 L169.7 78.9 L169.7 80.9" fill="none" stroke="#0f789e" stroke-width="2.8" opacity="0.78" stroke-linecap="round" stroke-linejoin="round"/>
<path d="M171.8 76.6 L174.9 76.5 L175.3 78" fill="none" stroke="#0f789e" stroke-width="2.8" opacity="0.78" stroke-linecap="round" stroke-linejoin="round"/>
<path d="M210.1 104.6 L210 103.1 L213 102.9" fill="none" stroke="#0f789e" stroke-width="2.8" opacity="0.78" stroke-linecap="round" stroke-linejoin="round"/>
<path d="M108.7 120.8 L103.9 119.9" fill="none" stroke="#0f789e" stroke-width="2.8" opacity="0.78" stroke-linecap="round" stroke-linejoin="round"/>
<path d="M65.6 298.7 L67.8 298.6 L65.6 298.7" fill="none" stroke="#0f789e" stroke-width="2.8" opacity="0.78" stroke-linecap="round" stroke-linejoin="round"/>
<path d="M279.7 75.7 L282.1 74.9" fill="none" stroke="#0f789e" stroke-width="2.8" opacity="0.78" stroke-linecap="round" stroke-linejoin="round"/>
<path d="M103.9 119.9 L102.3 120 L103.4 121.1" fill="none" stroke="#0f789e" stroke-width="2.8" opacity="0.78" stroke-linecap="round" stroke-linejoin="round"/>
<path d="M104.3 123.2 L101 122.6" fill="none" stroke="#0f789e" stroke-width="2.8" opacity="0.78" stroke-linecap="round" stroke-linejoin="round"/>
<path d="M276.7 76.7 L279.7 75.7" fill="none" stroke="#0f789e" stroke-width="2.8" opacity="0.78" stroke-linecap="round" stroke-linejoin="round"/>
<path d="M111.2 124.6 L108.2 124" fill="none" stroke="#0f789e" stroke-width="2.8" opacity="0.78" stroke-linecap="round" stroke-linejoin="round"/>
<path d="M105.5 121.5 L108.3 122.1" fill="none" stroke="#0f789e" stroke-width="2.8" opacity="0.78" stroke-linecap="round" stroke-linejoin="round"/>
<path d="M107.7 123.9 L104.9 123.4" fill="none" stroke="#0f789e" stroke-width="2.8" opacity="0.78" stroke-linecap="round" stroke-linejoin="round"/>
<path d="M282.1 74.9 L284.1 73.8" fill="none" stroke="#0f789e" stroke-width="2.8" opacity="0.78" stroke-linecap="round" stroke-linejoin="round"/>
<path d="M266.1 293.8 L267.3 293.7 L266.1 293.8" fill="none" stroke="#0f789e" stroke-width="2.8" opacity="0.78" stroke-linecap="round" stroke-linejoin="round"/>
<path d="M163 308.6 L163.5 310.2" fill="none" stroke="#0f789e" stroke-width="2.8" opacity="0.78" stroke-linecap="round" stroke-linejoin="round"/>
<path d="M227.3 291.5 L227.3 291.5" fill="none" stroke="#0f789e" stroke-width="2.8" opacity="0.78" stroke-linecap="round" stroke-linejoin="round"/>
<path d="M66.4 298.3 L66.4 298.3" fill="none" stroke="#0f789e" stroke-width="2.8" opacity="0.78" stroke-linecap="round" stroke-linejoin="round"/>
<path d="M13.2 13 L14.9 13.7" fill="none" stroke="#0f789e" stroke-width="2.8" opacity="0.78" stroke-linecap="round" stroke-linejoin="round"/>
<path d="M103.4 121.1 L104.9 121.4" fill="none" stroke="#0f789e" stroke-width="2.8" opacity="0.78" stroke-linecap="round" stroke-linejoin="round"/>
<path d="M159.2 138.2 L157.7 137.7" fill="none" stroke="#0f789e" stroke-width="2.8" opacity="0.78" stroke-linecap="round" stroke-linejoin="round"/>
<path d="M170.2 141.2 L168.6 141.1" fill="none" stroke="#0f789e" stroke-width="2.8" opacity="0.78" stroke-linecap="round" stroke-linejoin="round"/>
<path d="M142.6 278.3 L143.5 278.9" fill="none" stroke="#0f789e" stroke-width="2.8" opacity="0.78" stroke-linecap="round" stroke-linejoin="round"/>
<path d="M167.5 140.7 L166.5 140.4" fill="none" stroke="#0f789e" stroke-width="2.8" opacity="0.78" stroke-linecap="round" stroke-linejoin="round"/>
<path d="M168.6 141.1 L167.5 140.7" fill="none" stroke="#0f789e" stroke-width="2.8" opacity="0.78" stroke-linecap="round" stroke-linejoin="round"/>
<path d="M65.4 297.7 L65.4 297.7" fill="none" stroke="#0f789e" stroke-width="2.8" opacity="0.78" stroke-linecap="round" stroke-linejoin="round"/>
<path d="M160.4 138.6 L159.4 138.3" fill="none" stroke="#0f789e" stroke-width="2.8" opacity="0.78" stroke-linecap="round" stroke-linejoin="round"/>
<path d="M320.3 18.8 L320.3 18.8" fill="none" stroke="#0f789e" stroke-width="2.8" opacity="0.78" stroke-linecap="round" stroke-linejoin="round"/>
<path d="M64.9 298.1 L64.9 298.1" fill="none" stroke="#0f789e" stroke-width="2.8" opacity="0.78" stroke-linecap="round" stroke-linejoin="round"/>
<path d="M143.5 278.9 L143.7 279.6" fill="none" stroke="#0f789e" stroke-width="2.8" opacity="0.78" stroke-linecap="round" stroke-linejoin="round"/>
<path d="M240.3 137.2 L240.3 137.2" fill="none" stroke="#0f789e" stroke-width="2.8" opacity="0.78" stroke-linecap="round" stroke-linejoin="round"/>
<path d="M109.4 118.8 L110 119" fill="none" stroke="#0f789e" stroke-width="2.8" opacity="0.78" stroke-linecap="round" stroke-linejoin="round"/>
<path d="M109.3 120.9 L108.7 120.8" fill="none" stroke="#0f789e" stroke-width="2.8" opacity="0.78" stroke-linecap="round" stroke-linejoin="round"/>
<path d="M184.3 104 L184.8 103.7" fill="none" stroke="#0f789e" stroke-width="2.8" opacity="0.78" stroke-linecap="round" stroke-linejoin="round"/>
<path d="M104.9 121.4 L105.5 121.5" fill="none" stroke="#0f789e" stroke-width="2.8" opacity="0.78" stroke-linecap="round" stroke-linejoin="round"/>
<path d="M104.9 123.4 L104.3 123.2" fill="none" stroke="#0f789e" stroke-width="2.8" opacity="0.78" stroke-linecap="round" stroke-linejoin="round"/>
<path d="M108.3 122.1 L108.9 122.2" fill="none" stroke="#0f789e" stroke-width="2.8" opacity="0.78" stroke-linecap="round" stroke-linejoin="round"/>
<path d="M108.2 124 L107.7 123.9" fill="none" stroke="#0f789e" stroke-width="2.8" opacity="0.78" stroke-linecap="round" stroke-linejoin="round"/>
<path d="M201.3 104.8 L201.7 104.5" fill="none" stroke="#0f789e" stroke-width="2.8" opacity="0.78" stroke-linecap="round" stroke-linejoin="round"/>
<path d="M183.8 104.1 L184.3 104.1" fill="none" stroke="#0f789e" stroke-width="2.8" opacity="0.78" stroke-linecap="round" stroke-linejoin="round"/>
<path d="M181.5 101.2 L181.2 101.5" fill="none" stroke="#0f789e" stroke-width="2.8" opacity="0.78" stroke-linecap="round" stroke-linejoin="round"/>
<path d="M159.4 138.3 L159.2 138.2" fill="none" stroke="#0f789e" stroke-width="2.8" opacity="0.78" stroke-linecap="round" stroke-linejoin="round"/>
<path d="M284.2 73.7 L284.3 73.4" fill="none" stroke="#0f789e" stroke-width="2.8" opacity="0.78" stroke-linecap="round" stroke-linejoin="round"/>
<path d="M209.8 104.6 L210.1 104.6" fill="none" stroke="#0f789e" stroke-width="2.8" opacity="0.78" stroke-linecap="round" stroke-linejoin="round"/>
<path d="M181.1 101.5 L180.9 101.6" fill="none" stroke="#0f789e" stroke-width="2.8" opacity="0.78" stroke-linecap="round" stroke-linejoin="round"/>
<path d="M218 142.5 L217.8 142.4" fill="none" stroke="#0f789e" stroke-width="2.8" opacity="0.78" stroke-linecap="round" stroke-linejoin="round"/>
<path d="M216.5 142.5 L216.3 142.7" fill="none" stroke="#0f789e" stroke-width="2.8" opacity="0.78" stroke-linecap="round" stroke-linejoin="round"/>
<path d="M181.2 101.5 L181.1 101.5" fill="none" stroke="#0f789e" stroke-width="2.8" opacity="0.78" stroke-linecap="round" stroke-linejoin="round"/>
<path d="M284.1 73.8 L284.2 73.7" fill="none" stroke="#0f789e" stroke-width="2.8" opacity="0.78" stroke-linecap="round" stroke-linejoin="round"/>
<path d="M184.3 104.1 L184.3 104" fill="none" stroke="#0f789e" stroke-width="2.8" opacity="0.78" stroke-linecap="round" stroke-linejoin="round"/>
<path d="M147 308.2 L147 308.2" fill="none" stroke="#0f789e" stroke-width="2.8" opacity="0.78" stroke-linecap="round" stroke-linejoin="round"/>
<path d="M65.5 298.1 L65.5 298.1" fill="none" stroke="#0f789e" stroke-width="2.8" opacity="0.78" stroke-linecap="round" stroke-linejoin="round"/>
</g>
<g data-layer="major-road-casing">
<path d="M184.4 145.1 L219.9 143.8 M219.8 144.4 L176.1 145.1 L161.5 141.9 L148.7 136.4 M238.1 168.4 L231.9 175.4 L235.7 185.4 M211.4 155.4 L218.7 154.8 M219.9 143.8 L253 138.9 L264.5 133.8 L274.8 125.9 M196.1 156.3 L203.8 156 M275.3 126.3 L257.9 138.4 L236.6 142.6 M232 173.8 L238.5 167.5 M224 153.3 L228.7 151.8 M136.7 129.9 L161.9 141.5 L184.4 145.1 M192.7 156.6 L188.7 156.4 M239.2 154.3 L240 159.8 M226.6 153.4 L224.2 154 M239.4 162.2 L239.8 157 M236.5 147.1 L234.8 148.6 L237.2 150.7 M237.7 147 L243.3 143.6 M183.8 155.1 L186.6 155.4 M231 150.1 L232.2 148.7 M237.9 83.6 L248.8 136.6 M178.6 155.2 L175.8 155.4 M213.1 161.6 L219.7 161.1 M196 162.7 L204 162.4 M175.8 155.4 L172.7 155.7 M206.2 162.6 L201 163.1 M224.2 172.2 L213.9 173.6 M266.7 138.5 L274.9 135 M277.3 127.9 L276.2 134.3 L272.9 137.2 M213.5 190.8 L206 192.5 L205.5 195.7 L202.9 197.5 L188.4 199.1 M208.5 154.5 L208.3 151.7 M188.4 199.1 L187.8 193.1 L183.9 186.9 L181.1 185.7 L176.6 186.6 L174.9 191.2 L168.7 193 M232.1 158.7 L225.8 160.3 M271.8 137.6 L267.1 138.8 M235.4 204.4 L230.7 205.4 L225.9 203.2 L225.2 200 L216.1 194.3 L216.1 191.2 M192.6 170.3 L197.6 172.6 M230.7 153.5 L228.5 149.1 M207.5 174.5 L212.1 174.4 M190.2 162.3 L194.4 162.6 M185.2 162.4 L177 161.9 M220.7 175.6 L219.8 177.2 L222.7 179 M172 161.4 L163.5 160.4 L156.7 157.3 M185.7 166.4 L189.9 168.7 M274.8 125.9 L282.7 119.2 M283.2 119.5 L275.3 126.3 M237.4 157.2 L232.6 158.5 M275.6 134.1 L276.4 129.2 M177 161.9 L182.8 164.8 M263.9 138.8 L264.8 138.8 M134.5 178.7 L139.1 177.3 L151.1 180.2 L160 191.5 L167.2 193 M265.2 138.8 L266 138.6 M169 144.8 L171.6 145.1 M230.4 173.6 L227 172.8 M246.6 154.3 L240.9 156.1 M266 138.6 L266.7 138.5 M264.8 138.8 L265.2 138.8 M210.1 159.8 L216.8 159.2 M267.1 138.8 L266.6 139 M225.8 183.2 L225.9 187.6 M272.9 137.2 L271.8 137.6 M209.1 156.5 L202.9 157 M219.4 159.2 L213.2 159.8 M174.6 149.5 L179.1 150.6 M236.4 194.6 L242.1 195.4 L244 198.1 L243.9 202.8 M215.5 156 L209.9 156.5 M209.3 168.2 L206.9 170.7 L207.5 174.5 M248.4 157.6 L250.3 161.3 M274.9 135 L275.6 134.1 M249.5 153.2 L256.2 153.2 M207.9 160.2 L203.7 160.6 M282.4 118.9 L289.7 113.1 M157.9 168.5 L164.3 170.9 L167.4 174.4 L169.9 173.9 L171.5 169.8 L174.9 170.3 M275.1 154.6 L267.9 154.4 L265 149.6 M198.3 160.7 L203.9 160.3 M212.2 165.8 L217.7 165.4 M203.7 160.6 L198.2 161 M209.6 159.1 L209.1 156.5 M213.2 159.8 L210.2 160 M193.9 174.9 L195.9 177.5 L203.3 178.9 M203.9 160.3 L207.4 160 M283 122.1 L280 124.6 M207.4 160 L209.8 159.8 M232.1 156.3 L224.6 158.1 M212.9 174.3 L208.2 180.6 M247.3 163.6 L250 162.1 M224.6 158.1 L219.4 159.2 M219.4 158.9 L224.5 157.9 M210.6 164 L213.9 163.7 M174.9 170.3 L187.4 174.7 M217.2 163.1 L214.1 164.6 M230 153.1 L223.1 154.8 M209.8 160.1 L207.9 160.2 M241.2 149.7 L230.8 152.8 M206.8 166 L210.2 165.7 M210.3 166 L206.9 166.3 M224.1 163.2 L229.9 161.8 M210.6 164 L210.4 162.2 M219 155.6 L215.5 156 M211.3 165.9 L209.3 168.2 M130.1 173.7 L135.3 176.5 L138.5 175.1 L141.2 176.2 L134.5 178.7 M227.4 190.9 L229.3 194.2 M223.1 154.8 L219 155.6 M218.9 165.2 L222.2 164 M216.8 159.2 L219.4 158.9 M183 159.7 L190.4 160.2 M224.5 157.9 L229.2 156.7 M201.3 166.5 L204.4 166.2 M211.8 165.3 L213.6 164.5 M222.3 153.6 L220.9 150.7 M204.4 166.2 L206.8 166 M206.9 166.3 L204.4 166.5 M151.7 141.4 L153.7 142 M219.4 159.2 L219.7 161.1 M190 160.5 L183.5 160 M197.9 151.9 L201.6 151.7 M301.3 165.5 L304.2 169 L298.2 171.2 L286.3 165.8 L290.8 175.3 M231.6 195.1 L236.4 194.6 M274.5 152.8 L285.8 146.7 M143.8 133.8 L147.7 135.7 M267 157.3 L262.1 157.4 M203.9 144.9 L219.9 143.8 M141.1 160.9 L146.6 156.8 M214 145.5 L203.1 146.2 M204.4 98.9 L209.6 98.1 M209.6 98.1 L214.7 96.2 M280.3 136.8 L277.7 136.9 M199.7 99.1 L203.2 98.9 M190 95 L187.8 89.2 M214.7 96.2 L218.5 94 M191.3 98.7 L190.5 96.4 M227.6 88.6 L222.7 91.6 M219.8 144.4 L214 145.5 M182 79 L186.7 85.9 M232.1 84.9 L240.3 82 M261.8 73.3 L247.4 80.8 M240 164.9 L235.4 171.3 M180 68.9 L182 79 M233.2 143.7 L234.6 145.6 L241.3 145.9 M224.8 153.5 L222.1 151.9 M180.8 152.4 L179.5 154.9 L175.2 155.7 M195.1 143.4 L198.6 140.5 M190.6 144.9 L195.1 143.4 M234.9 185.3 L232.7 180.8 M182.8 159.1 L183.7 157.6 M184.3 151.1 L182.2 151.3 M233.2 73.8 L233.6 69.5 M262.9 145.1 L260.9 141.1 L257.7 142 M195.8 60.3 L185.2 59.8 M162.4 70.5 L159.8 69.3 L159.6 65.4 M252.8 68.9 L251.9 64.2 M177.4 61.9 L179.2 66.1 M178.5 69 L175.4 69.2 M170.4 69.9 L167.1 70.2 M252.9 71.4 L252.8 68.9 M263.1 71.3 L265.6 68.6 M160.9 59.2 L160.9 64.8 M177.6 50.4 L175 57.8 M185.2 59.8 L180.1 58.9 M202.1 57 L206.9 54.4 M174.3 57.6 L176.6 51.5 M164.3 70.5 L162.4 70.5 M242 56.4 L246.5 59.3 M249.1 61.4 L245.4 59.4 M281.8 132.8 L277.6 130.6 M274.5 59.5 L270.7 63.8 M175.4 59.2 L177.1 61.5 M160.4 58 L160.1 52.2 M159.8 62 L160.4 59 M290.7 136.2 L281.7 136.5 M165.2 144.5 L165.4 144.8 M230.4 153.4 L230.8 153.3 M183.9 156.7 L184.4 156.8 M293.9 133.7 L293.4 135.4 M350.3 109.3 L345.3 108.8 L344.6 103.5 L342.5 101.9 M320.2 111.4 L319.2 108.6 M249.8 191.7 L249.4 192.2 M250.1 191.5 L249.8 191.7 M250.4 193.7 L250.8 193.3 M259 193.1 L258.8 194 M345 102.1 L345.8 105.8 L351 107 M273.1 162.7 L273.8 162.9 M337.4 101 L342.4 100.4 L345 102.1 M320.5 112.4 L320.2 111.4 M262.3 62.3 L268.8 65.1 M181.6 79.7 L181.1 80 M349.5 102 L358.6 104.3 M136 131 L134.5 130.8 M132.2 156.1 L131.8 155.7 M271.1 68.1 L268.1 67.1 M294.1 142.4 L293.9 143.5 M273 68.3 L274.9 68.3 M123.6 273.9 L122.4 276.5 M90 269.3 L91.8 268 M54 256.4 L50.7 257.4 M250.3 145.3 L254.7 143.4 M167.3 155.1 L165.4 154.1 M160.4 151.3 L156.6 149.3 M165.4 154.1 L163.5 153.1 M230.2 252.5 L233.4 244.7 L236 188.8 M237.1 188.6 L235.2 245.2 L231.8 253.2 M256.9 141.7 L260 139.9 M151.6 147.9 L146.8 146.9 M156.6 149.3 L154.2 148.5 M146.8 146.9 L142 145.8 M138.2 144.5 L133.3 142 M276.4 129.2 L276.8 127.8 M276.8 127.8 L277.4 126.4 M277.7 126 L278.7 124.3 M280 124.6 L278.4 126.3 M280.3 121.8 L282.4 118.9 M125 127.2 L130.6 127.8 M285.6 119.8 L283 122.1 M290.4 115.6 L286.2 119.3 M277.9 127 L277.4 127.7 M278.7 124.3 L279.5 123.1 M283.4 118.7 L286.8 116.1 M287.3 116.5 L283.9 119.1 M279.5 123.1 L280.3 121.8 M221.1 161.4 L218.9 162.3 M213.7 164.8 L212.2 165.5 M215.4 163.6 L217 162.9 M189.9 164.4 L194 166.4 M214 164.3 L215.4 163.6 M219 155.6 L219.2 157.4 M205.6 151.5 L208.2 151.3 M219.2 157.4 L219.4 158.9 M193.8 166.7 L189.8 164.6 M196.2 160.9 L192.6 160.7 M215.5 150.9 L218.5 150.7 M210.8 165 L210.6 164 M278.2 126.6 L277.9 127 M209.2 151.2 L211.5 151.1 M208.2 180.6 L204.2 181 L203.3 178.9 M277.4 126.4 L277.7 126 M277.4 127.7 L277.3 127.9 M198.8 166.7 L201.3 166.5 M217 162.9 L218.2 162.2 M210.2 160 L209.8 160.1 M218.5 162.5 L217.2 163.1 M209.8 159.8 L210.1 159.8 M189.8 164.6 L185.4 162.5 M203.3 151.6 L205.6 151.5 M178.7 144.9 L188 145.1 M209.9 156.5 L209.1 156.5 M195.7 166.9 L198.8 166.7 M130.6 127.8 L132.6 128.2 M278.4 126.3 L278.2 126.6 M209.7 159.3 L209.6 159.1 M213.3 151 L215.5 150.9 M196 162.7 L196.2 160.9 M232.3 155.9 L237.7 154.3 M190.4 160.2 L193.7 160.5 M196.2 160.6 L198.3 160.7 M133.3 142 L131.3 140.4 M198.2 161 L196.2 160.9 M193.7 160.5 L196.2 160.6 M196.5 159 L196.6 157.3 M229 151.2 L227.5 147.8 M242.5 153.1 L235.8 155.2 M195.7 166.9 L195.7 164.8 M211.5 151.1 L213.3 151 M203.1 166.7 L201.4 166.8 M222.2 164 L224.1 163.2 M225.2 159.8 L224.6 158.1 M223.9 156.3 L223.1 154.8 M223.9 156.3 L224.5 157.9 M195.7 164.8 L195.9 163.1 M203.1 166.7 L204.4 166.5 M232.5 178.1 L236.6 184.7 M211.1 165.5 L211.8 165.3 M211.1 165.5 L211.8 165.8 M187.2 162.6 L189.9 164.4 M217.7 165.4 L218.9 165.2 M218.2 162.2 L218.3 161.6 M211.3 165.9 L210.7 165.6 M201.4 166.8 L199.9 166.9 M211 165.1 L211.1 165.5 M218.5 150.7 L220.5 150.6 M210.7 165.6 L210.6 165.2 M213.6 164.5 L214 164.3 M210.9 165.9 L210.3 166 M195.9 167.2 L193.8 166.7 M210.2 165.7 L210.7 165.6 M207.6 145.5 L207.4 143.2 M207.4 143.2 L207.2 140.3 M212.2 165.5 L211.8 165.8 M213.9 163.8 L214 164.1 M191.4 152.5 L190.9 154.6 M202.9 157 L202.3 157.1 M214 164.3 L214.1 164.6 M229.2 156.7 L231.9 156 M208.2 151.3 L209.2 151.2 M192.6 160.7 L190.4 160.5 M288.3 115 L291.5 112.8 M214.1 164.6 L213.7 164.8 M211.8 165.8 L211.3 165.9 M211.3 165.9 L210.9 165.9 M211.8 165.8 L212.2 165.8 M190.4 160.5 L190.2 162.3 M194.1 151.9 L196.2 152 M198.8 167 L197.4 167.1 M210.8 165 L211 165.1 M235.8 155.2 L232.4 156.2 M210.6 165.2 L210.8 165 M196.3 160.2 L196.4 159.3 M194 166.4 L195.7 166.9 M210.7 165.6 L211.1 165.5 M190.9 154.6 L192.2 155.8 M148.5 155.3 L152.7 154.7 M190.5 158.6 L190.4 160.2 M234.6 163.1 L235.9 165.8 M185.2 162.4 L182.8 164.8 M199.9 166.9 L198.8 167 M219.7 161.1 L219.8 161.5 M209.5 175.9 L207 175.9 M197.4 167.1 L195.9 167.2 M218.9 162.3 L218.5 162.5 M246.8 169.3 L250.7 175.9 M261 181.4 L266.6 191.1 L275.5 195.5 M213.9 163.7 L213.9 163.8 M244.9 205.7 L237.9 204.3 M214 164.1 L214 164.3 M233.6 160.9 L234.6 163.1 M290.6 114.2 L288.2 115.8 M219.4 158.9 L219.4 159.2 M207 175.9 L206.4 174.5 M282.7 119.2 L283.4 118.7 M209.5 174.5 L209.5 175.9 M251.1 176.6 L256.2 186.4 M196.2 152 L197.4 151.9 M283.9 119.1 L283.2 119.5 M231 154.6 L230 153.1 M220.5 150.6 L221.4 149.9 M152.3 150.9 L151.1 153.6 M202.3 151.7 L202.9 151.6 M201.6 151.7 L202.3 151.7 M292.7 113.7 L290.4 115.6 M203.2 140.1 L206.5 139.9 M182.6 158.9 L183.9 156.7 M230.8 152.8 L231.5 154.4 M233.7 182.3 L231.8 178.2 M233.6 161.9 L231.5 161.5 M196.2 160.6 L196.3 160.2 M225.8 160.3 L225.2 159.8 M231.5 154.4 L232.3 155.9 M229.9 161.8 L231.5 161.5 M129.1 138.4 L127.9 137.2 M190.1 162.8 L190 163.9 M150.3 168.5 L155.5 164.6 L158 165.4 L157.9 168.5 M286.2 119.3 L285.6 119.8 M196.4 159.3 L196.5 159 M195.9 163.1 L196 162.7 M120 169.3 L131.6 163.6 M231.5 161.5 L233.1 161.1 M222.1 153.9 L222.3 153.6 M202.9 151.6 L203.3 151.6 M190.6 156.9 L190.5 157.8 M231.6 155.7 L231 154.6 M241.5 170.1 L246.8 169.3 M188.6 155.6 L190 155.2 M327.9 103.4 L308.9 105.5 M151.9 199.6 L143 203.4 L129.8 203.8 L124.1 208.7 L127.1 212.4 L119 216.4 L115 214.5 L119 211.8 L118.5 207.6 L107.5 205.1 M196.2 160.9 L196.2 160.6 M193.1 151.6 L194.1 151.9 M190 155.2 L190.9 154.6 M181.2 151 L184.3 150.8 M127.9 75.6 L80 117.6 M140.8 154.3 L133.4 152.9 M258.9 167.7 L266.8 173.2 L270.2 173.4 M191.4 152.5 L191.1 151.6 M131.6 171.2 L151.1 170.3 M288.2 115.8 L287.3 116.5 M123.5 127.2 L124.6 127.1 M161.2 195.8 L155.4 197.9 M224.6 158.1 L224.5 157.9 M183.2 87.2 L186.8 100.2 M286.8 116.1 L287.7 115.5 M255.9 212 L253.8 204.9 M311.2 104.7 L331.6 102.3 M278.9 196.3 L284.3 192.6 L285.7 188.6 M191.9 151.8 L191.4 152.5 M199.1 140.3 L201.4 140.2 M197.4 151.9 L197.9 151.9 M220.9 150.7 L220.5 150.6 M79.6 117.2 L124 78.4 M195.9 167.2 L195.7 166.9 M244.9 166 L246.8 169.3 M235.9 165.8 L237.3 167.1 M177.6 154.4 L179.6 152.4 M284.4 161.3 L293 164.1 M190.1 150.6 L191.3 150.9 M247.6 204.2 L253.8 204.9 M239.5 153.8 L242.4 152.9 M179.4 151 L175.7 150.1 M188 145.1 L190.2 145.2 M190.5 158.1 L190.5 158.6 M282.3 205 L281.5 209.4 L285.1 217.1 L280 218.3 M189 174.8 L190.5 173.8 M292 113.1 L290.6 114.2 M201.4 140.2 L203.2 140.1 M190.2 162.3 L190.1 162.8 M228.7 151.8 L229 151.2 M230.8 152.8 L230 153.1 M190 163.9 L189.9 164.4 M287.7 115.5 L288.3 115 M245.3 152.1 L249.8 151.4 M212.9 174 L212.9 174.3 M255.9 209.9 L257.8 213.6 L263.7 216.5 M186.7 150.7 L185.2 150.7 M184.3 150.8 L182.4 150.9 M192.3 151.2 L192.8 151.5 M192.7 151.7 L192.1 151.7 M289.7 113.1 L291 112.4 M292.2 111.6 L294.3 110.4 M190.4 160.2 L190.4 160.5 M227.5 147.8 L227.4 147.2 M191.6 173.7 L192.6 174 M190.4 160.5 L190 160.5 M147.7 140.8 L143.9 139.3 M193.1 151.6 L192.7 151.7 M189.3 150.6 L190.1 150.6 M108.9 127.3 L97.5 124.6 M190.5 173.8 L191.6 173.7 M192.8 151.5 L193.1 151.6 M237.7 154.3 L239.2 153.8 M187.4 174.7 L189 174.8 M292.6 111.9 L294.2 110.6 M138.9 163.1 L134.2 165.2 M190.5 157.8 L190.5 158.1 M258.9 167.7 L257.4 173.5 M236 184.8 L233.7 182.3 M134.6 167.7 L150.3 168.5 M251 149.7 L249 146.5 M193.4 174.4 L193.9 174.9 M124.6 127.1 L124.8 127.2 M251.4 176.2 L256.9 174.4 M233.1 161.1 L233.6 160.9 M190.2 145.2 L191.2 145.2 M240.1 187 L236 184.8 M231.9 156 L232.3 155.9 M232.4 156.2 L232.1 156.3 M170.4 165.5 L166.9 167.4 M293 112.4 L292 113.1 M174 148.4 L175.4 146 M293.6 112.8 L292.7 113.7 M124.8 127.2 L125 127.2 M183.9 156.7 L184 156.2 M289.9 183.4 L289.5 176.9 M239.3 168.5 L240.2 169.5 M183.1 160 L182.4 159.9 M291.5 112.8 L292.4 112.1 M231.8 155.9 L231.6 155.7 M172.9 164.1 L170.4 165.5 M192.6 174 L193 174.2 M291 112.4 L291.9 111.8 M185.2 150.7 L184.3 150.8 M182.6 159.5 L182.6 158.9 M236.6 184.7 L240.3 186.8 M193 174.2 L193.4 174.4 M296.4 109.1 L299.1 107.6 M285.5 143.9 L285.2 139.1 M112.1 127.6 L116.6 127.8 M242.7 152.9 L244.5 152.4 M242.7 148.9 L241.2 149.7 M282.3 205 L282.6 202.3 L279.3 197 M237 79.3 L237.9 83.6 M198.1 86.6 L196.5 68 M182.5 159.7 L183 159.7 M206.5 139.9 L207 139.9 M207.6 140.2 L207.2 140.3 M250.7 206 L247.2 206.1 M207.6 139.9 L207.6 140.2 M207 140.2 L207 139.9 M245.6 164.8 L244.9 166 M180.4 151 L179.4 151 M183.5 160 L183.1 160 M133.1 133.7 L138.4 136.1 M256.6 160.4 L258.2 163.6 M176.6 154.9 L177.6 154.4 M299.5 108.2 L297.5 109.4 M176.8 145.3 L178.7 144.9 M240.3 186.8 L244.7 188.5 M295 111.1 L294.2 111.8 M294.2 110.6 L295.2 109.8 M294.2 111.8 L293.9 112.5 M305.6 106.2 L301.4 107.4 M244.4 188.7 L240.1 187 M207.2 139.8 L207.4 139.8 M207.2 140.3 L207 140.2 M213.7 89.9 L216.7 77.9 M296.7 109.9 L295.6 110.7 M232.3 177.5 L232.5 178.1 M295.2 109.8 L296.4 109.1 M251.2 158.5 L249.2 159 M90.1 122.5 L101.9 125.1 M297 155.1 L298.2 153.9 L295.7 150.3 L301.6 144.4 L303.7 137 M179.6 150.7 L180.3 150.8 M207.5 139.8 L207.6 139.9 M294.3 110.4 L295.2 109.8 M207 139.9 L207.2 139.8 M286.4 131.9 L288.7 126.4 M180.3 150.8 L180.1 150.3 M240.7 169.9 L241.5 170.1 M181.7 151 L181.2 151 M181.5 145.3 L182 144.8 M240.2 169.5 L240.7 169.9 M293.4 112.1 L293 112.4 M175.7 150.1 L174.4 150 M293.9 112.5 L293.6 112.8 M231.8 178.2 L231.6 177.8 M291.9 111.8 L292.2 111.6 M251.1 151.4 L251 149.7 M131.6 163.6 L134.8 162.7 M207.4 139.8 L207.5 139.8 M244.7 188.5 L248.8 191.2 M257.3 173.6 L256.4 176.7 M295.6 110.7 L295 111.1 M220.1 56.5 L203.4 52.2 L195.6 46.6 M170.5 156.4 L170 157.6 M294.2 111.8 L293.8 112 M239 168.3 L239.3 168.5 M292.4 112.1 L292.6 111.9 M180.3 150.8 L180.7 150.8 M239.2 153.8 L239.5 153.8 M181 151.1 L180.6 151 M280.5 170.7 L274.1 164.1 M173.8 149.4 L174 148.4 M244.5 152.4 L245.3 152.1 M133 146.3 L135.1 144.1 M181 150.8 L181.2 151 M293.8 112 L293.4 112.1 M243 148.3 L242.7 148.9 M180.4 151 L180.3 150.8 M246 164.3 L245.6 164.8 M180.7 150.8 L181 150.8 M179.1 150.6 L179.6 150.7 M243.4 149.1 L242.7 148.9 M181.2 151 L181 151.1 M260.9 215.6 L269.9 217.6 M251.3 161.9 L253 161.5 M301.4 107.4 L299.7 108.1 M299.2 107.6 L301 106.9 M297.5 109.4 L296.7 109.9 M244 149.5 L243.4 149.1 M247.9 191 L244.4 188.7 M127 147.2 L123.3 143.4 M180.1 150.3 L179.9 150.1 M180.6 151 L180.4 151 M292.5 138.3 L291.1 142.3 M115.9 132.2 L123.7 136.8 M169.5 159.1 L169.4 160 M242.4 152.9 L242.7 152.9 M242.7 152.9 L242.5 153.1 M249.8 151.4 L251.1 151.4 M275.4 219.8 L289.5 229.4 M266.3 151.1 L268.5 154.8 M169.4 160 L169.9 160.6 M254.8 160.9 L256.6 160.4 M257.3 177.2 L259.7 179.3 M123.1 171.9 L127.8 173.5 M258.9 167.7 L258.5 165.7 M170 158 L169.8 158.6 M263 154.9 L266.8 153.7 M198.6 92.8 L198.1 86.6 M296.2 182.3 L295 184.6 L296.3 186.9 L304.6 189.2 L298.4 193.5 M261.3 161.4 L260.1 159.6 M116.5 162 L120.3 166.2 M251.9 194.3 L258.1 192.5 M256.6 160.4 L258.4 159.9 M253 161.5 L254.1 161.2 M175.4 146 L175.4 145.6 M171.1 156.3 L170.5 156.4 M253 161.5 L252.6 162.2 M266.8 153.7 L265.2 150.7 M131.8 155.7 L134.4 155.6 L139.9 160.4 M301.3 106.7 L302.8 106.2 M170 157.6 L170 158 M270.2 173.4 L275.7 175 M262.1 216.2 L268.4 218.6 M258.7 164.4 L258.5 165.7 M101.9 125.1 L105.7 126 M198.9 96.1 L198.6 92.8 M169.6 158.8 L169.5 159.1 M297.4 200.4 L284.6 208.8 L282.3 205 M265.2 150.7 L264.1 148.4 M169.8 158.6 L169.6 158.8 M258.8 194 L253.2 195.5 M275.7 175 L280.5 170.7 M277.7 157.6 L273.9 153.9 M151.1 153.6 L154.1 154.8 M254.1 161.2 L254.8 160.9 M280 218.3 L271 217.6 M118.9 139.7 L112.6 135.8 M255.1 190 L258.1 192.5 M292.9 122.6 L298.7 117.4 M265 198.3 L260.3 193.7 M147.1 153.8 L151.3 154.5 M268.5 154.8 L272.5 154 M154.8 152 L152.3 150.9 M308.6 105.6 L306.6 105.9 M258.2 163.6 L258.7 164.4 M116.8 157.3 L115.2 153.3 M289.8 238.2 L278 237.9 L272.3 243.9 L271.9 248.1 L265.8 250.1 M258.4 159.9 L259.4 159.6 M303.6 106 L304.7 105.8 M255.1 190 L252.4 191.5 M269.2 156.4 L271.6 158.2 M258.3 165.1 L258.4 164.4 M305.1 105.7 L306.4 105.5 M302.8 106.2 L303.6 106 M299.7 108.1 L299.5 108.2 M307.6 105.3 L309.5 105 M259.7 179.3 L260.8 180.9 M156.6 152.6 L154.8 152 M288.4 145.9 L290.8 153.9 M256.9 174.4 L257.3 173.6 M250.7 176.1 L250.9 176.5 M299.1 107.6 L299.2 107.6 M164.8 145.6 L164.3 145 M258.5 165.7 L258.3 165.1 M153 149 L152.3 150.9 M289.7 125.5 L292.9 122.6 M285.7 188.6 L288.1 191.7 L298.4 193.5 M256.4 176.7 L257.3 177.2 M154.1 154.8 L155.9 154.6 M301 106.9 L301.3 106.7 M250.7 175.9 L251 176.1 M148.8 136.9 L143.5 134.1 M306.6 105.9 L305.6 106.2 M110.8 151.4 L104.4 147.5 M260.1 159.6 L259.4 159.6 M249.3 192.1 L247.9 191 M232 248.5 L226.5 249.5 L215.9 255.5 M251 176.1 L251.4 176.2 M155.4 149.1 L153.3 148.9 M162.2 151 L162.7 150.8 M306.4 105.5 L307.6 105.3 M251.4 176.2 L251.2 176.4 M251.2 176.4 L251.1 176.6 M261.9 162 L261.3 161.4 M220.7 70 L216.6 79.7 M256.2 186.4 L256.1 188.1 M250.7 175.9 L250.7 176.1 M250.9 176.5 L251.1 176.6 M272.6 159 L276 158.3 M162.7 150.8 L163.1 150.6 M164.9 145.9 L164.8 145.6 M161.6 151 L162.2 151 M256.1 188.1 L255.4 189.7 M163.1 150.6 L163.4 150.4 M151.1 170.3 L151.4 168.8 M273.9 161.9 L273.4 159.6 M140.1 150.9 L144.3 151.8 M157.4 153.1 L156.6 152.6 M164.3 145 L163.9 144.7 M327 129.9 L318.9 126.3 L313.7 126.9 L309 134.1 L303.7 137 M309.5 105 L310.8 104.8 M304.7 105.8 L305.1 105.7 M138.9 132.2 L129.2 128.6 M273.9 205 L266.7 200.6 M153.2 147.8 L153.8 146.6 M123.3 166.9 L124 169.3 L130.7 170.3 M209.1 265 L220.1 263.7 M237.5 67.8 L236.7 70.7 M87.2 149.4 L97.2 153.4 L99 156.9 L107.5 160.4 M148.4 139.6 L148.8 136.9 M248.8 191.2 L249.3 192.1 M248.8 191.2 L247.9 191 M249.7 191.4 L248.8 191.2 M251.9 194.3 L253.2 195.5 M250.8 193.3 L251.9 194.3 M198.9 91.1 L211.7 90 M264 147.7 L263.6 147.2 M257.3 173.6 L257.4 173.5 M119.7 163.6 L123.1 161.7 L124.7 157.5 M109.4 135.3 L101.7 137 M249.4 192.2 L250.1 192.9 M144.9 153.1 L142.9 151.9 M118.9 148.2 L118.1 157.1 M281.6 158.8 L278.3 158.1 M98.9 143.6 L86.4 141.2 M287.3 134.4 L287.7 140.4 M134.6 127.3 L142 129.2 M297.7 180.6 L298.1 176.2 L294.2 177.7 M125.2 152.5 L127.7 155.3 L130.2 155.1 M125.2 152.5 L126.6 155.7 L129.5 156.4 M294.1 142.4 L295.7 134.5 M151.4 168.8 L150.3 168.5 M252.1 191.5 L251.1 191.6 M151.4 168.8 L151.2 168 M308.9 105.5 L308.6 105.6 M227.8 255.6 L229.8 253.1 M271.6 158.2 L272.6 159 M75.5 121.5 L58.1 120.9 M304.8 129.3 L310.2 124.3 L323.1 125 L336.7 121.7 M260.8 180.9 L261 181.4 M250.8 191.6 L250.1 191.5 M133.4 152.9 L136.9 150.6 M104.1 156.3 L100.4 154.7 L100.2 152.5 M274.1 164.1 L273.8 162.9 M292.4 136.2 L284.6 136.4 M297.6 122.1 L295.3 124.2" fill="none" stroke="#fcf7e8" stroke-width="6.4" opacity="0.92" stroke-linecap="round" stroke-linejoin="round"/>
</g>
<g data-layer="major-road">
<path d="M184.4 145.1 L219.9 143.8 M219.8 144.4 L176.1 145.1 L161.5 141.9 L148.7 136.4 M238.1 168.4 L231.9 175.4 L235.7 185.4 M211.4 155.4 L218.7 154.8 M219.9 143.8 L253 138.9 L264.5 133.8 L274.8 125.9 M196.1 156.3 L203.8 156 M275.3 126.3 L257.9 138.4 L236.6 142.6 M232 173.8 L238.5 167.5 M224 153.3 L228.7 151.8 M136.7 129.9 L161.9 141.5 L184.4 145.1 M192.7 156.6 L188.7 156.4 M239.2 154.3 L240 159.8 M226.6 153.4 L224.2 154 M239.4 162.2 L239.8 157 M236.5 147.1 L234.8 148.6 L237.2 150.7 M237.7 147 L243.3 143.6 M183.8 155.1 L186.6 155.4 M231 150.1 L232.2 148.7 M237.9 83.6 L248.8 136.6 M178.6 155.2 L175.8 155.4 M213.1 161.6 L219.7 161.1 M196 162.7 L204 162.4 M175.8 155.4 L172.7 155.7 M206.2 162.6 L201 163.1 M224.2 172.2 L213.9 173.6 M266.7 138.5 L274.9 135 M277.3 127.9 L276.2 134.3 L272.9 137.2 M213.5 190.8 L206 192.5 L205.5 195.7 L202.9 197.5 L188.4 199.1 M208.5 154.5 L208.3 151.7 M188.4 199.1 L187.8 193.1 L183.9 186.9 L181.1 185.7 L176.6 186.6 L174.9 191.2 L168.7 193 M232.1 158.7 L225.8 160.3 M271.8 137.6 L267.1 138.8 M235.4 204.4 L230.7 205.4 L225.9 203.2 L225.2 200 L216.1 194.3 L216.1 191.2 M192.6 170.3 L197.6 172.6 M230.7 153.5 L228.5 149.1 M207.5 174.5 L212.1 174.4 M190.2 162.3 L194.4 162.6 M185.2 162.4 L177 161.9 M220.7 175.6 L219.8 177.2 L222.7 179 M172 161.4 L163.5 160.4 L156.7 157.3 M185.7 166.4 L189.9 168.7 M274.8 125.9 L282.7 119.2 M283.2 119.5 L275.3 126.3 M237.4 157.2 L232.6 158.5 M275.6 134.1 L276.4 129.2 M177 161.9 L182.8 164.8 M263.9 138.8 L264.8 138.8 M134.5 178.7 L139.1 177.3 L151.1 180.2 L160 191.5 L167.2 193 M265.2 138.8 L266 138.6 M169 144.8 L171.6 145.1 M230.4 173.6 L227 172.8 M246.6 154.3 L240.9 156.1 M266 138.6 L266.7 138.5 M264.8 138.8 L265.2 138.8 M210.1 159.8 L216.8 159.2 M267.1 138.8 L266.6 139 M225.8 183.2 L225.9 187.6 M272.9 137.2 L271.8 137.6 M209.1 156.5 L202.9 157 M219.4 159.2 L213.2 159.8 M174.6 149.5 L179.1 150.6 M236.4 194.6 L242.1 195.4 L244 198.1 L243.9 202.8 M215.5 156 L209.9 156.5 M209.3 168.2 L206.9 170.7 L207.5 174.5 M248.4 157.6 L250.3 161.3 M274.9 135 L275.6 134.1 M249.5 153.2 L256.2 153.2 M207.9 160.2 L203.7 160.6 M282.4 118.9 L289.7 113.1 M157.9 168.5 L164.3 170.9 L167.4 174.4 L169.9 173.9 L171.5 169.8 L174.9 170.3 M275.1 154.6 L267.9 154.4 L265 149.6 M198.3 160.7 L203.9 160.3 M212.2 165.8 L217.7 165.4 M203.7 160.6 L198.2 161 M209.6 159.1 L209.1 156.5 M213.2 159.8 L210.2 160 M193.9 174.9 L195.9 177.5 L203.3 178.9 M203.9 160.3 L207.4 160 M283 122.1 L280 124.6 M207.4 160 L209.8 159.8 M232.1 156.3 L224.6 158.1 M212.9 174.3 L208.2 180.6 M247.3 163.6 L250 162.1 M224.6 158.1 L219.4 159.2 M219.4 158.9 L224.5 157.9 M210.6 164 L213.9 163.7 M174.9 170.3 L187.4 174.7 M217.2 163.1 L214.1 164.6 M230 153.1 L223.1 154.8 M209.8 160.1 L207.9 160.2 M241.2 149.7 L230.8 152.8 M206.8 166 L210.2 165.7 M210.3 166 L206.9 166.3 M224.1 163.2 L229.9 161.8 M210.6 164 L210.4 162.2 M219 155.6 L215.5 156 M211.3 165.9 L209.3 168.2 M130.1 173.7 L135.3 176.5 L138.5 175.1 L141.2 176.2 L134.5 178.7 M227.4 190.9 L229.3 194.2 M223.1 154.8 L219 155.6 M218.9 165.2 L222.2 164 M216.8 159.2 L219.4 158.9 M183 159.7 L190.4 160.2 M224.5 157.9 L229.2 156.7 M201.3 166.5 L204.4 166.2 M211.8 165.3 L213.6 164.5 M222.3 153.6 L220.9 150.7 M204.4 166.2 L206.8 166 M206.9 166.3 L204.4 166.5 M151.7 141.4 L153.7 142 M219.4 159.2 L219.7 161.1 M190 160.5 L183.5 160 M197.9 151.9 L201.6 151.7 M301.3 165.5 L304.2 169 L298.2 171.2 L286.3 165.8 L290.8 175.3 M231.6 195.1 L236.4 194.6 M274.5 152.8 L285.8 146.7 M143.8 133.8 L147.7 135.7 M267 157.3 L262.1 157.4 M203.9 144.9 L219.9 143.8 M141.1 160.9 L146.6 156.8 M214 145.5 L203.1 146.2 M204.4 98.9 L209.6 98.1 M209.6 98.1 L214.7 96.2 M280.3 136.8 L277.7 136.9 M199.7 99.1 L203.2 98.9 M190 95 L187.8 89.2 M214.7 96.2 L218.5 94 M191.3 98.7 L190.5 96.4 M227.6 88.6 L222.7 91.6 M219.8 144.4 L214 145.5 M182 79 L186.7 85.9 M232.1 84.9 L240.3 82 M261.8 73.3 L247.4 80.8 M240 164.9 L235.4 171.3 M180 68.9 L182 79 M233.2 143.7 L234.6 145.6 L241.3 145.9 M224.8 153.5 L222.1 151.9 M180.8 152.4 L179.5 154.9 L175.2 155.7 M195.1 143.4 L198.6 140.5 M190.6 144.9 L195.1 143.4 M234.9 185.3 L232.7 180.8 M182.8 159.1 L183.7 157.6 M184.3 151.1 L182.2 151.3 M233.2 73.8 L233.6 69.5 M262.9 145.1 L260.9 141.1 L257.7 142 M195.8 60.3 L185.2 59.8 M162.4 70.5 L159.8 69.3 L159.6 65.4 M252.8 68.9 L251.9 64.2 M177.4 61.9 L179.2 66.1 M178.5 69 L175.4 69.2 M170.4 69.9 L167.1 70.2 M252.9 71.4 L252.8 68.9 M263.1 71.3 L265.6 68.6 M160.9 59.2 L160.9 64.8 M177.6 50.4 L175 57.8 M185.2 59.8 L180.1 58.9 M202.1 57 L206.9 54.4 M174.3 57.6 L176.6 51.5 M164.3 70.5 L162.4 70.5 M242 56.4 L246.5 59.3 M249.1 61.4 L245.4 59.4 M281.8 132.8 L277.6 130.6 M274.5 59.5 L270.7 63.8 M175.4 59.2 L177.1 61.5 M160.4 58 L160.1 52.2 M159.8 62 L160.4 59 M290.7 136.2 L281.7 136.5 M165.2 144.5 L165.4 144.8 M230.4 153.4 L230.8 153.3 M183.9 156.7 L184.4 156.8 M293.9 133.7 L293.4 135.4 M350.3 109.3 L345.3 108.8 L344.6 103.5 L342.5 101.9 M320.2 111.4 L319.2 108.6 M249.8 191.7 L249.4 192.2 M250.1 191.5 L249.8 191.7 M250.4 193.7 L250.8 193.3 M259 193.1 L258.8 194 M345 102.1 L345.8 105.8 L351 107 M273.1 162.7 L273.8 162.9 M337.4 101 L342.4 100.4 L345 102.1 M320.5 112.4 L320.2 111.4 M262.3 62.3 L268.8 65.1 M181.6 79.7 L181.1 80 M349.5 102 L358.6 104.3 M136 131 L134.5 130.8 M132.2 156.1 L131.8 155.7 M271.1 68.1 L268.1 67.1 M294.1 142.4 L293.9 143.5 M273 68.3 L274.9 68.3 M123.6 273.9 L122.4 276.5 M90 269.3 L91.8 268 M54 256.4 L50.7 257.4 M250.3 145.3 L254.7 143.4 M167.3 155.1 L165.4 154.1 M160.4 151.3 L156.6 149.3 M165.4 154.1 L163.5 153.1 M230.2 252.5 L233.4 244.7 L236 188.8 M237.1 188.6 L235.2 245.2 L231.8 253.2 M256.9 141.7 L260 139.9 M151.6 147.9 L146.8 146.9 M156.6 149.3 L154.2 148.5 M146.8 146.9 L142 145.8 M138.2 144.5 L133.3 142 M276.4 129.2 L276.8 127.8 M276.8 127.8 L277.4 126.4 M277.7 126 L278.7 124.3 M280 124.6 L278.4 126.3 M280.3 121.8 L282.4 118.9 M125 127.2 L130.6 127.8 M285.6 119.8 L283 122.1 M290.4 115.6 L286.2 119.3 M277.9 127 L277.4 127.7 M278.7 124.3 L279.5 123.1 M283.4 118.7 L286.8 116.1 M287.3 116.5 L283.9 119.1 M279.5 123.1 L280.3 121.8 M221.1 161.4 L218.9 162.3 M213.7 164.8 L212.2 165.5 M215.4 163.6 L217 162.9 M189.9 164.4 L194 166.4 M214 164.3 L215.4 163.6 M219 155.6 L219.2 157.4 M205.6 151.5 L208.2 151.3 M219.2 157.4 L219.4 158.9 M193.8 166.7 L189.8 164.6 M196.2 160.9 L192.6 160.7 M215.5 150.9 L218.5 150.7 M210.8 165 L210.6 164 M278.2 126.6 L277.9 127 M209.2 151.2 L211.5 151.1 M208.2 180.6 L204.2 181 L203.3 178.9 M277.4 126.4 L277.7 126 M277.4 127.7 L277.3 127.9 M198.8 166.7 L201.3 166.5 M217 162.9 L218.2 162.2 M210.2 160 L209.8 160.1 M218.5 162.5 L217.2 163.1 M209.8 159.8 L210.1 159.8 M189.8 164.6 L185.4 162.5 M203.3 151.6 L205.6 151.5 M178.7 144.9 L188 145.1 M209.9 156.5 L209.1 156.5 M195.7 166.9 L198.8 166.7 M130.6 127.8 L132.6 128.2 M278.4 126.3 L278.2 126.6 M209.7 159.3 L209.6 159.1 M213.3 151 L215.5 150.9 M196 162.7 L196.2 160.9 M232.3 155.9 L237.7 154.3 M190.4 160.2 L193.7 160.5 M196.2 160.6 L198.3 160.7 M133.3 142 L131.3 140.4 M198.2 161 L196.2 160.9 M193.7 160.5 L196.2 160.6 M196.5 159 L196.6 157.3 M229 151.2 L227.5 147.8 M242.5 153.1 L235.8 155.2 M195.7 166.9 L195.7 164.8 M211.5 151.1 L213.3 151 M203.1 166.7 L201.4 166.8 M222.2 164 L224.1 163.2 M225.2 159.8 L224.6 158.1 M223.9 156.3 L223.1 154.8 M223.9 156.3 L224.5 157.9 M195.7 164.8 L195.9 163.1 M203.1 166.7 L204.4 166.5 M232.5 178.1 L236.6 184.7 M211.1 165.5 L211.8 165.3 M211.1 165.5 L211.8 165.8 M187.2 162.6 L189.9 164.4 M217.7 165.4 L218.9 165.2 M218.2 162.2 L218.3 161.6 M211.3 165.9 L210.7 165.6 M201.4 166.8 L199.9 166.9 M211 165.1 L211.1 165.5 M218.5 150.7 L220.5 150.6 M210.7 165.6 L210.6 165.2 M213.6 164.5 L214 164.3 M210.9 165.9 L210.3 166 M195.9 167.2 L193.8 166.7 M210.2 165.7 L210.7 165.6 M207.6 145.5 L207.4 143.2 M207.4 143.2 L207.2 140.3 M212.2 165.5 L211.8 165.8 M213.9 163.8 L214 164.1 M191.4 152.5 L190.9 154.6 M202.9 157 L202.3 157.1 M214 164.3 L214.1 164.6 M229.2 156.7 L231.9 156 M208.2 151.3 L209.2 151.2 M192.6 160.7 L190.4 160.5 M288.3 115 L291.5 112.8 M214.1 164.6 L213.7 164.8 M211.8 165.8 L211.3 165.9 M211.3 165.9 L210.9 165.9 M211.8 165.8 L212.2 165.8 M190.4 160.5 L190.2 162.3 M194.1 151.9 L196.2 152 M198.8 167 L197.4 167.1 M210.8 165 L211 165.1 M235.8 155.2 L232.4 156.2 M210.6 165.2 L210.8 165 M196.3 160.2 L196.4 159.3 M194 166.4 L195.7 166.9 M210.7 165.6 L211.1 165.5 M190.9 154.6 L192.2 155.8 M148.5 155.3 L152.7 154.7 M190.5 158.6 L190.4 160.2 M234.6 163.1 L235.9 165.8 M185.2 162.4 L182.8 164.8 M199.9 166.9 L198.8 167 M219.7 161.1 L219.8 161.5 M209.5 175.9 L207 175.9 M197.4 167.1 L195.9 167.2 M218.9 162.3 L218.5 162.5 M246.8 169.3 L250.7 175.9 M261 181.4 L266.6 191.1 L275.5 195.5 M213.9 163.7 L213.9 163.8 M244.9 205.7 L237.9 204.3 M214 164.1 L214 164.3 M233.6 160.9 L234.6 163.1 M290.6 114.2 L288.2 115.8 M219.4 158.9 L219.4 159.2 M207 175.9 L206.4 174.5 M282.7 119.2 L283.4 118.7 M209.5 174.5 L209.5 175.9 M251.1 176.6 L256.2 186.4 M196.2 152 L197.4 151.9 M283.9 119.1 L283.2 119.5 M231 154.6 L230 153.1 M220.5 150.6 L221.4 149.9 M152.3 150.9 L151.1 153.6 M202.3 151.7 L202.9 151.6 M201.6 151.7 L202.3 151.7 M292.7 113.7 L290.4 115.6 M203.2 140.1 L206.5 139.9 M182.6 158.9 L183.9 156.7 M230.8 152.8 L231.5 154.4 M233.7 182.3 L231.8 178.2 M233.6 161.9 L231.5 161.5 M196.2 160.6 L196.3 160.2 M225.8 160.3 L225.2 159.8 M231.5 154.4 L232.3 155.9 M229.9 161.8 L231.5 161.5 M129.1 138.4 L127.9 137.2 M190.1 162.8 L190 163.9 M150.3 168.5 L155.5 164.6 L158 165.4 L157.9 168.5 M286.2 119.3 L285.6 119.8 M196.4 159.3 L196.5 159 M195.9 163.1 L196 162.7 M120 169.3 L131.6 163.6 M231.5 161.5 L233.1 161.1 M222.1 153.9 L222.3 153.6 M202.9 151.6 L203.3 151.6 M190.6 156.9 L190.5 157.8 M231.6 155.7 L231 154.6 M241.5 170.1 L246.8 169.3 M188.6 155.6 L190 155.2 M327.9 103.4 L308.9 105.5 M151.9 199.6 L143 203.4 L129.8 203.8 L124.1 208.7 L127.1 212.4 L119 216.4 L115 214.5 L119 211.8 L118.5 207.6 L107.5 205.1 M196.2 160.9 L196.2 160.6 M193.1 151.6 L194.1 151.9 M190 155.2 L190.9 154.6 M181.2 151 L184.3 150.8 M127.9 75.6 L80 117.6 M140.8 154.3 L133.4 152.9 M258.9 167.7 L266.8 173.2 L270.2 173.4 M191.4 152.5 L191.1 151.6 M131.6 171.2 L151.1 170.3 M288.2 115.8 L287.3 116.5 M123.5 127.2 L124.6 127.1 M161.2 195.8 L155.4 197.9 M224.6 158.1 L224.5 157.9 M183.2 87.2 L186.8 100.2 M286.8 116.1 L287.7 115.5 M255.9 212 L253.8 204.9 M311.2 104.7 L331.6 102.3 M278.9 196.3 L284.3 192.6 L285.7 188.6 M191.9 151.8 L191.4 152.5 M199.1 140.3 L201.4 140.2 M197.4 151.9 L197.9 151.9 M220.9 150.7 L220.5 150.6 M79.6 117.2 L124 78.4 M195.9 167.2 L195.7 166.9 M244.9 166 L246.8 169.3 M235.9 165.8 L237.3 167.1 M177.6 154.4 L179.6 152.4 M284.4 161.3 L293 164.1 M190.1 150.6 L191.3 150.9 M247.6 204.2 L253.8 204.9 M239.5 153.8 L242.4 152.9 M179.4 151 L175.7 150.1 M188 145.1 L190.2 145.2 M190.5 158.1 L190.5 158.6 M282.3 205 L281.5 209.4 L285.1 217.1 L280 218.3 M189 174.8 L190.5 173.8 M292 113.1 L290.6 114.2 M201.4 140.2 L203.2 140.1 M190.2 162.3 L190.1 162.8 M228.7 151.8 L229 151.2 M230.8 152.8 L230 153.1 M190 163.9 L189.9 164.4 M287.7 115.5 L288.3 115 M245.3 152.1 L249.8 151.4 M212.9 174 L212.9 174.3 M255.9 209.9 L257.8 213.6 L263.7 216.5 M186.7 150.7 L185.2 150.7 M184.3 150.8 L182.4 150.9 M192.3 151.2 L192.8 151.5 M192.7 151.7 L192.1 151.7 M289.7 113.1 L291 112.4 M292.2 111.6 L294.3 110.4 M190.4 160.2 L190.4 160.5 M227.5 147.8 L227.4 147.2 M191.6 173.7 L192.6 174 M190.4 160.5 L190 160.5 M147.7 140.8 L143.9 139.3 M193.1 151.6 L192.7 151.7 M189.3 150.6 L190.1 150.6 M108.9 127.3 L97.5 124.6 M190.5 173.8 L191.6 173.7 M192.8 151.5 L193.1 151.6 M237.7 154.3 L239.2 153.8 M187.4 174.7 L189 174.8 M292.6 111.9 L294.2 110.6 M138.9 163.1 L134.2 165.2 M190.5 157.8 L190.5 158.1 M258.9 167.7 L257.4 173.5 M236 184.8 L233.7 182.3 M134.6 167.7 L150.3 168.5 M251 149.7 L249 146.5 M193.4 174.4 L193.9 174.9 M124.6 127.1 L124.8 127.2 M251.4 176.2 L256.9 174.4 M233.1 161.1 L233.6 160.9 M190.2 145.2 L191.2 145.2 M240.1 187 L236 184.8 M231.9 156 L232.3 155.9 M232.4 156.2 L232.1 156.3 M170.4 165.5 L166.9 167.4 M293 112.4 L292 113.1 M174 148.4 L175.4 146 M293.6 112.8 L292.7 113.7 M124.8 127.2 L125 127.2 M183.9 156.7 L184 156.2 M289.9 183.4 L289.5 176.9 M239.3 168.5 L240.2 169.5 M183.1 160 L182.4 159.9 M291.5 112.8 L292.4 112.1 M231.8 155.9 L231.6 155.7 M172.9 164.1 L170.4 165.5 M192.6 174 L193 174.2 M291 112.4 L291.9 111.8 M185.2 150.7 L184.3 150.8 M182.6 159.5 L182.6 158.9 M236.6 184.7 L240.3 186.8 M193 174.2 L193.4 174.4 M296.4 109.1 L299.1 107.6 M285.5 143.9 L285.2 139.1 M112.1 127.6 L116.6 127.8 M242.7 152.9 L244.5 152.4 M242.7 148.9 L241.2 149.7 M282.3 205 L282.6 202.3 L279.3 197 M237 79.3 L237.9 83.6 M198.1 86.6 L196.5 68 M182.5 159.7 L183 159.7 M206.5 139.9 L207 139.9 M207.6 140.2 L207.2 140.3 M250.7 206 L247.2 206.1 M207.6 139.9 L207.6 140.2 M207 140.2 L207 139.9 M245.6 164.8 L244.9 166 M180.4 151 L179.4 151 M183.5 160 L183.1 160 M133.1 133.7 L138.4 136.1 M256.6 160.4 L258.2 163.6 M176.6 154.9 L177.6 154.4 M299.5 108.2 L297.5 109.4 M176.8 145.3 L178.7 144.9 M240.3 186.8 L244.7 188.5 M295 111.1 L294.2 111.8 M294.2 110.6 L295.2 109.8 M294.2 111.8 L293.9 112.5 M305.6 106.2 L301.4 107.4 M244.4 188.7 L240.1 187 M207.2 139.8 L207.4 139.8 M207.2 140.3 L207 140.2 M213.7 89.9 L216.7 77.9 M296.7 109.9 L295.6 110.7 M232.3 177.5 L232.5 178.1 M295.2 109.8 L296.4 109.1 M251.2 158.5 L249.2 159 M90.1 122.5 L101.9 125.1 M297 155.1 L298.2 153.9 L295.7 150.3 L301.6 144.4 L303.7 137 M179.6 150.7 L180.3 150.8 M207.5 139.8 L207.6 139.9 M294.3 110.4 L295.2 109.8 M207 139.9 L207.2 139.8 M286.4 131.9 L288.7 126.4 M180.3 150.8 L180.1 150.3 M240.7 169.9 L241.5 170.1 M181.7 151 L181.2 151 M181.5 145.3 L182 144.8 M240.2 169.5 L240.7 169.9 M293.4 112.1 L293 112.4 M175.7 150.1 L174.4 150 M293.9 112.5 L293.6 112.8 M231.8 178.2 L231.6 177.8 M291.9 111.8 L292.2 111.6 M251.1 151.4 L251 149.7 M131.6 163.6 L134.8 162.7 M207.4 139.8 L207.5 139.8 M244.7 188.5 L248.8 191.2 M257.3 173.6 L256.4 176.7 M295.6 110.7 L295 111.1 M220.1 56.5 L203.4 52.2 L195.6 46.6 M170.5 156.4 L170 157.6 M294.2 111.8 L293.8 112 M239 168.3 L239.3 168.5 M292.4 112.1 L292.6 111.9 M180.3 150.8 L180.7 150.8 M239.2 153.8 L239.5 153.8 M181 151.1 L180.6 151 M280.5 170.7 L274.1 164.1 M173.8 149.4 L174 148.4 M244.5 152.4 L245.3 152.1 M133 146.3 L135.1 144.1 M181 150.8 L181.2 151 M293.8 112 L293.4 112.1 M243 148.3 L242.7 148.9 M180.4 151 L180.3 150.8 M246 164.3 L245.6 164.8 M180.7 150.8 L181 150.8 M179.1 150.6 L179.6 150.7 M243.4 149.1 L242.7 148.9 M181.2 151 L181 151.1 M260.9 215.6 L269.9 217.6 M251.3 161.9 L253 161.5 M301.4 107.4 L299.7 108.1 M299.2 107.6 L301 106.9 M297.5 109.4 L296.7 109.9 M244 149.5 L243.4 149.1 M247.9 191 L244.4 188.7 M127 147.2 L123.3 143.4 M180.1 150.3 L179.9 150.1 M180.6 151 L180.4 151 M292.5 138.3 L291.1 142.3 M115.9 132.2 L123.7 136.8 M169.5 159.1 L169.4 160 M242.4 152.9 L242.7 152.9 M242.7 152.9 L242.5 153.1 M249.8 151.4 L251.1 151.4 M275.4 219.8 L289.5 229.4 M266.3 151.1 L268.5 154.8 M169.4 160 L169.9 160.6 M254.8 160.9 L256.6 160.4 M257.3 177.2 L259.7 179.3 M123.1 171.9 L127.8 173.5 M258.9 167.7 L258.5 165.7 M170 158 L169.8 158.6 M263 154.9 L266.8 153.7 M198.6 92.8 L198.1 86.6 M296.2 182.3 L295 184.6 L296.3 186.9 L304.6 189.2 L298.4 193.5 M261.3 161.4 L260.1 159.6 M116.5 162 L120.3 166.2 M251.9 194.3 L258.1 192.5 M256.6 160.4 L258.4 159.9 M253 161.5 L254.1 161.2 M175.4 146 L175.4 145.6 M171.1 156.3 L170.5 156.4 M253 161.5 L252.6 162.2 M266.8 153.7 L265.2 150.7 M131.8 155.7 L134.4 155.6 L139.9 160.4 M301.3 106.7 L302.8 106.2 M170 157.6 L170 158 M270.2 173.4 L275.7 175 M262.1 216.2 L268.4 218.6 M258.7 164.4 L258.5 165.7 M101.9 125.1 L105.7 126 M198.9 96.1 L198.6 92.8 M169.6 158.8 L169.5 159.1 M297.4 200.4 L284.6 208.8 L282.3 205 M265.2 150.7 L264.1 148.4 M169.8 158.6 L169.6 158.8 M258.8 194 L253.2 195.5 M275.7 175 L280.5 170.7 M277.7 157.6 L273.9 153.9 M151.1 153.6 L154.1 154.8 M254.1 161.2 L254.8 160.9 M280 218.3 L271 217.6 M118.9 139.7 L112.6 135.8 M255.1 190 L258.1 192.5 M292.9 122.6 L298.7 117.4 M265 198.3 L260.3 193.7 M147.1 153.8 L151.3 154.5 M268.5 154.8 L272.5 154 M154.8 152 L152.3 150.9 M308.6 105.6 L306.6 105.9 M258.2 163.6 L258.7 164.4 M116.8 157.3 L115.2 153.3 M289.8 238.2 L278 237.9 L272.3 243.9 L271.9 248.1 L265.8 250.1 M258.4 159.9 L259.4 159.6 M303.6 106 L304.7 105.8 M255.1 190 L252.4 191.5 M269.2 156.4 L271.6 158.2 M258.3 165.1 L258.4 164.4 M305.1 105.7 L306.4 105.5 M302.8 106.2 L303.6 106 M299.7 108.1 L299.5 108.2 M307.6 105.3 L309.5 105 M259.7 179.3 L260.8 180.9 M156.6 152.6 L154.8 152 M288.4 145.9 L290.8 153.9 M256.9 174.4 L257.3 173.6 M250.7 176.1 L250.9 176.5 M299.1 107.6 L299.2 107.6 M164.8 145.6 L164.3 145 M258.5 165.7 L258.3 165.1 M153 149 L152.3 150.9 M289.7 125.5 L292.9 122.6 M285.7 188.6 L288.1 191.7 L298.4 193.5 M256.4 176.7 L257.3 177.2 M154.1 154.8 L155.9 154.6 M301 106.9 L301.3 106.7 M250.7 175.9 L251 176.1 M148.8 136.9 L143.5 134.1 M306.6 105.9 L305.6 106.2 M110.8 151.4 L104.4 147.5 M260.1 159.6 L259.4 159.6 M249.3 192.1 L247.9 191 M232 248.5 L226.5 249.5 L215.9 255.5 M251 176.1 L251.4 176.2 M155.4 149.1 L153.3 148.9 M162.2 151 L162.7 150.8 M306.4 105.5 L307.6 105.3 M251.4 176.2 L251.2 176.4 M251.2 176.4 L251.1 176.6 M261.9 162 L261.3 161.4 M220.7 70 L216.6 79.7 M256.2 186.4 L256.1 188.1 M250.7 175.9 L250.7 176.1 M250.9 176.5 L251.1 176.6 M272.6 159 L276 158.3 M162.7 150.8 L163.1 150.6 M164.9 145.9 L164.8 145.6 M161.6 151 L162.2 151 M256.1 188.1 L255.4 189.7 M163.1 150.6 L163.4 150.4 M151.1 170.3 L151.4 168.8 M273.9 161.9 L273.4 159.6 M140.1 150.9 L144.3 151.8 M157.4 153.1 L156.6 152.6 M164.3 145 L163.9 144.7 M327 129.9 L318.9 126.3 L313.7 126.9 L309 134.1 L303.7 137 M309.5 105 L310.8 104.8 M304.7 105.8 L305.1 105.7 M138.9 132.2 L129.2 128.6 M273.9 205 L266.7 200.6 M153.2 147.8 L153.8 146.6 M123.3 166.9 L124 169.3 L130.7 170.3 M209.1 265 L220.1 263.7 M237.5 67.8 L236.7 70.7 M87.2 149.4 L97.2 153.4 L99 156.9 L107.5 160.4 M148.4 139.6 L148.8 136.9 M248.8 191.2 L249.3 192.1 M248.8 191.2 L247.9 191 M249.7 191.4 L248.8 191.2 M251.9 194.3 L253.2 195.5 M250.8 193.3 L251.9 194.3 M198.9 91.1 L211.7 90 M264 147.7 L263.6 147.2 M257.3 173.6 L257.4 173.5 M119.7 163.6 L123.1 161.7 L124.7 157.5 M109.4 135.3 L101.7 137 M249.4 192.2 L250.1 192.9 M144.9 153.1 L142.9 151.9 M118.9 148.2 L118.1 157.1 M281.6 158.8 L278.3 158.1 M98.9 143.6 L86.4 141.2 M287.3 134.4 L287.7 140.4 M134.6 127.3 L142 129.2 M297.7 180.6 L298.1 176.2 L294.2 177.7 M125.2 152.5 L127.7 155.3 L130.2 155.1 M125.2 152.5 L126.6 155.7 L129.5 156.4 M294.1 142.4 L295.7 134.5 M151.4 168.8 L150.3 168.5 M252.1 191.5 L251.1 191.6 M151.4 168.8 L151.2 168 M308.9 105.5 L308.6 105.6 M227.8 255.6 L229.8 253.1 M271.6 158.2 L272.6 159 M75.5 121.5 L58.1 120.9 M304.8 129.3 L310.2 124.3 L323.1 125 L336.7 121.7 M260.8 180.9 L261 181.4 M250.8 191.6 L250.1 191.5 M133.4 152.9 L136.9 150.6 M104.1 156.3 L100.4 154.7 L100.2 152.5 M274.1 164.1 L273.8 162.9 M292.4 136.2 L284.6 136.4 M297.6 122.1 L295.3 124.2" fill="none" stroke="#1f3733" stroke-width="2.7" opacity="0.9" stroke-linecap="round" stroke-linejoin="round"/>
</g>
<g data-layer="minor-road-casing">
<path d="M188 199.9 L191.9 210.3 L194.7 214 L198.7 215.4 L196.9 220.1 L192.6 220.8 L191.2 224 M258.4 253.2 L255.2 253.7 L256.5 258.4 L254.8 259.5 L250.6 255.8 L244.2 255.8 L250.6 252.8 L246.5 251.3 M144.5 190.6 L148.8 190.4 L151.7 192.4 L144 198.3 L129.9 199.4 M218.1 195.9 L223.2 200 L223.1 203.6 L226.6 207.4 L225.6 209.8 L232.4 216 M114.9 192.8 L127.9 188.9 L135.1 191.9 L144.5 190.6 M241.8 255.9 L237.6 256.4 L238.5 260.8 L235.5 258.1 L232.6 259.5 L232.2 262.9 L236.4 264.3 L234.8 266.3 M217 31.5 L220.3 20 L214.8 17.7 L214.5 24.2 M138.6 297 L143.2 300.3 L146.2 306.5 L142.9 300.5 L138.4 297.1 M45.2 154.4 L73.1 150.6 M187.2 202.6 L187.9 206.3 L185.6 209.2 L192.3 214.7 L194.5 218.1 L192.6 218.2 M374.4 148.4 L377.5 150.8 L380.1 150.4 L380.5 147.5 L378.2 146.4 L381.6 143.2 L377.7 138.4 M322.9 136.7 L318.8 132.5 L314.8 132 L312.9 134.1 L314.2 139.2 M168.6 194 L175.7 196.9 L175.2 199.3 L177.9 202.3 L182.2 202 M183.7 158.1 L203.5 158.6 M260.2 190.2 L253.9 176.4 M186.5 23.4 L182.9 9.4 M293 200.6 L290.2 202 L285.6 199.8 L284.1 195.6 L286.4 194.1 M242.7 196.5 L238.1 195.7 L237.2 198.1 L241.1 198.1 L242.1 200 M175.5 170.8 L171.7 171.4 L170.7 180.3 M201.4 40.6 L207 37.6 L216.9 38.4 M390.4 57.3 L393.4 52.5 L387.7 47.1 M167.9 194 L174.4 192.4 L182.4 195.2 M294.2 177.7 L296.6 174.3 L307.7 174.3 M129.2 196.9 L144.7 193.7 M88.9 271.9 L91.9 270.7 L103.2 272 M181.7 176.1 L172.5 176.6 L170.7 180.3 M286.4 234.3 L281.8 235 L277.7 232.5 L273.7 234.1 M399.1 146.9 L397.1 151.2 L389.4 153.5 M35.6 265.7 L30.4 263.8 L26.7 258.2 M157.6 278.5 L171.9 278.3 M230.8 164.1 L232.1 167.8 L230.5 170.4 L225.7 170.1 M122.4 200.1 L116.7 205.4 L113 205.6 M236.6 145 L248.3 140.1 M11.3 157.8 L13.5 159.2 L13.8 163.8 L9.9 164.7 M104.4 187.5 L114.9 192.8 M68.6 129.9 L55.1 129.5 M130.1 173.7 L142.8 174.5 M106.8 206.9 L105.5 209.1 L106.9 211.4 L102.1 213.6 M339 108.1 L326.3 110.3 M163.3 175.5 L155.9 171.1 L154.7 173 M107.5 198.3 L104.8 194.5 L98.8 192.1 M219.2 157.4 L231 154.6 M214.5 24.2 L209.9 15.5 M239 26.4 L236.9 21.3 L232.2 19.6 M51.3 149.5 L44 152.2 L45.2 154.4 M132 162.4 L135.2 159.5 L132.2 156.1 M219.5 52.3 L224.6 48.7 L226 50.6 M185.7 184.2 L188.2 186.9 L186.8 192.1 M257.2 200.1 L262.6 207.5 M274.1 164.1 L280.5 170.7 M125.7 147.9 L118.7 141.4 M388.1 147.1 L391.7 146.9 L391.8 143.9 L388.3 143.6 M224.6 185.1 L214.9 181.2 M95.3 185.4 L103.5 185.9 M179.5 24.4 L177.6 16.5 M57.7 132.8 L68.3 133.1 M170.7 180.3 L168.1 180.6 L163.6 175.7 M187.5 68.1 L187.4 60.2 M294.4 201.9 L294.3 205.1 L289.4 207.3 M153 202.1 L157.2 209.3 M332.8 304.3 L332.6 306.3 L326.8 310.1 M35.3 210.5 L30.9 217.3 M287.1 15 L280.2 20.5 M288.4 205.9 L287.4 212.8 M103 141.2 L93.8 139 M179.8 50.9 L177.7 58.1 M378.4 137.1 L384 142.3 M57.6 143.2 L60.1 140.8 L65.1 142.2 M181.4 58.7 L183.8 51.6 M126 290 L129.7 290 L133.3 293 M257.6 175.6 L261.3 173.2 L260.1 176.2 M212.9 257.2 L218.6 262.5 M288.3 62.1 L291.7 63.6 L288.6 66.8 M246.8 49.6 L254.5 53.4 M280 218.3 L286.2 222.9 M296.9 116.2 L303.1 111.4 M229.7 29.3 L235 24.1 M218.6 262.5 L224 258.1 M229.6 164 L232.3 162.9 L234.2 166.2 M277 215.3 L268.1 215.8 M397.7 16.7 L402.7 19.6 L403.9 18.2 M290 55.6 L288.3 62.1 M267.2 299.9 L272.7 298.8 L271.2 296.6 M84.2 126.3 L79.7 127.7 L76.5 126 M236.9 164.8 L237.4 158.3 M176.6 51.5 L168.1 50 M175.8 53.9 L167.3 52.3 M379.9 47.3 L384.1 45.7 L387.7 47.1 M250.4 199.4 L249.7 200.7 L252.5 201.1 L248.7 201.1 M182.8 68.4 L182.3 62 M306.8 180.6 L304.8 181.4 L309.4 183.6 M266 13.1 L266.1 19.4 M311.7 119.6 L319.9 118.2 M225.7 170.1 L227.3 164 M26.7 258.2 L33.1 255.6 M195.5 86.7 L196 93 M119.2 271.7 L113.7 271.8 L113.3 269.7 M275.5 57.2 L271.3 55 L269.3 56.9 M267.6 201.8 L272.9 204.7 M264.4 194.6 L268.7 200 M271.1 68.1 L266.2 73 M254.7 197.2 L262.4 195 M274.3 160.4 L279.8 164.6 M319.3 116.4 L311.3 117.8 M90.3 140.1 L88 141.3 L91.9 141.9 M190.5 42.1 L189.1 36.2 M240.7 157.8 L246.1 156.1 L245.5 154.7 M321.5 119.7 L319.8 113.9 M298.9 307.5 L306.4 309.3 M166.9 167.4 L160.9 164.7 M277.2 18.4 L280.5 13.1 M387.5 150.2 L385.5 152.7 L384.4 150.4 M132.5 6.9 L135.9 12.1 M211 154.8 L218.6 154.1 M112.7 205.8 L109 207.8 L106.8 206.9 M235.7 195.3 L233.8 197.2 L231.6 195.1 M121.8 174.5 L126.5 174.8 L126.5 173 M210.2 158.1 L217.6 157.5 M208.5 60.5 L204.5 56 M214.2 75.9 L208 78.4 M258 67.5 L263.4 64 M231.1 175 L224.3 175.3 M316.1 108.1 L309 109.5 M198.5 65.1 L198 59.6 M318.8 142 L316.1 137.1 M271.9 213.5 L279.1 213.5 M9.7 230.2 L15.4 232.9 M185.3 38.5 L178.3 39.4 M283.3 18.2 L288.2 15.7 M220 35.1 L225.1 38.8 M262.5 43.4 L262.5 45.2 L267.3 45.2 M46.9 139.3 L47.9 136.7 L51.3 136.8 M340.7 113.8 L340.3 117.4 L342 118.5 M209.6 90.1 L204.3 86.7 M209.6 90.1 L206.8 85.7 M266 7.8 L266 13.1 M241.5 38.2 L234.5 37.5 M203.5 31.5 L198.7 27.7 M61.9 131 L55 130.8 M262.1 157.4 L256.3 154.6 M285.3 128.4 L280.1 125.1 M120 299.2 L120.5 294.4 M85.2 136.9 L90.3 140.1 M257.2 200.1 L263.5 198.4 M290.2 202 L285.7 205.7 M292.2 8.6 L298.2 10.8 M289.8 238.2 L286.4 234.3 M231.5 154.4 L237.6 152.6 M278.9 130.5 L284.1 127.5 M406.6 12.8 L401.4 10 M204.2 164.6 L210.6 164 M238.4 152.3 L244.4 150.5 M303.1 111.4 L309 109.5 M311.7 186.3 L307.9 187 L308.4 188.6 M185.2 46.9 L183.8 51.6 M309.4 183.6 L313 187.6 M131.3 275.4 L137.2 273.6 M182.2 202 L188 199.9 M253.2 195.5 L250.2 199.1 M400.1 14.7 L395.1 12.7 M203.6 178.9 L205.6 176.7 L203.9 175.3 M268.8 43.5 L262.5 43.4 M287.1 15 L291.3 11.5 M303.4 193.7 L305.7 191.4 L304.5 190 M210.5 260.2 L216.2 259 M136.5 253.3 L132.1 256.6 M192.2 22.6 L191.1 18.1 M286.9 168.5 L286.6 166.2 L287.3 168 M291.8 51 L290.6 55.5 M150.1 174.9 L153.5 174.8 L154.7 173 M240.3 163.8 L246 162.5 M403.2 143.4 L406.9 140.6 M178.6 35.9 L184.5 35 M148.9 206.3 L152.1 209.8 M205.8 277.4 L205.8 272.9 M299.3 166.4 L293.8 167.8 M293 132 L287.2 132.1 M124.7 270.7 L125 275.1 M221.4 80.2 L219.5 81.5 L221 79.9 M110.9 139 L105.4 137.5 M290.5 142.3 L291.9 138.1 M220.3 20 L224.4 17.1 M266 60.8 L271 62.6 M120.5 294.4 L126.3 294.4 M407.6 8.8 L406.6 12.8 M387.5 138.7 L391.5 140.9 M178.3 39.4 L179.5 43.6 M68.7 118.5 L63.7 116.7 M125.6 299.2 L120 299.2 M295.7 195.6 L294.6 198.2 L296.1 199.1 M106.3 134.5 L101.3 133.2 M193.9 67.8 L193.8 63.7 M144.8 174.4 L150.1 174.9 M85.2 133.8 L80.6 131.9 M192.1 48.2 L191.5 44.2 M214.3 86.8 L208.9 87.3 M287.2 118.9 L291.3 121.6 M118.7 207.8 L121.7 210.8 M287 157.3 L289.8 160.7 M288.5 161.3 L285.8 157.9 M348.4 124 L347.5 127.8 M221 166.8 L223.6 170.1 M378.9 118.5 L378.4 122.5 M112.3 137.9 L108.6 137.8 M276.2 30.1 L271.4 28.4 M116.7 152.3 L112.2 150.3 M231.4 21.1 L232.4 18.9 L230.5 18.3 M201.5 18.4 L196.4 19.2 M213.4 72.6 L218.2 74 M121.5 265 L117 265.1 M218.4 166.7 L223.2 165.4 M291.3 128.3 L288.4 128.5 L288.5 130.1 M292.8 159.3 L288.5 161.3 M306.4 309.3 L310.6 311.4 M277.4 34.5 L277 38.2 M291.3 157.5 L287 159.4 M287.8 160.4 L292 158.4 M119.5 207.8 L123.2 210.2 M145 169.2 L141.5 167.4 M291.2 194.1 L295.7 195.6 M263.7 160.6 L267.2 163.1 M175.8 169.8 L178.7 171.5 M171.1 54.3 L175.2 55.7 M190.3 36.1 L191.2 39.7 M35.6 265.7 L36.6 262.4 M259.8 73 L255 73 M286.3 158.5 L290.5 156.7 M286.3 305.2 L287 308.8 M214.3 71.2 L218.8 72.6 M271.9 208 L271.9 211.7 M115.2 144.5 L112.6 141.4 M134.5 289.2 L139.2 289.4 M286.3 305.2 L285.8 301.6 M273.9 206 L269 206 M408.4 130.9 L408.4 134.5 M205 166.5 L205.4 170.1 M65.2 128.3 L65.3 124.7 M126.3 294.4 L126 297.7 M160.9 164.7 L164.9 166.4 M105.5 132.4 L103 135.5 M206.9 166.3 L207.5 169.8 M208.5 35.9 L211.5 38.4 M150.6 12.7 L150.1 9.1 M110.1 287.7 L105.7 288.9 M191.5 165.1 L195.7 164.8 M190.2 14.6 L191.1 18.1 M340.6 113.6 L345.2 112.9 M195.9 57.1 L200.6 56.8 M175.1 16.8 L176.1 20.3 M28.1 135.2 L32.7 135.4 M272.9 27 L277.1 28.5 M345.3 113.1 L340.7 113.8 M195.8 55.6 L200.4 55.3 M209.2 69.4 L204.6 69.6 M200.2 53.5 L195.6 53.9 M384 142.3 L384.1 145.8 M193.8 166.7 L191.5 169.7 M46.9 132.3 L51.5 132.7 M125.9 192 L127.1 191.3 M47.2 256.7 L51.2 256.7 M118.6 212.4 L122.1 212.9 M286.4 190.8 L286.4 194.1 M253.3 199.4 L250.8 196.6 M211.4 79 L214.2 80.2 M293.9 11.9 L292.5 9.5 M204.9 158.5 L209.4 158.1 M93.2 266.6 L89.6 264.7 M185.1 93.9 L189.5 93.6 M198.6 92.8 L194.2 93.3 M293 200.6 L289.3 198.7 M292.7 150.4 L292.8 147 M33.2 135.9 L37.6 136.6 M209 81.1 L204.7 82 M203.7 79.3 L208 78.4 M197.3 167.7 L195.5 170.7 M225.9 187.6 L224.6 185.1 M311.7 119.6 L307.3 120.3 M275.6 128.3 L278.9 130.5 M189.7 168.6 L191.9 165.7 M247.3 53.4 L243.6 51.6 M127 285.7 L131.1 284.6 M311.1 117.9 L306.8 118.6 M286.8 123 L289.6 120.5 M288.5 124.1 L291.3 121.6 M131.9 285.9 L127.9 287.1 M299.7 190.8 L303.4 190.9 M113.3 198.1 L110 196 M171.9 51.9 L176.2 52.7 M171.9 51.9 L167.7 51.1 M200.1 171.7 L202 172.1 L201.9 170.3 M249.9 206 L247.6 207.8 M267.7 209 L269 206 M293.3 12.9 L290.5 15.3 M290.7 153.8 L291.4 151.9 L290.2 152.1 M339 107.9 L343.1 107.2 M288.7 130.2 L292.9 130.1 M251 149.7 L246.8 149.8 M120.7 146.8 L123.1 149.4 M28.2 253.1 L31.3 251.2 M176.4 16.7 L175.6 13.6" fill="none" stroke="#fbf7eb" stroke-width="3.4" opacity="0.62" stroke-linecap="round" stroke-linejoin="round"/>
</g>
<g data-layer="minor-road">
<path d="M188 199.9 L191.9 210.3 L194.7 214 L198.7 215.4 L196.9 220.1 L192.6 220.8 L191.2 224 M258.4 253.2 L255.2 253.7 L256.5 258.4 L254.8 259.5 L250.6 255.8 L244.2 255.8 L250.6 252.8 L246.5 251.3 M144.5 190.6 L148.8 190.4 L151.7 192.4 L144 198.3 L129.9 199.4 M218.1 195.9 L223.2 200 L223.1 203.6 L226.6 207.4 L225.6 209.8 L232.4 216 M114.9 192.8 L127.9 188.9 L135.1 191.9 L144.5 190.6 M241.8 255.9 L237.6 256.4 L238.5 260.8 L235.5 258.1 L232.6 259.5 L232.2 262.9 L236.4 264.3 L234.8 266.3 M217 31.5 L220.3 20 L214.8 17.7 L214.5 24.2 M138.6 297 L143.2 300.3 L146.2 306.5 L142.9 300.5 L138.4 297.1 M45.2 154.4 L73.1 150.6 M187.2 202.6 L187.9 206.3 L185.6 209.2 L192.3 214.7 L194.5 218.1 L192.6 218.2 M374.4 148.4 L377.5 150.8 L380.1 150.4 L380.5 147.5 L378.2 146.4 L381.6 143.2 L377.7 138.4 M322.9 136.7 L318.8 132.5 L314.8 132 L312.9 134.1 L314.2 139.2 M168.6 194 L175.7 196.9 L175.2 199.3 L177.9 202.3 L182.2 202 M183.7 158.1 L203.5 158.6 M260.2 190.2 L253.9 176.4 M186.5 23.4 L182.9 9.4 M293 200.6 L290.2 202 L285.6 199.8 L284.1 195.6 L286.4 194.1 M242.7 196.5 L238.1 195.7 L237.2 198.1 L241.1 198.1 L242.1 200 M175.5 170.8 L171.7 171.4 L170.7 180.3 M201.4 40.6 L207 37.6 L216.9 38.4 M390.4 57.3 L393.4 52.5 L387.7 47.1 M167.9 194 L174.4 192.4 L182.4 195.2 M294.2 177.7 L296.6 174.3 L307.7 174.3 M129.2 196.9 L144.7 193.7 M88.9 271.9 L91.9 270.7 L103.2 272 M181.7 176.1 L172.5 176.6 L170.7 180.3 M286.4 234.3 L281.8 235 L277.7 232.5 L273.7 234.1 M399.1 146.9 L397.1 151.2 L389.4 153.5 M35.6 265.7 L30.4 263.8 L26.7 258.2 M157.6 278.5 L171.9 278.3 M230.8 164.1 L232.1 167.8 L230.5 170.4 L225.7 170.1 M122.4 200.1 L116.7 205.4 L113 205.6 M236.6 145 L248.3 140.1 M11.3 157.8 L13.5 159.2 L13.8 163.8 L9.9 164.7 M104.4 187.5 L114.9 192.8 M68.6 129.9 L55.1 129.5 M130.1 173.7 L142.8 174.5 M106.8 206.9 L105.5 209.1 L106.9 211.4 L102.1 213.6 M339 108.1 L326.3 110.3 M163.3 175.5 L155.9 171.1 L154.7 173 M107.5 198.3 L104.8 194.5 L98.8 192.1 M219.2 157.4 L231 154.6 M214.5 24.2 L209.9 15.5 M239 26.4 L236.9 21.3 L232.2 19.6 M51.3 149.5 L44 152.2 L45.2 154.4 M132 162.4 L135.2 159.5 L132.2 156.1 M219.5 52.3 L224.6 48.7 L226 50.6 M185.7 184.2 L188.2 186.9 L186.8 192.1 M257.2 200.1 L262.6 207.5 M274.1 164.1 L280.5 170.7 M125.7 147.9 L118.7 141.4 M388.1 147.1 L391.7 146.9 L391.8 143.9 L388.3 143.6 M224.6 185.1 L214.9 181.2 M95.3 185.4 L103.5 185.9 M179.5 24.4 L177.6 16.5 M57.7 132.8 L68.3 133.1 M170.7 180.3 L168.1 180.6 L163.6 175.7 M187.5 68.1 L187.4 60.2 M294.4 201.9 L294.3 205.1 L289.4 207.3 M153 202.1 L157.2 209.3 M332.8 304.3 L332.6 306.3 L326.8 310.1 M35.3 210.5 L30.9 217.3 M287.1 15 L280.2 20.5 M288.4 205.9 L287.4 212.8 M103 141.2 L93.8 139 M179.8 50.9 L177.7 58.1 M378.4 137.1 L384 142.3 M57.6 143.2 L60.1 140.8 L65.1 142.2 M181.4 58.7 L183.8 51.6 M126 290 L129.7 290 L133.3 293 M257.6 175.6 L261.3 173.2 L260.1 176.2 M212.9 257.2 L218.6 262.5 M288.3 62.1 L291.7 63.6 L288.6 66.8 M246.8 49.6 L254.5 53.4 M280 218.3 L286.2 222.9 M296.9 116.2 L303.1 111.4 M229.7 29.3 L235 24.1 M218.6 262.5 L224 258.1 M229.6 164 L232.3 162.9 L234.2 166.2 M277 215.3 L268.1 215.8 M397.7 16.7 L402.7 19.6 L403.9 18.2 M290 55.6 L288.3 62.1 M267.2 299.9 L272.7 298.8 L271.2 296.6 M84.2 126.3 L79.7 127.7 L76.5 126 M236.9 164.8 L237.4 158.3 M176.6 51.5 L168.1 50 M175.8 53.9 L167.3 52.3 M379.9 47.3 L384.1 45.7 L387.7 47.1 M250.4 199.4 L249.7 200.7 L252.5 201.1 L248.7 201.1 M182.8 68.4 L182.3 62 M306.8 180.6 L304.8 181.4 L309.4 183.6 M266 13.1 L266.1 19.4 M311.7 119.6 L319.9 118.2 M225.7 170.1 L227.3 164 M26.7 258.2 L33.1 255.6 M195.5 86.7 L196 93 M119.2 271.7 L113.7 271.8 L113.3 269.7 M275.5 57.2 L271.3 55 L269.3 56.9 M267.6 201.8 L272.9 204.7 M264.4 194.6 L268.7 200 M271.1 68.1 L266.2 73 M254.7 197.2 L262.4 195 M274.3 160.4 L279.8 164.6 M319.3 116.4 L311.3 117.8 M90.3 140.1 L88 141.3 L91.9 141.9 M190.5 42.1 L189.1 36.2 M240.7 157.8 L246.1 156.1 L245.5 154.7 M321.5 119.7 L319.8 113.9 M298.9 307.5 L306.4 309.3 M166.9 167.4 L160.9 164.7 M277.2 18.4 L280.5 13.1 M387.5 150.2 L385.5 152.7 L384.4 150.4 M132.5 6.9 L135.9 12.1 M211 154.8 L218.6 154.1 M112.7 205.8 L109 207.8 L106.8 206.9 M235.7 195.3 L233.8 197.2 L231.6 195.1 M121.8 174.5 L126.5 174.8 L126.5 173 M210.2 158.1 L217.6 157.5 M208.5 60.5 L204.5 56 M214.2 75.9 L208 78.4 M258 67.5 L263.4 64 M231.1 175 L224.3 175.3 M316.1 108.1 L309 109.5 M198.5 65.1 L198 59.6 M318.8 142 L316.1 137.1 M271.9 213.5 L279.1 213.5 M9.7 230.2 L15.4 232.9 M185.3 38.5 L178.3 39.4 M283.3 18.2 L288.2 15.7 M220 35.1 L225.1 38.8 M262.5 43.4 L262.5 45.2 L267.3 45.2 M46.9 139.3 L47.9 136.7 L51.3 136.8 M340.7 113.8 L340.3 117.4 L342 118.5 M209.6 90.1 L204.3 86.7 M209.6 90.1 L206.8 85.7 M266 7.8 L266 13.1 M241.5 38.2 L234.5 37.5 M203.5 31.5 L198.7 27.7 M61.9 131 L55 130.8 M262.1 157.4 L256.3 154.6 M285.3 128.4 L280.1 125.1 M120 299.2 L120.5 294.4 M85.2 136.9 L90.3 140.1 M257.2 200.1 L263.5 198.4 M290.2 202 L285.7 205.7 M292.2 8.6 L298.2 10.8 M289.8 238.2 L286.4 234.3 M231.5 154.4 L237.6 152.6 M278.9 130.5 L284.1 127.5 M406.6 12.8 L401.4 10 M204.2 164.6 L210.6 164 M238.4 152.3 L244.4 150.5 M303.1 111.4 L309 109.5 M311.7 186.3 L307.9 187 L308.4 188.6 M185.2 46.9 L183.8 51.6 M309.4 183.6 L313 187.6 M131.3 275.4 L137.2 273.6 M182.2 202 L188 199.9 M253.2 195.5 L250.2 199.1 M400.1 14.7 L395.1 12.7 M203.6 178.9 L205.6 176.7 L203.9 175.3 M268.8 43.5 L262.5 43.4 M287.1 15 L291.3 11.5 M303.4 193.7 L305.7 191.4 L304.5 190 M210.5 260.2 L216.2 259 M136.5 253.3 L132.1 256.6 M192.2 22.6 L191.1 18.1 M286.9 168.5 L286.6 166.2 L287.3 168 M291.8 51 L290.6 55.5 M150.1 174.9 L153.5 174.8 L154.7 173 M240.3 163.8 L246 162.5 M403.2 143.4 L406.9 140.6 M178.6 35.9 L184.5 35 M148.9 206.3 L152.1 209.8 M205.8 277.4 L205.8 272.9 M299.3 166.4 L293.8 167.8 M293 132 L287.2 132.1 M124.7 270.7 L125 275.1 M221.4 80.2 L219.5 81.5 L221 79.9 M110.9 139 L105.4 137.5 M290.5 142.3 L291.9 138.1 M220.3 20 L224.4 17.1 M266 60.8 L271 62.6 M120.5 294.4 L126.3 294.4 M407.6 8.8 L406.6 12.8 M387.5 138.7 L391.5 140.9 M178.3 39.4 L179.5 43.6 M68.7 118.5 L63.7 116.7 M125.6 299.2 L120 299.2 M295.7 195.6 L294.6 198.2 L296.1 199.1 M106.3 134.5 L101.3 133.2 M193.9 67.8 L193.8 63.7 M144.8 174.4 L150.1 174.9 M85.2 133.8 L80.6 131.9 M192.1 48.2 L191.5 44.2 M214.3 86.8 L208.9 87.3 M287.2 118.9 L291.3 121.6 M118.7 207.8 L121.7 210.8 M287 157.3 L289.8 160.7 M288.5 161.3 L285.8 157.9 M348.4 124 L347.5 127.8 M221 166.8 L223.6 170.1 M378.9 118.5 L378.4 122.5 M112.3 137.9 L108.6 137.8 M276.2 30.1 L271.4 28.4 M116.7 152.3 L112.2 150.3 M231.4 21.1 L232.4 18.9 L230.5 18.3 M201.5 18.4 L196.4 19.2 M213.4 72.6 L218.2 74 M121.5 265 L117 265.1 M218.4 166.7 L223.2 165.4 M291.3 128.3 L288.4 128.5 L288.5 130.1 M292.8 159.3 L288.5 161.3 M306.4 309.3 L310.6 311.4 M277.4 34.5 L277 38.2 M291.3 157.5 L287 159.4 M287.8 160.4 L292 158.4 M119.5 207.8 L123.2 210.2 M145 169.2 L141.5 167.4 M291.2 194.1 L295.7 195.6 M263.7 160.6 L267.2 163.1 M175.8 169.8 L178.7 171.5 M171.1 54.3 L175.2 55.7 M190.3 36.1 L191.2 39.7 M35.6 265.7 L36.6 262.4 M259.8 73 L255 73 M286.3 158.5 L290.5 156.7 M286.3 305.2 L287 308.8 M214.3 71.2 L218.8 72.6 M271.9 208 L271.9 211.7 M115.2 144.5 L112.6 141.4 M134.5 289.2 L139.2 289.4 M286.3 305.2 L285.8 301.6 M273.9 206 L269 206 M408.4 130.9 L408.4 134.5 M205 166.5 L205.4 170.1 M65.2 128.3 L65.3 124.7 M126.3 294.4 L126 297.7 M160.9 164.7 L164.9 166.4 M105.5 132.4 L103 135.5 M206.9 166.3 L207.5 169.8 M208.5 35.9 L211.5 38.4 M150.6 12.7 L150.1 9.1 M110.1 287.7 L105.7 288.9 M191.5 165.1 L195.7 164.8 M190.2 14.6 L191.1 18.1 M340.6 113.6 L345.2 112.9 M195.9 57.1 L200.6 56.8 M175.1 16.8 L176.1 20.3 M28.1 135.2 L32.7 135.4 M272.9 27 L277.1 28.5 M345.3 113.1 L340.7 113.8 M195.8 55.6 L200.4 55.3 M209.2 69.4 L204.6 69.6 M200.2 53.5 L195.6 53.9 M384 142.3 L384.1 145.8 M193.8 166.7 L191.5 169.7 M46.9 132.3 L51.5 132.7 M125.9 192 L127.1 191.3 M47.2 256.7 L51.2 256.7 M118.6 212.4 L122.1 212.9 M286.4 190.8 L286.4 194.1 M253.3 199.4 L250.8 196.6 M211.4 79 L214.2 80.2 M293.9 11.9 L292.5 9.5 M204.9 158.5 L209.4 158.1 M93.2 266.6 L89.6 264.7 M185.1 93.9 L189.5 93.6 M198.6 92.8 L194.2 93.3 M293 200.6 L289.3 198.7 M292.7 150.4 L292.8 147 M33.2 135.9 L37.6 136.6 M209 81.1 L204.7 82 M203.7 79.3 L208 78.4 M197.3 167.7 L195.5 170.7 M225.9 187.6 L224.6 185.1 M311.7 119.6 L307.3 120.3 M275.6 128.3 L278.9 130.5 M189.7 168.6 L191.9 165.7 M247.3 53.4 L243.6 51.6 M127 285.7 L131.1 284.6 M311.1 117.9 L306.8 118.6 M286.8 123 L289.6 120.5 M288.5 124.1 L291.3 121.6 M131.9 285.9 L127.9 287.1 M299.7 190.8 L303.4 190.9 M113.3 198.1 L110 196 M171.9 51.9 L176.2 52.7 M171.9 51.9 L167.7 51.1 M200.1 171.7 L202 172.1 L201.9 170.3 M249.9 206 L247.6 207.8 M267.7 209 L269 206 M293.3 12.9 L290.5 15.3 M290.7 153.8 L291.4 151.9 L290.2 152.1 M339 107.9 L343.1 107.2 M288.7 130.2 L292.9 130.1 M251 149.7 L246.8 149.8 M120.7 146.8 L123.1 149.4 M28.2 253.1 L31.3 251.2 M176.4 16.7 L175.6 13.6" fill="none" stroke="#69776e" stroke-width="1.25" opacity="0.58" stroke-linecap="round" stroke-linejoin="round"/>
</g>
</g>
<g data-layer="north-up-compass" fill="none" stroke="#233934" stroke-linecap="round" stroke-linejoin="round" opacity="0.62">
<path d="M382 48L382 23" stroke-width="1.8"/>
<path d="M382 23L373 39M382 23L391 39" stroke-width="1.8"/>
<circle cx="382" cy="48" r="13" stroke-width="1.1" opacity="0.38"/>
</g>
<rect x="8" y="8" width="404" height="304" rx="16" fill="none" stroke="#233934" stroke-width="1.4" opacity="0.44"/>
</svg>
