<svg xmlns="http://www.w3.org/2000/svg" viewBox="0 0 420 320" role="img" aria-label="Unlabeled street grid stage 1">
  <rect width="420" height="320" fill="#efe7d2"/>
  
  
  
  <g><path d="M10 64 C87 24 127 124 340 42" fill="none" stroke="hsl(138 18% 28%)" stroke-width="5" stroke-linecap="round" opacity="0.92"/><path d="M57 95 C124 55 164 155 369 95" fill="none" stroke="hsl(138 10% 48%)" stroke-width="3" stroke-linecap="round" opacity="0.92"/><path d="M44 126 C161 86 201 186 398 148" fill="none" stroke="hsl(138 18% 28%)" stroke-width="5" stroke-linecap="round" opacity="0.92"/><path d="M31 157 C198 117 238 217 357 135" fill="none" stroke="hsl(138 10% 48%)" stroke-width="3" stroke-linecap="round" opacity="0.92"/><path d="M18 188 C235 148 275 248 386 188" fill="none" stroke="hsl(138 18% 28%)" stroke-width="5" stroke-linecap="round" opacity="0.92"/><path d="M65 219 C272 179 312 279 345 241" fill="none" stroke="hsl(138 10% 48%)" stroke-width="3" stroke-linecap="round" opacity="0.92"/><path d="M52 250 C79 210 119 310 374 228" fill="none" stroke="hsl(138 18% 28%)" stroke-width="5" stroke-linecap="round" opacity="0.92"/><path d="M39 281 C116 241 156 341 403 281" fill="none" stroke="hsl(138 10% 48%)" stroke-width="3" stroke-linecap="round" opacity="0.92"/><path d="M26 60 C153 20 193 120 362 82" fill="none" stroke="hsl(138 18% 28%)" stroke-width="5" stroke-linecap="round" opacity="0.92"/><path d="M13 91 C190 51 230 151 391 69" fill="none" stroke="hsl(138 10% 48%)" stroke-width="3" stroke-linecap="round" opacity="0.92"/><path d="M60 122 C227 82 267 182 350 122" fill="none" stroke="hsl(138 18% 28%)" stroke-width="5" stroke-linecap="round" opacity="0.92"/><path d="M47 153 C264 113 304 213 379 175" fill="none" stroke="hsl(138 10% 48%)" stroke-width="3" stroke-linecap="round" opacity="0.92"/><path d="M34 184 C71 144 111 244 408 162" fill="none" stroke="hsl(138 18% 28%)" stroke-width="5" stroke-linecap="round" opacity="0.92"/><path d="M21 215 C108 175 148 275 367 215" fill="none" stroke="hsl(138 10% 48%)" stroke-width="3" stroke-linecap="round" opacity="0.92"/><path d="M68 246 C145 206 185 306 396 268" fill="none" stroke="hsl(138 18% 28%)" stroke-width="5" stroke-linecap="round" opacity="0.92"/><path d="M55 277 C182 237 222 337 355 255" fill="none" stroke="hsl(138 10% 48%)" stroke-width="3" stroke-linecap="round" opacity="0.92"/><path d="M333 22 C367 88 291 168 353 300" fill="none" stroke="hsl(138 10% 48%)" stroke-width="3" stroke-linecap="round" opacity="0.8"/><path d="M36 22 C70 88 -6 168 56 300" fill="none" stroke="hsl(138 10% 48%)" stroke-width="3" stroke-linecap="round" opacity="0.8"/><path d="M79 22 C113 88 37 168 99 300" fill="none" stroke="hsl(138 10% 48%)" stroke-width="3" stroke-linecap="round" opacity="0.8"/><path d="M122 22 C156 88 80 168 142 300" fill="none" stroke="hsl(138 10% 48%)" stroke-width="3" stroke-linecap="round" opacity="0.8"/><path d="M165 22 C199 88 123 168 185 300" fill="none" stroke="hsl(138 10% 48%)" stroke-width="3" stroke-linecap="round" opacity="0.8"/><path d="M208 22 C242 88 166 168 228 300" fill="none" stroke="hsl(138 10% 48%)" stroke-width="3" stroke-linecap="round" opacity="0.8"/><path d="M251 22 C285 88 209 168 271 300" fill="none" stroke="hsl(138 10% 48%)" stroke-width="3" stroke-linecap="round" opacity="0.8"/><path d="M294 22 C328 88 252 168 314 300" fill="none" stroke="hsl(138 10% 48%)" stroke-width="3" stroke-linecap="round" opacity="0.8"/><path d="M337 22 C371 88 295 168 357 300" fill="none" stroke="hsl(138 10% 48%)" stroke-width="3" stroke-linecap="round" opacity="0.8"/></g>
  
  
  
</svg>
