<svg xmlns="http://www.w3.org/2000/svg" viewBox="0 0 420 320" role="img" aria-label="Unlabeled street-grid crop">
<rect width="420" height="320" fill="#efe7d2"/>
<path d="M347.5 73.5 L348.1 98.5" fill="none" stroke="#263632" stroke-width="5" stroke-linecap="round" stroke-linejoin="round" opacity="0.92"/>
<path d="M238 0 L243.1 0.7 L249.1 10.5 L245 18.4 L225.5 36.4" fill="none" stroke="#263632" stroke-width="5" stroke-linecap="round" stroke-linejoin="round" opacity="0.92"/>
<path d="M279.7 166.7 L298 168.6" fill="none" stroke="#263632" stroke-width="5" stroke-linecap="round" stroke-linejoin="round" opacity="0.92"/>
<path d="M379.2 295.5 L389.1 311.1" fill="none" stroke="#263632" stroke-width="5" stroke-linecap="round" stroke-linejoin="round" opacity="0.92"/>
<path d="M317.1 252 L297.6 251.5" fill="none" stroke="#263632" stroke-width="5" stroke-linecap="round" stroke-linejoin="round" opacity="0.92"/>
<path d="M183.9 291.8 L189.7 278.2" fill="none" stroke="#263632" stroke-width="5" stroke-linecap="round" stroke-linejoin="round" opacity="0.92"/>
<path d="M191.5 97.5 L168.1 92.3" fill="none" stroke="#263632" stroke-width="5" stroke-linecap="round" stroke-linejoin="round" opacity="0.92"/>
<path d="M290.8 241.4 L309.2 237.7" fill="none" stroke="#263632" stroke-width="5" stroke-linecap="round" stroke-linejoin="round" opacity="0.92"/>
<path d="M401.1 101.8 L388.6 100.8" fill="none" stroke="#263632" stroke-width="5" stroke-linecap="round" stroke-linejoin="round" opacity="0.92"/>
<path d="M102.6 204.9 L120.2 206" fill="none" stroke="#263632" stroke-width="5" stroke-linecap="round" stroke-linejoin="round" opacity="0.92"/>
<path d="M77.3 209.1 L91.3 206.3" fill="none" stroke="#263632" stroke-width="5" stroke-linecap="round" stroke-linejoin="round" opacity="0.92"/>
<path d="M29.2 210 L42.5 209.9" fill="none" stroke="#263632" stroke-width="5" stroke-linecap="round" stroke-linejoin="round" opacity="0.92"/>
<path d="M10.1 208.9 L23.7 209.1" fill="none" stroke="#263632" stroke-width="5" stroke-linecap="round" stroke-linejoin="round" opacity="0.92"/>
<path d="M98.9 203.4 L72.5 207.5" fill="none" stroke="#263632" stroke-width="5" stroke-linecap="round" stroke-linejoin="round" opacity="0.92"/>
<path d="M378.1 240.9 L364.7 238.8" fill="none" stroke="#263632" stroke-width="5" stroke-linecap="round" stroke-linejoin="round" opacity="0.92"/>
<path d="M385.1 251.1 L372.6 245.9" fill="none" stroke="#263632" stroke-width="5" stroke-linecap="round" stroke-linejoin="round" opacity="0.92"/>
<path d="M370.7 245.2 L358.5 239.3" fill="none" stroke="#263632" stroke-width="5" stroke-linecap="round" stroke-linejoin="round" opacity="0.92"/>
<path d="M339.1 238 L354.4 241.5" fill="none" stroke="#263632" stroke-width="5" stroke-linecap="round" stroke-linejoin="round" opacity="0.92"/>
<path d="M350.1 122.8 L352.5 132.6" fill="none" stroke="#263632" stroke-width="5" stroke-linecap="round" stroke-linejoin="round" opacity="0.92"/>
<path d="M353.1 144.7 L353.5 156" fill="none" stroke="#263632" stroke-width="5" stroke-linecap="round" stroke-linejoin="round" opacity="0.92"/>
<path d="M191 238.8 L178.6 232.9" fill="none" stroke="#263632" stroke-width="5" stroke-linecap="round" stroke-linejoin="round" opacity="0.92"/>
<path d="M37.2 46.8 L47.7 52.1 L56.1 54" fill="none" stroke="#263632" stroke-width="5" stroke-linecap="round" stroke-linejoin="round" opacity="0.92"/>
<path d="M342.3 185.6 L348.4 176.9" fill="none" stroke="#263632" stroke-width="5" stroke-linecap="round" stroke-linejoin="round" opacity="0.92"/>
<path d="M347.6 176.5 L341.5 185.3" fill="none" stroke="#263632" stroke-width="5" stroke-linecap="round" stroke-linejoin="round" opacity="0.92"/>
<path d="M381.9 144.1 L387.6 144 L403.2 139 L420 138.5 L420 113.1" fill="none" stroke="#263632" stroke-width="5" stroke-linecap="round" stroke-linejoin="round" opacity="0.92"/>
<path d="M276.1 58.7 L268.5 50.9" fill="none" stroke="#263632" stroke-width="5" stroke-linecap="round" stroke-linejoin="round" opacity="0.92"/>
<path d="M291.2 240.6 L277.4 245.4" fill="none" stroke="#263632" stroke-width="5" stroke-linecap="round" stroke-linejoin="round" opacity="0.92"/>
<path d="M389.6 146.3 L420 139.8" fill="none" stroke="#263632" stroke-width="5" stroke-linecap="round" stroke-linejoin="round" opacity="0.92"/>
<path d="M374.9 145.3 L389.6 146.3" fill="none" stroke="#263632" stroke-width="5" stroke-linecap="round" stroke-linejoin="round" opacity="0.92"/>
<path d="M353.1 162 L349.8 172.5" fill="none" stroke="#263632" stroke-width="5" stroke-linecap="round" stroke-linejoin="round" opacity="0.92"/>
<path d="M414.7 139.5 L388.3 145.7 L376.6 145.1" fill="none" stroke="#263632" stroke-width="5" stroke-linecap="round" stroke-linejoin="round" opacity="0.92"/>
<path d="M346.6 141.5 L352.6 149.6 L353.5 156" fill="none" stroke="#263632" stroke-width="5" stroke-linecap="round" stroke-linejoin="round" opacity="0.92"/>
<path d="M42.5 207.9 L25.7 207.6" fill="none" stroke="#263632" stroke-width="5" stroke-linecap="round" stroke-linejoin="round" opacity="0.92"/>
<path d="M391.3 207.1 L380.1 202.5" fill="none" stroke="#263632" stroke-width="5" stroke-linecap="round" stroke-linejoin="round" opacity="0.92"/>
<path d="M231 165.6 L219.6 174.8" fill="none" stroke="#263632" stroke-width="5" stroke-linecap="round" stroke-linejoin="round" opacity="0.92"/>
<path d="M93.4 124.1 L104.7 128.6" fill="none" stroke="#263632" stroke-width="5" stroke-linecap="round" stroke-linejoin="round" opacity="0.92"/>
<path d="M84.8 79.7 L100.9 86.2" fill="none" stroke="#263632" stroke-width="5" stroke-linecap="round" stroke-linejoin="round" opacity="0.92"/>
<path d="M208.9 91 L207.6 80" fill="none" stroke="#263632" stroke-width="5" stroke-linecap="round" stroke-linejoin="round" opacity="0.92"/>
<path d="M406.7 298.5 L420 300.1 L420 304.4" fill="none" stroke="#263632" stroke-width="5" stroke-linecap="round" stroke-linejoin="round" opacity="0.92"/>
<path d="M254.4 273.2 L268.7 276.2 L287.4 276.4" fill="none" stroke="#263632" stroke-width="5" stroke-linecap="round" stroke-linejoin="round" opacity="0.92"/>
<path d="M208.6 207.7 L218.6 216.2" fill="none" stroke="#263632" stroke-width="5" stroke-linecap="round" stroke-linejoin="round" opacity="0.92"/>
<path d="M23.8 208.4 L10 208.2" fill="none" stroke="#263632" stroke-width="5" stroke-linecap="round" stroke-linejoin="round" opacity="0.92"/>
<path d="M72.5 208.8 L85.8 206.5" fill="none" stroke="#263632" stroke-width="5" stroke-linecap="round" stroke-linejoin="round" opacity="0.92"/>
<path d="M45 209.4 L62.6 209.5" fill="none" stroke="#263632" stroke-width="5" stroke-linecap="round" stroke-linejoin="round" opacity="0.92"/>
<path d="M216.9 111.2 L227.1 104.9" fill="none" stroke="#263632" stroke-width="5" stroke-linecap="round" stroke-linejoin="round" opacity="0.92"/>
<path d="M227.9 104.3 L216.4 110.9" fill="none" stroke="#263632" stroke-width="5" stroke-linecap="round" stroke-linejoin="round" opacity="0.92"/>
<path d="M265.3 85.8 L259.6 91.5 L246.8 97.6" fill="none" stroke="#263632" stroke-width="5" stroke-linecap="round" stroke-linejoin="round" opacity="0.92"/>
<path d="M309.9 43.8 L331.8 30.2 L347.9 25.2" fill="none" stroke="#263632" stroke-width="5" stroke-linecap="round" stroke-linejoin="round" opacity="0.92"/>
<path d="M347.9 25.2 L366.9 21.1 L378.7 11.4 L384.8 1.8" fill="none" stroke="#263632" stroke-width="5" stroke-linecap="round" stroke-linejoin="round" opacity="0.92"/>
<path d="M332.8 69.3 L333.2 59.3 L331 53.4" fill="none" stroke="#263632" stroke-width="5" stroke-linecap="round" stroke-linejoin="round" opacity="0.92"/>
<path d="M323.3 46 L329.4 52.2 L332.4 59.9" fill="none" stroke="#263632" stroke-width="5" stroke-linecap="round" stroke-linejoin="round" opacity="0.92"/>
<path d="M416.7 263.5 L398.4 256" fill="none" stroke="#263632" stroke-width="5" stroke-linecap="round" stroke-linejoin="round" opacity="0.92"/>
<path d="M268.9 17.8 L251.2 4.3" fill="none" stroke="#263632" stroke-width="5" stroke-linecap="round" stroke-linejoin="round" opacity="0.92"/>
<path d="M196.5 197.4 L205.3 204.8" fill="none" stroke="#263632" stroke-width="5" stroke-linecap="round" stroke-linejoin="round" opacity="0.92"/>
<path d="M111.9 215.1 L111.6 230.7" fill="none" stroke="#263632" stroke-width="5" stroke-linecap="round" stroke-linejoin="round" opacity="0.92"/>
<path d="M115 200.2 L118.6 187.6" fill="none" stroke="#263632" stroke-width="5" stroke-linecap="round" stroke-linejoin="round" opacity="0.92"/>
<path d="M393.9 239.2 L378.1 240.9" fill="none" stroke="#263632" stroke-width="5" stroke-linecap="round" stroke-linejoin="round" opacity="0.92"/>
<path d="M275.3 145.7 L261.3 145 L249.7 139" fill="none" stroke="#263632" stroke-width="5" stroke-linecap="round" stroke-linejoin="round" opacity="0.92"/>
<path d="M53.6 51.4 L35.2 43" fill="none" stroke="#263632" stroke-width="5" stroke-linecap="round" stroke-linejoin="round" opacity="0.92"/>
<path d="M53.8 279.5 L72.2 279.5" fill="none" stroke="#263632" stroke-width="5" stroke-linecap="round" stroke-linejoin="round" opacity="0.92"/>
<path d="M126.1 210 L141.1 218.6" fill="none" stroke="#263632" stroke-width="5" stroke-linecap="round" stroke-linejoin="round" opacity="0.92"/>
<path d="M308.5 236.9 L291.2 240.6" fill="none" stroke="#263632" stroke-width="5" stroke-linecap="round" stroke-linejoin="round" opacity="0.92"/>
<path d="M201.5 101.7 L189.9 94.5 L177.2 89.8" fill="none" stroke="#263632" stroke-width="5" stroke-linecap="round" stroke-linejoin="round" opacity="0.92"/>
<path d="M263.7 146.1 L281.3 146.9" fill="none" stroke="#263632" stroke-width="5" stroke-linecap="round" stroke-linejoin="round" opacity="0.92"/>
<path d="M232.1 128.5 L222.1 120.1" fill="none" stroke="#263632" stroke-width="5" stroke-linecap="round" stroke-linejoin="round" opacity="0.92"/>
<path d="M320.3 146.8 L330.6 141.4 L346.6 140.8" fill="none" stroke="#263632" stroke-width="5" stroke-linecap="round" stroke-linejoin="round" opacity="0.92"/>
<path d="M368.3 142.8 L352.1 139.9 L333.5 140 L324.8 142.7" fill="none" stroke="#263632" stroke-width="5" stroke-linecap="round" stroke-linejoin="round" opacity="0.92"/>
<path d="M325.5 221.1 L337.7 231.8" fill="none" stroke="#263632" stroke-width="5" stroke-linecap="round" stroke-linejoin="round" opacity="0.92"/>
<path d="M351.2 235.8 L334.9 236.7" fill="none" stroke="#263632" stroke-width="5" stroke-linecap="round" stroke-linejoin="round" opacity="0.92"/>
<path d="M111.6 230.7 L111.1 244.6 L98.4 265.6" fill="none" stroke="#263632" stroke-width="5" stroke-linecap="round" stroke-linejoin="round" opacity="0.92"/>
<path d="M266.8 87.4 L274.1 73.6" fill="none" stroke="#263632" stroke-width="5" stroke-linecap="round" stroke-linejoin="round" opacity="0.92"/>
<path d="M180.7 142.1 L168.5 153.4" fill="none" stroke="#263632" stroke-width="5" stroke-linecap="round" stroke-linejoin="round" opacity="0.92"/>
<path d="M298 36 L321.8 44.9" fill="none" stroke="#263632" stroke-width="5" stroke-linecap="round" stroke-linejoin="round" opacity="0.92"/>
<path d="M332.4 59.9 L333.3 76.2" fill="none" stroke="#263632" stroke-width="5" stroke-linecap="round" stroke-linejoin="round" opacity="0.92"/>
<path d="M186.6 237.3 L204 246.1" fill="none" stroke="#263632" stroke-width="5" stroke-linecap="round" stroke-linejoin="round" opacity="0.92"/>
<path d="M153.4 224.6 L175.1 232.4" fill="none" stroke="#263632" stroke-width="5" stroke-linecap="round" stroke-linejoin="round" opacity="0.92"/>
<path d="M143.6 218.4 L128 209.3" fill="none" stroke="#263632" stroke-width="5" stroke-linecap="round" stroke-linejoin="round" opacity="0.92"/>
<path d="M178.6 232.9 L153.6 223.7" fill="none" stroke="#263632" stroke-width="5" stroke-linecap="round" stroke-linejoin="round" opacity="0.92"/>
<path d="M87.7 283.4 L85.4 294.5" fill="none" stroke="#263632" stroke-width="5" stroke-linecap="round" stroke-linejoin="round" opacity="0.92"/>
<path d="M333.6 153.1 L320.9 149.1" fill="none" stroke="#263632" stroke-width="5" stroke-linecap="round" stroke-linejoin="round" opacity="0.92"/>
<path d="M331.1 226.1 L324.1 216.5 L324.3 204.8" fill="none" stroke="#263632" stroke-width="5" stroke-linecap="round" stroke-linejoin="round" opacity="0.92"/>
<path d="M110.2 203.3 L95 204.2" fill="none" stroke="#263632" stroke-width="5" stroke-linecap="round" stroke-linejoin="round" opacity="0.92"/>
<path d="M112.1 227.2 L112.6 215.3" fill="none" stroke="#263632" stroke-width="5" stroke-linecap="round" stroke-linejoin="round" opacity="0.92"/>
<path d="M309.3 43.3 L299.9 50.4" fill="none" stroke="#263632" stroke-width="5" stroke-linecap="round" stroke-linejoin="round" opacity="0.92"/>
<path d="M322.4 44.6 L292.2 32.1" fill="none" stroke="#263632" stroke-width="5" stroke-linecap="round" stroke-linejoin="round" opacity="0.92"/>
<path d="M354.4 155.9 L353.9 144.8" fill="none" stroke="#263632" stroke-width="5" stroke-linecap="round" stroke-linejoin="round" opacity="0.92"/>
<path d="M340.3 186.9 L332.7 197.9" fill="none" stroke="#263632" stroke-width="5" stroke-linecap="round" stroke-linejoin="round" opacity="0.92"/>
<path d="M141.8 76.9 L129.7 72.2" fill="none" stroke="#263632" stroke-width="5" stroke-linecap="round" stroke-linejoin="round" opacity="0.92"/>
<path d="M190.8 132.2 L180.7 142.1" fill="none" stroke="#263632" stroke-width="5" stroke-linecap="round" stroke-linejoin="round" opacity="0.92"/>
<path d="M154.3 162.1 L165.3 155.9" fill="none" stroke="#263632" stroke-width="5" stroke-linecap="round" stroke-linejoin="round" opacity="0.92"/>
<path d="M385.7 0 L377 12.5 L368.5 19.4" fill="none" stroke="#263632" stroke-width="5" stroke-linecap="round" stroke-linejoin="round" opacity="0.92"/>
<path d="M117.9 187.3 L114.3 199.9" fill="none" stroke="#263632" stroke-width="5" stroke-linecap="round" stroke-linejoin="round" opacity="0.92"/>
<path d="M398.8 239.5 L413.3 237 L420 228.9" fill="none" stroke="#263632" stroke-width="5" stroke-linecap="round" stroke-linejoin="round" opacity="0.92"/>
<path d="M381.1 242.1 L396.3 239.9" fill="none" stroke="#263632" stroke-width="5" stroke-linecap="round" stroke-linejoin="round" opacity="0.92"/>
<path d="M72.5 208.2 L58.9 208.8" fill="none" stroke="#263632" stroke-width="5" stroke-linecap="round" stroke-linejoin="round" opacity="0.92"/>
<path d="M221.7 120.8 L231.1 128.5" fill="none" stroke="#263632" stroke-width="5" stroke-linecap="round" stroke-linejoin="round" opacity="0.92"/>
<path d="M278.7 145.4 L264.9 144.6" fill="none" stroke="#263632" stroke-width="5" stroke-linecap="round" stroke-linejoin="round" opacity="0.92"/>
<path d="M308.7 149.2 L278.7 145.4" fill="none" stroke="#263632" stroke-width="5" stroke-linecap="round" stroke-linejoin="round" opacity="0.92"/>
<path d="M420 115.8 L420 138.9 L406.2 138.9 L387.7 144.5 L380.7 144.4" fill="none" stroke="#263632" stroke-width="5" stroke-linecap="round" stroke-linejoin="round" opacity="0.92"/>
<path d="M199.4 241.5 L186.1 235.4" fill="none" stroke="#263632" stroke-width="5" stroke-linecap="round" stroke-linejoin="round" opacity="0.92"/>
<path d="M86.9 293.4 L89.5 282.7" fill="none" stroke="#263632" stroke-width="5" stroke-linecap="round" stroke-linejoin="round" opacity="0.92"/>
<path d="M172.2 228.1 L186.1 235.4" fill="none" stroke="#263632" stroke-width="5" stroke-linecap="round" stroke-linejoin="round" opacity="0.92"/>
<path d="M330.6 203.2 L326.4 213" fill="none" stroke="#263632" stroke-width="5" stroke-linecap="round" stroke-linejoin="round" opacity="0.92"/>
<path d="M409.3 143.6 L420 143.2 L420 141.3" fill="none" stroke="#263632" stroke-width="5" stroke-linecap="round" stroke-linejoin="round" opacity="0.92"/>
<path d="M265.9 49 L247.8 43.7 L240 44.9" fill="none" stroke="#263632" stroke-width="5" stroke-linecap="round" stroke-linejoin="round" opacity="0.92"/>
<path d="M43.7 195.9 L43.6 183.1" fill="none" stroke="#263632" stroke-width="5" stroke-linecap="round" stroke-linejoin="round" opacity="0.92"/>
<path d="M250.7 191.1 L235.2 182.2" fill="none" stroke="#263632" stroke-width="5" stroke-linecap="round" stroke-linejoin="round" opacity="0.92"/>
<path d="M221.2 167.1 L255.5 184.7" fill="none" stroke="#263632" stroke-width="5" stroke-linecap="round" stroke-linejoin="round" opacity="0.92"/>
<path d="M251.7 174.6 L239.9 170.1" fill="none" stroke="#263632" stroke-width="5" stroke-linecap="round" stroke-linejoin="round" opacity="0.92"/>
<path d="M198.8 136.3 L216.9 147.2" fill="none" stroke="#263632" stroke-width="5" stroke-linecap="round" stroke-linejoin="round" opacity="0.92"/>
<path d="M62.8 83.4 L62.8 73" fill="none" stroke="#263632" stroke-width="5" stroke-linecap="round" stroke-linejoin="round" opacity="0.92"/>
<path d="M62.8 56 L62.7 41.8" fill="none" stroke="#263632" stroke-width="5" stroke-linecap="round" stroke-linejoin="round" opacity="0.92"/>
<path d="M151.7 3 L146.7 2.8 L136.9 11.4" fill="none" stroke="#263632" stroke-width="5" stroke-linecap="round" stroke-linejoin="round" opacity="0.92"/>
<path d="M129.2 23.3 L121.5 34.5" fill="none" stroke="#263632" stroke-width="5" stroke-linecap="round" stroke-linejoin="round" opacity="0.92"/>
<path d="M163.2 68.6 L164.2 80.3" fill="none" stroke="#263632" stroke-width="5" stroke-linecap="round" stroke-linejoin="round" opacity="0.92"/>
<path d="M159.6 221.5 L172.2 228.1" fill="none" stroke="#263632" stroke-width="5" stroke-linecap="round" stroke-linejoin="round" opacity="0.92"/>
<path d="M238.2 310.4 L238.6 272.2" fill="none" stroke="#263632" stroke-width="5" stroke-linecap="round" stroke-linejoin="round" opacity="0.92"/>
<path d="M236.9 305.2 L236.7 316.1" fill="none" stroke="#263632" stroke-width="5" stroke-linecap="round" stroke-linejoin="round" opacity="0.92"/>
<path d="M203.3 131.7 L216.5 123.5" fill="none" stroke="#263632" stroke-width="5" stroke-linecap="round" stroke-linejoin="round" opacity="0.92"/>
<path d="M362.5 225 L378.9 231.9" fill="none" stroke="#263632" stroke-width="5" stroke-linecap="round" stroke-linejoin="round" opacity="0.92"/>
<path d="M289.4 264.5 L290 254.6" fill="none" stroke="#263632" stroke-width="5" stroke-linecap="round" stroke-linejoin="round" opacity="0.92"/>
<path d="M75.2 278.8 L54 278.8" fill="none" stroke="#263632" stroke-width="5" stroke-linecap="round" stroke-linejoin="round" opacity="0.92"/>
<path d="M289.3 81.3 L283.1 67.1" fill="none" stroke="#263632" stroke-width="5" stroke-linecap="round" stroke-linejoin="round" opacity="0.92"/>
<path d="M278.1 63.8 L282.3 71.4 L285 71.4" fill="none" stroke="#263632" stroke-width="5" stroke-linecap="round" stroke-linejoin="round" opacity="0.92"/>
<path d="M87.8 282 L84.9 293.5" fill="none" stroke="#263632" stroke-width="5" stroke-linecap="round" stroke-linejoin="round" opacity="0.92"/>
<path d="M84.6 204.1 L75.1 218.2" fill="none" stroke="#263632" stroke-width="5" stroke-linecap="round" stroke-linejoin="round" opacity="0.92"/>
<path d="M143.4 76 L156.1 56.4" fill="none" stroke="#263632" stroke-width="5" stroke-linecap="round" stroke-linejoin="round" opacity="0.92"/>
<path d="M405.2 244.4 L398.2 255" fill="none" stroke="#263632" stroke-width="5" stroke-linecap="round" stroke-linejoin="round" opacity="0.92"/>
<path d="M360 268.5 L339.1 259.9" fill="none" stroke="#263632" stroke-width="5" stroke-linecap="round" stroke-linejoin="round" opacity="0.92"/>
<path d="M385.4 102.6 L398.2 101.7" fill="none" stroke="#263632" stroke-width="5" stroke-linecap="round" stroke-linejoin="round" opacity="0.92"/>
<path d="M330.5 199.9 L331.6 187.4" fill="none" stroke="#263632" stroke-width="5" stroke-linecap="round" stroke-linejoin="round" opacity="0.92"/>
<path d="M298 168.1 L281.9 166.5" fill="none" stroke="#263632" stroke-width="5" stroke-linecap="round" stroke-linejoin="round" opacity="0.92"/>
<path d="M307.7 189.6 L299.9 191.6 L284.4 191.8" fill="none" stroke="#263632" stroke-width="5" stroke-linecap="round" stroke-linejoin="round" opacity="0.92"/>
<path d="M146.7 200.3 L140.2 210" fill="none" stroke="#263632" stroke-width="5" stroke-linecap="round" stroke-linejoin="round" opacity="0.92"/>
<path d="M321.7 156.3 L324.5 164 L329.7 168.2" fill="none" stroke="#263632" stroke-width="5" stroke-linecap="round" stroke-linejoin="round" opacity="0.92"/>
<path d="M152.7 201.7 L145.7 212" fill="none" stroke="#263632" stroke-width="5" stroke-linecap="round" stroke-linejoin="round" opacity="0.92"/>
<path d="M160.5 207.4 L151.9 217.3" fill="none" stroke="#263632" stroke-width="5" stroke-linecap="round" stroke-linejoin="round" opacity="0.92"/>
<path d="M166.5 87 L195.1 98.2" fill="none" stroke="#263632" stroke-width="5" stroke-linecap="round" stroke-linejoin="round" opacity="0.92"/>
<path d="M243.7 208.6 L223.9 195.6" fill="none" stroke="#263632" stroke-width="5" stroke-linecap="round" stroke-linejoin="round" opacity="0.92"/>
<path d="M169.5 170.3 L160.6 179.3" fill="none" stroke="#263632" stroke-width="5" stroke-linecap="round" stroke-linejoin="round" opacity="0.92"/>
<path d="M268.2 18.3 L280.3 25.3" fill="none" stroke="#263632" stroke-width="5" stroke-linecap="round" stroke-linejoin="round" opacity="0.92"/>
<path d="M348.2 100.1 L374.3 99.8" fill="none" stroke="#263632" stroke-width="5" stroke-linecap="round" stroke-linejoin="round" opacity="0.92"/>
<path d="M200 153.7 L208.3 145.4" fill="none" stroke="#263632" stroke-width="5" stroke-linecap="round" stroke-linejoin="round" opacity="0.92"/>
<path d="M43.7 223 L43.7 212.5" fill="none" stroke="#263632" stroke-width="5" stroke-linecap="round" stroke-linejoin="round" opacity="0.92"/>
<path d="M142.4 197.3 L135.5 207.5" fill="none" stroke="#263632" stroke-width="5" stroke-linecap="round" stroke-linejoin="round" opacity="0.92"/>
<path d="M168.5 178.4 L150.5 196.4" fill="none" stroke="#263632" stroke-width="5" stroke-linecap="round" stroke-linejoin="round" opacity="0.92"/>
<path d="M112.9 200.1 L94.8 192.4" fill="none" stroke="#263632" stroke-width="5" stroke-linecap="round" stroke-linejoin="round" opacity="0.92"/>
<path d="M101.1 287.4 L93.5 298.4" fill="none" stroke="#263632" stroke-width="5" stroke-linecap="round" stroke-linejoin="round" opacity="0.92"/>
<path d="M146.2 230.6 L138.4 241.7" fill="none" stroke="#263632" stroke-width="5" stroke-linecap="round" stroke-linejoin="round" opacity="0.92"/>
<path d="M180.2 243.9 L195.6 250.6" fill="none" stroke="#263632" stroke-width="5" stroke-linecap="round" stroke-linejoin="round" opacity="0.92"/>
<path d="M95.9 237.8 L82.2 232" fill="none" stroke="#263632" stroke-width="5" stroke-linecap="round" stroke-linejoin="round" opacity="0.92"/>
<path d="M361.2 197.8 L348.9 216.3" fill="none" stroke="#263632" stroke-width="5" stroke-linecap="round" stroke-linejoin="round" opacity="0.92"/>
<path d="M405.1 212.9 L393.8 208.2" fill="none" stroke="#263632" stroke-width="5" stroke-linecap="round" stroke-linejoin="round" opacity="0.92"/>
<path d="M390.6 266.6 L384.6 275.5" fill="none" stroke="#263632" stroke-width="5" stroke-linecap="round" stroke-linejoin="round" opacity="0.92"/>
<path d="M26.4 224.7 L10.7 224.8" fill="none" stroke="#263632" stroke-width="5" stroke-linecap="round" stroke-linejoin="round" opacity="0.92"/>
<path d="M13.4 251.8 L40.2 251.9" fill="none" stroke="#263632" stroke-width="5" stroke-linecap="round" stroke-linejoin="round" opacity="0.92"/>
<path d="M19.1 279.3 L39.9 279.4" fill="none" stroke="#263632" stroke-width="5" stroke-linecap="round" stroke-linejoin="round" opacity="0.92"/>
<path d="M225.5 36.4 L220 45.2" fill="none" stroke="#263632" stroke-width="5" stroke-linecap="round" stroke-linejoin="round" opacity="0.92"/>
<path d="M122.3 264.9 L115.6 274.6" fill="none" stroke="#263632" stroke-width="5" stroke-linecap="round" stroke-linejoin="round" opacity="0.92"/>
<path d="M102.7 255.5 L96 265.9" fill="none" stroke="#263632" stroke-width="5" stroke-linecap="round" stroke-linejoin="round" opacity="0.92"/>
<path d="M95 267.4 L88.7 276.6" fill="none" stroke="#263632" stroke-width="5" stroke-linecap="round" stroke-linejoin="round" opacity="0.92"/>
<path d="M149.6 288.9 L164.7 266.6" fill="none" stroke="#263632" stroke-width="5" stroke-linecap="round" stroke-linejoin="round" opacity="0.92"/>
<path d="M109.5 275.1 L102.4 285.6" fill="none" stroke="#263632" stroke-width="5" stroke-linecap="round" stroke-linejoin="round" opacity="0.92"/>
<path d="M111.2 272.7 L125.9 251.7" fill="none" stroke="#263632" stroke-width="5" stroke-linecap="round" stroke-linejoin="round" opacity="0.92"/>
<path d="M403.7 102.2 L420 105.7" fill="none" stroke="#263632" stroke-width="5" stroke-linecap="round" stroke-linejoin="round" opacity="0.92"/>
<path d="M118.3 112.9 L110.5 124.3" fill="none" stroke="#263632" stroke-width="5" stroke-linecap="round" stroke-linejoin="round" opacity="0.92"/>
<path d="M40.3 181.7 L23.4 181.8" fill="none" stroke="#263632" stroke-width="5" stroke-linecap="round" stroke-linejoin="round" opacity="0.92"/>
<path d="M12.1 170.4 L40.9 170.3" fill="none" stroke="#263632" stroke-width="5" stroke-linecap="round" stroke-linejoin="round" opacity="0.92"/>
<path d="M330.4 294.9 L330.8 305.2" fill="none" stroke="#263632" stroke-width="5" stroke-linecap="round" stroke-linejoin="round" opacity="0.92"/>
<path d="M43.8 278.7 L20.1 278.7" fill="none" stroke="#263632" stroke-width="5" stroke-linecap="round" stroke-linejoin="round" opacity="0.92"/>
<path d="M41.9 224.7 L29.4 224.7" fill="none" stroke="#263632" stroke-width="5" stroke-linecap="round" stroke-linejoin="round" opacity="0.92"/>
<path d="M64.1 224.7 L48.7 224.7" fill="none" stroke="#263632" stroke-width="5" stroke-linecap="round" stroke-linejoin="round" opacity="0.92"/>
<path d="M113.9 315.7 L113.9 305.8" fill="none" stroke="#263632" stroke-width="5" stroke-linecap="round" stroke-linejoin="round" opacity="0.92"/>
<path d="M172.6 213.6 L161.5 226.3" fill="none" stroke="#263632" stroke-width="5" stroke-linecap="round" stroke-linejoin="round" opacity="0.92"/>
<path d="M342.1 127.9 L333.5 133.9 L319.2 138.8" fill="none" stroke="#263632" stroke-width="5" stroke-linecap="round" stroke-linejoin="round" opacity="0.92"/>
<path d="M86.5 317.7 L86.9 306.5" fill="none" stroke="#263632" stroke-width="5" stroke-linecap="round" stroke-linejoin="round" opacity="0.92"/>
<path d="M43.8 289.5 L43.6 304.6" fill="none" stroke="#263632" stroke-width="5" stroke-linecap="round" stroke-linejoin="round" opacity="0.92"/>
<path d="M190.6 276.3 L193.2 270.8 L203.4 260.3" fill="none" stroke="#263632" stroke-width="5" stroke-linecap="round" stroke-linejoin="round" opacity="0.92"/>
<path d="M251.6 275.1 L251.3 285.9" fill="none" stroke="#263632" stroke-width="5" stroke-linecap="round" stroke-linejoin="round" opacity="0.92"/>
<path d="M420 195.1 L409.8 184.8" fill="none" stroke="#263632" stroke-width="5" stroke-linecap="round" stroke-linejoin="round" opacity="0.92"/>
<path d="M226.5 161.7 L236.4 151.7" fill="none" stroke="#263632" stroke-width="5" stroke-linecap="round" stroke-linejoin="round" opacity="0.92"/>
<path d="M251.1 298.4 L252.2 320" fill="none" stroke="#263632" stroke-width="5" stroke-linecap="round" stroke-linejoin="round" opacity="0.92"/>
<path d="M212.5 153.1 L199.4 145.2" fill="none" stroke="#263632" stroke-width="5" stroke-linecap="round" stroke-linejoin="round" opacity="0.92"/>
<path d="M377.9 173.4 L370.8 183.6" fill="none" stroke="#263632" stroke-width="5" stroke-linecap="round" stroke-linejoin="round" opacity="0.92"/>
<path d="M375.2 146.1 L389.6 146.3" fill="none" stroke="#263632" stroke-width="5" stroke-linecap="round" stroke-linejoin="round" opacity="0.92"/>
<path d="M234.7 219.9 L213.6 203.1" fill="none" stroke="#263632" stroke-width="5" stroke-linecap="round" stroke-linejoin="round" opacity="0.92"/>
<path d="M266 144.2 L278.9 144.8" fill="none" stroke="#263632" stroke-width="5" stroke-linecap="round" stroke-linejoin="round" opacity="0.92"/>
<path d="M133.7 240.6 L127.6 249.3" fill="none" stroke="#263632" stroke-width="5" stroke-linecap="round" stroke-linejoin="round" opacity="0.92"/>
<path d="M113.9 305.8 L113.8 288.1" fill="none" stroke="#263632" stroke-width="5" stroke-linecap="round" stroke-linejoin="round" opacity="0.92"/>
<path d="M407.6 244 L420 251" fill="none" stroke="#263632" stroke-width="5" stroke-linecap="round" stroke-linejoin="round" opacity="0.92"/>
<path d="M396.9 257 L390.6 266.6" fill="none" stroke="#263632" stroke-width="5" stroke-linecap="round" stroke-linejoin="round" opacity="0.92"/>
<path d="M196.2 250.3 L183 244.6" fill="none" stroke="#263632" stroke-width="5" stroke-linecap="round" stroke-linejoin="round" opacity="0.92"/>
<path d="M237.1 293.1 L236.9 305.2" fill="none" stroke="#263632" stroke-width="5" stroke-linecap="round" stroke-linejoin="round" opacity="0.92"/>
<path d="M181.5 203.4 L172.6 213.6" fill="none" stroke="#263632" stroke-width="5" stroke-linecap="round" stroke-linejoin="round" opacity="0.92"/>
<path d="M323.4 196.7 L323.1 214.5" fill="none" stroke="#263632" stroke-width="5" stroke-linecap="round" stroke-linejoin="round" opacity="0.92"/>
<path d="M324.6 194.1 L325.7 177.7" fill="none" stroke="#263632" stroke-width="5" stroke-linecap="round" stroke-linejoin="round" opacity="0.92"/>
<path d="M331 53.4 L322.4 44.6" fill="none" stroke="#263632" stroke-width="5" stroke-linecap="round" stroke-linejoin="round" opacity="0.92"/>
<path d="M96.5 268.5 L90 277.8" fill="none" stroke="#263632" stroke-width="5" stroke-linecap="round" stroke-linejoin="round" opacity="0.92"/>
<path d="M26.6 131 L0 131.1" fill="none" stroke="#263632" stroke-width="5" stroke-linecap="round" stroke-linejoin="round" opacity="0.92"/>
<path d="M360.8 136.2 L381.9 144.1" fill="none" stroke="#263632" stroke-width="5" stroke-linecap="round" stroke-linejoin="round" opacity="0.92"/>
<path d="M380.7 144.4 L363.6 138.3" fill="none" stroke="#263632" stroke-width="5" stroke-linecap="round" stroke-linejoin="round" opacity="0.92"/>
<path d="M363.6 138.3 L355.7 135.2 L350 135.1 L326.8 140.5 L315.7 148.4 L308.7 149.2" fill="none" stroke="#263632" stroke-width="5" stroke-linecap="round" stroke-linejoin="round" opacity="0.92"/>
<path d="M308.7 148.9 L315.3 148.2 L329.2 139.5 L351.2 134.5 L360.8 136.2" fill="none" stroke="#263632" stroke-width="5" stroke-linecap="round" stroke-linejoin="round" opacity="0.92"/>
<path d="M233.5 130.1 L245.5 137.3" fill="none" stroke="#263632" stroke-width="5" stroke-linecap="round" stroke-linejoin="round" opacity="0.92"/>
<path d="M58.9 208.8 L45 208.6" fill="none" stroke="#263632" stroke-width="5" stroke-linecap="round" stroke-linejoin="round" opacity="0.92"/>
<path d="M307 25 L304.3 38.3" fill="none" stroke="#263632" stroke-width="5" stroke-linecap="round" stroke-linejoin="round" opacity="0.92"/>
<path d="M325.2 209.7 L297.8 203.3" fill="none" stroke="#263632" stroke-width="5" stroke-linecap="round" stroke-linejoin="round" opacity="0.92"/>
<path d="M271.9 204.2 L258.4 204.5" fill="none" stroke="#263632" stroke-width="5" stroke-linecap="round" stroke-linejoin="round" opacity="0.92"/>
<path d="M397.9 256.6 L416.4 264.2" fill="none" stroke="#263632" stroke-width="5" stroke-linecap="round" stroke-linejoin="round" opacity="0.92"/>
<path d="M213.1 247.7 L199.4 241.5" fill="none" stroke="#263632" stroke-width="5" stroke-linecap="round" stroke-linejoin="round" opacity="0.92"/>
<path d="M88.9 66.7 L77.7 62.1" fill="none" stroke="#263632" stroke-width="5" stroke-linecap="round" stroke-linejoin="round" opacity="0.92"/>
<path d="M339.1 282.7 L346.6 283.3 L368.7 291.5" fill="none" stroke="#263632" stroke-width="5" stroke-linecap="round" stroke-linejoin="round" opacity="0.92"/>
<path d="M100.3 62.6 L120.5 68.6" fill="none" stroke="#263632" stroke-width="5" stroke-linecap="round" stroke-linejoin="round" opacity="0.92"/>
<path d="M332.7 29.2 L315.8 39.2" fill="none" stroke="#263632" stroke-width="5" stroke-linecap="round" stroke-linejoin="round" opacity="0.92"/>
<path d="M347.1 24.9 L332.7 29.2" fill="none" stroke="#263632" stroke-width="5" stroke-linecap="round" stroke-linejoin="round" opacity="0.92"/>
<path d="M333.3 76.2 L342.9 91.5 L344.3 99.6" fill="none" stroke="#263632" stroke-width="5" stroke-linecap="round" stroke-linejoin="round" opacity="0.92"/>
<path d="M268.3 248.7 L246.3 257 L236.3 258.4" fill="none" stroke="#263632" stroke-width="5" stroke-linecap="round" stroke-linejoin="round" opacity="0.92"/>
<path d="M334.9 236.7 L322 237.1" fill="none" stroke="#263632" stroke-width="5" stroke-linecap="round" stroke-linejoin="round" opacity="0.92"/>
<path d="M371.9 142.9 L358.3 137.5" fill="none" stroke="#263632" stroke-width="5" stroke-linecap="round" stroke-linejoin="round" opacity="0.92"/>
<path d="M389 144.9 L371.9 142.9" fill="none" stroke="#263632" stroke-width="5" stroke-linecap="round" stroke-linejoin="round" opacity="0.92"/>
<path d="M325.2 179.9 L323.4 196.7" fill="none" stroke="#263632" stroke-width="5" stroke-linecap="round" stroke-linejoin="round" opacity="0.92"/>
<path d="M235.6 258.3 L225.9 256.4 L213.2 250.1" fill="none" stroke="#263632" stroke-width="5" stroke-linecap="round" stroke-linejoin="round" opacity="0.92"/>
<path d="M346.6 140.8 L358.4 141 L372.4 144.6" fill="none" stroke="#263632" stroke-width="5" stroke-linecap="round" stroke-linejoin="round" opacity="0.92"/>
<path d="M324.8 142.7 L313.6 149.8" fill="none" stroke="#263632" stroke-width="5" stroke-linecap="round" stroke-linejoin="round" opacity="0.92"/>
<path d="M358.3 137.5 L351 135.9 L346.4 139.2" fill="none" stroke="#263632" stroke-width="5" stroke-linecap="round" stroke-linejoin="round" opacity="0.92"/>
<path d="M324.3 204.8 L324.6 194.1" fill="none" stroke="#263632" stroke-width="5" stroke-linecap="round" stroke-linejoin="round" opacity="0.92"/>
<path d="M249.3 139.5 L260.7 145.5" fill="none" stroke="#263632" stroke-width="5" stroke-linecap="round" stroke-linejoin="round" opacity="0.92"/>
<path d="M244.3 135.9 L232.9 129" fill="none" stroke="#263632" stroke-width="5" stroke-linecap="round" stroke-linejoin="round" opacity="0.92"/>
<path d="M342.9 89.6 L334.8 77.5 L332.8 69.3" fill="none" stroke="#263632" stroke-width="5" stroke-linecap="round" stroke-linejoin="round" opacity="0.92"/>
<path d="M238 259 L254.5 254.9" fill="none" stroke="#263632" stroke-width="5" stroke-linecap="round" stroke-linejoin="round" opacity="0.92"/>
<path d="M104.6 258.1 L112.4 243.4 L112.1 227.2" fill="none" stroke="#263632" stroke-width="5" stroke-linecap="round" stroke-linejoin="round" opacity="0.92"/>
<path d="M85.8 206.5 L102.6 204.9" fill="none" stroke="#263632" stroke-width="5" stroke-linecap="round" stroke-linejoin="round" opacity="0.92"/>
<path d="M351.8 170.2 L354.4 155.9" fill="none" stroke="#263632" stroke-width="5" stroke-linecap="round" stroke-linejoin="round" opacity="0.92"/>
<path d="M406.3 183.4 L386.8 175.3" fill="none" stroke="#263632" stroke-width="5" stroke-linecap="round" stroke-linejoin="round" opacity="0.92"/>
<path d="M290 232.8 L289.8 221.7" fill="none" stroke="#263632" stroke-width="5" stroke-linecap="round" stroke-linejoin="round" opacity="0.92"/>
<path d="M108.8 74.9 L96.2 69.7" fill="none" stroke="#263632" stroke-width="5" stroke-linecap="round" stroke-linejoin="round" opacity="0.92"/>
<path d="M247.8 2.8 L260.9 14" fill="none" stroke="#263632" stroke-width="5" stroke-linecap="round" stroke-linejoin="round" opacity="0.92"/>
<path d="M244.9 99.1 L266.8 87.4" fill="none" stroke="#263632" stroke-width="5" stroke-linecap="round" stroke-linejoin="round" opacity="0.92"/>
<path d="M206.6 247.5 L225.8 257 L237.5 259" fill="none" stroke="#263632" stroke-width="5" stroke-linecap="round" stroke-linejoin="round" opacity="0.92"/>
<path d="M209.9 248.4 L191 238.8" fill="none" stroke="#263632" stroke-width="5" stroke-linecap="round" stroke-linejoin="round" opacity="0.92"/>
<path d="M262 251.9 L290.8 241.4" fill="none" stroke="#263632" stroke-width="5" stroke-linecap="round" stroke-linejoin="round" opacity="0.92"/>
<path d="M28.5 209.2 L42.5 209.4" fill="none" stroke="#263632" stroke-width="5" stroke-linecap="round" stroke-linejoin="round" opacity="0.92"/>
<path d="M420 231.9 L411.8 236.7 L397.3 238.8" fill="none" stroke="#263632" stroke-width="5" stroke-linecap="round" stroke-linejoin="round" opacity="0.92"/>
<path d="M165.7 265.3 L175.6 250.6" fill="none" stroke="#263632" stroke-width="5" stroke-linecap="round" stroke-linejoin="round" opacity="0.92"/>
<path d="M133.4 213.6 L147.5 221.5" fill="none" stroke="#263632" stroke-width="5" stroke-linecap="round" stroke-linejoin="round" opacity="0.92"/>
<path d="M186.9 234.4 L193.2 225.6" fill="none" stroke="#263632" stroke-width="5" stroke-linecap="round" stroke-linejoin="round" opacity="0.92"/>
<path d="M110.3 44 L94.8 52.9" fill="none" stroke="#263632" stroke-width="5" stroke-linecap="round" stroke-linejoin="round" opacity="0.92"/>
<path d="M122.2 206.1 L110.2 203.3" fill="none" stroke="#263632" stroke-width="5" stroke-linecap="round" stroke-linejoin="round" opacity="0.92"/>
<path d="M368.5 19.4 L363 22.3 L348.4 24.6" fill="none" stroke="#263632" stroke-width="5" stroke-linecap="round" stroke-linejoin="round" opacity="0.92"/>
<path d="M44.2 34 L57.5 34" fill="none" stroke="#263632" stroke-width="5" stroke-linecap="round" stroke-linejoin="round" opacity="0.92"/>
<path d="M390.3 315 L388.9 309.3 L381.4 299.3" fill="none" stroke="#263632" stroke-width="5" stroke-linecap="round" stroke-linejoin="round" opacity="0.92"/>
<path d="M290.2 243.6 L290 232.8" fill="none" stroke="#263632" stroke-width="5" stroke-linecap="round" stroke-linejoin="round" opacity="0.92"/>
<path d="M396.1 297.3 L383.2 295.7" fill="none" stroke="#263632" stroke-width="5" stroke-linecap="round" stroke-linejoin="round" opacity="0.92"/>
<path d="M382 233.3 L402.9 242" fill="none" stroke="#263632" stroke-width="5" stroke-linecap="round" stroke-linejoin="round" opacity="0.92"/>
<path d="M109.4 64.4 L97 61" fill="none" stroke="#263632" stroke-width="5" stroke-linecap="round" stroke-linejoin="round" opacity="0.92"/>
<path d="M336.6 48.7 L347.2 60.6" fill="none" stroke="#263632" stroke-width="5" stroke-linecap="round" stroke-linejoin="round" opacity="0.92"/>
<path d="M135.3 13.4 L129.3 22.3" fill="none" stroke="#263632" stroke-width="5" stroke-linecap="round" stroke-linejoin="round" opacity="0.92"/>
<path d="M230.7 190 L247.3 199.7" fill="none" stroke="#263632" stroke-width="5" stroke-linecap="round" stroke-linejoin="round" opacity="0.92"/>
<path d="M287.9 0 L301.3 8.5 L306.4 18.6" fill="none" stroke="#263632" stroke-width="5" stroke-linecap="round" stroke-linejoin="round" opacity="0.92"/>
<path d="M383 296 L396.1 297.3" fill="none" stroke="#263632" stroke-width="5" stroke-linecap="round" stroke-linejoin="round" opacity="0.92"/>
</svg>
