<svg xmlns="http://www.w3.org/2000/svg" viewBox="0 0 420 320" role="img" aria-label="Unlabeled street grid stage 0">
  <rect width="420" height="320" fill="#efe7d2"/>
  
  
  
  <g><path d="M10 64 C70 24 110 124 340 42" fill="none" stroke="hsl(138 18% 28%)" stroke-width="5" stroke-linecap="round" opacity="0.92"/><path d="M57 95 C107 55 147 155 369 95" fill="none" stroke="hsl(138 10% 48%)" stroke-width="3" stroke-linecap="round" opacity="0.92"/><path d="M44 126 C144 86 184 186 398 148" fill="none" stroke="hsl(138 18% 28%)" stroke-width="5" stroke-linecap="round" opacity="0.92"/><path d="M31 157 C181 117 221 217 357 135" fill="none" stroke="hsl(138 10% 48%)" stroke-width="3" stroke-linecap="round" opacity="0.92"/><path d="M18 188 C218 148 258 248 386 188" fill="none" stroke="hsl(138 18% 28%)" stroke-width="5" stroke-linecap="round" opacity="0.92"/><path d="M65 219 C255 179 295 279 345 241" fill="none" stroke="hsl(138 10% 48%)" stroke-width="3" stroke-linecap="round" opacity="0.92"/><path d="M52 250 C292 210 332 310 374 228" fill="none" stroke="hsl(138 18% 28%)" stroke-width="5" stroke-linecap="round" opacity="0.92"/><path d="M39 281 C99 241 139 341 403 281" fill="none" stroke="hsl(138 10% 48%)" stroke-width="3" stroke-linecap="round" opacity="0.92"/><path d="M26 60 C136 20 176 120 362 82" fill="none" stroke="hsl(138 18% 28%)" stroke-width="5" stroke-linecap="round" opacity="0.92"/><path d="M333 22 C367 88 291 168 353 300" fill="none" stroke="hsl(138 10% 48%)" stroke-width="3" stroke-linecap="round" opacity="0.8"/><path d="M36 22 C70 88 -6 168 56 300" fill="none" stroke="hsl(138 10% 48%)" stroke-width="3" stroke-linecap="round" opacity="0.8"/><path d="M79 22 C113 88 37 168 99 300" fill="none" stroke="hsl(138 10% 48%)" stroke-width="3" stroke-linecap="round" opacity="0.8"/><path d="M122 22 C156 88 80 168 142 300" fill="none" stroke="hsl(138 10% 48%)" stroke-width="3" stroke-linecap="round" opacity="0.8"/><path d="M165 22 C199 88 123 168 185 300" fill="none" stroke="hsl(138 10% 48%)" stroke-width="3" stroke-linecap="round" opacity="0.8"/></g>
  
  
  
</svg>
