<svg xmlns="http://www.w3.org/2000/svg" viewBox="0 0 420 320" role="img" aria-label="Unlabeled street-grid crop">
<rect width="420" height="320" fill="#f6f3e9"/>
<g opacity="0.22" stroke="#d8d0bd" stroke-width="1">
<path d="M0 0L0 320" fill="none"/>
<path d="M60 0L60 320" fill="none"/>
<path d="M120 0L120 320" fill="none"/>
<path d="M180 0L180 320" fill="none"/>
<path d="M240 0L240 320" fill="none"/>
<path d="M300 0L300 320" fill="none"/>
<path d="M360 0L360 320" fill="none"/>
<path d="M420 0L420 320" fill="none"/>
<path d="M0 0L420 0" fill="none"/>
<path d="M0 54L420 54" fill="none"/>
<path d="M0 108L420 108" fill="none"/>
<path d="M0 162L420 162" fill="none"/>
<path d="M0 216L420 216" fill="none"/>
<path d="M0 270L420 270" fill="none"/>
<path d="M0 324L420 324" fill="none"/>
</g>
<path d="M227 251.5 L259.5 221.9" fill="none" stroke="#fdfbf5" stroke-width="9" stroke-linecap="round" stroke-linejoin="round" opacity="0.95"/>
<path d="M286.4 62.2 L266.4 112.8 L247.7 129 L237.6 158 L237.3 164.8" fill="none" stroke="#fdfbf5" stroke-width="9" stroke-linecap="round" stroke-linejoin="round" opacity="0.95"/>
<path d="M218.8 141.1 L236.1 130.9 L240.8 116.7 L247.1 105.1 L262.2 90.7" fill="none" stroke="#fdfbf5" stroke-width="9" stroke-linecap="round" stroke-linejoin="round" opacity="0.95"/>
<path d="M47.4 85.2 L38.7 129" fill="none" stroke="#fdfbf5" stroke-width="9" stroke-linecap="round" stroke-linejoin="round" opacity="0.95"/>
<path d="M66.4 124.7 L73.1 102.6 L79.4 89.6" fill="none" stroke="#fdfbf5" stroke-width="9" stroke-linecap="round" stroke-linejoin="round" opacity="0.95"/>
<path d="M191.1 67.6 L207.3 70.1 L237.2 62.4 L259.6 62.2" fill="none" stroke="#fdfbf5" stroke-width="9" stroke-linecap="round" stroke-linejoin="round" opacity="0.95"/>
<path d="M61.2 208.9 L54.7 199.1 L59.9 153.1" fill="none" stroke="#fdfbf5" stroke-width="9" stroke-linecap="round" stroke-linejoin="round" opacity="0.95"/>
<path d="M247.5 182.2 L303.3 194.1" fill="none" stroke="#fdfbf5" stroke-width="9" stroke-linecap="round" stroke-linejoin="round" opacity="0.95"/>
<path d="M274.4 226.8 L328 244.1" fill="none" stroke="#fdfbf5" stroke-width="9" stroke-linecap="round" stroke-linejoin="round" opacity="0.95"/>
<path d="M375 209.2 L356.3 249" fill="none" stroke="#fdfbf5" stroke-width="9" stroke-linecap="round" stroke-linejoin="round" opacity="0.95"/>
<path d="M347.7 283.6 L381.7 284.8 L414.5 289.8" fill="none" stroke="#fdfbf5" stroke-width="9" stroke-linecap="round" stroke-linejoin="round" opacity="0.95"/>
<path d="M398.1 159.9 L395.7 168 L376.4 206.5" fill="none" stroke="#fdfbf5" stroke-width="9" stroke-linecap="round" stroke-linejoin="round" opacity="0.95"/>
<path d="M0 250.1 L0 254.8 L18.3 256.4 L48.1 266.6" fill="none" stroke="#fdfbf5" stroke-width="9" stroke-linecap="round" stroke-linejoin="round" opacity="0.95"/>
<path d="M46.9 20 L48.3 0" fill="none" stroke="#fdfbf5" stroke-width="9" stroke-linecap="round" stroke-linejoin="round" opacity="0.95"/>
<path d="M47.2 0 L46.3 20.3" fill="none" stroke="#fdfbf5" stroke-width="9" stroke-linecap="round" stroke-linejoin="round" opacity="0.95"/>
<path d="M47.5 265.1 L15.6 254.7 L0 254.2 L0 249.2" fill="none" stroke="#fdfbf5" stroke-width="9" stroke-linecap="round" stroke-linejoin="round" opacity="0.95"/>
<path d="M270.1 225.3 L254 244.8 L250.2 261.5" fill="none" stroke="#fdfbf5" stroke-width="9" stroke-linecap="round" stroke-linejoin="round" opacity="0.95"/>
<path d="M203.7 309.2 L159 318.7 L136.4 318" fill="none" stroke="#fdfbf5" stroke-width="9" stroke-linecap="round" stroke-linejoin="round" opacity="0.95"/>
<path d="M382.7 258 L390.6 245.1 L401.6 214.2" fill="none" stroke="#fdfbf5" stroke-width="9" stroke-linecap="round" stroke-linejoin="round" opacity="0.95"/>
<path d="M285.3 140.3 L251 173.1 L248.5 178.4 L244.7 199.7" fill="none" stroke="#fdfbf5" stroke-width="9" stroke-linecap="round" stroke-linejoin="round" opacity="0.95"/>
<path d="M377.1 206.6 L396.4 168.1 L398.5 160" fill="none" stroke="#fdfbf5" stroke-width="9" stroke-linecap="round" stroke-linejoin="round" opacity="0.95"/>
<path d="M174.8 227.1 L148.5 213.7 L137.9 194.4" fill="none" stroke="#fdfbf5" stroke-width="9" stroke-linecap="round" stroke-linejoin="round" opacity="0.95"/>
<path d="M261.8 167 L328.8 181.8" fill="none" stroke="#fdfbf5" stroke-width="9" stroke-linecap="round" stroke-linejoin="round" opacity="0.95"/>
<path d="M233 197.4 L215.2 216.3 L204.4 225 L198.1 228.5 L191.5 228.9" fill="none" stroke="#fdfbf5" stroke-width="9" stroke-linecap="round" stroke-linejoin="round" opacity="0.95"/>
<path d="M186 192.4 L236.9 198.1" fill="none" stroke="#fdfbf5" stroke-width="9" stroke-linecap="round" stroke-linejoin="round" opacity="0.95"/>
<path d="M138.4 162 L140.4 155 L150.7 146.8 L157.8 135.2 L170.9 120.2" fill="none" stroke="#fdfbf5" stroke-width="9" stroke-linecap="round" stroke-linejoin="round" opacity="0.95"/>
<path d="M106.4 156.5 L118.7 130.5 L118 125.1 L112.8 118.9" fill="none" stroke="#fdfbf5" stroke-width="9" stroke-linecap="round" stroke-linejoin="round" opacity="0.95"/>
<path d="M170.9 120.2 L178.2 121.4 L185.3 127.6 L195.8 138.8 L201 148.7" fill="none" stroke="#fdfbf5" stroke-width="9" stroke-linecap="round" stroke-linejoin="round" opacity="0.95"/>
<path d="M81.6 113.7 L64.6 112.7 L0 102 L0 98.5" fill="none" stroke="#fdfbf5" stroke-width="9" stroke-linecap="round" stroke-linejoin="round" opacity="0.95"/>
<path d="M0 98.8 L0 102.8 L67.9 113.6 L82.2 114.2" fill="none" stroke="#fdfbf5" stroke-width="9" stroke-linecap="round" stroke-linejoin="round" opacity="0.95"/>
<path d="M13.6 62.9 L12.8 98.2" fill="none" stroke="#fdfbf5" stroke-width="9" stroke-linecap="round" stroke-linejoin="round" opacity="0.95"/>
<path d="M358 95 L332.2 100.2 L300.5 113.2" fill="none" stroke="#fdfbf5" stroke-width="9" stroke-linecap="round" stroke-linejoin="round" opacity="0.95"/>
<path d="M287.3 150.8 L240.4 132.4" fill="none" stroke="#fdfbf5" stroke-width="9" stroke-linecap="round" stroke-linejoin="round" opacity="0.95"/>
<path d="M399.7 88.2 L420 83.4 L420 61.7" fill="none" stroke="#fdfbf5" stroke-width="9" stroke-linecap="round" stroke-linejoin="round" opacity="0.95"/>
<path d="M240 132.9 L287.1 151.6" fill="none" stroke="#fdfbf5" stroke-width="9" stroke-linecap="round" stroke-linejoin="round" opacity="0.95"/>
<path d="M316.9 132.4 L334.7 123.6 L366.8 114.5" fill="none" stroke="#fdfbf5" stroke-width="9" stroke-linecap="round" stroke-linejoin="round" opacity="0.95"/>
<path d="M361 142.5 L333.4 134.9 L314.9 121.9 L306.3 113 L306.8 110.5" fill="none" stroke="#fdfbf5" stroke-width="9" stroke-linecap="round" stroke-linejoin="round" opacity="0.95"/>
<path d="M366.4 113.7 L333.7 123.1 L316.4 132" fill="none" stroke="#fdfbf5" stroke-width="9" stroke-linecap="round" stroke-linejoin="round" opacity="0.95"/>
<path d="M329.6 83.5 L361.8 72.9 L376.5 71 L399 64.3" fill="none" stroke="#fdfbf5" stroke-width="9" stroke-linecap="round" stroke-linejoin="round" opacity="0.95"/>
<path d="M50.1 42.5 L73.8 31.9 L87 31.1 L97.7 32.7" fill="none" stroke="#fdfbf5" stroke-width="9" stroke-linecap="round" stroke-linejoin="round" opacity="0.95"/>
<path d="M237.8 164.8 L238 158.1 L247.1 131.5 L251.2 125.4 L268.2 110.9 L287.6 62.3" fill="none" stroke="#fdfbf5" stroke-width="9" stroke-linecap="round" stroke-linejoin="round" opacity="0.95"/>
<path d="M420 32.2 L415.7 43.3 L405.6 42.5" fill="none" stroke="#fdfbf5" stroke-width="9" stroke-linecap="round" stroke-linejoin="round" opacity="0.95"/>
<path d="M259.4 61.7 L233 62.6 L206.6 69.6 L191.4 67" fill="none" stroke="#fdfbf5" stroke-width="9" stroke-linecap="round" stroke-linejoin="round" opacity="0.95"/>
<path d="M400.8 214.1 L390 245 L381.8 257.6" fill="none" stroke="#fdfbf5" stroke-width="9" stroke-linecap="round" stroke-linejoin="round" opacity="0.95"/>
<path d="M329.2 181.3 L261.9 166.7" fill="none" stroke="#fdfbf5" stroke-width="9" stroke-linecap="round" stroke-linejoin="round" opacity="0.95"/>
<path d="M221.7 90.9 L221.5 52.9" fill="none" stroke="#fdfbf5" stroke-width="9" stroke-linecap="round" stroke-linejoin="round" opacity="0.95"/>
<path d="M300.6 113.8 L331.4 101 L357.8 95.4" fill="none" stroke="#fdfbf5" stroke-width="9" stroke-linecap="round" stroke-linejoin="round" opacity="0.95"/>
<path d="M144.8 209.6 L153.9 218.2 L173.8 227.4 L190.9 229.4" fill="none" stroke="#fdfbf5" stroke-width="9" stroke-linecap="round" stroke-linejoin="round" opacity="0.95"/>
<path d="M18.9 278.1 L29.7 259.2 L36 239.9" fill="none" stroke="#fdfbf5" stroke-width="9" stroke-linecap="round" stroke-linejoin="round" opacity="0.95"/>
<path d="M79.3 89 L72.6 102.4 L65.8 124.7" fill="none" stroke="#fdfbf5" stroke-width="9" stroke-linecap="round" stroke-linejoin="round" opacity="0.95"/>
<path d="M170.2 119.8 L148.8 148 L140.5 153.7 L138.4 162" fill="none" stroke="#fdfbf5" stroke-width="9" stroke-linecap="round" stroke-linejoin="round" opacity="0.95"/>
<path d="M79 195.1 L26.3 190" fill="none" stroke="#fdfbf5" stroke-width="9" stroke-linecap="round" stroke-linejoin="round" opacity="0.95"/>
<path d="M308.5 118.6 L332.4 136.7 L359.5 144" fill="none" stroke="#fdfbf5" stroke-width="9" stroke-linecap="round" stroke-linejoin="round" opacity="0.95"/>
<path d="M239.3 95.6 L240.5 86.5 L246.5 80 L246.5 73.8 L250.3 67.1 L250.5 62.3" fill="none" stroke="#fdfbf5" stroke-width="9" stroke-linecap="round" stroke-linejoin="round" opacity="0.95"/>
<path d="M261.4 90.9 L246.3 104.9 L235 130.4 L218.3 140.5" fill="none" stroke="#fdfbf5" stroke-width="9" stroke-linecap="round" stroke-linejoin="round" opacity="0.95"/>
<path d="M233.3 159.1 L210.9 132.5 L200.1 123.8 L182.3 104.1" fill="none" stroke="#fdfbf5" stroke-width="9" stroke-linecap="round" stroke-linejoin="round" opacity="0.95"/>
<path d="M12.6 101.8 L11.5 122.9 L1 160.5 L0 192.8" fill="none" stroke="#fdfbf5" stroke-width="9" stroke-linecap="round" stroke-linejoin="round" opacity="0.95"/>
<path d="M13.3 98.2 L14.2 62.2" fill="none" stroke="#fdfbf5" stroke-width="9" stroke-linecap="round" stroke-linejoin="round" opacity="0.95"/>
<path d="M10.1 133.4 L13.3 117.7 L14.6 74.4" fill="none" stroke="#fdfbf5" stroke-width="9" stroke-linecap="round" stroke-linejoin="round" opacity="0.95"/>
<path d="M39.5 129 L48.3 85.2" fill="none" stroke="#fdfbf5" stroke-width="9" stroke-linecap="round" stroke-linejoin="round" opacity="0.95"/>
<path d="M59.1 153 L54.2 199.1 L60.5 209.4" fill="none" stroke="#fdfbf5" stroke-width="9" stroke-linecap="round" stroke-linejoin="round" opacity="0.95"/>
<path d="M236.9 197.8 L216 194.1 L178.1 191.3 L165.1 193.7" fill="none" stroke="#fdfbf5" stroke-width="9" stroke-linecap="round" stroke-linejoin="round" opacity="0.95"/>
<path d="M60 148.8 L136.1 161.6" fill="none" stroke="#fdfbf5" stroke-width="9" stroke-linecap="round" stroke-linejoin="round" opacity="0.95"/>
<path d="M136.2 161 L60.1 148.3" fill="none" stroke="#fdfbf5" stroke-width="9" stroke-linecap="round" stroke-linejoin="round" opacity="0.95"/>
<path d="M12.9 81.4 L11.5 118.2 L8.1 133.7" fill="none" stroke="#fdfbf5" stroke-width="9" stroke-linecap="round" stroke-linejoin="round" opacity="0.95"/>
<path d="M400.2 182.7 L420 196.9" fill="none" stroke="#fdfbf5" stroke-width="9" stroke-linecap="round" stroke-linejoin="round" opacity="0.95"/>
<path d="M186.8 171.1 L238.9 181.7" fill="none" stroke="#fdfbf5" stroke-width="9" stroke-linecap="round" stroke-linejoin="round" opacity="0.95"/>
<path d="M186.1 171 L183.9 180 L186.8 200.3 L185.6 206.5" fill="none" stroke="#fdfbf5" stroke-width="9" stroke-linecap="round" stroke-linejoin="round" opacity="0.95"/>
<path d="M25.1 211.2 L49 212.7 L69.2 206.5 L94.5 214.4" fill="none" stroke="#fdfbf5" stroke-width="9" stroke-linecap="round" stroke-linejoin="round" opacity="0.95"/>
<path d="M103.8 171 L101 184.8 L100.9 200.8 L108.6 210.3 L106.6 217.9" fill="none" stroke="#fdfbf5" stroke-width="9" stroke-linecap="round" stroke-linejoin="round" opacity="0.95"/>
<path d="M162.5 318.9 L271.5 297.3 L294.5 296.7 L333 303.5 L355.9 304.2" fill="none" stroke="#fdfbf5" stroke-width="9" stroke-linecap="round" stroke-linejoin="round" opacity="0.95"/>
<path d="M101.6 300 L51.5 267.1 L17.2 255.6 L0 254.1 L0 223.6" fill="none" stroke="#fdfbf5" stroke-width="9" stroke-linecap="round" stroke-linejoin="round" opacity="0.95"/>
<path d="M227 251.5 L259.5 221.9" fill="none" stroke="#1e3432" stroke-width="4.8" stroke-linecap="round" stroke-linejoin="round" opacity="0.94"/>
<path d="M286.4 62.2 L266.4 112.8 L247.7 129 L237.6 158 L237.3 164.8" fill="none" stroke="#1e3432" stroke-width="4.8" stroke-linecap="round" stroke-linejoin="round" opacity="0.94"/>
<path d="M218.8 141.1 L236.1 130.9 L240.8 116.7 L247.1 105.1 L262.2 90.7" fill="none" stroke="#1e3432" stroke-width="4.8" stroke-linecap="round" stroke-linejoin="round" opacity="0.94"/>
<path d="M47.4 85.2 L38.7 129" fill="none" stroke="#1e3432" stroke-width="4.8" stroke-linecap="round" stroke-linejoin="round" opacity="0.94"/>
<path d="M66.4 124.7 L73.1 102.6 L79.4 89.6" fill="none" stroke="#1e3432" stroke-width="4.8" stroke-linecap="round" stroke-linejoin="round" opacity="0.94"/>
<path d="M191.1 67.6 L207.3 70.1 L237.2 62.4 L259.6 62.2" fill="none" stroke="#1e3432" stroke-width="4.8" stroke-linecap="round" stroke-linejoin="round" opacity="0.94"/>
<path d="M61.2 208.9 L54.7 199.1 L59.9 153.1" fill="none" stroke="#1e3432" stroke-width="4.8" stroke-linecap="round" stroke-linejoin="round" opacity="0.94"/>
<path d="M247.5 182.2 L303.3 194.1" fill="none" stroke="#1e3432" stroke-width="4.8" stroke-linecap="round" stroke-linejoin="round" opacity="0.94"/>
<path d="M274.4 226.8 L328 244.1" fill="none" stroke="#1e3432" stroke-width="4.8" stroke-linecap="round" stroke-linejoin="round" opacity="0.94"/>
<path d="M375 209.2 L356.3 249" fill="none" stroke="#1e3432" stroke-width="4.8" stroke-linecap="round" stroke-linejoin="round" opacity="0.94"/>
<path d="M347.7 283.6 L381.7 284.8 L414.5 289.8" fill="none" stroke="#1e3432" stroke-width="4.8" stroke-linecap="round" stroke-linejoin="round" opacity="0.94"/>
<path d="M398.1 159.9 L395.7 168 L376.4 206.5" fill="none" stroke="#1e3432" stroke-width="4.8" stroke-linecap="round" stroke-linejoin="round" opacity="0.94"/>
<path d="M0 250.1 L0 254.8 L18.3 256.4 L48.1 266.6" fill="none" stroke="#1e3432" stroke-width="4.8" stroke-linecap="round" stroke-linejoin="round" opacity="0.94"/>
<path d="M46.9 20 L48.3 0" fill="none" stroke="#1e3432" stroke-width="4.8" stroke-linecap="round" stroke-linejoin="round" opacity="0.94"/>
<path d="M47.2 0 L46.3 20.3" fill="none" stroke="#1e3432" stroke-width="4.8" stroke-linecap="round" stroke-linejoin="round" opacity="0.94"/>
<path d="M47.5 265.1 L15.6 254.7 L0 254.2 L0 249.2" fill="none" stroke="#1e3432" stroke-width="4.8" stroke-linecap="round" stroke-linejoin="round" opacity="0.94"/>
<path d="M270.1 225.3 L254 244.8 L250.2 261.5" fill="none" stroke="#1e3432" stroke-width="4.8" stroke-linecap="round" stroke-linejoin="round" opacity="0.94"/>
<path d="M203.7 309.2 L159 318.7 L136.4 318" fill="none" stroke="#1e3432" stroke-width="4.8" stroke-linecap="round" stroke-linejoin="round" opacity="0.94"/>
<path d="M382.7 258 L390.6 245.1 L401.6 214.2" fill="none" stroke="#1e3432" stroke-width="4.8" stroke-linecap="round" stroke-linejoin="round" opacity="0.94"/>
<path d="M285.3 140.3 L251 173.1 L248.5 178.4 L244.7 199.7" fill="none" stroke="#1e3432" stroke-width="4.8" stroke-linecap="round" stroke-linejoin="round" opacity="0.94"/>
<path d="M377.1 206.6 L396.4 168.1 L398.5 160" fill="none" stroke="#1e3432" stroke-width="4.8" stroke-linecap="round" stroke-linejoin="round" opacity="0.94"/>
<path d="M174.8 227.1 L148.5 213.7 L137.9 194.4" fill="none" stroke="#1e3432" stroke-width="4.8" stroke-linecap="round" stroke-linejoin="round" opacity="0.94"/>
<path d="M261.8 167 L328.8 181.8" fill="none" stroke="#1e3432" stroke-width="4.8" stroke-linecap="round" stroke-linejoin="round" opacity="0.94"/>
<path d="M233 197.4 L215.2 216.3 L204.4 225 L198.1 228.5 L191.5 228.9" fill="none" stroke="#1e3432" stroke-width="4.8" stroke-linecap="round" stroke-linejoin="round" opacity="0.94"/>
<path d="M186 192.4 L236.9 198.1" fill="none" stroke="#1e3432" stroke-width="4.8" stroke-linecap="round" stroke-linejoin="round" opacity="0.94"/>
<path d="M138.4 162 L140.4 155 L150.7 146.8 L157.8 135.2 L170.9 120.2" fill="none" stroke="#1e3432" stroke-width="4.8" stroke-linecap="round" stroke-linejoin="round" opacity="0.94"/>
<path d="M106.4 156.5 L118.7 130.5 L118 125.1 L112.8 118.9" fill="none" stroke="#1e3432" stroke-width="4.8" stroke-linecap="round" stroke-linejoin="round" opacity="0.94"/>
<path d="M170.9 120.2 L178.2 121.4 L185.3 127.6 L195.8 138.8 L201 148.7" fill="none" stroke="#1e3432" stroke-width="4.8" stroke-linecap="round" stroke-linejoin="round" opacity="0.94"/>
<path d="M81.6 113.7 L64.6 112.7 L0 102 L0 98.5" fill="none" stroke="#1e3432" stroke-width="4.8" stroke-linecap="round" stroke-linejoin="round" opacity="0.94"/>
<path d="M0 98.8 L0 102.8 L67.9 113.6 L82.2 114.2" fill="none" stroke="#1e3432" stroke-width="4.8" stroke-linecap="round" stroke-linejoin="round" opacity="0.94"/>
<path d="M13.6 62.9 L12.8 98.2" fill="none" stroke="#1e3432" stroke-width="4.8" stroke-linecap="round" stroke-linejoin="round" opacity="0.94"/>
<path d="M358 95 L332.2 100.2 L300.5 113.2" fill="none" stroke="#1e3432" stroke-width="4.8" stroke-linecap="round" stroke-linejoin="round" opacity="0.94"/>
<path d="M287.3 150.8 L240.4 132.4" fill="none" stroke="#1e3432" stroke-width="4.8" stroke-linecap="round" stroke-linejoin="round" opacity="0.94"/>
<path d="M399.7 88.2 L420 83.4 L420 61.7" fill="none" stroke="#1e3432" stroke-width="4.8" stroke-linecap="round" stroke-linejoin="round" opacity="0.94"/>
<path d="M240 132.9 L287.1 151.6" fill="none" stroke="#1e3432" stroke-width="4.8" stroke-linecap="round" stroke-linejoin="round" opacity="0.94"/>
<path d="M316.9 132.4 L334.7 123.6 L366.8 114.5" fill="none" stroke="#1e3432" stroke-width="4.8" stroke-linecap="round" stroke-linejoin="round" opacity="0.94"/>
<path d="M361 142.5 L333.4 134.9 L314.9 121.9 L306.3 113 L306.8 110.5" fill="none" stroke="#1e3432" stroke-width="4.8" stroke-linecap="round" stroke-linejoin="round" opacity="0.94"/>
<path d="M366.4 113.7 L333.7 123.1 L316.4 132" fill="none" stroke="#1e3432" stroke-width="4.8" stroke-linecap="round" stroke-linejoin="round" opacity="0.94"/>
<path d="M329.6 83.5 L361.8 72.9 L376.5 71 L399 64.3" fill="none" stroke="#1e3432" stroke-width="4.8" stroke-linecap="round" stroke-linejoin="round" opacity="0.94"/>
<path d="M50.1 42.5 L73.8 31.9 L87 31.1 L97.7 32.7" fill="none" stroke="#1e3432" stroke-width="4.8" stroke-linecap="round" stroke-linejoin="round" opacity="0.94"/>
<path d="M237.8 164.8 L238 158.1 L247.1 131.5 L251.2 125.4 L268.2 110.9 L287.6 62.3" fill="none" stroke="#1e3432" stroke-width="4.8" stroke-linecap="round" stroke-linejoin="round" opacity="0.94"/>
<path d="M420 32.2 L415.7 43.3 L405.6 42.5" fill="none" stroke="#1e3432" stroke-width="4.8" stroke-linecap="round" stroke-linejoin="round" opacity="0.94"/>
<path d="M259.4 61.7 L233 62.6 L206.6 69.6 L191.4 67" fill="none" stroke="#1e3432" stroke-width="4.8" stroke-linecap="round" stroke-linejoin="round" opacity="0.94"/>
<path d="M400.8 214.1 L390 245 L381.8 257.6" fill="none" stroke="#1e3432" stroke-width="4.8" stroke-linecap="round" stroke-linejoin="round" opacity="0.94"/>
<path d="M329.2 181.3 L261.9 166.7" fill="none" stroke="#1e3432" stroke-width="4.8" stroke-linecap="round" stroke-linejoin="round" opacity="0.94"/>
<path d="M221.7 90.9 L221.5 52.9" fill="none" stroke="#1e3432" stroke-width="4.8" stroke-linecap="round" stroke-linejoin="round" opacity="0.94"/>
<path d="M300.6 113.8 L331.4 101 L357.8 95.4" fill="none" stroke="#1e3432" stroke-width="4.8" stroke-linecap="round" stroke-linejoin="round" opacity="0.94"/>
<path d="M144.8 209.6 L153.9 218.2 L173.8 227.4 L190.9 229.4" fill="none" stroke="#1e3432" stroke-width="4.8" stroke-linecap="round" stroke-linejoin="round" opacity="0.94"/>
<path d="M18.9 278.1 L29.7 259.2 L36 239.9" fill="none" stroke="#1e3432" stroke-width="4.8" stroke-linecap="round" stroke-linejoin="round" opacity="0.94"/>
<path d="M79.3 89 L72.6 102.4 L65.8 124.7" fill="none" stroke="#1e3432" stroke-width="4.8" stroke-linecap="round" stroke-linejoin="round" opacity="0.94"/>
<path d="M170.2 119.8 L148.8 148 L140.5 153.7 L138.4 162" fill="none" stroke="#1e3432" stroke-width="4.8" stroke-linecap="round" stroke-linejoin="round" opacity="0.94"/>
<path d="M79 195.1 L26.3 190" fill="none" stroke="#1e3432" stroke-width="4.8" stroke-linecap="round" stroke-linejoin="round" opacity="0.94"/>
<path d="M308.5 118.6 L332.4 136.7 L359.5 144" fill="none" stroke="#1e3432" stroke-width="4.8" stroke-linecap="round" stroke-linejoin="round" opacity="0.94"/>
<path d="M239.3 95.6 L240.5 86.5 L246.5 80 L246.5 73.8 L250.3 67.1 L250.5 62.3" fill="none" stroke="#1e3432" stroke-width="4.8" stroke-linecap="round" stroke-linejoin="round" opacity="0.94"/>
<path d="M261.4 90.9 L246.3 104.9 L235 130.4 L218.3 140.5" fill="none" stroke="#1e3432" stroke-width="4.8" stroke-linecap="round" stroke-linejoin="round" opacity="0.94"/>
<path d="M233.3 159.1 L210.9 132.5 L200.1 123.8 L182.3 104.1" fill="none" stroke="#1e3432" stroke-width="4.8" stroke-linecap="round" stroke-linejoin="round" opacity="0.94"/>
<path d="M12.6 101.8 L11.5 122.9 L1 160.5 L0 192.8" fill="none" stroke="#1e3432" stroke-width="4.8" stroke-linecap="round" stroke-linejoin="round" opacity="0.94"/>
<path d="M13.3 98.2 L14.2 62.2" fill="none" stroke="#1e3432" stroke-width="4.8" stroke-linecap="round" stroke-linejoin="round" opacity="0.94"/>
<path d="M10.1 133.4 L13.3 117.7 L14.6 74.4" fill="none" stroke="#1e3432" stroke-width="4.8" stroke-linecap="round" stroke-linejoin="round" opacity="0.94"/>
<path d="M39.5 129 L48.3 85.2" fill="none" stroke="#1e3432" stroke-width="4.8" stroke-linecap="round" stroke-linejoin="round" opacity="0.94"/>
<path d="M59.1 153 L54.2 199.1 L60.5 209.4" fill="none" stroke="#1e3432" stroke-width="4.8" stroke-linecap="round" stroke-linejoin="round" opacity="0.94"/>
<path d="M236.9 197.8 L216 194.1 L178.1 191.3 L165.1 193.7" fill="none" stroke="#1e3432" stroke-width="4.8" stroke-linecap="round" stroke-linejoin="round" opacity="0.94"/>
<path d="M60 148.8 L136.1 161.6" fill="none" stroke="#1e3432" stroke-width="4.8" stroke-linecap="round" stroke-linejoin="round" opacity="0.94"/>
<path d="M136.2 161 L60.1 148.3" fill="none" stroke="#1e3432" stroke-width="4.8" stroke-linecap="round" stroke-linejoin="round" opacity="0.94"/>
<path d="M12.9 81.4 L11.5 118.2 L8.1 133.7" fill="none" stroke="#1e3432" stroke-width="4.8" stroke-linecap="round" stroke-linejoin="round" opacity="0.94"/>
<path d="M400.2 182.7 L420 196.9" fill="none" stroke="#1e3432" stroke-width="4.8" stroke-linecap="round" stroke-linejoin="round" opacity="0.94"/>
<path d="M186.8 171.1 L238.9 181.7" fill="none" stroke="#1e3432" stroke-width="4.8" stroke-linecap="round" stroke-linejoin="round" opacity="0.94"/>
<path d="M186.1 171 L183.9 180 L186.8 200.3 L185.6 206.5" fill="none" stroke="#1e3432" stroke-width="4.8" stroke-linecap="round" stroke-linejoin="round" opacity="0.94"/>
<path d="M25.1 211.2 L49 212.7 L69.2 206.5 L94.5 214.4" fill="none" stroke="#1e3432" stroke-width="4.8" stroke-linecap="round" stroke-linejoin="round" opacity="0.94"/>
<path d="M103.8 171 L101 184.8 L100.9 200.8 L108.6 210.3 L106.6 217.9" fill="none" stroke="#1e3432" stroke-width="4.8" stroke-linecap="round" stroke-linejoin="round" opacity="0.94"/>
<path d="M162.5 318.9 L271.5 297.3 L294.5 296.7 L333 303.5 L355.9 304.2" fill="none" stroke="#1e3432" stroke-width="4.8" stroke-linecap="round" stroke-linejoin="round" opacity="0.94"/>
<path d="M101.6 300 L51.5 267.1 L17.2 255.6 L0 254.1 L0 223.6" fill="none" stroke="#1e3432" stroke-width="4.8" stroke-linecap="round" stroke-linejoin="round" opacity="0.94"/>
</svg>
