<svg xmlns="http://www.w3.org/2000/svg" viewBox="0 0 420 320" role="img" aria-label="Unlabeled north-up street-grid crop" data-orientation="north-up">
<metadata>{"orientation":"north-up","projection":"local-web-mercator"}</metadata>
<defs>
<clipPath id="mapCrop"><rect x="8" y="8" width="404" height="304" rx="16"/></clipPath>
</defs>
<rect width="420" height="320" fill="#ede7d8"/>
<rect x="8" y="8" width="404" height="304" rx="16" fill="#f7f1e3" stroke="#d8cbb2" stroke-width="1.25"/>
<g clip-path="url(#mapCrop)">
<g data-layer="major-road-casing">
<path d="M252.6 155.9 L253.2 150.9 L262 142.3 L261.5 138.9 L257.9 135.6 M259.7 132.5 L264.7 136.4 L265.6 141 L254.4 150.8 L253.1 155.9 M224 153.6 L245.1 159.9 M253.9 161.1 L256.1 166.8 L263.4 173.2 M262.8 138.3 L248.3 130.3 M285.2 184.5 L272.9 180.6 L262.9 173.5 M178.5 145 L162.2 158.6 M239.3 158.9 L228.3 155.5 M253.2 161 L252.6 155.9 M223.3 154 L218.2 151 M253.1 155.9 L253.9 161.1 M254.8 166.2 L253.2 161 M258.8 163.5 L251.3 163 L239.3 158.9 M266 136.5 L274.8 141.1 L289.3 142.8 M283.9 143.3 L262.8 138.3 M219.2 150.9 L223.6 153.4 M214.7 148.7 L210.1 145.6 M262.9 173.5 L256.5 168.2 M235.7 119.7 L246.5 125.7 M257.9 135.6 L248.6 130 M263.8 173.5 L277.4 181.9 M190.9 134.1 L180.3 143.5 M209.5 145.1 L203.9 141.4 M211.8 146 L215.6 148.6 M238 123.9 L228.9 118.9 M228.3 155.5 L223.7 154.1 M216 148.8 L219.2 150.9 M218.2 151 L215.6 149.2 M202.5 139.9 L207.9 143.6 M179.6 143 L189.3 134.5 M225.3 114.4 L235.1 119.4 M246.5 125.7 L254.3 129.8 M246.5 125.7 L254.8 129.4 M206.9 170.7 L213.5 165.3 M245.1 159.9 L258.4 163 M219 160.9 L214.4 164.7 M187.2 191.4 L202.1 193.1 M211.6 156 L215.9 158.8 M202.1 193.4 L187.2 191.8 M207.9 143.6 L209.9 144.8 M168.4 152.9 L175.7 146.8 M232.7 192 L255.6 198 L261.5 203.4 M210.6 145.3 L211.8 146 M225.6 164.9 L235.8 165 M234.8 192.7 L223.3 191.3 M203.9 141.4 L202.1 140.2 M208.3 176.6 L216.2 184.1 M210.1 145.6 L209.5 145.1 M209.9 144.8 L210.6 145.3 M206.4 152.6 L209 154.3 M249.7 196.9 L234.8 192.7 M225.1 165.2 L221.4 162.4 M200.9 115.8 L192.8 105.7 L181.8 103.7 M214.3 192.8 L221 190.4 M201.1 139.5 L199.3 138.3 M160.6 159.5 L166.7 154.3 M196.5 156.5 L191.9 153.8 M198.7 137.3 L200.5 138.6 M168.4 182.5 L164.6 177 L165.2 175.2 M202.1 140.2 L201.1 139.5 M240.7 161.8 L241.6 153.2 M198.3 137.7 L196.3 136.4 M201.4 139.2 L202.5 139.9 M203.1 173.4 L206.5 170.9 M262.2 166.6 L243.6 165.8 M187.7 150.5 L192.2 153.6 M203.3 150.4 L205.4 148.5 M219.6 137.9 L214.5 142.1 M208.9 146.4 L206.6 148 M194.8 166.8 L203.1 159.5 M203.4 159.3 L209 154.3 M187.3 150.9 L172.6 163 M218.8 136.4 L214.9 133.1 M244.4 151 L242 154.7 M238 171.5 L240.1 168.4 M227.9 181.6 L231.8 179.3 M168.2 162.4 L183.6 149.7 M184.9 148.7 L187 150.1 M220.4 134.9 L224.2 131.8 M234 177 L231.8 179.3 M193.7 167.8 L202.3 173.1 M259 138.3 L251.9 144.5 M225.3 133.4 L222.6 135.6 M209.4 154 L213.6 150.3 M212.1 130.5 L215.5 132.7 M213.7 150.9 L209.8 154.3 M217.6 185.4 L220.1 184.4 M196.9 143 L188.8 149.6 M282.4 167.6 L266.4 166.8 M184.9 148.7 L193.3 141.8 M236.8 172.9 L228.6 167.7 M251.9 144.5 L248.9 147 M226.4 129.9 L229.3 127.1 M191.2 123.8 L187.7 117.5 M185.2 175.2 L191.7 169.5 M236.7 122.6 L232.7 126.5 M208.4 124.8 L206.2 121.5 M244.5 127.4 L240 124.6 M237.5 121.1 L242.6 123.9 M187.7 117.5 L183.8 110.7 M213.6 150.3 L215.1 148.9 M198.2 179.5 L201.1 175.9 M231.6 165.2 L229.7 167.7 M226.9 166.1 L229.7 167.7 M228.6 167.7 L226.2 166 M215.2 149.5 L214 150.6 M179.3 180.5 L185.2 175.2 M201.1 139.5 L197.5 142.5 M209.8 154.3 L209.4 154.6 M203.1 173.8 L201.1 175.9 M203.1 159.5 L203.4 159.3 M209 154.3 L209.4 154 M193.3 189.3 L196.5 182.8 M154.4 90.1 L165 93.6 L176.8 102.9 M206.6 134.9 L202.4 138.3 M231.3 168.7 L234.5 170.8 M192.2 169 L193.7 167.8 M193.7 167.8 L194.8 166.8 M196.5 182.8 L198.2 179.5 M233.6 135.7 L239.8 139.7 M234 138.3 L228.6 134.7 M201.8 174.8 L202.8 173.7 M214 150.6 L213.7 150.9 M211.5 130.9 L207.4 134.3 M229.7 167.7 L231.3 168.7 M216 148.8 L215.6 149.2 M215.1 148.9 L215.6 148.6 M237.6 172.8 L241.9 174.9 M201.1 175.9 L201.8 174.8 M215.6 149.2 L215.2 149.5 M245.1 127.7 L237.7 134 M202.3 173.1 L203.1 173.4 M238.2 141.1 L234 138.3 M202.8 173.7 L202.3 173.1 M256.3 161.5 L258.7 168.5 L263 172.8 M245.1 159.9 L256.3 161.5 M253.7 152.8 L253.9 161.1 M250.4 162.1 L243.4 160 M243.4 160 L239.3 158.9 M248.9 147 L253.4 152.1 M254.8 166.2 L250.4 162.1 M253.2 161 L252 156 M252 156 L250.8 152 M270.9 138.8 L289.3 142.8 M170.8 89.7 L167.3 92 L169.3 94.5 M336.3 215.4 L340.6 215.7 M151.7 212.5 L151.2 212.4 M149.9 214.7 L150.5 214.9 M157.7 82.6 L159.7 83.2 M145.7 223.1 L146.3 223.3 M144.7 226.4 L144.2 226.2 M143.2 228.3 L143.7 228.5 M142.8 229.1 L143.3 229.2 M142 230.7 L142.5 230.9 M141.5 231.7 L142 231.9 M248.3 130.3 L243.1 126.9 M248.6 130 L243.1 126.9 M256.5 168.2 L254.8 166.2 M243.1 126.9 L238 123.9 M255.4 129.6 L262.3 133.3 M226.3 117.8 L221.3 116.8 M254.7 130 L259.7 132.5 M262.3 133.3 L266 136.5 M228.9 118.9 L226.3 117.8 M302.5 143.2 L283.9 143.3 M277.4 181.9 L290.2 184.4 M143.8 174.2 L154.5 164.2 M183 103.2 L194.7 105.3 L201.2 113.6 M155.9 165.1 L145.6 174.3 M195.8 135.4 L197.9 136.8 M195 135.5 L192.2 133.5 M223.2 189.9 L228.8 191.4 M175.7 146.8 L178.1 144.7 M197 127.8 L201.6 123.7 M200.5 138.6 L201.4 139.2 M168.6 169 L166.2 173.3 M167.6 180.8 L172.1 186.6 M161 159.7 L155.9 165.1 M199.3 138.3 L198.3 137.7 M220.5 190.9 L216.3 192.6 M202.1 193.1 L207.2 193 M192.5 133 L194.5 134.5 M169.3 165.3 L169.1 168 M206.7 193.3 L202.1 193.4 M263.4 173.2 L263.8 173.5 M189.3 134.5 L191.1 132.7 M180.3 143.5 L178.9 144.6 M197.9 136.8 L198.7 137.3 M223.4 113.9 L225.3 114.4 M262.5 163.2 L272.7 161.8 M178.4 144.3 L179.6 143 M293.9 184.8 L309 187.5 L320.3 193.6 M206.2 121.5 L201.9 124.7 M196.3 136.4 L195.4 135.7 M197.1 128.5 L194.9 130.4 M162.3 160.6 L165.4 162.8 M235.1 119.4 L235.7 119.7 M179.6 191.1 L185.2 191.3 M208.9 192.9 L212.1 192.8 M169.1 168 L169.1 166 M193.5 131.4 L192 132.7 M223.3 191.3 L220.5 190.9 M221.3 116.8 L220.8 116.8 M201.6 123.7 L205 120.2 M191.5 132.4 L193.1 131.1 M194.5 134.5 L195.4 135.1 M221 190.4 L223.2 189.9 M193.1 131.1 L194.7 129.7 M194.7 129.7 L196.6 128.2 M174.4 189.4 L179.6 191.1 M212.2 193.1 L209.3 193.2 M254.8 129.4 L255.4 129.6 M166.7 154.3 L168.4 152.9 M254.3 129.8 L254.7 130 M167.3 164.2 L165.4 162.8 M191.7 133.1 L190.9 134.1 M199.4 126.6 L197.5 128.2 M276.8 161.8 L296.6 161.7 M209.3 193.2 L206.7 193.3 M187.2 191.8 L183.2 191.7 M165.4 177.7 L167.6 180.8 M167.4 163.8 L168.8 164.7 M220.8 116.8 L220.6 116.7 M214.4 193 L212.2 193.1 M258.4 163 L262.5 163.2 M216.3 192.6 L214.4 193 M228.8 191.4 L231.4 191.8 M168.5 165 L167.3 164.2 M165.4 162.8 L167 163.6 M165.2 175.2 L165.4 177.7 M172.1 186.6 L174.4 189.4 M210.7 119.1 L206.8 121.1 M170.4 185.2 L168.4 182.5 M207.2 193 L208.9 192.9 M262.4 163.7 L258.8 163.5 M207.5 118.3 L212.3 115.2 M212.6 192.8 L214.3 192.8 M169.1 168 L168.6 169 M194.3 130.8 L193.5 131.4 M183.2 191.7 L179.6 191.6 M166.2 173.3 L165.2 175.2 M168.8 164.7 L169.3 165.3 M158.5 161.3 L160.6 159.5 M258.2 201.9 L255.8 198.7 L249.7 196.9 M169 165.5 L168.5 165 M154.5 164.2 L157.6 162 M272.8 162.1 L266.5 163.3 M194.9 130.4 L194.3 130.8 M266.5 163.3 L262.4 163.7 M185.2 191.3 L187.2 191.4 M295.1 142.7 L306.6 142.6 M173.4 189.1 L171.6 186.9 M162.2 158.6 L161 159.7 M175.7 190.9 L173.4 189.1 M200.3 125.9 L199.4 126.6 M205 120.2 L202.8 118 M131.8 185.9 L142.4 177.1 M161 159.7 L162.3 160.6 M289.3 142.8 L295.1 142.7 M171.6 186.9 L170.4 185.2 M220.6 116.7 L216.2 117.1 M304.6 186.8 L293.5 185.4 M201.1 125.2 L200.3 125.9 M231.4 191.8 L232.7 192 M289.9 185 L285.2 184.5 M201.9 124.7 L201.1 125.2 M205.6 119.8 L207.5 118.3 M206.2 121.5 L205 120.2 M179.6 191.6 L177.6 191.5 M213 114.9 L217.6 113.7 M205.6 119.8 L206.8 121.1 M177.6 191.5 L175.7 190.9 M315.1 143.9 L302.5 143.2 M202.6 117.8 L200.9 115.8 M157.6 162 L158.5 161.3 M322.8 196 L306.1 187.1 M204.5 118.7 L205.6 119.8 M291.8 210.5 L287.5 211 L268.1 205.8 M203.6 117.4 L204.5 118.7 M215.4 117.3 L213.7 117.9 M206.8 121.1 L206.2 121.5 M217.6 113.7 L221.1 113.6 M212.7 118.2 L211.5 118.7 M205 120.2 L205.6 119.8 M201.2 113.6 L202.3 115.4 M306.6 142.6 L318.7 143.4 M202.3 115.4 L203.1 116.7 M211.5 118.7 L210.7 119.1 M268.1 205.8 L258.9 203 M213.7 117.9 L212.7 118.2 M272.7 161.8 L275.5 161.8 M221.1 113.6 L223.4 113.9 M275.5 161.8 L272.8 162.1 M181.8 103.7 L172.1 97.5 M203.1 116.7 L203.6 117.4 M292 185.2 L289.9 185 M290.2 184.4 L292.2 184.6 M174.3 98.4 L182.1 103 M292.2 184.6 L293.9 184.8 M144.4 175.5 L142.4 177.1 M267.3 204.5 L288.2 210.2 L303.5 208 L315.4 211.4 L322.8 216.5 L332.4 215.9 M293.5 185.4 L292 185.2 M145.6 174.3 L144.4 175.5 M296.6 161.7 L309.5 162.3 M261.5 203.4 L267.3 204.5 M275.5 161.8 L276.8 161.8 M142.9 176.4 L143.6 175.1 M123.8 192.4 L130.4 187 M143.6 175.1 L143.8 174.2 M176.6 103.1 L164.7 93.7 L158 91.6 M319.8 215.6 L314.5 211.8 L302.9 208.5 L291.8 210.5 M142.4 177.1 L142.9 176.4 M321.3 143.9 L315.1 143.9 M258.9 203 L258.2 201.9 M229.7 165.4 L230.6 166 M242.9 144.3 L238.8 141.6 M198.7 137.3 L201.1 135.3 M259.5 181.7 L249.7 178.2 M209.9 127.9 L216.3 125.3 M194 141.2 L195.7 139.8 M235.1 171.2 L237.1 172.5 M247.6 147.2 L243.4 144.5 M218.2 125.5 L213.9 129.3 M227.3 131.6 L231.4 134.3 M191.7 169.5 L192.2 169 M235.5 135 L240.2 131.1 M321.9 143.4 L330.1 142.4 M239.8 174.4 L237.3 173.1 M188.4 149.9 L187.7 150.5 M229.4 165.1 L229.7 165.4 M306.1 187.1 L304.6 186.8 M228.6 134.7 L225.3 133.4 M329.4 143.1 L322 143.9 M196.6 103.6 L191.7 101 L180.7 102 L174.2 95.5 M245.4 176.7 L241.6 175.3 M174.9 95.4 L180.9 101.7 L191.7 100.6 L197 102.9 M196.3 139.3 L197.6 138.2 M197.5 142.5 L196.9 143 M201.1 135.3 L202.9 133.8 M335.8 142.3 L357 141.5 M202.4 138.3 L201.4 139.2 M203.8 133 L206.1 131.1 M231.7 164.8 L231.6 165.2 M223.4 121.8 L229.4 125.8 M191.8 194.1 L190.6 200.7 M145.3 187.6 L160.1 195.4 M183.6 149.7 L184.5 149 M176.2 183.4 L179.3 180.5 M185.8 128.6 L190 131.4 M245.6 176.3 L250.2 177.9 M172 163.5 L168.8 164.7 M166.9 166.4 L163.4 169.4 M188.8 149.6 L188.4 149.9 M187.7 150.5 L187.3 150.9 M153.8 178.2 L145.3 187.6 M193.3 141.8 L194 141.2 M189.3 131.4 L185.4 128.9 M241.8 141.3 L244 143.3 M172.1 97.5 L168.8 94.9 M182.1 103 L183 103.2 M229.3 127 L225.2 123.7 M320.3 193.6 L326.6 197.7 M242.9 175.3 L245.6 176.3 M234.5 170.8 L235.1 171.2 M245.8 144.6 L248.3 146.5 M249 178 L245.4 176.7 M130.4 187 L131.8 185.9 M231.4 134.3 L233.6 135.7 M172 96.6 L174.3 98.4 M195.7 139.8 L196.3 139.3 M197.6 138.2 L198.3 137.7 M240.2 131.1 L244.5 127.4 M236.7 134.7 L234.2 136 M233.9 136.2 L231.8 136.9 M207.4 130 L209.3 128.4 M323.1 163.6 L363.6 168.8 M159 173.2 L153.8 178.2 M201.4 139.2 L201.1 139.5 M184.5 149 L184.9 148.7 M286.3 167.8 L282.4 167.6 M207.4 134.3 L206.6 134.9 M232 136.7 L233.6 135.7 M213.9 129.3 L212.1 130.5 M169.3 94.5 L172 96.6 M185.4 128.9 L181.5 126.2 M309.5 162.3 L316.7 163 M206.1 131.1 L207.4 130 M318.7 143.4 L321 143.4 M202.9 133.8 L203.8 133 M191.1 132.7 L189.3 131.4 M198.3 137.7 L198.7 137.3 M240.8 174.9 L239.8 174.4 M237.1 172.5 L237.6 172.8 M237.3 173.1 L236.8 172.9 M107 84.1 L134.1 86.3 M233.6 135.7 L235.5 135 M145.3 187.6 L137.8 196.8 L132.5 199 L131 201.6 M240.6 140.3 L241.8 141.3 M244.4 143.5 L245.8 144.6 M190 131.4 L191.5 132.4 M166.3 92.1 L169.3 94.5 M241.6 175.3 L240.8 174.9 M241.9 174.9 L242.9 175.3 M167 163.6 L168.2 162.4 M335.4 142.8 L329.4 143.1 M168.8 94.9 L166 93.2 M238.8 141.6 L238.2 141.1 M253.7 179.1 L257.6 180.5 M219.4 119.9 L215.4 117.3 M174.3 184.8 L176.2 183.4 M172.6 163 L172 163.5 M225.2 123.7 L222.4 121.9 M164.4 92.2 L160.2 89.4 M251 178.2 L253.7 179.1 M334.4 202.1 L326.6 198.5 M212.1 130.5 L211.5 130.9 M160.1 195.4 L168.1 199.6 M181.1 125.9 L178.1 122.8 M172.1 186.6 L174.3 184.8 M293.1 168.3 L298.6 169.3 M192.4 191.6 L192.9 190.3 M162.5 170.2 L160.4 172 M170.6 208.1 L170.4 221.3 M137.3 86.1 L150 86 M219.3 119.2 L222.4 121.2 M119.7 99.3 L143.3 100.8 L165.3 107.7 M167.8 165.6 L166.9 166.4 M239.8 139.7 L240.4 140.1 M192.9 190.3 L193.3 189.3 M221.1 123 L219.4 124.5 M149.8 86.5 L137.9 86.8 M237.7 134 L236.7 134.7 M248.2 147.7 L247.6 147.2 M168.5 165 L167.8 165.6 M192.1 192.6 L191.8 194.1 M243.4 144.5 L242.9 144.3 M170.2 200.4 L170.6 208.1 M328.3 198.8 L336.2 202.1 M217.5 125 L219.1 124 M221.9 121.6 L219.4 119.9 M248.3 146.5 L248.9 147 M184.1 127.4 L185.8 128.6 M181.9 125.9 L184.1 127.4 M120.2 193.8 L122.8 193 M285.4 181.5 L286.1 171 M216.2 117.1 L219.3 119.2 M176.8 120.9 L179.5 124.1 M231.8 136.9 L232 136.7 M219.4 124.5 L218.2 125.5 M209.3 128.4 L209.9 127.9 M167.3 164.2 L167 163.6 M145 88 L99.1 91 M220.3 123 L221.9 121.6 M244 143.3 L244.4 143.5 M321 143.4 L321.9 143.4 M356.8 211.8 L339 203.6 M179.5 124.1 L181.9 125.9 M192.1 192.6 L192.4 191.6 M213 114.9 L216.2 117.1 M215.4 117.3 L212.3 115.2 M173.7 116.6 L176.8 120.9 M234.2 136 L233.9 136.2 M260.5 181.5 L264.7 183.1 M322 143.9 L321.3 143.9 M216.3 125.3 L217.5 125 M170 194.8 L170.2 199 M190.6 206.7 L190 212.6 M330.1 142.4 L333.5 142.3 M164.1 90.7 L166.3 92.1 M168.8 164.7 L168.5 165 M169.9 191.6 L170 194.8 M114.8 198.7 L118 196.6 M222.4 121.9 L221.1 123 M274.4 188.2 L267.5 185.1 M325.2 197.6 L322.8 196 M219.1 124 L220.1 123.2 M163.4 169.4 L162.5 170.2 M190.5 201.3 L190.3 204.5 M240.4 140.1 L240.6 140.3 M353.2 142.1 L342.8 142.7 M249.7 178.2 L249 178 M103.3 204.9 L110.8 201.3 M122.8 193 L123.8 192.4 M166 93.2 L164.4 92.2 M145.3 187.6 L136.9 183.2 M263.7 183.1 L260.3 181.9 M171.6 186.9 L170.2 188.1 M285.7 186.5 L289.9 186.1 L291.4 184.1 L285.4 182.2 M250.2 177.9 L251 178.2 M118 196.6 L119.3 194.9 M167.2 108.7 L172.3 114.7 M257.6 180.5 L259.8 181.3 M244.5 127.4 L246.5 126.2 M267.5 185.1 L263.7 183.1 M246.5 126.2 L245.1 127.7 M169.7 189.7 L169.9 191.6 M89.5 221.9 L94.4 217.1 L94.9 212.6 L100.7 211 M170.2 188.1 L169.7 189.7 M229.4 125.8 L230.3 126 M119.3 194.9 L120.2 193.8 M342.8 142.7 L337.7 142.8 M212.3 115.2 L210.9 113.1 M178.1 122.8 L176.8 120.9 M154.5 205.6 L158 199.3 M111.8 200.7 L114.8 198.7 M208.3 105.1 L210.1 109.3 M160.4 172 L159.7 172.6 M162.5 89.7 L164.1 90.7 M211.7 112.9 L213 114.9 M159.7 172.6 L159 173.2 M160.6 88.7 L162.5 89.7 M333.5 142.3 L335.8 142.3 M136.3 86.9 L126 87.2 M158 199.3 L160.1 195.4 M250.8 152 L249.5 149.2 M316.7 163 L319.4 163.2 M171.6 186.9 L172.1 186.6 M156.8 88 L155.6 86.2 M210.3 111.5 L209.2 108.9 M222.8 121.5 L222.4 121.9" fill="none" stroke="#fcf7e8" stroke-width="6.4" opacity="0.92" stroke-linecap="round" stroke-linejoin="round"/>
</g>
<g data-layer="major-road">
<path d="M252.6 155.9 L253.2 150.9 L262 142.3 L261.5 138.9 L257.9 135.6 M259.7 132.5 L264.7 136.4 L265.6 141 L254.4 150.8 L253.1 155.9 M224 153.6 L245.1 159.9 M253.9 161.1 L256.1 166.8 L263.4 173.2 M262.8 138.3 L248.3 130.3 M285.2 184.5 L272.9 180.6 L262.9 173.5 M178.5 145 L162.2 158.6 M239.3 158.9 L228.3 155.5 M253.2 161 L252.6 155.9 M223.3 154 L218.2 151 M253.1 155.9 L253.9 161.1 M254.8 166.2 L253.2 161 M258.8 163.5 L251.3 163 L239.3 158.9 M266 136.5 L274.8 141.1 L289.3 142.8 M283.9 143.3 L262.8 138.3 M219.2 150.9 L223.6 153.4 M214.7 148.7 L210.1 145.6 M262.9 173.5 L256.5 168.2 M235.7 119.7 L246.5 125.7 M257.9 135.6 L248.6 130 M263.8 173.5 L277.4 181.9 M190.9 134.1 L180.3 143.5 M209.5 145.1 L203.9 141.4 M211.8 146 L215.6 148.6 M238 123.9 L228.9 118.9 M228.3 155.5 L223.7 154.1 M216 148.8 L219.2 150.9 M218.2 151 L215.6 149.2 M202.5 139.9 L207.9 143.6 M179.6 143 L189.3 134.5 M225.3 114.4 L235.1 119.4 M246.5 125.7 L254.3 129.8 M246.5 125.7 L254.8 129.4 M206.9 170.7 L213.5 165.3 M245.1 159.9 L258.4 163 M219 160.9 L214.4 164.7 M187.2 191.4 L202.1 193.1 M211.6 156 L215.9 158.8 M202.1 193.4 L187.2 191.8 M207.9 143.6 L209.9 144.8 M168.4 152.9 L175.7 146.8 M232.7 192 L255.6 198 L261.5 203.4 M210.6 145.3 L211.8 146 M225.6 164.9 L235.8 165 M234.8 192.7 L223.3 191.3 M203.9 141.4 L202.1 140.2 M208.3 176.6 L216.2 184.1 M210.1 145.6 L209.5 145.1 M209.9 144.8 L210.6 145.3 M206.4 152.6 L209 154.3 M249.7 196.9 L234.8 192.7 M225.1 165.2 L221.4 162.4 M200.9 115.8 L192.8 105.7 L181.8 103.7 M214.3 192.8 L221 190.4 M201.1 139.5 L199.3 138.3 M160.6 159.5 L166.7 154.3 M196.5 156.5 L191.9 153.8 M198.7 137.3 L200.5 138.6 M168.4 182.5 L164.6 177 L165.2 175.2 M202.1 140.2 L201.1 139.5 M240.7 161.8 L241.6 153.2 M198.3 137.7 L196.3 136.4 M201.4 139.2 L202.5 139.9 M203.1 173.4 L206.5 170.9 M262.2 166.6 L243.6 165.8 M187.7 150.5 L192.2 153.6 M203.3 150.4 L205.4 148.5 M219.6 137.9 L214.5 142.1 M208.9 146.4 L206.6 148 M194.8 166.8 L203.1 159.5 M203.4 159.3 L209 154.3 M187.3 150.9 L172.6 163 M218.8 136.4 L214.9 133.1 M244.4 151 L242 154.7 M238 171.5 L240.1 168.4 M227.9 181.6 L231.8 179.3 M168.2 162.4 L183.6 149.7 M184.9 148.7 L187 150.1 M220.4 134.9 L224.2 131.8 M234 177 L231.8 179.3 M193.7 167.8 L202.3 173.1 M259 138.3 L251.9 144.5 M225.3 133.4 L222.6 135.6 M209.4 154 L213.6 150.3 M212.1 130.5 L215.5 132.7 M213.7 150.9 L209.8 154.3 M217.6 185.4 L220.1 184.4 M196.9 143 L188.8 149.6 M282.4 167.6 L266.4 166.8 M184.9 148.7 L193.3 141.8 M236.8 172.9 L228.6 167.7 M251.9 144.5 L248.9 147 M226.4 129.9 L229.3 127.1 M191.2 123.8 L187.7 117.5 M185.2 175.2 L191.7 169.5 M236.7 122.6 L232.7 126.5 M208.4 124.8 L206.2 121.5 M244.5 127.4 L240 124.6 M237.5 121.1 L242.6 123.9 M187.7 117.5 L183.8 110.7 M213.6 150.3 L215.1 148.9 M198.2 179.5 L201.1 175.9 M231.6 165.2 L229.7 167.7 M226.9 166.1 L229.7 167.7 M228.6 167.7 L226.2 166 M215.2 149.5 L214 150.6 M179.3 180.5 L185.2 175.2 M201.1 139.5 L197.5 142.5 M209.8 154.3 L209.4 154.6 M203.1 173.8 L201.1 175.9 M203.1 159.5 L203.4 159.3 M209 154.3 L209.4 154 M193.3 189.3 L196.5 182.8 M154.4 90.1 L165 93.6 L176.8 102.9 M206.6 134.9 L202.4 138.3 M231.3 168.7 L234.5 170.8 M192.2 169 L193.7 167.8 M193.7 167.8 L194.8 166.8 M196.5 182.8 L198.2 179.5 M233.6 135.7 L239.8 139.7 M234 138.3 L228.6 134.7 M201.8 174.8 L202.8 173.7 M214 150.6 L213.7 150.9 M211.5 130.9 L207.4 134.3 M229.7 167.7 L231.3 168.7 M216 148.8 L215.6 149.2 M215.1 148.9 L215.6 148.6 M237.6 172.8 L241.9 174.9 M201.1 175.9 L201.8 174.8 M215.6 149.2 L215.2 149.5 M245.1 127.7 L237.7 134 M202.3 173.1 L203.1 173.4 M238.2 141.1 L234 138.3 M202.8 173.7 L202.3 173.1 M256.3 161.5 L258.7 168.5 L263 172.8 M245.1 159.9 L256.3 161.5 M253.7 152.8 L253.9 161.1 M250.4 162.1 L243.4 160 M243.4 160 L239.3 158.9 M248.9 147 L253.4 152.1 M254.8 166.2 L250.4 162.1 M253.2 161 L252 156 M252 156 L250.8 152 M270.9 138.8 L289.3 142.8 M170.8 89.7 L167.3 92 L169.3 94.5 M336.3 215.4 L340.6 215.7 M151.7 212.5 L151.2 212.4 M149.9 214.7 L150.5 214.9 M157.7 82.6 L159.7 83.2 M145.7 223.1 L146.3 223.3 M144.7 226.4 L144.2 226.2 M143.2 228.3 L143.7 228.5 M142.8 229.1 L143.3 229.2 M142 230.7 L142.5 230.9 M141.5 231.7 L142 231.9 M248.3 130.3 L243.1 126.9 M248.6 130 L243.1 126.9 M256.5 168.2 L254.8 166.2 M243.1 126.9 L238 123.9 M255.4 129.6 L262.3 133.3 M226.3 117.8 L221.3 116.8 M254.7 130 L259.7 132.5 M262.3 133.3 L266 136.5 M228.9 118.9 L226.3 117.8 M302.5 143.2 L283.9 143.3 M277.4 181.9 L290.2 184.4 M143.8 174.2 L154.5 164.2 M183 103.2 L194.7 105.3 L201.2 113.6 M155.9 165.1 L145.6 174.3 M195.8 135.4 L197.9 136.8 M195 135.5 L192.2 133.5 M223.2 189.9 L228.8 191.4 M175.7 146.8 L178.1 144.7 M197 127.8 L201.6 123.7 M200.5 138.6 L201.4 139.2 M168.6 169 L166.2 173.3 M167.6 180.8 L172.1 186.6 M161 159.7 L155.9 165.1 M199.3 138.3 L198.3 137.7 M220.5 190.9 L216.3 192.6 M202.1 193.1 L207.2 193 M192.5 133 L194.5 134.5 M169.3 165.3 L169.1 168 M206.7 193.3 L202.1 193.4 M263.4 173.2 L263.8 173.5 M189.3 134.5 L191.1 132.7 M180.3 143.5 L178.9 144.6 M197.9 136.8 L198.7 137.3 M223.4 113.9 L225.3 114.4 M262.5 163.2 L272.7 161.8 M178.4 144.3 L179.6 143 M293.9 184.8 L309 187.5 L320.3 193.6 M206.2 121.5 L201.9 124.7 M196.3 136.4 L195.4 135.7 M197.1 128.5 L194.9 130.4 M162.3 160.6 L165.4 162.8 M235.1 119.4 L235.7 119.7 M179.6 191.1 L185.2 191.3 M208.9 192.9 L212.1 192.8 M169.1 168 L169.1 166 M193.5 131.4 L192 132.7 M223.3 191.3 L220.5 190.9 M221.3 116.8 L220.8 116.8 M201.6 123.7 L205 120.2 M191.5 132.4 L193.1 131.1 M194.5 134.5 L195.4 135.1 M221 190.4 L223.2 189.9 M193.1 131.1 L194.7 129.7 M194.7 129.7 L196.6 128.2 M174.4 189.4 L179.6 191.1 M212.2 193.1 L209.3 193.2 M254.8 129.4 L255.4 129.6 M166.7 154.3 L168.4 152.9 M254.3 129.8 L254.7 130 M167.3 164.2 L165.4 162.8 M191.7 133.1 L190.9 134.1 M199.4 126.6 L197.5 128.2 M276.8 161.8 L296.6 161.7 M209.3 193.2 L206.7 193.3 M187.2 191.8 L183.2 191.7 M165.4 177.7 L167.6 180.8 M167.4 163.8 L168.8 164.7 M220.8 116.8 L220.6 116.7 M214.4 193 L212.2 193.1 M258.4 163 L262.5 163.2 M216.3 192.6 L214.4 193 M228.8 191.4 L231.4 191.8 M168.5 165 L167.3 164.2 M165.4 162.8 L167 163.6 M165.2 175.2 L165.4 177.7 M172.1 186.6 L174.4 189.4 M210.7 119.1 L206.8 121.1 M170.4 185.2 L168.4 182.5 M207.2 193 L208.9 192.9 M262.4 163.7 L258.8 163.5 M207.5 118.3 L212.3 115.2 M212.6 192.8 L214.3 192.8 M169.1 168 L168.6 169 M194.3 130.8 L193.5 131.4 M183.2 191.7 L179.6 191.6 M166.2 173.3 L165.2 175.2 M168.8 164.7 L169.3 165.3 M158.5 161.3 L160.6 159.5 M258.2 201.9 L255.8 198.7 L249.7 196.9 M169 165.5 L168.5 165 M154.5 164.2 L157.6 162 M272.8 162.1 L266.5 163.3 M194.9 130.4 L194.3 130.8 M266.5 163.3 L262.4 163.7 M185.2 191.3 L187.2 191.4 M295.1 142.7 L306.6 142.6 M173.4 189.1 L171.6 186.9 M162.2 158.6 L161 159.7 M175.7 190.9 L173.4 189.1 M200.3 125.9 L199.4 126.6 M205 120.2 L202.8 118 M131.8 185.9 L142.4 177.1 M161 159.7 L162.3 160.6 M289.3 142.8 L295.1 142.7 M171.6 186.9 L170.4 185.2 M220.6 116.7 L216.2 117.1 M304.6 186.8 L293.5 185.4 M201.1 125.2 L200.3 125.9 M231.4 191.8 L232.7 192 M289.9 185 L285.2 184.5 M201.9 124.7 L201.1 125.2 M205.6 119.8 L207.5 118.3 M206.2 121.5 L205 120.2 M179.6 191.6 L177.6 191.5 M213 114.9 L217.6 113.7 M205.6 119.8 L206.8 121.1 M177.6 191.5 L175.7 190.9 M315.1 143.9 L302.5 143.2 M202.6 117.8 L200.9 115.8 M157.6 162 L158.5 161.3 M322.8 196 L306.1 187.1 M204.5 118.7 L205.6 119.8 M291.8 210.5 L287.5 211 L268.1 205.8 M203.6 117.4 L204.5 118.7 M215.4 117.3 L213.7 117.9 M206.8 121.1 L206.2 121.5 M217.6 113.7 L221.1 113.6 M212.7 118.2 L211.5 118.7 M205 120.2 L205.6 119.8 M201.2 113.6 L202.3 115.4 M306.6 142.6 L318.7 143.4 M202.3 115.4 L203.1 116.7 M211.5 118.7 L210.7 119.1 M268.1 205.8 L258.9 203 M213.7 117.9 L212.7 118.2 M272.7 161.8 L275.5 161.8 M221.1 113.6 L223.4 113.9 M275.5 161.8 L272.8 162.1 M181.8 103.7 L172.1 97.5 M203.1 116.7 L203.6 117.4 M292 185.2 L289.9 185 M290.2 184.4 L292.2 184.6 M174.3 98.4 L182.1 103 M292.2 184.6 L293.9 184.8 M144.4 175.5 L142.4 177.1 M267.3 204.5 L288.2 210.2 L303.5 208 L315.4 211.4 L322.8 216.5 L332.4 215.9 M293.5 185.4 L292 185.2 M145.6 174.3 L144.4 175.5 M296.6 161.7 L309.5 162.3 M261.5 203.4 L267.3 204.5 M275.5 161.8 L276.8 161.8 M142.9 176.4 L143.6 175.1 M123.8 192.4 L130.4 187 M143.6 175.1 L143.8 174.2 M176.6 103.1 L164.7 93.7 L158 91.6 M319.8 215.6 L314.5 211.8 L302.9 208.5 L291.8 210.5 M142.4 177.1 L142.9 176.4 M321.3 143.9 L315.1 143.9 M258.9 203 L258.2 201.9 M229.7 165.4 L230.6 166 M242.9 144.3 L238.8 141.6 M198.7 137.3 L201.1 135.3 M259.5 181.7 L249.7 178.2 M209.9 127.9 L216.3 125.3 M194 141.2 L195.7 139.8 M235.1 171.2 L237.1 172.5 M247.6 147.2 L243.4 144.5 M218.2 125.5 L213.9 129.3 M227.3 131.6 L231.4 134.3 M191.7 169.5 L192.2 169 M235.5 135 L240.2 131.1 M321.9 143.4 L330.1 142.4 M239.8 174.4 L237.3 173.1 M188.4 149.9 L187.7 150.5 M229.4 165.1 L229.7 165.4 M306.1 187.1 L304.6 186.8 M228.6 134.7 L225.3 133.4 M329.4 143.1 L322 143.9 M196.6 103.6 L191.7 101 L180.7 102 L174.2 95.5 M245.4 176.7 L241.6 175.3 M174.9 95.4 L180.9 101.7 L191.7 100.6 L197 102.9 M196.3 139.3 L197.6 138.2 M197.5 142.5 L196.9 143 M201.1 135.3 L202.9 133.8 M335.8 142.3 L357 141.5 M202.4 138.3 L201.4 139.2 M203.8 133 L206.1 131.1 M231.7 164.8 L231.6 165.2 M223.4 121.8 L229.4 125.8 M191.8 194.1 L190.6 200.7 M145.3 187.6 L160.1 195.4 M183.6 149.7 L184.5 149 M176.2 183.4 L179.3 180.5 M185.8 128.6 L190 131.4 M245.6 176.3 L250.2 177.9 M172 163.5 L168.8 164.7 M166.9 166.4 L163.4 169.4 M188.8 149.6 L188.4 149.9 M187.7 150.5 L187.3 150.9 M153.8 178.2 L145.3 187.6 M193.3 141.8 L194 141.2 M189.3 131.4 L185.4 128.9 M241.8 141.3 L244 143.3 M172.1 97.5 L168.8 94.9 M182.1 103 L183 103.2 M229.3 127 L225.2 123.7 M320.3 193.6 L326.6 197.7 M242.9 175.3 L245.6 176.3 M234.5 170.8 L235.1 171.2 M245.8 144.6 L248.3 146.5 M249 178 L245.4 176.7 M130.4 187 L131.8 185.9 M231.4 134.3 L233.6 135.7 M172 96.6 L174.3 98.4 M195.7 139.8 L196.3 139.3 M197.6 138.2 L198.3 137.7 M240.2 131.1 L244.5 127.4 M236.7 134.7 L234.2 136 M233.9 136.2 L231.8 136.9 M207.4 130 L209.3 128.4 M323.1 163.6 L363.6 168.8 M159 173.2 L153.8 178.2 M201.4 139.2 L201.1 139.5 M184.5 149 L184.9 148.7 M286.3 167.8 L282.4 167.6 M207.4 134.3 L206.6 134.9 M232 136.7 L233.6 135.7 M213.9 129.3 L212.1 130.5 M169.3 94.5 L172 96.6 M185.4 128.9 L181.5 126.2 M309.5 162.3 L316.7 163 M206.1 131.1 L207.4 130 M318.7 143.4 L321 143.4 M202.9 133.8 L203.8 133 M191.1 132.7 L189.3 131.4 M198.3 137.7 L198.7 137.3 M240.8 174.9 L239.8 174.4 M237.1 172.5 L237.6 172.8 M237.3 173.1 L236.8 172.9 M107 84.1 L134.1 86.3 M233.6 135.7 L235.5 135 M145.3 187.6 L137.8 196.8 L132.5 199 L131 201.6 M240.6 140.3 L241.8 141.3 M244.4 143.5 L245.8 144.6 M190 131.4 L191.5 132.4 M166.3 92.1 L169.3 94.5 M241.6 175.3 L240.8 174.9 M241.9 174.9 L242.9 175.3 M167 163.6 L168.2 162.4 M335.4 142.8 L329.4 143.1 M168.8 94.9 L166 93.2 M238.8 141.6 L238.2 141.1 M253.7 179.1 L257.6 180.5 M219.4 119.9 L215.4 117.3 M174.3 184.8 L176.2 183.4 M172.6 163 L172 163.5 M225.2 123.7 L222.4 121.9 M164.4 92.2 L160.2 89.4 M251 178.2 L253.7 179.1 M334.4 202.1 L326.6 198.5 M212.1 130.5 L211.5 130.9 M160.1 195.4 L168.1 199.6 M181.1 125.9 L178.1 122.8 M172.1 186.6 L174.3 184.8 M293.1 168.3 L298.6 169.3 M192.4 191.6 L192.9 190.3 M162.5 170.2 L160.4 172 M170.6 208.1 L170.4 221.3 M137.3 86.1 L150 86 M219.3 119.2 L222.4 121.2 M119.7 99.3 L143.3 100.8 L165.3 107.7 M167.8 165.6 L166.9 166.4 M239.8 139.7 L240.4 140.1 M192.9 190.3 L193.3 189.3 M221.1 123 L219.4 124.5 M149.8 86.5 L137.9 86.8 M237.7 134 L236.7 134.7 M248.2 147.7 L247.6 147.2 M168.5 165 L167.8 165.6 M192.1 192.6 L191.8 194.1 M243.4 144.5 L242.9 144.3 M170.2 200.4 L170.6 208.1 M328.3 198.8 L336.2 202.1 M217.5 125 L219.1 124 M221.9 121.6 L219.4 119.9 M248.3 146.5 L248.9 147 M184.1 127.4 L185.8 128.6 M181.9 125.9 L184.1 127.4 M120.2 193.8 L122.8 193 M285.4 181.5 L286.1 171 M216.2 117.1 L219.3 119.2 M176.8 120.9 L179.5 124.1 M231.8 136.9 L232 136.7 M219.4 124.5 L218.2 125.5 M209.3 128.4 L209.9 127.9 M167.3 164.2 L167 163.6 M145 88 L99.1 91 M220.3 123 L221.9 121.6 M244 143.3 L244.4 143.5 M321 143.4 L321.9 143.4 M356.8 211.8 L339 203.6 M179.5 124.1 L181.9 125.9 M192.1 192.6 L192.4 191.6 M213 114.9 L216.2 117.1 M215.4 117.3 L212.3 115.2 M173.7 116.6 L176.8 120.9 M234.2 136 L233.9 136.2 M260.5 181.5 L264.7 183.1 M322 143.9 L321.3 143.9 M216.3 125.3 L217.5 125 M170 194.8 L170.2 199 M190.6 206.7 L190 212.6 M330.1 142.4 L333.5 142.3 M164.1 90.7 L166.3 92.1 M168.8 164.7 L168.5 165 M169.9 191.6 L170 194.8 M114.8 198.7 L118 196.6 M222.4 121.9 L221.1 123 M274.4 188.2 L267.5 185.1 M325.2 197.6 L322.8 196 M219.1 124 L220.1 123.2 M163.4 169.4 L162.5 170.2 M190.5 201.3 L190.3 204.5 M240.4 140.1 L240.6 140.3 M353.2 142.1 L342.8 142.7 M249.7 178.2 L249 178 M103.3 204.9 L110.8 201.3 M122.8 193 L123.8 192.4 M166 93.2 L164.4 92.2 M145.3 187.6 L136.9 183.2 M263.7 183.1 L260.3 181.9 M171.6 186.9 L170.2 188.1 M285.7 186.5 L289.9 186.1 L291.4 184.1 L285.4 182.2 M250.2 177.9 L251 178.2 M118 196.6 L119.3 194.9 M167.2 108.7 L172.3 114.7 M257.6 180.5 L259.8 181.3 M244.5 127.4 L246.5 126.2 M267.5 185.1 L263.7 183.1 M246.5 126.2 L245.1 127.7 M169.7 189.7 L169.9 191.6 M89.5 221.9 L94.4 217.1 L94.9 212.6 L100.7 211 M170.2 188.1 L169.7 189.7 M229.4 125.8 L230.3 126 M119.3 194.9 L120.2 193.8 M342.8 142.7 L337.7 142.8 M212.3 115.2 L210.9 113.1 M178.1 122.8 L176.8 120.9 M154.5 205.6 L158 199.3 M111.8 200.7 L114.8 198.7 M208.3 105.1 L210.1 109.3 M160.4 172 L159.7 172.6 M162.5 89.7 L164.1 90.7 M211.7 112.9 L213 114.9 M159.7 172.6 L159 173.2 M160.6 88.7 L162.5 89.7 M333.5 142.3 L335.8 142.3 M136.3 86.9 L126 87.2 M158 199.3 L160.1 195.4 M250.8 152 L249.5 149.2 M316.7 163 L319.4 163.2 M171.6 186.9 L172.1 186.6 M156.8 88 L155.6 86.2 M210.3 111.5 L209.2 108.9 M222.8 121.5 L222.4 121.9" fill="none" stroke="#1f3733" stroke-width="2.7" opacity="0.9" stroke-linecap="round" stroke-linejoin="round"/>
</g>
<g data-layer="minor-road-casing">
<path d="M110.4 67.1 L133.1 61.1 L156.9 58.9 M104.6 103.7 L121.1 100.9 L145.7 102.8 M15.4 180 L21 177.2 L27.7 170.2 L47.5 167 M41 162.2 L61.2 137.4 M19.5 181 L25.6 179.7 L24.7 177 L29.5 173.7 L47.5 167 M131.1 214.4 L129.8 213.8 L131.3 221.3 L133.1 223.9 L139.5 219.2 L148 219.9 M116.5 216.9 L119.7 222.4 L133.2 226.7 L143.7 227.3 M107.9 110.3 L118.7 105.3 L139.2 105.5 M17.8 244.3 L22 243.5 L39.7 255.3 L44.4 256.2 M41.4 227.5 L44.4 230.1 L25.4 232.1 L18 229.2 M392.8 186.6 L403.9 209.3 M43.3 260.8 L43.7 266.7 L40.6 279.8 L44 282.7 M114.2 165.1 L111.5 168.4 L113.4 169.7 L116.5 166.6 L115.8 161.8 L126.6 163.5 M106.2 106.9 L118.1 102.8 L135.3 103.8 M171.8 169.7 L192.2 153.6 M96.8 212.6 L101.5 217.7 L100.7 221.2 L116.5 216.9 M130.1 153.6 L137.4 160.7 L151.2 169.5 M356.3 212 L340.5 204.5 L332.6 202.2 L331.3 203.5 M292.6 201.4 L321.1 204.3 M102.9 187.3 L102.5 192.1 L109.6 196.6 L120.2 193.8 M41.2 149 L65.7 159.8 M46.5 142.2 L71 153 M162.8 127.1 L160.4 129.1 L159.4 138.5 L166.9 137.2 L169.6 138.8 M58.5 163.3 L72.4 145.3 M17.9 241.7 L17.5 244.1 L35.8 255.6 M28.1 182.3 L28.9 177.3 L45.9 170.2 M139.2 105.5 L158.7 109.2 L165.3 107.7 M47.4 165.6 L60.7 148.5 M234.3 191.8 L258 199.5 M150.9 159.6 L167.9 144.7 M53.3 164 L66.3 147.2 M145.6 215 L170.5 218.3 M27.4 257.3 L25.4 266.5 L18.4 271.8 L15.7 271.4 M345.2 204.3 L357.7 187.9 M399.1 189.7 L386.1 205.9 M120.3 224.4 L127.4 229 L143.1 229.6 M60.1 167.1 L72.7 150.9 M155.4 140.5 L153.6 136.2 L157.1 132.8 L158.8 126.9 L162.8 127.1 M42.5 291.3 L39.1 295.6 L38.8 299.2 L46.8 292.7 M155.2 197.8 L168.4 182.5 M261.9 169.9 L286.1 171 M152.2 211.2 L175.6 213.6 M230.6 183.4 L252.5 189.7 M313.6 179.1 L312.1 187.6 L321.2 193.1 M155.1 163.4 L170.6 150.4 M86.2 125 L92.4 116.1 L99.2 111.1 M187.3 107 L196.1 122.6 M210.4 219.1 L228.2 208.8 M124.1 167.5 L142.4 177.1 M142.6 106 L142.3 108.9 L159.5 112.7 M298.9 204.5 L320.6 207.4 M323.3 189.4 L344.2 193.9 M50.5 169.5 L42.3 175.7 L33.2 178.7 M124.9 165.3 L142.7 174.6 M113.9 176.7 L128.5 188.7 M105 180.9 L117.2 191.4 L117.2 193.7 M210.7 227.4 L228.9 218.7 M40.7 276.4 L45.8 272 L50.5 262.7 M74.9 139.5 L85.5 125.8 M116.9 174.5 L131.5 186.1 M54.9 124.4 L67.2 111.4 M265.1 172 L286 173 M189.6 217.9 L210.4 219.1 M131.3 202.2 L147.4 205 L150.8 203.2 M179.8 195.6 L181.9 211 M104.6 82 L110.4 67.1 M192.9 202.2 L198.6 203 L209 211 M121.8 171.4 L138.5 180.4 M37.3 154 L55 161.7 M100.4 216.2 L111.7 210.6 L112.1 205.5 M123.8 169.9 L140.5 178.7 M150.6 213.5 L170.7 215.6 M384.4 202.7 L394.6 189.8 M323.7 186.8 L342.8 190.8 M197.4 213 L216.9 215.3 M188.9 215.2 L208.4 216.7 M349.6 166.3 L337.7 177.7 M188.1 67.6 L181.6 65.5 L178.2 67.4 L173.6 65.7 L171.3 67.3 M338 206.5 L354.7 213.9 M203.5 206.2 L212.1 201.3 L215.1 195.3 M131.1 214.4 L134.8 217 L137.3 216.2 L140.8 208.1 M33.1 271.2 L33.4 277.1 L41.7 272.9 M144.4 217.9 L150.3 204.3 M211.5 174.2 L197 164.8 M375.8 174.3 L392.3 181.4 M389.8 184.4 L373.5 177.4 M322.9 191.9 L340.9 195.9 M384.4 196.8 L394.2 184.9 M205.9 225.4 L222.3 219 M158.8 165.7 L171.3 155.4 M317.9 187.1 L322.4 173.9 M200.4 226.7 L200.9 240.3 M147.4 234.4 L164 239.2 M200 240.3 L199.5 226.7 M45.3 173.7 L62.4 170.3 M310.7 171.6 L310.4 184.9 M127.2 171.7 L137.4 160.7 M236.2 188 L251.8 194.5 M252.5 189.7 L259.6 189.3 L269.3 192.5 M107 94.6 L124.7 93.5 M205.2 102.2 L197.2 90.3 M131.3 221.3 L122.2 219.1 L119.2 216.2 L116.5 216.9 M23.1 187.8 L26.6 200.7 M267.3 201.5 L278.1 205.8 L283.3 205.1 M171.7 140.3 L183.5 130.7 M174.6 142.2 L186.3 132.6 M12.6 155 L12.5 147.5 L17.1 143.7 M172.1 133 L165 121.3 M49.3 243.8 L52 239.1 L54.5 242.3 L56.4 239.1 M383.8 192.3 L393.5 196.7 L395.5 200.8 M43.2 153.7 L51.8 142.6 M196.2 225.9 L196.5 238.7 M104.6 82 L121.4 80.2 M130.4 202.9 L129.4 207.5 L132.4 213.4 L131.1 214.4 M391.1 185.1 L382.3 195.9 M52.6 276.5 L49.8 277.3 L49.4 287.5 M140.2 219.2 L144.7 207 M391 199.8 L396.7 205.3 L399.1 210.6 M41.1 243.4 L42.1 255.6 M19.3 171.1 L32.6 163.8 M199.9 162.3 L212.3 170.6 M127.9 149.7 L129.1 152.6 L125.6 155 L131.1 158.6 M217.5 218.4 L230.4 210.9 M108.4 179.7 L119.6 188.7 M156.8 159.5 L155.3 158.3 L164.4 150.2 M326.2 187.3 L334.2 176.7 M388.3 207.9 L403.4 203.5 M57.4 276.2 L58.6 288 M113.9 176.7 L112.8 172.8 L120.3 167.6 M159.9 220.5 L166.3 231.4 M202.7 223.7 L212.3 214.3 M296.6 161.7 L296.8 160.1 L310.6 160.1 M206.4 175.3 L217.3 166.5 M143.1 229.6 L158.3 232.8 M144.3 227.3 L160.1 228.7 M147.3 184.2 L160.3 191.1 M49.9 156.6 L63.6 162.6 M63.4 162.8 L49.8 156.7 M54.4 150.9 L68 156.9 M67.9 157 L54.2 151.1 M9.9 170.8 L15.4 170 L20.7 163.5 M330.4 188.1 L338.1 177.8 M256 194.5 L269.6 200.3 M162.3 160.6 L172.8 151.9 M245.6 176.3 L251.2 171.8 L258.4 171.7 M138.8 88.4 L140.3 100 M173.6 148.6 L185.1 156.4 M142.5 191.4 L142.3 196.7 L148.7 200.7 M200 240.3 L205.5 238.7 L209.1 235.6 L209.2 232.7 M199.9 238.2 L211.7 231.1 M21.8 163.9 L32.5 155.7 M36.5 275.6 L39.2 264.7 M161.3 155.6 L171.3 147.1 M181.7 147.1 L171.3 155.4 M371.5 183.9 L379 174.1 M219.9 200.8 L234.3 203.4 M134.8 164.2 L146.1 171.4 M333.1 164.6 L327 174.8 M128.1 172.1 L118.2 180.3 M206.4 182 L200.7 192.1 M129.7 98.3 L144.3 97.3 M35 241 L40.8 250.5 M133.9 184.2 L124 176.2 M132.7 172 L141 163 M128.8 89 L129.8 99.8 M302.7 170.1 L300 177.9 L297 179.5 M172.1 133 L182.9 140.2 M62.7 104 L74.4 110.3 M124.9 165.3 L133.2 156.4 M296.9 179.8 L298.6 169.3 M169.6 138.8 L155.4 140.5 M219.9 200.8 L228.8 209.3 M177.2 236.2 L166.7 237 L164.2 235.6 M241.4 215.4 L243.2 212.4 L251.8 209.1 M247.8 168.5 L262 169.2 M213.6 194.8 L225.6 200.5 M298.6 188.9 L298.8 199.5 M178.5 184.8 L187.6 176.7 M126.1 89.2 L127.3 99.7 M136.7 227 L139.1 222 L146.2 222.2 M19 285.2 L15 279.1 L19.5 278.8 M163.7 220.9 L168.3 230.7 M16.5 269.2 L23.3 265.3 L21.8 261.3 M321.9 173.8 L326.5 163.9 M177.8 162.5 L187 154.7 M195.4 168.8 L190.6 178.6 M34.2 157.8 L44.7 164.7 M282.5 192.1 L289.4 201.1 M21.8 261.3 L28 252.2 M388.8 202.6 L395 211.7 M236 216.9 L236.4 218.1 L231.4 219.7 L236 216.9 M18.7 251.5 L30.4 256.1 M382.5 185.6 L389.2 176.7 M386.9 175.7 L380.3 184.5 M61.9 264.9 L57.4 274.2 M171.3 155.4 L180.2 147.8 M189.4 180.9 L184.8 190.3 M222.3 219 L232.8 212.7 M50 287.6 L54.1 285.4 L53.8 279.3 M196.9 106.6 L203.1 115.5 M208.6 221.7 L221.9 222.6 M66.7 101.2 L77.4 107.2 M214.8 168.6 L204.8 161.9 M127.7 166.8 L135.5 158.6 M33.8 310.2 L37.3 301.1 M66.3 147.2 L73 138.5 M160.1 228.7 L164.7 238 M85.8 116.4 L93.4 108.2 M20.2 285.2 L20.5 295 M295.8 206.7 L309 207.9 M407.6 293.7 L407.2 296.8 L405.5 297.2 L404.1 294.9 L406.1 293.7 M139 172.7 L146.9 164.8 M57.6 111.2 L68.2 116.9 M179.8 195.6 L192.7 196.3 M236.6 194.4 L248.5 198.1 M118.6 89.6 L119.7 99.3 M145.6 224.7 L158.4 225.9 M305.9 185.9 L307.9 176.6 M35.6 310.4 L38.9 305.2 L43.2 303.5 M192 219.4 L203.1 223.9 M44.4 302.7 L44.6 299.3 L49.4 294.7 M219.2 210.9 L228 217.8 M207.7 160.2 L217.3 166.5 M177.4 116.3 L183.1 124.7 M50.3 137.3 L61.3 142 M345.6 174 L353.7 166.8 M167.6 139.1 L175.4 146.3 M269.6 200.3 L265.2 201.6 L258 199.5 M343.4 196.5 L346.6 187.2 M59.8 143.9 L48.9 139.1 M47.5 167 L54.5 166.2 L58.5 163.3 M56.1 129.8 L66.6 135.2 M63.9 138.6 L53 133.8 M59 126.6 L69.4 132.1 M187.7 217 L185.2 226.2 M170.2 230.6 L182.5 230.4 M34.9 154.9 L27.5 147.4 M229.7 174.8 L226.9 177.4 L224.4 175.5 L227.1 173 M29.3 161.1 L21.1 153.9 M29.2 303.2 L32.2 294.3" fill="none" stroke="#fbf7eb" stroke-width="3.4" opacity="0.62" stroke-linecap="round" stroke-linejoin="round"/>
</g>
<g data-layer="minor-road">
<path d="M110.4 67.1 L133.1 61.1 L156.9 58.9 M104.6 103.7 L121.1 100.9 L145.7 102.8 M15.4 180 L21 177.2 L27.7 170.2 L47.5 167 M41 162.2 L61.2 137.4 M19.5 181 L25.6 179.7 L24.7 177 L29.5 173.7 L47.5 167 M131.1 214.4 L129.8 213.8 L131.3 221.3 L133.1 223.9 L139.5 219.2 L148 219.9 M116.5 216.9 L119.7 222.4 L133.2 226.7 L143.7 227.3 M107.9 110.3 L118.7 105.3 L139.2 105.5 M17.8 244.3 L22 243.5 L39.7 255.3 L44.4 256.2 M41.4 227.5 L44.4 230.1 L25.4 232.1 L18 229.2 M392.8 186.6 L403.9 209.3 M43.3 260.8 L43.7 266.7 L40.6 279.8 L44 282.7 M114.2 165.1 L111.5 168.4 L113.4 169.7 L116.5 166.6 L115.8 161.8 L126.6 163.5 M106.2 106.9 L118.1 102.8 L135.3 103.8 M171.8 169.7 L192.2 153.6 M96.8 212.6 L101.5 217.7 L100.7 221.2 L116.5 216.9 M130.1 153.6 L137.4 160.7 L151.2 169.5 M356.3 212 L340.5 204.5 L332.6 202.2 L331.3 203.5 M292.6 201.4 L321.1 204.3 M102.9 187.3 L102.5 192.1 L109.6 196.6 L120.2 193.8 M41.2 149 L65.7 159.8 M46.5 142.2 L71 153 M162.8 127.1 L160.4 129.1 L159.4 138.5 L166.9 137.2 L169.6 138.8 M58.5 163.3 L72.4 145.3 M17.9 241.7 L17.5 244.1 L35.8 255.6 M28.1 182.3 L28.9 177.3 L45.9 170.2 M139.2 105.5 L158.7 109.2 L165.3 107.7 M47.4 165.6 L60.7 148.5 M234.3 191.8 L258 199.5 M150.9 159.6 L167.9 144.7 M53.3 164 L66.3 147.2 M145.6 215 L170.5 218.3 M27.4 257.3 L25.4 266.5 L18.4 271.8 L15.7 271.4 M345.2 204.3 L357.7 187.9 M399.1 189.7 L386.1 205.9 M120.3 224.4 L127.4 229 L143.1 229.6 M60.1 167.1 L72.7 150.9 M155.4 140.5 L153.6 136.2 L157.1 132.8 L158.8 126.9 L162.8 127.1 M42.5 291.3 L39.1 295.6 L38.8 299.2 L46.8 292.7 M155.2 197.8 L168.4 182.5 M261.9 169.9 L286.1 171 M152.2 211.2 L175.6 213.6 M230.6 183.4 L252.5 189.7 M313.6 179.1 L312.1 187.6 L321.2 193.1 M155.1 163.4 L170.6 150.4 M86.2 125 L92.4 116.1 L99.2 111.1 M187.3 107 L196.1 122.6 M210.4 219.1 L228.2 208.8 M124.1 167.5 L142.4 177.1 M142.6 106 L142.3 108.9 L159.5 112.7 M298.9 204.5 L320.6 207.4 M323.3 189.4 L344.2 193.9 M50.5 169.5 L42.3 175.7 L33.2 178.7 M124.9 165.3 L142.7 174.6 M113.9 176.7 L128.5 188.7 M105 180.9 L117.2 191.4 L117.2 193.7 M210.7 227.4 L228.9 218.7 M40.7 276.4 L45.8 272 L50.5 262.7 M74.9 139.5 L85.5 125.8 M116.9 174.5 L131.5 186.1 M54.9 124.4 L67.2 111.4 M265.1 172 L286 173 M189.6 217.9 L210.4 219.1 M131.3 202.2 L147.4 205 L150.8 203.2 M179.8 195.6 L181.9 211 M104.6 82 L110.4 67.1 M192.9 202.2 L198.6 203 L209 211 M121.8 171.4 L138.5 180.4 M37.3 154 L55 161.7 M100.4 216.2 L111.7 210.6 L112.1 205.5 M123.8 169.9 L140.5 178.7 M150.6 213.5 L170.7 215.6 M384.4 202.7 L394.6 189.8 M323.7 186.8 L342.8 190.8 M197.4 213 L216.9 215.3 M188.9 215.2 L208.4 216.7 M349.6 166.3 L337.7 177.7 M188.1 67.6 L181.6 65.5 L178.2 67.4 L173.6 65.7 L171.3 67.3 M338 206.5 L354.7 213.9 M203.5 206.2 L212.1 201.3 L215.1 195.3 M131.1 214.4 L134.8 217 L137.3 216.2 L140.8 208.1 M33.1 271.2 L33.4 277.1 L41.7 272.9 M144.4 217.9 L150.3 204.3 M211.5 174.2 L197 164.8 M375.8 174.3 L392.3 181.4 M389.8 184.4 L373.5 177.4 M322.9 191.9 L340.9 195.9 M384.4 196.8 L394.2 184.9 M205.9 225.4 L222.3 219 M158.8 165.7 L171.3 155.4 M317.9 187.1 L322.4 173.9 M200.4 226.7 L200.9 240.3 M147.4 234.4 L164 239.2 M200 240.3 L199.5 226.7 M45.3 173.7 L62.4 170.3 M310.7 171.6 L310.4 184.9 M127.2 171.7 L137.4 160.7 M236.2 188 L251.8 194.5 M252.5 189.7 L259.6 189.3 L269.3 192.5 M107 94.6 L124.7 93.5 M205.2 102.2 L197.2 90.3 M131.3 221.3 L122.2 219.1 L119.2 216.2 L116.5 216.9 M23.1 187.8 L26.6 200.7 M267.3 201.5 L278.1 205.8 L283.3 205.1 M171.7 140.3 L183.5 130.7 M174.6 142.2 L186.3 132.6 M12.6 155 L12.5 147.5 L17.1 143.7 M172.1 133 L165 121.3 M49.3 243.8 L52 239.1 L54.5 242.3 L56.4 239.1 M383.8 192.3 L393.5 196.7 L395.5 200.8 M43.2 153.7 L51.8 142.6 M196.2 225.9 L196.5 238.7 M104.6 82 L121.4 80.2 M130.4 202.9 L129.4 207.5 L132.4 213.4 L131.1 214.4 M391.1 185.1 L382.3 195.9 M52.6 276.5 L49.8 277.3 L49.4 287.5 M140.2 219.2 L144.7 207 M391 199.8 L396.7 205.3 L399.1 210.6 M41.1 243.4 L42.1 255.6 M19.3 171.1 L32.6 163.8 M199.9 162.3 L212.3 170.6 M127.9 149.7 L129.1 152.6 L125.6 155 L131.1 158.6 M217.5 218.4 L230.4 210.9 M108.4 179.7 L119.6 188.7 M156.8 159.5 L155.3 158.3 L164.4 150.2 M326.2 187.3 L334.2 176.7 M388.3 207.9 L403.4 203.5 M57.4 276.2 L58.6 288 M113.9 176.7 L112.8 172.8 L120.3 167.6 M159.9 220.5 L166.3 231.4 M202.7 223.7 L212.3 214.3 M296.6 161.7 L296.8 160.1 L310.6 160.1 M206.4 175.3 L217.3 166.5 M143.1 229.6 L158.3 232.8 M144.3 227.3 L160.1 228.7 M147.3 184.2 L160.3 191.1 M49.9 156.6 L63.6 162.6 M63.4 162.8 L49.8 156.7 M54.4 150.9 L68 156.9 M67.9 157 L54.2 151.1 M9.9 170.8 L15.4 170 L20.7 163.5 M330.4 188.1 L338.1 177.8 M256 194.5 L269.6 200.3 M162.3 160.6 L172.8 151.9 M245.6 176.3 L251.2 171.8 L258.4 171.7 M138.8 88.4 L140.3 100 M173.6 148.6 L185.1 156.4 M142.5 191.4 L142.3 196.7 L148.7 200.7 M200 240.3 L205.5 238.7 L209.1 235.6 L209.2 232.7 M199.9 238.2 L211.7 231.1 M21.8 163.9 L32.5 155.7 M36.5 275.6 L39.2 264.7 M161.3 155.6 L171.3 147.1 M181.7 147.1 L171.3 155.4 M371.5 183.9 L379 174.1 M219.9 200.8 L234.3 203.4 M134.8 164.2 L146.1 171.4 M333.1 164.6 L327 174.8 M128.1 172.1 L118.2 180.3 M206.4 182 L200.7 192.1 M129.7 98.3 L144.3 97.3 M35 241 L40.8 250.5 M133.9 184.2 L124 176.2 M132.7 172 L141 163 M128.8 89 L129.8 99.8 M302.7 170.1 L300 177.9 L297 179.5 M172.1 133 L182.9 140.2 M62.7 104 L74.4 110.3 M124.9 165.3 L133.2 156.4 M296.9 179.8 L298.6 169.3 M169.6 138.8 L155.4 140.5 M219.9 200.8 L228.8 209.3 M177.2 236.2 L166.7 237 L164.2 235.6 M241.4 215.4 L243.2 212.4 L251.8 209.1 M247.8 168.5 L262 169.2 M213.6 194.8 L225.6 200.5 M298.6 188.9 L298.8 199.5 M178.5 184.8 L187.6 176.7 M126.1 89.2 L127.3 99.7 M136.7 227 L139.1 222 L146.2 222.2 M19 285.2 L15 279.1 L19.5 278.8 M163.7 220.9 L168.3 230.7 M16.5 269.2 L23.3 265.3 L21.8 261.3 M321.9 173.8 L326.5 163.9 M177.8 162.5 L187 154.7 M195.4 168.8 L190.6 178.6 M34.2 157.8 L44.7 164.7 M282.5 192.1 L289.4 201.1 M21.8 261.3 L28 252.2 M388.8 202.6 L395 211.7 M236 216.9 L236.4 218.1 L231.4 219.7 L236 216.9 M18.7 251.5 L30.4 256.1 M382.5 185.6 L389.2 176.7 M386.9 175.7 L380.3 184.5 M61.9 264.9 L57.4 274.2 M171.3 155.4 L180.2 147.8 M189.4 180.9 L184.8 190.3 M222.3 219 L232.8 212.7 M50 287.6 L54.1 285.4 L53.8 279.3 M196.9 106.6 L203.1 115.5 M208.6 221.7 L221.9 222.6 M66.7 101.2 L77.4 107.2 M214.8 168.6 L204.8 161.9 M127.7 166.8 L135.5 158.6 M33.8 310.2 L37.3 301.1 M66.3 147.2 L73 138.5 M160.1 228.7 L164.7 238 M85.8 116.4 L93.4 108.2 M20.2 285.2 L20.5 295 M295.8 206.7 L309 207.9 M407.6 293.7 L407.2 296.8 L405.5 297.2 L404.1 294.9 L406.1 293.7 M139 172.7 L146.9 164.8 M57.6 111.2 L68.2 116.9 M179.8 195.6 L192.7 196.3 M236.6 194.4 L248.5 198.1 M118.6 89.6 L119.7 99.3 M145.6 224.7 L158.4 225.9 M305.9 185.9 L307.9 176.6 M35.6 310.4 L38.9 305.2 L43.2 303.5 M192 219.4 L203.1 223.9 M44.4 302.7 L44.6 299.3 L49.4 294.7 M219.2 210.9 L228 217.8 M207.7 160.2 L217.3 166.5 M177.4 116.3 L183.1 124.7 M50.3 137.3 L61.3 142 M345.6 174 L353.7 166.8 M167.6 139.1 L175.4 146.3 M269.6 200.3 L265.2 201.6 L258 199.5 M343.4 196.5 L346.6 187.2 M59.8 143.9 L48.9 139.1 M47.5 167 L54.5 166.2 L58.5 163.3 M56.1 129.8 L66.6 135.2 M63.9 138.6 L53 133.8 M59 126.6 L69.4 132.1 M187.7 217 L185.2 226.2 M170.2 230.6 L182.5 230.4 M34.9 154.9 L27.5 147.4 M229.7 174.8 L226.9 177.4 L224.4 175.5 L227.1 173 M29.3 161.1 L21.1 153.9 M29.2 303.2 L32.2 294.3" fill="none" stroke="#69776e" stroke-width="1.25" opacity="0.58" stroke-linecap="round" stroke-linejoin="round"/>
</g>
</g>
<g data-layer="north-up-compass" fill="none" stroke="#233934" stroke-linecap="round" stroke-linejoin="round" opacity="0.62">
<path d="M382 48L382 23" stroke-width="1.8"/>
<path d="M382 23L373 39M382 23L391 39" stroke-width="1.8"/>
<circle cx="382" cy="48" r="13" stroke-width="1.1" opacity="0.38"/>
</g>
<rect x="8" y="8" width="404" height="304" rx="16" fill="none" stroke="#233934" stroke-width="1.4" opacity="0.44"/>
</svg>
