<svg xmlns="http://www.w3.org/2000/svg" viewBox="0 0 420 320" role="img" aria-label="Unlabeled north-up street-grid crop" data-orientation="north-up">
<metadata>{"orientation":"north-up","projection":"local-web-mercator"}</metadata>
<defs>
<clipPath id="mapCrop"><rect x="8" y="8" width="404" height="304" rx="16"/></clipPath>
</defs>
<rect width="420" height="320" fill="#ede7d8"/>
<rect x="8" y="8" width="404" height="304" rx="16" fill="#f7f1e3" stroke="#d8cbb2" stroke-width="1.25"/>
<g clip-path="url(#mapCrop)">
<g data-layer="water-casing">
<path d="M256.6 265.8 L254.8 265.5 L257.7 262.4 L267.4 259.2 L274.1 259.5 L285.9 255.1 L290.6 259.8 L291.7 270.5 L271.8 275.7 L260.8 272.8 L256.6 265.8 Z" fill="#d9f2fb" stroke="#d9f2fb" stroke-width="2.4" opacity="0.9" stroke-linecap="round" stroke-linejoin="round"/>
<path d="M66.4 253.1 L52.4 255 L54.5 255 L55.9 256.4 L54.7 257.2 L64.2 256.3 L66.4 253.1 Z" fill="#d9f2fb" stroke="#d9f2fb" stroke-width="2.4" opacity="0.9" stroke-linecap="round" stroke-linejoin="round"/>
<path d="M76.6 253 L67.8 254.9 L80.6 255.3 L82.2 252.4 L76.6 253 Z" fill="#d9f2fb" stroke="#d9f2fb" stroke-width="2.4" opacity="0.9" stroke-linecap="round" stroke-linejoin="round"/>
<path d="M190.9 260.4 L190.9 262.6 L197.3 266.8 L197.6 264.5 L200.8 263.3 L190.9 260.4 Z" fill="#d9f2fb" stroke="#d9f2fb" stroke-width="2.4" opacity="0.9" stroke-linecap="round" stroke-linejoin="round"/>
<path d="M171.7 246 L171.1 248.4 L174.1 250.2 L180.1 246.9 L179 245.2 L171.7 246 Z" fill="#d9f2fb" stroke="#d9f2fb" stroke-width="2.4" opacity="0.9" stroke-linecap="round" stroke-linejoin="round"/>
<path d="M23.6 11.4 L16.3 14.4 L15.6 12.1 L16.8 10.1 L23.6 11.4 Z" fill="#d9f2fb" stroke="#d9f2fb" stroke-width="2.4" opacity="0.9" stroke-linecap="round" stroke-linejoin="round"/>
<path d="M253.7 260.2 L255.9 264.5 L256.7 262.3 L253.7 260.2 Z" fill="#d9f2fb" stroke="#d9f2fb" stroke-width="2.4" opacity="0.9" stroke-linecap="round" stroke-linejoin="round"/>
<path d="M307.2 267.4 L309.4 271.2 L311.3 270.9 L309.7 267.4 L307.2 267.4 Z" fill="#d9f2fb" stroke="#d9f2fb" stroke-width="2.4" opacity="0.9" stroke-linecap="round" stroke-linejoin="round"/>
<path d="M13.1 119.4 L12 121.4 L15.7 122.5 L16.8 120.6 L13.1 119.4 Z" fill="#d9f2fb" stroke="#d9f2fb" stroke-width="2.4" opacity="0.9" stroke-linecap="round" stroke-linejoin="round"/>
<path d="M127.2 272.2 L126.8 275.8 L128.8 276 L127.2 272.2 Z" fill="#d9f2fb" stroke="#d9f2fb" stroke-width="2.4" opacity="0.9" stroke-linecap="round" stroke-linejoin="round"/>
<path d="M318.8 21.5 L322.9 18.6 L318 20.2 L318.8 21.5 Z" fill="#d9f2fb" stroke="#d9f2fb" stroke-width="2.4" opacity="0.9" stroke-linecap="round" stroke-linejoin="round"/>
<path d="M323.7 12.7 L325.1 11.1 L326.8 12.4 L324.9 15.1 L323.7 12.7 Z" fill="#d9f2fb" stroke="#d9f2fb" stroke-width="2.4" opacity="0.9" stroke-linecap="round" stroke-linejoin="round"/>
<path d="M331 28.8 L336.3 27.9 L331 28.8 Z" fill="#d9f2fb" stroke="#d9f2fb" stroke-width="2.4" opacity="0.9" stroke-linecap="round" stroke-linejoin="round"/>
<path d="M29.9 244.9 L25.8 245.2 L25.9 246.8 L29.9 244.9 Z" fill="#d9f2fb" stroke="#d9f2fb" stroke-width="2.4" opacity="0.9" stroke-linecap="round" stroke-linejoin="round"/>
<path d="M340 21.1 L342.5 24.5 L340 21.1 Z" fill="#d9f2fb" stroke="#d9f2fb" stroke-width="2.4" opacity="0.9" stroke-linecap="round" stroke-linejoin="round"/>
<path d="M319 18.4 L316.7 15.9 L320 17.1 L319 18.4 Z" fill="#d9f2fb" stroke="#d9f2fb" stroke-width="2.4" opacity="0.9" stroke-linecap="round" stroke-linejoin="round"/>
<path d="M173.7 23.6 L171 21.6 L173.7 23.6 Z" fill="#d9f2fb" stroke="#d9f2fb" stroke-width="2.4" opacity="0.9" stroke-linecap="round" stroke-linejoin="round"/>
<path d="M68.3 284.1 L68.8 281.8 L66.1 282.6 L68.3 284.1 Z" fill="#d9f2fb" stroke="#d9f2fb" stroke-width="2.4" opacity="0.9" stroke-linecap="round" stroke-linejoin="round"/>
<path d="M48.2 234.9 L43.6 235.4 L48.2 234.9 Z" fill="#d9f2fb" stroke="#d9f2fb" stroke-width="2.4" opacity="0.9" stroke-linecap="round" stroke-linejoin="round"/>
<path d="M407.9 65.2 L409.4 66.1 L410 64.1 L407.9 65.2 Z" fill="#d9f2fb" stroke="#d9f2fb" stroke-width="2.4" opacity="0.9" stroke-linecap="round" stroke-linejoin="round"/>
<path d="M35.2 244.7 L32.6 245.2 L35.2 244.7 Z" fill="#d9f2fb" stroke="#d9f2fb" stroke-width="2.4" opacity="0.9" stroke-linecap="round" stroke-linejoin="round"/>
<path d="M83.9 280.2 L85.4 281.1 L83.9 280.2 Z" fill="#d9f2fb" stroke="#d9f2fb" stroke-width="2.4" opacity="0.9" stroke-linecap="round" stroke-linejoin="round"/>
<path d="M174.5 25.4 L175.7 27 L174.5 25.4 Z" fill="#d9f2fb" stroke="#d9f2fb" stroke-width="2.4" opacity="0.9" stroke-linecap="round" stroke-linejoin="round"/>
<path d="M260.9 19 L260.9 19 Z" fill="#d9f2fb" stroke="#d9f2fb" stroke-width="2.4" opacity="0.9" stroke-linecap="round" stroke-linejoin="round"/>
<path d="M229 83.7 L230.2 82.5 L229 83.7 Z" fill="#d9f2fb" stroke="#d9f2fb" stroke-width="2.4" opacity="0.9" stroke-linecap="round" stroke-linejoin="round"/>
<path d="M84.6 42.8 L85.8 41.7 L84.6 42.8 Z" fill="#d9f2fb" stroke="#d9f2fb" stroke-width="2.4" opacity="0.9" stroke-linecap="round" stroke-linejoin="round"/>
<path d="M317.4 12.4 L318.7 13.6 L317.4 12.4 Z" fill="#d9f2fb" stroke="#d9f2fb" stroke-width="2.4" opacity="0.9" stroke-linecap="round" stroke-linejoin="round"/>
<path d="M252.2 46.1 L252.6 47.7 L252.2 46.1 Z" fill="#d9f2fb" stroke="#d9f2fb" stroke-width="2.4" opacity="0.9" stroke-linecap="round" stroke-linejoin="round"/>
<path d="M313.4 17.2 L315.2 16.6 L313.4 17.2 Z" fill="#d9f2fb" stroke="#d9f2fb" stroke-width="2.4" opacity="0.9" stroke-linecap="round" stroke-linejoin="round"/>
<path d="M38.1 244.6 L36.3 244.9 L38.1 244.6 Z" fill="#d9f2fb" stroke="#d9f2fb" stroke-width="2.4" opacity="0.9" stroke-linecap="round" stroke-linejoin="round"/>
<path d="M338.1 23.9 L339 25 L338.1 23.9 Z" fill="#d9f2fb" stroke="#d9f2fb" stroke-width="2.4" opacity="0.9" stroke-linecap="round" stroke-linejoin="round"/>
<path d="M408.1 64.5 L408.1 64.5 Z" fill="#d9f2fb" stroke="#d9f2fb" stroke-width="2.4" opacity="0.9" stroke-linecap="round" stroke-linejoin="round"/>
<path d="M67.1 283.8 L67.1 283.8 Z" fill="#d9f2fb" stroke="#d9f2fb" stroke-width="2.4" opacity="0.9" stroke-linecap="round" stroke-linejoin="round"/>
<path d="M150.2 118.8 L150.2 118.8 Z" fill="#d9f2fb" stroke="#d9f2fb" stroke-width="2.4" opacity="0.9" stroke-linecap="round" stroke-linejoin="round"/>
<path d="M148.4 117.2 L148.4 117.2 Z" fill="#d9f2fb" stroke="#d9f2fb" stroke-width="2.4" opacity="0.9" stroke-linecap="round" stroke-linejoin="round"/>
<path d="M147.3 115.1 L147.3 115.1 Z" fill="#d9f2fb" stroke="#d9f2fb" stroke-width="2.4" opacity="0.9" stroke-linecap="round" stroke-linejoin="round"/>
<path d="M246.3 75 L246.3 75 Z" fill="#d9f2fb" stroke="#d9f2fb" stroke-width="2.4" opacity="0.9" stroke-linecap="round" stroke-linejoin="round"/>
<path d="M252.4 49.2 L252.4 49.2 Z" fill="#d9f2fb" stroke="#d9f2fb" stroke-width="2.4" opacity="0.9" stroke-linecap="round" stroke-linejoin="round"/>
<path d="M316 152.5 L316 152.5 Z" fill="#d9f2fb" stroke="#d9f2fb" stroke-width="2.4" opacity="0.9" stroke-linecap="round" stroke-linejoin="round"/>
<path d="M393.5 73.1 L393.5 73.1 Z" fill="#d9f2fb" stroke="#d9f2fb" stroke-width="2.4" opacity="0.9" stroke-linecap="round" stroke-linejoin="round"/>
<path d="M406.5 71.9 L406.5 71.9 Z" fill="#d9f2fb" stroke="#d9f2fb" stroke-width="2.4" opacity="0.9" stroke-linecap="round" stroke-linejoin="round"/>
<path d="M148.2 101.8 L148.2 101.8 Z" fill="#d9f2fb" stroke="#d9f2fb" stroke-width="2.4" opacity="0.9" stroke-linecap="round" stroke-linejoin="round"/>
<path d="M245.3 50.1 L245.3 50.1 Z" fill="#d9f2fb" stroke="#d9f2fb" stroke-width="2.4" opacity="0.9" stroke-linecap="round" stroke-linejoin="round"/>
<path d="M391.4 73.2 L391.4 73.2 Z" fill="#d9f2fb" stroke="#d9f2fb" stroke-width="2.4" opacity="0.9" stroke-linecap="round" stroke-linejoin="round"/>
<path d="M259.2 51 L259.2 51 Z" fill="#d9f2fb" stroke="#d9f2fb" stroke-width="2.4" opacity="0.9" stroke-linecap="round" stroke-linejoin="round"/>
<path d="M401.6 71.8 L401.6 71.8 Z" fill="#d9f2fb" stroke="#d9f2fb" stroke-width="2.4" opacity="0.9" stroke-linecap="round" stroke-linejoin="round"/>
<path d="M295.2 142 L295.2 142 Z" fill="#d9f2fb" stroke="#d9f2fb" stroke-width="2.4" opacity="0.9" stroke-linecap="round" stroke-linejoin="round"/>
<path d="M247 77.8 L247 77.8 Z" fill="#d9f2fb" stroke="#d9f2fb" stroke-width="2.4" opacity="0.9" stroke-linecap="round" stroke-linejoin="round"/>
<path d="M403.4 72.8 L403.4 72.8 Z" fill="#d9f2fb" stroke="#d9f2fb" stroke-width="2.4" opacity="0.9" stroke-linecap="round" stroke-linejoin="round"/>
<path d="M396.8 71.9 L396.8 71.9 Z" fill="#d9f2fb" stroke="#d9f2fb" stroke-width="2.4" opacity="0.9" stroke-linecap="round" stroke-linejoin="round"/>
<path d="M395.2 71.6 L395.2 71.6 Z" fill="#d9f2fb" stroke="#d9f2fb" stroke-width="2.4" opacity="0.9" stroke-linecap="round" stroke-linejoin="round"/>
<path d="M245.4 73.1 L245.4 73.1 Z" fill="#d9f2fb" stroke="#d9f2fb" stroke-width="2.4" opacity="0.9" stroke-linecap="round" stroke-linejoin="round"/>
<path d="M272.1 64.3 L272.1 64.3 Z" fill="#d9f2fb" stroke="#d9f2fb" stroke-width="2.4" opacity="0.9" stroke-linecap="round" stroke-linejoin="round"/>
<path d="M269.8 63.7 L269.8 63.7 Z" fill="#d9f2fb" stroke="#d9f2fb" stroke-width="2.4" opacity="0.9" stroke-linecap="round" stroke-linejoin="round"/>
<path d="M407.5 103.7 L410.9 102.6" fill="none" stroke="#d9f2fb" stroke-width="6.8" opacity="0.9" stroke-linecap="round" stroke-linejoin="round"/>
</g>
<g data-layer="water">
<path d="M256.6 265.8 L254.8 265.5 L257.7 262.4 L267.4 259.2 L274.1 259.5 L285.9 255.1 L290.6 259.8 L291.7 270.5 L271.8 275.7 L260.8 272.8 L256.6 265.8 Z" fill="#7fc8e6" stroke="#117fa8" stroke-width="1.35" opacity="0.88" stroke-linecap="round" stroke-linejoin="round"/>
<path d="M66.4 253.1 L52.4 255 L54.5 255 L55.9 256.4 L54.7 257.2 L64.2 256.3 L66.4 253.1 Z" fill="#7fc8e6" stroke="#117fa8" stroke-width="1.35" opacity="0.88" stroke-linecap="round" stroke-linejoin="round"/>
<path d="M76.6 253 L67.8 254.9 L80.6 255.3 L82.2 252.4 L76.6 253 Z" fill="#7fc8e6" stroke="#117fa8" stroke-width="1.35" opacity="0.88" stroke-linecap="round" stroke-linejoin="round"/>
<path d="M190.9 260.4 L190.9 262.6 L197.3 266.8 L197.6 264.5 L200.8 263.3 L190.9 260.4 Z" fill="#7fc8e6" stroke="#117fa8" stroke-width="1.35" opacity="0.88" stroke-linecap="round" stroke-linejoin="round"/>
<path d="M171.7 246 L171.1 248.4 L174.1 250.2 L180.1 246.9 L179 245.2 L171.7 246 Z" fill="#7fc8e6" stroke="#117fa8" stroke-width="1.35" opacity="0.88" stroke-linecap="round" stroke-linejoin="round"/>
<path d="M23.6 11.4 L16.3 14.4 L15.6 12.1 L16.8 10.1 L23.6 11.4 Z" fill="#7fc8e6" stroke="#117fa8" stroke-width="1.35" opacity="0.88" stroke-linecap="round" stroke-linejoin="round"/>
<path d="M253.7 260.2 L255.9 264.5 L256.7 262.3 L253.7 260.2 Z" fill="#7fc8e6" stroke="#117fa8" stroke-width="1.35" opacity="0.88" stroke-linecap="round" stroke-linejoin="round"/>
<path d="M307.2 267.4 L309.4 271.2 L311.3 270.9 L309.7 267.4 L307.2 267.4 Z" fill="#7fc8e6" stroke="#117fa8" stroke-width="1.35" opacity="0.88" stroke-linecap="round" stroke-linejoin="round"/>
<path d="M13.1 119.4 L12 121.4 L15.7 122.5 L16.8 120.6 L13.1 119.4 Z" fill="#7fc8e6" stroke="#117fa8" stroke-width="1.35" opacity="0.88" stroke-linecap="round" stroke-linejoin="round"/>
<path d="M127.2 272.2 L126.8 275.8 L128.8 276 L127.2 272.2 Z" fill="#7fc8e6" stroke="#117fa8" stroke-width="1.35" opacity="0.88" stroke-linecap="round" stroke-linejoin="round"/>
<path d="M318.8 21.5 L322.9 18.6 L318 20.2 L318.8 21.5 Z" fill="#7fc8e6" stroke="#117fa8" stroke-width="1.35" opacity="0.88" stroke-linecap="round" stroke-linejoin="round"/>
<path d="M323.7 12.7 L325.1 11.1 L326.8 12.4 L324.9 15.1 L323.7 12.7 Z" fill="#7fc8e6" stroke="#117fa8" stroke-width="1.35" opacity="0.88" stroke-linecap="round" stroke-linejoin="round"/>
<path d="M331 28.8 L336.3 27.9 L331 28.8 Z" fill="#7fc8e6" stroke="#117fa8" stroke-width="1.35" opacity="0.88" stroke-linecap="round" stroke-linejoin="round"/>
<path d="M29.9 244.9 L25.8 245.2 L25.9 246.8 L29.9 244.9 Z" fill="#7fc8e6" stroke="#117fa8" stroke-width="1.35" opacity="0.88" stroke-linecap="round" stroke-linejoin="round"/>
<path d="M340 21.1 L342.5 24.5 L340 21.1 Z" fill="#7fc8e6" stroke="#117fa8" stroke-width="1.35" opacity="0.88" stroke-linecap="round" stroke-linejoin="round"/>
<path d="M319 18.4 L316.7 15.9 L320 17.1 L319 18.4 Z" fill="#7fc8e6" stroke="#117fa8" stroke-width="1.35" opacity="0.88" stroke-linecap="round" stroke-linejoin="round"/>
<path d="M173.7 23.6 L171 21.6 L173.7 23.6 Z" fill="#7fc8e6" stroke="#117fa8" stroke-width="1.35" opacity="0.88" stroke-linecap="round" stroke-linejoin="round"/>
<path d="M68.3 284.1 L68.8 281.8 L66.1 282.6 L68.3 284.1 Z" fill="#7fc8e6" stroke="#117fa8" stroke-width="1.35" opacity="0.88" stroke-linecap="round" stroke-linejoin="round"/>
<path d="M48.2 234.9 L43.6 235.4 L48.2 234.9 Z" fill="#7fc8e6" stroke="#117fa8" stroke-width="1.35" opacity="0.88" stroke-linecap="round" stroke-linejoin="round"/>
<path d="M407.9 65.2 L409.4 66.1 L410 64.1 L407.9 65.2 Z" fill="#7fc8e6" stroke="#117fa8" stroke-width="1.35" opacity="0.88" stroke-linecap="round" stroke-linejoin="round"/>
<path d="M35.2 244.7 L32.6 245.2 L35.2 244.7 Z" fill="#7fc8e6" stroke="#117fa8" stroke-width="1.35" opacity="0.88" stroke-linecap="round" stroke-linejoin="round"/>
<path d="M83.9 280.2 L85.4 281.1 L83.9 280.2 Z" fill="#7fc8e6" stroke="#117fa8" stroke-width="1.35" opacity="0.88" stroke-linecap="round" stroke-linejoin="round"/>
<path d="M174.5 25.4 L175.7 27 L174.5 25.4 Z" fill="#7fc8e6" stroke="#117fa8" stroke-width="1.35" opacity="0.88" stroke-linecap="round" stroke-linejoin="round"/>
<path d="M260.9 19 L260.9 19 Z" fill="#7fc8e6" stroke="#117fa8" stroke-width="1.35" opacity="0.88" stroke-linecap="round" stroke-linejoin="round"/>
<path d="M229 83.7 L230.2 82.5 L229 83.7 Z" fill="#7fc8e6" stroke="#117fa8" stroke-width="1.35" opacity="0.88" stroke-linecap="round" stroke-linejoin="round"/>
<path d="M84.6 42.8 L85.8 41.7 L84.6 42.8 Z" fill="#7fc8e6" stroke="#117fa8" stroke-width="1.35" opacity="0.88" stroke-linecap="round" stroke-linejoin="round"/>
<path d="M317.4 12.4 L318.7 13.6 L317.4 12.4 Z" fill="#7fc8e6" stroke="#117fa8" stroke-width="1.35" opacity="0.88" stroke-linecap="round" stroke-linejoin="round"/>
<path d="M252.2 46.1 L252.6 47.7 L252.2 46.1 Z" fill="#7fc8e6" stroke="#117fa8" stroke-width="1.35" opacity="0.88" stroke-linecap="round" stroke-linejoin="round"/>
<path d="M313.4 17.2 L315.2 16.6 L313.4 17.2 Z" fill="#7fc8e6" stroke="#117fa8" stroke-width="1.35" opacity="0.88" stroke-linecap="round" stroke-linejoin="round"/>
<path d="M38.1 244.6 L36.3 244.9 L38.1 244.6 Z" fill="#7fc8e6" stroke="#117fa8" stroke-width="1.35" opacity="0.88" stroke-linecap="round" stroke-linejoin="round"/>
<path d="M338.1 23.9 L339 25 L338.1 23.9 Z" fill="#7fc8e6" stroke="#117fa8" stroke-width="1.35" opacity="0.88" stroke-linecap="round" stroke-linejoin="round"/>
<path d="M408.1 64.5 L408.1 64.5 Z" fill="#7fc8e6" stroke="#117fa8" stroke-width="1.35" opacity="0.88" stroke-linecap="round" stroke-linejoin="round"/>
<path d="M67.1 283.8 L67.1 283.8 Z" fill="#7fc8e6" stroke="#117fa8" stroke-width="1.35" opacity="0.88" stroke-linecap="round" stroke-linejoin="round"/>
<path d="M150.2 118.8 L150.2 118.8 Z" fill="#7fc8e6" stroke="#117fa8" stroke-width="1.35" opacity="0.88" stroke-linecap="round" stroke-linejoin="round"/>
<path d="M148.4 117.2 L148.4 117.2 Z" fill="#7fc8e6" stroke="#117fa8" stroke-width="1.35" opacity="0.88" stroke-linecap="round" stroke-linejoin="round"/>
<path d="M147.3 115.1 L147.3 115.1 Z" fill="#7fc8e6" stroke="#117fa8" stroke-width="1.35" opacity="0.88" stroke-linecap="round" stroke-linejoin="round"/>
<path d="M246.3 75 L246.3 75 Z" fill="#7fc8e6" stroke="#117fa8" stroke-width="1.35" opacity="0.88" stroke-linecap="round" stroke-linejoin="round"/>
<path d="M252.4 49.2 L252.4 49.2 Z" fill="#7fc8e6" stroke="#117fa8" stroke-width="1.35" opacity="0.88" stroke-linecap="round" stroke-linejoin="round"/>
<path d="M316 152.5 L316 152.5 Z" fill="#7fc8e6" stroke="#117fa8" stroke-width="1.35" opacity="0.88" stroke-linecap="round" stroke-linejoin="round"/>
<path d="M393.5 73.1 L393.5 73.1 Z" fill="#7fc8e6" stroke="#117fa8" stroke-width="1.35" opacity="0.88" stroke-linecap="round" stroke-linejoin="round"/>
<path d="M406.5 71.9 L406.5 71.9 Z" fill="#7fc8e6" stroke="#117fa8" stroke-width="1.35" opacity="0.88" stroke-linecap="round" stroke-linejoin="round"/>
<path d="M148.2 101.8 L148.2 101.8 Z" fill="#7fc8e6" stroke="#117fa8" stroke-width="1.35" opacity="0.88" stroke-linecap="round" stroke-linejoin="round"/>
<path d="M245.3 50.1 L245.3 50.1 Z" fill="#7fc8e6" stroke="#117fa8" stroke-width="1.35" opacity="0.88" stroke-linecap="round" stroke-linejoin="round"/>
<path d="M391.4 73.2 L391.4 73.2 Z" fill="#7fc8e6" stroke="#117fa8" stroke-width="1.35" opacity="0.88" stroke-linecap="round" stroke-linejoin="round"/>
<path d="M259.2 51 L259.2 51 Z" fill="#7fc8e6" stroke="#117fa8" stroke-width="1.35" opacity="0.88" stroke-linecap="round" stroke-linejoin="round"/>
<path d="M401.6 71.8 L401.6 71.8 Z" fill="#7fc8e6" stroke="#117fa8" stroke-width="1.35" opacity="0.88" stroke-linecap="round" stroke-linejoin="round"/>
<path d="M295.2 142 L295.2 142 Z" fill="#7fc8e6" stroke="#117fa8" stroke-width="1.35" opacity="0.88" stroke-linecap="round" stroke-linejoin="round"/>
<path d="M247 77.8 L247 77.8 Z" fill="#7fc8e6" stroke="#117fa8" stroke-width="1.35" opacity="0.88" stroke-linecap="round" stroke-linejoin="round"/>
<path d="M403.4 72.8 L403.4 72.8 Z" fill="#7fc8e6" stroke="#117fa8" stroke-width="1.35" opacity="0.88" stroke-linecap="round" stroke-linejoin="round"/>
<path d="M396.8 71.9 L396.8 71.9 Z" fill="#7fc8e6" stroke="#117fa8" stroke-width="1.35" opacity="0.88" stroke-linecap="round" stroke-linejoin="round"/>
<path d="M395.2 71.6 L395.2 71.6 Z" fill="#7fc8e6" stroke="#117fa8" stroke-width="1.35" opacity="0.88" stroke-linecap="round" stroke-linejoin="round"/>
<path d="M245.4 73.1 L245.4 73.1 Z" fill="#7fc8e6" stroke="#117fa8" stroke-width="1.35" opacity="0.88" stroke-linecap="round" stroke-linejoin="round"/>
<path d="M272.1 64.3 L272.1 64.3 Z" fill="#7fc8e6" stroke="#117fa8" stroke-width="1.35" opacity="0.88" stroke-linecap="round" stroke-linejoin="round"/>
<path d="M269.8 63.7 L269.8 63.7 Z" fill="#7fc8e6" stroke="#117fa8" stroke-width="1.35" opacity="0.88" stroke-linecap="round" stroke-linejoin="round"/>
<path d="M407.5 103.7 L410.9 102.6" fill="none" stroke="#117fa8" stroke-width="3.8" opacity="0.88" stroke-linecap="round" stroke-linejoin="round"/>
</g>
<g data-layer="coastline">
</g>
<g data-layer="major-road-casing">
<path d="M202.8 166.2 L199.7 146.8 M203.3 168.9 L234.2 166.1 M239.1 168.5 L203.8 171.8 M201.3 179.6 L233.2 176.6 M182.6 195.8 L207.1 198.7 M206.9 199.1 L182.6 196.3 M210.5 199.1 L251.9 199.1 M252.1 199.5 L213 199.7 M152.5 189.8 L151.6 164.9 L149.7 153.1 L144.8 139.9 M150.4 153.1 L153 186 M173.3 171.8 L195.9 169.6 M157.1 196.3 L182.6 195.8 M196.4 172.5 L176.5 174.4 M182.6 196.3 L157.2 196.6 M192.7 152.8 L194.4 161.3 M234.2 166.1 L258.3 163.7 M204.6 176.6 L203.3 168.9 M188.7 152.1 L193.9 180.3 M228.4 179.1 L213.2 180.6 M143.8 136.2 L150.4 153.1 M175.1 182.1 L193.9 180.3 M226.3 166.8 L223.8 152.7 M266.7 165.9 L242.5 168.1 M199.4 145.3 L197.7 136.5 M206.1 185 L204.6 176.6 M229.8 187 L226.3 166.8 M196.4 172.5 L197.2 177.2 M283.4 174.4 L244.1 178.2 M263.6 187.6 L259.3 180.6 L257.7 166.5 M213 199.7 L206.9 199.1 M126.5 197.9 L146.9 194.6 L152.5 189.8 M252.9 152.8 L183.5 159.5 M192.3 150 L192.7 152.8 M243.7 175.6 L297.6 170.4 M242.5 168.1 L243.7 175.6 M194 134.3 L182.4 135.4 M187.3 182.9 L175.5 184.2 M185.7 132.8 L196.7 131.8 M207.1 198.7 L210.5 199.1 M213.3 132.5 L205.4 133.3 M190.7 140.4 L191.4 144 M251.9 199.1 L263.5 198.6 M134 174.1 L144.3 175.2 L161.2 171.9 M194.5 184.8 L193 191.8 M263.3 199 L252.1 199.5 M273.1 198.3 L298.1 197.7 M298.2 198.2 L273.2 198.8 M99.3 201.8 L157.1 196.3 M246.1 189.6 L244.5 180.8 M157.2 196.6 L99.9 202.6 M201.8 133.6 L197.1 134 M217.7 132.1 L213.3 132.5 M198.6 124.6 L196.5 126.4 L196.9 130 M161 183.4 L172.3 182.3 M144.3 180 L152.3 184.2 L161 183.4 M188.3 187.8 L187.5 184.1 M197.3 131.7 L201.5 131.3 M172.1 134 L180.1 133.3 M268.9 149 L265.5 158.1 L270.2 165.6 L271.8 174.6 M241.3 129.8 L225.5 131.2 M182.4 139.5 L183.5 146.2 M183 156.6 L182.7 152.6 M231.5 197.6 L228.8 192.7 L229.8 187 M205.3 154.5 L216 153.4 M183 151.3 L183.6 146.9 M172.4 134.6 L182.4 139.5 M184.3 165.1 L183.9 162.3 M184.8 167.9 L184.3 165.1 M240.5 151.1 L242.1 165.3 M197.1 155.3 L205.3 154.5 M260.3 123.6 L244.8 129.5 M232.6 151.8 L252.2 149.9 M261.7 155.5 L265.9 145.9 M216 153.4 L223.8 152.7 M186.9 180.9 L186.5 178.3 M186.2 126.7 L175.9 127.7 M183.5 159.5 L165.3 161.2 M228.8 128.9 L236.6 128.1 M230.3 128.4 L238.1 127.7 M163.2 105.2 L164.1 108.3 L159.8 115.9 L164.8 123.9 M259.5 161.4 L261.7 155.5 M190 155.9 L197.1 155.3 M161.7 150.8 L165.1 167.4 M233.4 210.3 L231.8 199.7 M248.4 128.2 L259.9 123.1 M224.8 152.6 L231.8 151.9 M170.2 125.3 L178.2 124.5 M259.4 182.1 L257.1 166.8 M193.3 97.5 L181.1 98.6 L175 104.5 M213.2 180.6 L213.9 187.6 M258 166.7 L260.1 182 M237 130.4 L238.8 141.1 M236.6 128.1 L240.9 127.6 M273.1 139.6 L269.9 146.9 M175.5 153.3 L175.3 149.3 L170.7 145.9 M180.6 124.3 L185.6 123.7 M210.4 116.6 L211.4 129.4 M183 156.6 L188.4 156.1 M183 139.5 L184.1 146.2 M220.3 199.7 L240.2 199.8 M259.9 123.1 L266.9 120.1 L273.4 119.8 M175.7 149.3 L183.5 148.7 M170.7 128.2 L165.1 128.7 M228.9 193.1 L244.9 194.9 M174.4 157.4 L180.8 156.8 M239.1 142.7 L240 148.3 M160.6 129.2 L152.8 129.9 M276.3 132.2 L273.1 139.6 M269.1 138.6 L271.7 132.6 M251.4 134.6 L272.3 131.3 M273.4 119.8 L294.5 120.4 M251.7 148.2 L265.9 145.9 M184.3 147 L186.5 150 M173.1 160.5 L172.4 166.2 M172.1 166.2 L172.8 160.6 M175.4 103.8 L180.8 98.3 L188.2 96.6 M257.5 194.9 L262.4 194 L259.4 182.1 M182.6 195.8 L201.1 196 L202.9 190.3 M213.5 194.6 L224 193.6 M164.3 161.3 L150.8 162.6 M146.2 127.6 L154.9 126.8 M212.9 178.5 L213.2 180.6 M274.6 121.6 L277.6 127.1 L277.1 130.3 M188.4 156.1 L190 155.9 M248.5 150.3 L247.5 144.6 M223.8 152.7 L224.8 152.6 M213.9 187.6 L213.7 192.9 M167 136.5 L169.6 144.1 M244.1 124.5 L255 120.8 L259.9 116.3 M166.4 150.3 L173.3 149.6 M262.7 153.3 L253.5 154.7 M240 148.3 L240.5 151.1 M260.1 182 L262.7 194.8 M187.5 195 L197.2 195.5 M172.1 146.3 L175.7 149.3 M150.6 196.3 L161.8 194.7 L163 191.6 L160.2 190.3 L158.8 192.2 L160.7 194.5 M202.9 190.3 L203.1 187.4 L206.2 185.8 M197.3 196.4 L210.5 199.1 M204.5 199.1 L191.7 196.6 M213.4 197.8 L226.4 199.4 M226.2 199.9 L212.1 200.2 M207.9 190.3 L208 187.1 L206.2 185.8 M207.7 197.4 L207.9 190.3 M161.7 150.8 L159.7 147.1 L154.2 147.6 M219.9 131.8 L217.9 133.2 M175.8 151 L173.3 149.6 M173.3 149.6 L174 147.9 M244.2 222.6 L242.9 221.6 M208.6 195.7 L211.1 196.5 M190.8 83.4 L194.2 85.2 M211.1 196.5 L211.7 196.9 M192.1 96.7 L193 95.9 M274.1 73 L272.9 78.7 M270.7 106.2 L272.5 105.6 M331.3 185.2 L326.7 184.6 M173.4 201.5 L172.3 200.8 M119.2 92.4 L109.3 91.1 M168.3 207 L168.7 207.5 M209.8 213.3 L210.1 213.3 M223.8 99.9 L224.6 99.2 M303.1 144.8 L303 146.5 M121.4 160.6 L122.2 159.9 M220.3 72.2 L221.9 72.6 M356.7 250.3 L347.6 243.5 M348.9 243.4 L358.6 241 M62 198.5 L60.8 196.5 M52.2 92 L53.1 91.4 M27.3 86 L28.4 87.5 M26 80.1 L28 81.7 M344.6 40.6 L343 39.4 M378.6 81.7 L378.2 82.5 M51 294.8 L52.9 295.5 M371 302.6 L370.2 303.2 M370.9 309.9 L371.7 308.9 M153 186 L152.9 192.3 M140.4 127.5 L143.8 136.2 M143.3 136.4 L139.6 127.5 M147.2 197.7 L128.9 200.3 M258.3 163.7 L268.3 163.7 M186.2 126.7 L189.2 131.2 M144.3 180 L158.3 176.2 M169.7 172.2 L173.3 171.8 M162.2 231 L183.7 198.7 M173.8 174.6 L170.2 175 M144.8 139.9 L143.3 136.4 M182.9 200.5 L162.6 231 M165.3 175.5 L158.3 176.2 M194.2 125.5 L188.9 126.4 M161.4 185.5 L148.5 186 M152.9 192.3 L151.1 195.3 M273 181.8 L268.3 193.5 M139.5 107.8 L140.6 119.5 M139.9 119.5 L138.8 107.7 M190.6 123 L189.5 117.1 M248.3 195 L252.7 204 M168.2 184.8 L161.4 185.5 M254.3 242.9 L245.1 227.5 L243.7 215.2 L245.1 211.3 L252.2 204.1 M140.3 121.2 L140.4 127.5 M267.5 198.4 L273.1 198.3 M252.7 204 L245.2 211.9 L244.2 215.3 L245.6 227.5 L255 242.8 M145.3 95.4 L160.3 90.6 L188.5 61 M273.2 198.8 L267.4 198.9 M151.1 195.3 L147.2 197.7 M267.4 198.9 L263.3 199 M139.6 127.5 L139.6 121.2 M263.5 198.6 L267.5 198.4 M219.3 120.7 L219.8 123.9 M186.9 194.9 L188.3 192.4 M268.3 163.7 L277.2 162.1 M114.6 141.4 L139.4 139.1 M218.5 104.5 L229 88.5 M265.5 207.3 L263.4 203.7 L266.1 194.7 M268.3 193.5 L265.6 202.4 L266.6 205.9 M200.3 123.3 L198.6 124.6 M138.8 107.7 L139 100.6 L145.3 95.4 M199.6 116.5 L200.2 120 M103.6 171.2 L134 174.1 M218.8 117.7 L219.3 120.7 M166.8 133.6 L170.3 133.8 M191.7 199.6 L187.3 200.1 M266.1 194.7 L263.6 187.6 M144.6 96.3 L139.7 100.6 L139.5 107.8 M161.6 134.8 L165.7 133.7 M130.5 182.4 L144.3 180 M139.4 139.1 L148.7 136 M198.8 109.6 L199.3 114.1 M120.5 207.7 L121.4 202.4 L126.5 197.9 M189.1 61.3 L165.6 86.3 M303 172.5 L285.5 174.2 M156.3 135.5 L151 136 M217.9 111.9 L218.4 114.9 M190.2 114.4 L194.4 114 M199.3 114.1 L199.6 116.5 M298.1 197.7 L350.6 198.1 M350.8 198.7 L298.2 198.2 M162.7 89.1 L153.1 94.5 M287.3 215.8 L268.1 208.6 M218.9 104.8 L217.5 109 M269.4 208.5 L287.6 215.4 M192.7 85.4 L198.2 92 L198.6 97 M140.6 119.5 L140.3 121.2 M139.6 121.2 L139.9 119.5 M198.5 103.1 L198.7 107.3 M282.7 161.4 L288.2 160.9 M304.6 172.2 L327.7 183.3 M153.1 94.5 L144.6 96.3 M197.9 97 L198 93 L194.1 87.9 M144.4 185.8 L139.2 184.6 M230.1 87.9 L224.2 96.8 M128.9 200.3 L124.2 202.5 M291.6 160.2 L298.5 155.7 M121.1 217.3 L117.3 224.5 L107.2 231.1 M120.3 217.2 L120.5 207.7 M106.3 230.8 L116.7 224.1 L120.3 217.2 M94.3 196.7 L98.1 193.4 L122.2 184 M124.2 202.5 L121.8 206.6 M138.4 184.4 L134.4 183.4 M273 90.4 L272.9 111.4 M273 129.6 L274.1 121.7 M165.6 86.3 L162.7 89.1 M121.8 206.6 L121.4 211.2 M249.9 242.9 L240.8 221.6 M121.4 211.2 L121.1 217.3 M125.1 183.5 L130.5 182.4 M298.5 155.7 L304 152.1 M274.1 121.7 L272.4 111.4 M154.9 126.8 L160.1 126.2 M211.9 97.7 L223 98.6 M174.4 157.4 L173.1 160.5 M180.8 156.8 L183 156.6 M112.4 129.2 L132.1 126.2 M172.8 160.6 L173.9 157.5 M210.7 200.6 L200.6 199 M288.8 215.8 L310.4 231.7 M167.3 158.1 L172.3 157.6 M234.8 117.2 L236.3 126.2 M165.1 167.4 L163.9 162.3 M211.8 98.1 L201.6 97.6 M150.3 159.7 L160.3 158.8 M247.5 144.6 L246.8 140.3 M173.9 157.5 L174.8 155.2 M231.8 151.9 L232.6 151.8 M143.1 262.6 L155.8 248.6 L156.7 240.1 L161.7 231.8 M176 153.3 L175.2 155.4 M246.8 139.9 L245.7 134.9 M172.4 166.2 L172.9 169.1 M162 231.9 L157.3 240.1 L156.1 249.2 L143.4 263.2 M172.6 169.1 L172.1 166.2 M175.2 155.4 L174.4 157.4 M310.3 232.1 L304.6 229.5 L288.4 216.2 M176.4 151.3 L176 153.3 M202.2 195.6 L208.6 195.7 M172.9 169.1 L173.3 171.8 M175.7 149.3 L176.4 151.3 M173.1 171.8 L172.6 169.1 M174.8 155.2 L175.5 153.3 M330.9 159.7 L306.6 162 M213.7 192.9 L211.7 196.9 M245.7 134.9 L244.8 129.5 M211.1 196.5 L213.7 192.9 M182.4 135.4 L182.8 138.2 M109.3 142.3 L97.3 143.7 M199.5 198.9 L191.7 199.6 M299 124.7 L310.9 136.2 M320.3 141.2 L340.9 135.1 M97.2 143.2 L109.1 141.8 M317 143.3 L304.6 131.2 M173.3 149.6 L175.7 149.3 M169.6 144.1 L172.1 146.3 M174.3 179.6 L173.9 176.8 M97.8 202.8 L84.8 204.4 M224 193.6 L228.9 193.1 M184.1 146.2 L184.3 147 M163.3 158.5 L167.3 158.1 M174.2 176.7 L174.6 179.3 M212.2 106.5 L211.4 115.5 M197.2 195.5 L202.2 195.6 M208.6 195.7 L212.8 194.6 M174.6 179.3 L175.1 182.1 M192.1 85.6 L187.4 80.2 M245.7 134.9 L251.4 134.6 M85.5 203.3 L97.4 202 M173.8 174.6 L174.2 176.7 M236.8 214.9 L234.8 212.3 M173.9 176.8 L173.6 174.7 M210 200.6 L211.1 196.5 M172.3 157.6 L173.9 157.5 M341.1 135.3 L322 141 M163.8 161.4 L163.3 158.5 M228.3 125.9 L227.5 121.9 M174.8 182.1 L174.3 179.6 M163.3 158.5 L162.7 155.6 M257.1 166.8 L258.3 163.7 M238.8 141.1 L239 142.3 M228.8 128.7 L228.3 125.9 M211.7 196.9 L210.7 200.6 M106.6 159.1 L131.5 161.5 M309.5 148.5 L314.6 145.1 M182.8 138.2 L183 139.5 M165.1 103.5 L171.9 104.1 M173.3 171.8 L173.6 173.2 M173.3 173.3 L173.1 171.8 M258.9 163.7 L258 166.7 M140.6 160.7 L150.3 159.7 M165.5 169.8 L165.1 167.4 M173.6 173.2 L173.8 174.6 M253.5 154.7 L252.9 152.8 M211.4 129.4 L212.9 130.2 M173.6 174.7 L173.3 173.3 M229.1 130.9 L228.8 128.9 M170.7 145.9 L169.6 144.1 M210.2 209.8 L209.5 236.5 L212.2 249.5 M240.2 199.8 L248.2 198.6 M303.2 162.3 L295.4 163.1 M248.7 200.4 L240.2 199.8 M162.4 154.4 L162 151.8 M252.2 149.9 L251.7 148.2 M175.1 182.1 L175.5 184.2 M210.8 130.4 L211.4 129.4 M175.2 184.2 L174.8 182.1 M32.1 161.6 L103.6 171.2 M171.5 194.3 L173.5 190.3 M160.3 158.8 L163.3 158.5 M242.7 82.4 L236.5 84.3 M229 88.5 L230.7 85.9 M153.8 151.5 L158.6 151.1 M190.1 62.1 L179.8 73 M236.6 128.1 L237 130.4 M175.5 184.2 L175.6 186.2 M178.2 195.4 L183 195.2 M175.4 186.2 L175.2 184.2 M179.5 72.9 L189 62.9 L193.6 52.8 L229.2 21.4 M210.7 200.6 L210.4 204.5 M183 195.2 L186.9 194.9 M173.5 190.3 L175.7 188 M165.9 171.8 L165.6 170.1 M138.8 96.9 L111.4 90.8 M240.1 219.8 L238.3 216.9 M173.9 157.5 L174.4 157.4 M163.4 150.6 L165.6 150.4 M158.6 151.1 L161.7 150.8 M211.8 249.6 L209.1 237.7 L209.6 216.5 M221.4 74 L217.3 79.1 L210 82.2 M264 75.8 L252.2 79.4 M220.3 199.7 L216.6 200.5 M151.4 135.9 L150 128.7 M104.7 234.5 L103.3 258.6 M104 116.5 L107 121.8 L107.4 131.4 M109.3 142.3 L107.4 131.4 M150.8 162.6 L144.5 163.7 M239 142.3 L239.1 142.7 M365.5 183.9 L345.2 187.6 L329.4 184.4 M317.6 176.5 L348.7 173.7 M348.7 173.7 L317.8 176.8 M183.5 75.5 L188.2 80.3 M196 55.4 L189.1 61.3 M102.4 258.5 L103.6 235 M214.2 200.6 L210.7 200.6 M188.5 61 L195.4 55 M236.3 126.2 L236.6 128.1 M187.5 195 L185.8 197 M250.1 80.1 L243.3 82.1 M331.5 184.9 L346.1 187.2 L365.5 183.9 M154.9 126.8 L155.8 132.6 M97.3 143.7 L85.9 144.8 M85.9 144.4 L97.2 143.2 M172.1 201.6 L171.6 196.8 M209.6 216.5 L209.7 209.8 M175.7 188 L175.5 186.5 M320.1 145.2 L333.2 156.6 M227.2 120 L226.7 117 M162.7 155.6 L162.4 154.4 M251.5 195 L257.5 194.9 M165.3 161.2 L164.3 161.3 M209.9 205.8 L210 202.6 M163.9 162.3 L163.8 161.4 M161.7 150.8 L163.4 150.6 M258.7 247.6 L266.1 255.1 L274.7 255.2 M244.5 127.1 L244.1 124.5 M255.7 34.9 L245.6 38.4 L220.6 38.1 L208.9 44.2 M74.9 207.1 L93.2 197.4 M210.3 205.8 L210.2 209.8 M135.3 126 L138.7 125.8 M131.5 161.5 L140.6 160.7 M265.9 145.9 L269.9 146.9 M179.5 196.9 L164.7 197.5 M84.9 144.9 L64 146.8 L52.6 143.4 M208.7 43.6 L220.9 37.5 L244.7 38 L255.5 34.4 M171.6 195.6 L175.5 195.5 M52.1 143 L64 146.7 L84.8 144.6 M216.6 200.5 L214.2 200.6 M166.5 134.8 L167 136.5 M227.5 121.9 L227.2 120 M129.6 153.8 L139.3 152.9 M166 172.5 L165.9 171.8 M210 202.6 L210 200.6 M162 151.8 L161.7 150.8 M139.3 152.9 L145.7 152.3 M165.6 150.4 L166.4 150.3 M182.3 200.6 L178.1 201 M184.9 86.9 L176.3 87.9 M244.9 194.9 L248.3 195 M176.3 87.7 L184.8 86.7 M212.8 194.6 L213.5 194.6 M157 196.8 L128.9 200.3 M139.5 164.7 L130.7 165.6 M226.7 117 L226.2 114.1 M300.6 82.4 L274.9 82.6 M178.1 201 L173.4 201.5 M246.8 140.3 L246.8 139.9 M175.5 195.5 L178.2 195.4 M253 74.3 L251.4 78.4 L242.7 82.4 M177.8 196.3 L164.7 197.5 M229.2 131.1 L229.1 130.9 M212.1 200.2 L203.5 199.2 M151.2 151.7 L153.8 151.5 M205.8 83.5 L198.3 84.8 M244.8 129.5 L244.7 128.3 M166.3 133.4 L166.5 134.8 M145.1 224.3 L149 221 L157.1 219.3 L161 216.4 M159.4 102.1 L155.2 100.3 M155.8 132.6 L156.3 135.5 M248.3 195 L251.5 195 M144.5 163.7 L139.5 164.7 M262.7 194.8 L257.5 194.9 M165.6 170.1 L165.5 169.8 M244.7 128.3 L244.5 127.1 M99.9 202.6 L97.8 202.8 M317 143.3 L320.3 141.2 M211.9 96.7 L208.1 92.9 L205.8 86.5 M184.3 199 L182.9 200.5 M234.2 113.3 L234.6 116.3 M209.8 208.3 L209.9 205.8 M226.2 114.1 L225.8 111.2 M97.4 202 L99.3 201.8 M228.8 128.9 L228.8 128.7 M185.8 197 L185.1 198 M200.6 199 L199.5 198.9 M145.7 152.3 L148.9 151.9 M166.5 134.8 L166 133.7 M93.6 197.4 L82.2 204.9 M206.4 87 L211.9 96.7 M104.8 165.2 L98.7 193.1 M185.1 198 L184.3 199 M148.9 151.9 L151.2 151.7 M175.6 186.2 L175.5 186.5 M211.4 115.5 L210.4 116.6 M150.4 157.3 L146.8 149.9 M212.1 200.2 L207.7 197.4 M175.5 186.5 L175.4 186.2 M290.5 68 L274.1 73 M186.9 194.9 L187.5 195 M233.7 110.4 L234.2 113.3 M225.8 111.2 L225.3 108.2 M148.3 79.4 L148.3 70.1 L157.3 63 L159.5 55.3 M169.6 144.1 L169.6 144.1 M210.4 204.5 L210.3 205.8 M286.3 134.7 L297.4 135.5 M235.9 199.4 L244.9 198.8 M267.8 191.7 L259.2 200 M171.6 195.6 L171.5 194.3 M273 73 L287.9 68.4 M223 98.6 L231.7 98.6 M160.1 194.9 L170.3 196.1 M167.3 88.8 L173 88.1 M171.6 196.8 L171.6 195.6 M98.7 193.1 L98.1 201.4 L100.1 203.4 L121.8 203.4 L124.8 217.9 M276.8 106.1 L290.7 106 L296.1 103.4 M259.4 113.6 L257.8 108.1 M206.2 185.8 L206.1 185 M207.6 45.4 L200.9 51.2 M170.7 203.6 L172.1 201.6 M197.7 50 L191.9 55.6 L190.5 60.6 M233.2 107.5 L233.7 110.4 M127 197.7 L148 196.4 M105.8 200.2 L145.1 195 M225.3 108.2 L224.8 105.3 M279.9 133.1 L286.3 134.7 M156.2 89.6 L151.3 83.6 M209.7 209.8 L209.8 208.3 M111 165.9 L112.7 157.4 L111.6 155.1 M209.3 200.6 L204.5 199.1 M199.9 52 L196 55.4 M252.3 199.1 L261.7 195.6 M272.3 131.3 L276.3 132.2 M200.6 50.5 L207 45 M243.6 200.3 L236.1 199.9 M103.6 235 L106.3 230.8 M212.2 103.9 L212.2 106.5 M234.6 116.3 L234.8 117.2 M98.3 146.3 L99.9 150 L111.6 155.1 M145.5 198.1 L124.4 199.4 M195.4 55 L199.1 51.9 M255.6 73.2 L269.2 69.1 L271.9 70.5 M232.7 104.5 L233.2 107.5 M169.3 205.4 L170.7 203.6 M194.1 195.4 L197.3 196.4 M151.9 148.5 L150.4 153.1 M107.2 231.1 L104.7 234.5 M211.7 99.1 L211.8 102.7 M224.8 105.3 L224.3 102.4 M122.3 154.5 L128.8 153.9 M252.4 200.3 L244.3 199.9 M142.8 137.4 L139.6 127.5 M294.5 120.4 L342.5 106.3 M224.3 102.4 L222.8 99 M272.5 184.9 L267.8 191.7 M262 204.8 L252.8 200.3 M230.8 92.8 L231.7 98.6 M276.3 132.2 L279.9 133.1 M265.1 310.9 L282.3 297.7 L292.4 284.1 L293.7 279.5 L292.1 260.1 L290 256.2 L285.1 253.9 L267 255.9 L258.1 247.9 M163.2 213.4 L165.9 209.9 M150.7 82 L155 87.3 M173.4 201.5 L172.1 201.6 M82.2 204.9 L63.9 208.5 M164.7 197.5 L156.9 195.1 M271.2 70.7 L268.2 69.7 L256.7 73.2 M270.3 189.4 L269.8 193.9 L273.1 196.9 M334.4 111.6 L305 120.4 M232.3 101.6 L232.7 104.5 M353.6 198.3 L365.3 198.7 M313.3 232.7 L356.2 245 M263.2 199.3 L260.2 200.5 L261.2 202 L263.8 199.3 M203.5 199.2 L200.6 199 M69.8 166.7 L59.8 208.2 M365 199.2 L353.7 198.8 M211.7 196.9 L213.4 197.8 M264 198.8 L262.9 196.3 L261 197.5 L263.3 198.6 M356.2 245.5 L314.1 233.4 M154.7 191.1 L160.1 194.9 M171.6 196.8 L165.8 196.8 M155.1 191 L160.4 194.6 M106.4 130.1 L83.5 132.3 M150 128.7 L149.8 127.2 M344.3 157 L331.9 159.6 M273.2 199.2 L267 201.5 L266.4 205.6 M298 134 L301 126.8 M156.9 195.1 L153.4 190 M263.4 193.2 L263.5 188.2 M231.7 98.6 L232.3 101.6 M168.4 206.6 L169.3 205.4 M267.9 198.4 L270.5 197.3 L269.7 195.7 L266.7 198.1 M144.7 136.3 L144.9 132.6 L143.2 132.6 L143.5 134.5 M73.5 151.7 L70.1 165.5 M103.7 116.5 L97.7 109.5 M98.3 109.6 L104 116.5 M253 90.5 L250.1 80.1 M145.1 224.3 L142.4 231.4 L142.3 238.3 M333.2 156.6 L345.5 156.5 M183.7 198.7 L182.5 196.9 M146.8 149.9 L141.1 150.2 M248.7 200.4 L243.6 200.3 M161.9 195.1 L167.2 195.6 M182.5 196.9 L179.5 196.9 M185.1 197 L182.5 196.9 M140.4 127.5 L145.7 133.3 M259.2 200 L252.4 200.3 M130.5 163.6 L130.7 165.6 M306.8 150.2 L302 145.5 M270.8 73.7 L266.7 75 M153.1 66.9 L148.7 70.2 L149.2 76.1 M130.1 161.6 L130.5 163.6 M167.5 207.5 L168.4 206.6 M161 216.4 L163.2 213.4 M274.7 255.2 L284.3 253.4 L291.4 257 L294.2 280.5 L282.9 297.7 L266.6 310.2 M211.8 102.7 L212.2 103.9 M51.6 144.9 L73.5 151.7 M246.5 69.6 L252.9 74.1 M257.1 105.4 L256.1 101.8 M355 131.2 L344.4 134.3 M344.4 134.1 L354.8 131 M168.4 206.6 L167.9 207.5 M259.9 116.3 L259.8 115.1 M117.1 155.2 L122.3 154.5 M259.8 115.1 L259.4 113.6 M94.4 103.3 L72 95.6 M234.7 69.1 L243 67.5 M154.2 147.6 L151.9 148.5 M165.9 209.9 L166.7 208.8 M251.3 261.9 L253.7 251.5 M95.9 89.6 L94.9 103.3 M299.2 142.5 L297.2 139.2 M244.9 198.8 L248.2 198.6 M255 97.8 L253.6 92.9 M246.2 61.7 L247.3 56.2 L254 48.8 M335.6 79.4 L307.9 79.7 M253.7 251.5 L250.9 245.7 M166.7 208.8 L167.3 208 M305 120.4 L296.4 122.9 M199.1 51.9 L200.6 50.5 M227.6 70.6 L222.9 72.2 M165.6 86.3 L160.6 99.1 M411.5 198.5 L367.6 199.2 M307.3 82.3 L329.4 82.1 M302 145.5 L299.2 142.5 M296.4 199.3 L282.1 198.5 M296.8 138.8 L297.1 135.5 M165.8 196.8 L162 196.6 M263.5 188.2 L262.5 186 M95.7 158.6 L106.6 159.1 M229.8 21.6 L206.1 42.7 M117.1 155.2 L111.6 155.1 M167.9 207.5 L167.3 208 M170.1 195.6 L171.5 194.3 M282.1 198 L294.9 196.5 M297.4 135.5 L297.1 138.7 M153 186 L153.4 188.7 M294.8 193.8 L298.6 196.7 L311.3 197.4 M367.6 198.7 L415.7 197.5 M144.8 139.9 L142.7 136.6 M257.5 107.1 L257.1 105.4 M153.4 190 L152.9 187.2 M377.7 149.8 L353.1 153.4 M59.9 208.8 L74.9 207.1 M167.3 208 L167.5 207.5 M153.4 188.7 L155.1 191 M211.8 98.1 L211.7 99.1 M234.9 69.3 L230 70.6 M153.4 188.7 L154.7 191.1 M273.1 196.9 L281 198 M261.7 195.6 L263.4 193.2 M303.1 63.8 L324.5 50.8 M200.9 51.2 L199.9 52 M142.3 238.3 L157.7 238.3 M365.5 183.9 L387 177 M206.1 42.7 L198.2 49.6 M125.1 218.3 L128.7 228.5 M350.6 198.1 L353.6 198.3 M278.1 212.4 L267.9 209 M128.7 228.5 L124.9 218.4 M281.1 198.5 L273.2 199.2 M211.9 96.7 L211.9 97.7 M251.7 290.3 L251.3 261.9 M353.7 198.8 L350.8 198.7 M255.7 100.3 L255 97.8 M170.1 195.6 L171.6 195.6 M168.5 195.6 L170.1 195.6 M222.9 72.2 L221.4 74 M355.4 130.8 L369 126.8 M369 126.8 L355.5 131 M257.8 108.1 L257.5 107.1 M272.6 106.2 L276.8 106.1 M142.7 136.6 L141.6 133.2 M103.2 261.6 L100.8 276 L93.6 288 M257.2 33.2 L261.2 28.3 L269.7 9.3 M160.2 196.6 L157 196.8 M142.7 263.8 L136.7 268 L129.2 270 M114.7 258.3 L134.1 253 M128.8 153.9 L129.6 153.8 M142.5 132.2 L145.7 133.3 M141.9 231.3 L145.1 224.3 M272.7 198.8 L267.4 199.1 M267.4 199.1 L263.2 199.3 M167.2 195.6 L168.5 195.6 M145.8 134 L146.7 136.1 M256.1 101.8 L255.7 100.3 M211.9 97.7 L211.8 98.1 M129.9 269.4 L130.3 274.6 L137.3 282.9 L139.9 291.2 M198.2 33.2 L195.9 35.9 L174.8 41.7 L164.1 39.8 M139.7 151.3 L140.7 152.7" fill="none" stroke="#fcf7e8" stroke-width="6.4" opacity="0.92" stroke-linecap="round" stroke-linejoin="round"/>
</g>
<g data-layer="major-road">
<path d="M202.8 166.2 L199.7 146.8 M203.3 168.9 L234.2 166.1 M239.1 168.5 L203.8 171.8 M201.3 179.6 L233.2 176.6 M182.6 195.8 L207.1 198.7 M206.9 199.1 L182.6 196.3 M210.5 199.1 L251.9 199.1 M252.1 199.5 L213 199.7 M152.5 189.8 L151.6 164.9 L149.7 153.1 L144.8 139.9 M150.4 153.1 L153 186 M173.3 171.8 L195.9 169.6 M157.1 196.3 L182.6 195.8 M196.4 172.5 L176.5 174.4 M182.6 196.3 L157.2 196.6 M192.7 152.8 L194.4 161.3 M234.2 166.1 L258.3 163.7 M204.6 176.6 L203.3 168.9 M188.7 152.1 L193.9 180.3 M228.4 179.1 L213.2 180.6 M143.8 136.2 L150.4 153.1 M175.1 182.1 L193.9 180.3 M226.3 166.8 L223.8 152.7 M266.7 165.9 L242.5 168.1 M199.4 145.3 L197.7 136.5 M206.1 185 L204.6 176.6 M229.8 187 L226.3 166.8 M196.4 172.5 L197.2 177.2 M283.4 174.4 L244.1 178.2 M263.6 187.6 L259.3 180.6 L257.7 166.5 M213 199.7 L206.9 199.1 M126.5 197.9 L146.9 194.6 L152.5 189.8 M252.9 152.8 L183.5 159.5 M192.3 150 L192.7 152.8 M243.7 175.6 L297.6 170.4 M242.5 168.1 L243.7 175.6 M194 134.3 L182.4 135.4 M187.3 182.9 L175.5 184.2 M185.7 132.8 L196.7 131.8 M207.1 198.7 L210.5 199.1 M213.3 132.5 L205.4 133.3 M190.7 140.4 L191.4 144 M251.9 199.1 L263.5 198.6 M134 174.1 L144.3 175.2 L161.2 171.9 M194.5 184.8 L193 191.8 M263.3 199 L252.1 199.5 M273.1 198.3 L298.1 197.7 M298.2 198.2 L273.2 198.8 M99.3 201.8 L157.1 196.3 M246.1 189.6 L244.5 180.8 M157.2 196.6 L99.9 202.6 M201.8 133.6 L197.1 134 M217.7 132.1 L213.3 132.5 M198.6 124.6 L196.5 126.4 L196.9 130 M161 183.4 L172.3 182.3 M144.3 180 L152.3 184.2 L161 183.4 M188.3 187.8 L187.5 184.1 M197.3 131.7 L201.5 131.3 M172.1 134 L180.1 133.3 M268.9 149 L265.5 158.1 L270.2 165.6 L271.8 174.6 M241.3 129.8 L225.5 131.2 M182.4 139.5 L183.5 146.2 M183 156.6 L182.7 152.6 M231.5 197.6 L228.8 192.7 L229.8 187 M205.3 154.5 L216 153.4 M183 151.3 L183.6 146.9 M172.4 134.6 L182.4 139.5 M184.3 165.1 L183.9 162.3 M184.8 167.9 L184.3 165.1 M240.5 151.1 L242.1 165.3 M197.1 155.3 L205.3 154.5 M260.3 123.6 L244.8 129.5 M232.6 151.8 L252.2 149.9 M261.7 155.5 L265.9 145.9 M216 153.4 L223.8 152.7 M186.9 180.9 L186.5 178.3 M186.2 126.7 L175.9 127.7 M183.5 159.5 L165.3 161.2 M228.8 128.9 L236.6 128.1 M230.3 128.4 L238.1 127.7 M163.2 105.2 L164.1 108.3 L159.8 115.9 L164.8 123.9 M259.5 161.4 L261.7 155.5 M190 155.9 L197.1 155.3 M161.7 150.8 L165.1 167.4 M233.4 210.3 L231.8 199.7 M248.4 128.2 L259.9 123.1 M224.8 152.6 L231.8 151.9 M170.2 125.3 L178.2 124.5 M259.4 182.1 L257.1 166.8 M193.3 97.5 L181.1 98.6 L175 104.5 M213.2 180.6 L213.9 187.6 M258 166.7 L260.1 182 M237 130.4 L238.8 141.1 M236.6 128.1 L240.9 127.6 M273.1 139.6 L269.9 146.9 M175.5 153.3 L175.3 149.3 L170.7 145.9 M180.6 124.3 L185.6 123.7 M210.4 116.6 L211.4 129.4 M183 156.6 L188.4 156.1 M183 139.5 L184.1 146.2 M220.3 199.7 L240.2 199.8 M259.9 123.1 L266.9 120.1 L273.4 119.8 M175.7 149.3 L183.5 148.7 M170.7 128.2 L165.1 128.7 M228.9 193.1 L244.9 194.9 M174.4 157.4 L180.8 156.8 M239.1 142.7 L240 148.3 M160.6 129.2 L152.8 129.9 M276.3 132.2 L273.1 139.6 M269.1 138.6 L271.7 132.6 M251.4 134.6 L272.3 131.3 M273.4 119.8 L294.5 120.4 M251.7 148.2 L265.9 145.9 M184.3 147 L186.5 150 M173.1 160.5 L172.4 166.2 M172.1 166.2 L172.8 160.6 M175.4 103.8 L180.8 98.3 L188.2 96.6 M257.5 194.9 L262.4 194 L259.4 182.1 M182.6 195.8 L201.1 196 L202.9 190.3 M213.5 194.6 L224 193.6 M164.3 161.3 L150.8 162.6 M146.2 127.6 L154.9 126.8 M212.9 178.5 L213.2 180.6 M274.6 121.6 L277.6 127.1 L277.1 130.3 M188.4 156.1 L190 155.9 M248.5 150.3 L247.5 144.6 M223.8 152.7 L224.8 152.6 M213.9 187.6 L213.7 192.9 M167 136.5 L169.6 144.1 M244.1 124.5 L255 120.8 L259.9 116.3 M166.4 150.3 L173.3 149.6 M262.7 153.3 L253.5 154.7 M240 148.3 L240.5 151.1 M260.1 182 L262.7 194.8 M187.5 195 L197.2 195.5 M172.1 146.3 L175.7 149.3 M150.6 196.3 L161.8 194.7 L163 191.6 L160.2 190.3 L158.8 192.2 L160.7 194.5 M202.9 190.3 L203.1 187.4 L206.2 185.8 M197.3 196.4 L210.5 199.1 M204.5 199.1 L191.7 196.6 M213.4 197.8 L226.4 199.4 M226.2 199.9 L212.1 200.2 M207.9 190.3 L208 187.1 L206.2 185.8 M207.7 197.4 L207.9 190.3 M161.7 150.8 L159.7 147.1 L154.2 147.6 M219.9 131.8 L217.9 133.2 M175.8 151 L173.3 149.6 M173.3 149.6 L174 147.9 M244.2 222.6 L242.9 221.6 M208.6 195.7 L211.1 196.5 M190.8 83.4 L194.2 85.2 M211.1 196.5 L211.7 196.9 M192.1 96.7 L193 95.9 M274.1 73 L272.9 78.7 M270.7 106.2 L272.5 105.6 M331.3 185.2 L326.7 184.6 M173.4 201.5 L172.3 200.8 M119.2 92.4 L109.3 91.1 M168.3 207 L168.7 207.5 M209.8 213.3 L210.1 213.3 M223.8 99.9 L224.6 99.2 M303.1 144.8 L303 146.5 M121.4 160.6 L122.2 159.9 M220.3 72.2 L221.9 72.6 M356.7 250.3 L347.6 243.5 M348.9 243.4 L358.6 241 M62 198.5 L60.8 196.5 M52.2 92 L53.1 91.4 M27.3 86 L28.4 87.5 M26 80.1 L28 81.7 M344.6 40.6 L343 39.4 M378.6 81.7 L378.2 82.5 M51 294.8 L52.9 295.5 M371 302.6 L370.2 303.2 M370.9 309.9 L371.7 308.9 M153 186 L152.9 192.3 M140.4 127.5 L143.8 136.2 M143.3 136.4 L139.6 127.5 M147.2 197.7 L128.9 200.3 M258.3 163.7 L268.3 163.7 M186.2 126.7 L189.2 131.2 M144.3 180 L158.3 176.2 M169.7 172.2 L173.3 171.8 M162.2 231 L183.7 198.7 M173.8 174.6 L170.2 175 M144.8 139.9 L143.3 136.4 M182.9 200.5 L162.6 231 M165.3 175.5 L158.3 176.2 M194.2 125.5 L188.9 126.4 M161.4 185.5 L148.5 186 M152.9 192.3 L151.1 195.3 M273 181.8 L268.3 193.5 M139.5 107.8 L140.6 119.5 M139.9 119.5 L138.8 107.7 M190.6 123 L189.5 117.1 M248.3 195 L252.7 204 M168.2 184.8 L161.4 185.5 M254.3 242.9 L245.1 227.5 L243.7 215.2 L245.1 211.3 L252.2 204.1 M140.3 121.2 L140.4 127.5 M267.5 198.4 L273.1 198.3 M252.7 204 L245.2 211.9 L244.2 215.3 L245.6 227.5 L255 242.8 M145.3 95.4 L160.3 90.6 L188.5 61 M273.2 198.8 L267.4 198.9 M151.1 195.3 L147.2 197.7 M267.4 198.9 L263.3 199 M139.6 127.5 L139.6 121.2 M263.5 198.6 L267.5 198.4 M219.3 120.7 L219.8 123.9 M186.9 194.9 L188.3 192.4 M268.3 163.7 L277.2 162.1 M114.6 141.4 L139.4 139.1 M218.5 104.5 L229 88.5 M265.5 207.3 L263.4 203.7 L266.1 194.7 M268.3 193.5 L265.6 202.4 L266.6 205.9 M200.3 123.3 L198.6 124.6 M138.8 107.7 L139 100.6 L145.3 95.4 M199.6 116.5 L200.2 120 M103.6 171.2 L134 174.1 M218.8 117.7 L219.3 120.7 M166.8 133.6 L170.3 133.8 M191.7 199.6 L187.3 200.1 M266.1 194.7 L263.6 187.6 M144.6 96.3 L139.7 100.6 L139.5 107.8 M161.6 134.8 L165.7 133.7 M130.5 182.4 L144.3 180 M139.4 139.1 L148.7 136 M198.8 109.6 L199.3 114.1 M120.5 207.7 L121.4 202.4 L126.5 197.9 M189.1 61.3 L165.6 86.3 M303 172.5 L285.5 174.2 M156.3 135.5 L151 136 M217.9 111.9 L218.4 114.9 M190.2 114.4 L194.4 114 M199.3 114.1 L199.6 116.5 M298.1 197.7 L350.6 198.1 M350.8 198.7 L298.2 198.2 M162.7 89.1 L153.1 94.5 M287.3 215.8 L268.1 208.6 M218.9 104.8 L217.5 109 M269.4 208.5 L287.6 215.4 M192.7 85.4 L198.2 92 L198.6 97 M140.6 119.5 L140.3 121.2 M139.6 121.2 L139.9 119.5 M198.5 103.1 L198.7 107.3 M282.7 161.4 L288.2 160.9 M304.6 172.2 L327.7 183.3 M153.1 94.5 L144.6 96.3 M197.9 97 L198 93 L194.1 87.9 M144.4 185.8 L139.2 184.6 M230.1 87.9 L224.2 96.8 M128.9 200.3 L124.2 202.5 M291.6 160.2 L298.5 155.7 M121.1 217.3 L117.3 224.5 L107.2 231.1 M120.3 217.2 L120.5 207.7 M106.3 230.8 L116.7 224.1 L120.3 217.2 M94.3 196.7 L98.1 193.4 L122.2 184 M124.2 202.5 L121.8 206.6 M138.4 184.4 L134.4 183.4 M273 90.4 L272.9 111.4 M273 129.6 L274.1 121.7 M165.6 86.3 L162.7 89.1 M121.8 206.6 L121.4 211.2 M249.9 242.9 L240.8 221.6 M121.4 211.2 L121.1 217.3 M125.1 183.5 L130.5 182.4 M298.5 155.7 L304 152.1 M274.1 121.7 L272.4 111.4 M154.9 126.8 L160.1 126.2 M211.9 97.7 L223 98.6 M174.4 157.4 L173.1 160.5 M180.8 156.8 L183 156.6 M112.4 129.2 L132.1 126.2 M172.8 160.6 L173.9 157.5 M210.7 200.6 L200.6 199 M288.8 215.8 L310.4 231.7 M167.3 158.1 L172.3 157.6 M234.8 117.2 L236.3 126.2 M165.1 167.4 L163.9 162.3 M211.8 98.1 L201.6 97.6 M150.3 159.7 L160.3 158.8 M247.5 144.6 L246.8 140.3 M173.9 157.5 L174.8 155.2 M231.8 151.9 L232.6 151.8 M143.1 262.6 L155.8 248.6 L156.7 240.1 L161.7 231.8 M176 153.3 L175.2 155.4 M246.8 139.9 L245.7 134.9 M172.4 166.2 L172.9 169.1 M162 231.9 L157.3 240.1 L156.1 249.2 L143.4 263.2 M172.6 169.1 L172.1 166.2 M175.2 155.4 L174.4 157.4 M310.3 232.1 L304.6 229.5 L288.4 216.2 M176.4 151.3 L176 153.3 M202.2 195.6 L208.6 195.7 M172.9 169.1 L173.3 171.8 M175.7 149.3 L176.4 151.3 M173.1 171.8 L172.6 169.1 M174.8 155.2 L175.5 153.3 M330.9 159.7 L306.6 162 M213.7 192.9 L211.7 196.9 M245.7 134.9 L244.8 129.5 M211.1 196.5 L213.7 192.9 M182.4 135.4 L182.8 138.2 M109.3 142.3 L97.3 143.7 M199.5 198.9 L191.7 199.6 M299 124.7 L310.9 136.2 M320.3 141.2 L340.9 135.1 M97.2 143.2 L109.1 141.8 M317 143.3 L304.6 131.2 M173.3 149.6 L175.7 149.3 M169.6 144.1 L172.1 146.3 M174.3 179.6 L173.9 176.8 M97.8 202.8 L84.8 204.4 M224 193.6 L228.9 193.1 M184.1 146.2 L184.3 147 M163.3 158.5 L167.3 158.1 M174.2 176.7 L174.6 179.3 M212.2 106.5 L211.4 115.5 M197.2 195.5 L202.2 195.6 M208.6 195.7 L212.8 194.6 M174.6 179.3 L175.1 182.1 M192.1 85.6 L187.4 80.2 M245.7 134.9 L251.4 134.6 M85.5 203.3 L97.4 202 M173.8 174.6 L174.2 176.7 M236.8 214.9 L234.8 212.3 M173.9 176.8 L173.6 174.7 M210 200.6 L211.1 196.5 M172.3 157.6 L173.9 157.5 M341.1 135.3 L322 141 M163.8 161.4 L163.3 158.5 M228.3 125.9 L227.5 121.9 M174.8 182.1 L174.3 179.6 M163.3 158.5 L162.7 155.6 M257.1 166.8 L258.3 163.7 M238.8 141.1 L239 142.3 M228.8 128.7 L228.3 125.9 M211.7 196.9 L210.7 200.6 M106.6 159.1 L131.5 161.5 M309.5 148.5 L314.6 145.1 M182.8 138.2 L183 139.5 M165.1 103.5 L171.9 104.1 M173.3 171.8 L173.6 173.2 M173.3 173.3 L173.1 171.8 M258.9 163.7 L258 166.7 M140.6 160.7 L150.3 159.7 M165.5 169.8 L165.1 167.4 M173.6 173.2 L173.8 174.6 M253.5 154.7 L252.9 152.8 M211.4 129.4 L212.9 130.2 M173.6 174.7 L173.3 173.3 M229.1 130.9 L228.8 128.9 M170.7 145.9 L169.6 144.1 M210.2 209.8 L209.5 236.5 L212.2 249.5 M240.2 199.8 L248.2 198.6 M303.2 162.3 L295.4 163.1 M248.7 200.4 L240.2 199.8 M162.4 154.4 L162 151.8 M252.2 149.9 L251.7 148.2 M175.1 182.1 L175.5 184.2 M210.8 130.4 L211.4 129.4 M175.2 184.2 L174.8 182.1 M32.1 161.6 L103.6 171.2 M171.5 194.3 L173.5 190.3 M160.3 158.8 L163.3 158.5 M242.7 82.4 L236.5 84.3 M229 88.5 L230.7 85.9 M153.8 151.5 L158.6 151.1 M190.1 62.1 L179.8 73 M236.6 128.1 L237 130.4 M175.5 184.2 L175.6 186.2 M178.2 195.4 L183 195.2 M175.4 186.2 L175.2 184.2 M179.5 72.9 L189 62.9 L193.6 52.8 L229.2 21.4 M210.7 200.6 L210.4 204.5 M183 195.2 L186.9 194.9 M173.5 190.3 L175.7 188 M165.9 171.8 L165.6 170.1 M138.8 96.9 L111.4 90.8 M240.1 219.8 L238.3 216.9 M173.9 157.5 L174.4 157.4 M163.4 150.6 L165.6 150.4 M158.6 151.1 L161.7 150.8 M211.8 249.6 L209.1 237.7 L209.6 216.5 M221.4 74 L217.3 79.1 L210 82.2 M264 75.8 L252.2 79.4 M220.3 199.7 L216.6 200.5 M151.4 135.9 L150 128.7 M104.7 234.5 L103.3 258.6 M104 116.5 L107 121.8 L107.4 131.4 M109.3 142.3 L107.4 131.4 M150.8 162.6 L144.5 163.7 M239 142.3 L239.1 142.7 M365.5 183.9 L345.2 187.6 L329.4 184.4 M317.6 176.5 L348.7 173.7 M348.7 173.7 L317.8 176.8 M183.5 75.5 L188.2 80.3 M196 55.4 L189.1 61.3 M102.4 258.5 L103.6 235 M214.2 200.6 L210.7 200.6 M188.5 61 L195.4 55 M236.3 126.2 L236.6 128.1 M187.5 195 L185.8 197 M250.1 80.1 L243.3 82.1 M331.5 184.9 L346.1 187.2 L365.5 183.9 M154.9 126.8 L155.8 132.6 M97.3 143.7 L85.9 144.8 M85.9 144.4 L97.2 143.2 M172.1 201.6 L171.6 196.8 M209.6 216.5 L209.7 209.8 M175.7 188 L175.5 186.5 M320.1 145.2 L333.2 156.6 M227.2 120 L226.7 117 M162.7 155.6 L162.4 154.4 M251.5 195 L257.5 194.9 M165.3 161.2 L164.3 161.3 M209.9 205.8 L210 202.6 M163.9 162.3 L163.8 161.4 M161.7 150.8 L163.4 150.6 M258.7 247.6 L266.1 255.1 L274.7 255.2 M244.5 127.1 L244.1 124.5 M255.7 34.9 L245.6 38.4 L220.6 38.1 L208.9 44.2 M74.9 207.1 L93.2 197.4 M210.3 205.8 L210.2 209.8 M135.3 126 L138.7 125.8 M131.5 161.5 L140.6 160.7 M265.9 145.9 L269.9 146.9 M179.5 196.9 L164.7 197.5 M84.9 144.9 L64 146.8 L52.6 143.4 M208.7 43.6 L220.9 37.5 L244.7 38 L255.5 34.4 M171.6 195.6 L175.5 195.5 M52.1 143 L64 146.7 L84.8 144.6 M216.6 200.5 L214.2 200.6 M166.5 134.8 L167 136.5 M227.5 121.9 L227.2 120 M129.6 153.8 L139.3 152.9 M166 172.5 L165.9 171.8 M210 202.6 L210 200.6 M162 151.8 L161.7 150.8 M139.3 152.9 L145.7 152.3 M165.6 150.4 L166.4 150.3 M182.3 200.6 L178.1 201 M184.9 86.9 L176.3 87.9 M244.9 194.9 L248.3 195 M176.3 87.7 L184.8 86.7 M212.8 194.6 L213.5 194.6 M157 196.8 L128.9 200.3 M139.5 164.7 L130.7 165.6 M226.7 117 L226.2 114.1 M300.6 82.4 L274.9 82.6 M178.1 201 L173.4 201.5 M246.8 140.3 L246.8 139.9 M175.5 195.5 L178.2 195.4 M253 74.3 L251.4 78.4 L242.7 82.4 M177.8 196.3 L164.7 197.5 M229.2 131.1 L229.1 130.9 M212.1 200.2 L203.5 199.2 M151.2 151.7 L153.8 151.5 M205.8 83.5 L198.3 84.8 M244.8 129.5 L244.7 128.3 M166.3 133.4 L166.5 134.8 M145.1 224.3 L149 221 L157.1 219.3 L161 216.4 M159.4 102.1 L155.2 100.3 M155.8 132.6 L156.3 135.5 M248.3 195 L251.5 195 M144.5 163.7 L139.5 164.7 M262.7 194.8 L257.5 194.9 M165.6 170.1 L165.5 169.8 M244.7 128.3 L244.5 127.1 M99.9 202.6 L97.8 202.8 M317 143.3 L320.3 141.2 M211.9 96.7 L208.1 92.9 L205.8 86.5 M184.3 199 L182.9 200.5 M234.2 113.3 L234.6 116.3 M209.8 208.3 L209.9 205.8 M226.2 114.1 L225.8 111.2 M97.4 202 L99.3 201.8 M228.8 128.9 L228.8 128.7 M185.8 197 L185.1 198 M200.6 199 L199.5 198.9 M145.7 152.3 L148.9 151.9 M166.5 134.8 L166 133.7 M93.6 197.4 L82.2 204.9 M206.4 87 L211.9 96.7 M104.8 165.2 L98.7 193.1 M185.1 198 L184.3 199 M148.9 151.9 L151.2 151.7 M175.6 186.2 L175.5 186.5 M211.4 115.5 L210.4 116.6 M150.4 157.3 L146.8 149.9 M212.1 200.2 L207.7 197.4 M175.5 186.5 L175.4 186.2 M290.5 68 L274.1 73 M186.9 194.9 L187.5 195 M233.7 110.4 L234.2 113.3 M225.8 111.2 L225.3 108.2 M148.3 79.4 L148.3 70.1 L157.3 63 L159.5 55.3 M169.6 144.1 L169.6 144.1 M210.4 204.5 L210.3 205.8 M286.3 134.7 L297.4 135.5 M235.9 199.4 L244.9 198.8 M267.8 191.7 L259.2 200 M171.6 195.6 L171.5 194.3 M273 73 L287.9 68.4 M223 98.6 L231.7 98.6 M160.1 194.9 L170.3 196.1 M167.3 88.8 L173 88.1 M171.6 196.8 L171.6 195.6 M98.7 193.1 L98.1 201.4 L100.1 203.4 L121.8 203.4 L124.8 217.9 M276.8 106.1 L290.7 106 L296.1 103.4 M259.4 113.6 L257.8 108.1 M206.2 185.8 L206.1 185 M207.6 45.4 L200.9 51.2 M170.7 203.6 L172.1 201.6 M197.7 50 L191.9 55.6 L190.5 60.6 M233.2 107.5 L233.7 110.4 M127 197.7 L148 196.4 M105.8 200.2 L145.1 195 M225.3 108.2 L224.8 105.3 M279.9 133.1 L286.3 134.7 M156.2 89.6 L151.3 83.6 M209.7 209.8 L209.8 208.3 M111 165.9 L112.7 157.4 L111.6 155.1 M209.3 200.6 L204.5 199.1 M199.9 52 L196 55.4 M252.3 199.1 L261.7 195.6 M272.3 131.3 L276.3 132.2 M200.6 50.5 L207 45 M243.6 200.3 L236.1 199.9 M103.6 235 L106.3 230.8 M212.2 103.9 L212.2 106.5 M234.6 116.3 L234.8 117.2 M98.3 146.3 L99.9 150 L111.6 155.1 M145.5 198.1 L124.4 199.4 M195.4 55 L199.1 51.9 M255.6 73.2 L269.2 69.1 L271.9 70.5 M232.7 104.5 L233.2 107.5 M169.3 205.4 L170.7 203.6 M194.1 195.4 L197.3 196.4 M151.9 148.5 L150.4 153.1 M107.2 231.1 L104.7 234.5 M211.7 99.1 L211.8 102.7 M224.8 105.3 L224.3 102.4 M122.3 154.5 L128.8 153.9 M252.4 200.3 L244.3 199.9 M142.8 137.4 L139.6 127.5 M294.5 120.4 L342.5 106.3 M224.3 102.4 L222.8 99 M272.5 184.9 L267.8 191.7 M262 204.8 L252.8 200.3 M230.8 92.8 L231.7 98.6 M276.3 132.2 L279.9 133.1 M265.1 310.9 L282.3 297.7 L292.4 284.1 L293.7 279.5 L292.1 260.1 L290 256.2 L285.1 253.9 L267 255.9 L258.1 247.9 M163.2 213.4 L165.9 209.9 M150.7 82 L155 87.3 M173.4 201.5 L172.1 201.6 M82.2 204.9 L63.9 208.5 M164.7 197.5 L156.9 195.1 M271.2 70.7 L268.2 69.7 L256.7 73.2 M270.3 189.4 L269.8 193.9 L273.1 196.9 M334.4 111.6 L305 120.4 M232.3 101.6 L232.7 104.5 M353.6 198.3 L365.3 198.7 M313.3 232.7 L356.2 245 M263.2 199.3 L260.2 200.5 L261.2 202 L263.8 199.3 M203.5 199.2 L200.6 199 M69.8 166.7 L59.8 208.2 M365 199.2 L353.7 198.8 M211.7 196.9 L213.4 197.8 M264 198.8 L262.9 196.3 L261 197.5 L263.3 198.6 M356.2 245.5 L314.1 233.4 M154.7 191.1 L160.1 194.9 M171.6 196.8 L165.8 196.8 M155.1 191 L160.4 194.6 M106.4 130.1 L83.5 132.3 M150 128.7 L149.8 127.2 M344.3 157 L331.9 159.6 M273.2 199.2 L267 201.5 L266.4 205.6 M298 134 L301 126.8 M156.9 195.1 L153.4 190 M263.4 193.2 L263.5 188.2 M231.7 98.6 L232.3 101.6 M168.4 206.6 L169.3 205.4 M267.9 198.4 L270.5 197.3 L269.7 195.7 L266.7 198.1 M144.7 136.3 L144.9 132.6 L143.2 132.6 L143.5 134.5 M73.5 151.7 L70.1 165.5 M103.7 116.5 L97.7 109.5 M98.3 109.6 L104 116.5 M253 90.5 L250.1 80.1 M145.1 224.3 L142.4 231.4 L142.3 238.3 M333.2 156.6 L345.5 156.5 M183.7 198.7 L182.5 196.9 M146.8 149.9 L141.1 150.2 M248.7 200.4 L243.6 200.3 M161.9 195.1 L167.2 195.6 M182.5 196.9 L179.5 196.9 M185.1 197 L182.5 196.9 M140.4 127.5 L145.7 133.3 M259.2 200 L252.4 200.3 M130.5 163.6 L130.7 165.6 M306.8 150.2 L302 145.5 M270.8 73.7 L266.7 75 M153.1 66.9 L148.7 70.2 L149.2 76.1 M130.1 161.6 L130.5 163.6 M167.5 207.5 L168.4 206.6 M161 216.4 L163.2 213.4 M274.7 255.2 L284.3 253.4 L291.4 257 L294.2 280.5 L282.9 297.7 L266.6 310.2 M211.8 102.7 L212.2 103.9 M51.6 144.9 L73.5 151.7 M246.5 69.6 L252.9 74.1 M257.1 105.4 L256.1 101.8 M355 131.2 L344.4 134.3 M344.4 134.1 L354.8 131 M168.4 206.6 L167.9 207.5 M259.9 116.3 L259.8 115.1 M117.1 155.2 L122.3 154.5 M259.8 115.1 L259.4 113.6 M94.4 103.3 L72 95.6 M234.7 69.1 L243 67.5 M154.2 147.6 L151.9 148.5 M165.9 209.9 L166.7 208.8 M251.3 261.9 L253.7 251.5 M95.9 89.6 L94.9 103.3 M299.2 142.5 L297.2 139.2 M244.9 198.8 L248.2 198.6 M255 97.8 L253.6 92.9 M246.2 61.7 L247.3 56.2 L254 48.8 M335.6 79.4 L307.9 79.7 M253.7 251.5 L250.9 245.7 M166.7 208.8 L167.3 208 M305 120.4 L296.4 122.9 M199.1 51.9 L200.6 50.5 M227.6 70.6 L222.9 72.2 M165.6 86.3 L160.6 99.1 M411.5 198.5 L367.6 199.2 M307.3 82.3 L329.4 82.1 M302 145.5 L299.2 142.5 M296.4 199.3 L282.1 198.5 M296.8 138.8 L297.1 135.5 M165.8 196.8 L162 196.6 M263.5 188.2 L262.5 186 M95.7 158.6 L106.6 159.1 M229.8 21.6 L206.1 42.7 M117.1 155.2 L111.6 155.1 M167.9 207.5 L167.3 208 M170.1 195.6 L171.5 194.3 M282.1 198 L294.9 196.5 M297.4 135.5 L297.1 138.7 M153 186 L153.4 188.7 M294.8 193.8 L298.6 196.7 L311.3 197.4 M367.6 198.7 L415.7 197.5 M144.8 139.9 L142.7 136.6 M257.5 107.1 L257.1 105.4 M153.4 190 L152.9 187.2 M377.7 149.8 L353.1 153.4 M59.9 208.8 L74.9 207.1 M167.3 208 L167.5 207.5 M153.4 188.7 L155.1 191 M211.8 98.1 L211.7 99.1 M234.9 69.3 L230 70.6 M153.4 188.7 L154.7 191.1 M273.1 196.9 L281 198 M261.7 195.6 L263.4 193.2 M303.1 63.8 L324.5 50.8 M200.9 51.2 L199.9 52 M142.3 238.3 L157.7 238.3 M365.5 183.9 L387 177 M206.1 42.7 L198.2 49.6 M125.1 218.3 L128.7 228.5 M350.6 198.1 L353.6 198.3 M278.1 212.4 L267.9 209 M128.7 228.5 L124.9 218.4 M281.1 198.5 L273.2 199.2 M211.9 96.7 L211.9 97.7 M251.7 290.3 L251.3 261.9 M353.7 198.8 L350.8 198.7 M255.7 100.3 L255 97.8 M170.1 195.6 L171.6 195.6 M168.5 195.6 L170.1 195.6 M222.9 72.2 L221.4 74 M355.4 130.8 L369 126.8 M369 126.8 L355.5 131 M257.8 108.1 L257.5 107.1 M272.6 106.2 L276.8 106.1 M142.7 136.6 L141.6 133.2 M103.2 261.6 L100.8 276 L93.6 288 M257.2 33.2 L261.2 28.3 L269.7 9.3 M160.2 196.6 L157 196.8 M142.7 263.8 L136.7 268 L129.2 270 M114.7 258.3 L134.1 253 M128.8 153.9 L129.6 153.8 M142.5 132.2 L145.7 133.3 M141.9 231.3 L145.1 224.3 M272.7 198.8 L267.4 199.1 M267.4 199.1 L263.2 199.3 M167.2 195.6 L168.5 195.6 M145.8 134 L146.7 136.1 M256.1 101.8 L255.7 100.3 M211.9 97.7 L211.8 98.1 M129.9 269.4 L130.3 274.6 L137.3 282.9 L139.9 291.2 M198.2 33.2 L195.9 35.9 L174.8 41.7 L164.1 39.8 M139.7 151.3 L140.7 152.7" fill="none" stroke="#1f3733" stroke-width="2.7" opacity="0.9" stroke-linecap="round" stroke-linejoin="round"/>
</g>
<g data-layer="minor-road-casing">
<path d="M237.4 310.6 L150.2 297 M345.3 32.2 L266.2 31.2 M102.5 177 L30.2 166.7 M31.1 164.4 L103 174.5 M349.4 71.7 L280.5 72 M351.4 123.1 L414.4 104.1 M347.8 116.4 L408 98.2 M272.9 74.7 L336.5 74.1 M313.7 60.7 L376.8 60.7 M34.5 155.4 L96.2 163.9 M359.8 305.8 L299.2 293.8 M402.1 94.2 L345.1 111.4 M354.1 128.2 L411 111 M333.7 90 L273 90.4 M339.1 166.4 L398.1 160.7 M410.3 170.1 L351.4 175.8 M354.1 310.3 L297.4 299 M410.8 63.2 L366.3 63.5 L353.1 65.8 M366.5 76.5 L308.6 77 M93.4 166.3 L37 158.5 M183.8 183.3 L237.7 179.3 M399.1 166 L347.1 170.9 M221 183 L272.7 178.1 M341.4 104.2 L293.1 118.7 M33.7 160.2 L84.7 167.3 M269.4 114.9 L267 112.4 L257.5 77.8 M365.5 291.3 L391.5 296.3 L407.5 306 L410.7 306.3 M288.1 69.3 L337.6 69.3 M299 124.7 L344.9 111.1 M176.8 168.7 L225.8 164 M296.2 103.4 L295.7 66.6 M383.2 86.9 L334.6 87.3 M74.2 39.9 L77.9 45.6 L74.3 53.6 L76.3 56.4 L89.1 63.3 L89.6 65.9 L85.7 67.4 M147.2 44.1 L148 48.7 L144.8 69.9 L147.9 79.6 M215.7 310.1 L169 302.9 M330 44.1 L319.5 48.6 L297.3 51.5 L285.5 55 M105.6 63.1 L112 60.2 L131 60.2 L150.8 65.1 M190.7 50.6 L189.9 56.2 L186.6 61.5 L155.7 65.6 M357.1 167.4 L403.8 162.8 M280.9 106.1 L280.3 70.8 M252.6 76.2 L296.2 63.2 M344.1 113.9 L301 126.8 M289.6 41.6 L290.3 7.4 M110.6 188.8 L117.1 155.2 M89 146.5 L90.2 155.1 L98.8 156 L96.9 145.3 L89 146.5 M351.8 124 L310.9 136.2 M65.9 73.7 L43.9 70.4 L23.9 75.2 M402.2 19.8 L361.9 31.8 M352.9 126.2 L312.7 138.2 M249.4 183 L243.9 150.8 M220.8 265.6 L225.7 274.5 L239.4 285.9 L248 289.7 M148.2 287.8 L190.5 294.4 M326.2 54 L362.8 43.3 L365.3 44.9 M354.2 128.4 L314.2 140.3 M376.3 118.5 L415.7 106.6 M85 68.7 L43.6 62.5 M89.2 8.2 L84.4 34.2 L78.8 36.3 M308.5 127.1 L347.3 115.5 M66.7 42.4 L65.5 34.4 L61.6 30.4 L63.4 23 L61.3 12.6 M274.7 42.8 L275.7 12 M204.1 173.9 L163.5 177.7 M107.7 69.2 L148.2 69.4 M321.7 79.6 L339.3 52.9 M366.3 71.6 L405.8 70.9 M147.3 8.3 L140 13.5 L126.7 16.4 L113 22.1 M288.4 98.2 L288 68.7 M369 55.5 L329.9 55.7 M334.7 84.7 L295.9 85 M282.4 55.9 L250.6 63.7 L246.2 61.7 M295.9 87.6 L334.6 87.3 M300.4 167.5 L338.7 163.8 M338.7 163.8 L376.9 160.2 M334.8 137.2 L321.3 110.3 M313.4 112.7 L327.3 139.4 M308 114.3 L321.8 140.7 M80.8 70.7 L43.8 65.2 M206.4 33.8 L217.4 24.5 L223.6 9.4 M349 55.7 L349.4 83.9 M350 120.6 L384.7 110.1 M93.9 170.4 L87.7 197.9 M98.5 161.4 L62.5 156.5 M89.7 187.9 L94.6 187.7 L100.4 164.5 M312.1 61.3 L339.3 52.9 L343.8 49.2 M110.3 276.4 L126.8 300.4 M84.9 307.6 L94.3 303.6 L110.3 289.3 M120.3 271.8 L137.1 295.6 M236.7 90.5 L271.7 84.9 M270.4 82.6 L235.5 88.1 M377.2 95.8 L390.2 120.4 M58.5 101.8 L24.4 95.3 M44.5 20.8 L78.8 25.6 M305.1 22.1 L270.4 21.6 M158.8 58.1 L192.7 53.7 M73.4 152.4 L39.6 147.7 M36.4 115.5 L44.5 91 M114.8 185.1 L119.7 160.4 M143.9 10.7 L166.2 29.1 M80.4 304.9 L94.6 298.2 L104.5 288.3 M21.9 102.7 L53.8 108.7 M121.3 30.7 L132.2 26.1 L151.8 22.6 M251.7 174.8 L247.5 150.4 M305.2 17.2 L272.5 16.8 M23.8 100.5 L55.4 106.4 M147.4 50 L141 48.1 L139.3 45 L128 45 L118.9 47.2 M252.3 296 L284.8 295 M292.2 117.8 L321.2 107.8 M148.2 19.6 L130.3 22.9 L118.5 27.8 M281.3 50.9 L275.7 48.1 L297.7 42.3 M43.6 62.5 L13.5 69.7 M325.4 180.1 L323.5 178.5 L320 157.3 M44.3 24.3 L75.2 28.5 M312.9 307.6 L292.6 303.5 L282.9 305.3 M51.8 296.1 L56.5 303 L63.9 301.6 L64 298.7 L60.1 293.1 M366.6 288.2 L391.1 293 L392.7 290.5 L391.5 289.7 M221.1 185.1 L217.5 162 M380 284 L372.3 306.5 M213.9 162.4 L217.7 185.4 M144.1 16.2 L128.6 19.6 L115.7 24.9 M282.9 297.7 L252.1 298.6 M145.2 310.8 L150.4 288.1 M245 84 L271.2 79.8 L270.7 77.4 M303.9 95.4 L273.4 95.6 M261.6 308.4 L260.6 285.7 M134.7 30.8 L123.1 9.9 M275 26.5 L305 26.9 M146.5 310.3 L152.5 288.5 M1.4 118.3 L28.7 127 M110.3 19.3 L124.9 13.1 L137.2 10.4 M133.4 177.2 L104 173.9 M275.7 12 L305.3 12.4 M108.4 184.5 L103.6 183.8 L107.2 165.4 M284.8 152 L307 137.4 M81.8 122.4 L85.5 144.3 M97.9 120.7 L68.7 123.7 M63.1 153.8 L92.1 157.7 M359.8 183 L356 161.1 M315.5 307.7 L323 286.4 M79.6 168 L74.3 189.5 M208.8 154.1 L212.5 175.8 M115.7 24.9 L95.6 40.5 M332.7 95.3 L303.9 95.4 M294.3 184.9 L289.6 163.6 M301.3 100.7 L272.7 100.3 M285.7 310 L291 308.5 L313.7 308.7 M335 312 L342.2 291.3 M304.7 92.8 L333.2 92.6 M379.5 175 L351.9 178.2 M352.1 183.9 L349.3 162.8 M347.1 291 L339 311 M175.4 55.6 L193.9 39.6 M410.5 154.5 L382.4 154.5 M359.4 160.3 L362.9 181.3 M271.2 170.2 L243.3 172.8 M315 87.5 L314.6 66.5 M118.5 27.8 L99.1 42.9 M279.8 292.8 L251.9 293.5 M81.3 95.5 L78.3 84.4 L80.3 75 M366.1 99.1 L376.3 118.5 M409.7 100.7 L383.9 108.4 M47 57.7 L43.2 57.1 L20.5 62.5 M6 74.3 L32.4 67.9 M407.6 38.5 L396.8 57.6 M403 49.6 L376.8 55.4 M122.2 184 L124.1 189.3 L133.6 190.9 L137.4 190 L137.6 185.6 M162.3 42.8 L156.9 62.9 M278.9 287.8 L251.6 288.5 M362.8 159.9 L366.3 180.1 M25.9 90.3 L52.2 95.2 M311 66.5 L338.1 66.4 M208.5 35.4 L190.7 50.6 M252.3 301.2 L279.2 300.3 M251.5 285.9 L278.4 285.2 M338.5 63.6 L311.6 63.8 M270.3 305.6 L269.5 285.5 M279.3 290.2 L252.5 291 M345.3 179.8 L371.8 177.7 M50.1 73.7 L44 72.9 L24.5 77.6 M123.2 60.1 L121.8 53.7 L104.6 53.5 M287.6 179.3 L313.7 176.9 M115.8 87.3 L115.8 81.9 L130.7 73.3 M359.7 90.3 L333.7 90 M354.9 252.3 L353 249.6 L333.4 242.6 M297.2 167.7 L271.2 170.2 M27 106.2 L52.3 111 M247.4 99.1 L252.6 118.2 M381.3 103.5 L405.3 96.1 M166.8 310.6 L172.1 291.6 M248.4 71.3 L260.6 67.5 L266.6 69.4 L270.8 68.5 M238.4 112.9 L235.2 93.8 M258.3 23.9 L258.8 4.7 M127 38 L138.7 32.8 L150.2 30.3 M380.2 29.2 L404.2 23.1 M352.7 125.6 L376.3 118.5 M346.4 113.9 L370 106.8 M272.9 77.3 L298.4 77.1 M240.9 106.7 L215.8 109.1 M84.3 169 L79.7 187.7 M288.1 184.6 L284.3 179.6 L281.9 166.5 M366.1 63.5 L365.3 44.9 M366.3 159.5 L369.4 178.2 M371.8 177.7 L369.8 159.2 M130.8 85.4 L152.8 89.7 L152.8 91.4 M302.6 98.1 L307.9 79.7 M69.5 14.3 L46 21 M100.9 185.2 L76.2 181.8 M184.2 48 L172.9 51.1 L161.6 46.9 M364.6 138.1 L364.4 141.2 L360.6 145.3 L363.4 155.6 M367.5 285.4 L391.5 289.7 M44.7 17.1 L68 10.7 M229.1 158.1 L253.7 155.6 M78.4 8.3 L84.4 26.3 M34 137.4 L35.8 119 M273 98.1 L297.7 98.1 M70.6 78.1 L46.9 83.3 M0 149.9 L23.5 151.1 M402.9 290.8 L399 290.8 L396.4 295.6 L407.3 301.8 M267 112.4 L243.1 116.1 M13.5 108.7 L37.2 113.1 M64.9 166.3 L60.4 184.3 M32.9 70.5 L9.8 76.3 M41.1 9.9 L44.7 17.4 L44 27.6 M266.3 109.7 L242.5 113.5 M386.1 88.3 L406.9 79.3 M280.7 93 L304.7 92.8 M411 111 L402.1 94.2 M381.1 9.4 L404.7 12.5 M107.9 134.2 L84.1 136.5 M83.9 135 L107.7 132.8 M315.4 168.6 L339.1 166.4 M107.4 131.5 L83.7 133.7 M41.3 161.2 L45.6 143.6 M84.9 140.6 L108.5 138.4 M321.9 289.4 L298.9 284.9 M358.2 35.7 L380.2 29.2 M82.5 126.7 L105.9 124.5 M31.2 116.8 L8.3 112.8 M130.8 297.6 L119.9 282 M152.8 91.4 L131 86.7 M105.5 123.2 L82.3 125.4 M117.9 273.3 L128.8 288.8 M275.9 303.2 L252.6 303.5 M47.8 80.5 L70 75.6 M269.7 147.4 L262.3 163.8 M192.9 12.4 L170.3 15.8 M90.9 25.2 L95 8.2 M387.5 38.4 L366.1 44.7 M403.8 147.2 L381.8 152.1 M19.6 114.6 L20.5 112.6 L39.9 116.2 M236.1 151.5 L239 168.5 M293.7 168.1 L297.6 184.9 M44 35.7 L66.3 39 M172.4 166.2 L194.9 164.1 M321.2 107.8 L320.7 106.5 L314.3 108.1 L317.2 105.6 L313.8 101.7 L315.2 100.2 M327.1 143.3 L342 156.1 M293.3 165.5 L270.8 167.5 M50.9 162.6 L55 145.9 M251.1 276.1 L228.5 276.8 M7.1 153.2 L25.9 144 M309.3 98.1 L331.8 97.7 M115.8 39.5 L99.2 28.1 M99.9 122.3 L102.9 138.9 M327.8 162.1 L305.8 164.2 M152.1 166.4 L138.8 167.6 L130.7 165.6 M9.9 161.6 L17.9 160.7 L31.1 164.4 M380 157.7 L382.8 174.1 M107.7 182.3 L111 165.9 M77.2 302.6 L57.6 310.3 M279.8 52.4 L259.2 58.2 M374.6 24.7 L353 24.5 M0 141.3 L21.5 143.5 M89.1 169.7 L85.2 185.9 M94.6 126.9 L97.2 143.2 M47 83.1 L25.9 79.1 M176.1 73.4 L163.8 71.7 L155.3 73.7 M403.7 45.5 L382.9 50.3 M298.9 304.8 L304.4 289.1 M308.7 306.8 L314.3 291.1 M317.5 291.7 L312 307.4 M330.7 294.4 L325.2 310.1 M328.4 310.7 L333.9 295 M110.8 299.1 L110.1 282.9 M294.4 105.2 L286.2 108.8 L274.1 108.8 M305.4 306.1 L311 290.5 M324.1 293.1 L318.6 308.8 M321.9 309.4 L327.3 293.7 M337.3 295.7 L331.7 311.4 M307.7 289.8 L302.2 305.5 M128.1 167.9 L149.5 169.5 M152.6 178.7 L150.8 162.6 M146.6 293.8 L143.1 306.6 L144.8 308.8 M29.2 109.2 L50.1 113.1 M125.4 35.7 L145 29.3 M28.8 124.2 L9.2 117.9 M337.6 156.3 L323.5 144.3 M369.4 298.7 L385 301.7 L385.5 298.5 M72.9 24.8 L67.9 9.3 M69.3 73.1 L48.9 77.6 M346.5 156.2 L332.6 144.1 M169.3 92.2 L190.3 89.9 M131 60.2 L131 53.7 L124.2 46.2" fill="none" stroke="#fbf7eb" stroke-width="3.4" opacity="0.62" stroke-linecap="round" stroke-linejoin="round"/>
</g>
<g data-layer="minor-road">
<path d="M237.4 310.6 L150.2 297 M345.3 32.2 L266.2 31.2 M102.5 177 L30.2 166.7 M31.1 164.4 L103 174.5 M349.4 71.7 L280.5 72 M351.4 123.1 L414.4 104.1 M347.8 116.4 L408 98.2 M272.9 74.7 L336.5 74.1 M313.7 60.7 L376.8 60.7 M34.5 155.4 L96.2 163.9 M359.8 305.8 L299.2 293.8 M402.1 94.2 L345.1 111.4 M354.1 128.2 L411 111 M333.7 90 L273 90.4 M339.1 166.4 L398.1 160.7 M410.3 170.1 L351.4 175.8 M354.1 310.3 L297.4 299 M410.8 63.2 L366.3 63.5 L353.1 65.8 M366.5 76.5 L308.6 77 M93.4 166.3 L37 158.5 M183.8 183.3 L237.7 179.3 M399.1 166 L347.1 170.9 M221 183 L272.7 178.1 M341.4 104.2 L293.1 118.7 M33.7 160.2 L84.7 167.3 M269.4 114.9 L267 112.4 L257.5 77.8 M365.5 291.3 L391.5 296.3 L407.5 306 L410.7 306.3 M288.1 69.3 L337.6 69.3 M299 124.7 L344.9 111.1 M176.8 168.7 L225.8 164 M296.2 103.4 L295.7 66.6 M383.2 86.9 L334.6 87.3 M74.2 39.9 L77.9 45.6 L74.3 53.6 L76.3 56.4 L89.1 63.3 L89.6 65.9 L85.7 67.4 M147.2 44.1 L148 48.7 L144.8 69.9 L147.9 79.6 M215.7 310.1 L169 302.9 M330 44.1 L319.5 48.6 L297.3 51.5 L285.5 55 M105.6 63.1 L112 60.2 L131 60.2 L150.8 65.1 M190.7 50.6 L189.9 56.2 L186.6 61.5 L155.7 65.6 M357.1 167.4 L403.8 162.8 M280.9 106.1 L280.3 70.8 M252.6 76.2 L296.2 63.2 M344.1 113.9 L301 126.8 M289.6 41.6 L290.3 7.4 M110.6 188.8 L117.1 155.2 M89 146.5 L90.2 155.1 L98.8 156 L96.9 145.3 L89 146.5 M351.8 124 L310.9 136.2 M65.9 73.7 L43.9 70.4 L23.9 75.2 M402.2 19.8 L361.9 31.8 M352.9 126.2 L312.7 138.2 M249.4 183 L243.9 150.8 M220.8 265.6 L225.7 274.5 L239.4 285.9 L248 289.7 M148.2 287.8 L190.5 294.4 M326.2 54 L362.8 43.3 L365.3 44.9 M354.2 128.4 L314.2 140.3 M376.3 118.5 L415.7 106.6 M85 68.7 L43.6 62.5 M89.2 8.2 L84.4 34.2 L78.8 36.3 M308.5 127.1 L347.3 115.5 M66.7 42.4 L65.5 34.4 L61.6 30.4 L63.4 23 L61.3 12.6 M274.7 42.8 L275.7 12 M204.1 173.9 L163.5 177.7 M107.7 69.2 L148.2 69.4 M321.7 79.6 L339.3 52.9 M366.3 71.6 L405.8 70.9 M147.3 8.3 L140 13.5 L126.7 16.4 L113 22.1 M288.4 98.2 L288 68.7 M369 55.5 L329.9 55.7 M334.7 84.7 L295.9 85 M282.4 55.9 L250.6 63.7 L246.2 61.7 M295.9 87.6 L334.6 87.3 M300.4 167.5 L338.7 163.8 M338.7 163.8 L376.9 160.2 M334.8 137.2 L321.3 110.3 M313.4 112.7 L327.3 139.4 M308 114.3 L321.8 140.7 M80.8 70.7 L43.8 65.2 M206.4 33.8 L217.4 24.5 L223.6 9.4 M349 55.7 L349.4 83.9 M350 120.6 L384.7 110.1 M93.9 170.4 L87.7 197.9 M98.5 161.4 L62.5 156.5 M89.7 187.9 L94.6 187.7 L100.4 164.5 M312.1 61.3 L339.3 52.9 L343.8 49.2 M110.3 276.4 L126.8 300.4 M84.9 307.6 L94.3 303.6 L110.3 289.3 M120.3 271.8 L137.1 295.6 M236.7 90.5 L271.7 84.9 M270.4 82.6 L235.5 88.1 M377.2 95.8 L390.2 120.4 M58.5 101.8 L24.4 95.3 M44.5 20.8 L78.8 25.6 M305.1 22.1 L270.4 21.6 M158.8 58.1 L192.7 53.7 M73.4 152.4 L39.6 147.7 M36.4 115.5 L44.5 91 M114.8 185.1 L119.7 160.4 M143.9 10.7 L166.2 29.1 M80.4 304.9 L94.6 298.2 L104.5 288.3 M21.9 102.7 L53.8 108.7 M121.3 30.7 L132.2 26.1 L151.8 22.6 M251.7 174.8 L247.5 150.4 M305.2 17.2 L272.5 16.8 M23.8 100.5 L55.4 106.4 M147.4 50 L141 48.1 L139.3 45 L128 45 L118.9 47.2 M252.3 296 L284.8 295 M292.2 117.8 L321.2 107.8 M148.2 19.6 L130.3 22.9 L118.5 27.8 M281.3 50.9 L275.7 48.1 L297.7 42.3 M43.6 62.5 L13.5 69.7 M325.4 180.1 L323.5 178.5 L320 157.3 M44.3 24.3 L75.2 28.5 M312.9 307.6 L292.6 303.5 L282.9 305.3 M51.8 296.1 L56.5 303 L63.9 301.6 L64 298.7 L60.1 293.1 M366.6 288.2 L391.1 293 L392.7 290.5 L391.5 289.7 M221.1 185.1 L217.5 162 M380 284 L372.3 306.5 M213.9 162.4 L217.7 185.4 M144.1 16.2 L128.6 19.6 L115.7 24.9 M282.9 297.7 L252.1 298.6 M145.2 310.8 L150.4 288.1 M245 84 L271.2 79.8 L270.7 77.4 M303.9 95.4 L273.4 95.6 M261.6 308.4 L260.6 285.7 M134.7 30.8 L123.1 9.9 M275 26.5 L305 26.9 M146.5 310.3 L152.5 288.5 M1.4 118.3 L28.7 127 M110.3 19.3 L124.9 13.1 L137.2 10.4 M133.4 177.2 L104 173.9 M275.7 12 L305.3 12.4 M108.4 184.5 L103.6 183.8 L107.2 165.4 M284.8 152 L307 137.4 M81.8 122.4 L85.5 144.3 M97.9 120.7 L68.7 123.7 M63.1 153.8 L92.1 157.7 M359.8 183 L356 161.1 M315.5 307.7 L323 286.4 M79.6 168 L74.3 189.5 M208.8 154.1 L212.5 175.8 M115.7 24.9 L95.6 40.5 M332.7 95.3 L303.9 95.4 M294.3 184.9 L289.6 163.6 M301.3 100.7 L272.7 100.3 M285.7 310 L291 308.5 L313.7 308.7 M335 312 L342.2 291.3 M304.7 92.8 L333.2 92.6 M379.5 175 L351.9 178.2 M352.1 183.9 L349.3 162.8 M347.1 291 L339 311 M175.4 55.6 L193.9 39.6 M410.5 154.5 L382.4 154.5 M359.4 160.3 L362.9 181.3 M271.2 170.2 L243.3 172.8 M315 87.5 L314.6 66.5 M118.5 27.8 L99.1 42.9 M279.8 292.8 L251.9 293.5 M81.3 95.5 L78.3 84.4 L80.3 75 M366.1 99.1 L376.3 118.5 M409.7 100.7 L383.9 108.4 M47 57.7 L43.2 57.1 L20.5 62.5 M6 74.3 L32.4 67.9 M407.6 38.5 L396.8 57.6 M403 49.6 L376.8 55.4 M122.2 184 L124.1 189.3 L133.6 190.9 L137.4 190 L137.6 185.6 M162.3 42.8 L156.9 62.9 M278.9 287.8 L251.6 288.5 M362.8 159.9 L366.3 180.1 M25.9 90.3 L52.2 95.2 M311 66.5 L338.1 66.4 M208.5 35.4 L190.7 50.6 M252.3 301.2 L279.2 300.3 M251.5 285.9 L278.4 285.2 M338.5 63.6 L311.6 63.8 M270.3 305.6 L269.5 285.5 M279.3 290.2 L252.5 291 M345.3 179.8 L371.8 177.7 M50.1 73.7 L44 72.9 L24.5 77.6 M123.2 60.1 L121.8 53.7 L104.6 53.5 M287.6 179.3 L313.7 176.9 M115.8 87.3 L115.8 81.9 L130.7 73.3 M359.7 90.3 L333.7 90 M354.9 252.3 L353 249.6 L333.4 242.6 M297.2 167.7 L271.2 170.2 M27 106.2 L52.3 111 M247.4 99.1 L252.6 118.2 M381.3 103.5 L405.3 96.1 M166.8 310.6 L172.1 291.6 M248.4 71.3 L260.6 67.5 L266.6 69.4 L270.8 68.5 M238.4 112.9 L235.2 93.8 M258.3 23.9 L258.8 4.7 M127 38 L138.7 32.8 L150.2 30.3 M380.2 29.2 L404.2 23.1 M352.7 125.6 L376.3 118.5 M346.4 113.9 L370 106.8 M272.9 77.3 L298.4 77.1 M240.9 106.7 L215.8 109.1 M84.3 169 L79.7 187.7 M288.1 184.6 L284.3 179.6 L281.9 166.5 M366.1 63.5 L365.3 44.9 M366.3 159.5 L369.4 178.2 M371.8 177.7 L369.8 159.2 M130.8 85.4 L152.8 89.7 L152.8 91.4 M302.6 98.1 L307.9 79.7 M69.5 14.3 L46 21 M100.9 185.2 L76.2 181.8 M184.2 48 L172.9 51.1 L161.6 46.9 M364.6 138.1 L364.4 141.2 L360.6 145.3 L363.4 155.6 M367.5 285.4 L391.5 289.7 M44.7 17.1 L68 10.7 M229.1 158.1 L253.7 155.6 M78.4 8.3 L84.4 26.3 M34 137.4 L35.8 119 M273 98.1 L297.7 98.1 M70.6 78.1 L46.9 83.3 M0 149.9 L23.5 151.1 M402.9 290.8 L399 290.8 L396.4 295.6 L407.3 301.8 M267 112.4 L243.1 116.1 M13.5 108.7 L37.2 113.1 M64.9 166.3 L60.4 184.3 M32.9 70.5 L9.8 76.3 M41.1 9.9 L44.7 17.4 L44 27.6 M266.3 109.7 L242.5 113.5 M386.1 88.3 L406.9 79.3 M280.7 93 L304.7 92.8 M411 111 L402.1 94.2 M381.1 9.4 L404.7 12.5 M107.9 134.2 L84.1 136.5 M83.9 135 L107.7 132.8 M315.4 168.6 L339.1 166.4 M107.4 131.5 L83.7 133.7 M41.3 161.2 L45.6 143.6 M84.9 140.6 L108.5 138.4 M321.9 289.4 L298.9 284.9 M358.2 35.7 L380.2 29.2 M82.5 126.7 L105.9 124.5 M31.2 116.8 L8.3 112.8 M130.8 297.6 L119.9 282 M152.8 91.4 L131 86.7 M105.5 123.2 L82.3 125.4 M117.9 273.3 L128.8 288.8 M275.9 303.2 L252.6 303.5 M47.8 80.5 L70 75.6 M269.7 147.4 L262.3 163.8 M192.9 12.4 L170.3 15.8 M90.9 25.2 L95 8.2 M387.5 38.4 L366.1 44.7 M403.8 147.2 L381.8 152.1 M19.6 114.6 L20.5 112.6 L39.9 116.2 M236.1 151.5 L239 168.5 M293.7 168.1 L297.6 184.9 M44 35.7 L66.3 39 M172.4 166.2 L194.9 164.1 M321.2 107.8 L320.7 106.5 L314.3 108.1 L317.2 105.6 L313.8 101.7 L315.2 100.2 M327.1 143.3 L342 156.1 M293.3 165.5 L270.8 167.5 M50.9 162.6 L55 145.9 M251.1 276.1 L228.5 276.8 M7.1 153.2 L25.9 144 M309.3 98.1 L331.8 97.7 M115.8 39.5 L99.2 28.1 M99.9 122.3 L102.9 138.9 M327.8 162.1 L305.8 164.2 M152.1 166.4 L138.8 167.6 L130.7 165.6 M9.9 161.6 L17.9 160.7 L31.1 164.4 M380 157.7 L382.8 174.1 M107.7 182.3 L111 165.9 M77.2 302.6 L57.6 310.3 M279.8 52.4 L259.2 58.2 M374.6 24.7 L353 24.5 M0 141.3 L21.5 143.5 M89.1 169.7 L85.2 185.9 M94.6 126.9 L97.2 143.2 M47 83.1 L25.9 79.1 M176.1 73.4 L163.8 71.7 L155.3 73.7 M403.7 45.5 L382.9 50.3 M298.9 304.8 L304.4 289.1 M308.7 306.8 L314.3 291.1 M317.5 291.7 L312 307.4 M330.7 294.4 L325.2 310.1 M328.4 310.7 L333.9 295 M110.8 299.1 L110.1 282.9 M294.4 105.2 L286.2 108.8 L274.1 108.8 M305.4 306.1 L311 290.5 M324.1 293.1 L318.6 308.8 M321.9 309.4 L327.3 293.7 M337.3 295.7 L331.7 311.4 M307.7 289.8 L302.2 305.5 M128.1 167.9 L149.5 169.5 M152.6 178.7 L150.8 162.6 M146.6 293.8 L143.1 306.6 L144.8 308.8 M29.2 109.2 L50.1 113.1 M125.4 35.7 L145 29.3 M28.8 124.2 L9.2 117.9 M337.6 156.3 L323.5 144.3 M369.4 298.7 L385 301.7 L385.5 298.5 M72.9 24.8 L67.9 9.3 M69.3 73.1 L48.9 77.6 M346.5 156.2 L332.6 144.1 M169.3 92.2 L190.3 89.9 M131 60.2 L131 53.7 L124.2 46.2" fill="none" stroke="#69776e" stroke-width="1.25" opacity="0.58" stroke-linecap="round" stroke-linejoin="round"/>
</g>
</g>
<g data-layer="north-up-compass" fill="none" stroke="#233934" stroke-linecap="round" stroke-linejoin="round" opacity="0.62">
<path d="M382 48L382 23" stroke-width="1.8"/>
<path d="M382 23L373 39M382 23L391 39" stroke-width="1.8"/>
<circle cx="382" cy="48" r="13" stroke-width="1.1" opacity="0.38"/>
</g>
<rect x="8" y="8" width="404" height="304" rx="16" fill="none" stroke="#233934" stroke-width="1.4" opacity="0.44"/>
</svg>
