<svg xmlns="http://www.w3.org/2000/svg" viewBox="0 0 420 320" role="img" aria-label="Unlabeled north-up street-grid crop" data-orientation="north-up">
<metadata>{"orientation":"north-up","projection":"local-web-mercator"}</metadata>
<defs>
<clipPath id="mapCrop"><rect x="8" y="8" width="404" height="304" rx="16"/></clipPath>
</defs>
<rect width="420" height="320" fill="#ede7d8"/>
<rect x="8" y="8" width="404" height="304" rx="16" fill="#f7f1e3" stroke="#d8cbb2" stroke-width="1.25"/>
<g clip-path="url(#mapCrop)">
<g data-layer="major-road-casing">
<path d="M242.9 305 L239.7 319.6 L225.3 320 L415.8 320" fill="none" stroke="#fcf7e8" stroke-width="6.4" opacity="0.92" stroke-linecap="round" stroke-linejoin="round"/>
<path d="M366.6 53.1 L380.1 53.3 L385.8 49.9 L390.5 32.9 L391.1 20 L397.6 16.3 L418.7 14.2 L420 0" fill="none" stroke="#fcf7e8" stroke-width="6.4" opacity="0.92" stroke-linecap="round" stroke-linejoin="round"/>
<path d="M420 0 L420 13.2 L393 18.6 L390.3 22.7 L390.9 32.9 L386.5 49.9 L381.2 53.7 L372.9 54.1" fill="none" stroke="#fcf7e8" stroke-width="6.4" opacity="0.92" stroke-linecap="round" stroke-linejoin="round"/>
<path d="M372.9 54.1 L324.2 51.3 L314 56.2 L297.4 69.8 L294.6 75.1 L295.9 83.9 L294.7 88.9 L278.1 108.6 L260.6 123.5 L249.8 125.2 L246.4 127.9 L245.7 163.1 L247.2 171.1" fill="none" stroke="#fcf7e8" stroke-width="6.4" opacity="0.92" stroke-linecap="round" stroke-linejoin="round"/>
<path d="M333.2 208.1 L377.7 208.8 L420 217.8 L420 220.6 L420 218.5" fill="none" stroke="#fcf7e8" stroke-width="6.4" opacity="0.92" stroke-linecap="round" stroke-linejoin="round"/>
<path d="M420 218.8 L420 220.9 L376 209 L333.2 208.4" fill="none" stroke="#fcf7e8" stroke-width="6.4" opacity="0.92" stroke-linecap="round" stroke-linejoin="round"/>
<path d="M232.3 159.8 L240.4 161.8 L244.8 159.9 L246.2 127.3 L249.7 124.9 L260.4 123.3 L277.4 108.9 L294.4 88.8 L295.6 71.4 L310.1 58.7 L318.9 52.8 L326.5 50.6 L366.6 53.1" fill="none" stroke="#fcf7e8" stroke-width="6.4" opacity="0.92" stroke-linecap="round" stroke-linejoin="round"/>
<path d="M50.6 177.6 L47.4 183.7 L35.3 188.6 L28.1 189.8 L13.7 187.8 L0.5 191 L0 239.3" fill="none" stroke="#fcf7e8" stroke-width="6.4" opacity="0.92" stroke-linecap="round" stroke-linejoin="round"/>
<path d="M0 238.9 L0.3 190.6 L12.6 187.4 L27.2 189.4 L34.3 188.5 L47.1 183.3 L50 177.5" fill="none" stroke="#fcf7e8" stroke-width="6.4" opacity="0.92" stroke-linecap="round" stroke-linejoin="round"/>
<path d="M139 193.5 L122.5 182.4 L97.5 159.2 L66.4 156.4 L56.8 153.2 L31.7 126.2" fill="none" stroke="#fcf7e8" stroke-width="6.4" opacity="0.92" stroke-linecap="round" stroke-linejoin="round"/>
<path d="M25.8 46.9 L19 41 L18.3 37.4 L25.1 12.7 L31.2 0 L50.5 0" fill="none" stroke="#fcf7e8" stroke-width="6.4" opacity="0.92" stroke-linecap="round" stroke-linejoin="round"/>
<path d="M51 0 L31.6 0 L25.4 12.9 L18.8 36.8 L19.5 40.8 L26.2 46.7" fill="none" stroke="#fcf7e8" stroke-width="6.4" opacity="0.92" stroke-linecap="round" stroke-linejoin="round"/>
<path d="M24.2 119 L0 102.1 L0 98.2 L0 106.5 L0 95.9" fill="none" stroke="#fcf7e8" stroke-width="6.4" opacity="0.92" stroke-linecap="round" stroke-linejoin="round"/>
<path d="M185.8 262 L152.9 258.9 L148.2 260.7 L148.1 295 L142.5 307.3 L144.1 320" fill="none" stroke="#fcf7e8" stroke-width="6.4" opacity="0.92" stroke-linecap="round" stroke-linejoin="round"/>
<path d="M143.7 320 L142.1 306.8 L147.7 295 L147.7 260.6 L152.4 258.4 L182 261.3" fill="none" stroke="#fcf7e8" stroke-width="6.4" opacity="0.92" stroke-linecap="round" stroke-linejoin="round"/>
<path d="M26.2 46.7 L34.1 54.4 L40.1 70.2 L62.8 78.4 L99.4 116.2" fill="none" stroke="#fcf7e8" stroke-width="6.4" opacity="0.92" stroke-linecap="round" stroke-linejoin="round"/>
<path d="M99 116.4 L62.5 78.6 L40.2 70.8 L34.1 55.3 L25.8 46.9" fill="none" stroke="#fcf7e8" stroke-width="6.4" opacity="0.92" stroke-linecap="round" stroke-linejoin="round"/>
<path d="M49.9 146.2 L55.8 152.1 L62.5 155.3 L97.8 159 L129.2 186.5" fill="none" stroke="#fcf7e8" stroke-width="6.4" opacity="0.92" stroke-linecap="round" stroke-linejoin="round"/>
<path d="M117 216 L61.9 252.6 L45.2 259.2" fill="none" stroke="#fcf7e8" stroke-width="6.4" opacity="0.92" stroke-linecap="round" stroke-linejoin="round"/>
<path d="M45.5 257.9 L61.5 252.2 L115.7 215.5" fill="none" stroke="#fcf7e8" stroke-width="6.4" opacity="0.92" stroke-linecap="round" stroke-linejoin="round"/>
<path d="M231.4 310.5 L212.7 308.6 L209.4 306.5 L206.7 296.5 L209.5 280.8 L194.1 259.5" fill="none" stroke="#fcf7e8" stroke-width="6.4" opacity="0.92" stroke-linecap="round" stroke-linejoin="round"/>
<path d="M209.1 206.3 L245.2 206.2 L290.9 208.9" fill="none" stroke="#fcf7e8" stroke-width="6.4" opacity="0.92" stroke-linecap="round" stroke-linejoin="round"/>
<path d="M193.3 250.3 L196.8 193.5" fill="none" stroke="#fcf7e8" stroke-width="6.4" opacity="0.92" stroke-linecap="round" stroke-linejoin="round"/>
<path d="M179.7 157.9 L173.7 156.3 L170.4 147.9 L167.4 145.4 L149.8 144 L120.6 133.7" fill="none" stroke="#fcf7e8" stroke-width="6.4" opacity="0.92" stroke-linecap="round" stroke-linejoin="round"/>
<path d="M0 284.5 L0 273.1 L45.5 257.9" fill="none" stroke="#fcf7e8" stroke-width="6.4" opacity="0.92" stroke-linecap="round" stroke-linejoin="round"/>
<path d="M0 98.9 L0 101.7 L25.9 119.6 L32.2 126" fill="none" stroke="#fcf7e8" stroke-width="6.4" opacity="0.92" stroke-linecap="round" stroke-linejoin="round"/>
<path d="M74.4 301.6 L66.2 295.2 L45.2 261.5" fill="none" stroke="#fcf7e8" stroke-width="6.4" opacity="0.92" stroke-linecap="round" stroke-linejoin="round"/>
<path d="M250.2 262.7 L242.9 305" fill="none" stroke="#fcf7e8" stroke-width="6.4" opacity="0.92" stroke-linecap="round" stroke-linejoin="round"/>
<path d="M290.8 209.2 L236.1 207" fill="none" stroke="#fcf7e8" stroke-width="6.4" opacity="0.92" stroke-linecap="round" stroke-linejoin="round"/>
<path d="M45.2 259.2 L1.3 272.4 L0 274.1" fill="none" stroke="#fcf7e8" stroke-width="6.4" opacity="0.92" stroke-linecap="round" stroke-linejoin="round"/>
<path d="M209.3 206.8 L160.9 209.2" fill="none" stroke="#fcf7e8" stroke-width="6.4" opacity="0.92" stroke-linecap="round" stroke-linejoin="round"/>
<path d="M252 219.2 L250.7 255.4" fill="none" stroke="#fcf7e8" stroke-width="6.4" opacity="0.92" stroke-linecap="round" stroke-linejoin="round"/>
<path d="M250.7 255.4 L249.5 262.8 L246.7 265.1 L213.3 264.6" fill="none" stroke="#fcf7e8" stroke-width="6.4" opacity="0.92" stroke-linecap="round" stroke-linejoin="round"/>
<path d="M74.6 301.3 L118.9 312.3" fill="none" stroke="#fcf7e8" stroke-width="6.4" opacity="0.92" stroke-linecap="round" stroke-linejoin="round"/>
<path d="M116.8 312.1 L74.4 301.6" fill="none" stroke="#fcf7e8" stroke-width="6.4" opacity="0.92" stroke-linecap="round" stroke-linejoin="round"/>
<path d="M122.8 134.2 L148.9 143.5 L161.2 144.1" fill="none" stroke="#fcf7e8" stroke-width="6.4" opacity="0.92" stroke-linecap="round" stroke-linejoin="round"/>
<path d="M247.8 191.5 L248.2 202.4 L251.4 209.4 L252 219.2" fill="none" stroke="#fcf7e8" stroke-width="6.4" opacity="0.92" stroke-linecap="round" stroke-linejoin="round"/>
<path d="M172.3 207 L209.1 206.3" fill="none" stroke="#fcf7e8" stroke-width="6.4" opacity="0.92" stroke-linecap="round" stroke-linejoin="round"/>
<path d="M99.4 116.2 L110.9 127.2 L122.8 134.2" fill="none" stroke="#fcf7e8" stroke-width="6.4" opacity="0.92" stroke-linecap="round" stroke-linejoin="round"/>
<path d="M45.6 261.4 L59.2 283.2" fill="none" stroke="#fcf7e8" stroke-width="6.4" opacity="0.92" stroke-linecap="round" stroke-linejoin="round"/>
<path d="M120.6 133.7 L110.6 127.4 L99 116.4" fill="none" stroke="#fcf7e8" stroke-width="6.4" opacity="0.92" stroke-linecap="round" stroke-linejoin="round"/>
<path d="M59.2 283.2 L67.3 295.9 L74.6 301.3" fill="none" stroke="#fcf7e8" stroke-width="6.4" opacity="0.92" stroke-linecap="round" stroke-linejoin="round"/>
</g>
<g data-layer="major-road">
<path d="M242.9 305 L239.7 319.6 L225.3 320 L415.8 320" fill="none" stroke="#1f3733" stroke-width="2.7" opacity="0.9" stroke-linecap="round" stroke-linejoin="round"/>
<path d="M366.6 53.1 L380.1 53.3 L385.8 49.9 L390.5 32.9 L391.1 20 L397.6 16.3 L418.7 14.2 L420 0" fill="none" stroke="#1f3733" stroke-width="2.7" opacity="0.9" stroke-linecap="round" stroke-linejoin="round"/>
<path d="M420 0 L420 13.2 L393 18.6 L390.3 22.7 L390.9 32.9 L386.5 49.9 L381.2 53.7 L372.9 54.1" fill="none" stroke="#1f3733" stroke-width="2.7" opacity="0.9" stroke-linecap="round" stroke-linejoin="round"/>
<path d="M372.9 54.1 L324.2 51.3 L314 56.2 L297.4 69.8 L294.6 75.1 L295.9 83.9 L294.7 88.9 L278.1 108.6 L260.6 123.5 L249.8 125.2 L246.4 127.9 L245.7 163.1 L247.2 171.1" fill="none" stroke="#1f3733" stroke-width="2.7" opacity="0.9" stroke-linecap="round" stroke-linejoin="round"/>
<path d="M333.2 208.1 L377.7 208.8 L420 217.8 L420 220.6 L420 218.5" fill="none" stroke="#1f3733" stroke-width="2.7" opacity="0.9" stroke-linecap="round" stroke-linejoin="round"/>
<path d="M420 218.8 L420 220.9 L376 209 L333.2 208.4" fill="none" stroke="#1f3733" stroke-width="2.7" opacity="0.9" stroke-linecap="round" stroke-linejoin="round"/>
<path d="M232.3 159.8 L240.4 161.8 L244.8 159.9 L246.2 127.3 L249.7 124.9 L260.4 123.3 L277.4 108.9 L294.4 88.8 L295.6 71.4 L310.1 58.7 L318.9 52.8 L326.5 50.6 L366.6 53.1" fill="none" stroke="#1f3733" stroke-width="2.7" opacity="0.9" stroke-linecap="round" stroke-linejoin="round"/>
<path d="M50.6 177.6 L47.4 183.7 L35.3 188.6 L28.1 189.8 L13.7 187.8 L0.5 191 L0 239.3" fill="none" stroke="#1f3733" stroke-width="2.7" opacity="0.9" stroke-linecap="round" stroke-linejoin="round"/>
<path d="M0 238.9 L0.3 190.6 L12.6 187.4 L27.2 189.4 L34.3 188.5 L47.1 183.3 L50 177.5" fill="none" stroke="#1f3733" stroke-width="2.7" opacity="0.9" stroke-linecap="round" stroke-linejoin="round"/>
<path d="M139 193.5 L122.5 182.4 L97.5 159.2 L66.4 156.4 L56.8 153.2 L31.7 126.2" fill="none" stroke="#1f3733" stroke-width="2.7" opacity="0.9" stroke-linecap="round" stroke-linejoin="round"/>
<path d="M25.8 46.9 L19 41 L18.3 37.4 L25.1 12.7 L31.2 0 L50.5 0" fill="none" stroke="#1f3733" stroke-width="2.7" opacity="0.9" stroke-linecap="round" stroke-linejoin="round"/>
<path d="M51 0 L31.6 0 L25.4 12.9 L18.8 36.8 L19.5 40.8 L26.2 46.7" fill="none" stroke="#1f3733" stroke-width="2.7" opacity="0.9" stroke-linecap="round" stroke-linejoin="round"/>
<path d="M24.2 119 L0 102.1 L0 98.2 L0 106.5 L0 95.9" fill="none" stroke="#1f3733" stroke-width="2.7" opacity="0.9" stroke-linecap="round" stroke-linejoin="round"/>
<path d="M185.8 262 L152.9 258.9 L148.2 260.7 L148.1 295 L142.5 307.3 L144.1 320" fill="none" stroke="#1f3733" stroke-width="2.7" opacity="0.9" stroke-linecap="round" stroke-linejoin="round"/>
<path d="M143.7 320 L142.1 306.8 L147.7 295 L147.7 260.6 L152.4 258.4 L182 261.3" fill="none" stroke="#1f3733" stroke-width="2.7" opacity="0.9" stroke-linecap="round" stroke-linejoin="round"/>
<path d="M26.2 46.7 L34.1 54.4 L40.1 70.2 L62.8 78.4 L99.4 116.2" fill="none" stroke="#1f3733" stroke-width="2.7" opacity="0.9" stroke-linecap="round" stroke-linejoin="round"/>
<path d="M99 116.4 L62.5 78.6 L40.2 70.8 L34.1 55.3 L25.8 46.9" fill="none" stroke="#1f3733" stroke-width="2.7" opacity="0.9" stroke-linecap="round" stroke-linejoin="round"/>
<path d="M49.9 146.2 L55.8 152.1 L62.5 155.3 L97.8 159 L129.2 186.5" fill="none" stroke="#1f3733" stroke-width="2.7" opacity="0.9" stroke-linecap="round" stroke-linejoin="round"/>
<path d="M117 216 L61.9 252.6 L45.2 259.2" fill="none" stroke="#1f3733" stroke-width="2.7" opacity="0.9" stroke-linecap="round" stroke-linejoin="round"/>
<path d="M45.5 257.9 L61.5 252.2 L115.7 215.5" fill="none" stroke="#1f3733" stroke-width="2.7" opacity="0.9" stroke-linecap="round" stroke-linejoin="round"/>
<path d="M231.4 310.5 L212.7 308.6 L209.4 306.5 L206.7 296.5 L209.5 280.8 L194.1 259.5" fill="none" stroke="#1f3733" stroke-width="2.7" opacity="0.9" stroke-linecap="round" stroke-linejoin="round"/>
<path d="M209.1 206.3 L245.2 206.2 L290.9 208.9" fill="none" stroke="#1f3733" stroke-width="2.7" opacity="0.9" stroke-linecap="round" stroke-linejoin="round"/>
<path d="M193.3 250.3 L196.8 193.5" fill="none" stroke="#1f3733" stroke-width="2.7" opacity="0.9" stroke-linecap="round" stroke-linejoin="round"/>
<path d="M179.7 157.9 L173.7 156.3 L170.4 147.9 L167.4 145.4 L149.8 144 L120.6 133.7" fill="none" stroke="#1f3733" stroke-width="2.7" opacity="0.9" stroke-linecap="round" stroke-linejoin="round"/>
<path d="M0 284.5 L0 273.1 L45.5 257.9" fill="none" stroke="#1f3733" stroke-width="2.7" opacity="0.9" stroke-linecap="round" stroke-linejoin="round"/>
<path d="M0 98.9 L0 101.7 L25.9 119.6 L32.2 126" fill="none" stroke="#1f3733" stroke-width="2.7" opacity="0.9" stroke-linecap="round" stroke-linejoin="round"/>
<path d="M74.4 301.6 L66.2 295.2 L45.2 261.5" fill="none" stroke="#1f3733" stroke-width="2.7" opacity="0.9" stroke-linecap="round" stroke-linejoin="round"/>
<path d="M250.2 262.7 L242.9 305" fill="none" stroke="#1f3733" stroke-width="2.7" opacity="0.9" stroke-linecap="round" stroke-linejoin="round"/>
<path d="M290.8 209.2 L236.1 207" fill="none" stroke="#1f3733" stroke-width="2.7" opacity="0.9" stroke-linecap="round" stroke-linejoin="round"/>
<path d="M45.2 259.2 L1.3 272.4 L0 274.1" fill="none" stroke="#1f3733" stroke-width="2.7" opacity="0.9" stroke-linecap="round" stroke-linejoin="round"/>
<path d="M209.3 206.8 L160.9 209.2" fill="none" stroke="#1f3733" stroke-width="2.7" opacity="0.9" stroke-linecap="round" stroke-linejoin="round"/>
<path d="M252 219.2 L250.7 255.4" fill="none" stroke="#1f3733" stroke-width="2.7" opacity="0.9" stroke-linecap="round" stroke-linejoin="round"/>
<path d="M250.7 255.4 L249.5 262.8 L246.7 265.1 L213.3 264.6" fill="none" stroke="#1f3733" stroke-width="2.7" opacity="0.9" stroke-linecap="round" stroke-linejoin="round"/>
<path d="M74.6 301.3 L118.9 312.3" fill="none" stroke="#1f3733" stroke-width="2.7" opacity="0.9" stroke-linecap="round" stroke-linejoin="round"/>
<path d="M116.8 312.1 L74.4 301.6" fill="none" stroke="#1f3733" stroke-width="2.7" opacity="0.9" stroke-linecap="round" stroke-linejoin="round"/>
<path d="M122.8 134.2 L148.9 143.5 L161.2 144.1" fill="none" stroke="#1f3733" stroke-width="2.7" opacity="0.9" stroke-linecap="round" stroke-linejoin="round"/>
<path d="M247.8 191.5 L248.2 202.4 L251.4 209.4 L252 219.2" fill="none" stroke="#1f3733" stroke-width="2.7" opacity="0.9" stroke-linecap="round" stroke-linejoin="round"/>
<path d="M172.3 207 L209.1 206.3" fill="none" stroke="#1f3733" stroke-width="2.7" opacity="0.9" stroke-linecap="round" stroke-linejoin="round"/>
<path d="M99.4 116.2 L110.9 127.2 L122.8 134.2" fill="none" stroke="#1f3733" stroke-width="2.7" opacity="0.9" stroke-linecap="round" stroke-linejoin="round"/>
<path d="M45.6 261.4 L59.2 283.2" fill="none" stroke="#1f3733" stroke-width="2.7" opacity="0.9" stroke-linecap="round" stroke-linejoin="round"/>
<path d="M120.6 133.7 L110.6 127.4 L99 116.4" fill="none" stroke="#1f3733" stroke-width="2.7" opacity="0.9" stroke-linecap="round" stroke-linejoin="round"/>
<path d="M59.2 283.2 L67.3 295.9 L74.6 301.3" fill="none" stroke="#1f3733" stroke-width="2.7" opacity="0.9" stroke-linecap="round" stroke-linejoin="round"/>
</g>
</g>
<g data-layer="north-up-compass" fill="none" stroke="#233934" stroke-linecap="round" stroke-linejoin="round" opacity="0.62">
<path d="M382 48L382 23" stroke-width="1.8"/>
<path d="M382 23L373 39M382 23L391 39" stroke-width="1.8"/>
<circle cx="382" cy="48" r="13" stroke-width="1.1" opacity="0.38"/>
</g>
<rect x="8" y="8" width="404" height="304" rx="16" fill="none" stroke="#233934" stroke-width="1.4" opacity="0.44"/>
</svg>
