<svg xmlns="http://www.w3.org/2000/svg" viewBox="0 0 420 320" role="img" aria-label="Unlabeled street-grid crop">
<rect width="420" height="320" fill="#f6f3e9"/>
<g opacity="0.22" stroke="#d8d0bd" stroke-width="1">
<path d="M0 0L0 320" fill="none"/>
<path d="M60 0L60 320" fill="none"/>
<path d="M120 0L120 320" fill="none"/>
<path d="M180 0L180 320" fill="none"/>
<path d="M240 0L240 320" fill="none"/>
<path d="M300 0L300 320" fill="none"/>
<path d="M360 0L360 320" fill="none"/>
<path d="M420 0L420 320" fill="none"/>
<path d="M0 0L420 0" fill="none"/>
<path d="M0 54L420 54" fill="none"/>
<path d="M0 108L420 108" fill="none"/>
<path d="M0 162L420 162" fill="none"/>
<path d="M0 216L420 216" fill="none"/>
<path d="M0 270L420 270" fill="none"/>
<path d="M0 324L420 324" fill="none"/>
</g>
<path d="M182.4 316.5 L180.5 295" fill="none" stroke="#fdfbf5" stroke-width="9" stroke-linecap="round" stroke-linejoin="round" opacity="0.95"/>
<path d="M304.3 109.4 L328 105.8 L332.3 101.7 L337.6 90.8 L364.9 72.5" fill="none" stroke="#fdfbf5" stroke-width="9" stroke-linecap="round" stroke-linejoin="round" opacity="0.95"/>
<path d="M90.7 11.6 L71.2 16.7 L35.1 33.5 L25.7 34.2" fill="none" stroke="#fdfbf5" stroke-width="9" stroke-linecap="round" stroke-linejoin="round" opacity="0.95"/>
<path d="M105.1 254 L92.2 269.1 L83.7 270.4 L69.2 268.3 L58.6 272.3 L57.3 276.9 L61.4 287.5 L62.2 295.1 L60.6 299.2 L56.9 301.8" fill="none" stroke="#fdfbf5" stroke-width="9" stroke-linecap="round" stroke-linejoin="round" opacity="0.95"/>
<path d="M55.1 30.7 L58.7 67.7" fill="none" stroke="#fdfbf5" stroke-width="9" stroke-linecap="round" stroke-linejoin="round" opacity="0.95"/>
<path d="M61.5 153 L48.2 148.9 L38.9 143.4 L20.8 144.3 L4.5 141.9" fill="none" stroke="#fdfbf5" stroke-width="9" stroke-linecap="round" stroke-linejoin="round" opacity="0.95"/>
<path d="M328.4 82.7 L328.1 87.7 L323.9 94.4 L308.8 102.4" fill="none" stroke="#fdfbf5" stroke-width="9" stroke-linecap="round" stroke-linejoin="round" opacity="0.95"/>
<path d="M52.2 172.1 L45.8 183.5 L46.4 186.3 L51.9 186.2 L63.9 181.7" fill="none" stroke="#fdfbf5" stroke-width="9" stroke-linecap="round" stroke-linejoin="round" opacity="0.95"/>
<path d="M297.8 109.7 L282.3 131.1" fill="none" stroke="#fdfbf5" stroke-width="9" stroke-linecap="round" stroke-linejoin="round" opacity="0.95"/>
<path d="M109.5 142.2 L94.3 143.3 L82.3 136.6" fill="none" stroke="#fdfbf5" stroke-width="9" stroke-linecap="round" stroke-linejoin="round" opacity="0.95"/>
<path d="M151.6 38.3 L157.1 68.4" fill="none" stroke="#fdfbf5" stroke-width="9" stroke-linecap="round" stroke-linejoin="round" opacity="0.95"/>
<path d="M420 285.8 L420 280.8 L407.4 273.7 L398.4 261.2 L385.6 254.7 L369.7 249.7 L354 249.8 L340.4 247.6 L327.3 250.2 L311.5 248.1 L276.8 230.3 L266.6 223 L253.9 221.1 L247.7 212.9" fill="none" stroke="#fdfbf5" stroke-width="9" stroke-linecap="round" stroke-linejoin="round" opacity="0.95"/>
<path d="M199.4 38.6 L188.9 59.6" fill="none" stroke="#fdfbf5" stroke-width="9" stroke-linecap="round" stroke-linejoin="round" opacity="0.95"/>
<path d="M56.4 24.7 L70.4 17.7 L90.8 12.1" fill="none" stroke="#fdfbf5" stroke-width="9" stroke-linecap="round" stroke-linejoin="round" opacity="0.95"/>
<path d="M221.1 237.5 L217.8 242.5 L213.2 261.2 L189.9 290.8" fill="none" stroke="#fdfbf5" stroke-width="9" stroke-linecap="round" stroke-linejoin="round" opacity="0.95"/>
<path d="M0 165.9 L0 174.3 L15.7 178.5 L35.8 195.9" fill="none" stroke="#fdfbf5" stroke-width="9" stroke-linecap="round" stroke-linejoin="round" opacity="0.95"/>
<path d="M420 11.9 L420 80.5 L405.6 130.4 L398.9 134.6 L394.1 142.7 L394.9 148.9 L420 189.6 L420 250.6 L412.4 261.4 L396.3 267.2 L387.1 274.6 L383.7 283.6 L381.2 320 L362.5 320" fill="none" stroke="#fdfbf5" stroke-width="9" stroke-linecap="round" stroke-linejoin="round" opacity="0.95"/>
<path d="M159.9 247.3 L146.8 232.6 L147 230.3 L139.9 224.8 L139.7 205.7" fill="none" stroke="#fdfbf5" stroke-width="9" stroke-linecap="round" stroke-linejoin="round" opacity="0.95"/>
<path d="M167.2 254.5 L177.6 269.5 L179.8 292.9" fill="none" stroke="#fdfbf5" stroke-width="9" stroke-linecap="round" stroke-linejoin="round" opacity="0.95"/>
<path d="M62.6 292 L58 276.6 L59.1 272.8 L68.7 268.8 L83.5 270.9 L92.1 269.7 L105.7 254.1" fill="none" stroke="#fdfbf5" stroke-width="9" stroke-linecap="round" stroke-linejoin="round" opacity="0.95"/>
<path d="M68.3 301.7 L90.2 301 L108.7 306.5" fill="none" stroke="#fdfbf5" stroke-width="9" stroke-linecap="round" stroke-linejoin="round" opacity="0.95"/>
<path d="M8.4 275.5 L31.4 288.7" fill="none" stroke="#fdfbf5" stroke-width="9" stroke-linecap="round" stroke-linejoin="round" opacity="0.95"/>
<path d="M40.9 198.9 L38.9 204.9 L43.2 219.6" fill="none" stroke="#fdfbf5" stroke-width="9" stroke-linecap="round" stroke-linejoin="round" opacity="0.95"/>
<path d="M0 203.8 L0 208.3 L3 214.1 L18.2 219.2 L23.4 223.7" fill="none" stroke="#fdfbf5" stroke-width="9" stroke-linecap="round" stroke-linejoin="round" opacity="0.95"/>
<path d="M46.6 220.8 L51.8 223.6 L52 235.7 L49.7 243.8 L44.2 249.6" fill="none" stroke="#fdfbf5" stroke-width="9" stroke-linecap="round" stroke-linejoin="round" opacity="0.95"/>
<path d="M105.5 254.5 L115 259.4 L121.1 260.2 L133.2 254.8 L151.1 259 L166.3 252.9" fill="none" stroke="#fdfbf5" stroke-width="9" stroke-linecap="round" stroke-linejoin="round" opacity="0.95"/>
<path d="M165.9 252.5 L150.7 258.6 L133.2 254.3 L121 259.8 L114.9 258.9 L105.7 254.1" fill="none" stroke="#fdfbf5" stroke-width="9" stroke-linecap="round" stroke-linejoin="round" opacity="0.95"/>
<path d="M285.6 166.6 L291.9 159.1 L292.4 155.2 L282 152.3 L276.5 144.2" fill="none" stroke="#fdfbf5" stroke-width="9" stroke-linecap="round" stroke-linejoin="round" opacity="0.95"/>
<path d="M109.6 306.5 L166.9 295.1" fill="none" stroke="#fdfbf5" stroke-width="9" stroke-linecap="round" stroke-linejoin="round" opacity="0.95"/>
<path d="M222 237.5 L236.2 219.7 L247.7 213.7" fill="none" stroke="#fdfbf5" stroke-width="9" stroke-linecap="round" stroke-linejoin="round" opacity="0.95"/>
<path d="M224.2 111.4 L239.9 120.7 L254.4 126.2 L264.6 134.3" fill="none" stroke="#fdfbf5" stroke-width="9" stroke-linecap="round" stroke-linejoin="round" opacity="0.95"/>
<path d="M194.4 159.9 L183.3 157.8 L171.1 160.5 L163.8 155.4 L155.4 153.3" fill="none" stroke="#fdfbf5" stroke-width="9" stroke-linecap="round" stroke-linejoin="round" opacity="0.95"/>
<path d="M221.7 237.8 L209.1 232.4 L200.7 231.1 L179.8 236.3" fill="none" stroke="#fdfbf5" stroke-width="9" stroke-linecap="round" stroke-linejoin="round" opacity="0.95"/>
<path d="M161.1 248.7 L179.8 236.8 L194.7 231.9 L207 232.2 L221.3 238.1" fill="none" stroke="#fdfbf5" stroke-width="9" stroke-linecap="round" stroke-linejoin="round" opacity="0.95"/>
<path d="M212.1 168.9 L231.7 168 L245.7 164.5 L251.2 160.9 L257.8 151.9 L270.5 142.8" fill="none" stroke="#fdfbf5" stroke-width="9" stroke-linecap="round" stroke-linejoin="round" opacity="0.95"/>
<path d="M112.6 89.1 L117.9 91.9 L128.4 102.1 L129.4 105.7 L127 113.5 L130.7 122.7 L136.4 127.6 L140.8 129.8 L145.3 128.8 L147.4 126 L146.7 119.7 L151.1 118 L162.9 124.4 L163.1 129" fill="none" stroke="#fdfbf5" stroke-width="9" stroke-linecap="round" stroke-linejoin="round" opacity="0.95"/>
<path d="M163.6 129 L163.3 124.2 L152.6 117.7 L146 119.6 L146.9 126.1 L144.3 128.9 L140.1 129.3 L132 123.8 L127.3 113.2 L129.7 104.6 L125.6 98.4" fill="none" stroke="#fdfbf5" stroke-width="9" stroke-linecap="round" stroke-linejoin="round" opacity="0.95"/>
<path d="M253 44.8 L285.3 56.3 L306.6 57.6 L317.5 55.4" fill="none" stroke="#fdfbf5" stroke-width="9" stroke-linecap="round" stroke-linejoin="round" opacity="0.95"/>
<path d="M182.1 88.9 L183.4 73.7 L187.9 63.9" fill="none" stroke="#fdfbf5" stroke-width="9" stroke-linecap="round" stroke-linejoin="round" opacity="0.95"/>
<path d="M157.8 69.1 L152.6 40.2" fill="none" stroke="#fdfbf5" stroke-width="9" stroke-linecap="round" stroke-linejoin="round" opacity="0.95"/>
<path d="M4.9 159.1 L40 165.5 L48.3 165.4" fill="none" stroke="#fdfbf5" stroke-width="9" stroke-linecap="round" stroke-linejoin="round" opacity="0.95"/>
<path d="M166.7 178 L162.8 180.6 L155.2 192.3 L146.5 197.9 L142.4 198.4" fill="none" stroke="#fdfbf5" stroke-width="9" stroke-linecap="round" stroke-linejoin="round" opacity="0.95"/>
<path d="M138.1 196.8 L124.8 194.5 L105.2 197.9 L93.6 195.4 L78.4 187.2" fill="none" stroke="#fdfbf5" stroke-width="9" stroke-linecap="round" stroke-linejoin="round" opacity="0.95"/>
<path d="M91.2 113.5 L118.3 131.2 L135.1 138" fill="none" stroke="#fdfbf5" stroke-width="9" stroke-linecap="round" stroke-linejoin="round" opacity="0.95"/>
<path d="M61.5 153 L72.1 154.6 L84.4 161.5 L100.8 164.9" fill="none" stroke="#fdfbf5" stroke-width="9" stroke-linecap="round" stroke-linejoin="round" opacity="0.95"/>
<path d="M4.3 142.2 L30.3 145 L39 143.7 L48.5 149.5 L61.5 153" fill="none" stroke="#fdfbf5" stroke-width="9" stroke-linecap="round" stroke-linejoin="round" opacity="0.95"/>
<path d="M32.9 76 L37 68.6 L40.3 66.8 L67.8 67.6" fill="none" stroke="#fdfbf5" stroke-width="9" stroke-linecap="round" stroke-linejoin="round" opacity="0.95"/>
<path d="M57.6 67.7 L55.5 30.7" fill="none" stroke="#fdfbf5" stroke-width="9" stroke-linecap="round" stroke-linejoin="round" opacity="0.95"/>
<path d="M67.9 67.1 L40.5 66.4 L36.7 68.3 L31.6 75" fill="none" stroke="#fdfbf5" stroke-width="9" stroke-linecap="round" stroke-linejoin="round" opacity="0.95"/>
<path d="M70.5 245.6 L22.9 280.8 L19.3 280.8" fill="none" stroke="#fdfbf5" stroke-width="9" stroke-linecap="round" stroke-linejoin="round" opacity="0.95"/>
<path d="M24.3 283.6 L23.5 281.1 L32.6 273.4 L48.2 263.8 L70.8 245.8" fill="none" stroke="#fdfbf5" stroke-width="9" stroke-linecap="round" stroke-linejoin="round" opacity="0.95"/>
<path d="M197.1 283 L214.7 259.5 L218.2 243 L222 237.5" fill="none" stroke="#fdfbf5" stroke-width="9" stroke-linecap="round" stroke-linejoin="round" opacity="0.95"/>
<path d="M96.5 320 L113.9 300" fill="none" stroke="#fdfbf5" stroke-width="9" stroke-linecap="round" stroke-linejoin="round" opacity="0.95"/>
<path d="M112.1 296.5 L103.6 294.8 L98.1 290.1 L94.3 272.2 L95.7 266.5" fill="none" stroke="#fdfbf5" stroke-width="9" stroke-linecap="round" stroke-linejoin="round" opacity="0.95"/>
<path d="M90.2 270.3 L93.5 272.3 L97.9 290.9 L110.7 298.6" fill="none" stroke="#fdfbf5" stroke-width="9" stroke-linecap="round" stroke-linejoin="round" opacity="0.95"/>
<path d="M246.4 313.4 L215.7 305" fill="none" stroke="#fdfbf5" stroke-width="9" stroke-linecap="round" stroke-linejoin="round" opacity="0.95"/>
<path d="M305.1 36.4 L325.2 36.1 L346.7 27.9" fill="none" stroke="#fdfbf5" stroke-width="9" stroke-linecap="round" stroke-linejoin="round" opacity="0.95"/>
<path d="M391.3 139.1 L364.2 147.7" fill="none" stroke="#fdfbf5" stroke-width="9" stroke-linecap="round" stroke-linejoin="round" opacity="0.95"/>
<path d="M364.7 148.5 L391.5 139.6" fill="none" stroke="#fdfbf5" stroke-width="9" stroke-linecap="round" stroke-linejoin="round" opacity="0.95"/>
<path d="M364.3 71.7 L337.3 90.4 L331.5 102.1 L327.5 105.7 L304.2 109" fill="none" stroke="#fdfbf5" stroke-width="9" stroke-linecap="round" stroke-linejoin="round" opacity="0.95"/>
<path d="M323.8 129 L304.2 122.6 L299.6 112.7" fill="none" stroke="#fdfbf5" stroke-width="9" stroke-linecap="round" stroke-linejoin="round" opacity="0.95"/>
<path d="M298.5 110.4 L303.8 122.7 L323.8 129" fill="none" stroke="#fdfbf5" stroke-width="9" stroke-linecap="round" stroke-linejoin="round" opacity="0.95"/>
<path d="M317.3 55 L306.4 57.1 L284.6 55.9 L240.8 39.3" fill="none" stroke="#fdfbf5" stroke-width="9" stroke-linecap="round" stroke-linejoin="round" opacity="0.95"/>
<path d="M306.9 103.7 L324.3 95.3 L328.7 89 L329.4 82.8" fill="none" stroke="#fdfbf5" stroke-width="9" stroke-linecap="round" stroke-linejoin="round" opacity="0.95"/>
<path d="M259.2 142.5 L243.4 158.5 L226.1 163.6" fill="none" stroke="#fdfbf5" stroke-width="9" stroke-linecap="round" stroke-linejoin="round" opacity="0.95"/>
<path d="M130.3 194.8 L107.6 198.5 L100.1 197.4" fill="none" stroke="#fdfbf5" stroke-width="9" stroke-linecap="round" stroke-linejoin="round" opacity="0.95"/>
<path d="M62.6 138 L54.5 137.1 L22.4 126.6" fill="none" stroke="#fdfbf5" stroke-width="9" stroke-linecap="round" stroke-linejoin="round" opacity="0.95"/>
<path d="M35.2 194.7 L15.6 177.7 L0 171.9 L0 165.2" fill="none" stroke="#fdfbf5" stroke-width="9" stroke-linecap="round" stroke-linejoin="round" opacity="0.95"/>
<path d="M270 142.5 L257.1 152 L249.7 161.8 L241.3 165.5" fill="none" stroke="#fdfbf5" stroke-width="9" stroke-linecap="round" stroke-linejoin="round" opacity="0.95"/>
<path d="M141.8 200.8 L149.3 198.9 L164.5 189.2 L176.6 174.2" fill="none" stroke="#fdfbf5" stroke-width="9" stroke-linecap="round" stroke-linejoin="round" opacity="0.95"/>
<path d="M272.3 141.1 L287.4 126.7 L295.9 112.9" fill="none" stroke="#fdfbf5" stroke-width="9" stroke-linecap="round" stroke-linejoin="round" opacity="0.95"/>
<path d="M111.9 177.5 L89.9 177.4 L81.5 174.6" fill="none" stroke="#fdfbf5" stroke-width="9" stroke-linecap="round" stroke-linejoin="round" opacity="0.95"/>
<path d="M182.4 316.5 L180.5 295" fill="none" stroke="#1e3432" stroke-width="4.8" stroke-linecap="round" stroke-linejoin="round" opacity="0.94"/>
<path d="M304.3 109.4 L328 105.8 L332.3 101.7 L337.6 90.8 L364.9 72.5" fill="none" stroke="#1e3432" stroke-width="4.8" stroke-linecap="round" stroke-linejoin="round" opacity="0.94"/>
<path d="M90.7 11.6 L71.2 16.7 L35.1 33.5 L25.7 34.2" fill="none" stroke="#1e3432" stroke-width="4.8" stroke-linecap="round" stroke-linejoin="round" opacity="0.94"/>
<path d="M105.1 254 L92.2 269.1 L83.7 270.4 L69.2 268.3 L58.6 272.3 L57.3 276.9 L61.4 287.5 L62.2 295.1 L60.6 299.2 L56.9 301.8" fill="none" stroke="#1e3432" stroke-width="4.8" stroke-linecap="round" stroke-linejoin="round" opacity="0.94"/>
<path d="M55.1 30.7 L58.7 67.7" fill="none" stroke="#1e3432" stroke-width="4.8" stroke-linecap="round" stroke-linejoin="round" opacity="0.94"/>
<path d="M61.5 153 L48.2 148.9 L38.9 143.4 L20.8 144.3 L4.5 141.9" fill="none" stroke="#1e3432" stroke-width="4.8" stroke-linecap="round" stroke-linejoin="round" opacity="0.94"/>
<path d="M328.4 82.7 L328.1 87.7 L323.9 94.4 L308.8 102.4" fill="none" stroke="#1e3432" stroke-width="4.8" stroke-linecap="round" stroke-linejoin="round" opacity="0.94"/>
<path d="M52.2 172.1 L45.8 183.5 L46.4 186.3 L51.9 186.2 L63.9 181.7" fill="none" stroke="#1e3432" stroke-width="4.8" stroke-linecap="round" stroke-linejoin="round" opacity="0.94"/>
<path d="M297.8 109.7 L282.3 131.1" fill="none" stroke="#1e3432" stroke-width="4.8" stroke-linecap="round" stroke-linejoin="round" opacity="0.94"/>
<path d="M109.5 142.2 L94.3 143.3 L82.3 136.6" fill="none" stroke="#1e3432" stroke-width="4.8" stroke-linecap="round" stroke-linejoin="round" opacity="0.94"/>
<path d="M151.6 38.3 L157.1 68.4" fill="none" stroke="#1e3432" stroke-width="4.8" stroke-linecap="round" stroke-linejoin="round" opacity="0.94"/>
<path d="M420 285.8 L420 280.8 L407.4 273.7 L398.4 261.2 L385.6 254.7 L369.7 249.7 L354 249.8 L340.4 247.6 L327.3 250.2 L311.5 248.1 L276.8 230.3 L266.6 223 L253.9 221.1 L247.7 212.9" fill="none" stroke="#1e3432" stroke-width="4.8" stroke-linecap="round" stroke-linejoin="round" opacity="0.94"/>
<path d="M199.4 38.6 L188.9 59.6" fill="none" stroke="#1e3432" stroke-width="4.8" stroke-linecap="round" stroke-linejoin="round" opacity="0.94"/>
<path d="M56.4 24.7 L70.4 17.7 L90.8 12.1" fill="none" stroke="#1e3432" stroke-width="4.8" stroke-linecap="round" stroke-linejoin="round" opacity="0.94"/>
<path d="M221.1 237.5 L217.8 242.5 L213.2 261.2 L189.9 290.8" fill="none" stroke="#1e3432" stroke-width="4.8" stroke-linecap="round" stroke-linejoin="round" opacity="0.94"/>
<path d="M0 165.9 L0 174.3 L15.7 178.5 L35.8 195.9" fill="none" stroke="#1e3432" stroke-width="4.8" stroke-linecap="round" stroke-linejoin="round" opacity="0.94"/>
<path d="M420 11.9 L420 80.5 L405.6 130.4 L398.9 134.6 L394.1 142.7 L394.9 148.9 L420 189.6 L420 250.6 L412.4 261.4 L396.3 267.2 L387.1 274.6 L383.7 283.6 L381.2 320 L362.5 320" fill="none" stroke="#1e3432" stroke-width="4.8" stroke-linecap="round" stroke-linejoin="round" opacity="0.94"/>
<path d="M159.9 247.3 L146.8 232.6 L147 230.3 L139.9 224.8 L139.7 205.7" fill="none" stroke="#1e3432" stroke-width="4.8" stroke-linecap="round" stroke-linejoin="round" opacity="0.94"/>
<path d="M167.2 254.5 L177.6 269.5 L179.8 292.9" fill="none" stroke="#1e3432" stroke-width="4.8" stroke-linecap="round" stroke-linejoin="round" opacity="0.94"/>
<path d="M62.6 292 L58 276.6 L59.1 272.8 L68.7 268.8 L83.5 270.9 L92.1 269.7 L105.7 254.1" fill="none" stroke="#1e3432" stroke-width="4.8" stroke-linecap="round" stroke-linejoin="round" opacity="0.94"/>
<path d="M68.3 301.7 L90.2 301 L108.7 306.5" fill="none" stroke="#1e3432" stroke-width="4.8" stroke-linecap="round" stroke-linejoin="round" opacity="0.94"/>
<path d="M8.4 275.5 L31.4 288.7" fill="none" stroke="#1e3432" stroke-width="4.8" stroke-linecap="round" stroke-linejoin="round" opacity="0.94"/>
<path d="M40.9 198.9 L38.9 204.9 L43.2 219.6" fill="none" stroke="#1e3432" stroke-width="4.8" stroke-linecap="round" stroke-linejoin="round" opacity="0.94"/>
<path d="M0 203.8 L0 208.3 L3 214.1 L18.2 219.2 L23.4 223.7" fill="none" stroke="#1e3432" stroke-width="4.8" stroke-linecap="round" stroke-linejoin="round" opacity="0.94"/>
<path d="M46.6 220.8 L51.8 223.6 L52 235.7 L49.7 243.8 L44.2 249.6" fill="none" stroke="#1e3432" stroke-width="4.8" stroke-linecap="round" stroke-linejoin="round" opacity="0.94"/>
<path d="M105.5 254.5 L115 259.4 L121.1 260.2 L133.2 254.8 L151.1 259 L166.3 252.9" fill="none" stroke="#1e3432" stroke-width="4.8" stroke-linecap="round" stroke-linejoin="round" opacity="0.94"/>
<path d="M165.9 252.5 L150.7 258.6 L133.2 254.3 L121 259.8 L114.9 258.9 L105.7 254.1" fill="none" stroke="#1e3432" stroke-width="4.8" stroke-linecap="round" stroke-linejoin="round" opacity="0.94"/>
<path d="M285.6 166.6 L291.9 159.1 L292.4 155.2 L282 152.3 L276.5 144.2" fill="none" stroke="#1e3432" stroke-width="4.8" stroke-linecap="round" stroke-linejoin="round" opacity="0.94"/>
<path d="M109.6 306.5 L166.9 295.1" fill="none" stroke="#1e3432" stroke-width="4.8" stroke-linecap="round" stroke-linejoin="round" opacity="0.94"/>
<path d="M222 237.5 L236.2 219.7 L247.7 213.7" fill="none" stroke="#1e3432" stroke-width="4.8" stroke-linecap="round" stroke-linejoin="round" opacity="0.94"/>
<path d="M224.2 111.4 L239.9 120.7 L254.4 126.2 L264.6 134.3" fill="none" stroke="#1e3432" stroke-width="4.8" stroke-linecap="round" stroke-linejoin="round" opacity="0.94"/>
<path d="M194.4 159.9 L183.3 157.8 L171.1 160.5 L163.8 155.4 L155.4 153.3" fill="none" stroke="#1e3432" stroke-width="4.8" stroke-linecap="round" stroke-linejoin="round" opacity="0.94"/>
<path d="M221.7 237.8 L209.1 232.4 L200.7 231.1 L179.8 236.3" fill="none" stroke="#1e3432" stroke-width="4.8" stroke-linecap="round" stroke-linejoin="round" opacity="0.94"/>
<path d="M161.1 248.7 L179.8 236.8 L194.7 231.9 L207 232.2 L221.3 238.1" fill="none" stroke="#1e3432" stroke-width="4.8" stroke-linecap="round" stroke-linejoin="round" opacity="0.94"/>
<path d="M212.1 168.9 L231.7 168 L245.7 164.5 L251.2 160.9 L257.8 151.9 L270.5 142.8" fill="none" stroke="#1e3432" stroke-width="4.8" stroke-linecap="round" stroke-linejoin="round" opacity="0.94"/>
<path d="M112.6 89.1 L117.9 91.9 L128.4 102.1 L129.4 105.7 L127 113.5 L130.7 122.7 L136.4 127.6 L140.8 129.8 L145.3 128.8 L147.4 126 L146.7 119.7 L151.1 118 L162.9 124.4 L163.1 129" fill="none" stroke="#1e3432" stroke-width="4.8" stroke-linecap="round" stroke-linejoin="round" opacity="0.94"/>
<path d="M163.6 129 L163.3 124.2 L152.6 117.7 L146 119.6 L146.9 126.1 L144.3 128.9 L140.1 129.3 L132 123.8 L127.3 113.2 L129.7 104.6 L125.6 98.4" fill="none" stroke="#1e3432" stroke-width="4.8" stroke-linecap="round" stroke-linejoin="round" opacity="0.94"/>
<path d="M253 44.8 L285.3 56.3 L306.6 57.6 L317.5 55.4" fill="none" stroke="#1e3432" stroke-width="4.8" stroke-linecap="round" stroke-linejoin="round" opacity="0.94"/>
<path d="M182.1 88.9 L183.4 73.7 L187.9 63.9" fill="none" stroke="#1e3432" stroke-width="4.8" stroke-linecap="round" stroke-linejoin="round" opacity="0.94"/>
<path d="M157.8 69.1 L152.6 40.2" fill="none" stroke="#1e3432" stroke-width="4.8" stroke-linecap="round" stroke-linejoin="round" opacity="0.94"/>
<path d="M4.9 159.1 L40 165.5 L48.3 165.4" fill="none" stroke="#1e3432" stroke-width="4.8" stroke-linecap="round" stroke-linejoin="round" opacity="0.94"/>
<path d="M166.7 178 L162.8 180.6 L155.2 192.3 L146.5 197.9 L142.4 198.4" fill="none" stroke="#1e3432" stroke-width="4.8" stroke-linecap="round" stroke-linejoin="round" opacity="0.94"/>
<path d="M138.1 196.8 L124.8 194.5 L105.2 197.9 L93.6 195.4 L78.4 187.2" fill="none" stroke="#1e3432" stroke-width="4.8" stroke-linecap="round" stroke-linejoin="round" opacity="0.94"/>
<path d="M91.2 113.5 L118.3 131.2 L135.1 138" fill="none" stroke="#1e3432" stroke-width="4.8" stroke-linecap="round" stroke-linejoin="round" opacity="0.94"/>
<path d="M61.5 153 L72.1 154.6 L84.4 161.5 L100.8 164.9" fill="none" stroke="#1e3432" stroke-width="4.8" stroke-linecap="round" stroke-linejoin="round" opacity="0.94"/>
<path d="M4.3 142.2 L30.3 145 L39 143.7 L48.5 149.5 L61.5 153" fill="none" stroke="#1e3432" stroke-width="4.8" stroke-linecap="round" stroke-linejoin="round" opacity="0.94"/>
<path d="M32.9 76 L37 68.6 L40.3 66.8 L67.8 67.6" fill="none" stroke="#1e3432" stroke-width="4.8" stroke-linecap="round" stroke-linejoin="round" opacity="0.94"/>
<path d="M57.6 67.7 L55.5 30.7" fill="none" stroke="#1e3432" stroke-width="4.8" stroke-linecap="round" stroke-linejoin="round" opacity="0.94"/>
<path d="M67.9 67.1 L40.5 66.4 L36.7 68.3 L31.6 75" fill="none" stroke="#1e3432" stroke-width="4.8" stroke-linecap="round" stroke-linejoin="round" opacity="0.94"/>
<path d="M70.5 245.6 L22.9 280.8 L19.3 280.8" fill="none" stroke="#1e3432" stroke-width="4.8" stroke-linecap="round" stroke-linejoin="round" opacity="0.94"/>
<path d="M24.3 283.6 L23.5 281.1 L32.6 273.4 L48.2 263.8 L70.8 245.8" fill="none" stroke="#1e3432" stroke-width="4.8" stroke-linecap="round" stroke-linejoin="round" opacity="0.94"/>
<path d="M197.1 283 L214.7 259.5 L218.2 243 L222 237.5" fill="none" stroke="#1e3432" stroke-width="4.8" stroke-linecap="round" stroke-linejoin="round" opacity="0.94"/>
<path d="M96.5 320 L113.9 300" fill="none" stroke="#1e3432" stroke-width="4.8" stroke-linecap="round" stroke-linejoin="round" opacity="0.94"/>
<path d="M112.1 296.5 L103.6 294.8 L98.1 290.1 L94.3 272.2 L95.7 266.5" fill="none" stroke="#1e3432" stroke-width="4.8" stroke-linecap="round" stroke-linejoin="round" opacity="0.94"/>
<path d="M90.2 270.3 L93.5 272.3 L97.9 290.9 L110.7 298.6" fill="none" stroke="#1e3432" stroke-width="4.8" stroke-linecap="round" stroke-linejoin="round" opacity="0.94"/>
<path d="M246.4 313.4 L215.7 305" fill="none" stroke="#1e3432" stroke-width="4.8" stroke-linecap="round" stroke-linejoin="round" opacity="0.94"/>
<path d="M305.1 36.4 L325.2 36.1 L346.7 27.9" fill="none" stroke="#1e3432" stroke-width="4.8" stroke-linecap="round" stroke-linejoin="round" opacity="0.94"/>
<path d="M391.3 139.1 L364.2 147.7" fill="none" stroke="#1e3432" stroke-width="4.8" stroke-linecap="round" stroke-linejoin="round" opacity="0.94"/>
<path d="M364.7 148.5 L391.5 139.6" fill="none" stroke="#1e3432" stroke-width="4.8" stroke-linecap="round" stroke-linejoin="round" opacity="0.94"/>
<path d="M364.3 71.7 L337.3 90.4 L331.5 102.1 L327.5 105.7 L304.2 109" fill="none" stroke="#1e3432" stroke-width="4.8" stroke-linecap="round" stroke-linejoin="round" opacity="0.94"/>
<path d="M323.8 129 L304.2 122.6 L299.6 112.7" fill="none" stroke="#1e3432" stroke-width="4.8" stroke-linecap="round" stroke-linejoin="round" opacity="0.94"/>
<path d="M298.5 110.4 L303.8 122.7 L323.8 129" fill="none" stroke="#1e3432" stroke-width="4.8" stroke-linecap="round" stroke-linejoin="round" opacity="0.94"/>
<path d="M317.3 55 L306.4 57.1 L284.6 55.9 L240.8 39.3" fill="none" stroke="#1e3432" stroke-width="4.8" stroke-linecap="round" stroke-linejoin="round" opacity="0.94"/>
<path d="M306.9 103.7 L324.3 95.3 L328.7 89 L329.4 82.8" fill="none" stroke="#1e3432" stroke-width="4.8" stroke-linecap="round" stroke-linejoin="round" opacity="0.94"/>
<path d="M259.2 142.5 L243.4 158.5 L226.1 163.6" fill="none" stroke="#1e3432" stroke-width="4.8" stroke-linecap="round" stroke-linejoin="round" opacity="0.94"/>
<path d="M130.3 194.8 L107.6 198.5 L100.1 197.4" fill="none" stroke="#1e3432" stroke-width="4.8" stroke-linecap="round" stroke-linejoin="round" opacity="0.94"/>
<path d="M62.6 138 L54.5 137.1 L22.4 126.6" fill="none" stroke="#1e3432" stroke-width="4.8" stroke-linecap="round" stroke-linejoin="round" opacity="0.94"/>
<path d="M35.2 194.7 L15.6 177.7 L0 171.9 L0 165.2" fill="none" stroke="#1e3432" stroke-width="4.8" stroke-linecap="round" stroke-linejoin="round" opacity="0.94"/>
<path d="M270 142.5 L257.1 152 L249.7 161.8 L241.3 165.5" fill="none" stroke="#1e3432" stroke-width="4.8" stroke-linecap="round" stroke-linejoin="round" opacity="0.94"/>
<path d="M141.8 200.8 L149.3 198.9 L164.5 189.2 L176.6 174.2" fill="none" stroke="#1e3432" stroke-width="4.8" stroke-linecap="round" stroke-linejoin="round" opacity="0.94"/>
<path d="M272.3 141.1 L287.4 126.7 L295.9 112.9" fill="none" stroke="#1e3432" stroke-width="4.8" stroke-linecap="round" stroke-linejoin="round" opacity="0.94"/>
<path d="M111.9 177.5 L89.9 177.4 L81.5 174.6" fill="none" stroke="#1e3432" stroke-width="4.8" stroke-linecap="round" stroke-linejoin="round" opacity="0.94"/>
</svg>
