<svg xmlns="http://www.w3.org/2000/svg" viewBox="0 0 420 320" role="img" aria-label="Unlabeled north-up street-grid crop" data-orientation="north-up">
<metadata>{"orientation":"north-up","projection":"local-web-mercator"}</metadata>
<defs>
<clipPath id="mapCrop"><rect x="8" y="8" width="404" height="304" rx="16"/></clipPath>
</defs>
<rect width="420" height="320" fill="#ede7d8"/>
<rect x="8" y="8" width="404" height="304" rx="16" fill="#f7f1e3" stroke="#d8cbb2" stroke-width="1.25"/>
<g clip-path="url(#mapCrop)">
<g data-layer="major-road-casing">
<path d="M420 300.6 L420 298.2 L390.7 288.4 L372.7 279.2" fill="none" stroke="#fcf7e8" stroke-width="6.4" opacity="0.92" stroke-linecap="round" stroke-linejoin="round"/>
<path d="M362.7 272.4 L381.2 285.1 L420 299 L420 301.3" fill="none" stroke="#fcf7e8" stroke-width="6.4" opacity="0.92" stroke-linecap="round" stroke-linejoin="round"/>
<path d="M168.4 305.6 L166 316 L167.2 320 L169.8 320" fill="none" stroke="#fcf7e8" stroke-width="6.4" opacity="0.92" stroke-linecap="round" stroke-linejoin="round"/>
<path d="M252.6 305.5 L240.3 304.7 L236.7 306.7" fill="none" stroke="#fcf7e8" stroke-width="6.4" opacity="0.92" stroke-linecap="round" stroke-linejoin="round"/>
<path d="M372.7 279.2 L364.4 272.8" fill="none" stroke="#fcf7e8" stroke-width="6.4" opacity="0.92" stroke-linecap="round" stroke-linejoin="round"/>
<path d="M164.1 302.1 L156.7 297.1" fill="none" stroke="#fcf7e8" stroke-width="6.4" opacity="0.92" stroke-linecap="round" stroke-linejoin="round"/>
<path d="M231.6 314.8 L235.9 308.5" fill="none" stroke="#fcf7e8" stroke-width="6.4" opacity="0.92" stroke-linecap="round" stroke-linejoin="round"/>
<path d="M237.6 306.6 L245.7 306.4" fill="none" stroke="#fcf7e8" stroke-width="6.4" opacity="0.92" stroke-linecap="round" stroke-linejoin="round"/>
<path d="M235.6 308.4 L232.2 313.3" fill="none" stroke="#fcf7e8" stroke-width="6.4" opacity="0.92" stroke-linecap="round" stroke-linejoin="round"/>
<path d="M155.9 298 L160.5 301.6" fill="none" stroke="#fcf7e8" stroke-width="6.4" opacity="0.92" stroke-linecap="round" stroke-linejoin="round"/>
<path d="M168.5 309.7 L168.8 304.8" fill="none" stroke="#fcf7e8" stroke-width="6.4" opacity="0.92" stroke-linecap="round" stroke-linejoin="round"/>
<path d="M160.5 301.6 L166.2 303.6" fill="none" stroke="#fcf7e8" stroke-width="6.4" opacity="0.92" stroke-linecap="round" stroke-linejoin="round"/>
<path d="M168.8 304.8 L164.1 302.1" fill="none" stroke="#fcf7e8" stroke-width="6.4" opacity="0.92" stroke-linecap="round" stroke-linejoin="round"/>
<path d="M167.3 313.9 L168.5 309.7" fill="none" stroke="#fcf7e8" stroke-width="6.4" opacity="0.92" stroke-linecap="round" stroke-linejoin="round"/>
<path d="M166.2 303.6 L168.4 305.6" fill="none" stroke="#fcf7e8" stroke-width="6.4" opacity="0.92" stroke-linecap="round" stroke-linejoin="round"/>
<path d="M364.4 272.8 L361.9 270.9" fill="none" stroke="#fcf7e8" stroke-width="6.4" opacity="0.92" stroke-linecap="round" stroke-linejoin="round"/>
<path d="M360.6 270.5 L362.7 272.4" fill="none" stroke="#fcf7e8" stroke-width="6.4" opacity="0.92" stroke-linecap="round" stroke-linejoin="round"/>
<path d="M235.9 308.5 L237.6 306.6" fill="none" stroke="#fcf7e8" stroke-width="6.4" opacity="0.92" stroke-linecap="round" stroke-linejoin="round"/>
<path d="M236.7 306.7 L235.6 308.4" fill="none" stroke="#fcf7e8" stroke-width="6.4" opacity="0.92" stroke-linecap="round" stroke-linejoin="round"/>
<path d="M369.1 2.7 L375.5 29.8 L379.5 37.2" fill="none" stroke="#fcf7e8" stroke-width="6.4" opacity="0.92" stroke-linecap="round" stroke-linejoin="round"/>
<path d="M262.8 304.7 L254.8 306.1 L234.6 303.7" fill="none" stroke="#fcf7e8" stroke-width="6.4" opacity="0.92" stroke-linecap="round" stroke-linejoin="round"/>
<path d="M194.7 305.1 L203.4 305 L221.5 299.1" fill="none" stroke="#fcf7e8" stroke-width="6.4" opacity="0.92" stroke-linecap="round" stroke-linejoin="round"/>
<path d="M374.4 21.2 L369.8 2.6" fill="none" stroke="#fcf7e8" stroke-width="6.4" opacity="0.92" stroke-linecap="round" stroke-linejoin="round"/>
<path d="M248.2 306.1 L260.2 306.2 L270.8 301.4" fill="none" stroke="#fcf7e8" stroke-width="6.4" opacity="0.92" stroke-linecap="round" stroke-linejoin="round"/>
<path d="M313.9 284.9 L331.9 272.7" fill="none" stroke="#fcf7e8" stroke-width="6.4" opacity="0.92" stroke-linecap="round" stroke-linejoin="round"/>
<path d="M224.6 298.9 L217 299.2 L202.5 304.8" fill="none" stroke="#fcf7e8" stroke-width="6.4" opacity="0.92" stroke-linecap="round" stroke-linejoin="round"/>
<path d="M10.5 259.1 L0 249.1" fill="none" stroke="#fcf7e8" stroke-width="6.4" opacity="0.92" stroke-linecap="round" stroke-linejoin="round"/>
<path d="M330.6 272.8 L313.6 284.4" fill="none" stroke="#fcf7e8" stroke-width="6.4" opacity="0.92" stroke-linecap="round" stroke-linejoin="round"/>
<path d="M146.2 294.8 L155.4 297.3 L165.2 303.4" fill="none" stroke="#fcf7e8" stroke-width="6.4" opacity="0.92" stroke-linecap="round" stroke-linejoin="round"/>
<path d="M380.2 36.9 L376.7 30.9 L374.4 21.2" fill="none" stroke="#fcf7e8" stroke-width="6.4" opacity="0.92" stroke-linecap="round" stroke-linejoin="round"/>
<path d="M39.2 267.4 L18.6 262.1" fill="none" stroke="#fcf7e8" stroke-width="6.4" opacity="0.92" stroke-linecap="round" stroke-linejoin="round"/>
<path d="M55.2 2.7 L39.9 13.3" fill="none" stroke="#fcf7e8" stroke-width="6.4" opacity="0.92" stroke-linecap="round" stroke-linejoin="round"/>
<path d="M0 250.9 L10.2 259.5" fill="none" stroke="#fcf7e8" stroke-width="6.4" opacity="0.92" stroke-linecap="round" stroke-linejoin="round"/>
<path d="M393.1 48.6 L380.2 36.9" fill="none" stroke="#fcf7e8" stroke-width="6.4" opacity="0.92" stroke-linecap="round" stroke-linejoin="round"/>
<path d="M40.4 13.7 L55.4 3.5" fill="none" stroke="#fcf7e8" stroke-width="6.4" opacity="0.92" stroke-linecap="round" stroke-linejoin="round"/>
<path d="M169.1 303.8 L187.9 304.7" fill="none" stroke="#fcf7e8" stroke-width="6.4" opacity="0.92" stroke-linecap="round" stroke-linejoin="round"/>
<path d="M230.8 302 L236.8 304.9 L248.2 306.1" fill="none" stroke="#fcf7e8" stroke-width="6.4" opacity="0.92" stroke-linecap="round" stroke-linejoin="round"/>
<path d="M154.8 296.7 L137.7 292.3" fill="none" stroke="#fcf7e8" stroke-width="6.4" opacity="0.92" stroke-linecap="round" stroke-linejoin="round"/>
<path d="M366 260.7 L382.8 256.9" fill="none" stroke="#fcf7e8" stroke-width="6.4" opacity="0.92" stroke-linecap="round" stroke-linejoin="round"/>
<path d="M168.4 303.3 L163 302.2 L154.8 296.7" fill="none" stroke="#fcf7e8" stroke-width="6.4" opacity="0.92" stroke-linecap="round" stroke-linejoin="round"/>
<path d="M413.2 58.9 L400.3 51.9" fill="none" stroke="#fcf7e8" stroke-width="6.4" opacity="0.92" stroke-linecap="round" stroke-linejoin="round"/>
<path d="M33.8 16.9 L19.1 21.9" fill="none" stroke="#fcf7e8" stroke-width="6.4" opacity="0.92" stroke-linecap="round" stroke-linejoin="round"/>
<path d="M306.5 287.5 L292.4 292.7" fill="none" stroke="#fcf7e8" stroke-width="6.4" opacity="0.92" stroke-linecap="round" stroke-linejoin="round"/>
<path d="M293.2 293.1 L307.2 287.9" fill="none" stroke="#fcf7e8" stroke-width="6.4" opacity="0.92" stroke-linecap="round" stroke-linejoin="round"/>
<path d="M400 52.4 L412.5 59.2" fill="none" stroke="#fcf7e8" stroke-width="6.4" opacity="0.92" stroke-linecap="round" stroke-linejoin="round"/>
<path d="M379.5 37.2 L389.2 46.2" fill="none" stroke="#fcf7e8" stroke-width="6.4" opacity="0.92" stroke-linecap="round" stroke-linejoin="round"/>
<path d="M382.4 256.3 L368.3 259.8" fill="none" stroke="#fcf7e8" stroke-width="6.4" opacity="0.92" stroke-linecap="round" stroke-linejoin="round"/>
<path d="M2.5 32.7 L13.1 25.3" fill="none" stroke="#fcf7e8" stroke-width="6.4" opacity="0.92" stroke-linecap="round" stroke-linejoin="round"/>
<path d="M58.7 272.3 L45.1 268.8" fill="none" stroke="#fcf7e8" stroke-width="6.4" opacity="0.92" stroke-linecap="round" stroke-linejoin="round"/>
<path d="M45 269.2 L58.6 272.7" fill="none" stroke="#fcf7e8" stroke-width="6.4" opacity="0.92" stroke-linecap="round" stroke-linejoin="round"/>
<path d="M18.4 262.5 L31.8 265.9" fill="none" stroke="#fcf7e8" stroke-width="6.4" opacity="0.92" stroke-linecap="round" stroke-linejoin="round"/>
<path d="M21.4 21.8 L34.2 17.5" fill="none" stroke="#fcf7e8" stroke-width="6.4" opacity="0.92" stroke-linecap="round" stroke-linejoin="round"/>
<path d="M282.7 296.4 L270.1 301" fill="none" stroke="#fcf7e8" stroke-width="6.4" opacity="0.92" stroke-linecap="round" stroke-linejoin="round"/>
<path d="M270.8 301.4 L283.3 296.9" fill="none" stroke="#fcf7e8" stroke-width="6.4" opacity="0.92" stroke-linecap="round" stroke-linejoin="round"/>
<path d="M71.8 275.6 L58.7 272.3" fill="none" stroke="#fcf7e8" stroke-width="6.4" opacity="0.92" stroke-linecap="round" stroke-linejoin="round"/>
<path d="M113.3 286.5 L100.3 283.1" fill="none" stroke="#fcf7e8" stroke-width="6.4" opacity="0.92" stroke-linecap="round" stroke-linejoin="round"/>
<path d="M58.6 272.7 L71.3 275.9" fill="none" stroke="#fcf7e8" stroke-width="6.4" opacity="0.92" stroke-linecap="round" stroke-linejoin="round"/>
<path d="M19.1 21.9 L8.3 27.7" fill="none" stroke="#fcf7e8" stroke-width="6.4" opacity="0.92" stroke-linecap="round" stroke-linejoin="round"/>
<path d="M101 283.8 L113.1 286.8" fill="none" stroke="#fcf7e8" stroke-width="6.4" opacity="0.92" stroke-linecap="round" stroke-linejoin="round"/>
<path d="M182.4 303.9 L170.7 303.3" fill="none" stroke="#fcf7e8" stroke-width="6.4" opacity="0.92" stroke-linecap="round" stroke-linejoin="round"/>
<path d="M331.9 272.7 L341.5 268.2" fill="none" stroke="#fcf7e8" stroke-width="6.4" opacity="0.92" stroke-linecap="round" stroke-linejoin="round"/>
<path d="M91.1 280.5 L80.5 277.8" fill="none" stroke="#fcf7e8" stroke-width="6.4" opacity="0.92" stroke-linecap="round" stroke-linejoin="round"/>
<path d="M283.3 296.9 L293.2 293.1" fill="none" stroke="#fcf7e8" stroke-width="6.4" opacity="0.92" stroke-linecap="round" stroke-linejoin="round"/>
<path d="M292.4 292.7 L282.7 296.4" fill="none" stroke="#fcf7e8" stroke-width="6.4" opacity="0.92" stroke-linecap="round" stroke-linejoin="round"/>
<path d="M71.3 275.9 L81.2 278.5" fill="none" stroke="#fcf7e8" stroke-width="6.4" opacity="0.92" stroke-linecap="round" stroke-linejoin="round"/>
<path d="M340.9 267.8 L332.1 271.8" fill="none" stroke="#fcf7e8" stroke-width="6.4" opacity="0.92" stroke-linecap="round" stroke-linejoin="round"/>
<path d="M81.2 278.5 L91 280.9" fill="none" stroke="#fcf7e8" stroke-width="6.4" opacity="0.92" stroke-linecap="round" stroke-linejoin="round"/>
<path d="M398.3 247.4 L406 242.5" fill="none" stroke="#fcf7e8" stroke-width="6.4" opacity="0.92" stroke-linecap="round" stroke-linejoin="round"/>
<path d="M131.3 291.2 L141 293.6" fill="none" stroke="#fcf7e8" stroke-width="6.4" opacity="0.92" stroke-linecap="round" stroke-linejoin="round"/>
<path d="M412.8 237.8 L405.2 242.2" fill="none" stroke="#fcf7e8" stroke-width="6.4" opacity="0.92" stroke-linecap="round" stroke-linejoin="round"/>
<path d="M405.2 242.2 L398.2 246.7" fill="none" stroke="#fcf7e8" stroke-width="6.4" opacity="0.92" stroke-linecap="round" stroke-linejoin="round"/>
<path d="M80.5 277.8 L71.8 275.6" fill="none" stroke="#fcf7e8" stroke-width="6.4" opacity="0.92" stroke-linecap="round" stroke-linejoin="round"/>
</g>
<g data-layer="major-road">
<path d="M420 300.6 L420 298.2 L390.7 288.4 L372.7 279.2" fill="none" stroke="#1f3733" stroke-width="2.7" opacity="0.9" stroke-linecap="round" stroke-linejoin="round"/>
<path d="M362.7 272.4 L381.2 285.1 L420 299 L420 301.3" fill="none" stroke="#1f3733" stroke-width="2.7" opacity="0.9" stroke-linecap="round" stroke-linejoin="round"/>
<path d="M168.4 305.6 L166 316 L167.2 320 L169.8 320" fill="none" stroke="#1f3733" stroke-width="2.7" opacity="0.9" stroke-linecap="round" stroke-linejoin="round"/>
<path d="M252.6 305.5 L240.3 304.7 L236.7 306.7" fill="none" stroke="#1f3733" stroke-width="2.7" opacity="0.9" stroke-linecap="round" stroke-linejoin="round"/>
<path d="M372.7 279.2 L364.4 272.8" fill="none" stroke="#1f3733" stroke-width="2.7" opacity="0.9" stroke-linecap="round" stroke-linejoin="round"/>
<path d="M164.1 302.1 L156.7 297.1" fill="none" stroke="#1f3733" stroke-width="2.7" opacity="0.9" stroke-linecap="round" stroke-linejoin="round"/>
<path d="M231.6 314.8 L235.9 308.5" fill="none" stroke="#1f3733" stroke-width="2.7" opacity="0.9" stroke-linecap="round" stroke-linejoin="round"/>
<path d="M237.6 306.6 L245.7 306.4" fill="none" stroke="#1f3733" stroke-width="2.7" opacity="0.9" stroke-linecap="round" stroke-linejoin="round"/>
<path d="M235.6 308.4 L232.2 313.3" fill="none" stroke="#1f3733" stroke-width="2.7" opacity="0.9" stroke-linecap="round" stroke-linejoin="round"/>
<path d="M155.9 298 L160.5 301.6" fill="none" stroke="#1f3733" stroke-width="2.7" opacity="0.9" stroke-linecap="round" stroke-linejoin="round"/>
<path d="M168.5 309.7 L168.8 304.8" fill="none" stroke="#1f3733" stroke-width="2.7" opacity="0.9" stroke-linecap="round" stroke-linejoin="round"/>
<path d="M160.5 301.6 L166.2 303.6" fill="none" stroke="#1f3733" stroke-width="2.7" opacity="0.9" stroke-linecap="round" stroke-linejoin="round"/>
<path d="M168.8 304.8 L164.1 302.1" fill="none" stroke="#1f3733" stroke-width="2.7" opacity="0.9" stroke-linecap="round" stroke-linejoin="round"/>
<path d="M167.3 313.9 L168.5 309.7" fill="none" stroke="#1f3733" stroke-width="2.7" opacity="0.9" stroke-linecap="round" stroke-linejoin="round"/>
<path d="M166.2 303.6 L168.4 305.6" fill="none" stroke="#1f3733" stroke-width="2.7" opacity="0.9" stroke-linecap="round" stroke-linejoin="round"/>
<path d="M364.4 272.8 L361.9 270.9" fill="none" stroke="#1f3733" stroke-width="2.7" opacity="0.9" stroke-linecap="round" stroke-linejoin="round"/>
<path d="M360.6 270.5 L362.7 272.4" fill="none" stroke="#1f3733" stroke-width="2.7" opacity="0.9" stroke-linecap="round" stroke-linejoin="round"/>
<path d="M235.9 308.5 L237.6 306.6" fill="none" stroke="#1f3733" stroke-width="2.7" opacity="0.9" stroke-linecap="round" stroke-linejoin="round"/>
<path d="M236.7 306.7 L235.6 308.4" fill="none" stroke="#1f3733" stroke-width="2.7" opacity="0.9" stroke-linecap="round" stroke-linejoin="round"/>
<path d="M369.1 2.7 L375.5 29.8 L379.5 37.2" fill="none" stroke="#1f3733" stroke-width="2.7" opacity="0.9" stroke-linecap="round" stroke-linejoin="round"/>
<path d="M262.8 304.7 L254.8 306.1 L234.6 303.7" fill="none" stroke="#1f3733" stroke-width="2.7" opacity="0.9" stroke-linecap="round" stroke-linejoin="round"/>
<path d="M194.7 305.1 L203.4 305 L221.5 299.1" fill="none" stroke="#1f3733" stroke-width="2.7" opacity="0.9" stroke-linecap="round" stroke-linejoin="round"/>
<path d="M374.4 21.2 L369.8 2.6" fill="none" stroke="#1f3733" stroke-width="2.7" opacity="0.9" stroke-linecap="round" stroke-linejoin="round"/>
<path d="M248.2 306.1 L260.2 306.2 L270.8 301.4" fill="none" stroke="#1f3733" stroke-width="2.7" opacity="0.9" stroke-linecap="round" stroke-linejoin="round"/>
<path d="M313.9 284.9 L331.9 272.7" fill="none" stroke="#1f3733" stroke-width="2.7" opacity="0.9" stroke-linecap="round" stroke-linejoin="round"/>
<path d="M224.6 298.9 L217 299.2 L202.5 304.8" fill="none" stroke="#1f3733" stroke-width="2.7" opacity="0.9" stroke-linecap="round" stroke-linejoin="round"/>
<path d="M10.5 259.1 L0 249.1" fill="none" stroke="#1f3733" stroke-width="2.7" opacity="0.9" stroke-linecap="round" stroke-linejoin="round"/>
<path d="M330.6 272.8 L313.6 284.4" fill="none" stroke="#1f3733" stroke-width="2.7" opacity="0.9" stroke-linecap="round" stroke-linejoin="round"/>
<path d="M146.2 294.8 L155.4 297.3 L165.2 303.4" fill="none" stroke="#1f3733" stroke-width="2.7" opacity="0.9" stroke-linecap="round" stroke-linejoin="round"/>
<path d="M380.2 36.9 L376.7 30.9 L374.4 21.2" fill="none" stroke="#1f3733" stroke-width="2.7" opacity="0.9" stroke-linecap="round" stroke-linejoin="round"/>
<path d="M39.2 267.4 L18.6 262.1" fill="none" stroke="#1f3733" stroke-width="2.7" opacity="0.9" stroke-linecap="round" stroke-linejoin="round"/>
<path d="M55.2 2.7 L39.9 13.3" fill="none" stroke="#1f3733" stroke-width="2.7" opacity="0.9" stroke-linecap="round" stroke-linejoin="round"/>
<path d="M0 250.9 L10.2 259.5" fill="none" stroke="#1f3733" stroke-width="2.7" opacity="0.9" stroke-linecap="round" stroke-linejoin="round"/>
<path d="M393.1 48.6 L380.2 36.9" fill="none" stroke="#1f3733" stroke-width="2.7" opacity="0.9" stroke-linecap="round" stroke-linejoin="round"/>
<path d="M40.4 13.7 L55.4 3.5" fill="none" stroke="#1f3733" stroke-width="2.7" opacity="0.9" stroke-linecap="round" stroke-linejoin="round"/>
<path d="M169.1 303.8 L187.9 304.7" fill="none" stroke="#1f3733" stroke-width="2.7" opacity="0.9" stroke-linecap="round" stroke-linejoin="round"/>
<path d="M230.8 302 L236.8 304.9 L248.2 306.1" fill="none" stroke="#1f3733" stroke-width="2.7" opacity="0.9" stroke-linecap="round" stroke-linejoin="round"/>
<path d="M154.8 296.7 L137.7 292.3" fill="none" stroke="#1f3733" stroke-width="2.7" opacity="0.9" stroke-linecap="round" stroke-linejoin="round"/>
<path d="M366 260.7 L382.8 256.9" fill="none" stroke="#1f3733" stroke-width="2.7" opacity="0.9" stroke-linecap="round" stroke-linejoin="round"/>
<path d="M168.4 303.3 L163 302.2 L154.8 296.7" fill="none" stroke="#1f3733" stroke-width="2.7" opacity="0.9" stroke-linecap="round" stroke-linejoin="round"/>
<path d="M413.2 58.9 L400.3 51.9" fill="none" stroke="#1f3733" stroke-width="2.7" opacity="0.9" stroke-linecap="round" stroke-linejoin="round"/>
<path d="M33.8 16.9 L19.1 21.9" fill="none" stroke="#1f3733" stroke-width="2.7" opacity="0.9" stroke-linecap="round" stroke-linejoin="round"/>
<path d="M306.5 287.5 L292.4 292.7" fill="none" stroke="#1f3733" stroke-width="2.7" opacity="0.9" stroke-linecap="round" stroke-linejoin="round"/>
<path d="M293.2 293.1 L307.2 287.9" fill="none" stroke="#1f3733" stroke-width="2.7" opacity="0.9" stroke-linecap="round" stroke-linejoin="round"/>
<path d="M400 52.4 L412.5 59.2" fill="none" stroke="#1f3733" stroke-width="2.7" opacity="0.9" stroke-linecap="round" stroke-linejoin="round"/>
<path d="M379.5 37.2 L389.2 46.2" fill="none" stroke="#1f3733" stroke-width="2.7" opacity="0.9" stroke-linecap="round" stroke-linejoin="round"/>
<path d="M382.4 256.3 L368.3 259.8" fill="none" stroke="#1f3733" stroke-width="2.7" opacity="0.9" stroke-linecap="round" stroke-linejoin="round"/>
<path d="M2.5 32.7 L13.1 25.3" fill="none" stroke="#1f3733" stroke-width="2.7" opacity="0.9" stroke-linecap="round" stroke-linejoin="round"/>
<path d="M58.7 272.3 L45.1 268.8" fill="none" stroke="#1f3733" stroke-width="2.7" opacity="0.9" stroke-linecap="round" stroke-linejoin="round"/>
<path d="M45 269.2 L58.6 272.7" fill="none" stroke="#1f3733" stroke-width="2.7" opacity="0.9" stroke-linecap="round" stroke-linejoin="round"/>
<path d="M18.4 262.5 L31.8 265.9" fill="none" stroke="#1f3733" stroke-width="2.7" opacity="0.9" stroke-linecap="round" stroke-linejoin="round"/>
<path d="M21.4 21.8 L34.2 17.5" fill="none" stroke="#1f3733" stroke-width="2.7" opacity="0.9" stroke-linecap="round" stroke-linejoin="round"/>
<path d="M282.7 296.4 L270.1 301" fill="none" stroke="#1f3733" stroke-width="2.7" opacity="0.9" stroke-linecap="round" stroke-linejoin="round"/>
<path d="M270.8 301.4 L283.3 296.9" fill="none" stroke="#1f3733" stroke-width="2.7" opacity="0.9" stroke-linecap="round" stroke-linejoin="round"/>
<path d="M71.8 275.6 L58.7 272.3" fill="none" stroke="#1f3733" stroke-width="2.7" opacity="0.9" stroke-linecap="round" stroke-linejoin="round"/>
<path d="M113.3 286.5 L100.3 283.1" fill="none" stroke="#1f3733" stroke-width="2.7" opacity="0.9" stroke-linecap="round" stroke-linejoin="round"/>
<path d="M58.6 272.7 L71.3 275.9" fill="none" stroke="#1f3733" stroke-width="2.7" opacity="0.9" stroke-linecap="round" stroke-linejoin="round"/>
<path d="M19.1 21.9 L8.3 27.7" fill="none" stroke="#1f3733" stroke-width="2.7" opacity="0.9" stroke-linecap="round" stroke-linejoin="round"/>
<path d="M101 283.8 L113.1 286.8" fill="none" stroke="#1f3733" stroke-width="2.7" opacity="0.9" stroke-linecap="round" stroke-linejoin="round"/>
<path d="M182.4 303.9 L170.7 303.3" fill="none" stroke="#1f3733" stroke-width="2.7" opacity="0.9" stroke-linecap="round" stroke-linejoin="round"/>
<path d="M331.9 272.7 L341.5 268.2" fill="none" stroke="#1f3733" stroke-width="2.7" opacity="0.9" stroke-linecap="round" stroke-linejoin="round"/>
<path d="M91.1 280.5 L80.5 277.8" fill="none" stroke="#1f3733" stroke-width="2.7" opacity="0.9" stroke-linecap="round" stroke-linejoin="round"/>
<path d="M283.3 296.9 L293.2 293.1" fill="none" stroke="#1f3733" stroke-width="2.7" opacity="0.9" stroke-linecap="round" stroke-linejoin="round"/>
<path d="M292.4 292.7 L282.7 296.4" fill="none" stroke="#1f3733" stroke-width="2.7" opacity="0.9" stroke-linecap="round" stroke-linejoin="round"/>
<path d="M71.3 275.9 L81.2 278.5" fill="none" stroke="#1f3733" stroke-width="2.7" opacity="0.9" stroke-linecap="round" stroke-linejoin="round"/>
<path d="M340.9 267.8 L332.1 271.8" fill="none" stroke="#1f3733" stroke-width="2.7" opacity="0.9" stroke-linecap="round" stroke-linejoin="round"/>
<path d="M81.2 278.5 L91 280.9" fill="none" stroke="#1f3733" stroke-width="2.7" opacity="0.9" stroke-linecap="round" stroke-linejoin="round"/>
<path d="M398.3 247.4 L406 242.5" fill="none" stroke="#1f3733" stroke-width="2.7" opacity="0.9" stroke-linecap="round" stroke-linejoin="round"/>
<path d="M131.3 291.2 L141 293.6" fill="none" stroke="#1f3733" stroke-width="2.7" opacity="0.9" stroke-linecap="round" stroke-linejoin="round"/>
<path d="M412.8 237.8 L405.2 242.2" fill="none" stroke="#1f3733" stroke-width="2.7" opacity="0.9" stroke-linecap="round" stroke-linejoin="round"/>
<path d="M405.2 242.2 L398.2 246.7" fill="none" stroke="#1f3733" stroke-width="2.7" opacity="0.9" stroke-linecap="round" stroke-linejoin="round"/>
<path d="M80.5 277.8 L71.8 275.6" fill="none" stroke="#1f3733" stroke-width="2.7" opacity="0.9" stroke-linecap="round" stroke-linejoin="round"/>
</g>
<g data-layer="minor-road-casing">
<path d="M321.8 71.6 L321.6 64.8 L325.6 60.7 L335.3 58.1 L349.9 57.5" fill="none" stroke="#fbf7eb" stroke-width="3.4" opacity="0.62" stroke-linecap="round" stroke-linejoin="round"/>
<path d="M281.3 5.3 L272.8 27.1" fill="none" stroke="#fbf7eb" stroke-width="3.4" opacity="0.62" stroke-linecap="round" stroke-linejoin="round"/>
<path d="M159 252.6 L166.2 274.4" fill="none" stroke="#fbf7eb" stroke-width="3.4" opacity="0.62" stroke-linecap="round" stroke-linejoin="round"/>
<path d="M47.2 113.6 L45.4 91.2" fill="none" stroke="#fbf7eb" stroke-width="3.4" opacity="0.62" stroke-linecap="round" stroke-linejoin="round"/>
<path d="M407 162.9 L381.1 168.1" fill="none" stroke="#fbf7eb" stroke-width="3.4" opacity="0.62" stroke-linecap="round" stroke-linejoin="round"/>
<path d="M237.8 134 L246.3 140.8 L258.2 146.4" fill="none" stroke="#fbf7eb" stroke-width="3.4" opacity="0.62" stroke-linecap="round" stroke-linejoin="round"/>
<path d="M366.1 148.1 L341.7 153.4" fill="none" stroke="#fbf7eb" stroke-width="3.4" opacity="0.62" stroke-linecap="round" stroke-linejoin="round"/>
<path d="M287.5 226.8 L277.6 209.7" fill="none" stroke="#fbf7eb" stroke-width="3.4" opacity="0.62" stroke-linecap="round" stroke-linejoin="round"/>
<path d="M340.8 136.8 L319.1 142.8" fill="none" stroke="#fbf7eb" stroke-width="3.4" opacity="0.62" stroke-linecap="round" stroke-linejoin="round"/>
<path d="M305.3 307.7 L286.9 317.4" fill="none" stroke="#fbf7eb" stroke-width="3.4" opacity="0.62" stroke-linecap="round" stroke-linejoin="round"/>
<path d="M306.3 87.2 L286.5 95.1" fill="none" stroke="#fbf7eb" stroke-width="3.4" opacity="0.62" stroke-linecap="round" stroke-linejoin="round"/>
<path d="M234.9 21.7 L212.7 23.1" fill="none" stroke="#fbf7eb" stroke-width="3.4" opacity="0.62" stroke-linecap="round" stroke-linejoin="round"/>
<path d="M63 182.2 L75.3 168.2" fill="none" stroke="#fbf7eb" stroke-width="3.4" opacity="0.62" stroke-linecap="round" stroke-linejoin="round"/>
<path d="M56 117.1 L77.8 116.2" fill="none" stroke="#fbf7eb" stroke-width="3.4" opacity="0.62" stroke-linecap="round" stroke-linejoin="round"/>
<path d="M156.5 141.2 L147 155.9" fill="none" stroke="#fbf7eb" stroke-width="3.4" opacity="0.62" stroke-linecap="round" stroke-linejoin="round"/>
<path d="M92.7 282.2 L113.2 287.4" fill="none" stroke="#fbf7eb" stroke-width="3.4" opacity="0.62" stroke-linecap="round" stroke-linejoin="round"/>
<path d="M196.4 175 L215.9 180.9" fill="none" stroke="#fbf7eb" stroke-width="3.4" opacity="0.62" stroke-linecap="round" stroke-linejoin="round"/>
<path d="M314.1 286.4 L322.6 300.3" fill="none" stroke="#fbf7eb" stroke-width="3.4" opacity="0.62" stroke-linecap="round" stroke-linejoin="round"/>
<path d="M326.2 81.8 L307.1 86.7" fill="none" stroke="#fbf7eb" stroke-width="3.4" opacity="0.62" stroke-linecap="round" stroke-linejoin="round"/>
<path d="M278 211.1 L285.5 224.5" fill="none" stroke="#fbf7eb" stroke-width="3.4" opacity="0.62" stroke-linecap="round" stroke-linejoin="round"/>
<path d="M120.1 254.5 L109.6 266.7" fill="none" stroke="#fbf7eb" stroke-width="3.4" opacity="0.62" stroke-linecap="round" stroke-linejoin="round"/>
<path d="M300.7 114.1 L318.9 109.1" fill="none" stroke="#fbf7eb" stroke-width="3.4" opacity="0.62" stroke-linecap="round" stroke-linejoin="round"/>
<path d="M374.7 50.6 L367.2 38.1" fill="none" stroke="#fbf7eb" stroke-width="3.4" opacity="0.62" stroke-linecap="round" stroke-linejoin="round"/>
<path d="M338.6 46.3 L349.9 57.5" fill="none" stroke="#fbf7eb" stroke-width="3.4" opacity="0.62" stroke-linecap="round" stroke-linejoin="round"/>
<path d="M71.2 276.7 L89 281.2" fill="none" stroke="#fbf7eb" stroke-width="3.4" opacity="0.62" stroke-linecap="round" stroke-linejoin="round"/>
<path d="M325.3 157.8 L332.1 170.7" fill="none" stroke="#fbf7eb" stroke-width="3.4" opacity="0.62" stroke-linecap="round" stroke-linejoin="round"/>
<path d="M34.2 192.1 L47.1 182" fill="none" stroke="#fbf7eb" stroke-width="3.4" opacity="0.62" stroke-linecap="round" stroke-linejoin="round"/>
<path d="M211.8 58.9 L208.1 72.4" fill="none" stroke="#fbf7eb" stroke-width="3.4" opacity="0.62" stroke-linecap="round" stroke-linejoin="round"/>
<path d="M152.9 316.8 L158.1 303.6" fill="none" stroke="#fbf7eb" stroke-width="3.4" opacity="0.62" stroke-linecap="round" stroke-linejoin="round"/>
<path d="M120.2 280.5 L103 275.9" fill="none" stroke="#fbf7eb" stroke-width="3.4" opacity="0.62" stroke-linecap="round" stroke-linejoin="round"/>
<path d="M87 204.4 L75 214.7" fill="none" stroke="#fbf7eb" stroke-width="3.4" opacity="0.62" stroke-linecap="round" stroke-linejoin="round"/>
<path d="M93.9 149.3 L110.8 154" fill="none" stroke="#fbf7eb" stroke-width="3.4" opacity="0.62" stroke-linecap="round" stroke-linejoin="round"/>
<path d="M86.6 292.1 L81.8 305.1" fill="none" stroke="#fbf7eb" stroke-width="3.4" opacity="0.62" stroke-linecap="round" stroke-linejoin="round"/>
<path d="M157.9 155.8 L163.8 143.1" fill="none" stroke="#fbf7eb" stroke-width="3.4" opacity="0.62" stroke-linecap="round" stroke-linejoin="round"/>
<path d="M279 109.4 L287.2 121.4" fill="none" stroke="#fbf7eb" stroke-width="3.4" opacity="0.62" stroke-linecap="round" stroke-linejoin="round"/>
<path d="M44.1 49 L34.2 37.9" fill="none" stroke="#fbf7eb" stroke-width="3.4" opacity="0.62" stroke-linecap="round" stroke-linejoin="round"/>
<path d="M137.6 211.3 L122.1 205.3" fill="none" stroke="#fbf7eb" stroke-width="3.4" opacity="0.62" stroke-linecap="round" stroke-linejoin="round"/>
<path d="M206.9 79.3 L206.9 92.4" fill="none" stroke="#fbf7eb" stroke-width="3.4" opacity="0.62" stroke-linecap="round" stroke-linejoin="round"/>
<path d="M188.4 285.4 L185.5 279.7 L185.1 272.8" fill="none" stroke="#fbf7eb" stroke-width="3.4" opacity="0.62" stroke-linecap="round" stroke-linejoin="round"/>
<path d="M264.3 128.5 L263.9 141.5" fill="none" stroke="#fbf7eb" stroke-width="3.4" opacity="0.62" stroke-linecap="round" stroke-linejoin="round"/>
<path d="M33.4 76.3 L48.1 69.4" fill="none" stroke="#fbf7eb" stroke-width="3.4" opacity="0.62" stroke-linecap="round" stroke-linejoin="round"/>
<path d="M75.1 157.9 L76.4 145" fill="none" stroke="#fbf7eb" stroke-width="3.4" opacity="0.62" stroke-linecap="round" stroke-linejoin="round"/>
<path d="M154.4 238.3 L158.4 250.8" fill="none" stroke="#fbf7eb" stroke-width="3.4" opacity="0.62" stroke-linecap="round" stroke-linejoin="round"/>
<path d="M167.1 274.3 L163 261.8" fill="none" stroke="#fbf7eb" stroke-width="3.4" opacity="0.62" stroke-linecap="round" stroke-linejoin="round"/>
<path d="M411.8 265.5 L400.3 256.3" fill="none" stroke="#fbf7eb" stroke-width="3.4" opacity="0.62" stroke-linecap="round" stroke-linejoin="round"/>
<path d="M124.5 78.6 L121.2 91" fill="none" stroke="#fbf7eb" stroke-width="3.4" opacity="0.62" stroke-linecap="round" stroke-linejoin="round"/>
<path d="M142.7 57.2 L137.8 45.2" fill="none" stroke="#fbf7eb" stroke-width="3.4" opacity="0.62" stroke-linecap="round" stroke-linejoin="round"/>
<path d="M81.8 218.5 L89.2 207.3" fill="none" stroke="#fbf7eb" stroke-width="3.4" opacity="0.62" stroke-linecap="round" stroke-linejoin="round"/>
<path d="M237.8 134 L247.8 124.1" fill="none" stroke="#fbf7eb" stroke-width="3.4" opacity="0.62" stroke-linecap="round" stroke-linejoin="round"/>
<path d="M263.3 240.8 L274.3 250.1" fill="none" stroke="#fbf7eb" stroke-width="3.4" opacity="0.62" stroke-linecap="round" stroke-linejoin="round"/>
<path d="M82.3 170.6 L81.4 182.8" fill="none" stroke="#fbf7eb" stroke-width="3.4" opacity="0.62" stroke-linecap="round" stroke-linejoin="round"/>
<path d="M130.6 209.5 L145 215" fill="none" stroke="#fbf7eb" stroke-width="3.4" opacity="0.62" stroke-linecap="round" stroke-linejoin="round"/>
<path d="M196.4 235.5 L194.4 247.4" fill="none" stroke="#fbf7eb" stroke-width="3.4" opacity="0.62" stroke-linecap="round" stroke-linejoin="round"/>
<path d="M12.8 208.7 L25.3 201.3" fill="none" stroke="#fbf7eb" stroke-width="3.4" opacity="0.62" stroke-linecap="round" stroke-linejoin="round"/>
<path d="M56 272.9 L71.2 276.7" fill="none" stroke="#fbf7eb" stroke-width="3.4" opacity="0.62" stroke-linecap="round" stroke-linejoin="round"/>
<path d="M76.7 141.8 L77.6 129.9" fill="none" stroke="#fbf7eb" stroke-width="3.4" opacity="0.62" stroke-linecap="round" stroke-linejoin="round"/>
<path d="M296.3 209.3 L286.4 200.1" fill="none" stroke="#fbf7eb" stroke-width="3.4" opacity="0.62" stroke-linecap="round" stroke-linejoin="round"/>
<path d="M113.1 0.1 L105.8 10.5" fill="none" stroke="#fbf7eb" stroke-width="3.4" opacity="0.62" stroke-linecap="round" stroke-linejoin="round"/>
<path d="M287.2 121.4 L290.4 127.3 L290 132.7" fill="none" stroke="#fbf7eb" stroke-width="3.4" opacity="0.62" stroke-linecap="round" stroke-linejoin="round"/>
<path d="M84.8 172.4 L85.9 160.9" fill="none" stroke="#fbf7eb" stroke-width="3.4" opacity="0.62" stroke-linecap="round" stroke-linejoin="round"/>
<path d="M52.6 58.6 L44.1 49" fill="none" stroke="#fbf7eb" stroke-width="3.4" opacity="0.62" stroke-linecap="round" stroke-linejoin="round"/>
<path d="M252.3 119.7 L264.3 126.7" fill="none" stroke="#fbf7eb" stroke-width="3.4" opacity="0.62" stroke-linecap="round" stroke-linejoin="round"/>
<path d="M386.4 91 L401 88.3" fill="none" stroke="#fbf7eb" stroke-width="3.4" opacity="0.62" stroke-linecap="round" stroke-linejoin="round"/>
<path d="M76.9 84.9 L77 96.3" fill="none" stroke="#fbf7eb" stroke-width="3.4" opacity="0.62" stroke-linecap="round" stroke-linejoin="round"/>
<path d="M147 155.9 L140.7 166.1" fill="none" stroke="#fbf7eb" stroke-width="3.4" opacity="0.62" stroke-linecap="round" stroke-linejoin="round"/>
<path d="M233.6 113.1 L219.4 116.8" fill="none" stroke="#fbf7eb" stroke-width="3.4" opacity="0.62" stroke-linecap="round" stroke-linejoin="round"/>
<path d="M342.5 231.4 L352 240" fill="none" stroke="#fbf7eb" stroke-width="3.4" opacity="0.62" stroke-linecap="round" stroke-linejoin="round"/>
<path d="M174.2 159.1 L181.1 149.4" fill="none" stroke="#fbf7eb" stroke-width="3.4" opacity="0.62" stroke-linecap="round" stroke-linejoin="round"/>
<path d="M184 245.5 L184.9 256.4" fill="none" stroke="#fbf7eb" stroke-width="3.4" opacity="0.62" stroke-linecap="round" stroke-linejoin="round"/>
<path d="M92.7 282.2 L86.6 292.1" fill="none" stroke="#fbf7eb" stroke-width="3.4" opacity="0.62" stroke-linecap="round" stroke-linejoin="round"/>
</g>
<g data-layer="minor-road">
<path d="M321.8 71.6 L321.6 64.8 L325.6 60.7 L335.3 58.1 L349.9 57.5" fill="none" stroke="#69776e" stroke-width="1.25" opacity="0.58" stroke-linecap="round" stroke-linejoin="round"/>
<path d="M281.3 5.3 L272.8 27.1" fill="none" stroke="#69776e" stroke-width="1.25" opacity="0.58" stroke-linecap="round" stroke-linejoin="round"/>
<path d="M159 252.6 L166.2 274.4" fill="none" stroke="#69776e" stroke-width="1.25" opacity="0.58" stroke-linecap="round" stroke-linejoin="round"/>
<path d="M47.2 113.6 L45.4 91.2" fill="none" stroke="#69776e" stroke-width="1.25" opacity="0.58" stroke-linecap="round" stroke-linejoin="round"/>
<path d="M407 162.9 L381.1 168.1" fill="none" stroke="#69776e" stroke-width="1.25" opacity="0.58" stroke-linecap="round" stroke-linejoin="round"/>
<path d="M237.8 134 L246.3 140.8 L258.2 146.4" fill="none" stroke="#69776e" stroke-width="1.25" opacity="0.58" stroke-linecap="round" stroke-linejoin="round"/>
<path d="M366.1 148.1 L341.7 153.4" fill="none" stroke="#69776e" stroke-width="1.25" opacity="0.58" stroke-linecap="round" stroke-linejoin="round"/>
<path d="M287.5 226.8 L277.6 209.7" fill="none" stroke="#69776e" stroke-width="1.25" opacity="0.58" stroke-linecap="round" stroke-linejoin="round"/>
<path d="M340.8 136.8 L319.1 142.8" fill="none" stroke="#69776e" stroke-width="1.25" opacity="0.58" stroke-linecap="round" stroke-linejoin="round"/>
<path d="M305.3 307.7 L286.9 317.4" fill="none" stroke="#69776e" stroke-width="1.25" opacity="0.58" stroke-linecap="round" stroke-linejoin="round"/>
<path d="M306.3 87.2 L286.5 95.1" fill="none" stroke="#69776e" stroke-width="1.25" opacity="0.58" stroke-linecap="round" stroke-linejoin="round"/>
<path d="M234.9 21.7 L212.7 23.1" fill="none" stroke="#69776e" stroke-width="1.25" opacity="0.58" stroke-linecap="round" stroke-linejoin="round"/>
<path d="M63 182.2 L75.3 168.2" fill="none" stroke="#69776e" stroke-width="1.25" opacity="0.58" stroke-linecap="round" stroke-linejoin="round"/>
<path d="M56 117.1 L77.8 116.2" fill="none" stroke="#69776e" stroke-width="1.25" opacity="0.58" stroke-linecap="round" stroke-linejoin="round"/>
<path d="M156.5 141.2 L147 155.9" fill="none" stroke="#69776e" stroke-width="1.25" opacity="0.58" stroke-linecap="round" stroke-linejoin="round"/>
<path d="M92.7 282.2 L113.2 287.4" fill="none" stroke="#69776e" stroke-width="1.25" opacity="0.58" stroke-linecap="round" stroke-linejoin="round"/>
<path d="M196.4 175 L215.9 180.9" fill="none" stroke="#69776e" stroke-width="1.25" opacity="0.58" stroke-linecap="round" stroke-linejoin="round"/>
<path d="M314.1 286.4 L322.6 300.3" fill="none" stroke="#69776e" stroke-width="1.25" opacity="0.58" stroke-linecap="round" stroke-linejoin="round"/>
<path d="M326.2 81.8 L307.1 86.7" fill="none" stroke="#69776e" stroke-width="1.25" opacity="0.58" stroke-linecap="round" stroke-linejoin="round"/>
<path d="M278 211.1 L285.5 224.5" fill="none" stroke="#69776e" stroke-width="1.25" opacity="0.58" stroke-linecap="round" stroke-linejoin="round"/>
<path d="M120.1 254.5 L109.6 266.7" fill="none" stroke="#69776e" stroke-width="1.25" opacity="0.58" stroke-linecap="round" stroke-linejoin="round"/>
<path d="M300.7 114.1 L318.9 109.1" fill="none" stroke="#69776e" stroke-width="1.25" opacity="0.58" stroke-linecap="round" stroke-linejoin="round"/>
<path d="M374.7 50.6 L367.2 38.1" fill="none" stroke="#69776e" stroke-width="1.25" opacity="0.58" stroke-linecap="round" stroke-linejoin="round"/>
<path d="M338.6 46.3 L349.9 57.5" fill="none" stroke="#69776e" stroke-width="1.25" opacity="0.58" stroke-linecap="round" stroke-linejoin="round"/>
<path d="M71.2 276.7 L89 281.2" fill="none" stroke="#69776e" stroke-width="1.25" opacity="0.58" stroke-linecap="round" stroke-linejoin="round"/>
<path d="M325.3 157.8 L332.1 170.7" fill="none" stroke="#69776e" stroke-width="1.25" opacity="0.58" stroke-linecap="round" stroke-linejoin="round"/>
<path d="M34.2 192.1 L47.1 182" fill="none" stroke="#69776e" stroke-width="1.25" opacity="0.58" stroke-linecap="round" stroke-linejoin="round"/>
<path d="M211.8 58.9 L208.1 72.4" fill="none" stroke="#69776e" stroke-width="1.25" opacity="0.58" stroke-linecap="round" stroke-linejoin="round"/>
<path d="M152.9 316.8 L158.1 303.6" fill="none" stroke="#69776e" stroke-width="1.25" opacity="0.58" stroke-linecap="round" stroke-linejoin="round"/>
<path d="M120.2 280.5 L103 275.9" fill="none" stroke="#69776e" stroke-width="1.25" opacity="0.58" stroke-linecap="round" stroke-linejoin="round"/>
<path d="M87 204.4 L75 214.7" fill="none" stroke="#69776e" stroke-width="1.25" opacity="0.58" stroke-linecap="round" stroke-linejoin="round"/>
<path d="M93.9 149.3 L110.8 154" fill="none" stroke="#69776e" stroke-width="1.25" opacity="0.58" stroke-linecap="round" stroke-linejoin="round"/>
<path d="M86.6 292.1 L81.8 305.1" fill="none" stroke="#69776e" stroke-width="1.25" opacity="0.58" stroke-linecap="round" stroke-linejoin="round"/>
<path d="M157.9 155.8 L163.8 143.1" fill="none" stroke="#69776e" stroke-width="1.25" opacity="0.58" stroke-linecap="round" stroke-linejoin="round"/>
<path d="M279 109.4 L287.2 121.4" fill="none" stroke="#69776e" stroke-width="1.25" opacity="0.58" stroke-linecap="round" stroke-linejoin="round"/>
<path d="M44.1 49 L34.2 37.9" fill="none" stroke="#69776e" stroke-width="1.25" opacity="0.58" stroke-linecap="round" stroke-linejoin="round"/>
<path d="M137.6 211.3 L122.1 205.3" fill="none" stroke="#69776e" stroke-width="1.25" opacity="0.58" stroke-linecap="round" stroke-linejoin="round"/>
<path d="M206.9 79.3 L206.9 92.4" fill="none" stroke="#69776e" stroke-width="1.25" opacity="0.58" stroke-linecap="round" stroke-linejoin="round"/>
<path d="M188.4 285.4 L185.5 279.7 L185.1 272.8" fill="none" stroke="#69776e" stroke-width="1.25" opacity="0.58" stroke-linecap="round" stroke-linejoin="round"/>
<path d="M264.3 128.5 L263.9 141.5" fill="none" stroke="#69776e" stroke-width="1.25" opacity="0.58" stroke-linecap="round" stroke-linejoin="round"/>
<path d="M33.4 76.3 L48.1 69.4" fill="none" stroke="#69776e" stroke-width="1.25" opacity="0.58" stroke-linecap="round" stroke-linejoin="round"/>
<path d="M75.1 157.9 L76.4 145" fill="none" stroke="#69776e" stroke-width="1.25" opacity="0.58" stroke-linecap="round" stroke-linejoin="round"/>
<path d="M154.4 238.3 L158.4 250.8" fill="none" stroke="#69776e" stroke-width="1.25" opacity="0.58" stroke-linecap="round" stroke-linejoin="round"/>
<path d="M167.1 274.3 L163 261.8" fill="none" stroke="#69776e" stroke-width="1.25" opacity="0.58" stroke-linecap="round" stroke-linejoin="round"/>
<path d="M411.8 265.5 L400.3 256.3" fill="none" stroke="#69776e" stroke-width="1.25" opacity="0.58" stroke-linecap="round" stroke-linejoin="round"/>
<path d="M124.5 78.6 L121.2 91" fill="none" stroke="#69776e" stroke-width="1.25" opacity="0.58" stroke-linecap="round" stroke-linejoin="round"/>
<path d="M142.7 57.2 L137.8 45.2" fill="none" stroke="#69776e" stroke-width="1.25" opacity="0.58" stroke-linecap="round" stroke-linejoin="round"/>
<path d="M81.8 218.5 L89.2 207.3" fill="none" stroke="#69776e" stroke-width="1.25" opacity="0.58" stroke-linecap="round" stroke-linejoin="round"/>
<path d="M237.8 134 L247.8 124.1" fill="none" stroke="#69776e" stroke-width="1.25" opacity="0.58" stroke-linecap="round" stroke-linejoin="round"/>
<path d="M263.3 240.8 L274.3 250.1" fill="none" stroke="#69776e" stroke-width="1.25" opacity="0.58" stroke-linecap="round" stroke-linejoin="round"/>
<path d="M82.3 170.6 L81.4 182.8" fill="none" stroke="#69776e" stroke-width="1.25" opacity="0.58" stroke-linecap="round" stroke-linejoin="round"/>
<path d="M130.6 209.5 L145 215" fill="none" stroke="#69776e" stroke-width="1.25" opacity="0.58" stroke-linecap="round" stroke-linejoin="round"/>
<path d="M196.4 235.5 L194.4 247.4" fill="none" stroke="#69776e" stroke-width="1.25" opacity="0.58" stroke-linecap="round" stroke-linejoin="round"/>
<path d="M12.8 208.7 L25.3 201.3" fill="none" stroke="#69776e" stroke-width="1.25" opacity="0.58" stroke-linecap="round" stroke-linejoin="round"/>
<path d="M56 272.9 L71.2 276.7" fill="none" stroke="#69776e" stroke-width="1.25" opacity="0.58" stroke-linecap="round" stroke-linejoin="round"/>
<path d="M76.7 141.8 L77.6 129.9" fill="none" stroke="#69776e" stroke-width="1.25" opacity="0.58" stroke-linecap="round" stroke-linejoin="round"/>
<path d="M296.3 209.3 L286.4 200.1" fill="none" stroke="#69776e" stroke-width="1.25" opacity="0.58" stroke-linecap="round" stroke-linejoin="round"/>
<path d="M113.1 0.1 L105.8 10.5" fill="none" stroke="#69776e" stroke-width="1.25" opacity="0.58" stroke-linecap="round" stroke-linejoin="round"/>
<path d="M287.2 121.4 L290.4 127.3 L290 132.7" fill="none" stroke="#69776e" stroke-width="1.25" opacity="0.58" stroke-linecap="round" stroke-linejoin="round"/>
<path d="M84.8 172.4 L85.9 160.9" fill="none" stroke="#69776e" stroke-width="1.25" opacity="0.58" stroke-linecap="round" stroke-linejoin="round"/>
<path d="M52.6 58.6 L44.1 49" fill="none" stroke="#69776e" stroke-width="1.25" opacity="0.58" stroke-linecap="round" stroke-linejoin="round"/>
<path d="M252.3 119.7 L264.3 126.7" fill="none" stroke="#69776e" stroke-width="1.25" opacity="0.58" stroke-linecap="round" stroke-linejoin="round"/>
<path d="M386.4 91 L401 88.3" fill="none" stroke="#69776e" stroke-width="1.25" opacity="0.58" stroke-linecap="round" stroke-linejoin="round"/>
<path d="M76.9 84.9 L77 96.3" fill="none" stroke="#69776e" stroke-width="1.25" opacity="0.58" stroke-linecap="round" stroke-linejoin="round"/>
<path d="M147 155.9 L140.7 166.1" fill="none" stroke="#69776e" stroke-width="1.25" opacity="0.58" stroke-linecap="round" stroke-linejoin="round"/>
<path d="M233.6 113.1 L219.4 116.8" fill="none" stroke="#69776e" stroke-width="1.25" opacity="0.58" stroke-linecap="round" stroke-linejoin="round"/>
<path d="M342.5 231.4 L352 240" fill="none" stroke="#69776e" stroke-width="1.25" opacity="0.58" stroke-linecap="round" stroke-linejoin="round"/>
<path d="M174.2 159.1 L181.1 149.4" fill="none" stroke="#69776e" stroke-width="1.25" opacity="0.58" stroke-linecap="round" stroke-linejoin="round"/>
<path d="M184 245.5 L184.9 256.4" fill="none" stroke="#69776e" stroke-width="1.25" opacity="0.58" stroke-linecap="round" stroke-linejoin="round"/>
<path d="M92.7 282.2 L86.6 292.1" fill="none" stroke="#69776e" stroke-width="1.25" opacity="0.58" stroke-linecap="round" stroke-linejoin="round"/>
</g>
</g>
<g data-layer="north-up-compass" fill="none" stroke="#233934" stroke-linecap="round" stroke-linejoin="round" opacity="0.62">
<path d="M382 48L382 23" stroke-width="1.8"/>
<path d="M382 23L373 39M382 23L391 39" stroke-width="1.8"/>
<circle cx="382" cy="48" r="13" stroke-width="1.1" opacity="0.38"/>
</g>
<rect x="8" y="8" width="404" height="304" rx="16" fill="none" stroke="#233934" stroke-width="1.4" opacity="0.44"/>
</svg>
