<svg xmlns="http://www.w3.org/2000/svg" viewBox="0 0 420 320" role="img" aria-label="Unlabeled street grid stage 1">
  <rect width="420" height="320" fill="#efe7d2"/>
  
  
  
  <g><path d="M10 144 C87 104 127 204 340 122" fill="none" stroke="hsl(326 18% 28%)" stroke-width="5" stroke-linecap="round" opacity="0.92"/><path d="M57 175 C124 135 164 235 369 175" fill="none" stroke="hsl(326 10% 48%)" stroke-width="3" stroke-linecap="round" opacity="0.92"/><path d="M44 206 C161 166 201 266 398 228" fill="none" stroke="hsl(326 18% 28%)" stroke-width="5" stroke-linecap="round" opacity="0.92"/><path d="M31 237 C198 197 238 297 357 215" fill="none" stroke="hsl(326 10% 48%)" stroke-width="3" stroke-linecap="round" opacity="0.92"/><path d="M18 268 C235 228 275 328 386 268" fill="none" stroke="hsl(326 18% 28%)" stroke-width="5" stroke-linecap="round" opacity="0.92"/><path d="M65 47 C272 7 312 107 345 69" fill="none" stroke="hsl(326 10% 48%)" stroke-width="3" stroke-linecap="round" opacity="0.92"/><path d="M52 78 C79 38 119 138 374 56" fill="none" stroke="hsl(326 18% 28%)" stroke-width="5" stroke-linecap="round" opacity="0.92"/><path d="M39 109 C116 69 156 169 403 109" fill="none" stroke="hsl(326 10% 48%)" stroke-width="3" stroke-linecap="round" opacity="0.92"/><path d="M26 140 C153 100 193 200 362 162" fill="none" stroke="hsl(326 18% 28%)" stroke-width="5" stroke-linecap="round" opacity="0.92"/><path d="M13 171 C190 131 230 231 391 149" fill="none" stroke="hsl(326 10% 48%)" stroke-width="3" stroke-linecap="round" opacity="0.92"/><path d="M60 202 C227 162 267 262 350 202" fill="none" stroke="hsl(326 18% 28%)" stroke-width="5" stroke-linecap="round" opacity="0.92"/><path d="M47 233 C264 193 304 293 379 255" fill="none" stroke="hsl(326 10% 48%)" stroke-width="3" stroke-linecap="round" opacity="0.92"/><path d="M34 264 C71 224 111 324 408 242" fill="none" stroke="hsl(326 18% 28%)" stroke-width="5" stroke-linecap="round" opacity="0.92"/><path d="M21 43 C108 3 148 103 367 43" fill="none" stroke="hsl(326 10% 48%)" stroke-width="3" stroke-linecap="round" opacity="0.92"/><path d="M68 74 C145 34 185 134 396 96" fill="none" stroke="hsl(326 18% 28%)" stroke-width="5" stroke-linecap="round" opacity="0.92"/><path d="M55 105 C182 65 222 165 355 83" fill="none" stroke="hsl(326 10% 48%)" stroke-width="3" stroke-linecap="round" opacity="0.92"/><path d="M251 22 C285 88 209 168 271 300" fill="none" stroke="hsl(326 10% 48%)" stroke-width="3" stroke-linecap="round" opacity="0.8"/><path d="M294 22 C328 88 252 168 314 300" fill="none" stroke="hsl(326 10% 48%)" stroke-width="3" stroke-linecap="round" opacity="0.8"/><path d="M337 22 C371 88 295 168 357 300" fill="none" stroke="hsl(326 10% 48%)" stroke-width="3" stroke-linecap="round" opacity="0.8"/><path d="M40 22 C74 88 -2 168 60 300" fill="none" stroke="hsl(326 10% 48%)" stroke-width="3" stroke-linecap="round" opacity="0.8"/><path d="M83 22 C117 88 41 168 103 300" fill="none" stroke="hsl(326 10% 48%)" stroke-width="3" stroke-linecap="round" opacity="0.8"/><path d="M126 22 C160 88 84 168 146 300" fill="none" stroke="hsl(326 10% 48%)" stroke-width="3" stroke-linecap="round" opacity="0.8"/><path d="M169 22 C203 88 127 168 189 300" fill="none" stroke="hsl(326 10% 48%)" stroke-width="3" stroke-linecap="round" opacity="0.8"/><path d="M212 22 C246 88 170 168 232 300" fill="none" stroke="hsl(326 10% 48%)" stroke-width="3" stroke-linecap="round" opacity="0.8"/><path d="M255 22 C289 88 213 168 275 300" fill="none" stroke="hsl(326 10% 48%)" stroke-width="3" stroke-linecap="round" opacity="0.8"/></g>
  
  
  
</svg>
