<svg xmlns="http://www.w3.org/2000/svg" viewBox="0 0 420 320" role="img" aria-label="Unlabeled street-grid crop">
<rect width="420" height="320" fill="#efe7d2"/>
<path d="M11.6 108.7 L55.9 121.3" fill="none" stroke="#263632" stroke-width="5" stroke-linecap="round" stroke-linejoin="round" opacity="0.92"/>
<path d="M125.6 249.1 L110.5 245.7" fill="none" stroke="#263632" stroke-width="5" stroke-linecap="round" stroke-linejoin="round" opacity="0.92"/>
<path d="M198.2 136.3 L183.9 132.2" fill="none" stroke="#263632" stroke-width="5" stroke-linecap="round" stroke-linejoin="round" opacity="0.92"/>
<path d="M346.9 62.9 L349.8 72.4" fill="none" stroke="#263632" stroke-width="5" stroke-linecap="round" stroke-linejoin="round" opacity="0.92"/>
<path d="M101 209.1 L115 213.3" fill="none" stroke="#263632" stroke-width="5" stroke-linecap="round" stroke-linejoin="round" opacity="0.92"/>
<path d="M185.9 130.3 L200.2 134.4" fill="none" stroke="#263632" stroke-width="5" stroke-linecap="round" stroke-linejoin="round" opacity="0.92"/>
<path d="M239.3 157.8 L220.3 152.4" fill="none" stroke="#263632" stroke-width="5" stroke-linecap="round" stroke-linejoin="round" opacity="0.92"/>
<path d="M155.8 210.2 L163.9 202.7" fill="none" stroke="#263632" stroke-width="5" stroke-linecap="round" stroke-linejoin="round" opacity="0.92"/>
<path d="M255.8 35 L230.6 27.8" fill="none" stroke="#263632" stroke-width="5" stroke-linecap="round" stroke-linejoin="round" opacity="0.92"/>
<path d="M94.3 138.9 L111.6 143.8" fill="none" stroke="#263632" stroke-width="5" stroke-linecap="round" stroke-linejoin="round" opacity="0.92"/>
<path d="M269.5 310.2 L285 291.6" fill="none" stroke="#263632" stroke-width="5" stroke-linecap="round" stroke-linejoin="round" opacity="0.92"/>
<path d="M283.1 289.6 L270.9 304.3" fill="none" stroke="#263632" stroke-width="5" stroke-linecap="round" stroke-linejoin="round" opacity="0.92"/>
<path d="M394.7 266.8 L377.1 240.2" fill="none" stroke="#263632" stroke-width="5" stroke-linecap="round" stroke-linejoin="round" opacity="0.92"/>
<path d="M379.8 235.6 L377.8 226.7" fill="none" stroke="#263632" stroke-width="5" stroke-linecap="round" stroke-linejoin="round" opacity="0.92"/>
<path d="M303.8 309.4 L320 302.3" fill="none" stroke="#263632" stroke-width="5" stroke-linecap="round" stroke-linejoin="round" opacity="0.92"/>
<path d="M31 294.1 L28.6 301 L29.9 306.7 L46.9 320 L73.3 320" fill="none" stroke="#263632" stroke-width="5" stroke-linecap="round" stroke-linejoin="round" opacity="0.92"/>
<path d="M350.2 158.7 L358.1 162.4 L364.1 169.7" fill="none" stroke="#263632" stroke-width="5" stroke-linecap="round" stroke-linejoin="round" opacity="0.92"/>
<path d="M319.3 151 L340.4 158.1" fill="none" stroke="#263632" stroke-width="5" stroke-linecap="round" stroke-linejoin="round" opacity="0.92"/>
<path d="M335.6 150.5 L326.2 157.2 L322.8 164.4" fill="none" stroke="#263632" stroke-width="5" stroke-linecap="round" stroke-linejoin="round" opacity="0.92"/>
<path d="M341.8 151.3 L326 146.6" fill="none" stroke="#263632" stroke-width="5" stroke-linecap="round" stroke-linejoin="round" opacity="0.92"/>
<path d="M404.4 154.1 L420 126.4" fill="none" stroke="#263632" stroke-width="5" stroke-linecap="round" stroke-linejoin="round" opacity="0.92"/>
<path d="M10.5 110.1 L54.6 122.6" fill="none" stroke="#263632" stroke-width="5" stroke-linecap="round" stroke-linejoin="round" opacity="0.92"/>
<path d="M12.7 108.3 L3.5 107.9 L0 110.4" fill="none" stroke="#263632" stroke-width="5" stroke-linecap="round" stroke-linejoin="round" opacity="0.92"/>
<path d="M65.3 55.8 L75.3 56.3 L93.2 44.6" fill="none" stroke="#263632" stroke-width="5" stroke-linecap="round" stroke-linejoin="round" opacity="0.92"/>
<path d="M4.5 104.2 L6.5 98.2 L10.1 96.5" fill="none" stroke="#263632" stroke-width="5" stroke-linecap="round" stroke-linejoin="round" opacity="0.92"/>
<path d="M71 54.1 L80 50.1 L95.6 36.9" fill="none" stroke="#263632" stroke-width="5" stroke-linecap="round" stroke-linejoin="round" opacity="0.92"/>
<path d="M303 185.3 L275.6 182.1 L238.9 166 L232.8 165.8 L227.3 168.1" fill="none" stroke="#263632" stroke-width="5" stroke-linecap="round" stroke-linejoin="round" opacity="0.92"/>
<path d="M172 277.9 L122.4 282" fill="none" stroke="#263632" stroke-width="5" stroke-linecap="round" stroke-linejoin="round" opacity="0.92"/>
<path d="M258.2 0 L236.4 0 L216.1 4.3 L209.7 12" fill="none" stroke="#263632" stroke-width="5" stroke-linecap="round" stroke-linejoin="round" opacity="0.92"/>
<path d="M232.4 163.9 L243.1 154" fill="none" stroke="#263632" stroke-width="5" stroke-linecap="round" stroke-linejoin="round" opacity="0.92"/>
<path d="M379.8 165.1 L389.8 171.6" fill="none" stroke="#263632" stroke-width="5" stroke-linecap="round" stroke-linejoin="round" opacity="0.92"/>
<path d="M310.1 191.8 L314.2 183.5" fill="none" stroke="#263632" stroke-width="5" stroke-linecap="round" stroke-linejoin="round" opacity="0.92"/>
<path d="M13.3 95.8 L24.1 97.6 L34.4 85.4 L37.4 78.5" fill="none" stroke="#263632" stroke-width="5" stroke-linecap="round" stroke-linejoin="round" opacity="0.92"/>
<path d="M46.3 70.8 L49.7 62.4 L59.6 55.5" fill="none" stroke="#263632" stroke-width="5" stroke-linecap="round" stroke-linejoin="round" opacity="0.92"/>
<path d="M65.2 300.4 L83.2 292.7" fill="none" stroke="#263632" stroke-width="5" stroke-linecap="round" stroke-linejoin="round" opacity="0.92"/>
<path d="M94.2 288.4 L108 283.8 L127.4 281.9" fill="none" stroke="#263632" stroke-width="5" stroke-linecap="round" stroke-linejoin="round" opacity="0.92"/>
<path d="M127.4 281.9 L172 278.2" fill="none" stroke="#263632" stroke-width="5" stroke-linecap="round" stroke-linejoin="round" opacity="0.92"/>
<path d="M204.7 264.3 L210.5 254.1" fill="none" stroke="#263632" stroke-width="5" stroke-linecap="round" stroke-linejoin="round" opacity="0.92"/>
<path d="M212 246.2 L223.3 231.2 L224.8 226" fill="none" stroke="#263632" stroke-width="5" stroke-linecap="round" stroke-linejoin="round" opacity="0.92"/>
<path d="M230.2 173.3 L222.1 181.2 L219.3 188" fill="none" stroke="#263632" stroke-width="5" stroke-linecap="round" stroke-linejoin="round" opacity="0.92"/>
<path d="M212.5 211.8 L210.9 203.9" fill="none" stroke="#263632" stroke-width="5" stroke-linecap="round" stroke-linejoin="round" opacity="0.92"/>
<path d="M218.9 218.3 L214.9 214.8 L210.4 201.5" fill="none" stroke="#263632" stroke-width="5" stroke-linecap="round" stroke-linejoin="round" opacity="0.92"/>
<path d="M253.5 155.1 L240 166.2" fill="none" stroke="#263632" stroke-width="5" stroke-linecap="round" stroke-linejoin="round" opacity="0.92"/>
<path d="M230.7 173.5 L241.6 165.6" fill="none" stroke="#263632" stroke-width="5" stroke-linecap="round" stroke-linejoin="round" opacity="0.92"/>
<path d="M241.6 165.6 L254.5 155.3" fill="none" stroke="#263632" stroke-width="5" stroke-linecap="round" stroke-linejoin="round" opacity="0.92"/>
<path d="M254.5 155.3 L269.8 144.1" fill="none" stroke="#263632" stroke-width="5" stroke-linecap="round" stroke-linejoin="round" opacity="0.92"/>
<path d="M357.2 155.8 L326.1 146.5" fill="none" stroke="#263632" stroke-width="5" stroke-linecap="round" stroke-linejoin="round" opacity="0.92"/>
<path d="M295.2 126.5 L305.4 119.8" fill="none" stroke="#263632" stroke-width="5" stroke-linecap="round" stroke-linejoin="round" opacity="0.92"/>
<path d="M354.3 79.2 L347.8 67.3" fill="none" stroke="#263632" stroke-width="5" stroke-linecap="round" stroke-linejoin="round" opacity="0.92"/>
<path d="M339.3 94.6 L352.7 85.4 L354.3 79.2" fill="none" stroke="#263632" stroke-width="5" stroke-linecap="round" stroke-linejoin="round" opacity="0.92"/>
<path d="M353.7 79.3 L354.2 82.6 L352.2 85.6 L336.7 95.6" fill="none" stroke="#263632" stroke-width="5" stroke-linecap="round" stroke-linejoin="round" opacity="0.92"/>
<path d="M280.5 135.9 L269.2 144" fill="none" stroke="#263632" stroke-width="5" stroke-linecap="round" stroke-linejoin="round" opacity="0.92"/>
<path d="M269.8 144.1 L280.7 136" fill="none" stroke="#263632" stroke-width="5" stroke-linecap="round" stroke-linejoin="round" opacity="0.92"/>
<path d="M369.9 239.8 L337.5 253.1" fill="none" stroke="#263632" stroke-width="5" stroke-linecap="round" stroke-linejoin="round" opacity="0.92"/>
<path d="M298 274.9 L292 278.2 L281.3 279.3" fill="none" stroke="#263632" stroke-width="5" stroke-linecap="round" stroke-linejoin="round" opacity="0.92"/>
<path d="M256.2 275.8 L193.1 262.9" fill="none" stroke="#263632" stroke-width="5" stroke-linecap="round" stroke-linejoin="round" opacity="0.92"/>
<path d="M168.9 258.6 L192.7 263.4" fill="none" stroke="#263632" stroke-width="5" stroke-linecap="round" stroke-linejoin="round" opacity="0.92"/>
<path d="M288 307.5 L277 300.8" fill="none" stroke="#263632" stroke-width="5" stroke-linecap="round" stroke-linejoin="round" opacity="0.92"/>
<path d="M180.5 71.5 L188.3 58.6" fill="none" stroke="#263632" stroke-width="5" stroke-linecap="round" stroke-linejoin="round" opacity="0.92"/>
<path d="M200.9 31.7 L191.1 35.8 L184 42.3 L181.4 51.4" fill="none" stroke="#263632" stroke-width="5" stroke-linecap="round" stroke-linejoin="round" opacity="0.92"/>
<path d="M94.4 256.2 L85.4 263.3" fill="none" stroke="#263632" stroke-width="5" stroke-linecap="round" stroke-linejoin="round" opacity="0.92"/>
<path d="M383.5 204.7 L398.2 201" fill="none" stroke="#263632" stroke-width="5" stroke-linecap="round" stroke-linejoin="round" opacity="0.92"/>
<path d="M95.6 282.8 L134 303.3" fill="none" stroke="#263632" stroke-width="5" stroke-linecap="round" stroke-linejoin="round" opacity="0.92"/>
<path d="M159.7 310.7 L122.6 265.6" fill="none" stroke="#263632" stroke-width="5" stroke-linecap="round" stroke-linejoin="round" opacity="0.92"/>
<path d="M121.4 265.8 L159.5 311.9" fill="none" stroke="#263632" stroke-width="5" stroke-linecap="round" stroke-linejoin="round" opacity="0.92"/>
<path d="M159.2 310.7 L122.9 266.9" fill="none" stroke="#263632" stroke-width="5" stroke-linecap="round" stroke-linejoin="round" opacity="0.92"/>
<path d="M220.6 187.5 L226.4 177.2" fill="none" stroke="#263632" stroke-width="5" stroke-linecap="round" stroke-linejoin="round" opacity="0.92"/>
<path d="M209.8 201.5 L214.3 214.9 L218.5 218.5" fill="none" stroke="#263632" stroke-width="5" stroke-linecap="round" stroke-linejoin="round" opacity="0.92"/>
<path d="M144.3 279.7 L164.4 278.1" fill="none" stroke="#263632" stroke-width="5" stroke-linecap="round" stroke-linejoin="round" opacity="0.92"/>
<path d="M256.2 275.8 L193.1 262.9" fill="none" stroke="#263632" stroke-width="5" stroke-linecap="round" stroke-linejoin="round" opacity="0.92"/>
<path d="M359.9 167.2 L356.4 163.5 L349.1 161" fill="none" stroke="#263632" stroke-width="5" stroke-linecap="round" stroke-linejoin="round" opacity="0.92"/>
<path d="M132.8 117.7 L111.6 111.7" fill="none" stroke="#263632" stroke-width="5" stroke-linecap="round" stroke-linejoin="round" opacity="0.92"/>
<path d="M115.2 142.4 L96.3 137" fill="none" stroke="#263632" stroke-width="5" stroke-linecap="round" stroke-linejoin="round" opacity="0.92"/>
<path d="M124.8 122.8 L139.9 127.1" fill="none" stroke="#263632" stroke-width="5" stroke-linecap="round" stroke-linejoin="round" opacity="0.92"/>
<path d="M181.4 169.2 L192.2 159.1" fill="none" stroke="#263632" stroke-width="5" stroke-linecap="round" stroke-linejoin="round" opacity="0.92"/>
<path d="M194 122.9 L208.3 126.9" fill="none" stroke="#263632" stroke-width="5" stroke-linecap="round" stroke-linejoin="round" opacity="0.92"/>
<path d="M177.8 137.9 L192.1 141.9" fill="none" stroke="#263632" stroke-width="5" stroke-linecap="round" stroke-linejoin="round" opacity="0.92"/>
<path d="M157.4 156.8 L171.7 160.9" fill="none" stroke="#263632" stroke-width="5" stroke-linecap="round" stroke-linejoin="round" opacity="0.92"/>
<path d="M170.5 53.2 L181.4 38.1 L194.6 27.2" fill="none" stroke="#263632" stroke-width="5" stroke-linecap="round" stroke-linejoin="round" opacity="0.92"/>
<path d="M210.5 12.1 L216.8 4.4 L240.6 0" fill="none" stroke="#263632" stroke-width="5" stroke-linecap="round" stroke-linejoin="round" opacity="0.92"/>
<path d="M194 26.9 L181.7 36.8 L173.7 48" fill="none" stroke="#263632" stroke-width="5" stroke-linecap="round" stroke-linejoin="round" opacity="0.92"/>
<path d="M263.3 64.9 L259.2 60.3 L245.4 56.9" fill="none" stroke="#263632" stroke-width="5" stroke-linecap="round" stroke-linejoin="round" opacity="0.92"/>
<path d="M67.9 235 L62.9 232.3 L4.2 227.1" fill="none" stroke="#263632" stroke-width="5" stroke-linecap="round" stroke-linejoin="round" opacity="0.92"/>
<path d="M252.5 94.7 L271.5 100.1" fill="none" stroke="#263632" stroke-width="5" stroke-linecap="round" stroke-linejoin="round" opacity="0.92"/>
<path d="M319.9 185.3 L342 187.8 L370.9 195.3 L392.9 198" fill="none" stroke="#263632" stroke-width="5" stroke-linecap="round" stroke-linejoin="round" opacity="0.92"/>
<path d="M313.9 183 L309.6 191.7" fill="none" stroke="#263632" stroke-width="5" stroke-linecap="round" stroke-linejoin="round" opacity="0.92"/>
<path d="M407.3 93.7 L420 93.1" fill="none" stroke="#263632" stroke-width="5" stroke-linecap="round" stroke-linejoin="round" opacity="0.92"/>
<path d="M393.1 197.7 L364.8 193.5" fill="none" stroke="#263632" stroke-width="5" stroke-linecap="round" stroke-linejoin="round" opacity="0.92"/>
<path d="M348.9 212.9 L352.5 227" fill="none" stroke="#263632" stroke-width="5" stroke-linecap="round" stroke-linejoin="round" opacity="0.92"/>
<path d="M275.4 299.8 L262.9 292.3" fill="none" stroke="#263632" stroke-width="5" stroke-linecap="round" stroke-linejoin="round" opacity="0.92"/>
<path d="M356.7 226.8 L353.2 212.5" fill="none" stroke="#263632" stroke-width="5" stroke-linecap="round" stroke-linejoin="round" opacity="0.92"/>
<path d="M255.7 257.5 L269.2 262.6 L287.6 266.5" fill="none" stroke="#263632" stroke-width="5" stroke-linecap="round" stroke-linejoin="round" opacity="0.92"/>
<path d="M54.6 122.6 L111.9 138.6" fill="none" stroke="#263632" stroke-width="5" stroke-linecap="round" stroke-linejoin="round" opacity="0.92"/>
<path d="M56.5 120.7 L12.7 108.3" fill="none" stroke="#263632" stroke-width="5" stroke-linecap="round" stroke-linejoin="round" opacity="0.92"/>
<path d="M105.7 21.8 L106.5 18.5 L113 11.9" fill="none" stroke="#263632" stroke-width="5" stroke-linecap="round" stroke-linejoin="round" opacity="0.92"/>
<path d="M272.6 67.5 L260.1 79.1" fill="none" stroke="#263632" stroke-width="5" stroke-linecap="round" stroke-linejoin="round" opacity="0.92"/>
<path d="M282 67.5 L302.6 48.3" fill="none" stroke="#263632" stroke-width="5" stroke-linecap="round" stroke-linejoin="round" opacity="0.92"/>
<path d="M184.4 166.9 L193.6 158.4" fill="none" stroke="#263632" stroke-width="5" stroke-linecap="round" stroke-linejoin="round" opacity="0.92"/>
<path d="M308.3 51.2 L255 100.5" fill="none" stroke="#263632" stroke-width="5" stroke-linecap="round" stroke-linejoin="round" opacity="0.92"/>
<path d="M191.6 159.2 L183.5 166.7" fill="none" stroke="#263632" stroke-width="5" stroke-linecap="round" stroke-linejoin="round" opacity="0.92"/>
<path d="M53.9 194.5 L51.6 218.5" fill="none" stroke="#263632" stroke-width="5" stroke-linecap="round" stroke-linejoin="round" opacity="0.92"/>
<path d="M332.8 165.7 L342.5 156.7" fill="none" stroke="#263632" stroke-width="5" stroke-linecap="round" stroke-linejoin="round" opacity="0.92"/>
<path d="M296.2 274.7 L286.1 288.2" fill="none" stroke="#263632" stroke-width="5" stroke-linecap="round" stroke-linejoin="round" opacity="0.92"/>
<path d="M309.8 266.5 L337.4 253.6" fill="none" stroke="#263632" stroke-width="5" stroke-linecap="round" stroke-linejoin="round" opacity="0.92"/>
<path d="M337.4 253.6 L369 240.5" fill="none" stroke="#263632" stroke-width="5" stroke-linecap="round" stroke-linejoin="round" opacity="0.92"/>
<path d="M84.7 291.7 L61.4 301.6" fill="none" stroke="#263632" stroke-width="5" stroke-linecap="round" stroke-linejoin="round" opacity="0.92"/>
<path d="M129.1 91 L155.8 66.6" fill="none" stroke="#263632" stroke-width="5" stroke-linecap="round" stroke-linejoin="round" opacity="0.92"/>
<path d="M70.5 210.8 L73 200.5" fill="none" stroke="#263632" stroke-width="5" stroke-linecap="round" stroke-linejoin="round" opacity="0.92"/>
<path d="M209.4 203.7 L212.5 211.8" fill="none" stroke="#263632" stroke-width="5" stroke-linecap="round" stroke-linejoin="round" opacity="0.92"/>
<path d="M156.8 65.4 L132.5 86.8" fill="none" stroke="#263632" stroke-width="5" stroke-linecap="round" stroke-linejoin="round" opacity="0.92"/>
<path d="M387.5 197.6 L402.9 199.5" fill="none" stroke="#263632" stroke-width="5" stroke-linecap="round" stroke-linejoin="round" opacity="0.92"/>
<path d="M122.9 112.4 L158.7 122.6" fill="none" stroke="#263632" stroke-width="5" stroke-linecap="round" stroke-linejoin="round" opacity="0.92"/>
<path d="M186.2 218.8 L204.8 224.1" fill="none" stroke="#263632" stroke-width="5" stroke-linecap="round" stroke-linejoin="round" opacity="0.92"/>
<path d="M233 18.5 L240.5 11 L242.2 6.1" fill="none" stroke="#263632" stroke-width="5" stroke-linecap="round" stroke-linejoin="round" opacity="0.92"/>
<path d="M238.2 108 L259.6 114.1" fill="none" stroke="#263632" stroke-width="5" stroke-linecap="round" stroke-linejoin="round" opacity="0.92"/>
<path d="M267.2 81 L277.7 71.4" fill="none" stroke="#263632" stroke-width="5" stroke-linecap="round" stroke-linejoin="round" opacity="0.92"/>
<path d="M304.8 46.3 L323.3 29.2" fill="none" stroke="#263632" stroke-width="5" stroke-linecap="round" stroke-linejoin="round" opacity="0.92"/>
<path d="M244.2 102.4 L252.5 94.7" fill="none" stroke="#263632" stroke-width="5" stroke-linecap="round" stroke-linejoin="round" opacity="0.92"/>
<path d="M34.9 277 L38 268.9" fill="none" stroke="#263632" stroke-width="5" stroke-linecap="round" stroke-linejoin="round" opacity="0.92"/>
<path d="M314 29.2 L301 41.2" fill="none" stroke="#263632" stroke-width="5" stroke-linecap="round" stroke-linejoin="round" opacity="0.92"/>
<path d="M295.5 46.3 L285.2 55.8" fill="none" stroke="#263632" stroke-width="5" stroke-linecap="round" stroke-linejoin="round" opacity="0.92"/>
<path d="M323.7 20.1 L316.2 27.2" fill="none" stroke="#263632" stroke-width="5" stroke-linecap="round" stroke-linejoin="round" opacity="0.92"/>
<path d="M245.4 92.7 L235.1 102.2" fill="none" stroke="#263632" stroke-width="5" stroke-linecap="round" stroke-linejoin="round" opacity="0.92"/>
<path d="M233 104.1 L222.8 113.5" fill="none" stroke="#263632" stroke-width="5" stroke-linecap="round" stroke-linejoin="round" opacity="0.92"/>
<path d="M159.9 243.2 L168.2 235.5" fill="none" stroke="#263632" stroke-width="5" stroke-linecap="round" stroke-linejoin="round" opacity="0.92"/>
<path d="M241.1 5.8 L239.6 10.7 L233.2 17.3" fill="none" stroke="#263632" stroke-width="5" stroke-linecap="round" stroke-linejoin="round" opacity="0.92"/>
<path d="M365.4 16.2 L375.8 6.6" fill="none" stroke="#263632" stroke-width="5" stroke-linecap="round" stroke-linejoin="round" opacity="0.92"/>
<path d="M332.3 166.8 L328.3 175" fill="none" stroke="#263632" stroke-width="5" stroke-linecap="round" stroke-linejoin="round" opacity="0.92"/>
<path d="M225.9 119.3 L240.3 123.4" fill="none" stroke="#263632" stroke-width="5" stroke-linecap="round" stroke-linejoin="round" opacity="0.92"/>
<path d="M323.9 267.8 L346.1 266.4" fill="none" stroke="#263632" stroke-width="5" stroke-linecap="round" stroke-linejoin="round" opacity="0.92"/>
<path d="M326.1 146.5 L274.2 131.3" fill="none" stroke="#263632" stroke-width="5" stroke-linecap="round" stroke-linejoin="round" opacity="0.92"/>
<path d="M273.9 131.7 L325.7 146.9" fill="none" stroke="#263632" stroke-width="5" stroke-linecap="round" stroke-linejoin="round" opacity="0.92"/>
<path d="M325.7 146.9 L357 156" fill="none" stroke="#263632" stroke-width="5" stroke-linecap="round" stroke-linejoin="round" opacity="0.92"/>
<path d="M274 131.6 L325.8 146.8" fill="none" stroke="#263632" stroke-width="5" stroke-linecap="round" stroke-linejoin="round" opacity="0.92"/>
<path d="M326 146.6 L274.2 131.4" fill="none" stroke="#263632" stroke-width="5" stroke-linecap="round" stroke-linejoin="round" opacity="0.92"/>
<path d="M325.8 146.8 L352.5 156.2" fill="none" stroke="#263632" stroke-width="5" stroke-linecap="round" stroke-linejoin="round" opacity="0.92"/>
<path d="M246.5 278.2 L244.3 289" fill="none" stroke="#263632" stroke-width="5" stroke-linecap="round" stroke-linejoin="round" opacity="0.92"/>
<path d="M256.8 262.8 L246.5 278.2" fill="none" stroke="#263632" stroke-width="5" stroke-linecap="round" stroke-linejoin="round" opacity="0.92"/>
<path d="M366.5 170.8 L358.8 162.5 L350.9 158.1" fill="none" stroke="#263632" stroke-width="5" stroke-linecap="round" stroke-linejoin="round" opacity="0.92"/>
<path d="M303.2 288.8 L320.1 293.7" fill="none" stroke="#263632" stroke-width="5" stroke-linecap="round" stroke-linejoin="round" opacity="0.92"/>
<path d="M354.6 124.1 L374.9 129" fill="none" stroke="#263632" stroke-width="5" stroke-linecap="round" stroke-linejoin="round" opacity="0.92"/>
<path d="M356.4 265.8 L386.5 266.7" fill="none" stroke="#263632" stroke-width="5" stroke-linecap="round" stroke-linejoin="round" opacity="0.92"/>
<path d="M361 244.2 L376.6 238.7" fill="none" stroke="#263632" stroke-width="5" stroke-linecap="round" stroke-linejoin="round" opacity="0.92"/>
<path d="M309.1 169.4 L303.9 179.8" fill="none" stroke="#263632" stroke-width="5" stroke-linecap="round" stroke-linejoin="round" opacity="0.92"/>
<path d="M277.4 249.8 L266.9 256.4" fill="none" stroke="#263632" stroke-width="5" stroke-linecap="round" stroke-linejoin="round" opacity="0.92"/>
<path d="M28.3 73.3 L57.7 53.4" fill="none" stroke="#263632" stroke-width="5" stroke-linecap="round" stroke-linejoin="round" opacity="0.92"/>
<path d="M206.1 43.2 L216.4 33.8" fill="none" stroke="#263632" stroke-width="5" stroke-linecap="round" stroke-linejoin="round" opacity="0.92"/>
<path d="M55.9 121.3 L113.3 137.4" fill="none" stroke="#263632" stroke-width="5" stroke-linecap="round" stroke-linejoin="round" opacity="0.92"/>
<path d="M102.4 133.4 L56.5 120.7" fill="none" stroke="#263632" stroke-width="5" stroke-linecap="round" stroke-linejoin="round" opacity="0.92"/>
<path d="M178.3 88.5 L179 76.5" fill="none" stroke="#263632" stroke-width="5" stroke-linecap="round" stroke-linejoin="round" opacity="0.92"/>
<path d="M317 52.4 L297.5 70.4" fill="none" stroke="#263632" stroke-width="5" stroke-linecap="round" stroke-linejoin="round" opacity="0.92"/>
<path d="M232.7 164 L243.5 154.1" fill="none" stroke="#263632" stroke-width="5" stroke-linecap="round" stroke-linejoin="round" opacity="0.92"/>
<path d="M156.5 157.7 L165.4 149.4" fill="none" stroke="#263632" stroke-width="5" stroke-linecap="round" stroke-linejoin="round" opacity="0.92"/>
<path d="M281.6 85.1 L268.2 97.6" fill="none" stroke="#263632" stroke-width="5" stroke-linecap="round" stroke-linejoin="round" opacity="0.92"/>
<path d="M183.9 184.1 L193.9 174.9" fill="none" stroke="#263632" stroke-width="5" stroke-linecap="round" stroke-linejoin="round" opacity="0.92"/>
<path d="M217.6 31.7 L187.4 58.4" fill="none" stroke="#263632" stroke-width="5" stroke-linecap="round" stroke-linejoin="round" opacity="0.92"/>
<path d="M24.7 294.7 L25 298.5 L30.4 305.1 L45.8 305.7" fill="none" stroke="#263632" stroke-width="5" stroke-linecap="round" stroke-linejoin="round" opacity="0.92"/>
<path d="M45.7 305.5 L30.8 304.9 L25.5 298.4 L25.2 294.8" fill="none" stroke="#263632" stroke-width="5" stroke-linecap="round" stroke-linejoin="round" opacity="0.92"/>
<path d="M74.4 320 L47.8 320 L30.7 307.1 L29.5 299.9 L32 294.3" fill="none" stroke="#263632" stroke-width="5" stroke-linecap="round" stroke-linejoin="round" opacity="0.92"/>
<path d="M4 227.6 L48.3 232.2 L64.3 239.9" fill="none" stroke="#263632" stroke-width="5" stroke-linecap="round" stroke-linejoin="round" opacity="0.92"/>
<path d="M4.6 32.6 L23.8 24.3 L30.5 18.5" fill="none" stroke="#263632" stroke-width="5" stroke-linecap="round" stroke-linejoin="round" opacity="0.92"/>
<path d="M65.4 232.3 L67.3 224.2" fill="none" stroke="#263632" stroke-width="5" stroke-linecap="round" stroke-linejoin="round" opacity="0.92"/>
<path d="M140 205.7 L137.3 213.5" fill="none" stroke="#263632" stroke-width="5" stroke-linecap="round" stroke-linejoin="round" opacity="0.92"/>
<path d="M224 226.9 L211.3 246.8" fill="none" stroke="#263632" stroke-width="5" stroke-linecap="round" stroke-linejoin="round" opacity="0.92"/>
<path d="M134.6 303 L96.3 282.5" fill="none" stroke="#263632" stroke-width="5" stroke-linecap="round" stroke-linejoin="round" opacity="0.92"/>
<path d="M82.4 275.7 L94.4 282.1" fill="none" stroke="#263632" stroke-width="5" stroke-linecap="round" stroke-linejoin="round" opacity="0.92"/>
<path d="M89.3 220.8 L99.6 210.3" fill="none" stroke="#263632" stroke-width="5" stroke-linecap="round" stroke-linejoin="round" opacity="0.92"/>
<path d="M181.6 151.6 L173.7 159" fill="none" stroke="#263632" stroke-width="5" stroke-linecap="round" stroke-linejoin="round" opacity="0.92"/>
<path d="M170.5 58.7 L162.5 69.1" fill="none" stroke="#263632" stroke-width="5" stroke-linecap="round" stroke-linejoin="round" opacity="0.92"/>
<path d="M224.3 8.6 L215.2 14.6 L214 19.1" fill="none" stroke="#263632" stroke-width="5" stroke-linecap="round" stroke-linejoin="round" opacity="0.92"/>
<path d="M230.8 140.7 L238.9 133.2" fill="none" stroke="#263632" stroke-width="5" stroke-linecap="round" stroke-linejoin="round" opacity="0.92"/>
<path d="M195.1 165.1 L180.8 161.1" fill="none" stroke="#263632" stroke-width="5" stroke-linecap="round" stroke-linejoin="round" opacity="0.92"/>
<path d="M219.7 142.4 L205.3 138.3" fill="none" stroke="#263632" stroke-width="5" stroke-linecap="round" stroke-linejoin="round" opacity="0.92"/>
<path d="M228 117.3 L238.2 108" fill="none" stroke="#263632" stroke-width="5" stroke-linecap="round" stroke-linejoin="round" opacity="0.92"/>
<path d="M123.2 127.3 L131.5 119.6" fill="none" stroke="#263632" stroke-width="5" stroke-linecap="round" stroke-linejoin="round" opacity="0.92"/>
<path d="M321.4 93.8 L333.9 82.2" fill="none" stroke="#263632" stroke-width="5" stroke-linecap="round" stroke-linejoin="round" opacity="0.92"/>
<path d="M161.4 170.5 L153.4 177.9" fill="none" stroke="#263632" stroke-width="5" stroke-linecap="round" stroke-linejoin="round" opacity="0.92"/>
<path d="M173.7 141.6 L185.9 130.3" fill="none" stroke="#263632" stroke-width="5" stroke-linecap="round" stroke-linejoin="round" opacity="0.92"/>
<path d="M343.4 73.4 L333.9 82.2" fill="none" stroke="#263632" stroke-width="5" stroke-linecap="round" stroke-linejoin="round" opacity="0.92"/>
<path d="M95.9 228.3 L113.1 233.9" fill="none" stroke="#263632" stroke-width="5" stroke-linecap="round" stroke-linejoin="round" opacity="0.92"/>
<path d="M102.7 146.3 L110.8 138.8" fill="none" stroke="#263632" stroke-width="5" stroke-linecap="round" stroke-linejoin="round" opacity="0.92"/>
<path d="M306.7 107.4 L314.9 99.8" fill="none" stroke="#263632" stroke-width="5" stroke-linecap="round" stroke-linejoin="round" opacity="0.92"/>
<path d="M228.5 125.1 L220.2 132.8" fill="none" stroke="#263632" stroke-width="5" stroke-linecap="round" stroke-linejoin="round" opacity="0.92"/>
<path d="M200.2 117.1 L214.6 121.1" fill="none" stroke="#263632" stroke-width="5" stroke-linecap="round" stroke-linejoin="round" opacity="0.92"/>
<path d="M402.5 114.4 L420 121.9" fill="none" stroke="#263632" stroke-width="5" stroke-linecap="round" stroke-linejoin="round" opacity="0.92"/>
<path d="M371.9 205.2 L362 194" fill="none" stroke="#263632" stroke-width="5" stroke-linecap="round" stroke-linejoin="round" opacity="0.92"/>
<path d="M193.1 262.9 L169.3 258" fill="none" stroke="#263632" stroke-width="5" stroke-linecap="round" stroke-linejoin="round" opacity="0.92"/>
<path d="M192.7 263.4 L254.5 276.1" fill="none" stroke="#263632" stroke-width="5" stroke-linecap="round" stroke-linejoin="round" opacity="0.92"/>
<path d="M192.7 263.4 L254.5 276.1" fill="none" stroke="#263632" stroke-width="5" stroke-linecap="round" stroke-linejoin="round" opacity="0.92"/>
<path d="M187.9 128.5 L196 120.9" fill="none" stroke="#263632" stroke-width="5" stroke-linecap="round" stroke-linejoin="round" opacity="0.92"/>
<path d="M288.7 87.2 L302.1 74.8" fill="none" stroke="#263632" stroke-width="5" stroke-linecap="round" stroke-linejoin="round" opacity="0.92"/>
<path d="M358.3 14.1 L337.6 33.3" fill="none" stroke="#263632" stroke-width="5" stroke-linecap="round" stroke-linejoin="round" opacity="0.92"/>
<path d="M274 100.8 L294.4 106.6" fill="none" stroke="#263632" stroke-width="5" stroke-linecap="round" stroke-linejoin="round" opacity="0.92"/>
<path d="M260.1 79.1 L245.4 92.7" fill="none" stroke="#263632" stroke-width="5" stroke-linecap="round" stroke-linejoin="round" opacity="0.92"/>
<path d="M252.5 94.7 L267.2 81" fill="none" stroke="#263632" stroke-width="5" stroke-linecap="round" stroke-linejoin="round" opacity="0.92"/>
<path d="M224.8 226 L224 221.9 L218.9 218.3" fill="none" stroke="#263632" stroke-width="5" stroke-linecap="round" stroke-linejoin="round" opacity="0.92"/>
<path d="M311.6 187.4 L352.2 192.7" fill="none" stroke="#263632" stroke-width="5" stroke-linecap="round" stroke-linejoin="round" opacity="0.92"/>
<path d="M338.5 41.1 L357.2 23.8" fill="none" stroke="#263632" stroke-width="5" stroke-linecap="round" stroke-linejoin="round" opacity="0.92"/>
<path d="M352.5 227 L373.6 225.7" fill="none" stroke="#263632" stroke-width="5" stroke-linecap="round" stroke-linejoin="round" opacity="0.92"/>
<path d="M420 216.4 L420 222.4 L409.2 229.6 L397.8 233.9" fill="none" stroke="#263632" stroke-width="5" stroke-linecap="round" stroke-linejoin="round" opacity="0.92"/>
<path d="M364.8 193.5 L343.6 187.7 L319.7 184.9" fill="none" stroke="#263632" stroke-width="5" stroke-linecap="round" stroke-linejoin="round" opacity="0.92"/>
<path d="M228 168.3 L238.4 166.4 L275.1 182.5 L303 185.7" fill="none" stroke="#263632" stroke-width="5" stroke-linecap="round" stroke-linejoin="round" opacity="0.92"/>
<path d="M235.5 119.5 L247.7 108.3" fill="none" stroke="#263632" stroke-width="5" stroke-linecap="round" stroke-linejoin="round" opacity="0.92"/>
<path d="M318.6 173.5 L322.5 165.7" fill="none" stroke="#263632" stroke-width="5" stroke-linecap="round" stroke-linejoin="round" opacity="0.92"/>
<path d="M261.6 112.2 L233 104.1" fill="none" stroke="#263632" stroke-width="5" stroke-linecap="round" stroke-linejoin="round" opacity="0.92"/>
<path d="M247.7 108.3 L308 52.5" fill="none" stroke="#263632" stroke-width="5" stroke-linecap="round" stroke-linejoin="round" opacity="0.92"/>
<path d="M114.9 144.7 L130.4 149.1" fill="none" stroke="#263632" stroke-width="5" stroke-linecap="round" stroke-linejoin="round" opacity="0.92"/>
<path d="M319.3 290.1 L316.1 277.1" fill="none" stroke="#263632" stroke-width="5" stroke-linecap="round" stroke-linejoin="round" opacity="0.92"/>
<path d="M287.2 41.3 L266.1 35.3" fill="none" stroke="#263632" stroke-width="5" stroke-linecap="round" stroke-linejoin="round" opacity="0.92"/>
<path d="M31 17 L41.3 4" fill="none" stroke="#263632" stroke-width="5" stroke-linecap="round" stroke-linejoin="round" opacity="0.92"/>
<path d="M342.3 19.6 L313.4 46.3" fill="none" stroke="#263632" stroke-width="5" stroke-linecap="round" stroke-linejoin="round" opacity="0.92"/>
<path d="M314.6 46.6 L349.5 14.3" fill="none" stroke="#263632" stroke-width="5" stroke-linecap="round" stroke-linejoin="round" opacity="0.92"/>
<path d="M168.3 85.6 L176.4 78.2" fill="none" stroke="#263632" stroke-width="5" stroke-linecap="round" stroke-linejoin="round" opacity="0.92"/>
<path d="M174.9 119.9 L128.9 106.8" fill="none" stroke="#263632" stroke-width="5" stroke-linecap="round" stroke-linejoin="round" opacity="0.92"/>
<path d="M164.3 202.3 L173.8 193.5" fill="none" stroke="#263632" stroke-width="5" stroke-linecap="round" stroke-linejoin="round" opacity="0.92"/>
<path d="M372.4 298.2 L376.5 300.4 L381.3 308.1" fill="none" stroke="#263632" stroke-width="5" stroke-linecap="round" stroke-linejoin="round" opacity="0.92"/>
<path d="M377 208.8 L386 214.7 L405.1 222.7" fill="none" stroke="#263632" stroke-width="5" stroke-linecap="round" stroke-linejoin="round" opacity="0.92"/>
<path d="M327.4 148.1 L342.9 152.6" fill="none" stroke="#263632" stroke-width="5" stroke-linecap="round" stroke-linejoin="round" opacity="0.92"/>
<path d="M139.1 191 L127.2 202" fill="none" stroke="#263632" stroke-width="5" stroke-linecap="round" stroke-linejoin="round" opacity="0.92"/>
<path d="M305 119.6 L294.7 126.4" fill="none" stroke="#263632" stroke-width="5" stroke-linecap="round" stroke-linejoin="round" opacity="0.92"/>
<path d="M420 39.9 L409.4 54 L412 60.1" fill="none" stroke="#263632" stroke-width="5" stroke-linecap="round" stroke-linejoin="round" opacity="0.92"/>
<path d="M409.2 231 L419.9 224.8" fill="none" stroke="#263632" stroke-width="5" stroke-linecap="round" stroke-linejoin="round" opacity="0.92"/>
<path d="M181.1 277.8 L195.5 274.9 L204.7 264.3" fill="none" stroke="#263632" stroke-width="5" stroke-linecap="round" stroke-linejoin="round" opacity="0.92"/>
<path d="M357.3 56.8 L367.1 52.8 L384.8 35.7 L409.3 25.4 L413.7 18.2" fill="none" stroke="#263632" stroke-width="5" stroke-linecap="round" stroke-linejoin="round" opacity="0.92"/>
<path d="M297.4 276.8 L305.8 269.1" fill="none" stroke="#263632" stroke-width="5" stroke-linecap="round" stroke-linejoin="round" opacity="0.92"/>
<path d="M330 256.3 L304.8 268.8" fill="none" stroke="#263632" stroke-width="5" stroke-linecap="round" stroke-linejoin="round" opacity="0.92"/>
<path d="M239.5 166.6 L230.2 173.3" fill="none" stroke="#263632" stroke-width="5" stroke-linecap="round" stroke-linejoin="round" opacity="0.92"/>
<path d="M398.3 198.6 L420 202.4 L420 205.2" fill="none" stroke="#263632" stroke-width="5" stroke-linecap="round" stroke-linejoin="round" opacity="0.92"/>
<path d="M90.5 251.8 L80.7 259.6" fill="none" stroke="#263632" stroke-width="5" stroke-linecap="round" stroke-linejoin="round" opacity="0.92"/>
<path d="M380.1 38.8 L372.9 47.7 L363.3 54.4" fill="none" stroke="#263632" stroke-width="5" stroke-linecap="round" stroke-linejoin="round" opacity="0.92"/>
<path d="M399.9 28.7 L380.1 38.8" fill="none" stroke="#263632" stroke-width="5" stroke-linecap="round" stroke-linejoin="round" opacity="0.92"/>
<path d="M322.2 260.6 L338.8 253.4" fill="none" stroke="#263632" stroke-width="5" stroke-linecap="round" stroke-linejoin="round" opacity="0.92"/>
<path d="M137.9 129 L122.7 124.7" fill="none" stroke="#263632" stroke-width="5" stroke-linecap="round" stroke-linejoin="round" opacity="0.92"/>
<path d="M99.5 244.7 L85.6 240.1" fill="none" stroke="#263632" stroke-width="5" stroke-linecap="round" stroke-linejoin="round" opacity="0.92"/>
<path d="M178.1 76.6 L177.5 88.3" fill="none" stroke="#263632" stroke-width="5" stroke-linecap="round" stroke-linejoin="round" opacity="0.92"/>
<path d="M266.9 256.4 L256.8 262.8" fill="none" stroke="#263632" stroke-width="5" stroke-linecap="round" stroke-linejoin="round" opacity="0.92"/>
<path d="M331.6 21.5 L344 10.1" fill="none" stroke="#263632" stroke-width="5" stroke-linecap="round" stroke-linejoin="round" opacity="0.92"/>
<path d="M366.6 6.4 L358.3 14.1" fill="none" stroke="#263632" stroke-width="5" stroke-linecap="round" stroke-linejoin="round" opacity="0.92"/>
<path d="M323.3 29.2 L331.6 21.5" fill="none" stroke="#263632" stroke-width="5" stroke-linecap="round" stroke-linejoin="round" opacity="0.92"/>
<path d="M296.3 71.5 L282.9 83.9" fill="none" stroke="#263632" stroke-width="5" stroke-linecap="round" stroke-linejoin="round" opacity="0.92"/>
<path d="M356.8 266.4 L363.4 275.3 L366.3 287.1" fill="none" stroke="#263632" stroke-width="5" stroke-linecap="round" stroke-linejoin="round" opacity="0.92"/>
<path d="M187.4 58.4 L179.6 71.3" fill="none" stroke="#263632" stroke-width="5" stroke-linecap="round" stroke-linejoin="round" opacity="0.92"/>
<path d="M188.3 58.6 L203.6 45.2" fill="none" stroke="#263632" stroke-width="5" stroke-linecap="round" stroke-linejoin="round" opacity="0.92"/>
<path d="M406.1 176.8 L420 178.1" fill="none" stroke="#263632" stroke-width="5" stroke-linecap="round" stroke-linejoin="round" opacity="0.92"/>
<path d="M420 177.2 L398.5 175.3" fill="none" stroke="#263632" stroke-width="5" stroke-linecap="round" stroke-linejoin="round" opacity="0.92"/>
<path d="M277.8 298.9 L285.6 289.6" fill="none" stroke="#263632" stroke-width="5" stroke-linecap="round" stroke-linejoin="round" opacity="0.92"/>
<path d="M285.1 289.3 L278.7 296.8" fill="none" stroke="#263632" stroke-width="5" stroke-linecap="round" stroke-linejoin="round" opacity="0.92"/>
<path d="M157.9 262.2 L176.8 265.9" fill="none" stroke="#263632" stroke-width="5" stroke-linecap="round" stroke-linejoin="round" opacity="0.92"/>
<path d="M322.8 164.4 L318.5 172.8" fill="none" stroke="#263632" stroke-width="5" stroke-linecap="round" stroke-linejoin="round" opacity="0.92"/>
<path d="M304.2 72.9 L321.8 56.4" fill="none" stroke="#263632" stroke-width="5" stroke-linecap="round" stroke-linejoin="round" opacity="0.92"/>
<path d="M303 185.4 L274.2 181.8 L238.9 166.1 L231.9 166.1 L227.5 168.2" fill="none" stroke="#263632" stroke-width="5" stroke-linecap="round" stroke-linejoin="round" opacity="0.92"/>
<path d="M228.2 168.4 L238.3 166.6 L275 182.6 L303 185.8" fill="none" stroke="#263632" stroke-width="5" stroke-linecap="round" stroke-linejoin="round" opacity="0.92"/>
<path d="M363.7 306.8 L392.4 302 L420 293.3" fill="none" stroke="#263632" stroke-width="5" stroke-linecap="round" stroke-linejoin="round" opacity="0.92"/>
<path d="M400.6 113.7 L383.6 107.3" fill="none" stroke="#263632" stroke-width="5" stroke-linecap="round" stroke-linejoin="round" opacity="0.92"/>
<path d="M394.8 235 L408.6 230.8" fill="none" stroke="#263632" stroke-width="5" stroke-linecap="round" stroke-linejoin="round" opacity="0.92"/>
<path d="M408.6 230.8 L419.3 224.5" fill="none" stroke="#263632" stroke-width="5" stroke-linecap="round" stroke-linejoin="round" opacity="0.92"/>
<path d="M171.3 128.7 L148.3 122.1" fill="none" stroke="#263632" stroke-width="5" stroke-linecap="round" stroke-linejoin="round" opacity="0.92"/>
<path d="M121.9 301.5 L115.3 310.1" fill="none" stroke="#263632" stroke-width="5" stroke-linecap="round" stroke-linejoin="round" opacity="0.92"/>
<path d="M255 100.5 L240.8 113.7" fill="none" stroke="#263632" stroke-width="5" stroke-linecap="round" stroke-linejoin="round" opacity="0.92"/>
<path d="M204.7 263.4 L197.7 272.5" fill="none" stroke="#263632" stroke-width="5" stroke-linecap="round" stroke-linejoin="round" opacity="0.92"/>
</svg>
