<svg xmlns="http://www.w3.org/2000/svg" viewBox="0 0 420 320" role="img" aria-label="Unlabeled street-grid crop">
<rect width="420" height="320" fill="#efe7d2"/>
<path d="M0 240 L74 214 L142 238 L228 226 L320 202 L420 224 L420 320 L0 320 Z" fill="#9bc7d8" stroke="#5c93a6" stroke-width="3" stroke-linecap="round" stroke-linejoin="round" opacity="0.72"/>
<path d="M12 248 L118 230 L215 238 L316 216 L408 236" fill="#9bc7d8" stroke="#5c93a6" stroke-width="3" stroke-linecap="round" stroke-linejoin="round" opacity="0.72"/>
<path d="M42 164 L112 148 L142 204 L96 258 L32 238 Z" fill="#83a66b" stroke="#6f9658" stroke-width="2" stroke-linecap="round" stroke-linejoin="round" opacity="0.72"/>
<path d="M254 50 L326 80 L300 148 L224 154 L198 96 Z" fill="#83a66b" stroke="#6f9658" stroke-width="2" stroke-linecap="round" stroke-linejoin="round" opacity="0.72"/>
<path d="M28 286 L104 244 L184 214 L254 168 L326 92 L398 42" fill="none" stroke="#6f4f37" stroke-width="5" stroke-dasharray="12 9" stroke-linecap="round" stroke-linejoin="round" opacity="0.8"/>
<path d="M18 24 L95 38 L205 24 L402 10" fill="none" stroke="#263632" stroke-width="4" stroke-linecap="round" stroke-linejoin="round" opacity="0.92"/>
<path d="M18 46 L95 46 L205 60 L402 49" fill="none" stroke="#263632" stroke-width="4" stroke-linecap="round" stroke-linejoin="round" opacity="0.92"/>
<path d="M18 68 L95 54 L205 65 L402 57" fill="none" stroke="#263632" stroke-width="4" stroke-linecap="round" stroke-linejoin="round" opacity="0.92"/>
<path d="M18 90 L95 93 L205 101 L402 96" fill="none" stroke="#263632" stroke-width="4" stroke-linecap="round" stroke-linejoin="round" opacity="0.92"/>
<path d="M18 112 L95 101 L205 106 L402 104" fill="none" stroke="#263632" stroke-width="4" stroke-linecap="round" stroke-linejoin="round" opacity="0.92"/>
<path d="M18 134 L95 140 L205 142 L402 143" fill="none" stroke="#263632" stroke-width="4" stroke-linecap="round" stroke-linejoin="round" opacity="0.92"/>
<path d="M18 156 L95 148 L205 147 L402 151" fill="none" stroke="#263632" stroke-width="4" stroke-linecap="round" stroke-linejoin="round" opacity="0.92"/>
<path d="M18 178 L95 187 L205 183 L402 190" fill="none" stroke="#263632" stroke-width="4" stroke-linecap="round" stroke-linejoin="round" opacity="0.92"/>
<path d="M18 200 L95 195 L205 188 L402 198" fill="none" stroke="#263632" stroke-width="4" stroke-linecap="round" stroke-linejoin="round" opacity="0.92"/>
<path d="M18 222 L95 234 L205 224 L402 237" fill="none" stroke="#263632" stroke-width="4" stroke-linecap="round" stroke-linejoin="round" opacity="0.92"/>
<path d="M18 244 L95 242 L205 229 L402 245" fill="none" stroke="#263632" stroke-width="4" stroke-linecap="round" stroke-linejoin="round" opacity="0.92"/>
<path d="M18 266 L95 281 L205 265 L402 253" fill="none" stroke="#263632" stroke-width="4" stroke-linecap="round" stroke-linejoin="round" opacity="0.92"/>
<path d="M31 18 L45 82 L45 186 L20 302" fill="none" stroke="#263632" stroke-width="4" stroke-linecap="round" stroke-linejoin="round" opacity="0.92"/>
<path d="M63 18 L63 82 L60 186 L69 302" fill="none" stroke="#263632" stroke-width="4" stroke-linecap="round" stroke-linejoin="round" opacity="0.92"/>
<path d="M95 18 L81 82 L106 186 L87 302" fill="none" stroke="#263632" stroke-width="4" stroke-linecap="round" stroke-linejoin="round" opacity="0.92"/>
<path d="M127 18 L130 82 L121 186 L136 302" fill="none" stroke="#263632" stroke-width="4" stroke-linecap="round" stroke-linejoin="round" opacity="0.92"/>
<path d="M159 18 L148 82 L167 186 L154 302" fill="none" stroke="#263632" stroke-width="4" stroke-linecap="round" stroke-linejoin="round" opacity="0.92"/>
<path d="M191 18 L197 82 L182 186 L203 302" fill="none" stroke="#263632" stroke-width="4" stroke-linecap="round" stroke-linejoin="round" opacity="0.92"/>
<path d="M223 18 L215 82 L228 186 L221 302" fill="none" stroke="#263632" stroke-width="4" stroke-linecap="round" stroke-linejoin="round" opacity="0.92"/>
<path d="M255 18 L264 82 L243 186 L270 302" fill="none" stroke="#263632" stroke-width="4" stroke-linecap="round" stroke-linejoin="round" opacity="0.92"/>
<path d="M287 18 L282 82 L289 186 L288 302" fill="none" stroke="#263632" stroke-width="4" stroke-linecap="round" stroke-linejoin="round" opacity="0.92"/>
<path d="M319 18 L331 82 L304 186 L306 302" fill="none" stroke="#263632" stroke-width="4" stroke-linecap="round" stroke-linejoin="round" opacity="0.92"/>
<path d="M351 18 L349 82 L350 186 L355 302" fill="none" stroke="#263632" stroke-width="4" stroke-linecap="round" stroke-linejoin="round" opacity="0.92"/>
<path d="M383 18 L398 82 L396 186 L373 302" fill="none" stroke="#263632" stroke-width="4" stroke-linecap="round" stroke-linejoin="round" opacity="0.92"/>
<path d="M8 47 L130 61 L256 44 L412 53" fill="none" stroke="#69756f" stroke-width="2" stroke-linecap="round" stroke-linejoin="round" opacity="0.72"/>
<path d="M8 60 L130 60 L256 71 L412 52" fill="none" stroke="#69756f" stroke-width="2" stroke-linecap="round" stroke-linejoin="round" opacity="0.72"/>
<path d="M8 73 L130 59 L256 67 L412 82" fill="none" stroke="#69756f" stroke-width="2" stroke-linecap="round" stroke-linejoin="round" opacity="0.72"/>
<path d="M8 86 L130 89 L256 94 L412 81" fill="none" stroke="#69756f" stroke-width="2" stroke-linecap="round" stroke-linejoin="round" opacity="0.72"/>
<path d="M8 99 L130 88 L256 90 L412 111" fill="none" stroke="#69756f" stroke-width="2" stroke-linecap="round" stroke-linejoin="round" opacity="0.72"/>
<path d="M8 112 L130 118 L256 117 L412 110" fill="none" stroke="#69756f" stroke-width="2" stroke-linecap="round" stroke-linejoin="round" opacity="0.72"/>
<path d="M8 125 L130 117 L256 113 L412 140" fill="none" stroke="#69756f" stroke-width="2" stroke-linecap="round" stroke-linejoin="round" opacity="0.72"/>
<path d="M8 138 L130 147 L256 140 L412 139" fill="none" stroke="#69756f" stroke-width="2" stroke-linecap="round" stroke-linejoin="round" opacity="0.72"/>
<path d="M8 151 L130 146 L256 136 L412 138" fill="none" stroke="#69756f" stroke-width="2" stroke-linecap="round" stroke-linejoin="round" opacity="0.72"/>
<path d="M8 164 L130 176 L256 163 L412 168" fill="none" stroke="#69756f" stroke-width="2" stroke-linecap="round" stroke-linejoin="round" opacity="0.72"/>
<path d="M8 177 L130 175 L256 190 L412 167" fill="none" stroke="#69756f" stroke-width="2" stroke-linecap="round" stroke-linejoin="round" opacity="0.72"/>
<path d="M8 190 L130 205 L256 186 L412 197" fill="none" stroke="#69756f" stroke-width="2" stroke-linecap="round" stroke-linejoin="round" opacity="0.72"/>
<path d="M8 203 L130 204 L256 213 L412 196" fill="none" stroke="#69756f" stroke-width="2" stroke-linecap="round" stroke-linejoin="round" opacity="0.72"/>
<path d="M8 216 L130 203 L256 209 L412 226" fill="none" stroke="#69756f" stroke-width="2" stroke-linecap="round" stroke-linejoin="round" opacity="0.72"/>
<path d="M8 229 L130 233 L256 236 L412 225" fill="none" stroke="#69756f" stroke-width="2" stroke-linecap="round" stroke-linejoin="round" opacity="0.72"/>
<path d="M8 242 L130 232 L256 232 L412 255" fill="none" stroke="#69756f" stroke-width="2" stroke-linecap="round" stroke-linejoin="round" opacity="0.72"/>
<path d="M8 255 L130 262 L256 259 L412 254" fill="none" stroke="#69756f" stroke-width="2" stroke-linecap="round" stroke-linejoin="round" opacity="0.72"/>
<path d="M8 268 L130 261 L256 255 L412 253" fill="none" stroke="#69756f" stroke-width="2" stroke-linecap="round" stroke-linejoin="round" opacity="0.72"/>
<path d="M8 281 L130 291 L256 282 L412 283" fill="none" stroke="#69756f" stroke-width="2" stroke-linecap="round" stroke-linejoin="round" opacity="0.72"/>
<path d="M8 294 L130 290 L256 309 L412 282" fill="none" stroke="#69756f" stroke-width="2" stroke-linecap="round" stroke-linejoin="round" opacity="0.72"/>
<path d="M8 21 L130 34 L256 19 L412 26" fill="none" stroke="#69756f" stroke-width="2" stroke-linecap="round" stroke-linejoin="round" opacity="0.72"/>
<path d="M8 34 L130 33 L256 46 L412 25" fill="none" stroke="#69756f" stroke-width="2" stroke-linecap="round" stroke-linejoin="round" opacity="0.72"/>
<path d="M39 8 L39 118 L50 224 L31 312" fill="none" stroke="#69756f" stroke-width="2" stroke-linecap="round" stroke-linejoin="round" opacity="0.72"/>
<path d="M58 8 L44 118 L52 224 L67 312" fill="none" stroke="#69756f" stroke-width="2" stroke-linecap="round" stroke-linejoin="round" opacity="0.72"/>
<path d="M77 8 L80 118 L85 224 L72 312" fill="none" stroke="#69756f" stroke-width="2" stroke-linecap="round" stroke-linejoin="round" opacity="0.72"/>
<path d="M96 8 L85 118 L87 224 L108 312" fill="none" stroke="#69756f" stroke-width="2" stroke-linecap="round" stroke-linejoin="round" opacity="0.72"/>
<path d="M115 8 L121 118 L120 224 L113 312" fill="none" stroke="#69756f" stroke-width="2" stroke-linecap="round" stroke-linejoin="round" opacity="0.72"/>
<path d="M134 8 L126 118 L122 224 L149 312" fill="none" stroke="#69756f" stroke-width="2" stroke-linecap="round" stroke-linejoin="round" opacity="0.72"/>
<path d="M153 8 L162 118 L155 224 L154 312" fill="none" stroke="#69756f" stroke-width="2" stroke-linecap="round" stroke-linejoin="round" opacity="0.72"/>
<path d="M172 8 L167 118 L157 224 L159 312" fill="none" stroke="#69756f" stroke-width="2" stroke-linecap="round" stroke-linejoin="round" opacity="0.72"/>
<path d="M191 8 L203 118 L190 224 L195 312" fill="none" stroke="#69756f" stroke-width="2" stroke-linecap="round" stroke-linejoin="round" opacity="0.72"/>
<path d="M210 8 L208 118 L223 224 L200 312" fill="none" stroke="#69756f" stroke-width="2" stroke-linecap="round" stroke-linejoin="round" opacity="0.72"/>
<path d="M229 8 L244 118 L225 224 L236 312" fill="none" stroke="#69756f" stroke-width="2" stroke-linecap="round" stroke-linejoin="round" opacity="0.72"/>
<path d="M248 8 L249 118 L258 224 L241 312" fill="none" stroke="#69756f" stroke-width="2" stroke-linecap="round" stroke-linejoin="round" opacity="0.72"/>
<path d="M267 8 L254 118 L260 224 L277 312" fill="none" stroke="#69756f" stroke-width="2" stroke-linecap="round" stroke-linejoin="round" opacity="0.72"/>
<path d="M286 8 L290 118 L293 224 L282 312" fill="none" stroke="#69756f" stroke-width="2" stroke-linecap="round" stroke-linejoin="round" opacity="0.72"/>
<path d="M305 8 L295 118 L295 224 L318 312" fill="none" stroke="#69756f" stroke-width="2" stroke-linecap="round" stroke-linejoin="round" opacity="0.72"/>
<path d="M324 8 L331 118 L328 224 L323 312" fill="none" stroke="#69756f" stroke-width="2" stroke-linecap="round" stroke-linejoin="round" opacity="0.72"/>
<path d="M343 8 L336 118 L330 224 L328 312" fill="none" stroke="#69756f" stroke-width="2" stroke-linecap="round" stroke-linejoin="round" opacity="0.72"/>
<path d="M362 8 L372 118 L363 224 L364 312" fill="none" stroke="#69756f" stroke-width="2" stroke-linecap="round" stroke-linejoin="round" opacity="0.72"/>
<path d="M381 8 L377 118 L396 224 L369 312" fill="none" stroke="#69756f" stroke-width="2" stroke-linecap="round" stroke-linejoin="round" opacity="0.72"/>
<path d="M400 8 L413 118 L398 224 L405 312" fill="none" stroke="#69756f" stroke-width="2" stroke-linecap="round" stroke-linejoin="round" opacity="0.72"/>
<path d="M27 8 L26 118 L39 224 L18 312" fill="none" stroke="#69756f" stroke-width="2" stroke-linecap="round" stroke-linejoin="round" opacity="0.72"/>
<path d="M46 8 L31 118 L41 224 L54 312" fill="none" stroke="#69756f" stroke-width="2" stroke-linecap="round" stroke-linejoin="round" opacity="0.72"/>
<g fill="#bf5f45" opacity="0.88">
<circle cx="144" cy="119" r="6"/>
<circle cx="247" cy="204" r="6"/>
<circle cx="333" cy="108" r="6"/>
<circle cx="92" cy="72" r="6"/>
</g>
<rect x="14" y="14" width="392" height="292" rx="18" fill="none" stroke="#183a37" stroke-width="3" opacity="0.45"/>
</svg>
