<svg xmlns="http://www.w3.org/2000/svg" viewBox="0 0 420 320" role="img" aria-label="Unlabeled north-up street-grid crop" data-orientation="north-up">
<metadata>{"orientation":"north-up","projection":"local-web-mercator"}</metadata>
<defs>
<clipPath id="mapCrop"><rect x="8" y="8" width="404" height="304" rx="16"/></clipPath>
</defs>
<rect width="420" height="320" fill="#ede7d8"/>
<rect x="8" y="8" width="404" height="304" rx="16" fill="#f7f1e3" stroke="#d8cbb2" stroke-width="1.25"/>
<g clip-path="url(#mapCrop)">
<g data-layer="major-road-casing">
<path d="M181.3 163.1 L193.6 169.1 L218.6 169.9 L227.8 172.3 M210.8 170.2 L190.9 169.2 M240.5 131.9 L241.3 137.6 L246.1 144.3 L244.7 149.4 M163.9 137.5 L169.6 145.5 L170.4 153 L176.8 159.8 M206.3 177.9 L237.5 172.1 L242.1 168.5 M243.8 152.1 L244.7 158.5 M253.7 163.1 L247.1 161.4 M254.1 187 L249.4 193.1 L238.2 196.8 L232.1 208.5 L217.4 216.8 M169.3 145.2 L168.4 149.7 L172.1 155.9 M254.8 178.7 L254.7 165 M178.2 136.6 L183.4 128.6 L177.6 115.3 L180.2 100.3 M241.1 127.9 L243.9 117.2 M260.6 164.3 L253.7 163.1 M233.1 176.6 L230 174.4 M206.9 220.2 L216.6 216.7 L230.7 208.3 L236.6 198.3 M236.9 179.5 L233.1 176.6 M234.2 178.5 L229.9 179.8 L222.5 187.6 M221.4 188.2 L230.9 179.1 M264.6 164.6 L272.4 166.9 M237.7 179.1 L242.4 181.3 M246.8 182.1 L255.7 183 M196.3 189.6 L181.5 203.9 M243.9 117.2 L247.4 106.9 M173.9 140.6 L170.4 143.7 M189.8 194.7 L199.9 185.6 M180.2 119.9 L184.4 127.3 M266.7 189 L263.7 185.8 L255.8 183.6 M255.7 183 L261.9 184.2 L266.5 187.5 M141.6 116.1 L156.6 130.8 M242.9 84.8 L249.7 98.9 L249.3 104.5 M286.1 175.1 L277.1 170.5 M173.1 140.7 L175.3 138.9 M158.7 133.3 L148.2 125.1 M212.5 218.9 L186.2 230.1 M247.7 106 L249.3 99 L245.4 90.9 M105 120.1 L116.5 123.3 L128.2 119.8 M195.9 189.3 L177.2 179.8 L170.5 171.4 M227.9 194.2 L216.2 202.1 M266.5 187.5 L271.4 193.5 L279.1 196.1 M162.9 137.8 L158.7 133.3 M252.8 155.4 L251.5 162 M248 171.4 L250.5 165.8 M205.8 199.4 L214.6 193.5 M246.5 173.3 L240.8 176.2 M214.6 193.5 L220.4 189.3 M285.7 174.6 L297.6 177.6 M277.1 170.5 L274.3 168.6 M255 181.7 L254.6 184.6 M238.2 123 L223.3 123.8 L210 126.9 L206.1 129.5 M180.2 100.3 L184.9 90.2 L197 85.3 M291.5 212.9 L291.3 206.3 L288.7 201.4 L282.9 197.7 L272.4 194.8 M206.1 128.4 L214.8 124.9 L234.5 122.6 M204.7 76.8 L201 84 L185.6 90.3 L180.8 101.2 M272.4 194.8 L266.7 189 M90.4 147 L92.4 142.4 L91.9 126 L97.3 122.2 M220.4 215.9 L205.2 221.8 L198.9 227.6 M211.4 182.3 L202.5 185.8 L203.2 188.6 M184.8 199.4 L189.8 194.7 M302.2 179.3 L316.1 188.9 M216.2 202.1 L209.2 206.5 M117.4 123.7 L106.8 120.5 L101.7 121.1 M132.6 160.8 L126.2 155.7 L108.6 155.3 M128.3 120 L122.1 122.3 M205.1 130.3 L194.3 134.1 M173.6 210.5 L181.6 202.8 M196.2 198.1 L192.1 195.1 L198.2 189.3 M114 154.6 L126.3 155.4 L132.7 159.9 M210.3 180 L215.3 178.8 M197.8 205.8 L201.5 202.4 M224.4 180.6 L218.5 183.5 M239 69.6 L242.9 84.8 M300.3 144 L281.6 140.9 M183.9 231.4 L175 237.4 L173.6 246.2 M137.1 172.1 L133.5 163.1 M306.3 170.4 L300 179.4 L302.7 189.1 L300.3 196.3 M296.9 195.2 L300.5 194.8 L302.1 190.3 L299.3 180.1 L302 174.2 M122.1 122.3 L117.4 123.7 M134 107.6 L141.6 116.1 M260.2 126.8 L255.1 122.3 M210.8 170.2 L205.1 171.3 L204.7 175.1 L215 175.6 M203.7 183.2 L201.7 186 L202.7 187.9 M166.6 152.6 L163.5 150 L159.5 151.4 L155.4 149.6 M252.6 112.4 L252.4 100.1 M156.9 216.3 L164.4 221.6 L165.5 237.1 M216.1 178.6 L219.4 178.3 M219.4 178.3 L222.9 178.3 M194.8 133.5 L201.8 131.6 M186.5 132.8 L194.8 133.5 M194.3 134.1 L186.4 133.2 M205.4 178 L206.9 179.7 M136.9 190.3 L137.6 181.2 M256 170.5 L257.5 171.2 L264.2 165.9 M243.9 149.7 L245.3 145.2 M216.3 184.5 L214.4 182 M163.8 238.6 L165.2 235.9 L163.4 228.5 L164.3 222.5 L160.2 218.7 M126 83.9 L131.8 103.9 M133.6 162 L136.1 168.6 M131.8 105.7 L128.9 93.2 L123.4 80.8 M206.9 179.7 L208.9 180.2 M167.8 217.7 L161.8 227.2 L141.6 243.4 M316.1 188.9 L328.9 199.2 M205.2 191.2 L210.7 189.8 M270.5 134.7 L275.8 131.4 M226.7 104.7 L238.6 117.2 M271.8 135.6 L275.8 138.8 M275.8 131.8 L271.8 135.6 M216.5 187.2 L216.3 184.5 M193.9 212.9 L190.1 218.2 M88.8 149 L75.6 154.7 M186.4 133.2 L179.6 130.7 M238.6 117.2 L226.7 105.5 M211.5 189.5 L215.5 187.7 M224.5 178.6 L225.2 180 M179.9 130.4 L186.5 132.8 M205.2 191.2 L201.4 195.1 M152.4 214 L140.4 205.9 M174.9 210.2 L169.2 215.9 M151.4 147.7 L149.2 146.5 L149.4 140.9 L143.2 142.3 M208.9 180.2 L210.3 180 M222.9 178.3 L224.5 178.6 M218.5 183.5 L216.3 184.5 M92.2 141.9 L89.3 148.5 M134.6 260.6 L137 247.3 L140.8 243.3 M201.8 131.6 L205 129.3 M75.6 154 L87.8 149.3 M188.6 228.2 L192.8 226 M215.3 178.8 L216.1 178.6 M243 168.3 L243.5 170.4 M142.2 242 L165.2 221.6 M254.8 169.4 L254.7 165 M238.1 112.6 L244 105.6 L243.4 95.2 L241.3 93.9 M260.9 157.3 L259.5 162.9 M115.1 134.4 L133.6 136.5 L140.8 141.9 M144.3 120.4 L142.9 118.8 M148.9 265.1 L164.7 262.2 L175 265.8 M174.9 266.1 L163.5 262.5 L148.8 265.4 M243.5 170.4 L246 171.4 M245.6 171.7 L243.2 170.7 M169.9 154.5 L166.6 152.6 M245.3 145.2 L246.6 142.4 M139.7 244.9 L137.3 247.4 L135.2 260.4 M389.6 157.9 L387.4 162.6 L388.2 175.5 L379.6 181.9 L372.8 197.9 L376.9 208.4 L375.7 214.1 L362.8 226.5 L343.6 235.6 L328.6 251.4 L311.4 262 L305 271 M296.8 280.2 L311.9 260.8 L327.8 251.4 L343.4 235.1 L362.3 226.2 L375.1 213.9 L376.3 208.4 L372.1 199.2 L373.9 192.4 L377.4 183.8 L386.9 176.2 L387.9 171.3 M212.6 50.7 L231.6 62.3 M296.5 225.8 L291.6 215.1 M91.5 137.7 L92.2 141.9 M201.1 273.5 L187.9 271.5 L178.2 267.4 M91.4 127.7 L91.3 133.3 M234.8 65.5 L220.8 56 M306 83.9 L323.1 81.6 L337.7 75.2 M178.6 135.2 L180.8 128.6 L176.8 119 M198.3 188.8 L203.9 180.6 M182.4 135.8 L170.4 143.7 M241.1 82.6 L240.6 81.1 M172.8 249.7 L172.8 241.5 M217 57.3 L209.3 61.1 L204.9 66.3 M230.8 178.3 L224.4 180.6 M225.4 178.4 L231.4 177.6 M238.7 172.2 L233.2 174.7 M191.7 134.3 L182.4 135.8 M180.2 119.9 L189.1 129.6 M248 140 L246.8 144.9 M246.8 182.1 L252.9 182 L254.4 177.8 M270.7 164.6 L272.4 166.9 M240.6 119.7 L242.7 119.5 M205.4 178 L206.4 180.2 L203.7 183.2 M198.2 189.3 L201.5 187.4 L204.9 190.8 M214.4 182 L213.2 180.1 L215.3 178.8 M210.3 180 L211.4 182.3 M107.9 114.7 L108.5 120 L111.9 122.3 M214.4 182 L211.4 182.3 M91 133.2 L91.7 143.3 M91.7 143.3 L89.5 147.6 L83.7 150.8 M207.5 61 L208.3 56 L199 43 M244.5 74.7 L246.5 78.3 L251 80.1 M295.6 93.8 L293 96.3 L292.9 99.2 M296.2 90.9 L306 83.9 M298.9 180.8 L298.4 179.4 M207.6 128.4 L206.5 130.1 M307 85.4 L297.7 91.9 M242.1 92 L240.4 93.1 M154 261.8 L166.3 259.8 L170.1 262.3 L169.8 265.7 M157.6 262.4 L152 263.7 L143.7 271.6 L143.6 276.2 M81.6 216 L80.8 202.6 M230.8 49.7 L225 56 L229.9 61.1 M224.7 58.8 L209.4 52.1 M204.3 128.4 L206.1 128.4 M101.7 64.9 L114.2 64.8 L124.9 58 M373.1 248.4 L360.1 249.5 L332.7 236.5 L305.8 232 M205 129.3 L204.3 128.4 M258.1 171.8 L258.1 170.8 M188.6 133.1 L188.5 133.6 M139.3 205 L137 201.4 L136.7 195.2 M289.2 128.8 L279.5 130.7 M310.4 163.3 L302.6 174.4 M203.2 188.6 L204.9 190.8 M187.3 91.2 L198.7 90.4 L202.9 98.6 L207 102.4 M201.4 195.1 L196.2 198.1 M225.2 180 L224.4 180.6 M137.2 194 L137.9 202.2 M243.2 170.7 L241.4 170.7 M259.5 162.9 L265.9 163.9 M273 143.6 L273.5 152.8 M249.4 172.3 L246.6 172.1 M304.4 124.8 L290.6 128.3 M166.6 152.6 L168.3 151.7 M247 171.7 L249.4 171.8 M262.2 110.6 L261.2 114.6 M247.7 139.8 L248.5 136.9 M215.5 187.7 L216.5 187.2 M254.6 171.7 L254.8 169.4 M269.9 160.8 L269.3 154.9 M191.5 199.5 L186.1 203.3 M260.9 169 L258.1 171.8 M259.2 154 L258.1 151.3 M251.8 171.7 L254.6 171.7 M254.6 172.5 L251.7 172.2 M94.9 123.4 L91.4 127.7 M320.4 248 L323.1 245.7 L333.5 245.4 L338.3 242.8 L373.2 204.6 L383.2 183.7 L391.6 176.6 M190.9 214.4 L179.9 208.6 M206.1 129.5 L205.1 130.3 M202.7 187.9 L203.2 188.6 M294.7 125.9 L309.7 123.9 M246.6 142.4 L247.3 140.8 M101.7 121.1 L97.4 122.4 M234.5 122.6 L240.4 122.3 M249.4 171.8 L251.3 171.7 M251.3 172.2 L249.4 172.3 M97.3 122.2 L101.5 120.9 M145.8 209.4 L152.2 213.5 M249.7 136.5 L253.5 137.1 M269.3 154.9 L263.8 154.5 M140 204.9 L145.8 209.4 M175 265.8 L193.3 272.4 M170.5 171.4 L170.7 170.4 M258 150.8 L258 148.4 M186.1 203.3 L179.9 208.6 M210.7 189.8 L211.5 189.5 M170.7 170.4 L171.4 170.3 M87.8 149.3 L90.4 147 M75.6 154.7 L67.7 162.2 M246 171.4 L246.7 171.6 M263.4 166.9 L260.9 169 M257.8 172.1 L255.9 173.6 M246.2 171.9 L245.6 171.7 M206.7 204.5 L203.4 201.7 M205.4 129 L206.1 128.4 M255.4 174 L254.6 172.5 M214.4 70 L212.3 73.8 L212.2 79.5 L215.4 85.1 L214 88 L219.6 88.5 L225.5 93.3 L226 98.9 M91.3 133.3 L91.3 136.4 M259.6 134 L264.6 130.6 M247.3 140.8 L247.7 139.8 M171.4 170.3 L170.7 170.4 M246.6 172.1 L246.2 171.9 M204.9 190.8 L205.2 191.2 M205 129.3 L205.4 129 M255.7 137.2 L259.2 137.6 M203.5 202.4 L206.4 204.7 M364.7 214.9 L337.8 243.6 L333.5 245.5 L323.3 245.8 L313.6 257 M263.8 86.9 L259 95.5 M262 154.3 L259.9 154.1 M244.6 121.5 L241.7 123.2 M246.7 171.6 L247 171.7 M336.1 204.5 L347.6 210.9 L356.9 219 M241.4 122.9 L238.2 123 M246.4 125.6 L249.8 126.3 M104.6 179.5 L126.7 179.9 M97.4 122.4 L94.9 123.4 M180 267.8 L191.6 272 L209 273.5 L218.8 276.7 L238 288.7 L256.4 310.5 M249.9 304.5 L238.1 290.1 L218.6 277.2 L208.9 274 L189.8 272.3 L178.6 267.8 M154.4 148.9 L151.4 147.7 M251.3 171.7 L251.8 171.7 M248.5 136.9 L249.7 136.5 M209.2 206.5 L206.7 204.5 M263.8 154.5 L262 154.3 M259.2 137.6 L262.3 138 M323.2 83 L309.2 84.7 M252 92.1 L255.4 84.5 M206.4 204.7 L208.7 206.9 M262.7 135.5 L259.6 134 M243.7 125 L246.4 125.6 M244.4 122.7 L243.7 125 M244.5 121.1 L241.6 122.6 M203.4 72 L205.4 64.1 M273.5 153.7 L270.1 154.9 M258 148.4 L258.1 147.5 M241.6 122.2 L244.4 120.7 M106.5 154.9 L114 154.6 M179.6 130.7 L178.8 130.3 M251.7 172.2 L251.4 172.2 M262.3 138 L265.5 137 M179.2 129.9 L179.9 130.4 M262 154.3 L261.6 155.2 M261.1 156.5 L260.9 157.3 M241.5 121.5 L240.1 119.2 M289.6 193.5 L298.2 182.6 M254.1 137.1 L255.7 137.2 M128.2 264.9 L148.9 265.1 M261.6 155.2 L261.3 156 M273.7 153.7 L278.4 153.7 M258.1 147.5 L258.1 146.8 M258.1 151.3 L258 150.8 M283.1 154.2 L279.9 154 L283.1 153.9 M269.2 133.6 L273.3 130 M251.6 305.5 L234.6 287 L218.8 277.3 L209.1 274.1 M259.9 154.1 L259.2 154 M251.4 172.2 L251.3 172.2 M201.9 202.1 L203.5 202.4 M92.3 155.2 L104.5 155 M264.2 165.9 L264.5 164.9 M269.7 139.3 L273.1 141.1 M328.9 199.2 L336.1 204.5 M82.1 216.1 L81 228.5 M261.3 156 L261.1 156.5 M240.1 119.2 L238.6 117.2 M320.8 157.1 L313.2 161.4 M265.5 137 L267.8 134.8 M265.9 129.7 L270.1 126.7 M277.6 116 L269 120.7 M258.1 146.8 L258.2 146.3 M321.3 155 L314.9 149.5 M155.4 149.6 L154.4 148.9 M64 165.8 L69 159.9 M258.1 171.8 L257.8 172.1 M209.3 273.6 L224.5 280.1 M269.8 162.8 L269.9 161.4 M268.9 164 L269.8 162.8 M264.2 166.6 L263.4 166.9 M25.7 175.1 L36.7 182 L48.5 181 L60.5 183 M78.7 233.7 L81.4 219.9 M182.9 99.7 L181.8 106.2 M336.6 218.6 L327.1 229.9 L324.9 238.8 M266.5 164 L267.7 164 M67.7 162.2 L63.4 168.4 M263.8 135.8 L265.5 137 M241.4 121.9 L241.8 120.7 M253.5 137.1 L254.1 137.1 M251.9 123.3 L252.4 121.2 M72.5 156.6 L75.6 154 M279.5 295.9 L320.4 248 M217.6 104.3 L212.3 104.1 M140.8 243.3 L142.2 242 M135.4 180.4 L126.7 179.9 M267.7 164 L268.9 164 M268.9 164 L270.2 164.1 M280 153.6 L284.5 154 M272.8 109.4 L273.1 100.6 L278.6 100.9 M117.1 72.6 L126 83.9 M69 159.9 L72.5 156.6 M203.4 201.7 L203 201.3 M268.6 121.1 L273.5 116.7 M212.4 103.6 L217.6 103.9 M182.9 99.7 L186.5 91.8 M251.3 125.8 L251.6 124.6 M176.4 21.4 L194.5 35 L200.6 43.8 L207.6 48.1 M240.4 122.3 L241.4 121.9 M241.4 122.7 L240.4 122.8 M265.9 163.9 L266.5 164 M186.5 91.8 L182.9 99.7 M218.3 103.9 L223.5 104 M242.6 119.9 L244.3 120.1 M266.8 137.7 L268.4 138.6 M240.4 122.3 L241.4 122.3 M223.2 104.3 L218.4 104.4 M319.1 109.7 L305.8 102.4 M251.6 124.6 L251.9 123.3 M265.5 137 L266.8 137.7 M235.9 113.2 L238.1 112.6 M238.1 112.6 L236.8 114.1 M264.9 86.7 L273.3 88.9 M246 120.9 L244.7 121.1 M320.6 110.2 L329.4 114.7 L334.6 121.3 M148.8 265.4 L134.7 265.7 M240.3 94 L231.5 97.5 M198.6 273 L209.3 273.6 M264.3 134.9 L263.8 135.8 M269.9 161.4 L269.9 160.8 M301.4 230.2 L296.5 225.8 M240.6 119.7 L241.5 120.1 M270.1 154.9 L269.3 154.9 M270.2 164.1 L270.7 164.6 M241.8 120.7 L242.3 120.1 M241.4 122.7 L241.4 122.3 M389 178.9 L382.7 185 L374.8 202.6 L369 209.9 M290.8 155.9 L286.2 154.5 M328.1 163.3 L323.3 157.1 M241.7 123.2 L241.4 122.9 M98.5 177.3 L98.6 172.9 L108.5 165.7 M250.8 126.1 L251.3 125.8 M151.4 262.8 L163 261.2 M273.5 152.8 L273.5 153.7 M240.1 119.2 L240.6 119.7 M250.1 126.2 L250.8 126.1 M241.5 120.1 L242.3 120.1 M254.1 137.1 L254.1 137.1 M251.1 126.3 L251.3 125.8 M267.8 134.8 L268.9 133.9 M331.2 166.1 L332.4 172.2 L336.2 175.4 M68.8 188.6 L72.9 192.1 M53.1 178.9 L60.6 172.5 M241.4 122.3 L241.4 121.9 M258.4 76.2 L260.9 63 M241.4 122.9 L241.4 122.7 M271.6 127.3 L274.2 129.1 M268.4 138.6 L269.3 139.1 M207 102.4 L210.5 103.4 M307.5 166.5 L306.5 163.5 L300.8 160.4 M120.1 207.5 L100.5 198.7 M274.2 129.1 L277.2 130.8 M241.6 122.6 L241.4 122.7 M314 123.2 L307.5 124.5 M244.7 121.1 L244.6 121.5 M199.9 185.6 L201.4 183.3 M269.7 126.1 L268.6 123.8 M142.8 142.8 L140.8 141.9 M304.5 100.2 L294.8 101.2 L287.6 108.1 M249.8 126.3 L250.1 126.2 M168.8 267.9 L170.1 262 L168 257.2 M241.4 122.3 L241.6 122.2 M276.2 89.2 L285 90 M272.9 142.4 L272.9 143.2 M59.8 183.7 L46 184.5 M244.6 120.7 L244.7 121.1 M372.8 226.4 L379 214.3 L375.5 199.9 L380 188 M304.2 99.8 L296 93.3 M264.9 130.4 L265.9 129.7 M313.6 257 L270.8 306.1 M380.2 188.6 L375.9 200.2 L379.2 215.1 L375.3 224.6 L364.7 232.6 L366.3 241.4 M244.3 120.1 L244.6 120.5 M71.8 192.1 L68.2 189 M242.3 120.1 L242.6 119.9 M244.6 120.7 L245.1 120.6 M74.6 193.5 L76.8 195.9 M284.5 154 L287.4 154.2 M209.4 103.6 L207 102.4 M274 129.3 L272.1 128 M209.1 274.1 L201.1 273.5 M273.1 141.1 L273 141.9 M141.6 142.2 L143.2 142.3 M269.6 124.1 L270.2 126 M62 169.7 L64 165.8 M268.6 123.8 L268.4 121.9 M270.2 126 L271.6 127.3 M141.6 142.2 L142.9 142.5 M381.9 175.1 L357.8 198.8 M272.4 109.5 L272.4 102.7 M285 154.4 L283.1 154.2 M181.8 106.2 L181.6 107.9 M226.7 105.5 L225.2 104.4 M273 141.9 L272.9 142.4 M244.6 120.5 L244.6 120.7 M81 228.5 L78.8 239.3 M244.7 121.1 L244.5 121.1 M88.5 252.1 L89.1 247.7 L78.9 241.2 M309.2 84.7 L307 85.4 M244.4 120.7 L244.6 120.7 M269.3 139.1 L269.7 139.3 M298.3 277.3 L311.7 262.8 M63.1 169 L61.1 173 M287.6 108.1 L281.3 114 M60.5 183 L65.7 185.9 M275.7 130.3 L274 129.3 M123.6 208.4 L135 206.9 M65.7 185.9 L68.8 188.6 M259.2 98.7 L268.2 99.1 M273.5 153.7 L273.7 153.7 M226.4 100.7 L225.7 102.6 M272.9 143.2 L273 143.6 M225.3 102.5 L226 100.6 M264.6 130.6 L264.9 130.4 M65.1 186.3 L59.8 183.7 M269.2 122.6 L269.6 124.1 M338.3 136.2 L338.1 124.8 M224.8 104.4 L223.2 104.3 M137.6 180.5 L135.4 180.4 M68.2 189 L65.1 186.3 M283.1 153.9 L284.5 154 M293.5 157.1 L290.8 155.9 M225.7 102.6 L225.3 104.1 M158.4 241 L163.8 238.6 M225.3 104.1 L226.7 104.7 M339.2 138.7 L343.7 149.1 M103.9 223.7 L95.5 215.5 L96.5 209.8 L93.2 201.3 L96.9 196.7 M178.2 267.4 L174.9 266.1 M108.5 165.7 L107 157.8 M293.3 156.5 L296.5 158 M212.3 104.1 L211 103.8 M278.9 153.6 L279.4 153.6 M279.4 153.6 L280 153.6 M268.9 133.9 L269.2 133.6 M211.1 103.5 L212.4 103.6 M278.4 153.7 L278.9 153.6 M81.4 219.9 L81.6 216 M72.9 192.1 L74.6 193.5 M331.1 80.6 L323.2 83 M223.5 104 L224.9 104 M296.6 158.4 L293.5 157.1 M193.3 272.4 L198.6 273 M228.1 99 L226.5 100.6 M224.5 280.1 L235.1 286.6 M102.8 135.6 L99.5 130.9 L100.4 123.2 M140.8 141.9 L141.6 142.2 M339.4 177.3 L349.4 186.7 M53 179.6 L40.8 183.9 M278.8 32.5 L272.5 46 L272.3 55.2 M289.1 154.7 L290.9 155.5 M286.2 154.5 L285 154.4 M268.5 79 L266 83.4 M273.3 130 L274 129.3 M271.6 127.3 L272.1 128 M143.2 142.3 L142.9 142.5 M210.4 103.8 L209.4 103.6 M327.3 228.7 L334.3 220.4 M271.6 64.9 L269.8 75.2 M224.9 104 L225.1 103.1 M387.9 171.3 L385.1 166.4 L390.1 155.3 M191.7 214.8 L190.9 214.4 M277.6 116 L274 116.6 M269.7 99.4 L278.6 100.9 M270.1 126.7 L269.7 126.1" fill="none" stroke="#fcf7e8" stroke-width="6.4" opacity="0.92" stroke-linecap="round" stroke-linejoin="round"/>
</g>
<g data-layer="major-road">
<path d="M181.3 163.1 L193.6 169.1 L218.6 169.9 L227.8 172.3 M210.8 170.2 L190.9 169.2 M240.5 131.9 L241.3 137.6 L246.1 144.3 L244.7 149.4 M163.9 137.5 L169.6 145.5 L170.4 153 L176.8 159.8 M206.3 177.9 L237.5 172.1 L242.1 168.5 M243.8 152.1 L244.7 158.5 M253.7 163.1 L247.1 161.4 M254.1 187 L249.4 193.1 L238.2 196.8 L232.1 208.5 L217.4 216.8 M169.3 145.2 L168.4 149.7 L172.1 155.9 M254.8 178.7 L254.7 165 M178.2 136.6 L183.4 128.6 L177.6 115.3 L180.2 100.3 M241.1 127.9 L243.9 117.2 M260.6 164.3 L253.7 163.1 M233.1 176.6 L230 174.4 M206.9 220.2 L216.6 216.7 L230.7 208.3 L236.6 198.3 M236.9 179.5 L233.1 176.6 M234.2 178.5 L229.9 179.8 L222.5 187.6 M221.4 188.2 L230.9 179.1 M264.6 164.6 L272.4 166.9 M237.7 179.1 L242.4 181.3 M246.8 182.1 L255.7 183 M196.3 189.6 L181.5 203.9 M243.9 117.2 L247.4 106.9 M173.9 140.6 L170.4 143.7 M189.8 194.7 L199.9 185.6 M180.2 119.9 L184.4 127.3 M266.7 189 L263.7 185.8 L255.8 183.6 M255.7 183 L261.9 184.2 L266.5 187.5 M141.6 116.1 L156.6 130.8 M242.9 84.8 L249.7 98.9 L249.3 104.5 M286.1 175.1 L277.1 170.5 M173.1 140.7 L175.3 138.9 M158.7 133.3 L148.2 125.1 M212.5 218.9 L186.2 230.1 M247.7 106 L249.3 99 L245.4 90.9 M105 120.1 L116.5 123.3 L128.2 119.8 M195.9 189.3 L177.2 179.8 L170.5 171.4 M227.9 194.2 L216.2 202.1 M266.5 187.5 L271.4 193.5 L279.1 196.1 M162.9 137.8 L158.7 133.3 M252.8 155.4 L251.5 162 M248 171.4 L250.5 165.8 M205.8 199.4 L214.6 193.5 M246.5 173.3 L240.8 176.2 M214.6 193.5 L220.4 189.3 M285.7 174.6 L297.6 177.6 M277.1 170.5 L274.3 168.6 M255 181.7 L254.6 184.6 M238.2 123 L223.3 123.8 L210 126.9 L206.1 129.5 M180.2 100.3 L184.9 90.2 L197 85.3 M291.5 212.9 L291.3 206.3 L288.7 201.4 L282.9 197.7 L272.4 194.8 M206.1 128.4 L214.8 124.9 L234.5 122.6 M204.7 76.8 L201 84 L185.6 90.3 L180.8 101.2 M272.4 194.8 L266.7 189 M90.4 147 L92.4 142.4 L91.9 126 L97.3 122.2 M220.4 215.9 L205.2 221.8 L198.9 227.6 M211.4 182.3 L202.5 185.8 L203.2 188.6 M184.8 199.4 L189.8 194.7 M302.2 179.3 L316.1 188.9 M216.2 202.1 L209.2 206.5 M117.4 123.7 L106.8 120.5 L101.7 121.1 M132.6 160.8 L126.2 155.7 L108.6 155.3 M128.3 120 L122.1 122.3 M205.1 130.3 L194.3 134.1 M173.6 210.5 L181.6 202.8 M196.2 198.1 L192.1 195.1 L198.2 189.3 M114 154.6 L126.3 155.4 L132.7 159.9 M210.3 180 L215.3 178.8 M197.8 205.8 L201.5 202.4 M224.4 180.6 L218.5 183.5 M239 69.6 L242.9 84.8 M300.3 144 L281.6 140.9 M183.9 231.4 L175 237.4 L173.6 246.2 M137.1 172.1 L133.5 163.1 M306.3 170.4 L300 179.4 L302.7 189.1 L300.3 196.3 M296.9 195.2 L300.5 194.8 L302.1 190.3 L299.3 180.1 L302 174.2 M122.1 122.3 L117.4 123.7 M134 107.6 L141.6 116.1 M260.2 126.8 L255.1 122.3 M210.8 170.2 L205.1 171.3 L204.7 175.1 L215 175.6 M203.7 183.2 L201.7 186 L202.7 187.9 M166.6 152.6 L163.5 150 L159.5 151.4 L155.4 149.6 M252.6 112.4 L252.4 100.1 M156.9 216.3 L164.4 221.6 L165.5 237.1 M216.1 178.6 L219.4 178.3 M219.4 178.3 L222.9 178.3 M194.8 133.5 L201.8 131.6 M186.5 132.8 L194.8 133.5 M194.3 134.1 L186.4 133.2 M205.4 178 L206.9 179.7 M136.9 190.3 L137.6 181.2 M256 170.5 L257.5 171.2 L264.2 165.9 M243.9 149.7 L245.3 145.2 M216.3 184.5 L214.4 182 M163.8 238.6 L165.2 235.9 L163.4 228.5 L164.3 222.5 L160.2 218.7 M126 83.9 L131.8 103.9 M133.6 162 L136.1 168.6 M131.8 105.7 L128.9 93.2 L123.4 80.8 M206.9 179.7 L208.9 180.2 M167.8 217.7 L161.8 227.2 L141.6 243.4 M316.1 188.9 L328.9 199.2 M205.2 191.2 L210.7 189.8 M270.5 134.7 L275.8 131.4 M226.7 104.7 L238.6 117.2 M271.8 135.6 L275.8 138.8 M275.8 131.8 L271.8 135.6 M216.5 187.2 L216.3 184.5 M193.9 212.9 L190.1 218.2 M88.8 149 L75.6 154.7 M186.4 133.2 L179.6 130.7 M238.6 117.2 L226.7 105.5 M211.5 189.5 L215.5 187.7 M224.5 178.6 L225.2 180 M179.9 130.4 L186.5 132.8 M205.2 191.2 L201.4 195.1 M152.4 214 L140.4 205.9 M174.9 210.2 L169.2 215.9 M151.4 147.7 L149.2 146.5 L149.4 140.9 L143.2 142.3 M208.9 180.2 L210.3 180 M222.9 178.3 L224.5 178.6 M218.5 183.5 L216.3 184.5 M92.2 141.9 L89.3 148.5 M134.6 260.6 L137 247.3 L140.8 243.3 M201.8 131.6 L205 129.3 M75.6 154 L87.8 149.3 M188.6 228.2 L192.8 226 M215.3 178.8 L216.1 178.6 M243 168.3 L243.5 170.4 M142.2 242 L165.2 221.6 M254.8 169.4 L254.7 165 M238.1 112.6 L244 105.6 L243.4 95.2 L241.3 93.9 M260.9 157.3 L259.5 162.9 M115.1 134.4 L133.6 136.5 L140.8 141.9 M144.3 120.4 L142.9 118.8 M148.9 265.1 L164.7 262.2 L175 265.8 M174.9 266.1 L163.5 262.5 L148.8 265.4 M243.5 170.4 L246 171.4 M245.6 171.7 L243.2 170.7 M169.9 154.5 L166.6 152.6 M245.3 145.2 L246.6 142.4 M139.7 244.9 L137.3 247.4 L135.2 260.4 M389.6 157.9 L387.4 162.6 L388.2 175.5 L379.6 181.9 L372.8 197.9 L376.9 208.4 L375.7 214.1 L362.8 226.5 L343.6 235.6 L328.6 251.4 L311.4 262 L305 271 M296.8 280.2 L311.9 260.8 L327.8 251.4 L343.4 235.1 L362.3 226.2 L375.1 213.9 L376.3 208.4 L372.1 199.2 L373.9 192.4 L377.4 183.8 L386.9 176.2 L387.9 171.3 M212.6 50.7 L231.6 62.3 M296.5 225.8 L291.6 215.1 M91.5 137.7 L92.2 141.9 M201.1 273.5 L187.9 271.5 L178.2 267.4 M91.4 127.7 L91.3 133.3 M234.8 65.5 L220.8 56 M306 83.9 L323.1 81.6 L337.7 75.2 M178.6 135.2 L180.8 128.6 L176.8 119 M198.3 188.8 L203.9 180.6 M182.4 135.8 L170.4 143.7 M241.1 82.6 L240.6 81.1 M172.8 249.7 L172.8 241.5 M217 57.3 L209.3 61.1 L204.9 66.3 M230.8 178.3 L224.4 180.6 M225.4 178.4 L231.4 177.6 M238.7 172.2 L233.2 174.7 M191.7 134.3 L182.4 135.8 M180.2 119.9 L189.1 129.6 M248 140 L246.8 144.9 M246.8 182.1 L252.9 182 L254.4 177.8 M270.7 164.6 L272.4 166.9 M240.6 119.7 L242.7 119.5 M205.4 178 L206.4 180.2 L203.7 183.2 M198.2 189.3 L201.5 187.4 L204.9 190.8 M214.4 182 L213.2 180.1 L215.3 178.8 M210.3 180 L211.4 182.3 M107.9 114.7 L108.5 120 L111.9 122.3 M214.4 182 L211.4 182.3 M91 133.2 L91.7 143.3 M91.7 143.3 L89.5 147.6 L83.7 150.8 M207.5 61 L208.3 56 L199 43 M244.5 74.7 L246.5 78.3 L251 80.1 M295.6 93.8 L293 96.3 L292.9 99.2 M296.2 90.9 L306 83.9 M298.9 180.8 L298.4 179.4 M207.6 128.4 L206.5 130.1 M307 85.4 L297.7 91.9 M242.1 92 L240.4 93.1 M154 261.8 L166.3 259.8 L170.1 262.3 L169.8 265.7 M157.6 262.4 L152 263.7 L143.7 271.6 L143.6 276.2 M81.6 216 L80.8 202.6 M230.8 49.7 L225 56 L229.9 61.1 M224.7 58.8 L209.4 52.1 M204.3 128.4 L206.1 128.4 M101.7 64.9 L114.2 64.8 L124.9 58 M373.1 248.4 L360.1 249.5 L332.7 236.5 L305.8 232 M205 129.3 L204.3 128.4 M258.1 171.8 L258.1 170.8 M188.6 133.1 L188.5 133.6 M139.3 205 L137 201.4 L136.7 195.2 M289.2 128.8 L279.5 130.7 M310.4 163.3 L302.6 174.4 M203.2 188.6 L204.9 190.8 M187.3 91.2 L198.7 90.4 L202.9 98.6 L207 102.4 M201.4 195.1 L196.2 198.1 M225.2 180 L224.4 180.6 M137.2 194 L137.9 202.2 M243.2 170.7 L241.4 170.7 M259.5 162.9 L265.9 163.9 M273 143.6 L273.5 152.8 M249.4 172.3 L246.6 172.1 M304.4 124.8 L290.6 128.3 M166.6 152.6 L168.3 151.7 M247 171.7 L249.4 171.8 M262.2 110.6 L261.2 114.6 M247.7 139.8 L248.5 136.9 M215.5 187.7 L216.5 187.2 M254.6 171.7 L254.8 169.4 M269.9 160.8 L269.3 154.9 M191.5 199.5 L186.1 203.3 M260.9 169 L258.1 171.8 M259.2 154 L258.1 151.3 M251.8 171.7 L254.6 171.7 M254.6 172.5 L251.7 172.2 M94.9 123.4 L91.4 127.7 M320.4 248 L323.1 245.7 L333.5 245.4 L338.3 242.8 L373.2 204.6 L383.2 183.7 L391.6 176.6 M190.9 214.4 L179.9 208.6 M206.1 129.5 L205.1 130.3 M202.7 187.9 L203.2 188.6 M294.7 125.9 L309.7 123.9 M246.6 142.4 L247.3 140.8 M101.7 121.1 L97.4 122.4 M234.5 122.6 L240.4 122.3 M249.4 171.8 L251.3 171.7 M251.3 172.2 L249.4 172.3 M97.3 122.2 L101.5 120.9 M145.8 209.4 L152.2 213.5 M249.7 136.5 L253.5 137.1 M269.3 154.9 L263.8 154.5 M140 204.9 L145.8 209.4 M175 265.8 L193.3 272.4 M170.5 171.4 L170.7 170.4 M258 150.8 L258 148.4 M186.1 203.3 L179.9 208.6 M210.7 189.8 L211.5 189.5 M170.7 170.4 L171.4 170.3 M87.8 149.3 L90.4 147 M75.6 154.7 L67.7 162.2 M246 171.4 L246.7 171.6 M263.4 166.9 L260.9 169 M257.8 172.1 L255.9 173.6 M246.2 171.9 L245.6 171.7 M206.7 204.5 L203.4 201.7 M205.4 129 L206.1 128.4 M255.4 174 L254.6 172.5 M214.4 70 L212.3 73.8 L212.2 79.5 L215.4 85.1 L214 88 L219.6 88.5 L225.5 93.3 L226 98.9 M91.3 133.3 L91.3 136.4 M259.6 134 L264.6 130.6 M247.3 140.8 L247.7 139.8 M171.4 170.3 L170.7 170.4 M246.6 172.1 L246.2 171.9 M204.9 190.8 L205.2 191.2 M205 129.3 L205.4 129 M255.7 137.2 L259.2 137.6 M203.5 202.4 L206.4 204.7 M364.7 214.9 L337.8 243.6 L333.5 245.5 L323.3 245.8 L313.6 257 M263.8 86.9 L259 95.5 M262 154.3 L259.9 154.1 M244.6 121.5 L241.7 123.2 M246.7 171.6 L247 171.7 M336.1 204.5 L347.6 210.9 L356.9 219 M241.4 122.9 L238.2 123 M246.4 125.6 L249.8 126.3 M104.6 179.5 L126.7 179.9 M97.4 122.4 L94.9 123.4 M180 267.8 L191.6 272 L209 273.5 L218.8 276.7 L238 288.7 L256.4 310.5 M249.9 304.5 L238.1 290.1 L218.6 277.2 L208.9 274 L189.8 272.3 L178.6 267.8 M154.4 148.9 L151.4 147.7 M251.3 171.7 L251.8 171.7 M248.5 136.9 L249.7 136.5 M209.2 206.5 L206.7 204.5 M263.8 154.5 L262 154.3 M259.2 137.6 L262.3 138 M323.2 83 L309.2 84.7 M252 92.1 L255.4 84.5 M206.4 204.7 L208.7 206.9 M262.7 135.5 L259.6 134 M243.7 125 L246.4 125.6 M244.4 122.7 L243.7 125 M244.5 121.1 L241.6 122.6 M203.4 72 L205.4 64.1 M273.5 153.7 L270.1 154.9 M258 148.4 L258.1 147.5 M241.6 122.2 L244.4 120.7 M106.5 154.9 L114 154.6 M179.6 130.7 L178.8 130.3 M251.7 172.2 L251.4 172.2 M262.3 138 L265.5 137 M179.2 129.9 L179.9 130.4 M262 154.3 L261.6 155.2 M261.1 156.5 L260.9 157.3 M241.5 121.5 L240.1 119.2 M289.6 193.5 L298.2 182.6 M254.1 137.1 L255.7 137.2 M128.2 264.9 L148.9 265.1 M261.6 155.2 L261.3 156 M273.7 153.7 L278.4 153.7 M258.1 147.5 L258.1 146.8 M258.1 151.3 L258 150.8 M283.1 154.2 L279.9 154 L283.1 153.9 M269.2 133.6 L273.3 130 M251.6 305.5 L234.6 287 L218.8 277.3 L209.1 274.1 M259.9 154.1 L259.2 154 M251.4 172.2 L251.3 172.2 M201.9 202.1 L203.5 202.4 M92.3 155.2 L104.5 155 M264.2 165.9 L264.5 164.9 M269.7 139.3 L273.1 141.1 M328.9 199.2 L336.1 204.5 M82.1 216.1 L81 228.5 M261.3 156 L261.1 156.5 M240.1 119.2 L238.6 117.2 M320.8 157.1 L313.2 161.4 M265.5 137 L267.8 134.8 M265.9 129.7 L270.1 126.7 M277.6 116 L269 120.7 M258.1 146.8 L258.2 146.3 M321.3 155 L314.9 149.5 M155.4 149.6 L154.4 148.9 M64 165.8 L69 159.9 M258.1 171.8 L257.8 172.1 M209.3 273.6 L224.5 280.1 M269.8 162.8 L269.9 161.4 M268.9 164 L269.8 162.8 M264.2 166.6 L263.4 166.9 M25.7 175.1 L36.7 182 L48.5 181 L60.5 183 M78.7 233.7 L81.4 219.9 M182.9 99.7 L181.8 106.2 M336.6 218.6 L327.1 229.9 L324.9 238.8 M266.5 164 L267.7 164 M67.7 162.2 L63.4 168.4 M263.8 135.8 L265.5 137 M241.4 121.9 L241.8 120.7 M253.5 137.1 L254.1 137.1 M251.9 123.3 L252.4 121.2 M72.5 156.6 L75.6 154 M279.5 295.9 L320.4 248 M217.6 104.3 L212.3 104.1 M140.8 243.3 L142.2 242 M135.4 180.4 L126.7 179.9 M267.7 164 L268.9 164 M268.9 164 L270.2 164.1 M280 153.6 L284.5 154 M272.8 109.4 L273.1 100.6 L278.6 100.9 M117.1 72.6 L126 83.9 M69 159.9 L72.5 156.6 M203.4 201.7 L203 201.3 M268.6 121.1 L273.5 116.7 M212.4 103.6 L217.6 103.9 M182.9 99.7 L186.5 91.8 M251.3 125.8 L251.6 124.6 M176.4 21.4 L194.5 35 L200.6 43.8 L207.6 48.1 M240.4 122.3 L241.4 121.9 M241.4 122.7 L240.4 122.8 M265.9 163.9 L266.5 164 M186.5 91.8 L182.9 99.7 M218.3 103.9 L223.5 104 M242.6 119.9 L244.3 120.1 M266.8 137.7 L268.4 138.6 M240.4 122.3 L241.4 122.3 M223.2 104.3 L218.4 104.4 M319.1 109.7 L305.8 102.4 M251.6 124.6 L251.9 123.3 M265.5 137 L266.8 137.7 M235.9 113.2 L238.1 112.6 M238.1 112.6 L236.8 114.1 M264.9 86.7 L273.3 88.9 M246 120.9 L244.7 121.1 M320.6 110.2 L329.4 114.7 L334.6 121.3 M148.8 265.4 L134.7 265.7 M240.3 94 L231.5 97.5 M198.6 273 L209.3 273.6 M264.3 134.9 L263.8 135.8 M269.9 161.4 L269.9 160.8 M301.4 230.2 L296.5 225.8 M240.6 119.7 L241.5 120.1 M270.1 154.9 L269.3 154.9 M270.2 164.1 L270.7 164.6 M241.8 120.7 L242.3 120.1 M241.4 122.7 L241.4 122.3 M389 178.9 L382.7 185 L374.8 202.6 L369 209.9 M290.8 155.9 L286.2 154.5 M328.1 163.3 L323.3 157.1 M241.7 123.2 L241.4 122.9 M98.5 177.3 L98.6 172.9 L108.5 165.7 M250.8 126.1 L251.3 125.8 M151.4 262.8 L163 261.2 M273.5 152.8 L273.5 153.7 M240.1 119.2 L240.6 119.7 M250.1 126.2 L250.8 126.1 M241.5 120.1 L242.3 120.1 M254.1 137.1 L254.1 137.1 M251.1 126.3 L251.3 125.8 M267.8 134.8 L268.9 133.9 M331.2 166.1 L332.4 172.2 L336.2 175.4 M68.8 188.6 L72.9 192.1 M53.1 178.9 L60.6 172.5 M241.4 122.3 L241.4 121.9 M258.4 76.2 L260.9 63 M241.4 122.9 L241.4 122.7 M271.6 127.3 L274.2 129.1 M268.4 138.6 L269.3 139.1 M207 102.4 L210.5 103.4 M307.5 166.5 L306.5 163.5 L300.8 160.4 M120.1 207.5 L100.5 198.7 M274.2 129.1 L277.2 130.8 M241.6 122.6 L241.4 122.7 M314 123.2 L307.5 124.5 M244.7 121.1 L244.6 121.5 M199.9 185.6 L201.4 183.3 M269.7 126.1 L268.6 123.8 M142.8 142.8 L140.8 141.9 M304.5 100.2 L294.8 101.2 L287.6 108.1 M249.8 126.3 L250.1 126.2 M168.8 267.9 L170.1 262 L168 257.2 M241.4 122.3 L241.6 122.2 M276.2 89.2 L285 90 M272.9 142.4 L272.9 143.2 M59.8 183.7 L46 184.5 M244.6 120.7 L244.7 121.1 M372.8 226.4 L379 214.3 L375.5 199.9 L380 188 M304.2 99.8 L296 93.3 M264.9 130.4 L265.9 129.7 M313.6 257 L270.8 306.1 M380.2 188.6 L375.9 200.2 L379.2 215.1 L375.3 224.6 L364.7 232.6 L366.3 241.4 M244.3 120.1 L244.6 120.5 M71.8 192.1 L68.2 189 M242.3 120.1 L242.6 119.9 M244.6 120.7 L245.1 120.6 M74.6 193.5 L76.8 195.9 M284.5 154 L287.4 154.2 M209.4 103.6 L207 102.4 M274 129.3 L272.1 128 M209.1 274.1 L201.1 273.5 M273.1 141.1 L273 141.9 M141.6 142.2 L143.2 142.3 M269.6 124.1 L270.2 126 M62 169.7 L64 165.8 M268.6 123.8 L268.4 121.9 M270.2 126 L271.6 127.3 M141.6 142.2 L142.9 142.5 M381.9 175.1 L357.8 198.8 M272.4 109.5 L272.4 102.7 M285 154.4 L283.1 154.2 M181.8 106.2 L181.6 107.9 M226.7 105.5 L225.2 104.4 M273 141.9 L272.9 142.4 M244.6 120.5 L244.6 120.7 M81 228.5 L78.8 239.3 M244.7 121.1 L244.5 121.1 M88.5 252.1 L89.1 247.7 L78.9 241.2 M309.2 84.7 L307 85.4 M244.4 120.7 L244.6 120.7 M269.3 139.1 L269.7 139.3 M298.3 277.3 L311.7 262.8 M63.1 169 L61.1 173 M287.6 108.1 L281.3 114 M60.5 183 L65.7 185.9 M275.7 130.3 L274 129.3 M123.6 208.4 L135 206.9 M65.7 185.9 L68.8 188.6 M259.2 98.7 L268.2 99.1 M273.5 153.7 L273.7 153.7 M226.4 100.7 L225.7 102.6 M272.9 143.2 L273 143.6 M225.3 102.5 L226 100.6 M264.6 130.6 L264.9 130.4 M65.1 186.3 L59.8 183.7 M269.2 122.6 L269.6 124.1 M338.3 136.2 L338.1 124.8 M224.8 104.4 L223.2 104.3 M137.6 180.5 L135.4 180.4 M68.2 189 L65.1 186.3 M283.1 153.9 L284.5 154 M293.5 157.1 L290.8 155.9 M225.7 102.6 L225.3 104.1 M158.4 241 L163.8 238.6 M225.3 104.1 L226.7 104.7 M339.2 138.7 L343.7 149.1 M103.9 223.7 L95.5 215.5 L96.5 209.8 L93.2 201.3 L96.9 196.7 M178.2 267.4 L174.9 266.1 M108.5 165.7 L107 157.8 M293.3 156.5 L296.5 158 M212.3 104.1 L211 103.8 M278.9 153.6 L279.4 153.6 M279.4 153.6 L280 153.6 M268.9 133.9 L269.2 133.6 M211.1 103.5 L212.4 103.6 M278.4 153.7 L278.9 153.6 M81.4 219.9 L81.6 216 M72.9 192.1 L74.6 193.5 M331.1 80.6 L323.2 83 M223.5 104 L224.9 104 M296.6 158.4 L293.5 157.1 M193.3 272.4 L198.6 273 M228.1 99 L226.5 100.6 M224.5 280.1 L235.1 286.6 M102.8 135.6 L99.5 130.9 L100.4 123.2 M140.8 141.9 L141.6 142.2 M339.4 177.3 L349.4 186.7 M53 179.6 L40.8 183.9 M278.8 32.5 L272.5 46 L272.3 55.2 M289.1 154.7 L290.9 155.5 M286.2 154.5 L285 154.4 M268.5 79 L266 83.4 M273.3 130 L274 129.3 M271.6 127.3 L272.1 128 M143.2 142.3 L142.9 142.5 M210.4 103.8 L209.4 103.6 M327.3 228.7 L334.3 220.4 M271.6 64.9 L269.8 75.2 M224.9 104 L225.1 103.1 M387.9 171.3 L385.1 166.4 L390.1 155.3 M191.7 214.8 L190.9 214.4 M277.6 116 L274 116.6 M269.7 99.4 L278.6 100.9 M270.1 126.7 L269.7 126.1" fill="none" stroke="#1f3733" stroke-width="2.7" opacity="0.9" stroke-linecap="round" stroke-linejoin="round"/>
</g>
<g data-layer="minor-road-casing">
<path d="M126.8 71.2 L143.8 75.2 L145.6 68.1 L139.3 58.1 L146 52.4 L147.6 39.6 M12.2 135.2 L7.5 130.9 L7.5 118.4 L10 114.4 L38.7 95.6 M56 139.6 L65.3 151.1 L63.9 155.2 L57.5 156.6 L49.2 156 L39.5 150.8 L36.8 147 L38.8 139.8 M223.9 301.5 L220.4 292.1 L210.7 290.9 L203.6 295.6 L200.3 304.3 L205.9 307 L216.7 303.5 M384.2 75.3 L370.4 68.2 L370.3 66.2 L384.6 66.9 L398.7 74 L410.4 74.5 M89.9 101.4 L82.1 101 L79.7 94.7 L74.2 94.3 L66.9 88.4 L60.5 85.9 L53 88.6 L52.2 91.6 L54.5 96.1 M9.8 105.3 L43.2 84.3 L44 81 L40.2 77.8 M130.9 153.9 L135.6 158.2 L141.1 171.5 L141.2 191.7 M66.1 169.5 L72.7 161.2 L79.1 158.2 L100.7 159 L102.2 161.8 M108.7 29.7 L100.9 27.2 L95.4 28.5 L94.8 37 L107.7 38 L113.3 36.4 M196.8 22.9 L190.1 24.3 L168.2 8.3 L165.5 9.6 L167.8 11.2 M220.4 215.9 L223 218.9 L226 229.8 L233.1 234.5 L239.8 243.2 M242.1 254.2 L266.1 257.8 L281.3 264.9 M144.9 173.9 L144 198.1 L148.9 204.2 M181.4 91.9 L181 88.1 L183.6 82.7 L193.1 78.7 L185.6 77.4 L186.9 70.6 M43.6 91.5 L34.6 94.4 L11 109.6 M18.2 112.6 L37.4 99.7 L49.5 95.7 M381.6 206.1 L365.5 223.1 L369.1 225.5 L372.2 222.4 M257.5 283.9 L254.4 288.7 L257.8 289.8 L254.5 294.2 L243.8 287.7 L244.8 285.8 L242.2 283.7 M300.1 61.5 L337.7 61.6 M133.3 176.6 L103.5 176.2 L98.9 172.7 M136.4 97.9 L136.8 100.3 L133.2 101.4 L135.3 104.4 L139.3 107.4 L146.2 106.4 L153.2 113.5 M248.1 263.6 L245.8 265.7 L246.2 279.7 L260.3 280 M257.5 283.9 L252.7 283.1 L252.4 279.9 L270.8 270.1 L274.3 270.6 M172.5 87.9 L173.2 84.1 L170.2 84.4 L169.5 82.7 L173.3 78.2 L172.6 74.1 L169.1 71.4 L163.7 73 M181.5 164.8 L170.1 158.9 L149.6 160.7 M62 151.5 L59.5 146.6 L52.9 142.2 L44.8 142.8 L40.6 145.2 L39.4 148.3 M177.6 66 L176.4 62 L184.9 57.2 L182.5 54.2 L183.2 48.5 L181.3 45.6 M256.9 201.4 L269.9 206.3 L288.3 208.1 M83.2 122.3 L84.4 117.5 L82.9 114.4 L76.5 106.5 L69 101.2 M108.2 182.5 L104.8 182.6 L94.7 189.8 L97.5 194.8 L103.6 196.9 M64.7 250.1 L60.8 255.1 L51.5 260.6 L40.2 258 M347.7 69.4 L320.6 81.4 M220.7 39.5 L225.3 37.6 L229.3 39.6 L227.3 42.7 L220.1 41.7 L227.1 46 M114.3 34.5 L112.1 33.6 L104.5 36.1 L102.6 33.8 L106.5 30.4 L116.6 28.4 M49.1 139.4 L51.2 135.8 L55 134.2 L61 133.9 L62.1 135.9 L50.3 136.9 M194.1 191 L174.3 181.2 L168.4 182 M188.6 294.7 L186.9 293.5 L188.6 289 L168 285.6 M130 129.3 L127.5 126 L130.4 123.5 L142.8 127.6 L145.6 123.3 M120.3 214.2 L97.6 204.1 L93.7 203.9 M248.1 263.6 L252.2 261.1 L260.8 263.9 L260.8 274.8 M203.3 63.6 L202.6 58.3 L198.2 56.1 L195.7 51.8 L196.3 43.4 M163.9 84.3 L134.1 82.2 M125.9 203.4 L127 181 M183.9 178.1 L188.2 180.2 L181.2 175 L182.3 172.5 L186.3 170.7 L180.8 169.3 M169.3 158.9 L159.4 156.5 L150.6 158.5 L149.4 157 L152.3 154.3 L151.7 152.3 M258 201.5 L260.4 198 L283.6 200.4 M191.4 277.6 L212.1 278 L214 284.2 M77.5 147.4 L69.2 157.6 L58.9 163.5 M212.6 267.4 L207.1 269.8 L198.2 270 L185.4 266.7 M167.7 111.7 L171.4 111.5 L166.9 106.9 L173.4 104.5 L171.1 98.5 M167.8 55.8 L171.8 46.9 L182.4 38 M137.9 76.3 L143.3 80.1 L150.9 80.8 L160.4 79.6 L162.7 77.7 M94.9 220.6 L90.9 214.7 L92.1 210.5 L88.4 207.1 L93.4 203.1 M56.8 86.1 L55.8 82.5 L62.2 79.4 L62.7 75.7 L69.8 80.2 M213.3 75.7 L218.9 73 L226.9 86.5 M134.1 217 L129.6 215.1 L130.9 210.2 L139.3 207.6 L143.9 210.8 M62.5 110.7 L58.3 113 L61.9 120.6 L67.6 123.3 L70.9 121.4 M124 142.7 L127.1 145.7 L132.9 143.6 L140.8 146.6 L143.2 145.8 L142.8 142.8 M62.5 110.7 L67.2 119.6 L79.8 124.8 M111.6 233.7 L115.2 232.8 L115.1 228 L125.2 218.3 M167.8 55.8 L171.6 53.5 L177.4 54.6 L176.4 48.2 L181.3 45.6 M200.5 173.3 L197.9 171.3 L193.7 172 L182.4 168.8 L177.4 169.7 M21.8 136.8 L28 138.5 L37.3 135.6 L39.5 132.7 L38.6 129.3 M269.9 206.3 L258.5 206 L257.9 210 L266.4 211.3 M133.1 162.1 L107.4 160.4 M312.2 74.7 L326.5 68.2 L327 61.6 M161.8 123.3 L163.7 132.3 L171.5 135.5 L173.8 138.3 M85.9 186.1 L85.2 188.2 L89.7 194.9 L88.9 199.7 L91.5 204 M44.9 105.9 L35.1 106.3 L24.4 114.2 M96.3 158.9 L96 161.6 L79.6 162 L75.7 164.2 M46.5 136.9 L53.5 131.6 L68.1 130.7 M70.5 91.4 L81.2 92.5 L83.8 94.8 L84.2 98.6 L87.4 97 M399.3 20.8 L404.4 12.9 L392.9 8.8 M79 298.1 L103.4 298.2 M165.2 55.5 L166.3 39.9 L168.6 38.1 M82.6 122.6 L71.2 106.8 M171.9 183.4 L191.6 193.3 M103.6 196.9 L125.9 203.8 M385.7 207.8 L381.1 212.7 L376.7 224.3 M374.9 114.3 L398.5 112.3 M410.2 95.6 L405 95.9 L405.5 109.7 M126.9 185.3 L103.4 184 M268.7 258.8 L269.2 253.7 L277 257 L277.1 262.7 M385.5 291 L394.8 289.6 L406.3 283.7 M58.8 142 L71.4 141 L77.5 147.4 M147.7 185.5 L147.1 198.3 L150.5 202.2 M209 302.7 L206.1 300.2 L207 296.5 L213.6 293.3 L218.5 294.9 M94.1 141.4 L100.9 139.1 L106.5 140.1 L106.7 137.1 L110.6 134.2 M279.8 187.9 L272.5 188.8 L267.7 184.2 L269.5 182.5 L271.6 185.5 M109.4 228.5 L102.7 230.5 L94.9 220.6 M29.4 282.8 L9.2 291.1 M114 154.2 L125.9 154.9 L133.5 160.6 M122.3 171.4 L108.5 170.9 L101.1 175 M303.3 68.3 L326.3 68.4 M161.1 36.3 L158.9 46.6 L166.6 46.3 M113.5 135 L113.6 139.3 L124.3 138.3 L124 142.7 M330.8 218.5 L321.9 229 L322 233.3 M9.2 286.5 L22.1 280.9 L21.9 275.4 M120.6 115.3 L127.9 114.2 L129.4 116.1 L119.1 120.1 M321.1 215.1 L323.1 210.3 L337.8 213.5 M159.9 178.1 L160.3 180.8 L157.8 183.9 L144.6 185.5 M102.2 161.8 L86.7 165.1 L85.6 161.8 M153.2 113.5 L152.5 118.5 L156 120.3 L161.2 119.6 L161.8 123.3 M153.9 169.2 L156.5 173.9 L141.6 173.9 M99.9 248.9 L99.5 242.2 L106.9 234.8 M410.1 278.8 L403.5 272 L402.8 264.3 M410.8 9.6 L401 24 M138.5 176.3 L133.5 160.6 M155.1 75.5 L157.3 74.9 L158.1 71.1 L144.6 72.4 M170.8 297.5 L175.6 299.3 L180.1 304.9 L181.6 310.1 M60.4 147.8 L54 149 L49.1 143.2 L49.1 139.4 M191.6 231.5 L185.5 231.1 L175.2 238.3 M401.4 51.3 L383.4 58.9 M257.1 277.2 L253.8 275.3 L248.1 263.6 M153.8 66.5 L162.4 64.4 L172.3 65.6 M328.3 199.9 L323.7 203.8 L333.6 210.7 M183.8 24.4 L168.9 13.8 M123.3 187.6 L122.6 202.9 M30.9 111 L41.2 107.9 L44.3 110 L43.6 113.4 M27.8 20.7 L38.3 23.5 L40.3 22.7 L35.3 20.3 M150.8 185.5 L150.1 198 L152.1 200.3 M131.2 218.5 L137.6 217.9 L145.3 209.5 M312.3 228.6 L321.1 215.1 M64.2 169 L83.7 171.1 M101.5 134.2 L96.2 136.3 L93.5 134.8 L94.2 131.5 L99.5 130.9 M171.1 170 L171.9 166 L175.5 164.5 L169.3 158.9 M411.6 262 L401 261.9 L405.4 256.2 M167 193.5 L164.4 191.9 L167.8 190.5 L167.5 182.4 M122.8 200.3 L104.8 194.8 M411.8 55.8 L406.4 57.1 L398.7 65.5 M87.7 178.3 L91 180.2 L90.5 182.4 L82.2 181.6 L79.3 183 M141.1 193.5 L141.3 200.5 L147.1 206.5 M65.2 152.4 L59.1 151.5 L46.9 154.3 M180.2 91.3 L176.5 93.5 L170.2 90.9 L162.9 90.8 M116.8 209.7 L100.2 202.4 M42.5 311.4 L45.8 303 L52.4 302.1 M175.3 204.2 L160.4 195.4 M52.4 302.1 L53.1 293.8 L49.2 288.7 M21.5 266.1 L17.3 258.6 L11.9 254.2 M82.4 105 L68.6 95.5 M114 149.3 L132.3 151.5 M65.5 85.1 L77.9 88.2 L79.4 92 M71.9 132.7 L72.7 130.2 L68.6 127.8 L62.1 126.5 L60.2 128.1 M126.9 183 L108.2 182.5 M131.7 234.5 L144.4 224.3 M126.2 158.5 L107.7 157.8 M52.4 302.1 L60.1 304.9 L59.4 312.3 M303.6 302.3 L289.8 305.6 L286.3 304.4 M339.9 70.3 L324.4 78 M228.3 29.9 L214.9 39.2 M215.4 228.1 L209.3 227.1 L204.3 230 L200.8 226.8 M25.8 122.6 L26.8 126.9 L23.7 129.7 L17 128.7 M122.9 197.7 L106 192.6 M377 261 L376.7 274.7 M71.2 106.8 L70 109.8 L75.8 119.2 M131.6 148.5 L113.9 146.7 M162.7 59.4 L155.3 56.9 L154.5 49.7 M357 114 L359 120 L364.4 119.6 L363.9 117.4 M172.2 42.7 L168.6 38.1 L170.1 31.6 M221.6 109.9 L216.9 109.9 L212.9 113.6 L211.5 109.8 M269.4 275.4 L264.6 281.7 L257.5 283.9 M98 112 L93.5 109.6 L89.9 101.4 M14.5 233.4 L9.8 232.3 L8.1 235.2 L12.2 235.6 L14.5 233.4 M40.3 114.5 L33.1 118.7 L31.1 116.4 L34.1 114.5 M200.6 31.8 L199.9 35.5 L198.1 36 L195.2 33.1 L200.6 31.8 M104.5 224.2 L110.9 218.8 L110.3 213.2 M8 99.1 L20.7 90.5 M321 55.2 L332.1 65 M370.6 42.1 L354.5 37.8 M292.2 305.2 L288.1 302.7 L280.8 309.6 M328.3 199.9 L316.5 190.6 M22 91.5 L9.6 100.2 M360.9 182.1 L362.5 169.6 M10.5 274.1 L20.7 271.2 L23.2 275.1 M107.3 190.4 L123 195.2 M63.3 101.7 L56.2 101.9 L56.7 108.7 M83.8 102.2 L91.2 113.4 M218.5 294.9 L218.4 298.8 L209 302.7 M8.9 29.6 L25.4 30.2 M303.6 302.3 L294.4 293.5 L293.2 294.3 M262.7 260.4 L269.1 264.7 L270.1 270.4 M157.6 136.6 L145.8 136.4 L141.8 138.2 M396.6 232.6 L410.2 225.7 M179.8 304.4 L183.3 302.5 L186.2 305.9 L181.3 309 M238.5 14.4 L240.8 26.5 M25.5 86.8 L36.7 78 M375.1 108.5 L359.6 111.5 M49.3 280.3 L39.9 283 L38.7 286.8 M280.5 188.3 L279.4 193.6 L287.7 194.1 M124 142.7 L108.7 141.3 M120.9 122.5 L112.9 112.4 M245.3 188.3 L234 196.1 M160.5 264.9 L160.1 276.4 M314.8 229.6 L321.6 219.2 M149.4 93.7 L157.6 96.1 L164.2 95.8 M51.2 114.9 L53.7 117.2 L52.4 119 L48.1 120.9 L45.4 119.1 M377.2 51.3 L363.3 56.4 M181 261.7 L181.4 255.6 L185.5 251.3 M339.9 202.7 L328.8 194.7 M302.5 137.6 L308.7 136.8 L309.1 141.7 L311.1 142.6 M375.7 176.7 L379.5 169.4 L380.5 172 M100.1 209.6 L108.3 216 L108 218.3 M171.4 58.7 L173.2 56.5 L178.7 56.9 L177.2 61.4 M130.4 236.4 L120.3 236.1 L120 232.8 M137.1 172.1 L122.3 171.4 M187.9 64.2 L187.1 53.3 M338.7 160.1 L332.1 159.6 L328.7 157.4 L325.6 158.9 M49.2 288.7 L54.1 282.3 L52.3 279.1 M213.2 241.6 L199 242.9 M169.1 177.2 L163.1 167.6 M101.8 200.3 L114.5 205.9 M368.9 172.7 L360.1 173 L355.4 170.7 M317.1 177.5 L306 170.5 M152.8 86.8 L155.3 87.1 L155.9 89.4 L149.4 93.7 M398.8 18.6 L393.6 15.3 L397.8 10.5 M8.9 123.2 L16 113.8 M356 274.4 L358 272.2 L367.6 273.8 M86 197.9 L76.5 189.8 M193.5 11.9 L205.3 18.1 M83.3 277 L80.8 278.3 L87.3 285.4 M323.8 135.8 L329.6 125.9 M380.8 77.2 L391.7 70.3 M14 17.4 L28.4 18.1 M99.1 128.5 L93.7 128 L99.3 123.8 M191.7 13.9 L203.7 19.8 M88.8 310.8 L86.7 308.3 L76.7 308.6 M386.8 282 L386.2 275.6 L390.9 273.3 M101.5 134.2 L107.8 130.6 L106.6 126.2 M213.6 281.7 L199.4 281.7 M296.6 165.6 L283.4 162.1 M100.2 168.1 L90.8 176 M176.9 10.3 L187 17.8 M27.9 40.9 L24.7 51.2 M172.3 65.6 L171.5 62.2 L162.7 59.4 M285.3 23.1 L284.9 26.4 L293.8 29.3 M190.1 24.3 L195.7 28.6 L201.1 29.8 M272.6 179.2 L281 182 L282.6 185.4 M38 287.2 L49.6 281.3 M187 212.7 L178.7 221.2" fill="none" stroke="#fbf7eb" stroke-width="3.4" opacity="0.62" stroke-linecap="round" stroke-linejoin="round"/>
</g>
<g data-layer="minor-road">
<path d="M126.8 71.2 L143.8 75.2 L145.6 68.1 L139.3 58.1 L146 52.4 L147.6 39.6 M12.2 135.2 L7.5 130.9 L7.5 118.4 L10 114.4 L38.7 95.6 M56 139.6 L65.3 151.1 L63.9 155.2 L57.5 156.6 L49.2 156 L39.5 150.8 L36.8 147 L38.8 139.8 M223.9 301.5 L220.4 292.1 L210.7 290.9 L203.6 295.6 L200.3 304.3 L205.9 307 L216.7 303.5 M384.2 75.3 L370.4 68.2 L370.3 66.2 L384.6 66.9 L398.7 74 L410.4 74.5 M89.9 101.4 L82.1 101 L79.7 94.7 L74.2 94.3 L66.9 88.4 L60.5 85.9 L53 88.6 L52.2 91.6 L54.5 96.1 M9.8 105.3 L43.2 84.3 L44 81 L40.2 77.8 M130.9 153.9 L135.6 158.2 L141.1 171.5 L141.2 191.7 M66.1 169.5 L72.7 161.2 L79.1 158.2 L100.7 159 L102.2 161.8 M108.7 29.7 L100.9 27.2 L95.4 28.5 L94.8 37 L107.7 38 L113.3 36.4 M196.8 22.9 L190.1 24.3 L168.2 8.3 L165.5 9.6 L167.8 11.2 M220.4 215.9 L223 218.9 L226 229.8 L233.1 234.5 L239.8 243.2 M242.1 254.2 L266.1 257.8 L281.3 264.9 M144.9 173.9 L144 198.1 L148.9 204.2 M181.4 91.9 L181 88.1 L183.6 82.7 L193.1 78.7 L185.6 77.4 L186.9 70.6 M43.6 91.5 L34.6 94.4 L11 109.6 M18.2 112.6 L37.4 99.7 L49.5 95.7 M381.6 206.1 L365.5 223.1 L369.1 225.5 L372.2 222.4 M257.5 283.9 L254.4 288.7 L257.8 289.8 L254.5 294.2 L243.8 287.7 L244.8 285.8 L242.2 283.7 M300.1 61.5 L337.7 61.6 M133.3 176.6 L103.5 176.2 L98.9 172.7 M136.4 97.9 L136.8 100.3 L133.2 101.4 L135.3 104.4 L139.3 107.4 L146.2 106.4 L153.2 113.5 M248.1 263.6 L245.8 265.7 L246.2 279.7 L260.3 280 M257.5 283.9 L252.7 283.1 L252.4 279.9 L270.8 270.1 L274.3 270.6 M172.5 87.9 L173.2 84.1 L170.2 84.4 L169.5 82.7 L173.3 78.2 L172.6 74.1 L169.1 71.4 L163.7 73 M181.5 164.8 L170.1 158.9 L149.6 160.7 M62 151.5 L59.5 146.6 L52.9 142.2 L44.8 142.8 L40.6 145.2 L39.4 148.3 M177.6 66 L176.4 62 L184.9 57.2 L182.5 54.2 L183.2 48.5 L181.3 45.6 M256.9 201.4 L269.9 206.3 L288.3 208.1 M83.2 122.3 L84.4 117.5 L82.9 114.4 L76.5 106.5 L69 101.2 M108.2 182.5 L104.8 182.6 L94.7 189.8 L97.5 194.8 L103.6 196.9 M64.7 250.1 L60.8 255.1 L51.5 260.6 L40.2 258 M347.7 69.4 L320.6 81.4 M220.7 39.5 L225.3 37.6 L229.3 39.6 L227.3 42.7 L220.1 41.7 L227.1 46 M114.3 34.5 L112.1 33.6 L104.5 36.1 L102.6 33.8 L106.5 30.4 L116.6 28.4 M49.1 139.4 L51.2 135.8 L55 134.2 L61 133.9 L62.1 135.9 L50.3 136.9 M194.1 191 L174.3 181.2 L168.4 182 M188.6 294.7 L186.9 293.5 L188.6 289 L168 285.6 M130 129.3 L127.5 126 L130.4 123.5 L142.8 127.6 L145.6 123.3 M120.3 214.2 L97.6 204.1 L93.7 203.9 M248.1 263.6 L252.2 261.1 L260.8 263.9 L260.8 274.8 M203.3 63.6 L202.6 58.3 L198.2 56.1 L195.7 51.8 L196.3 43.4 M163.9 84.3 L134.1 82.2 M125.9 203.4 L127 181 M183.9 178.1 L188.2 180.2 L181.2 175 L182.3 172.5 L186.3 170.7 L180.8 169.3 M169.3 158.9 L159.4 156.5 L150.6 158.5 L149.4 157 L152.3 154.3 L151.7 152.3 M258 201.5 L260.4 198 L283.6 200.4 M191.4 277.6 L212.1 278 L214 284.2 M77.5 147.4 L69.2 157.6 L58.9 163.5 M212.6 267.4 L207.1 269.8 L198.2 270 L185.4 266.7 M167.7 111.7 L171.4 111.5 L166.9 106.9 L173.4 104.5 L171.1 98.5 M167.8 55.8 L171.8 46.9 L182.4 38 M137.9 76.3 L143.3 80.1 L150.9 80.8 L160.4 79.6 L162.7 77.7 M94.9 220.6 L90.9 214.7 L92.1 210.5 L88.4 207.1 L93.4 203.1 M56.8 86.1 L55.8 82.5 L62.2 79.4 L62.7 75.7 L69.8 80.2 M213.3 75.7 L218.9 73 L226.9 86.5 M134.1 217 L129.6 215.1 L130.9 210.2 L139.3 207.6 L143.9 210.8 M62.5 110.7 L58.3 113 L61.9 120.6 L67.6 123.3 L70.9 121.4 M124 142.7 L127.1 145.7 L132.9 143.6 L140.8 146.6 L143.2 145.8 L142.8 142.8 M62.5 110.7 L67.2 119.6 L79.8 124.8 M111.6 233.7 L115.2 232.8 L115.1 228 L125.2 218.3 M167.8 55.8 L171.6 53.5 L177.4 54.6 L176.4 48.2 L181.3 45.6 M200.5 173.3 L197.9 171.3 L193.7 172 L182.4 168.8 L177.4 169.7 M21.8 136.8 L28 138.5 L37.3 135.6 L39.5 132.7 L38.6 129.3 M269.9 206.3 L258.5 206 L257.9 210 L266.4 211.3 M133.1 162.1 L107.4 160.4 M312.2 74.7 L326.5 68.2 L327 61.6 M161.8 123.3 L163.7 132.3 L171.5 135.5 L173.8 138.3 M85.9 186.1 L85.2 188.2 L89.7 194.9 L88.9 199.7 L91.5 204 M44.9 105.9 L35.1 106.3 L24.4 114.2 M96.3 158.9 L96 161.6 L79.6 162 L75.7 164.2 M46.5 136.9 L53.5 131.6 L68.1 130.7 M70.5 91.4 L81.2 92.5 L83.8 94.8 L84.2 98.6 L87.4 97 M399.3 20.8 L404.4 12.9 L392.9 8.8 M79 298.1 L103.4 298.2 M165.2 55.5 L166.3 39.9 L168.6 38.1 M82.6 122.6 L71.2 106.8 M171.9 183.4 L191.6 193.3 M103.6 196.9 L125.9 203.8 M385.7 207.8 L381.1 212.7 L376.7 224.3 M374.9 114.3 L398.5 112.3 M410.2 95.6 L405 95.9 L405.5 109.7 M126.9 185.3 L103.4 184 M268.7 258.8 L269.2 253.7 L277 257 L277.1 262.7 M385.5 291 L394.8 289.6 L406.3 283.7 M58.8 142 L71.4 141 L77.5 147.4 M147.7 185.5 L147.1 198.3 L150.5 202.2 M209 302.7 L206.1 300.2 L207 296.5 L213.6 293.3 L218.5 294.9 M94.1 141.4 L100.9 139.1 L106.5 140.1 L106.7 137.1 L110.6 134.2 M279.8 187.9 L272.5 188.8 L267.7 184.2 L269.5 182.5 L271.6 185.5 M109.4 228.5 L102.7 230.5 L94.9 220.6 M29.4 282.8 L9.2 291.1 M114 154.2 L125.9 154.9 L133.5 160.6 M122.3 171.4 L108.5 170.9 L101.1 175 M303.3 68.3 L326.3 68.4 M161.1 36.3 L158.9 46.6 L166.6 46.3 M113.5 135 L113.6 139.3 L124.3 138.3 L124 142.7 M330.8 218.5 L321.9 229 L322 233.3 M9.2 286.5 L22.1 280.9 L21.9 275.4 M120.6 115.3 L127.9 114.2 L129.4 116.1 L119.1 120.1 M321.1 215.1 L323.1 210.3 L337.8 213.5 M159.9 178.1 L160.3 180.8 L157.8 183.9 L144.6 185.5 M102.2 161.8 L86.7 165.1 L85.6 161.8 M153.2 113.5 L152.5 118.5 L156 120.3 L161.2 119.6 L161.8 123.3 M153.9 169.2 L156.5 173.9 L141.6 173.9 M99.9 248.9 L99.5 242.2 L106.9 234.8 M410.1 278.8 L403.5 272 L402.8 264.3 M410.8 9.6 L401 24 M138.5 176.3 L133.5 160.6 M155.1 75.5 L157.3 74.9 L158.1 71.1 L144.6 72.4 M170.8 297.5 L175.6 299.3 L180.1 304.9 L181.6 310.1 M60.4 147.8 L54 149 L49.1 143.2 L49.1 139.4 M191.6 231.5 L185.5 231.1 L175.2 238.3 M401.4 51.3 L383.4 58.9 M257.1 277.2 L253.8 275.3 L248.1 263.6 M153.8 66.5 L162.4 64.4 L172.3 65.6 M328.3 199.9 L323.7 203.8 L333.6 210.7 M183.8 24.4 L168.9 13.8 M123.3 187.6 L122.6 202.9 M30.9 111 L41.2 107.9 L44.3 110 L43.6 113.4 M27.8 20.7 L38.3 23.5 L40.3 22.7 L35.3 20.3 M150.8 185.5 L150.1 198 L152.1 200.3 M131.2 218.5 L137.6 217.9 L145.3 209.5 M312.3 228.6 L321.1 215.1 M64.2 169 L83.7 171.1 M101.5 134.2 L96.2 136.3 L93.5 134.8 L94.2 131.5 L99.5 130.9 M171.1 170 L171.9 166 L175.5 164.5 L169.3 158.9 M411.6 262 L401 261.9 L405.4 256.2 M167 193.5 L164.4 191.9 L167.8 190.5 L167.5 182.4 M122.8 200.3 L104.8 194.8 M411.8 55.8 L406.4 57.1 L398.7 65.5 M87.7 178.3 L91 180.2 L90.5 182.4 L82.2 181.6 L79.3 183 M141.1 193.5 L141.3 200.5 L147.1 206.5 M65.2 152.4 L59.1 151.5 L46.9 154.3 M180.2 91.3 L176.5 93.5 L170.2 90.9 L162.9 90.8 M116.8 209.7 L100.2 202.4 M42.5 311.4 L45.8 303 L52.4 302.1 M175.3 204.2 L160.4 195.4 M52.4 302.1 L53.1 293.8 L49.2 288.7 M21.5 266.1 L17.3 258.6 L11.9 254.2 M82.4 105 L68.6 95.5 M114 149.3 L132.3 151.5 M65.5 85.1 L77.9 88.2 L79.4 92 M71.9 132.7 L72.7 130.2 L68.6 127.8 L62.1 126.5 L60.2 128.1 M126.9 183 L108.2 182.5 M131.7 234.5 L144.4 224.3 M126.2 158.5 L107.7 157.8 M52.4 302.1 L60.1 304.9 L59.4 312.3 M303.6 302.3 L289.8 305.6 L286.3 304.4 M339.9 70.3 L324.4 78 M228.3 29.9 L214.9 39.2 M215.4 228.1 L209.3 227.1 L204.3 230 L200.8 226.8 M25.8 122.6 L26.8 126.9 L23.7 129.7 L17 128.7 M122.9 197.7 L106 192.6 M377 261 L376.7 274.7 M71.2 106.8 L70 109.8 L75.8 119.2 M131.6 148.5 L113.9 146.7 M162.7 59.4 L155.3 56.9 L154.5 49.7 M357 114 L359 120 L364.4 119.6 L363.9 117.4 M172.2 42.7 L168.6 38.1 L170.1 31.6 M221.6 109.9 L216.9 109.9 L212.9 113.6 L211.5 109.8 M269.4 275.4 L264.6 281.7 L257.5 283.9 M98 112 L93.5 109.6 L89.9 101.4 M14.5 233.4 L9.8 232.3 L8.1 235.2 L12.2 235.6 L14.5 233.4 M40.3 114.5 L33.1 118.7 L31.1 116.4 L34.1 114.5 M200.6 31.8 L199.9 35.5 L198.1 36 L195.2 33.1 L200.6 31.8 M104.5 224.2 L110.9 218.8 L110.3 213.2 M8 99.1 L20.7 90.5 M321 55.2 L332.1 65 M370.6 42.1 L354.5 37.8 M292.2 305.2 L288.1 302.7 L280.8 309.6 M328.3 199.9 L316.5 190.6 M22 91.5 L9.6 100.2 M360.9 182.1 L362.5 169.6 M10.5 274.1 L20.7 271.2 L23.2 275.1 M107.3 190.4 L123 195.2 M63.3 101.7 L56.2 101.9 L56.7 108.7 M83.8 102.2 L91.2 113.4 M218.5 294.9 L218.4 298.8 L209 302.7 M8.9 29.6 L25.4 30.2 M303.6 302.3 L294.4 293.5 L293.2 294.3 M262.7 260.4 L269.1 264.7 L270.1 270.4 M157.6 136.6 L145.8 136.4 L141.8 138.2 M396.6 232.6 L410.2 225.7 M179.8 304.4 L183.3 302.5 L186.2 305.9 L181.3 309 M238.5 14.4 L240.8 26.5 M25.5 86.8 L36.7 78 M375.1 108.5 L359.6 111.5 M49.3 280.3 L39.9 283 L38.7 286.8 M280.5 188.3 L279.4 193.6 L287.7 194.1 M124 142.7 L108.7 141.3 M120.9 122.5 L112.9 112.4 M245.3 188.3 L234 196.1 M160.5 264.9 L160.1 276.4 M314.8 229.6 L321.6 219.2 M149.4 93.7 L157.6 96.1 L164.2 95.8 M51.2 114.9 L53.7 117.2 L52.4 119 L48.1 120.9 L45.4 119.1 M377.2 51.3 L363.3 56.4 M181 261.7 L181.4 255.6 L185.5 251.3 M339.9 202.7 L328.8 194.7 M302.5 137.6 L308.7 136.8 L309.1 141.7 L311.1 142.6 M375.7 176.7 L379.5 169.4 L380.5 172 M100.1 209.6 L108.3 216 L108 218.3 M171.4 58.7 L173.2 56.5 L178.7 56.9 L177.2 61.4 M130.4 236.4 L120.3 236.1 L120 232.8 M137.1 172.1 L122.3 171.4 M187.9 64.2 L187.1 53.3 M338.7 160.1 L332.1 159.6 L328.7 157.4 L325.6 158.9 M49.2 288.7 L54.1 282.3 L52.3 279.1 M213.2 241.6 L199 242.9 M169.1 177.2 L163.1 167.6 M101.8 200.3 L114.5 205.9 M368.9 172.7 L360.1 173 L355.4 170.7 M317.1 177.5 L306 170.5 M152.8 86.8 L155.3 87.1 L155.9 89.4 L149.4 93.7 M398.8 18.6 L393.6 15.3 L397.8 10.5 M8.9 123.2 L16 113.8 M356 274.4 L358 272.2 L367.6 273.8 M86 197.9 L76.5 189.8 M193.5 11.9 L205.3 18.1 M83.3 277 L80.8 278.3 L87.3 285.4 M323.8 135.8 L329.6 125.9 M380.8 77.2 L391.7 70.3 M14 17.4 L28.4 18.1 M99.1 128.5 L93.7 128 L99.3 123.8 M191.7 13.9 L203.7 19.8 M88.8 310.8 L86.7 308.3 L76.7 308.6 M386.8 282 L386.2 275.6 L390.9 273.3 M101.5 134.2 L107.8 130.6 L106.6 126.2 M213.6 281.7 L199.4 281.7 M296.6 165.6 L283.4 162.1 M100.2 168.1 L90.8 176 M176.9 10.3 L187 17.8 M27.9 40.9 L24.7 51.2 M172.3 65.6 L171.5 62.2 L162.7 59.4 M285.3 23.1 L284.9 26.4 L293.8 29.3 M190.1 24.3 L195.7 28.6 L201.1 29.8 M272.6 179.2 L281 182 L282.6 185.4 M38 287.2 L49.6 281.3 M187 212.7 L178.7 221.2" fill="none" stroke="#69776e" stroke-width="1.25" opacity="0.58" stroke-linecap="round" stroke-linejoin="round"/>
</g>
</g>
<g data-layer="north-up-compass" fill="none" stroke="#233934" stroke-linecap="round" stroke-linejoin="round" opacity="0.62">
<path d="M382 48L382 23" stroke-width="1.8"/>
<path d="M382 23L373 39M382 23L391 39" stroke-width="1.8"/>
<circle cx="382" cy="48" r="13" stroke-width="1.1" opacity="0.38"/>
</g>
<rect x="8" y="8" width="404" height="304" rx="16" fill="none" stroke="#233934" stroke-width="1.4" opacity="0.44"/>
</svg>
