<svg xmlns="http://www.w3.org/2000/svg" viewBox="0 0 420 320" role="img" aria-label="Unlabeled north-up street-grid crop" data-orientation="north-up">
<metadata>{"orientation":"north-up","projection":"local-web-mercator"}</metadata>
<defs>
<clipPath id="mapCrop"><rect x="8" y="8" width="404" height="304" rx="16"/></clipPath>
</defs>
<rect width="420" height="320" fill="#ede7d8"/>
<rect x="8" y="8" width="404" height="304" rx="16" fill="#f7f1e3" stroke="#d8cbb2" stroke-width="1.25"/>
<g clip-path="url(#mapCrop)">
<g data-layer="major-road-casing">
<path d="M211.5 160.7 L216 177.1 M183.9 175.4 L189.9 173.5 L209.3 160.5 M214.6 178.1 L202.3 174.2 L189.1 175.9 M215.3 123.3 L196.2 138.6 L186.2 142.9 M176.1 154.8 L179.3 172.9 M195.8 138.2 L214.6 123.2 M212.6 158.1 L234.2 143.9 M236.6 142.9 L212.7 158.5 M238.9 176.3 L263.4 163.9 M179.6 176.5 L152.2 157 M223.8 186.2 L220.3 185 L214.6 178.1 M213.7 196.2 L191.8 195.1 M190 193 L210.1 195.8 M222.1 190.8 L226 184.9 L230.4 182.1 M216.7 179.5 L222.6 185.7 M251.8 133.1 L230.9 127.7 M233 185.5 L226 186.4 L221.7 191.6 M214.6 123.2 L185.1 113.2 M272.4 181.2 L245.3 184.2 M188.7 141.5 L195.8 138.2 M215.6 195 L224.6 186.9 M237.9 185 L226 185.9 M237.9 185 L226.6 186.3 M225.1 187.4 L217.4 194.7 M184.5 175.4 L190.9 183.8 L188.5 191.9 M202.9 195.3 L215.4 195.4 M226.3 185.3 L231.1 181.7 M226 184.5 L231.1 181.7 M236.5 142.5 L227.7 127.7 M182.4 178.9 L176.9 183.9 M232.7 127.8 L244.7 130.8 M228.8 128.3 L237.1 142.4 M209.3 205.8 L215.4 195.4 M179.7 145 L184.1 143.3 M215.4 195.4 L222.1 190.8 M221.7 191.6 L214.7 196.1 M174.5 143.1 L166.8 138.9 M232.7 180.6 L236 178.3 M214.7 196.1 L209.5 205.8 M268.5 137.3 L252.4 133.3 M190.2 108.1 L203.4 118.7 M147.8 191.2 L118.4 187.2 M229.5 162.7 L228.3 168.6 L223.1 174.3 L224.7 185.2 M249.3 142.6 L276.1 147.5 M167.6 134.3 L180.5 117.3 M183 114.1 L167.9 134.5 M163.3 140.9 L149.7 155.4 M229.5 162.7 L214.8 160.4 M214.7 160.1 L227.1 162.9 M147.8 191 L155.7 189.5 M83.5 192.1 L95.9 188.5 L121.4 186.6 L136.1 190.5 L147.8 191 M205 175.6 L202.7 195 M249 143.1 L251.8 133.1 M256 156.6 L247.7 156.2 M164 198.6 L184.2 200.3 M183.9 200.5 L163.9 198.7 M245.9 158.9 L241.9 174.6 M246.7 155.1 L247.5 150.7 M180.5 114.6 L169.9 116.4 L155.4 114.4 M229.5 162.6 L237.2 154.7 M153.2 191.6 L147.8 191.2 M151.4 156.6 L178 145.6 M164.5 184.7 L174.3 182.6 M176.8 146.3 L151.8 156.7 M249 143.1 L242.9 142.9 M179.9 178.5 L169.4 175.4 L153.8 163 L147.5 160.2 M269.2 173 L263.4 163.9 M230.6 163 L243.9 165.9 M237.3 143.3 L239.7 146.6 L237.2 154.7 M261.7 160.5 L256 156.6 M205 175.6 L194.7 175.2 M261 145.1 L252.6 143.6 M247.8 149.3 L248.4 145.7 M274 162.4 L270.3 172.8 M214.8 160.4 L212.7 159.7 M217.9 195.4 L235.2 198.1 L245.1 202.1 M189.6 196.1 L183.9 200.5 M278.4 148.9 L274.4 158.6 M213.3 159.7 L214.7 160.1 M211.9 159.2 L213 159.6 M212.7 159.7 L211.7 159.4 M272.7 181.2 L269.2 173 M251.9 169.3 L259 182.9 M237.2 154.7 L245.5 155.7 M211.7 159.4 L211.3 159.1 M226.6 120.1 L246.9 125.4 M211.5 159 L211.9 159.2 M177 207.5 L171.7 220.8 M164.5 184.7 L137.7 174.6 M227.1 162.9 L230.6 163 M282.2 140.3 L288.9 126.4 M213 159.6 L213.3 159.7 M185.3 123.7 L186 126.8 L180.2 133.6 M280 148.3 L293.8 150.8 M155.4 114.4 L149.3 116.5 L136.8 115.9 M134.6 179.3 L149.1 155.8 M180.2 133.6 L185.3 123.7 M184.3 140.4 L180.2 133.6 M294.3 177.8 L290.9 166.2 M136.7 115.6 L149.3 116.1 L153.4 114.6 M254.3 127.4 L274.4 132.9 M247.3 183.3 L247.9 181.2 L244.3 177 M245.4 190.5 L247.9 203.6 M247.1 203.2 L245.4 190.5 M230.6 163 L229.5 162.7 M230.6 162.2 L230.6 163 M248.2 113.3 L229.4 115.6 M118.4 187.2 L95.2 188.8 L60.5 197.9 L36.5 201.5 M144 142.2 L156.2 148.4 M168.6 226 L163.4 226.6 L153.5 242.7 M184.3 140.4 L185.8 142.6 M306.7 131.6 L289.4 126.8 M245.3 184.2 L245.4 190.5 M244.3 177 L241.9 174.6 M217.4 236.5 L203.9 228.4 M261.3 123.3 L256.9 133.9 M252.3 132.5 L256.3 123 M152.6 111.6 L139.9 104.9 M144 142.2 L152 131.2 M153.2 131.9 L144 142.2 M308.8 172.8 L334.1 160.4 M71.3 195.1 L83.5 192.1 M36.3 201.3 L71.3 195.1 M189.1 175.9 L187 177.7 M167.9 134.5 L166.3 138.2 M163 140.8 L164.5 137.7 M142.9 105.8 L154.6 112.5 M109 118.4 L106.5 129 M28.3 206.1 L23 210.7 L9.8 214 M9.9 213.6 L23.7 210 L28 205.8 M280.5 145.2 L280 145 M220.8 70.2 L222 74.3 L225.8 75.6 M28 205.8 L35.2 201.8 M96.8 188.6 L92.9 194.2 M229.4 115.6 L226.5 116.7 M94 125.9 L91.6 128.5 L90 127.6 L91.1 126.1 M32.7 203.6 L28.3 206.1 M35.7 202 L32.7 203.6 M162.4 16.4 L162.8 7.9 M163.3 8.1 L162.9 16.3 M131.7 216.9 L132.6 218.1 M245.7 191.8 L246.2 191.7 M35.2 201.8 L36.3 201.3 M246.1 202.4 L247.6 202 M36.5 201.5 L35.7 202 M68.7 130.5 L68.2 123.9 L65.6 121.7 M272.8 137.1 L273.3 138 M247.6 202 L248.1 202.1 M92.9 194.2 L92.2 195.2 M334 158.7 L332.2 157.9 M146.4 139.1 L146.8 139.3 M278.6 124.5 L280.1 124.3 M205.9 221.8 L205.9 222.7 M171.2 88.4 L173.8 89.3 M173.7 89.5 L171.5 89.5 M163.8 8.4 L162.9 16.3 M162.4 16.4 L162.3 9.2 M139.4 33 L138 33.1 M183.1 144 L180 145.7 M205.3 114.4 L219.9 118.2 M176.9 183.9 L169.4 190 M236 178.3 L238.9 176.3 M179.3 172.9 L180.8 175.2 M175.7 152.1 L176.1 154.8 M153.1 131.3 L166.3 138.2 M245.3 184.2 L237.9 185 M222.6 185.7 L226 184.5 M166.2 138.6 L153.2 131.9 M176.8 182.1 L179.9 178.6 M209.8 204.2 L213.7 196.2 M178.1 145.3 L174.5 143.1 M183.3 188 L188.5 191.9 M169.5 189.6 L175.6 184.7 M273.3 184 L270.6 207.3 M149.1 155.8 L131.4 149.8 M236.9 185.1 L233 185.5 M172.8 141.7 L176.2 143.4 M153.2 131.9 L146.8 129.4 L129.6 128.3 M214.6 196.1 L212 201.2 M220.6 124.7 L215.3 123.3 M256.9 133.9 L268.7 136.8 M166.9 190.4 L153.2 191.6 M244.7 130.8 L252 132.7 M180.2 186 L183.3 188 M166.3 138.2 L170.9 140.6 M215.4 122.4 L219.6 118.4 M228.4 126.6 L232.7 127.8 M226.2 113.2 L216.7 104.6 M226.1 122.7 L227.3 126.3 M226.2 126.4 L222.5 125.2 M220 118.8 L216.3 122.4 M210.1 195.8 L213.9 195.5 M220.4 118.4 L226.6 120.1 M263.4 163.9 L269.7 161.7 M275.7 159.5 L289.7 154.3 M212 201.2 L209.4 206.2 M226.3 114.8 L220.4 118.4 M309.3 147.7 L282.5 140.8 M219.9 118.2 L225.6 114.7 M163.9 198.7 L168.2 192.2 M234.6 99.4 L228.6 110.9 M163.4 189.9 L169.5 189.6 M203.5 118.5 L205.3 114.4 M202.8 218.6 L207.2 209.8 M207.6 210 L203.3 218.9 M252.4 132.8 L256.9 133.9 M153.2 191.6 L138.6 191.1 M155.7 189.5 L163.4 189.9 M171.7 220.8 L193.3 225.5 M272.1 198.4 L272.6 187.9 M226.5 116.7 L226.6 120.1 M216 103.8 L205.8 94.5 M142.3 128.7 L153.1 131.3 M172.8 95.6 L186.4 105.1 M288 141.7 L309.9 147.3 M186.2 105.6 L173.3 97 M289.9 165.7 L308.8 172.8 M269.7 161.7 L274.2 160.1 M168.2 192.2 L169.5 189.6 M154.4 212.5 L162.4 218.1 L171.7 220.8 M292.9 154.5 L289.8 165.6 M282.2 179.6 L273.1 181.1 M209.4 206.2 L207.6 210 M207.2 209.8 L209.1 206.1 M154.4 212.5 L161.3 202.8 M139.4 188.3 L149.6 189 M194 235.7 L177.7 230.9 L171 226.7 M118.5 151.4 L119 142.7 L111.5 135.1 M272.7 186.6 L272.7 181.2 M183.7 112.1 L186.4 106.6 M171.6 226.6 L178.2 230.8 L193.4 234.8 M168.6 226 L144.7 222.1 M309.1 173 L298.6 174 L293.1 178 M116.3 127.8 L135.4 128.2 M228.6 110.9 L227.1 113.4 M292.5 178 L282.5 179.5 M161.5 202.4 L163.9 198.7 M268.7 136.8 L272.2 137.8 M271.8 138.2 L268.5 137.3 M276.3 139.3 L272.2 138.3 M130 149.2 L118.6 146.6 M273.1 181.1 L273.3 184 M173.3 97 L168.4 81 M294.1 150.8 L307.4 153.3 M282 140.7 L277.4 139.6 M277.6 139.1 L282.2 140.3 M144.5 221.6 L154.4 212.5 M238.2 91.3 L234.6 99.4 M144.2 222.1 L113.2 214.3 M120.6 199.7 L128.4 189.8 M187.6 106.3 L190.2 108.1 M307.3 180.1 L294.3 177.8 M282.6 140.4 L288 141.7 M132.3 187.7 L139.4 188.3 M270.1 207.2 L271.4 201.5 M131.4 149.8 L125.4 148.1 M131.4 190.9 L133.2 198.4 M170.1 82.6 L172.8 95.6 M133.2 198.4 L132.9 208.4 M265.3 230.4 L267.8 217.6 M308.8 172.8 L325.5 184.1 M202.4 220.4 L200.1 225.1 M138.6 191.1 L132 189.7 M199.7 224.8 L202 220.3 M195.6 235.5 L202.5 238.3 L209.1 245.4 M210.1 89.3 L219.2 80.5 M134.2 127.8 L140.1 128.5 M208.2 244.6 L201.4 237.8 L195.5 235.8 M269.2 213.5 L267.2 222.2 M241.9 85.1 L260.1 85.3 M129.6 128.3 L119.1 127.9 M271.4 201.5 L272.1 198.4 M205.8 94.5 L210.1 89.3 M118.6 146.6 L118.5 142.9 L115.9 139.7 M107.5 128.6 L109.8 119.6 L106.8 111.3 M107 129.4 L107.7 132.3 L115.5 139.4 M324.8 184.4 L307.3 180.1 M126.9 188.8 L118.4 187.2 M269.2 211.5 L270.1 207.2 M118.4 186.9 L126.1 187.1 M270.6 207.3 L269.7 211.7 M125.4 148.1 L122.5 150.7 M298.6 152.1 L294.2 152.8 M298.6 152.1 L294.3 151.3 M318.9 155.7 L307.3 153.7 M307.4 153.3 L319 155.3 M171.7 220.8 L170.3 225.4 M112.3 150.6 L118 149.3 M306.8 153.6 L309.3 147.7 M129.2 188.6 L132.3 187.7 M118.5 151.4 L112.3 150.9 M267.2 222.2 L265.8 230.4 M229.5 162.6 L229.5 162.7 M246.5 156.8 L245.9 158.9 M267.8 217.6 L268.8 213.4 M194.8 234.9 L197.2 229.9 M197.6 230 L195.2 234.9 M132.4 154.9 L147.5 160.2 M132.6 218.1 L143.5 221.7 M221.3 75.4 L219.8 66.6 L213.6 51.3 M309.7 147.8 L307.4 153.3 M151 134.4 L130.2 133.3 M214 50.8 L220.2 66.5 L221.6 75.5 M114.4 214.2 L130.1 217.6 M310.9 143.8 L314.7 134.2 L306.7 131.6 M163.1 190.9 L163.5 195.6 L159.5 201.5 M199.1 227 L197.6 230 M197.2 229.9 L198.7 226.9 M233.4 115 L248.2 112.9 M101.3 130.6 L100.7 142 M249.6 204.4 L269.2 211.5 M131.9 215.3 L132.9 208.4 M113.7 187.1 L115.5 178.8 L135.6 151.3 M135.6 151.3 L115 180.1 L114.1 187.1 M240 86.4 L238.2 91.3 M224.3 78.3 L232.8 82.5 M109 118.4 L107.1 128.6 M123.5 141 L144 142.2 M245.5 155.7 L246.5 156.8 M194.7 104.4 L208.1 109 M118 149.3 L118.6 146.6 M277.3 127.1 L261.3 123.3 M274.7 87 L269.7 90.7 L265.4 90.8 M232.8 82.5 L240.5 84.7 M274.1 79.8 L268.8 78.7 L261 85.1 M245.5 155.7 L246.7 155.1 M87.6 185.9 L87.7 164.2 L94.2 150.7 L98.2 149.7 M144 142.2 L135.8 151.2 M111.5 135.1 L107.4 129.4 M247.7 156.2 L246.5 156.8 M178.2 145.9 L176.8 146.3 M218.9 256.3 L208.7 245.9 M209.3 245.7 L219 256.1 M99.2 148.6 L100 140.2 M130 149.2 L131.8 144.1 L130.4 134.4 M100.7 142 L99.7 150 M184.2 113.2 L185.6 120.1 M96.9 121.1 L99.8 120.9 L106.2 110.9 M113.3 214 L117.8 205 M306.8 153.6 L303.4 152.9 M185.6 120.1 L183.9 113.4 M246.9 125.4 L254.3 127.4 M105.3 94.9 L106.8 111.3 M266.1 109.7 L248.8 112.6 M237.2 142.7 L237.3 143.3 M107 150.3 L112.3 150.6 M114.4 214.2 L114.3 229 M112.3 150.9 L107.2 150.8 M107.2 150.8 L99.7 150 M106.2 110.9 L105.3 94.9 M203.4 218.6 L218.5 227.5 M182.7 125.7 L177.7 124.3 M99.8 149.6 L107 150.3 M136.8 115.9 L129 119.9 M118.2 204.6 L120.6 199.7 M89.1 202.3 L104.7 201.9 L115.6 204.3 M284.8 164.6 L274.7 161.9 M337.8 145.5 L325.8 130.1 L316.5 127.4 M137.7 174.6 L124.2 168.2 M268.8 241.8 L276 260.4" fill="none" stroke="#fcf7e8" stroke-width="6.4" opacity="0.92" stroke-linecap="round" stroke-linejoin="round"/>
</g>
<g data-layer="major-road">
<path d="M211.5 160.7 L216 177.1 M183.9 175.4 L189.9 173.5 L209.3 160.5 M214.6 178.1 L202.3 174.2 L189.1 175.9 M215.3 123.3 L196.2 138.6 L186.2 142.9 M176.1 154.8 L179.3 172.9 M195.8 138.2 L214.6 123.2 M212.6 158.1 L234.2 143.9 M236.6 142.9 L212.7 158.5 M238.9 176.3 L263.4 163.9 M179.6 176.5 L152.2 157 M223.8 186.2 L220.3 185 L214.6 178.1 M213.7 196.2 L191.8 195.1 M190 193 L210.1 195.8 M222.1 190.8 L226 184.9 L230.4 182.1 M216.7 179.5 L222.6 185.7 M251.8 133.1 L230.9 127.7 M233 185.5 L226 186.4 L221.7 191.6 M214.6 123.2 L185.1 113.2 M272.4 181.2 L245.3 184.2 M188.7 141.5 L195.8 138.2 M215.6 195 L224.6 186.9 M237.9 185 L226 185.9 M237.9 185 L226.6 186.3 M225.1 187.4 L217.4 194.7 M184.5 175.4 L190.9 183.8 L188.5 191.9 M202.9 195.3 L215.4 195.4 M226.3 185.3 L231.1 181.7 M226 184.5 L231.1 181.7 M236.5 142.5 L227.7 127.7 M182.4 178.9 L176.9 183.9 M232.7 127.8 L244.7 130.8 M228.8 128.3 L237.1 142.4 M209.3 205.8 L215.4 195.4 M179.7 145 L184.1 143.3 M215.4 195.4 L222.1 190.8 M221.7 191.6 L214.7 196.1 M174.5 143.1 L166.8 138.9 M232.7 180.6 L236 178.3 M214.7 196.1 L209.5 205.8 M268.5 137.3 L252.4 133.3 M190.2 108.1 L203.4 118.7 M147.8 191.2 L118.4 187.2 M229.5 162.7 L228.3 168.6 L223.1 174.3 L224.7 185.2 M249.3 142.6 L276.1 147.5 M167.6 134.3 L180.5 117.3 M183 114.1 L167.9 134.5 M163.3 140.9 L149.7 155.4 M229.5 162.7 L214.8 160.4 M214.7 160.1 L227.1 162.9 M147.8 191 L155.7 189.5 M83.5 192.1 L95.9 188.5 L121.4 186.6 L136.1 190.5 L147.8 191 M205 175.6 L202.7 195 M249 143.1 L251.8 133.1 M256 156.6 L247.7 156.2 M164 198.6 L184.2 200.3 M183.9 200.5 L163.9 198.7 M245.9 158.9 L241.9 174.6 M246.7 155.1 L247.5 150.7 M180.5 114.6 L169.9 116.4 L155.4 114.4 M229.5 162.6 L237.2 154.7 M153.2 191.6 L147.8 191.2 M151.4 156.6 L178 145.6 M164.5 184.7 L174.3 182.6 M176.8 146.3 L151.8 156.7 M249 143.1 L242.9 142.9 M179.9 178.5 L169.4 175.4 L153.8 163 L147.5 160.2 M269.2 173 L263.4 163.9 M230.6 163 L243.9 165.9 M237.3 143.3 L239.7 146.6 L237.2 154.7 M261.7 160.5 L256 156.6 M205 175.6 L194.7 175.2 M261 145.1 L252.6 143.6 M247.8 149.3 L248.4 145.7 M274 162.4 L270.3 172.8 M214.8 160.4 L212.7 159.7 M217.9 195.4 L235.2 198.1 L245.1 202.1 M189.6 196.1 L183.9 200.5 M278.4 148.9 L274.4 158.6 M213.3 159.7 L214.7 160.1 M211.9 159.2 L213 159.6 M212.7 159.7 L211.7 159.4 M272.7 181.2 L269.2 173 M251.9 169.3 L259 182.9 M237.2 154.7 L245.5 155.7 M211.7 159.4 L211.3 159.1 M226.6 120.1 L246.9 125.4 M211.5 159 L211.9 159.2 M177 207.5 L171.7 220.8 M164.5 184.7 L137.7 174.6 M227.1 162.9 L230.6 163 M282.2 140.3 L288.9 126.4 M213 159.6 L213.3 159.7 M185.3 123.7 L186 126.8 L180.2 133.6 M280 148.3 L293.8 150.8 M155.4 114.4 L149.3 116.5 L136.8 115.9 M134.6 179.3 L149.1 155.8 M180.2 133.6 L185.3 123.7 M184.3 140.4 L180.2 133.6 M294.3 177.8 L290.9 166.2 M136.7 115.6 L149.3 116.1 L153.4 114.6 M254.3 127.4 L274.4 132.9 M247.3 183.3 L247.9 181.2 L244.3 177 M245.4 190.5 L247.9 203.6 M247.1 203.2 L245.4 190.5 M230.6 163 L229.5 162.7 M230.6 162.2 L230.6 163 M248.2 113.3 L229.4 115.6 M118.4 187.2 L95.2 188.8 L60.5 197.9 L36.5 201.5 M144 142.2 L156.2 148.4 M168.6 226 L163.4 226.6 L153.5 242.7 M184.3 140.4 L185.8 142.6 M306.7 131.6 L289.4 126.8 M245.3 184.2 L245.4 190.5 M244.3 177 L241.9 174.6 M217.4 236.5 L203.9 228.4 M261.3 123.3 L256.9 133.9 M252.3 132.5 L256.3 123 M152.6 111.6 L139.9 104.9 M144 142.2 L152 131.2 M153.2 131.9 L144 142.2 M308.8 172.8 L334.1 160.4 M71.3 195.1 L83.5 192.1 M36.3 201.3 L71.3 195.1 M189.1 175.9 L187 177.7 M167.9 134.5 L166.3 138.2 M163 140.8 L164.5 137.7 M142.9 105.8 L154.6 112.5 M109 118.4 L106.5 129 M28.3 206.1 L23 210.7 L9.8 214 M9.9 213.6 L23.7 210 L28 205.8 M280.5 145.2 L280 145 M220.8 70.2 L222 74.3 L225.8 75.6 M28 205.8 L35.2 201.8 M96.8 188.6 L92.9 194.2 M229.4 115.6 L226.5 116.7 M94 125.9 L91.6 128.5 L90 127.6 L91.1 126.1 M32.7 203.6 L28.3 206.1 M35.7 202 L32.7 203.6 M162.4 16.4 L162.8 7.9 M163.3 8.1 L162.9 16.3 M131.7 216.9 L132.6 218.1 M245.7 191.8 L246.2 191.7 M35.2 201.8 L36.3 201.3 M246.1 202.4 L247.6 202 M36.5 201.5 L35.7 202 M68.7 130.5 L68.2 123.9 L65.6 121.7 M272.8 137.1 L273.3 138 M247.6 202 L248.1 202.1 M92.9 194.2 L92.2 195.2 M334 158.7 L332.2 157.9 M146.4 139.1 L146.8 139.3 M278.6 124.5 L280.1 124.3 M205.9 221.8 L205.9 222.7 M171.2 88.4 L173.8 89.3 M173.7 89.5 L171.5 89.5 M163.8 8.4 L162.9 16.3 M162.4 16.4 L162.3 9.2 M139.4 33 L138 33.1 M183.1 144 L180 145.7 M205.3 114.4 L219.9 118.2 M176.9 183.9 L169.4 190 M236 178.3 L238.9 176.3 M179.3 172.9 L180.8 175.2 M175.7 152.1 L176.1 154.8 M153.1 131.3 L166.3 138.2 M245.3 184.2 L237.9 185 M222.6 185.7 L226 184.5 M166.2 138.6 L153.2 131.9 M176.8 182.1 L179.9 178.6 M209.8 204.2 L213.7 196.2 M178.1 145.3 L174.5 143.1 M183.3 188 L188.5 191.9 M169.5 189.6 L175.6 184.7 M273.3 184 L270.6 207.3 M149.1 155.8 L131.4 149.8 M236.9 185.1 L233 185.5 M172.8 141.7 L176.2 143.4 M153.2 131.9 L146.8 129.4 L129.6 128.3 M214.6 196.1 L212 201.2 M220.6 124.7 L215.3 123.3 M256.9 133.9 L268.7 136.8 M166.9 190.4 L153.2 191.6 M244.7 130.8 L252 132.7 M180.2 186 L183.3 188 M166.3 138.2 L170.9 140.6 M215.4 122.4 L219.6 118.4 M228.4 126.6 L232.7 127.8 M226.2 113.2 L216.7 104.6 M226.1 122.7 L227.3 126.3 M226.2 126.4 L222.5 125.2 M220 118.8 L216.3 122.4 M210.1 195.8 L213.9 195.5 M220.4 118.4 L226.6 120.1 M263.4 163.9 L269.7 161.7 M275.7 159.5 L289.7 154.3 M212 201.2 L209.4 206.2 M226.3 114.8 L220.4 118.4 M309.3 147.7 L282.5 140.8 M219.9 118.2 L225.6 114.7 M163.9 198.7 L168.2 192.2 M234.6 99.4 L228.6 110.9 M163.4 189.9 L169.5 189.6 M203.5 118.5 L205.3 114.4 M202.8 218.6 L207.2 209.8 M207.6 210 L203.3 218.9 M252.4 132.8 L256.9 133.9 M153.2 191.6 L138.6 191.1 M155.7 189.5 L163.4 189.9 M171.7 220.8 L193.3 225.5 M272.1 198.4 L272.6 187.9 M226.5 116.7 L226.6 120.1 M216 103.8 L205.8 94.5 M142.3 128.7 L153.1 131.3 M172.8 95.6 L186.4 105.1 M288 141.7 L309.9 147.3 M186.2 105.6 L173.3 97 M289.9 165.7 L308.8 172.8 M269.7 161.7 L274.2 160.1 M168.2 192.2 L169.5 189.6 M154.4 212.5 L162.4 218.1 L171.7 220.8 M292.9 154.5 L289.8 165.6 M282.2 179.6 L273.1 181.1 M209.4 206.2 L207.6 210 M207.2 209.8 L209.1 206.1 M154.4 212.5 L161.3 202.8 M139.4 188.3 L149.6 189 M194 235.7 L177.7 230.9 L171 226.7 M118.5 151.4 L119 142.7 L111.5 135.1 M272.7 186.6 L272.7 181.2 M183.7 112.1 L186.4 106.6 M171.6 226.6 L178.2 230.8 L193.4 234.8 M168.6 226 L144.7 222.1 M309.1 173 L298.6 174 L293.1 178 M116.3 127.8 L135.4 128.2 M228.6 110.9 L227.1 113.4 M292.5 178 L282.5 179.5 M161.5 202.4 L163.9 198.7 M268.7 136.8 L272.2 137.8 M271.8 138.2 L268.5 137.3 M276.3 139.3 L272.2 138.3 M130 149.2 L118.6 146.6 M273.1 181.1 L273.3 184 M173.3 97 L168.4 81 M294.1 150.8 L307.4 153.3 M282 140.7 L277.4 139.6 M277.6 139.1 L282.2 140.3 M144.5 221.6 L154.4 212.5 M238.2 91.3 L234.6 99.4 M144.2 222.1 L113.2 214.3 M120.6 199.7 L128.4 189.8 M187.6 106.3 L190.2 108.1 M307.3 180.1 L294.3 177.8 M282.6 140.4 L288 141.7 M132.3 187.7 L139.4 188.3 M270.1 207.2 L271.4 201.5 M131.4 149.8 L125.4 148.1 M131.4 190.9 L133.2 198.4 M170.1 82.6 L172.8 95.6 M133.2 198.4 L132.9 208.4 M265.3 230.4 L267.8 217.6 M308.8 172.8 L325.5 184.1 M202.4 220.4 L200.1 225.1 M138.6 191.1 L132 189.7 M199.7 224.8 L202 220.3 M195.6 235.5 L202.5 238.3 L209.1 245.4 M210.1 89.3 L219.2 80.5 M134.2 127.8 L140.1 128.5 M208.2 244.6 L201.4 237.8 L195.5 235.8 M269.2 213.5 L267.2 222.2 M241.9 85.1 L260.1 85.3 M129.6 128.3 L119.1 127.9 M271.4 201.5 L272.1 198.4 M205.8 94.5 L210.1 89.3 M118.6 146.6 L118.5 142.9 L115.9 139.7 M107.5 128.6 L109.8 119.6 L106.8 111.3 M107 129.4 L107.7 132.3 L115.5 139.4 M324.8 184.4 L307.3 180.1 M126.9 188.8 L118.4 187.2 M269.2 211.5 L270.1 207.2 M118.4 186.9 L126.1 187.1 M270.6 207.3 L269.7 211.7 M125.4 148.1 L122.5 150.7 M298.6 152.1 L294.2 152.8 M298.6 152.1 L294.3 151.3 M318.9 155.7 L307.3 153.7 M307.4 153.3 L319 155.3 M171.7 220.8 L170.3 225.4 M112.3 150.6 L118 149.3 M306.8 153.6 L309.3 147.7 M129.2 188.6 L132.3 187.7 M118.5 151.4 L112.3 150.9 M267.2 222.2 L265.8 230.4 M229.5 162.6 L229.5 162.7 M246.5 156.8 L245.9 158.9 M267.8 217.6 L268.8 213.4 M194.8 234.9 L197.2 229.9 M197.6 230 L195.2 234.9 M132.4 154.9 L147.5 160.2 M132.6 218.1 L143.5 221.7 M221.3 75.4 L219.8 66.6 L213.6 51.3 M309.7 147.8 L307.4 153.3 M151 134.4 L130.2 133.3 M214 50.8 L220.2 66.5 L221.6 75.5 M114.4 214.2 L130.1 217.6 M310.9 143.8 L314.7 134.2 L306.7 131.6 M163.1 190.9 L163.5 195.6 L159.5 201.5 M199.1 227 L197.6 230 M197.2 229.9 L198.7 226.9 M233.4 115 L248.2 112.9 M101.3 130.6 L100.7 142 M249.6 204.4 L269.2 211.5 M131.9 215.3 L132.9 208.4 M113.7 187.1 L115.5 178.8 L135.6 151.3 M135.6 151.3 L115 180.1 L114.1 187.1 M240 86.4 L238.2 91.3 M224.3 78.3 L232.8 82.5 M109 118.4 L107.1 128.6 M123.5 141 L144 142.2 M245.5 155.7 L246.5 156.8 M194.7 104.4 L208.1 109 M118 149.3 L118.6 146.6 M277.3 127.1 L261.3 123.3 M274.7 87 L269.7 90.7 L265.4 90.8 M232.8 82.5 L240.5 84.7 M274.1 79.8 L268.8 78.7 L261 85.1 M245.5 155.7 L246.7 155.1 M87.6 185.9 L87.7 164.2 L94.2 150.7 L98.2 149.7 M144 142.2 L135.8 151.2 M111.5 135.1 L107.4 129.4 M247.7 156.2 L246.5 156.8 M178.2 145.9 L176.8 146.3 M218.9 256.3 L208.7 245.9 M209.3 245.7 L219 256.1 M99.2 148.6 L100 140.2 M130 149.2 L131.8 144.1 L130.4 134.4 M100.7 142 L99.7 150 M184.2 113.2 L185.6 120.1 M96.9 121.1 L99.8 120.9 L106.2 110.9 M113.3 214 L117.8 205 M306.8 153.6 L303.4 152.9 M185.6 120.1 L183.9 113.4 M246.9 125.4 L254.3 127.4 M105.3 94.9 L106.8 111.3 M266.1 109.7 L248.8 112.6 M237.2 142.7 L237.3 143.3 M107 150.3 L112.3 150.6 M114.4 214.2 L114.3 229 M112.3 150.9 L107.2 150.8 M107.2 150.8 L99.7 150 M106.2 110.9 L105.3 94.9 M203.4 218.6 L218.5 227.5 M182.7 125.7 L177.7 124.3 M99.8 149.6 L107 150.3 M136.8 115.9 L129 119.9 M118.2 204.6 L120.6 199.7 M89.1 202.3 L104.7 201.9 L115.6 204.3 M284.8 164.6 L274.7 161.9 M337.8 145.5 L325.8 130.1 L316.5 127.4 M137.7 174.6 L124.2 168.2 M268.8 241.8 L276 260.4" fill="none" stroke="#1f3733" stroke-width="2.7" opacity="0.9" stroke-linecap="round" stroke-linejoin="round"/>
</g>
<g data-layer="minor-road-casing">
<path d="M80 21.1 L81.5 65.2 M50.1 174 L33.6 169.8 L22 171.4 L20.7 176 L15.5 180.7 L24.3 182.8 M93.9 209.9 L44.4 210.9 M93.6 206.8 L44.4 207.8 M55.4 281.3 L9.9 278.2 M88.5 205.4 L44.3 206.3 M243.7 14.7 L267.4 24.3 L282.4 27.5 M55.4 215.4 L56.7 234.9 L58.7 238.6 L55.5 243.8 L58.2 245.4 M399.8 159.8 L397.1 149.2 L392.9 144.2 L377 137.5 M29.7 87.4 L42.1 102.3 L43.8 115 M91.8 217.7 L94 247.6 M79.8 157.6 L73 157.9 L70.1 162 L64.8 159.9 L64.9 155.3 L78.8 154.6 M104.2 296.8 L64.9 294.5 M323 244.9 L318.6 254.8 L321.7 259.8 L316.7 264.4 L316.9 271.5 M132.2 86.7 L141.9 81.9 L147 77.1 L153.8 64.9 M339 245 L359.6 268.6 M359.1 268.8 L338.8 245.1 M152.8 58.8 L115.7 58.3 M45.6 116.7 L44.7 104.3 L35.1 90.7 M80.3 277.1 L76.5 279.1 L77.5 302.5 M83 307.5 L85 301.3 L83.9 280.3 M58.5 42.5 L94.3 42.6 M201.9 218.5 L198.2 212.8 L172.4 206.9 M13.9 55 L49.2 57.9 M49.7 172.5 L52.3 165 L53.2 146.2 M106.5 32.6 L107.3 58.9 M134.1 191.2 L153.5 193.8 L167.9 192.7 M331.8 47.5 L299.4 39.1 M341 33 L326.3 30 L309.7 22.9 M153.5 264.7 L153 290.2 M366.7 184 L367.7 168.2 L362.6 159.6 M35.9 261.6 L68.5 258.6 M125.1 17.5 L158.2 18.8 M350.7 250.3 L348.5 248 L338.2 253 L350.2 261.8 M63.5 197.4 L64.5 221.7 M163.7 186.6 L143.8 185.9 L132.7 182.5 M47.7 99.2 L37.2 85.7 L33.9 77.7 M97.5 257.7 L98.7 281.6 M68.5 226.2 L58.8 228.7 L47.6 227.6 L38.1 229.4 M178.5 256 L177.3 279.6 M147.5 61 L149 37.4 M365.5 148.4 L393 159.4 M66.8 49.5 L65.8 26.2 M263.6 78.5 L250.6 79.5 L235.4 77.5 M323.2 288.4 L317.3 286.8 L317.9 283.3 L299 279.6 M165.6 267.8 L163.9 271.4 L163.3 290.4 M289 20.8 L259.3 16.1 M71.7 75.3 L42.1 71.4 M22.4 306.1 L32.6 285.1 M253.2 98.2 L264.6 98.9 L281.4 103.7 M32.9 60.4 L39.4 38.7 M238.1 219.8 L236.6 223.9 L243.5 225.8 L238.9 235.9 L239.7 237.5 M328.1 57 L301.3 54.8 L301.5 52.9 M22 172.2 L34.4 170.6 L49.8 174.6 M18.5 39.9 L46.8 45.1 M216.5 16.7 L239.3 23.8 L237.4 26.3 M137.9 225.5 L138.3 247.2 M158.6 166.6 L146.6 186.2 M206.5 211.2 L178.5 205.8 M285.9 15.7 L258.4 9.9 M90.1 280.1 L89.4 301.5 M332.5 287.6 L340.2 278.1 L350.1 271.3 M96.6 55.7 L68.5 56.2 M379.6 254.4 L379.2 261.9 L377.8 261.9 L374 274 M137.3 280.5 L136.9 259.7 M43.1 164.2 L44.2 166.9 L20.6 163.5 M251.3 273.9 L232.8 272.7 L233.6 266.3 M336.7 21.1 L331.8 19.1 L330.7 21.5 L314 16.4 M151.7 223.3 L144.4 242.7 M45.7 86.5 L50.1 96.4 L50.4 105.9 M212.2 250.8 L199.2 259.8 L196.3 264 L194.2 263.3 M273.9 263.4 L277.5 280.5 L280.8 281 M227.4 266.3 L253.3 270.1 M182.4 255.1 L187.8 265.4 L198.1 269.1 M48.2 95.8 L39 83.3 L37.6 77.9 M9.4 148.1 L17 129.3 M385.5 297.2 L403.9 311.1 M309.9 113.1 L318.3 112.5 L327.9 101.5 M214.2 21.6 L237.1 31 M235.1 237.3 L240.6 237.4 L243.3 241.8 L256.8 239.2 M327.4 58.6 L301.7 56.6 M182.8 208.6 L199.5 212.7 L203 218.3 M87.2 294.8 L61.9 292.4 M140.7 225.4 L141 244.7 M188.6 180.1 L214.2 179.8 M26 60.9 L30.6 42 M235.1 219.3 L240.1 200.6 M69.8 213.6 L44.5 214.1 M296.9 243.3 L322.3 243.6 M24.6 60.2 L24.2 53.3 L28.5 41.6 M371 261.5 L356.9 255.3 L359.8 249 M140.5 264.7 L140.7 283.5 M396.3 24.5 L383.3 18.6 L382.8 13.1 L380.6 12.3 M282.7 107.5 L275.8 104.6 L259.1 103.3 M78.5 72.1 L54.2 69.4 M39.8 164.2 L61.6 165.7 L62.9 164.5 M62.5 299 L86.3 303.8 M15.9 47.4 L40.3 48.6 M368.9 142.8 L344.8 140.1 M36.4 163.5 L38.1 153.3 L41.9 146 M21.2 170.6 L32.5 168.8 L45.1 170.6 M121.8 287.1 L97.5 286.8 M193.6 262.3 L201.5 266.7 L212.7 268.7 M105.1 67.4 L104.5 49.2 M280.8 82.4 L277.1 100.1 M12.8 236 L15.9 222 L19.5 219.7 M103.4 247.3 L102.2 229.2 M55.4 99.5 L79.5 100.1 M166.2 272.3 L165.8 290.4 M315.7 71.2 L322.2 60.2 L323.1 54.2 M151 110 L157.2 101.3 L155.9 97.4 L151.7 95 M316.6 292.6 L319.7 297.2 L336.7 298.1 M31.7 42.2 L27.9 60 M221.5 257.2 L236 242.9 M69.5 204.4 L93.4 203.7 M200.1 91.6 L202.9 73.9 M158.3 185.1 L135.6 180.1 M175 174.5 L157.8 162.3 M33.6 159.6 L26.1 158.2 L29.4 146.5 M212.6 213.6 L235.9 216.5 M18.8 95 L17.8 112.7 M236.3 214.6 L213.1 211.7 M49.2 98.8 L37.6 83.5 M399.3 137.2 L398 143.7 L411.5 147.2 M92.7 289.4 L74.7 289.7 L75.1 292.2 L77.1 292.4 M323.3 291.6 L329 274.7 M190.4 183 L213.5 182.4 M12.8 127.6 L14.7 110.3 M136.4 59.2 L135.2 76.4 M54.2 163.5 L56.2 146.3 M9.9 278.2 L12.3 261.1 M310.5 274.8 L290.9 283.9 M295.3 67.8 L306 56.8 L306.4 53.3 M229.9 238.8 L211 248.1 M27 74.9 L49.6 76.5 M318.9 24 L340.3 29.8 M283.9 276.9 L278.4 293.2 M44.2 172.7 L34 171.2 L22 172.8 M38.2 116.2 L39.4 99.4 M20.7 283.7 L17.4 293 L12.6 299.3 M382 43.4 L387.3 45.1 L403.4 42.6 M109.4 72.2 L131.7 71.8 M242 244.1 L234.6 259.7 M76 163.3 L70.4 162.5 L68.3 166.3 L71.1 167.7 L73.8 162.9 M245.9 192.6 L266.9 196.6 M121.8 284.5 L102 284.3 L100.8 283 M140.8 29.7 L159.7 38.1 M46.3 187 L36.3 182.3 L37 180.7 L32.3 179.1 L33.2 177.3 M322.5 233.9 L326.4 235 L323.9 238.1 L311.4 236.4 M80.2 286.7 L80.8 302.9 M88.5 171.5 L89.4 166.2 L95 156.2 M132.5 100.7 L123.1 111.8 L119.6 113.5 M133.9 33.2 L133.8 49.3 M9.3 144.5 L15.6 129 M23.5 73.1 L29.6 72.1 L44.7 73.8 M121.7 229.7 L121.2 217.6 L126.5 217.1 M399.3 137.2 L402.6 121.5 M125.1 23.2 L124.7 7.1 M77.3 49.3 L78 65.3 M15.9 159.6 L36.4 163.5 M24.2 50.6 L30.5 35.5 M49.8 76.6 L70.8 78.3 M17.7 156.3 L23.8 156.8 L26 150.9 L29.3 152 L30 149.6 M142.8 84.6 L152.7 70.8 M54.9 41.3 L34.5 37.8 M398.4 20.8 L397.8 34 L401 34.6 M407.3 120.8 L406.4 114.4 L404.5 112.6 L410.2 107.1 M65.4 75.7 L44.7 73.8 M46.6 255.6 L56.6 255.7 L58.9 252.6 L54 253 M272.1 167.1 L291.9 171.6 M408.2 162.6 L411.5 147.2 M317.7 11.8 L338.3 13.4 M312.5 270.1 L313.3 268.1 L314.3 268.9 L310.9 274.5 L316.4 278.4 M69.8 143.6 L60.6 140.4 L50.2 140 M51.6 200.1 L52.1 215.5 M120.9 65.6 L141.5 65.3 M159.7 38.1 L158.4 22.6 M240.3 91.8 L234.2 102.4 L238.5 104.6 M36.8 161.6 L19.6 158.5 L18.4 160.4 M104.9 264.6 L106.8 279.7" fill="none" stroke="#fbf7eb" stroke-width="3.4" opacity="0.62" stroke-linecap="round" stroke-linejoin="round"/>
</g>
<g data-layer="minor-road">
<path d="M80 21.1 L81.5 65.2 M50.1 174 L33.6 169.8 L22 171.4 L20.7 176 L15.5 180.7 L24.3 182.8 M93.9 209.9 L44.4 210.9 M93.6 206.8 L44.4 207.8 M55.4 281.3 L9.9 278.2 M88.5 205.4 L44.3 206.3 M243.7 14.7 L267.4 24.3 L282.4 27.5 M55.4 215.4 L56.7 234.9 L58.7 238.6 L55.5 243.8 L58.2 245.4 M399.8 159.8 L397.1 149.2 L392.9 144.2 L377 137.5 M29.7 87.4 L42.1 102.3 L43.8 115 M91.8 217.7 L94 247.6 M79.8 157.6 L73 157.9 L70.1 162 L64.8 159.9 L64.9 155.3 L78.8 154.6 M104.2 296.8 L64.9 294.5 M323 244.9 L318.6 254.8 L321.7 259.8 L316.7 264.4 L316.9 271.5 M132.2 86.7 L141.9 81.9 L147 77.1 L153.8 64.9 M339 245 L359.6 268.6 M359.1 268.8 L338.8 245.1 M152.8 58.8 L115.7 58.3 M45.6 116.7 L44.7 104.3 L35.1 90.7 M80.3 277.1 L76.5 279.1 L77.5 302.5 M83 307.5 L85 301.3 L83.9 280.3 M58.5 42.5 L94.3 42.6 M201.9 218.5 L198.2 212.8 L172.4 206.9 M13.9 55 L49.2 57.9 M49.7 172.5 L52.3 165 L53.2 146.2 M106.5 32.6 L107.3 58.9 M134.1 191.2 L153.5 193.8 L167.9 192.7 M331.8 47.5 L299.4 39.1 M341 33 L326.3 30 L309.7 22.9 M153.5 264.7 L153 290.2 M366.7 184 L367.7 168.2 L362.6 159.6 M35.9 261.6 L68.5 258.6 M125.1 17.5 L158.2 18.8 M350.7 250.3 L348.5 248 L338.2 253 L350.2 261.8 M63.5 197.4 L64.5 221.7 M163.7 186.6 L143.8 185.9 L132.7 182.5 M47.7 99.2 L37.2 85.7 L33.9 77.7 M97.5 257.7 L98.7 281.6 M68.5 226.2 L58.8 228.7 L47.6 227.6 L38.1 229.4 M178.5 256 L177.3 279.6 M147.5 61 L149 37.4 M365.5 148.4 L393 159.4 M66.8 49.5 L65.8 26.2 M263.6 78.5 L250.6 79.5 L235.4 77.5 M323.2 288.4 L317.3 286.8 L317.9 283.3 L299 279.6 M165.6 267.8 L163.9 271.4 L163.3 290.4 M289 20.8 L259.3 16.1 M71.7 75.3 L42.1 71.4 M22.4 306.1 L32.6 285.1 M253.2 98.2 L264.6 98.9 L281.4 103.7 M32.9 60.4 L39.4 38.7 M238.1 219.8 L236.6 223.9 L243.5 225.8 L238.9 235.9 L239.7 237.5 M328.1 57 L301.3 54.8 L301.5 52.9 M22 172.2 L34.4 170.6 L49.8 174.6 M18.5 39.9 L46.8 45.1 M216.5 16.7 L239.3 23.8 L237.4 26.3 M137.9 225.5 L138.3 247.2 M158.6 166.6 L146.6 186.2 M206.5 211.2 L178.5 205.8 M285.9 15.7 L258.4 9.9 M90.1 280.1 L89.4 301.5 M332.5 287.6 L340.2 278.1 L350.1 271.3 M96.6 55.7 L68.5 56.2 M379.6 254.4 L379.2 261.9 L377.8 261.9 L374 274 M137.3 280.5 L136.9 259.7 M43.1 164.2 L44.2 166.9 L20.6 163.5 M251.3 273.9 L232.8 272.7 L233.6 266.3 M336.7 21.1 L331.8 19.1 L330.7 21.5 L314 16.4 M151.7 223.3 L144.4 242.7 M45.7 86.5 L50.1 96.4 L50.4 105.9 M212.2 250.8 L199.2 259.8 L196.3 264 L194.2 263.3 M273.9 263.4 L277.5 280.5 L280.8 281 M227.4 266.3 L253.3 270.1 M182.4 255.1 L187.8 265.4 L198.1 269.1 M48.2 95.8 L39 83.3 L37.6 77.9 M9.4 148.1 L17 129.3 M385.5 297.2 L403.9 311.1 M309.9 113.1 L318.3 112.5 L327.9 101.5 M214.2 21.6 L237.1 31 M235.1 237.3 L240.6 237.4 L243.3 241.8 L256.8 239.2 M327.4 58.6 L301.7 56.6 M182.8 208.6 L199.5 212.7 L203 218.3 M87.2 294.8 L61.9 292.4 M140.7 225.4 L141 244.7 M188.6 180.1 L214.2 179.8 M26 60.9 L30.6 42 M235.1 219.3 L240.1 200.6 M69.8 213.6 L44.5 214.1 M296.9 243.3 L322.3 243.6 M24.6 60.2 L24.2 53.3 L28.5 41.6 M371 261.5 L356.9 255.3 L359.8 249 M140.5 264.7 L140.7 283.5 M396.3 24.5 L383.3 18.6 L382.8 13.1 L380.6 12.3 M282.7 107.5 L275.8 104.6 L259.1 103.3 M78.5 72.1 L54.2 69.4 M39.8 164.2 L61.6 165.7 L62.9 164.5 M62.5 299 L86.3 303.8 M15.9 47.4 L40.3 48.6 M368.9 142.8 L344.8 140.1 M36.4 163.5 L38.1 153.3 L41.9 146 M21.2 170.6 L32.5 168.8 L45.1 170.6 M121.8 287.1 L97.5 286.8 M193.6 262.3 L201.5 266.7 L212.7 268.7 M105.1 67.4 L104.5 49.2 M280.8 82.4 L277.1 100.1 M12.8 236 L15.9 222 L19.5 219.7 M103.4 247.3 L102.2 229.2 M55.4 99.5 L79.5 100.1 M166.2 272.3 L165.8 290.4 M315.7 71.2 L322.2 60.2 L323.1 54.2 M151 110 L157.2 101.3 L155.9 97.4 L151.7 95 M316.6 292.6 L319.7 297.2 L336.7 298.1 M31.7 42.2 L27.9 60 M221.5 257.2 L236 242.9 M69.5 204.4 L93.4 203.7 M200.1 91.6 L202.9 73.9 M158.3 185.1 L135.6 180.1 M175 174.5 L157.8 162.3 M33.6 159.6 L26.1 158.2 L29.4 146.5 M212.6 213.6 L235.9 216.5 M18.8 95 L17.8 112.7 M236.3 214.6 L213.1 211.7 M49.2 98.8 L37.6 83.5 M399.3 137.2 L398 143.7 L411.5 147.2 M92.7 289.4 L74.7 289.7 L75.1 292.2 L77.1 292.4 M323.3 291.6 L329 274.7 M190.4 183 L213.5 182.4 M12.8 127.6 L14.7 110.3 M136.4 59.2 L135.2 76.4 M54.2 163.5 L56.2 146.3 M9.9 278.2 L12.3 261.1 M310.5 274.8 L290.9 283.9 M295.3 67.8 L306 56.8 L306.4 53.3 M229.9 238.8 L211 248.1 M27 74.9 L49.6 76.5 M318.9 24 L340.3 29.8 M283.9 276.9 L278.4 293.2 M44.2 172.7 L34 171.2 L22 172.8 M38.2 116.2 L39.4 99.4 M20.7 283.7 L17.4 293 L12.6 299.3 M382 43.4 L387.3 45.1 L403.4 42.6 M109.4 72.2 L131.7 71.8 M242 244.1 L234.6 259.7 M76 163.3 L70.4 162.5 L68.3 166.3 L71.1 167.7 L73.8 162.9 M245.9 192.6 L266.9 196.6 M121.8 284.5 L102 284.3 L100.8 283 M140.8 29.7 L159.7 38.1 M46.3 187 L36.3 182.3 L37 180.7 L32.3 179.1 L33.2 177.3 M322.5 233.9 L326.4 235 L323.9 238.1 L311.4 236.4 M80.2 286.7 L80.8 302.9 M88.5 171.5 L89.4 166.2 L95 156.2 M132.5 100.7 L123.1 111.8 L119.6 113.5 M133.9 33.2 L133.8 49.3 M9.3 144.5 L15.6 129 M23.5 73.1 L29.6 72.1 L44.7 73.8 M121.7 229.7 L121.2 217.6 L126.5 217.1 M399.3 137.2 L402.6 121.5 M125.1 23.2 L124.7 7.1 M77.3 49.3 L78 65.3 M15.9 159.6 L36.4 163.5 M24.2 50.6 L30.5 35.5 M49.8 76.6 L70.8 78.3 M17.7 156.3 L23.8 156.8 L26 150.9 L29.3 152 L30 149.6 M142.8 84.6 L152.7 70.8 M54.9 41.3 L34.5 37.8 M398.4 20.8 L397.8 34 L401 34.6 M407.3 120.8 L406.4 114.4 L404.5 112.6 L410.2 107.1 M65.4 75.7 L44.7 73.8 M46.6 255.6 L56.6 255.7 L58.9 252.6 L54 253 M272.1 167.1 L291.9 171.6 M408.2 162.6 L411.5 147.2 M317.7 11.8 L338.3 13.4 M312.5 270.1 L313.3 268.1 L314.3 268.9 L310.9 274.5 L316.4 278.4 M69.8 143.6 L60.6 140.4 L50.2 140 M51.6 200.1 L52.1 215.5 M120.9 65.6 L141.5 65.3 M159.7 38.1 L158.4 22.6 M240.3 91.8 L234.2 102.4 L238.5 104.6 M36.8 161.6 L19.6 158.5 L18.4 160.4 M104.9 264.6 L106.8 279.7" fill="none" stroke="#69776e" stroke-width="1.25" opacity="0.58" stroke-linecap="round" stroke-linejoin="round"/>
</g>
</g>
<g data-layer="north-up-compass" fill="none" stroke="#233934" stroke-linecap="round" stroke-linejoin="round" opacity="0.62">
<path d="M382 48L382 23" stroke-width="1.8"/>
<path d="M382 23L373 39M382 23L391 39" stroke-width="1.8"/>
<circle cx="382" cy="48" r="13" stroke-width="1.1" opacity="0.38"/>
</g>
<rect x="8" y="8" width="404" height="304" rx="16" fill="none" stroke="#233934" stroke-width="1.4" opacity="0.44"/>
</svg>
