<svg xmlns="http://www.w3.org/2000/svg" viewBox="0 0 420 320" role="img" aria-label="Unlabeled north-up street-grid crop" data-orientation="north-up">
<metadata>{"orientation":"north-up","projection":"local-web-mercator"}</metadata>
<defs>
<clipPath id="mapCrop"><rect x="8" y="8" width="404" height="304" rx="16"/></clipPath>
</defs>
<rect width="420" height="320" fill="#ede7d8"/>
<rect x="8" y="8" width="404" height="304" rx="16" fill="#f7f1e3" stroke="#d8cbb2" stroke-width="1.25"/>
<g clip-path="url(#mapCrop)">
<g data-layer="major-road-casing">
<path d="M198.4 183.4 L193.5 149 L193.1 113.5 L184.7 97.3" fill="none" stroke="#fcf7e8" stroke-width="6.4" opacity="0.92" stroke-linecap="round" stroke-linejoin="round"/>
<path d="M219.8 315.7 L239.3 237.3" fill="none" stroke="#fcf7e8" stroke-width="6.4" opacity="0.92" stroke-linecap="round" stroke-linejoin="round"/>
<path d="M240 237.4 L228.3 278.3 L220.5 315.7" fill="none" stroke="#fcf7e8" stroke-width="6.4" opacity="0.92" stroke-linecap="round" stroke-linejoin="round"/>
<path d="M35.2 74.3 L32.1 70.4 L35.8 50.6 L28 49.5 L27.1 47.9 L28.2 31.3 L25.1 19.4" fill="none" stroke="#fcf7e8" stroke-width="6.4" opacity="0.92" stroke-linecap="round" stroke-linejoin="round"/>
<path d="M60.2 22.2 L84.2 29.2 L100.2 38.1 L123.4 41.7 L127.1 44.3" fill="none" stroke="#fcf7e8" stroke-width="6.4" opacity="0.92" stroke-linecap="round" stroke-linejoin="round"/>
<path d="M291 108.7 L270.9 156.2" fill="none" stroke="#fcf7e8" stroke-width="6.4" opacity="0.92" stroke-linecap="round" stroke-linejoin="round"/>
<path d="M72.4 120.5 L69.5 137.4 L70.3 153.4 L67.4 167.6" fill="none" stroke="#fcf7e8" stroke-width="6.4" opacity="0.92" stroke-linecap="round" stroke-linejoin="round"/>
<path d="M276.5 143 L290.5 108.2 L285.3 104.9" fill="none" stroke="#fcf7e8" stroke-width="6.4" opacity="0.92" stroke-linecap="round" stroke-linejoin="round"/>
<path d="M245 215.5 L252.9 207.3 L263.5 180.4" fill="none" stroke="#fcf7e8" stroke-width="6.4" opacity="0.92" stroke-linecap="round" stroke-linejoin="round"/>
<path d="M291 18 L281.7 55.4" fill="none" stroke="#fcf7e8" stroke-width="6.4" opacity="0.92" stroke-linecap="round" stroke-linejoin="round"/>
<path d="M264.4 179.8 L248.5 215.4" fill="none" stroke="#fcf7e8" stroke-width="6.4" opacity="0.92" stroke-linecap="round" stroke-linejoin="round"/>
<path d="M189.6 104.8 L193.7 115.1 L193.9 141.9" fill="none" stroke="#fcf7e8" stroke-width="6.4" opacity="0.92" stroke-linecap="round" stroke-linejoin="round"/>
<path d="M70.8 117.9 L66.6 121.1 L47.3 125 L25.4 122.5" fill="none" stroke="#fcf7e8" stroke-width="6.4" opacity="0.92" stroke-linecap="round" stroke-linejoin="round"/>
<path d="M281.4 55 L289.7 21.4" fill="none" stroke="#fcf7e8" stroke-width="6.4" opacity="0.92" stroke-linecap="round" stroke-linejoin="round"/>
<path d="M274.5 88 L281.4 55" fill="none" stroke="#fcf7e8" stroke-width="6.4" opacity="0.92" stroke-linecap="round" stroke-linejoin="round"/>
<path d="M281.7 55.4 L275.2 87.6" fill="none" stroke="#fcf7e8" stroke-width="6.4" opacity="0.92" stroke-linecap="round" stroke-linejoin="round"/>
<path d="M100.5 193.8 L142.3 187.7" fill="none" stroke="#fcf7e8" stroke-width="6.4" opacity="0.92" stroke-linecap="round" stroke-linejoin="round"/>
<path d="M142.1 188.1 L100.7 194.1" fill="none" stroke="#fcf7e8" stroke-width="6.4" opacity="0.92" stroke-linecap="round" stroke-linejoin="round"/>
<path d="M225.9 196.7 L200 216" fill="none" stroke="#fcf7e8" stroke-width="6.4" opacity="0.92" stroke-linecap="round" stroke-linejoin="round"/>
<path d="M286.6 105.2 L252.8 95.5" fill="none" stroke="#fcf7e8" stroke-width="6.4" opacity="0.92" stroke-linecap="round" stroke-linejoin="round"/>
<path d="M38.5 198.7 L73.7 195.1" fill="none" stroke="#fcf7e8" stroke-width="6.4" opacity="0.92" stroke-linecap="round" stroke-linejoin="round"/>
<path d="M228 194.2 L234.5 203.4 L248.5 215.4" fill="none" stroke="#fcf7e8" stroke-width="6.4" opacity="0.92" stroke-linecap="round" stroke-linejoin="round"/>
<path d="M90.7 34.3 L83.8 29.3 L59.9 22.5" fill="none" stroke="#fcf7e8" stroke-width="6.4" opacity="0.92" stroke-linecap="round" stroke-linejoin="round"/>
<path d="M158.7 81.3 L136.1 61.1" fill="none" stroke="#fcf7e8" stroke-width="6.4" opacity="0.92" stroke-linecap="round" stroke-linejoin="round"/>
<path d="M77.6 294.6 L104.3 277.8" fill="none" stroke="#fcf7e8" stroke-width="6.4" opacity="0.92" stroke-linecap="round" stroke-linejoin="round"/>
<path d="M144.9 59.1 L145.2 69.4 L159 81.1" fill="none" stroke="#fcf7e8" stroke-width="6.4" opacity="0.92" stroke-linecap="round" stroke-linejoin="round"/>
<path d="M72.4 195.5 L38.5 199.1" fill="none" stroke="#fcf7e8" stroke-width="6.4" opacity="0.92" stroke-linecap="round" stroke-linejoin="round"/>
<path d="M201.9 213.8 L225.6 196.5" fill="none" stroke="#fcf7e8" stroke-width="6.4" opacity="0.92" stroke-linecap="round" stroke-linejoin="round"/>
<path d="M81.6 94.4 L70.8 117.9" fill="none" stroke="#fcf7e8" stroke-width="6.4" opacity="0.92" stroke-linecap="round" stroke-linejoin="round"/>
<path d="M245 215.5 L244.7 212.4 L234.5 203.9 L228.1 194.9" fill="none" stroke="#fcf7e8" stroke-width="6.4" opacity="0.92" stroke-linecap="round" stroke-linejoin="round"/>
<path d="M48.1 262.8 L52.5 267.8 L59.7 284.2" fill="none" stroke="#fcf7e8" stroke-width="6.4" opacity="0.92" stroke-linecap="round" stroke-linejoin="round"/>
<path d="M142.3 187.7 L171.6 187" fill="none" stroke="#fcf7e8" stroke-width="6.4" opacity="0.92" stroke-linecap="round" stroke-linejoin="round"/>
<path d="M154.4 246.9 L132.2 260.8" fill="none" stroke="#fcf7e8" stroke-width="6.4" opacity="0.92" stroke-linecap="round" stroke-linejoin="round"/>
<path d="M170 100.8 L169.9 106.9 L159.1 119.5" fill="none" stroke="#fcf7e8" stroke-width="6.4" opacity="0.92" stroke-linecap="round" stroke-linejoin="round"/>
<path d="M158.8 119.4 L169.5 106.6 L169.4 100.8" fill="none" stroke="#fcf7e8" stroke-width="6.4" opacity="0.92" stroke-linecap="round" stroke-linejoin="round"/>
<path d="M170.2 187.7 L142.7 188" fill="none" stroke="#fcf7e8" stroke-width="6.4" opacity="0.92" stroke-linecap="round" stroke-linejoin="round"/>
<path d="M53.7 238 L53.3 258.1" fill="none" stroke="#fcf7e8" stroke-width="6.4" opacity="0.92" stroke-linecap="round" stroke-linejoin="round"/>
<path d="M25 122.1 L39.6 124.4 L51.3 123.6" fill="none" stroke="#fcf7e8" stroke-width="6.4" opacity="0.92" stroke-linecap="round" stroke-linejoin="round"/>
<path d="M58.1 86.4 L70.9 88.5 L82.5 93" fill="none" stroke="#fcf7e8" stroke-width="6.4" opacity="0.92" stroke-linecap="round" stroke-linejoin="round"/>
<path d="M82.3 93.4 L71.1 88.8 L58.1 86.7" fill="none" stroke="#fcf7e8" stroke-width="6.4" opacity="0.92" stroke-linecap="round" stroke-linejoin="round"/>
<path d="M118.2 269.5 L99.2 282.7" fill="none" stroke="#fcf7e8" stroke-width="6.4" opacity="0.92" stroke-linecap="round" stroke-linejoin="round"/>
<path d="M196.3 164.8 L200 183.2" fill="none" stroke="#fcf7e8" stroke-width="6.4" opacity="0.92" stroke-linecap="round" stroke-linejoin="round"/>
<path d="M193.7 146 L196.3 164.8" fill="none" stroke="#fcf7e8" stroke-width="6.4" opacity="0.92" stroke-linecap="round" stroke-linejoin="round"/>
<path d="M66.1 293.7 L42.8 297.4" fill="none" stroke="#fcf7e8" stroke-width="6.4" opacity="0.92" stroke-linecap="round" stroke-linejoin="round"/>
<path d="M190.8 222.2 L188 226.8 L176.5 236.1" fill="none" stroke="#fcf7e8" stroke-width="6.4" opacity="0.92" stroke-linecap="round" stroke-linejoin="round"/>
<path d="M248.5 215.4 L241.7 232.1" fill="none" stroke="#fcf7e8" stroke-width="6.4" opacity="0.92" stroke-linecap="round" stroke-linejoin="round"/>
<path d="M205.2 92.5 L215.8 90.4 L227.8 91" fill="none" stroke="#fcf7e8" stroke-width="6.4" opacity="0.92" stroke-linecap="round" stroke-linejoin="round"/>
<path d="M227.8 91.2 L216.1 90.7 L205.3 92.7" fill="none" stroke="#fcf7e8" stroke-width="6.4" opacity="0.92" stroke-linecap="round" stroke-linejoin="round"/>
<path d="M241 232 L245 215.5" fill="none" stroke="#fcf7e8" stroke-width="6.4" opacity="0.92" stroke-linecap="round" stroke-linejoin="round"/>
<path d="M26 232.7 L18 217.1" fill="none" stroke="#fcf7e8" stroke-width="6.4" opacity="0.92" stroke-linecap="round" stroke-linejoin="round"/>
<path d="M67.4 167.6 L89.1 169.5" fill="none" stroke="#fcf7e8" stroke-width="6.4" opacity="0.92" stroke-linecap="round" stroke-linejoin="round"/>
<path d="M63.2 184.3 L67.1 168" fill="none" stroke="#fcf7e8" stroke-width="6.4" opacity="0.92" stroke-linecap="round" stroke-linejoin="round"/>
<path d="M43.6 192.8 L62.7 185.4" fill="none" stroke="#fcf7e8" stroke-width="6.4" opacity="0.92" stroke-linecap="round" stroke-linejoin="round"/>
<path d="M65.9 293.4 L45.1 296.9" fill="none" stroke="#fcf7e8" stroke-width="6.4" opacity="0.92" stroke-linecap="round" stroke-linejoin="round"/>
<path d="M104.3 277.8 L120.5 267.4" fill="none" stroke="#fcf7e8" stroke-width="6.4" opacity="0.92" stroke-linecap="round" stroke-linejoin="round"/>
<path d="M252.9 94.9 L272.2 100.5" fill="none" stroke="#fcf7e8" stroke-width="6.4" opacity="0.92" stroke-linecap="round" stroke-linejoin="round"/>
<path d="M240.4 170 L234 173.3 L226.9 181.8" fill="none" stroke="#fcf7e8" stroke-width="6.4" opacity="0.92" stroke-linecap="round" stroke-linejoin="round"/>
<path d="M176 235.7 L188.9 223.4" fill="none" stroke="#fcf7e8" stroke-width="6.4" opacity="0.92" stroke-linecap="round" stroke-linejoin="round"/>
<path d="M18.2 217.1 L26 231.6" fill="none" stroke="#fcf7e8" stroke-width="6.4" opacity="0.92" stroke-linecap="round" stroke-linejoin="round"/>
<path d="M54.1 269.9 L60.3 284.6" fill="none" stroke="#fcf7e8" stroke-width="6.4" opacity="0.92" stroke-linecap="round" stroke-linejoin="round"/>
<path d="M295.9 93.9 L291 108.7" fill="none" stroke="#fcf7e8" stroke-width="6.4" opacity="0.92" stroke-linecap="round" stroke-linejoin="round"/>
<path d="M53.5 123.1 L68.5 120.3 L70.8 117.9" fill="none" stroke="#fcf7e8" stroke-width="6.4" opacity="0.92" stroke-linecap="round" stroke-linejoin="round"/>
<path d="M206.8 182.5 L226.4 181.4" fill="none" stroke="#fcf7e8" stroke-width="6.4" opacity="0.92" stroke-linecap="round" stroke-linejoin="round"/>
<path d="M38.8 244.6 L44.5 243.4 L48.5 238.1 L53.7 238" fill="none" stroke="#fcf7e8" stroke-width="6.4" opacity="0.92" stroke-linecap="round" stroke-linejoin="round"/>
<path d="M172.6 186.6 L191.3 184.1" fill="none" stroke="#fcf7e8" stroke-width="6.4" opacity="0.92" stroke-linecap="round" stroke-linejoin="round"/>
<path d="M127.1 44.3 L134.1 57.2" fill="none" stroke="#fcf7e8" stroke-width="6.4" opacity="0.92" stroke-linecap="round" stroke-linejoin="round"/>
<path d="M131.2 260.8 L145.4 251.7" fill="none" stroke="#fcf7e8" stroke-width="6.4" opacity="0.92" stroke-linecap="round" stroke-linejoin="round"/>
<path d="M270.5 156.1 L276.5 143" fill="none" stroke="#fcf7e8" stroke-width="6.4" opacity="0.92" stroke-linecap="round" stroke-linejoin="round"/>
<path d="M274.1 89.3 L283.8 88.3 L291.7 90.6" fill="none" stroke="#fcf7e8" stroke-width="6.4" opacity="0.92" stroke-linecap="round" stroke-linejoin="round"/>
<path d="M258.1 170.1 L263.6 168.5 L268 160.3" fill="none" stroke="#fcf7e8" stroke-width="6.4" opacity="0.92" stroke-linecap="round" stroke-linejoin="round"/>
<path d="M202 93.6 L185 97.1" fill="none" stroke="#fcf7e8" stroke-width="6.4" opacity="0.92" stroke-linecap="round" stroke-linejoin="round"/>
<path d="M257.8 170.6 L240.4 170" fill="none" stroke="#fcf7e8" stroke-width="6.4" opacity="0.92" stroke-linecap="round" stroke-linejoin="round"/>
</g>
<g data-layer="major-road">
<path d="M198.4 183.4 L193.5 149 L193.1 113.5 L184.7 97.3" fill="none" stroke="#1f3733" stroke-width="2.7" opacity="0.9" stroke-linecap="round" stroke-linejoin="round"/>
<path d="M219.8 315.7 L239.3 237.3" fill="none" stroke="#1f3733" stroke-width="2.7" opacity="0.9" stroke-linecap="round" stroke-linejoin="round"/>
<path d="M240 237.4 L228.3 278.3 L220.5 315.7" fill="none" stroke="#1f3733" stroke-width="2.7" opacity="0.9" stroke-linecap="round" stroke-linejoin="round"/>
<path d="M35.2 74.3 L32.1 70.4 L35.8 50.6 L28 49.5 L27.1 47.9 L28.2 31.3 L25.1 19.4" fill="none" stroke="#1f3733" stroke-width="2.7" opacity="0.9" stroke-linecap="round" stroke-linejoin="round"/>
<path d="M60.2 22.2 L84.2 29.2 L100.2 38.1 L123.4 41.7 L127.1 44.3" fill="none" stroke="#1f3733" stroke-width="2.7" opacity="0.9" stroke-linecap="round" stroke-linejoin="round"/>
<path d="M291 108.7 L270.9 156.2" fill="none" stroke="#1f3733" stroke-width="2.7" opacity="0.9" stroke-linecap="round" stroke-linejoin="round"/>
<path d="M72.4 120.5 L69.5 137.4 L70.3 153.4 L67.4 167.6" fill="none" stroke="#1f3733" stroke-width="2.7" opacity="0.9" stroke-linecap="round" stroke-linejoin="round"/>
<path d="M276.5 143 L290.5 108.2 L285.3 104.9" fill="none" stroke="#1f3733" stroke-width="2.7" opacity="0.9" stroke-linecap="round" stroke-linejoin="round"/>
<path d="M245 215.5 L252.9 207.3 L263.5 180.4" fill="none" stroke="#1f3733" stroke-width="2.7" opacity="0.9" stroke-linecap="round" stroke-linejoin="round"/>
<path d="M291 18 L281.7 55.4" fill="none" stroke="#1f3733" stroke-width="2.7" opacity="0.9" stroke-linecap="round" stroke-linejoin="round"/>
<path d="M264.4 179.8 L248.5 215.4" fill="none" stroke="#1f3733" stroke-width="2.7" opacity="0.9" stroke-linecap="round" stroke-linejoin="round"/>
<path d="M189.6 104.8 L193.7 115.1 L193.9 141.9" fill="none" stroke="#1f3733" stroke-width="2.7" opacity="0.9" stroke-linecap="round" stroke-linejoin="round"/>
<path d="M70.8 117.9 L66.6 121.1 L47.3 125 L25.4 122.5" fill="none" stroke="#1f3733" stroke-width="2.7" opacity="0.9" stroke-linecap="round" stroke-linejoin="round"/>
<path d="M281.4 55 L289.7 21.4" fill="none" stroke="#1f3733" stroke-width="2.7" opacity="0.9" stroke-linecap="round" stroke-linejoin="round"/>
<path d="M274.5 88 L281.4 55" fill="none" stroke="#1f3733" stroke-width="2.7" opacity="0.9" stroke-linecap="round" stroke-linejoin="round"/>
<path d="M281.7 55.4 L275.2 87.6" fill="none" stroke="#1f3733" stroke-width="2.7" opacity="0.9" stroke-linecap="round" stroke-linejoin="round"/>
<path d="M100.5 193.8 L142.3 187.7" fill="none" stroke="#1f3733" stroke-width="2.7" opacity="0.9" stroke-linecap="round" stroke-linejoin="round"/>
<path d="M142.1 188.1 L100.7 194.1" fill="none" stroke="#1f3733" stroke-width="2.7" opacity="0.9" stroke-linecap="round" stroke-linejoin="round"/>
<path d="M225.9 196.7 L200 216" fill="none" stroke="#1f3733" stroke-width="2.7" opacity="0.9" stroke-linecap="round" stroke-linejoin="round"/>
<path d="M286.6 105.2 L252.8 95.5" fill="none" stroke="#1f3733" stroke-width="2.7" opacity="0.9" stroke-linecap="round" stroke-linejoin="round"/>
<path d="M38.5 198.7 L73.7 195.1" fill="none" stroke="#1f3733" stroke-width="2.7" opacity="0.9" stroke-linecap="round" stroke-linejoin="round"/>
<path d="M228 194.2 L234.5 203.4 L248.5 215.4" fill="none" stroke="#1f3733" stroke-width="2.7" opacity="0.9" stroke-linecap="round" stroke-linejoin="round"/>
<path d="M90.7 34.3 L83.8 29.3 L59.9 22.5" fill="none" stroke="#1f3733" stroke-width="2.7" opacity="0.9" stroke-linecap="round" stroke-linejoin="round"/>
<path d="M158.7 81.3 L136.1 61.1" fill="none" stroke="#1f3733" stroke-width="2.7" opacity="0.9" stroke-linecap="round" stroke-linejoin="round"/>
<path d="M77.6 294.6 L104.3 277.8" fill="none" stroke="#1f3733" stroke-width="2.7" opacity="0.9" stroke-linecap="round" stroke-linejoin="round"/>
<path d="M144.9 59.1 L145.2 69.4 L159 81.1" fill="none" stroke="#1f3733" stroke-width="2.7" opacity="0.9" stroke-linecap="round" stroke-linejoin="round"/>
<path d="M72.4 195.5 L38.5 199.1" fill="none" stroke="#1f3733" stroke-width="2.7" opacity="0.9" stroke-linecap="round" stroke-linejoin="round"/>
<path d="M201.9 213.8 L225.6 196.5" fill="none" stroke="#1f3733" stroke-width="2.7" opacity="0.9" stroke-linecap="round" stroke-linejoin="round"/>
<path d="M81.6 94.4 L70.8 117.9" fill="none" stroke="#1f3733" stroke-width="2.7" opacity="0.9" stroke-linecap="round" stroke-linejoin="round"/>
<path d="M245 215.5 L244.7 212.4 L234.5 203.9 L228.1 194.9" fill="none" stroke="#1f3733" stroke-width="2.7" opacity="0.9" stroke-linecap="round" stroke-linejoin="round"/>
<path d="M48.1 262.8 L52.5 267.8 L59.7 284.2" fill="none" stroke="#1f3733" stroke-width="2.7" opacity="0.9" stroke-linecap="round" stroke-linejoin="round"/>
<path d="M142.3 187.7 L171.6 187" fill="none" stroke="#1f3733" stroke-width="2.7" opacity="0.9" stroke-linecap="round" stroke-linejoin="round"/>
<path d="M154.4 246.9 L132.2 260.8" fill="none" stroke="#1f3733" stroke-width="2.7" opacity="0.9" stroke-linecap="round" stroke-linejoin="round"/>
<path d="M170 100.8 L169.9 106.9 L159.1 119.5" fill="none" stroke="#1f3733" stroke-width="2.7" opacity="0.9" stroke-linecap="round" stroke-linejoin="round"/>
<path d="M158.8 119.4 L169.5 106.6 L169.4 100.8" fill="none" stroke="#1f3733" stroke-width="2.7" opacity="0.9" stroke-linecap="round" stroke-linejoin="round"/>
<path d="M170.2 187.7 L142.7 188" fill="none" stroke="#1f3733" stroke-width="2.7" opacity="0.9" stroke-linecap="round" stroke-linejoin="round"/>
<path d="M53.7 238 L53.3 258.1" fill="none" stroke="#1f3733" stroke-width="2.7" opacity="0.9" stroke-linecap="round" stroke-linejoin="round"/>
<path d="M25 122.1 L39.6 124.4 L51.3 123.6" fill="none" stroke="#1f3733" stroke-width="2.7" opacity="0.9" stroke-linecap="round" stroke-linejoin="round"/>
<path d="M58.1 86.4 L70.9 88.5 L82.5 93" fill="none" stroke="#1f3733" stroke-width="2.7" opacity="0.9" stroke-linecap="round" stroke-linejoin="round"/>
<path d="M82.3 93.4 L71.1 88.8 L58.1 86.7" fill="none" stroke="#1f3733" stroke-width="2.7" opacity="0.9" stroke-linecap="round" stroke-linejoin="round"/>
<path d="M118.2 269.5 L99.2 282.7" fill="none" stroke="#1f3733" stroke-width="2.7" opacity="0.9" stroke-linecap="round" stroke-linejoin="round"/>
<path d="M196.3 164.8 L200 183.2" fill="none" stroke="#1f3733" stroke-width="2.7" opacity="0.9" stroke-linecap="round" stroke-linejoin="round"/>
<path d="M193.7 146 L196.3 164.8" fill="none" stroke="#1f3733" stroke-width="2.7" opacity="0.9" stroke-linecap="round" stroke-linejoin="round"/>
<path d="M66.1 293.7 L42.8 297.4" fill="none" stroke="#1f3733" stroke-width="2.7" opacity="0.9" stroke-linecap="round" stroke-linejoin="round"/>
<path d="M190.8 222.2 L188 226.8 L176.5 236.1" fill="none" stroke="#1f3733" stroke-width="2.7" opacity="0.9" stroke-linecap="round" stroke-linejoin="round"/>
<path d="M248.5 215.4 L241.7 232.1" fill="none" stroke="#1f3733" stroke-width="2.7" opacity="0.9" stroke-linecap="round" stroke-linejoin="round"/>
<path d="M205.2 92.5 L215.8 90.4 L227.8 91" fill="none" stroke="#1f3733" stroke-width="2.7" opacity="0.9" stroke-linecap="round" stroke-linejoin="round"/>
<path d="M227.8 91.2 L216.1 90.7 L205.3 92.7" fill="none" stroke="#1f3733" stroke-width="2.7" opacity="0.9" stroke-linecap="round" stroke-linejoin="round"/>
<path d="M241 232 L245 215.5" fill="none" stroke="#1f3733" stroke-width="2.7" opacity="0.9" stroke-linecap="round" stroke-linejoin="round"/>
<path d="M26 232.7 L18 217.1" fill="none" stroke="#1f3733" stroke-width="2.7" opacity="0.9" stroke-linecap="round" stroke-linejoin="round"/>
<path d="M67.4 167.6 L89.1 169.5" fill="none" stroke="#1f3733" stroke-width="2.7" opacity="0.9" stroke-linecap="round" stroke-linejoin="round"/>
<path d="M63.2 184.3 L67.1 168" fill="none" stroke="#1f3733" stroke-width="2.7" opacity="0.9" stroke-linecap="round" stroke-linejoin="round"/>
<path d="M43.6 192.8 L62.7 185.4" fill="none" stroke="#1f3733" stroke-width="2.7" opacity="0.9" stroke-linecap="round" stroke-linejoin="round"/>
<path d="M65.9 293.4 L45.1 296.9" fill="none" stroke="#1f3733" stroke-width="2.7" opacity="0.9" stroke-linecap="round" stroke-linejoin="round"/>
<path d="M104.3 277.8 L120.5 267.4" fill="none" stroke="#1f3733" stroke-width="2.7" opacity="0.9" stroke-linecap="round" stroke-linejoin="round"/>
<path d="M252.9 94.9 L272.2 100.5" fill="none" stroke="#1f3733" stroke-width="2.7" opacity="0.9" stroke-linecap="round" stroke-linejoin="round"/>
<path d="M240.4 170 L234 173.3 L226.9 181.8" fill="none" stroke="#1f3733" stroke-width="2.7" opacity="0.9" stroke-linecap="round" stroke-linejoin="round"/>
<path d="M176 235.7 L188.9 223.4" fill="none" stroke="#1f3733" stroke-width="2.7" opacity="0.9" stroke-linecap="round" stroke-linejoin="round"/>
<path d="M18.2 217.1 L26 231.6" fill="none" stroke="#1f3733" stroke-width="2.7" opacity="0.9" stroke-linecap="round" stroke-linejoin="round"/>
<path d="M54.1 269.9 L60.3 284.6" fill="none" stroke="#1f3733" stroke-width="2.7" opacity="0.9" stroke-linecap="round" stroke-linejoin="round"/>
<path d="M295.9 93.9 L291 108.7" fill="none" stroke="#1f3733" stroke-width="2.7" opacity="0.9" stroke-linecap="round" stroke-linejoin="round"/>
<path d="M53.5 123.1 L68.5 120.3 L70.8 117.9" fill="none" stroke="#1f3733" stroke-width="2.7" opacity="0.9" stroke-linecap="round" stroke-linejoin="round"/>
<path d="M206.8 182.5 L226.4 181.4" fill="none" stroke="#1f3733" stroke-width="2.7" opacity="0.9" stroke-linecap="round" stroke-linejoin="round"/>
<path d="M38.8 244.6 L44.5 243.4 L48.5 238.1 L53.7 238" fill="none" stroke="#1f3733" stroke-width="2.7" opacity="0.9" stroke-linecap="round" stroke-linejoin="round"/>
<path d="M172.6 186.6 L191.3 184.1" fill="none" stroke="#1f3733" stroke-width="2.7" opacity="0.9" stroke-linecap="round" stroke-linejoin="round"/>
<path d="M127.1 44.3 L134.1 57.2" fill="none" stroke="#1f3733" stroke-width="2.7" opacity="0.9" stroke-linecap="round" stroke-linejoin="round"/>
<path d="M131.2 260.8 L145.4 251.7" fill="none" stroke="#1f3733" stroke-width="2.7" opacity="0.9" stroke-linecap="round" stroke-linejoin="round"/>
<path d="M270.5 156.1 L276.5 143" fill="none" stroke="#1f3733" stroke-width="2.7" opacity="0.9" stroke-linecap="round" stroke-linejoin="round"/>
<path d="M274.1 89.3 L283.8 88.3 L291.7 90.6" fill="none" stroke="#1f3733" stroke-width="2.7" opacity="0.9" stroke-linecap="round" stroke-linejoin="round"/>
<path d="M258.1 170.1 L263.6 168.5 L268 160.3" fill="none" stroke="#1f3733" stroke-width="2.7" opacity="0.9" stroke-linecap="round" stroke-linejoin="round"/>
<path d="M202 93.6 L185 97.1" fill="none" stroke="#1f3733" stroke-width="2.7" opacity="0.9" stroke-linecap="round" stroke-linejoin="round"/>
<path d="M257.8 170.6 L240.4 170" fill="none" stroke="#1f3733" stroke-width="2.7" opacity="0.9" stroke-linecap="round" stroke-linejoin="round"/>
</g>
<g data-layer="minor-road-casing">
<path d="M217.1 90.4 L218.3 115.7 L214.8 140.7" fill="none" stroke="#fbf7eb" stroke-width="3.4" opacity="0.62" stroke-linecap="round" stroke-linejoin="round"/>
<path d="M148.4 275.5 L176.4 271.9 L203.9 276.2" fill="none" stroke="#fbf7eb" stroke-width="3.4" opacity="0.62" stroke-linecap="round" stroke-linejoin="round"/>
<path d="M264.2 50.8 L276.6 23.8 L277 13" fill="none" stroke="#fbf7eb" stroke-width="3.4" opacity="0.62" stroke-linecap="round" stroke-linejoin="round"/>
<path d="M57 62.4 L27.3 60.3 L8 62.2" fill="none" stroke="#fbf7eb" stroke-width="3.4" opacity="0.62" stroke-linecap="round" stroke-linejoin="round"/>
<path d="M163.8 236.7 L165.1 232.3 L162.2 225.1 L149.1 213.6 L148.4 205.6" fill="none" stroke="#fbf7eb" stroke-width="3.4" opacity="0.62" stroke-linecap="round" stroke-linejoin="round"/>
<path d="M229.8 238.5 L219.8 238.3 L189.8 223.8" fill="none" stroke="#fbf7eb" stroke-width="3.4" opacity="0.62" stroke-linecap="round" stroke-linejoin="round"/>
<path d="M190 223.3 L219.2 237.4 L229.8 238.1" fill="none" stroke="#fbf7eb" stroke-width="3.4" opacity="0.62" stroke-linecap="round" stroke-linejoin="round"/>
<path d="M159.1 235.9 L151.9 239.5 L136.3 240.7 L119.2 245" fill="none" stroke="#fbf7eb" stroke-width="3.4" opacity="0.62" stroke-linecap="round" stroke-linejoin="round"/>
<path d="M269.6 221.7 L260.5 235.8 L243.1 231.3" fill="none" stroke="#fbf7eb" stroke-width="3.4" opacity="0.62" stroke-linecap="round" stroke-linejoin="round"/>
<path d="M143 209.3 L144.4 214.6 L158.3 226.6 L160 233.5" fill="none" stroke="#fbf7eb" stroke-width="3.4" opacity="0.62" stroke-linecap="round" stroke-linejoin="round"/>
<path d="M87.7 257.2 L86.5 274.9 L92.8 284" fill="none" stroke="#fbf7eb" stroke-width="3.4" opacity="0.62" stroke-linecap="round" stroke-linejoin="round"/>
<path d="M51.2 115.9 L50 103.5 L43 92.9" fill="none" stroke="#fbf7eb" stroke-width="3.4" opacity="0.62" stroke-linecap="round" stroke-linejoin="round"/>
<path d="M118.6 102 L151 104.5" fill="none" stroke="#fbf7eb" stroke-width="3.4" opacity="0.62" stroke-linecap="round" stroke-linejoin="round"/>
<path d="M209 252.3 L203.9 276.2" fill="none" stroke="#fbf7eb" stroke-width="3.4" opacity="0.62" stroke-linecap="round" stroke-linejoin="round"/>
<path d="M81 293.3 L92.6 304.3 L103 309.6" fill="none" stroke="#fbf7eb" stroke-width="3.4" opacity="0.62" stroke-linecap="round" stroke-linejoin="round"/>
<path d="M203.2 62 L203.1 49.4 L207.7 39.4" fill="none" stroke="#fbf7eb" stroke-width="3.4" opacity="0.62" stroke-linecap="round" stroke-linejoin="round"/>
<path d="M171.9 272.8 L168.8 286.8 L164.4 295" fill="none" stroke="#fbf7eb" stroke-width="3.4" opacity="0.62" stroke-linecap="round" stroke-linejoin="round"/>
<path d="M169.5 195.4 L179.2 199.7 L184.3 213.5" fill="none" stroke="#fbf7eb" stroke-width="3.4" opacity="0.62" stroke-linecap="round" stroke-linejoin="round"/>
<path d="M77.9 103.7 L48.2 99" fill="none" stroke="#fbf7eb" stroke-width="3.4" opacity="0.62" stroke-linecap="round" stroke-linejoin="round"/>
<path d="M58.3 15.9 L86.7 10.7" fill="none" stroke="#fbf7eb" stroke-width="3.4" opacity="0.62" stroke-linecap="round" stroke-linejoin="round"/>
<path d="M81.7 292.3 L74.6 284.4 L75.2 272" fill="none" stroke="#fbf7eb" stroke-width="3.4" opacity="0.62" stroke-linecap="round" stroke-linejoin="round"/>
<path d="M145 169.7 L147.2 148.2" fill="none" stroke="#fbf7eb" stroke-width="3.4" opacity="0.62" stroke-linecap="round" stroke-linejoin="round"/>
<path d="M57.4 60.2 L54.2 80.1" fill="none" stroke="#fbf7eb" stroke-width="3.4" opacity="0.62" stroke-linecap="round" stroke-linejoin="round"/>
<path d="M133.5 143 L133.9 140.6 L130.4 139.5 L127.9 125.1" fill="none" stroke="#fbf7eb" stroke-width="3.4" opacity="0.62" stroke-linecap="round" stroke-linejoin="round"/>
<path d="M222.4 167.8 L196.3 164.8" fill="none" stroke="#fbf7eb" stroke-width="3.4" opacity="0.62" stroke-linecap="round" stroke-linejoin="round"/>
<path d="M133.6 244.5 L159.1 242.1" fill="none" stroke="#fbf7eb" stroke-width="3.4" opacity="0.62" stroke-linecap="round" stroke-linejoin="round"/>
<path d="M113.5 117.8 L88.5 114.5" fill="none" stroke="#fbf7eb" stroke-width="3.4" opacity="0.62" stroke-linecap="round" stroke-linejoin="round"/>
<path d="M118.7 82.4 L144.2 83.6" fill="none" stroke="#fbf7eb" stroke-width="3.4" opacity="0.62" stroke-linecap="round" stroke-linejoin="round"/>
<path d="M119.2 149.7 L142.9 150.8" fill="none" stroke="#fbf7eb" stroke-width="3.4" opacity="0.62" stroke-linecap="round" stroke-linejoin="round"/>
<path d="M164.4 295 L161.3 311.9" fill="none" stroke="#fbf7eb" stroke-width="3.4" opacity="0.62" stroke-linecap="round" stroke-linejoin="round"/>
<path d="M109.4 148.2 L87.2 150.7" fill="none" stroke="#fbf7eb" stroke-width="3.4" opacity="0.62" stroke-linecap="round" stroke-linejoin="round"/>
<path d="M16.5 102 L14.6 97.6 L16.6 85.7" fill="none" stroke="#fbf7eb" stroke-width="3.4" opacity="0.62" stroke-linecap="round" stroke-linejoin="round"/>
<path d="M119.5 164.7 L108.4 163.8 L97.9 166" fill="none" stroke="#fbf7eb" stroke-width="3.4" opacity="0.62" stroke-linecap="round" stroke-linejoin="round"/>
<path d="M40.9 169.6 L47.8 176.8 L46.2 184.2" fill="none" stroke="#fbf7eb" stroke-width="3.4" opacity="0.62" stroke-linecap="round" stroke-linejoin="round"/>
<path d="M119.7 242.7 L121.5 226.4" fill="none" stroke="#fbf7eb" stroke-width="3.4" opacity="0.62" stroke-linecap="round" stroke-linejoin="round"/>
<path d="M78.7 62.4 L57.4 60.2" fill="none" stroke="#fbf7eb" stroke-width="3.4" opacity="0.62" stroke-linecap="round" stroke-linejoin="round"/>
<path d="M212.3 153.6 L193.7 146" fill="none" stroke="#fbf7eb" stroke-width="3.4" opacity="0.62" stroke-linecap="round" stroke-linejoin="round"/>
<path d="M110.3 137.9 L128.4 137.9 L130.4 139.5" fill="none" stroke="#fbf7eb" stroke-width="3.4" opacity="0.62" stroke-linecap="round" stroke-linejoin="round"/>
<path d="M54.1 59.4 L34.2 55.3" fill="none" stroke="#fbf7eb" stroke-width="3.4" opacity="0.62" stroke-linecap="round" stroke-linejoin="round"/>
<path d="M167 163.2 L146.1 161.7" fill="none" stroke="#fbf7eb" stroke-width="3.4" opacity="0.62" stroke-linecap="round" stroke-linejoin="round"/>
<path d="M63 302.9 L57.8 300.5 L43 300.2" fill="none" stroke="#fbf7eb" stroke-width="3.4" opacity="0.62" stroke-linecap="round" stroke-linejoin="round"/>
<path d="M121.5 255.3 L124.2 248.3 L133.6 244.5" fill="none" stroke="#fbf7eb" stroke-width="3.4" opacity="0.62" stroke-linecap="round" stroke-linejoin="round"/>
<path d="M125.9 71 L139.3 71.8 L143.9 69.4" fill="none" stroke="#fbf7eb" stroke-width="3.4" opacity="0.62" stroke-linecap="round" stroke-linejoin="round"/>
<path d="M8.6 25.3 L28 29" fill="none" stroke="#fbf7eb" stroke-width="3.4" opacity="0.62" stroke-linecap="round" stroke-linejoin="round"/>
<path d="M162.5 84.2 L148.5 73.7" fill="none" stroke="#fbf7eb" stroke-width="3.4" opacity="0.62" stroke-linecap="round" stroke-linejoin="round"/>
<path d="M271.9 101.9 L268.5 116.5" fill="none" stroke="#fbf7eb" stroke-width="3.4" opacity="0.62" stroke-linecap="round" stroke-linejoin="round"/>
<path d="M90.7 160.5 L86.5 146.2" fill="none" stroke="#fbf7eb" stroke-width="3.4" opacity="0.62" stroke-linecap="round" stroke-linejoin="round"/>
<path d="M130 277.8 L128.1 263.4" fill="none" stroke="#fbf7eb" stroke-width="3.4" opacity="0.62" stroke-linecap="round" stroke-linejoin="round"/>
<path d="M134.5 57.2 L144.5 68.7" fill="none" stroke="#fbf7eb" stroke-width="3.4" opacity="0.62" stroke-linecap="round" stroke-linejoin="round"/>
<path d="M102.1 74.5 L101.6 60.7" fill="none" stroke="#fbf7eb" stroke-width="3.4" opacity="0.62" stroke-linecap="round" stroke-linejoin="round"/>
<path d="M143.8 90.3 L143.2 104.1" fill="none" stroke="#fbf7eb" stroke-width="3.4" opacity="0.62" stroke-linecap="round" stroke-linejoin="round"/>
<path d="M149.6 73.5 L162.3 83.5" fill="none" stroke="#fbf7eb" stroke-width="3.4" opacity="0.62" stroke-linecap="round" stroke-linejoin="round"/>
<path d="M147.8 150.1 L146.4 147.4 L133.5 143" fill="none" stroke="#fbf7eb" stroke-width="3.4" opacity="0.62" stroke-linecap="round" stroke-linejoin="round"/>
<path d="M169.3 195.8 L165.5 208.9" fill="none" stroke="#fbf7eb" stroke-width="3.4" opacity="0.62" stroke-linecap="round" stroke-linejoin="round"/>
<path d="M10.9 44.8 L16.2 45 L16.8 43.1 L26.4 44.3" fill="none" stroke="#fbf7eb" stroke-width="3.4" opacity="0.62" stroke-linecap="round" stroke-linejoin="round"/>
<path d="M243.5 145.8 L226.7 142" fill="none" stroke="#fbf7eb" stroke-width="3.4" opacity="0.62" stroke-linecap="round" stroke-linejoin="round"/>
<path d="M8 232.6 L25.6 232.7" fill="none" stroke="#fbf7eb" stroke-width="3.4" opacity="0.62" stroke-linecap="round" stroke-linejoin="round"/>
<path d="M144.9 57 L144.8 70.1" fill="none" stroke="#fbf7eb" stroke-width="3.4" opacity="0.62" stroke-linecap="round" stroke-linejoin="round"/>
<path d="M169.5 195.4 L159.7 193.4 L153.3 195.8" fill="none" stroke="#fbf7eb" stroke-width="3.4" opacity="0.62" stroke-linecap="round" stroke-linejoin="round"/>
<path d="M239.1 169.9 L222.4 167.8" fill="none" stroke="#fbf7eb" stroke-width="3.4" opacity="0.62" stroke-linecap="round" stroke-linejoin="round"/>
<path d="M47.9 177.1 L64.6 178.4" fill="none" stroke="#fbf7eb" stroke-width="3.4" opacity="0.62" stroke-linecap="round" stroke-linejoin="round"/>
<path d="M46.2 184.2 L62.7 185.4" fill="none" stroke="#fbf7eb" stroke-width="3.4" opacity="0.62" stroke-linecap="round" stroke-linejoin="round"/>
<path d="M143.9 69.4 L134.6 59.4" fill="none" stroke="#fbf7eb" stroke-width="3.4" opacity="0.62" stroke-linecap="round" stroke-linejoin="round"/>
<path d="M190.7 311 L194.4 299.5" fill="none" stroke="#fbf7eb" stroke-width="3.4" opacity="0.62" stroke-linecap="round" stroke-linejoin="round"/>
<path d="M79.1 55.9 L78.4 67.7" fill="none" stroke="#fbf7eb" stroke-width="3.4" opacity="0.62" stroke-linecap="round" stroke-linejoin="round"/>
<path d="M251 124.7 L266.4 126.6" fill="none" stroke="#fbf7eb" stroke-width="3.4" opacity="0.62" stroke-linecap="round" stroke-linejoin="round"/>
<path d="M92.8 22.3 L90.7 34" fill="none" stroke="#fbf7eb" stroke-width="3.4" opacity="0.62" stroke-linecap="round" stroke-linejoin="round"/>
<path d="M144.5 68.8 L144.9 57" fill="none" stroke="#fbf7eb" stroke-width="3.4" opacity="0.62" stroke-linecap="round" stroke-linejoin="round"/>
<path d="M151.3 187.7 L150.5 176" fill="none" stroke="#fbf7eb" stroke-width="3.4" opacity="0.62" stroke-linecap="round" stroke-linejoin="round"/>
<path d="M25.3 84.6 L40.9 83.9" fill="none" stroke="#fbf7eb" stroke-width="3.4" opacity="0.62" stroke-linecap="round" stroke-linejoin="round"/>
</g>
<g data-layer="minor-road">
<path d="M217.1 90.4 L218.3 115.7 L214.8 140.7" fill="none" stroke="#69776e" stroke-width="1.25" opacity="0.58" stroke-linecap="round" stroke-linejoin="round"/>
<path d="M148.4 275.5 L176.4 271.9 L203.9 276.2" fill="none" stroke="#69776e" stroke-width="1.25" opacity="0.58" stroke-linecap="round" stroke-linejoin="round"/>
<path d="M264.2 50.8 L276.6 23.8 L277 13" fill="none" stroke="#69776e" stroke-width="1.25" opacity="0.58" stroke-linecap="round" stroke-linejoin="round"/>
<path d="M57 62.4 L27.3 60.3 L8 62.2" fill="none" stroke="#69776e" stroke-width="1.25" opacity="0.58" stroke-linecap="round" stroke-linejoin="round"/>
<path d="M163.8 236.7 L165.1 232.3 L162.2 225.1 L149.1 213.6 L148.4 205.6" fill="none" stroke="#69776e" stroke-width="1.25" opacity="0.58" stroke-linecap="round" stroke-linejoin="round"/>
<path d="M229.8 238.5 L219.8 238.3 L189.8 223.8" fill="none" stroke="#69776e" stroke-width="1.25" opacity="0.58" stroke-linecap="round" stroke-linejoin="round"/>
<path d="M190 223.3 L219.2 237.4 L229.8 238.1" fill="none" stroke="#69776e" stroke-width="1.25" opacity="0.58" stroke-linecap="round" stroke-linejoin="round"/>
<path d="M159.1 235.9 L151.9 239.5 L136.3 240.7 L119.2 245" fill="none" stroke="#69776e" stroke-width="1.25" opacity="0.58" stroke-linecap="round" stroke-linejoin="round"/>
<path d="M269.6 221.7 L260.5 235.8 L243.1 231.3" fill="none" stroke="#69776e" stroke-width="1.25" opacity="0.58" stroke-linecap="round" stroke-linejoin="round"/>
<path d="M143 209.3 L144.4 214.6 L158.3 226.6 L160 233.5" fill="none" stroke="#69776e" stroke-width="1.25" opacity="0.58" stroke-linecap="round" stroke-linejoin="round"/>
<path d="M87.7 257.2 L86.5 274.9 L92.8 284" fill="none" stroke="#69776e" stroke-width="1.25" opacity="0.58" stroke-linecap="round" stroke-linejoin="round"/>
<path d="M51.2 115.9 L50 103.5 L43 92.9" fill="none" stroke="#69776e" stroke-width="1.25" opacity="0.58" stroke-linecap="round" stroke-linejoin="round"/>
<path d="M118.6 102 L151 104.5" fill="none" stroke="#69776e" stroke-width="1.25" opacity="0.58" stroke-linecap="round" stroke-linejoin="round"/>
<path d="M209 252.3 L203.9 276.2" fill="none" stroke="#69776e" stroke-width="1.25" opacity="0.58" stroke-linecap="round" stroke-linejoin="round"/>
<path d="M81 293.3 L92.6 304.3 L103 309.6" fill="none" stroke="#69776e" stroke-width="1.25" opacity="0.58" stroke-linecap="round" stroke-linejoin="round"/>
<path d="M203.2 62 L203.1 49.4 L207.7 39.4" fill="none" stroke="#69776e" stroke-width="1.25" opacity="0.58" stroke-linecap="round" stroke-linejoin="round"/>
<path d="M171.9 272.8 L168.8 286.8 L164.4 295" fill="none" stroke="#69776e" stroke-width="1.25" opacity="0.58" stroke-linecap="round" stroke-linejoin="round"/>
<path d="M169.5 195.4 L179.2 199.7 L184.3 213.5" fill="none" stroke="#69776e" stroke-width="1.25" opacity="0.58" stroke-linecap="round" stroke-linejoin="round"/>
<path d="M77.9 103.7 L48.2 99" fill="none" stroke="#69776e" stroke-width="1.25" opacity="0.58" stroke-linecap="round" stroke-linejoin="round"/>
<path d="M58.3 15.9 L86.7 10.7" fill="none" stroke="#69776e" stroke-width="1.25" opacity="0.58" stroke-linecap="round" stroke-linejoin="round"/>
<path d="M81.7 292.3 L74.6 284.4 L75.2 272" fill="none" stroke="#69776e" stroke-width="1.25" opacity="0.58" stroke-linecap="round" stroke-linejoin="round"/>
<path d="M145 169.7 L147.2 148.2" fill="none" stroke="#69776e" stroke-width="1.25" opacity="0.58" stroke-linecap="round" stroke-linejoin="round"/>
<path d="M57.4 60.2 L54.2 80.1" fill="none" stroke="#69776e" stroke-width="1.25" opacity="0.58" stroke-linecap="round" stroke-linejoin="round"/>
<path d="M133.5 143 L133.9 140.6 L130.4 139.5 L127.9 125.1" fill="none" stroke="#69776e" stroke-width="1.25" opacity="0.58" stroke-linecap="round" stroke-linejoin="round"/>
<path d="M222.4 167.8 L196.3 164.8" fill="none" stroke="#69776e" stroke-width="1.25" opacity="0.58" stroke-linecap="round" stroke-linejoin="round"/>
<path d="M133.6 244.5 L159.1 242.1" fill="none" stroke="#69776e" stroke-width="1.25" opacity="0.58" stroke-linecap="round" stroke-linejoin="round"/>
<path d="M113.5 117.8 L88.5 114.5" fill="none" stroke="#69776e" stroke-width="1.25" opacity="0.58" stroke-linecap="round" stroke-linejoin="round"/>
<path d="M118.7 82.4 L144.2 83.6" fill="none" stroke="#69776e" stroke-width="1.25" opacity="0.58" stroke-linecap="round" stroke-linejoin="round"/>
<path d="M119.2 149.7 L142.9 150.8" fill="none" stroke="#69776e" stroke-width="1.25" opacity="0.58" stroke-linecap="round" stroke-linejoin="round"/>
<path d="M164.4 295 L161.3 311.9" fill="none" stroke="#69776e" stroke-width="1.25" opacity="0.58" stroke-linecap="round" stroke-linejoin="round"/>
<path d="M109.4 148.2 L87.2 150.7" fill="none" stroke="#69776e" stroke-width="1.25" opacity="0.58" stroke-linecap="round" stroke-linejoin="round"/>
<path d="M16.5 102 L14.6 97.6 L16.6 85.7" fill="none" stroke="#69776e" stroke-width="1.25" opacity="0.58" stroke-linecap="round" stroke-linejoin="round"/>
<path d="M119.5 164.7 L108.4 163.8 L97.9 166" fill="none" stroke="#69776e" stroke-width="1.25" opacity="0.58" stroke-linecap="round" stroke-linejoin="round"/>
<path d="M40.9 169.6 L47.8 176.8 L46.2 184.2" fill="none" stroke="#69776e" stroke-width="1.25" opacity="0.58" stroke-linecap="round" stroke-linejoin="round"/>
<path d="M119.7 242.7 L121.5 226.4" fill="none" stroke="#69776e" stroke-width="1.25" opacity="0.58" stroke-linecap="round" stroke-linejoin="round"/>
<path d="M78.7 62.4 L57.4 60.2" fill="none" stroke="#69776e" stroke-width="1.25" opacity="0.58" stroke-linecap="round" stroke-linejoin="round"/>
<path d="M212.3 153.6 L193.7 146" fill="none" stroke="#69776e" stroke-width="1.25" opacity="0.58" stroke-linecap="round" stroke-linejoin="round"/>
<path d="M110.3 137.9 L128.4 137.9 L130.4 139.5" fill="none" stroke="#69776e" stroke-width="1.25" opacity="0.58" stroke-linecap="round" stroke-linejoin="round"/>
<path d="M54.1 59.4 L34.2 55.3" fill="none" stroke="#69776e" stroke-width="1.25" opacity="0.58" stroke-linecap="round" stroke-linejoin="round"/>
<path d="M167 163.2 L146.1 161.7" fill="none" stroke="#69776e" stroke-width="1.25" opacity="0.58" stroke-linecap="round" stroke-linejoin="round"/>
<path d="M63 302.9 L57.8 300.5 L43 300.2" fill="none" stroke="#69776e" stroke-width="1.25" opacity="0.58" stroke-linecap="round" stroke-linejoin="round"/>
<path d="M121.5 255.3 L124.2 248.3 L133.6 244.5" fill="none" stroke="#69776e" stroke-width="1.25" opacity="0.58" stroke-linecap="round" stroke-linejoin="round"/>
<path d="M125.9 71 L139.3 71.8 L143.9 69.4" fill="none" stroke="#69776e" stroke-width="1.25" opacity="0.58" stroke-linecap="round" stroke-linejoin="round"/>
<path d="M8.6 25.3 L28 29" fill="none" stroke="#69776e" stroke-width="1.25" opacity="0.58" stroke-linecap="round" stroke-linejoin="round"/>
<path d="M162.5 84.2 L148.5 73.7" fill="none" stroke="#69776e" stroke-width="1.25" opacity="0.58" stroke-linecap="round" stroke-linejoin="round"/>
<path d="M271.9 101.9 L268.5 116.5" fill="none" stroke="#69776e" stroke-width="1.25" opacity="0.58" stroke-linecap="round" stroke-linejoin="round"/>
<path d="M90.7 160.5 L86.5 146.2" fill="none" stroke="#69776e" stroke-width="1.25" opacity="0.58" stroke-linecap="round" stroke-linejoin="round"/>
<path d="M130 277.8 L128.1 263.4" fill="none" stroke="#69776e" stroke-width="1.25" opacity="0.58" stroke-linecap="round" stroke-linejoin="round"/>
<path d="M134.5 57.2 L144.5 68.7" fill="none" stroke="#69776e" stroke-width="1.25" opacity="0.58" stroke-linecap="round" stroke-linejoin="round"/>
<path d="M102.1 74.5 L101.6 60.7" fill="none" stroke="#69776e" stroke-width="1.25" opacity="0.58" stroke-linecap="round" stroke-linejoin="round"/>
<path d="M143.8 90.3 L143.2 104.1" fill="none" stroke="#69776e" stroke-width="1.25" opacity="0.58" stroke-linecap="round" stroke-linejoin="round"/>
<path d="M149.6 73.5 L162.3 83.5" fill="none" stroke="#69776e" stroke-width="1.25" opacity="0.58" stroke-linecap="round" stroke-linejoin="round"/>
<path d="M147.8 150.1 L146.4 147.4 L133.5 143" fill="none" stroke="#69776e" stroke-width="1.25" opacity="0.58" stroke-linecap="round" stroke-linejoin="round"/>
<path d="M169.3 195.8 L165.5 208.9" fill="none" stroke="#69776e" stroke-width="1.25" opacity="0.58" stroke-linecap="round" stroke-linejoin="round"/>
<path d="M10.9 44.8 L16.2 45 L16.8 43.1 L26.4 44.3" fill="none" stroke="#69776e" stroke-width="1.25" opacity="0.58" stroke-linecap="round" stroke-linejoin="round"/>
<path d="M243.5 145.8 L226.7 142" fill="none" stroke="#69776e" stroke-width="1.25" opacity="0.58" stroke-linecap="round" stroke-linejoin="round"/>
<path d="M8 232.6 L25.6 232.7" fill="none" stroke="#69776e" stroke-width="1.25" opacity="0.58" stroke-linecap="round" stroke-linejoin="round"/>
<path d="M144.9 57 L144.8 70.1" fill="none" stroke="#69776e" stroke-width="1.25" opacity="0.58" stroke-linecap="round" stroke-linejoin="round"/>
<path d="M169.5 195.4 L159.7 193.4 L153.3 195.8" fill="none" stroke="#69776e" stroke-width="1.25" opacity="0.58" stroke-linecap="round" stroke-linejoin="round"/>
<path d="M239.1 169.9 L222.4 167.8" fill="none" stroke="#69776e" stroke-width="1.25" opacity="0.58" stroke-linecap="round" stroke-linejoin="round"/>
<path d="M47.9 177.1 L64.6 178.4" fill="none" stroke="#69776e" stroke-width="1.25" opacity="0.58" stroke-linecap="round" stroke-linejoin="round"/>
<path d="M46.2 184.2 L62.7 185.4" fill="none" stroke="#69776e" stroke-width="1.25" opacity="0.58" stroke-linecap="round" stroke-linejoin="round"/>
<path d="M143.9 69.4 L134.6 59.4" fill="none" stroke="#69776e" stroke-width="1.25" opacity="0.58" stroke-linecap="round" stroke-linejoin="round"/>
<path d="M190.7 311 L194.4 299.5" fill="none" stroke="#69776e" stroke-width="1.25" opacity="0.58" stroke-linecap="round" stroke-linejoin="round"/>
<path d="M79.1 55.9 L78.4 67.7" fill="none" stroke="#69776e" stroke-width="1.25" opacity="0.58" stroke-linecap="round" stroke-linejoin="round"/>
<path d="M251 124.7 L266.4 126.6" fill="none" stroke="#69776e" stroke-width="1.25" opacity="0.58" stroke-linecap="round" stroke-linejoin="round"/>
<path d="M92.8 22.3 L90.7 34" fill="none" stroke="#69776e" stroke-width="1.25" opacity="0.58" stroke-linecap="round" stroke-linejoin="round"/>
<path d="M144.5 68.8 L144.9 57" fill="none" stroke="#69776e" stroke-width="1.25" opacity="0.58" stroke-linecap="round" stroke-linejoin="round"/>
<path d="M151.3 187.7 L150.5 176" fill="none" stroke="#69776e" stroke-width="1.25" opacity="0.58" stroke-linecap="round" stroke-linejoin="round"/>
<path d="M25.3 84.6 L40.9 83.9" fill="none" stroke="#69776e" stroke-width="1.25" opacity="0.58" stroke-linecap="round" stroke-linejoin="round"/>
</g>
</g>
<g data-layer="north-up-compass" fill="none" stroke="#233934" stroke-linecap="round" stroke-linejoin="round" opacity="0.62">
<path d="M382 48L382 23" stroke-width="1.8"/>
<path d="M382 23L373 39M382 23L391 39" stroke-width="1.8"/>
<circle cx="382" cy="48" r="13" stroke-width="1.1" opacity="0.38"/>
</g>
<rect x="8" y="8" width="404" height="304" rx="16" fill="none" stroke="#233934" stroke-width="1.4" opacity="0.44"/>
</svg>
