<svg xmlns="http://www.w3.org/2000/svg" viewBox="0 0 420 320" role="img" aria-label="Unlabeled street grid stage 0">
  <rect width="420" height="320" fill="#efe7d2"/>
  
  
  
  <g><path d="M10 -149 C70 -189 110 -89 340 -171" fill="none" stroke="hsl(75 18% 28%)" stroke-width="5" stroke-linecap="round" opacity="0.92"/><path d="M57 -118 C107 -158 147 -58 369 -118" fill="none" stroke="hsl(75 10% 48%)" stroke-width="3" stroke-linecap="round" opacity="0.92"/><path d="M44 -87 C144 -127 184 -27 398 -65" fill="none" stroke="hsl(75 18% 28%)" stroke-width="5" stroke-linecap="round" opacity="0.92"/><path d="M31 -56 C181 -96 221 4 357 -78" fill="none" stroke="hsl(75 10% 48%)" stroke-width="3" stroke-linecap="round" opacity="0.92"/><path d="M18 -25 C218 -65 258 35 386 -25" fill="none" stroke="hsl(75 18% 28%)" stroke-width="5" stroke-linecap="round" opacity="0.92"/><path d="M65 6 C255 -34 295 66 345 28" fill="none" stroke="hsl(75 10% 48%)" stroke-width="3" stroke-linecap="round" opacity="0.92"/><path d="M52 -215 C292 -255 332 -155 374 -237" fill="none" stroke="hsl(75 18% 28%)" stroke-width="5" stroke-linecap="round" opacity="0.92"/><path d="M39 -184 C99 -224 139 -124 403 -184" fill="none" stroke="hsl(75 10% 48%)" stroke-width="3" stroke-linecap="round" opacity="0.92"/><path d="M26 -153 C136 -193 176 -93 362 -131" fill="none" stroke="hsl(75 18% 28%)" stroke-width="5" stroke-linecap="round" opacity="0.92"/><path d="M300 22 C334 88 258 168 320 300" fill="none" stroke="hsl(75 10% 48%)" stroke-width="3" stroke-linecap="round" opacity="0.8"/><path d="M343 22 C377 88 301 168 363 300" fill="none" stroke="hsl(75 10% 48%)" stroke-width="3" stroke-linecap="round" opacity="0.8"/><path d="M46 22 C80 88 4 168 66 300" fill="none" stroke="hsl(75 10% 48%)" stroke-width="3" stroke-linecap="round" opacity="0.8"/><path d="M89 22 C123 88 47 168 109 300" fill="none" stroke="hsl(75 10% 48%)" stroke-width="3" stroke-linecap="round" opacity="0.8"/><path d="M132 22 C166 88 90 168 152 300" fill="none" stroke="hsl(75 10% 48%)" stroke-width="3" stroke-linecap="round" opacity="0.8"/></g>
  
  
  
</svg>
