<svg xmlns="http://www.w3.org/2000/svg" viewBox="0 0 420 320" role="img" aria-label="Unlabeled street grid stage 5">
  <rect width="420" height="320" fill="#efe7d2"/>
  <path d="M0 230 C80 210 140 260 220 238 S350 190 420 228 L420 320 L0 320 Z" fill="#9bc7d8" opacity="0.72"/>
  <path d="M252 52 l58 26 -16 62 -70 18 -30 -54z" fill="#83a66b" opacity="0.78"/><path d="M42 178 l74 -22 28 48 -38 50 -70 -10z" fill="#83a66b" opacity="0.65"/>
  <path d="M24 286 C96 236 164 224 226 180 S326 82 396 46" fill="none" stroke="#6f4f37" stroke-width="5" stroke-dasharray="12 9" opacity="0.8"/>
  <g><path d="M10 -149 C155 -189 195 -89 340 -171" fill="none" stroke="hsl(75 18% 28%)" stroke-width="5" stroke-linecap="round" opacity="0.92"/><path d="M57 -118 C192 -158 232 -58 369 -118" fill="none" stroke="hsl(75 10% 48%)" stroke-width="3" stroke-linecap="round" opacity="0.92"/><path d="M44 -87 C229 -127 269 -27 398 -65" fill="none" stroke="hsl(75 18% 28%)" stroke-width="5" stroke-linecap="round" opacity="0.92"/><path d="M31 -56 C266 -96 306 4 357 -78" fill="none" stroke="hsl(75 10% 48%)" stroke-width="3" stroke-linecap="round" opacity="0.92"/><path d="M18 -25 C73 -65 113 35 386 -25" fill="none" stroke="hsl(75 18% 28%)" stroke-width="5" stroke-linecap="round" opacity="0.92"/><path d="M65 6 C110 -34 150 66 345 28" fill="none" stroke="hsl(75 10% 48%)" stroke-width="3" stroke-linecap="round" opacity="0.92"/><path d="M52 -215 C147 -255 187 -155 374 -237" fill="none" stroke="hsl(75 18% 28%)" stroke-width="5" stroke-linecap="round" opacity="0.92"/><path d="M39 -184 C184 -224 224 -124 403 -184" fill="none" stroke="hsl(75 10% 48%)" stroke-width="3" stroke-linecap="round" opacity="0.92"/><path d="M26 -153 C221 -193 261 -93 362 -131" fill="none" stroke="hsl(75 18% 28%)" stroke-width="5" stroke-linecap="round" opacity="0.92"/><path d="M13 -122 C258 -162 298 -62 391 -144" fill="none" stroke="hsl(75 10% 48%)" stroke-width="3" stroke-linecap="round" opacity="0.92"/><path d="M60 -91 C295 -131 335 -31 350 -91" fill="none" stroke="hsl(75 18% 28%)" stroke-width="5" stroke-linecap="round" opacity="0.92"/><path d="M47 -60 C102 -100 142 0 379 -38" fill="none" stroke="hsl(75 10% 48%)" stroke-width="3" stroke-linecap="round" opacity="0.92"/><path d="M34 -29 C139 -69 179 31 408 -51" fill="none" stroke="hsl(75 18% 28%)" stroke-width="5" stroke-linecap="round" opacity="0.92"/><path d="M21 2 C176 -38 216 62 367 2" fill="none" stroke="hsl(75 10% 48%)" stroke-width="3" stroke-linecap="round" opacity="0.92"/><path d="M68 33 C213 -7 253 93 396 55" fill="none" stroke="hsl(75 18% 28%)" stroke-width="5" stroke-linecap="round" opacity="0.92"/><path d="M55 -188 C250 -228 290 -128 355 -210" fill="none" stroke="hsl(75 10% 48%)" stroke-width="3" stroke-linecap="round" opacity="0.92"/><path d="M300 22 C334 88 258 168 320 300" fill="none" stroke="hsl(75 10% 48%)" stroke-width="3" stroke-linecap="round" opacity="0.8"/><path d="M343 22 C377 88 301 168 363 300" fill="none" stroke="hsl(75 10% 48%)" stroke-width="3" stroke-linecap="round" opacity="0.8"/><path d="M46 22 C80 88 4 168 66 300" fill="none" stroke="hsl(75 10% 48%)" stroke-width="3" stroke-linecap="round" opacity="0.8"/><path d="M89 22 C123 88 47 168 109 300" fill="none" stroke="hsl(75 10% 48%)" stroke-width="3" stroke-linecap="round" opacity="0.8"/><path d="M132 22 C166 88 90 168 152 300" fill="none" stroke="hsl(75 10% 48%)" stroke-width="3" stroke-linecap="round" opacity="0.8"/><path d="M175 22 C209 88 133 168 195 300" fill="none" stroke="hsl(75 10% 48%)" stroke-width="3" stroke-linecap="round" opacity="0.8"/><path d="M218 22 C252 88 176 168 238 300" fill="none" stroke="hsl(75 10% 48%)" stroke-width="3" stroke-linecap="round" opacity="0.8"/><path d="M261 22 C295 88 219 168 281 300" fill="none" stroke="hsl(75 10% 48%)" stroke-width="3" stroke-linecap="round" opacity="0.8"/><path d="M304 22 C338 88 262 168 324 300" fill="none" stroke="hsl(75 10% 48%)" stroke-width="3" stroke-linecap="round" opacity="0.8"/></g>
  <path d="M82 80 C162 36 276 42 338 96 S368 222 282 252 96 238 74 158 82 80 82 80" fill="none" stroke="#2f6f73" stroke-width="4" opacity="0.7"/>
  <g fill="#bf5f45"><circle cx="144" cy="119" r="7"/><circle cx="247" cy="204" r="7"/><circle cx="333" cy="108" r="7"/></g>
  <rect x="14" y="14" width="392" height="292" rx="18" fill="none" stroke="#183a37" stroke-width="3" opacity="0.45"/>
</svg>
