<svg xmlns="http://www.w3.org/2000/svg" viewBox="0 0 420 320" role="img" aria-label="Unlabeled north-up street-grid crop" data-orientation="north-up">
<metadata>{"orientation":"north-up","projection":"local-web-mercator"}</metadata>
<defs>
<clipPath id="mapCrop"><rect x="8" y="8" width="404" height="304" rx="16"/></clipPath>
</defs>
<rect width="420" height="320" fill="#ede7d8"/>
<rect x="8" y="8" width="404" height="304" rx="16" fill="#f7f1e3" stroke="#d8cbb2" stroke-width="1.25"/>
<g clip-path="url(#mapCrop)">
<g data-layer="major-road-casing">
<path d="M225.3 147 L189 146.7 M193 147.1 L228.7 147.3 L244.6 142.8 M244.4 142.4 L225.3 147 M248 156.9 L248.7 161.5 L245.6 172.5 M246.3 190 L243.5 182.3 L247.9 167.4 M215.6 165.5 L212.7 146.7 M245.6 172.5 L242.9 184.2 L246.4 191.4 M233.3 141.1 L243.3 149.6 M170.6 149.4 L185.7 147.2 M180.6 146.8 L162.5 151.8 M242.7 148.7 L233.8 141 M248.2 166.8 L248.3 155.8 M238.9 157 L215.6 165.5 M185.7 147.2 L193 147.1 M233.8 141 L229.6 131.8 M189 146.7 L180.6 146.8 M247.5 165.1 L242.4 182.5 L244.8 189.5 M248.3 155.8 L242.7 148.7 M243.3 149.6 L248 156.9 M244.6 142.8 L261 137 M220.2 180.5 L215.6 165.5 M258.7 137.2 L244.4 142.4 M245.1 177.7 L249.4 164.3 M189.3 160.7 L194.9 173.2 M245.1 177.7 L220.2 180.5 M185.5 147.3 L186 154.1 L189.3 160.7 M200 158.6 L231.1 154.1 M194.9 173.2 L202 185.5 M227 203.7 L220.2 180.5 M202 185.5 L156.8 196 M249.4 164.3 L250 159.3 M182 178 L157 187.3 M211.5 135.7 L207.4 122.8 M178.4 123.4 L204.2 113.6 M262.3 174.9 L245.1 177.7 M207.8 120.6 L196.1 124 L192.6 126.9 M226.7 109 L217.7 93.2 M229.5 120.9 L228.2 114.2 M226.9 217 L218.6 221 L208.5 223 M208.7 224.1 L227.2 218.7 M205.7 197.7 L207.4 211 M253.1 203.7 L249.2 205.6 L245.9 212.2 M189.3 160.7 L197.5 159.1 M181.5 230.5 L203.2 225.1 M154.7 188.2 L149.3 175.8 M177.8 164.2 L189.3 160.7 M256 204.5 L266.5 201.7 M276.2 128.7 L268.1 132.7 M128.6 131.9 L156.2 119.6 M137.7 157.4 L128.1 160.7 M190.9 216.5 L190.2 201.7 L185.3 176.8 M231.1 154.1 L241.3 152.2 M163.7 171.7 L177.8 164.2 M282.3 168.7 L268.6 173 M230.6 215.5 L227 203.7 M172.2 114.2 L188.2 110.9 M279.6 197.6 L268.1 200.7 M239.6 214.3 L230.9 215.5 M230.7 217 L239.9 215.1 M114.2 165.6 L128.4 162.1 M156.9 200.2 L155 188.8 M185.3 176.8 L180.9 169.7 M123.5 108.3 L140.6 123.8 L144 134.8 M199.2 103.3 L197 106.4 L188.2 110.9 M197.5 159.1 L200 158.6 M253.4 202.6 L248.8 205.4 L245.9 212.2 M216 93.6 L206.7 97 L199.7 102.8 M209.9 146.8 L231.3 147.2 M200 103 L207.2 97.1 L216 93.6 M128.1 160.7 L117.9 163.4 M207.4 211 L208.5 223 M128.4 162.1 L133.9 159.3 M188.9 84 L198.5 102 M277.3 129.4 L284.4 126.1 M199 101.8 L189.3 83.8 M266.5 166.2 L273.1 188.4 M230.4 146.1 L210 146.3 M130.6 172.1 L116.5 173.4 L111.9 182 M207.8 120.6 L226.1 113.3 M148 196.6 L128.8 207.7 M308.4 190.9 L291.6 192.8 M291.9 193.4 L308.6 191.4 M248.2 131.1 L268.7 119.4 M159.7 161.6 L165.9 171 M268.4 119 L248 130.8 M155.3 106.7 L165.2 116.1 M276.7 128.6 L269.2 119.2 M261.8 218.5 L258.8 211.8 M207.4 211 L227 203.7 M268.1 200.7 L263.6 181 M193.4 226.2 L183.3 228.6 M253 146.8 L244.1 149.1 M232 201.8 L249 195.8 M262.5 110.2 L256.4 95.3 M179.9 167.9 L177.8 164.2 M258.5 213.7 L261.2 220.1 M149.4 209.4 L156.9 200.2 M208.5 223 L202.9 224 M183 228.6 L170.8 232.7 M149.3 175.8 L163.7 171.7 M281.7 106.3 L262.5 110.2 M285.1 196.1 L291.9 193.4 M197.3 146.3 L180.6 146.8 M309.5 191.3 L339.1 188.2 M227.9 113 L247.7 109.1 L258.1 100.6 M290.1 193.1 L284.8 195.4 M246.9 129.3 L242.2 119.9 M258.4 156.6 L255.2 151 M242.8 150.1 L241.3 152.2 M180.9 169.7 L179.9 167.9 M262.3 174.9 L260.6 167.3 M241.3 152.2 L244.3 151.6 M155.3 155.2 L159.7 161.6 M91.3 180 L104.8 171.4 M264.2 158.5 L266.5 166.2 M259.6 162.1 L258.4 156.6 M134.8 246.3 L158.5 237.5 M254.9 139.6 L257.8 145.3 M259.9 149.3 L263.3 155 M253 146.8 L255.2 151 M258 192.9 L273.1 188.4 M190.9 216.5 L207.4 211 M158.5 237.5 L171.3 233.7 M144 199.1 L136.6 182.4 M260.6 167.3 L259.6 162.1 M154.9 227.3 L190.9 216.5 M257.8 145.3 L253 146.8 M232.7 141.2 L237.7 144.6 L244.6 143.3 M225.1 146.7 L217.6 146.2 M263.6 181 L262.3 174.9 M156.2 119.6 L137.9 104 M297.9 236.9 L273.9 244.2 M257.8 145.3 L259.9 149.3 M182.2 65.3 L203.5 67.1 M76.2 164.2 L84.5 182.5 M219.6 147.2 L226.7 147.4 M169.5 136.3 L166.3 132.6 M162.3 127.9 L156.2 119.6 M242.8 148.2 L238.4 145.3 L233.8 145.4 M192.6 147.2 L198.9 147 M234.6 146.5 L237.6 144.2 L234 140.8 M246 69.4 L261.5 66.8 L289 58.5 M302.4 127.5 L282.7 136.6 M229.5 136.3 L233.9 143.4 M161.4 151.8 L153.5 154.3 M246.2 147.8 L242.9 147.9 M241.6 117 L242.2 119.9 M296.1 118.7 L295.2 120 M297.5 119.7 L296.3 119.1 M298 120 L296.6 119.7 M123.8 67.1 L119.3 62.8 M99.8 298.4 L102.2 288.5 M318.8 41.3 L317.7 43.8 M383 97.4 L384.4 106 M374.1 94.7 L383.9 98.4 M401.1 99.4 L386.5 97.2 M14.1 171.7 L18.6 179.9 M102.2 288.5 L101.5 287.7 M208.1 72.1 L215.6 91.4 L224.9 106.8 L229.4 133.8 L233.3 141.1 M160.4 152.9 L170.6 149.4 M260.9 217.3 L254.4 202.1 L246.3 190 M246.4 191.4 L253.7 202.3 L261.8 221.2 M101.9 172.8 L115.8 164.6 L160.4 152.9 M229.6 131.8 L225.8 107.6 L209.4 76.4 L210.6 63.8 M247.9 167.4 L248.2 166.8 M162.5 151.8 L160.9 152.3 M261 137 L293.2 121.7 L303.7 119.6 L313.6 120.3 L319.6 118.1 M317.9 117.7 L313.7 120 L303.4 119.3 L293.4 121.3 L261.5 136.2 M261.5 136.2 L258.7 137.2 M160.9 152.3 L115 164.5 L77.5 186 L68.3 195.3 L54.8 197.6 M267.1 232.5 L260.9 217.3 M261.8 221.2 L266.6 232.6 M219.5 70.6 L232.6 71.4 L251.5 68.3 M251.4 67.9 L232.6 71.1 L219.6 70.3 M32 157.2 L44.5 157.7 L54.1 153.8 L59.9 147.6 L64.7 135.1 L94.8 109.7 L104.4 94.1 L126.5 79.9 L148 72.3 M147.7 71.9 L126.4 79.8 L104.2 94 L94.6 109.6 L64.5 135 L59.7 147.5 L55.1 152.8 L44.4 157.5 L32.1 157 M356 209.5 L326 228.7 L250.8 251.3 M266.6 232.6 L274.9 249.8 M162.4 67 L179.1 65.1 L201.2 66 M275.2 249.6 L267.1 232.5 M201.1 65.7 L179.1 64.8 L162.3 66.8 M256 250 L300.3 236.9 M227.2 218.7 L232.4 230.8 M263.9 223.8 L288.3 213.8 M156.3 98 L176.1 90.1 M285.3 140.1 L298.9 135.2 M201.2 66 L219.5 70.6 M76.8 163.8 L109.2 155.5 L122.9 149.2 M219.6 70.3 L201.1 65.7 M133.6 228.5 L149.4 209.4 M325.2 116.9 L315.3 120.5 L309.7 119.5 M149.2 208.9 L137.8 222.7 M301.6 120 L310.9 120.6 M309.7 119.5 L301.1 119.4 M310.9 120.6 L318.7 121.4 L325.1 119.3 M56.4 197.9 L68.5 195.8 L78 186.2 L101.9 172.8 M208.2 75.8 L234.7 80.3 M246 227.5 L262.7 224 M250.8 251.3 L223.3 262.6 L190 281.6 L172.9 285.9 M241.2 254.2 L233.1 230.6 M232.4 230.8 L240.3 254.5 M257.2 95.2 L275.8 91.1 M219.9 237.8 L232.4 230.8 M300.3 236.9 L326.4 228.8 L362.7 207.3 M304.3 179.1 L308.4 190.9 M316.4 157.4 L304.2 163.8 M304.6 164.3 L316.7 157.7 M210 63.8 L208.1 72.1 M128.2 311.5 L158.7 290.6 L190.2 282 L224.5 262.5 L256 250 M148 72.3 L162.4 67 M162.3 66.8 L147.7 71.9 M263.3 155 L264.2 158.5 M262.3 144.4 L257.8 145.3 M232 146.3 L225.1 146.7 M103.7 192.7 L110.7 186.9 L111.9 182 M247.9 163.8 L245.6 172.5 M250.8 195 L258 192.9 M94.5 226.6 L87.7 214.7 L85.4 206.1 L85.6 200.9 L89.6 196.3 M83 119 L93.3 130.5 L106.9 141 M185.7 147.2 L192.6 147.2 M252.1 139.3 L239.3 143.1 M242.5 142.5 L238.2 145 L240.9 148.2 M243.1 149.8 L242.8 150.1 M244.1 149.1 L243.6 149.4 M308.6 191.4 L315.2 206.5 M250.8 133.3 L252.8 136.1 M243.5 149.5 L243.1 149.8 M88.1 197 L85.2 200.7 L84.9 205.7 L87.5 215.5 L93.9 226.9 M271 141.2 L264.7 143.6 M250.8 133.3 L248.2 131.1 M252.8 136.1 L254.3 138.4 M227 203.7 L232 201.8 M271.8 122.3 L289.4 116 M305.2 99.5 L286.5 104.7 M273.1 188.4 L279.6 197.6 M288.3 213.8 L303.3 209.5 M76.8 163.8 L72 153.2 L63 145.8 M62.7 146.1 L71.6 153.5 L76.2 164.2 M243.6 149.4 L243.5 149.5 M297.2 149.2 L295.5 141.5 L299.5 134.9 M148 196.6 L131.7 196.2 M246 69.4 L248.9 84.6 M202.3 224 L207 242 M90.7 194.9 L85.4 183.1 M117.8 110 L128.6 131.9 M317.5 140.3 L314.4 128.3 M244.1 151.2 L248 156.9 M280.1 198.2 L288.3 213.8 M337.2 179.1 L330.1 161.3 M352.1 97.6 L333.8 113.3 M96.4 93.6 L102.2 87.8 L120.7 75.8 M247.8 157.7 L247.9 163.8 M288.2 183.7 L305 178.9 M277.3 138.5 L271 141.2 M207.5 241.9 L203.2 225.1 M267.4 75.4 L247.3 78.4 M192.8 246.5 L207 242 M332.7 166.9 L339 187.6 M249.6 162.7 L249.1 156.4 M328.2 125.6 L310.6 129 M248 78.8 L267.5 75.8 M188.5 82.4 L179.2 73.8 M327.2 114 L316.1 118.8 M312.2 120 L308.1 106.5 M193.4 226.2 L190.9 216.5 M288.2 183.7 L286.2 174.8 M245.5 109.5 L241.1 101.8 M248 130.8 L246.9 129.3 M144 199.1 L147.5 203 L149.2 208.9 M234 140.8 L231 136.2 M137.8 222.7 L115.1 249.3 M273.6 245.3 L288.5 240.9 M307.6 106.6 L311.3 119.5 M164.4 130.4 L162.3 127.9 M264.7 143.6 L262.3 144.4 M246.7 152.3 L242.8 148.2 M100.1 135.2 L87.6 122.6 M325.3 154.5 L332.7 166.9 M166.3 132.6 L164.8 130.9 M152.1 217.9 L158.4 236.4 M268.5 138.2 L271 141.2 M310.7 129.2 L326.2 126 M286.2 174.8 L282.5 169 M271 141.2 L273 144.5 M265.3 135.3 L288.7 124 M244.6 143.3 L253.1 140.2 M212.2 57.1 L214.8 42.7 M336.7 114.6 L368.8 141.1 M214.2 42.7 L211.6 57 M290.6 123.4 L299.5 134.9 M273.1 188.4 L280.5 186.1 M279.7 90.2 L299.2 85.4 M240.9 148.2 L244.1 151.2 M211.6 57 L210 63.8 M315.2 206.5 L317.5 217.5 L323.2 227.3 M210.6 63.8 L212.2 57.1 M229 131.5 L229.5 136.3 M287.8 239.8 L272 209.7 M272 209.7 L268.7 201.2 M251.5 68.3 L259.3 66.7 M241.9 146.8 L244.6 143.3 M255.8 108.1 L249.1 111.9 M324.9 228.9 L318.3 217.2 L315.8 206.2 M259.2 66.4 L251.4 67.9 M287.5 111.8 L273.5 116.4 M130.6 172.1 L129 165.2 M331.8 115.6 L355.2 99.1 L365.9 94.3 M77 105.2 L82 98.4 L96.4 93.6 M293.1 73.1 L267.4 75.4 M335.9 112.6 L329.7 102.9 L327.5 94 L328.4 82.2 L326.7 76.4 L329.1 67.6 M339.1 188.2 L354.4 186.8 L359.3 191.5 M231 136.2 L229.6 131.8 M280.8 260 L275.2 249.6 M291.6 192.8 L288.2 183.7 M274.9 249.8 L280.5 260.1 M242.8 62.6 L226.2 71 M248.2 166.8 L249.6 162.7 M121.7 211.6 L109.1 218.7 M133.6 178.1 L130.6 172.1 M133.7 139 L128.6 131.9 M254.5 138.7 L254.8 139.2 M241.1 101.8 L236.8 93.4 M158.4 236.4 L153.8 237.9 M270.5 129.6 L268.1 132.7 M156.2 67.7 L141.3 70.1 M248.3 155.8 L246.7 152.3 M280.5 186.1 L288.2 183.7 M254.8 139.2 L254.9 139.6 M313.8 175.4 L304.6 164.3 M122.9 149.2 L126.7 156 M254.3 138.4 L254.5 138.7 M271.6 123 L271.2 127.6 M248.2 131.1 L248 130.8 M343.1 217.5 L324.9 228.9 M113.7 141.1 L96.4 149.1 M63 145.8 L62.1 127.3 M324.9 229.9 L343.9 218.4 M154.8 155 L155.3 155.2 M136.6 182.4 L133.6 178.1 M157.1 153.2 L147.2 156 M85.4 183.1 L91.3 180 M267.7 136.8 L268.5 138.2 M127.8 235.2 L154.9 227.3 M326.2 126 L348.7 126 M248.5 112.1 L245.5 109.5 M228 122.1 L228.5 127.4 M149.4 209.4 L152.1 217.9 M294 115.3 L310.2 113.5 L331.2 107.4 M253.4 199 L247.8 191.6 M229.9 127.5 L229.3 122.4 M164.8 130.9 L164.4 130.4 M131.7 196.2 L118.7 195.5 M249.9 195.4 L250.8 195 M229.3 122.4 L228.3 115.5 M226.7 115.4 L228 122.1 M277.6 140.4 L278.1 142.7 M126.7 156 L128.1 160.7 M297.8 202.6 L291.9 193.4 M94.4 227.3 L97.8 231.5 L101 241.7 M184.3 284.1 L210.7 271.3" fill="none" stroke="#fcf7e8" stroke-width="6.4" opacity="0.92" stroke-linecap="round" stroke-linejoin="round"/>
</g>
<g data-layer="major-road">
<path d="M225.3 147 L189 146.7 M193 147.1 L228.7 147.3 L244.6 142.8 M244.4 142.4 L225.3 147 M248 156.9 L248.7 161.5 L245.6 172.5 M246.3 190 L243.5 182.3 L247.9 167.4 M215.6 165.5 L212.7 146.7 M245.6 172.5 L242.9 184.2 L246.4 191.4 M233.3 141.1 L243.3 149.6 M170.6 149.4 L185.7 147.2 M180.6 146.8 L162.5 151.8 M242.7 148.7 L233.8 141 M248.2 166.8 L248.3 155.8 M238.9 157 L215.6 165.5 M185.7 147.2 L193 147.1 M233.8 141 L229.6 131.8 M189 146.7 L180.6 146.8 M247.5 165.1 L242.4 182.5 L244.8 189.5 M248.3 155.8 L242.7 148.7 M243.3 149.6 L248 156.9 M244.6 142.8 L261 137 M220.2 180.5 L215.6 165.5 M258.7 137.2 L244.4 142.4 M245.1 177.7 L249.4 164.3 M189.3 160.7 L194.9 173.2 M245.1 177.7 L220.2 180.5 M185.5 147.3 L186 154.1 L189.3 160.7 M200 158.6 L231.1 154.1 M194.9 173.2 L202 185.5 M227 203.7 L220.2 180.5 M202 185.5 L156.8 196 M249.4 164.3 L250 159.3 M182 178 L157 187.3 M211.5 135.7 L207.4 122.8 M178.4 123.4 L204.2 113.6 M262.3 174.9 L245.1 177.7 M207.8 120.6 L196.1 124 L192.6 126.9 M226.7 109 L217.7 93.2 M229.5 120.9 L228.2 114.2 M226.9 217 L218.6 221 L208.5 223 M208.7 224.1 L227.2 218.7 M205.7 197.7 L207.4 211 M253.1 203.7 L249.2 205.6 L245.9 212.2 M189.3 160.7 L197.5 159.1 M181.5 230.5 L203.2 225.1 M154.7 188.2 L149.3 175.8 M177.8 164.2 L189.3 160.7 M256 204.5 L266.5 201.7 M276.2 128.7 L268.1 132.7 M128.6 131.9 L156.2 119.6 M137.7 157.4 L128.1 160.7 M190.9 216.5 L190.2 201.7 L185.3 176.8 M231.1 154.1 L241.3 152.2 M163.7 171.7 L177.8 164.2 M282.3 168.7 L268.6 173 M230.6 215.5 L227 203.7 M172.2 114.2 L188.2 110.9 M279.6 197.6 L268.1 200.7 M239.6 214.3 L230.9 215.5 M230.7 217 L239.9 215.1 M114.2 165.6 L128.4 162.1 M156.9 200.2 L155 188.8 M185.3 176.8 L180.9 169.7 M123.5 108.3 L140.6 123.8 L144 134.8 M199.2 103.3 L197 106.4 L188.2 110.9 M197.5 159.1 L200 158.6 M253.4 202.6 L248.8 205.4 L245.9 212.2 M216 93.6 L206.7 97 L199.7 102.8 M209.9 146.8 L231.3 147.2 M200 103 L207.2 97.1 L216 93.6 M128.1 160.7 L117.9 163.4 M207.4 211 L208.5 223 M128.4 162.1 L133.9 159.3 M188.9 84 L198.5 102 M277.3 129.4 L284.4 126.1 M199 101.8 L189.3 83.8 M266.5 166.2 L273.1 188.4 M230.4 146.1 L210 146.3 M130.6 172.1 L116.5 173.4 L111.9 182 M207.8 120.6 L226.1 113.3 M148 196.6 L128.8 207.7 M308.4 190.9 L291.6 192.8 M291.9 193.4 L308.6 191.4 M248.2 131.1 L268.7 119.4 M159.7 161.6 L165.9 171 M268.4 119 L248 130.8 M155.3 106.7 L165.2 116.1 M276.7 128.6 L269.2 119.2 M261.8 218.5 L258.8 211.8 M207.4 211 L227 203.7 M268.1 200.7 L263.6 181 M193.4 226.2 L183.3 228.6 M253 146.8 L244.1 149.1 M232 201.8 L249 195.8 M262.5 110.2 L256.4 95.3 M179.9 167.9 L177.8 164.2 M258.5 213.7 L261.2 220.1 M149.4 209.4 L156.9 200.2 M208.5 223 L202.9 224 M183 228.6 L170.8 232.7 M149.3 175.8 L163.7 171.7 M281.7 106.3 L262.5 110.2 M285.1 196.1 L291.9 193.4 M197.3 146.3 L180.6 146.8 M309.5 191.3 L339.1 188.2 M227.9 113 L247.7 109.1 L258.1 100.6 M290.1 193.1 L284.8 195.4 M246.9 129.3 L242.2 119.9 M258.4 156.6 L255.2 151 M242.8 150.1 L241.3 152.2 M180.9 169.7 L179.9 167.9 M262.3 174.9 L260.6 167.3 M241.3 152.2 L244.3 151.6 M155.3 155.2 L159.7 161.6 M91.3 180 L104.8 171.4 M264.2 158.5 L266.5 166.2 M259.6 162.1 L258.4 156.6 M134.8 246.3 L158.5 237.5 M254.9 139.6 L257.8 145.3 M259.9 149.3 L263.3 155 M253 146.8 L255.2 151 M258 192.9 L273.1 188.4 M190.9 216.5 L207.4 211 M158.5 237.5 L171.3 233.7 M144 199.1 L136.6 182.4 M260.6 167.3 L259.6 162.1 M154.9 227.3 L190.9 216.5 M257.8 145.3 L253 146.8 M232.7 141.2 L237.7 144.6 L244.6 143.3 M225.1 146.7 L217.6 146.2 M263.6 181 L262.3 174.9 M156.2 119.6 L137.9 104 M297.9 236.9 L273.9 244.2 M257.8 145.3 L259.9 149.3 M182.2 65.3 L203.5 67.1 M76.2 164.2 L84.5 182.5 M219.6 147.2 L226.7 147.4 M169.5 136.3 L166.3 132.6 M162.3 127.9 L156.2 119.6 M242.8 148.2 L238.4 145.3 L233.8 145.4 M192.6 147.2 L198.9 147 M234.6 146.5 L237.6 144.2 L234 140.8 M246 69.4 L261.5 66.8 L289 58.5 M302.4 127.5 L282.7 136.6 M229.5 136.3 L233.9 143.4 M161.4 151.8 L153.5 154.3 M246.2 147.8 L242.9 147.9 M241.6 117 L242.2 119.9 M296.1 118.7 L295.2 120 M297.5 119.7 L296.3 119.1 M298 120 L296.6 119.7 M123.8 67.1 L119.3 62.8 M99.8 298.4 L102.2 288.5 M318.8 41.3 L317.7 43.8 M383 97.4 L384.4 106 M374.1 94.7 L383.9 98.4 M401.1 99.4 L386.5 97.2 M14.1 171.7 L18.6 179.9 M102.2 288.5 L101.5 287.7 M208.1 72.1 L215.6 91.4 L224.9 106.8 L229.4 133.8 L233.3 141.1 M160.4 152.9 L170.6 149.4 M260.9 217.3 L254.4 202.1 L246.3 190 M246.4 191.4 L253.7 202.3 L261.8 221.2 M101.9 172.8 L115.8 164.6 L160.4 152.9 M229.6 131.8 L225.8 107.6 L209.4 76.4 L210.6 63.8 M247.9 167.4 L248.2 166.8 M162.5 151.8 L160.9 152.3 M261 137 L293.2 121.7 L303.7 119.6 L313.6 120.3 L319.6 118.1 M317.9 117.7 L313.7 120 L303.4 119.3 L293.4 121.3 L261.5 136.2 M261.5 136.2 L258.7 137.2 M160.9 152.3 L115 164.5 L77.5 186 L68.3 195.3 L54.8 197.6 M267.1 232.5 L260.9 217.3 M261.8 221.2 L266.6 232.6 M219.5 70.6 L232.6 71.4 L251.5 68.3 M251.4 67.9 L232.6 71.1 L219.6 70.3 M32 157.2 L44.5 157.7 L54.1 153.8 L59.9 147.6 L64.7 135.1 L94.8 109.7 L104.4 94.1 L126.5 79.9 L148 72.3 M147.7 71.9 L126.4 79.8 L104.2 94 L94.6 109.6 L64.5 135 L59.7 147.5 L55.1 152.8 L44.4 157.5 L32.1 157 M356 209.5 L326 228.7 L250.8 251.3 M266.6 232.6 L274.9 249.8 M162.4 67 L179.1 65.1 L201.2 66 M275.2 249.6 L267.1 232.5 M201.1 65.7 L179.1 64.8 L162.3 66.8 M256 250 L300.3 236.9 M227.2 218.7 L232.4 230.8 M263.9 223.8 L288.3 213.8 M156.3 98 L176.1 90.1 M285.3 140.1 L298.9 135.2 M201.2 66 L219.5 70.6 M76.8 163.8 L109.2 155.5 L122.9 149.2 M219.6 70.3 L201.1 65.7 M133.6 228.5 L149.4 209.4 M325.2 116.9 L315.3 120.5 L309.7 119.5 M149.2 208.9 L137.8 222.7 M301.6 120 L310.9 120.6 M309.7 119.5 L301.1 119.4 M310.9 120.6 L318.7 121.4 L325.1 119.3 M56.4 197.9 L68.5 195.8 L78 186.2 L101.9 172.8 M208.2 75.8 L234.7 80.3 M246 227.5 L262.7 224 M250.8 251.3 L223.3 262.6 L190 281.6 L172.9 285.9 M241.2 254.2 L233.1 230.6 M232.4 230.8 L240.3 254.5 M257.2 95.2 L275.8 91.1 M219.9 237.8 L232.4 230.8 M300.3 236.9 L326.4 228.8 L362.7 207.3 M304.3 179.1 L308.4 190.9 M316.4 157.4 L304.2 163.8 M304.6 164.3 L316.7 157.7 M210 63.8 L208.1 72.1 M128.2 311.5 L158.7 290.6 L190.2 282 L224.5 262.5 L256 250 M148 72.3 L162.4 67 M162.3 66.8 L147.7 71.9 M263.3 155 L264.2 158.5 M262.3 144.4 L257.8 145.3 M232 146.3 L225.1 146.7 M103.7 192.7 L110.7 186.9 L111.9 182 M247.9 163.8 L245.6 172.5 M250.8 195 L258 192.9 M94.5 226.6 L87.7 214.7 L85.4 206.1 L85.6 200.9 L89.6 196.3 M83 119 L93.3 130.5 L106.9 141 M185.7 147.2 L192.6 147.2 M252.1 139.3 L239.3 143.1 M242.5 142.5 L238.2 145 L240.9 148.2 M243.1 149.8 L242.8 150.1 M244.1 149.1 L243.6 149.4 M308.6 191.4 L315.2 206.5 M250.8 133.3 L252.8 136.1 M243.5 149.5 L243.1 149.8 M88.1 197 L85.2 200.7 L84.9 205.7 L87.5 215.5 L93.9 226.9 M271 141.2 L264.7 143.6 M250.8 133.3 L248.2 131.1 M252.8 136.1 L254.3 138.4 M227 203.7 L232 201.8 M271.8 122.3 L289.4 116 M305.2 99.5 L286.5 104.7 M273.1 188.4 L279.6 197.6 M288.3 213.8 L303.3 209.5 M76.8 163.8 L72 153.2 L63 145.8 M62.7 146.1 L71.6 153.5 L76.2 164.2 M243.6 149.4 L243.5 149.5 M297.2 149.2 L295.5 141.5 L299.5 134.9 M148 196.6 L131.7 196.2 M246 69.4 L248.9 84.6 M202.3 224 L207 242 M90.7 194.9 L85.4 183.1 M117.8 110 L128.6 131.9 M317.5 140.3 L314.4 128.3 M244.1 151.2 L248 156.9 M280.1 198.2 L288.3 213.8 M337.2 179.1 L330.1 161.3 M352.1 97.6 L333.8 113.3 M96.4 93.6 L102.2 87.8 L120.7 75.8 M247.8 157.7 L247.9 163.8 M288.2 183.7 L305 178.9 M277.3 138.5 L271 141.2 M207.5 241.9 L203.2 225.1 M267.4 75.4 L247.3 78.4 M192.8 246.5 L207 242 M332.7 166.9 L339 187.6 M249.6 162.7 L249.1 156.4 M328.2 125.6 L310.6 129 M248 78.8 L267.5 75.8 M188.5 82.4 L179.2 73.8 M327.2 114 L316.1 118.8 M312.2 120 L308.1 106.5 M193.4 226.2 L190.9 216.5 M288.2 183.7 L286.2 174.8 M245.5 109.5 L241.1 101.8 M248 130.8 L246.9 129.3 M144 199.1 L147.5 203 L149.2 208.9 M234 140.8 L231 136.2 M137.8 222.7 L115.1 249.3 M273.6 245.3 L288.5 240.9 M307.6 106.6 L311.3 119.5 M164.4 130.4 L162.3 127.9 M264.7 143.6 L262.3 144.4 M246.7 152.3 L242.8 148.2 M100.1 135.2 L87.6 122.6 M325.3 154.5 L332.7 166.9 M166.3 132.6 L164.8 130.9 M152.1 217.9 L158.4 236.4 M268.5 138.2 L271 141.2 M310.7 129.2 L326.2 126 M286.2 174.8 L282.5 169 M271 141.2 L273 144.5 M265.3 135.3 L288.7 124 M244.6 143.3 L253.1 140.2 M212.2 57.1 L214.8 42.7 M336.7 114.6 L368.8 141.1 M214.2 42.7 L211.6 57 M290.6 123.4 L299.5 134.9 M273.1 188.4 L280.5 186.1 M279.7 90.2 L299.2 85.4 M240.9 148.2 L244.1 151.2 M211.6 57 L210 63.8 M315.2 206.5 L317.5 217.5 L323.2 227.3 M210.6 63.8 L212.2 57.1 M229 131.5 L229.5 136.3 M287.8 239.8 L272 209.7 M272 209.7 L268.7 201.2 M251.5 68.3 L259.3 66.7 M241.9 146.8 L244.6 143.3 M255.8 108.1 L249.1 111.9 M324.9 228.9 L318.3 217.2 L315.8 206.2 M259.2 66.4 L251.4 67.9 M287.5 111.8 L273.5 116.4 M130.6 172.1 L129 165.2 M331.8 115.6 L355.2 99.1 L365.9 94.3 M77 105.2 L82 98.4 L96.4 93.6 M293.1 73.1 L267.4 75.4 M335.9 112.6 L329.7 102.9 L327.5 94 L328.4 82.2 L326.7 76.4 L329.1 67.6 M339.1 188.2 L354.4 186.8 L359.3 191.5 M231 136.2 L229.6 131.8 M280.8 260 L275.2 249.6 M291.6 192.8 L288.2 183.7 M274.9 249.8 L280.5 260.1 M242.8 62.6 L226.2 71 M248.2 166.8 L249.6 162.7 M121.7 211.6 L109.1 218.7 M133.6 178.1 L130.6 172.1 M133.7 139 L128.6 131.9 M254.5 138.7 L254.8 139.2 M241.1 101.8 L236.8 93.4 M158.4 236.4 L153.8 237.9 M270.5 129.6 L268.1 132.7 M156.2 67.7 L141.3 70.1 M248.3 155.8 L246.7 152.3 M280.5 186.1 L288.2 183.7 M254.8 139.2 L254.9 139.6 M313.8 175.4 L304.6 164.3 M122.9 149.2 L126.7 156 M254.3 138.4 L254.5 138.7 M271.6 123 L271.2 127.6 M248.2 131.1 L248 130.8 M343.1 217.5 L324.9 228.9 M113.7 141.1 L96.4 149.1 M63 145.8 L62.1 127.3 M324.9 229.9 L343.9 218.4 M154.8 155 L155.3 155.2 M136.6 182.4 L133.6 178.1 M157.1 153.2 L147.2 156 M85.4 183.1 L91.3 180 M267.7 136.8 L268.5 138.2 M127.8 235.2 L154.9 227.3 M326.2 126 L348.7 126 M248.5 112.1 L245.5 109.5 M228 122.1 L228.5 127.4 M149.4 209.4 L152.1 217.9 M294 115.3 L310.2 113.5 L331.2 107.4 M253.4 199 L247.8 191.6 M229.9 127.5 L229.3 122.4 M164.8 130.9 L164.4 130.4 M131.7 196.2 L118.7 195.5 M249.9 195.4 L250.8 195 M229.3 122.4 L228.3 115.5 M226.7 115.4 L228 122.1 M277.6 140.4 L278.1 142.7 M126.7 156 L128.1 160.7 M297.8 202.6 L291.9 193.4 M94.4 227.3 L97.8 231.5 L101 241.7 M184.3 284.1 L210.7 271.3" fill="none" stroke="#1f3733" stroke-width="2.7" opacity="0.9" stroke-linecap="round" stroke-linejoin="round"/>
</g>
<g data-layer="minor-road-casing">
<path d="M73.6 61.7 L19.7 89.7 L8.7 100.1 M45.4 128.7 L53.7 115.4 L53.9 101.1 L73.7 90.5 L69.1 78.5 M259.2 211.7 L287.3 208 L297.8 202.6 L327.1 193.6 M186.4 182.8 L201.6 178 L211.6 171.6 L237.9 163.7 L247.5 165.1 M239.1 147.1 L224.4 150.5 L203.9 149.8 L174 157.4 M252.7 87 L264.8 82.8 L278.5 87.1 L286.4 87.3 L308.5 74.5 M343.6 249.8 L347.7 249.7 L372.3 222.2 L371.8 219.8 L361.8 214.5 M223.9 162.5 L239.6 194.9 L246.8 204.7 M152.1 217.9 L170.4 212.1 L190.2 201.7 L205.7 197.7 M74.4 188.1 L26.5 194.6 L21.3 189.2 M193.9 91.5 L202.9 83.7 L212.7 80.8 L225.3 83 L236.1 88.2 L242.5 88.5 M167.4 108 L117.8 126.9 M302.2 207 L316.5 201.9 L334 192.2 L350.9 191.2 M69.1 78.3 L66.8 73.1 L68.2 70.1 L87.7 66.2 L86.9 52.9 M89.1 262.7 L88.2 276 L76.4 296.7 M401.6 183.4 L401.8 179.2 L396.3 165.3 L390.2 155.2 L385.3 150.9 M113.3 122 L155.3 106.7 M157.7 74.1 L172.8 82.9 L181.2 90.6 L186.9 93.1 L191.8 92.5 M173.1 197 L183.3 228.6 M287 84.9 L281.7 85.5 L273.3 80.6 L266.8 80.4 L259 81.2 L249.1 85.5 M72.1 111.2 L58.3 101.1 L56.6 102.5 L71.7 111.6 M112.9 98.8 L149.6 84.3 M133.8 76.8 L118.4 84.7 L102 96.6 M259.9 194 L255.3 177 L254.3 163.3 M311.3 188.1 L320.1 188 L337.3 181.6 L350.2 182.5 M38.3 172.2 L79 168.9 M81.3 175.9 L51.6 181 L41.6 180.5 M306.7 228.7 L315.2 226.9 L320.6 221 L334.7 217.5 L340 214 M27.2 35.5 L13 16.6 L1.9 14.9 M306.5 227 L299.2 227.6 L270 237.5 M246.2 34.8 L245.2 26.2 L232.6 7.7 M170.8 232.7 L164.1 203.9 M114.9 33.9 L102.3 38.2 L85.7 51.8 M368.4 79.5 L350.7 88.9 L349.7 94.2 L353.3 100.3 M304 24.6 L308.5 29.7 L308.1 33.2 L302.5 37.8 L294.8 39.7 L288.1 43.8 M333.5 37.7 L332.7 47 L336.4 49.8 L340.4 57.2 L346.8 62.2 M181.7 127.3 L206.4 117.2 L211.2 116 L213.5 117.7 M105.4 220.7 L94 194.2 M192.8 246.5 L202.7 260.7 L205.5 268 L209.2 270.9 M118.5 192.4 L152.9 184.7 M29.3 118.3 L30.5 120.1 L26 121.7 L28.8 126 L37.8 122.7 L35.7 118.6 L30.5 120.1 M343.4 153.5 L349.2 179.5 M131.1 52.8 L115.9 52.4 L102 62.4 M105.4 220.7 L120.5 243.8 M407 6.5 L383.8 25.4 M333.3 291.5 L299.9 294.6 M279.9 133 L308.5 120.4 M202.9 224 L196.8 200.1 M304.5 306.2 L326.1 305 L336.1 302.6 M106 98.5 L132.7 85.7 M388.2 204.8 L401.6 183.4 M361.6 172.9 L393 174.2 M204.7 233.6 L188.9 235 L174.8 239.4 M115.9 204.6 L103.5 204 L85 206.2 M177.6 244 L204.7 233.6 M329.1 62.7 L331.7 57.7 L331.8 51.8 L323.6 41.6 M119.3 62.8 L134.7 61.6 L148.5 66.4 M314.5 287.9 L319.9 310.3 M336.1 307.3 L330.6 285.5 M283.7 125.2 L274.8 113.2 L271.5 105.1 M126 286.5 L138.6 275.3 L139.4 268.1 M133.6 215.7 L128.2 221 L112.1 230.3 M63.9 288.6 L83.5 304.7 M127.4 235.2 L114.6 215.6 M233.3 56 L228.2 34.7 M281.6 127.2 L290.6 137.4 L295.3 146 M334.1 223.5 L328.2 218.3 L324.8 203.9 M281.4 94.1 L308.7 88.6 M55.9 277.7 L72.4 260.7 M120.9 7.7 L98.7 20.3 M152 277.8 L177.5 269.2 M52.2 186 L52.6 165.4 M189.3 265.3 L214.4 256.8 M289.5 187 L313.6 177.7 M90.4 139.6 L82.4 143.9 L73.4 145.5 L68 150 M210.7 271.3 L225.7 288.3 M124.8 156.8 L116.3 158.4 L101.1 165.4 M173.1 197 L182 178 M360.2 28.1 L350.1 20.4 L339.4 16 M373.8 22.9 L385 40.9 M268.5 109.1 L280.6 126.7 M299.2 154.8 L311.6 148.9 L315.4 144.8 L319.6 144.9 M131.6 56.1 L145 55 L153.3 62 M361 102.7 L364.6 107.7 L377.5 117.5 M312.3 47.2 L316.7 66.3 M133.6 228.5 L121.7 211.6 M302.4 175.8 L294.8 183.8 L297 192.7 M17.9 114.4 L15.1 110.3 L25.7 98.2 M395.7 242.7 L397.6 250.2 L394 261.3 M378.1 12.1 L396.9 24.8 M153.9 88.2 L171.1 102.1 M388.7 11.4 L406.1 25.2 M310.2 172.3 L319.3 169.6 L330.5 163 M281.4 94.1 L271 95.7 L258.1 100.6 M131.1 52.8 L135.5 71 M17.7 231.2 L21.3 241.2 L17.8 248.9 M220.4 60.8 L198.2 53.1 M149.7 41 L130.4 34.7 L130.6 33 M263.6 181 L286.2 174.8 M26 109.9 L13.5 94.6 M115.9 204.6 L105.4 220.7 M368.6 140.1 L371.8 139.4 L384.9 150.6 M76.1 85.8 L89.7 88.1 L96.1 93.1 M209.6 70.5 L222.9 78.4 L224.8 82.9 M88.4 217.2 L111.1 212.6 M137.8 222.7 L146.7 239.1 M401.5 274.6 L398.5 282.1 L395.3 282.7 L386.6 279.6 M395.7 182.8 L372.8 179.4 M79 168.9 L101.1 165.4 M254.4 91.5 L276.6 86.2 M309.9 149.5 L302.3 133.2 M343.6 143.7 L321.5 148 M297.7 259.8 L306.1 256.6 L302.6 247.2 M27.4 130 L17.9 114.4 M341.4 170.3 L348.7 169.1 L360.9 175 M136.6 182.4 L114.5 186.9 M74.5 257.9 L78.2 250.1 L89.3 249.3 M111.9 182 L133.6 178.1 M19.7 133.5 L29.9 141.1 L35.7 137.8 M128.8 207.7 L137.8 222.7 M296 145 L316.8 140 M242.4 184.3 L252.2 184.1 L263.6 181 M194.9 94 L204.4 85.3 L210.8 83.5 M151.5 182.5 L164.7 178.1 L166.8 173.1 M322.4 180.9 L342.4 175.3 M350 207.3 L350.9 191.2 M201.4 88.2 L211.5 102.5 M48.2 35.1 L46.6 32.2 L47.5 24.7 L54.5 24.3 M390.6 293 L390.3 300.8 L392.7 308.9 M261.6 100.8 L281.9 95.5 M43.2 231.1 L39.5 237.9 L41.6 238.6 L44.1 234.9 L42 233.3 M350.2 182.5 L371.2 185.3 M264.7 113.3 L284.8 108.2 M342 203.9 L342.6 188.1 M69.1 78.3 L59.3 80.7 L50.7 85.7 M325.7 114.7 L319.5 99.6 M280.5 186.1 L276.7 170.6 M100.1 135.2 L116.4 125.5 M335.9 149.6 L356.9 148.6 M346.1 66 L333.6 72.1 L327.6 72.1 M285 24.1 L284.1 26.6 L269.6 33.6 M348.2 61.6 L341.1 55.9 L337.2 48.7 M225 196.9 L206.4 203.9 M95.3 142.8 L98 158.2 M100.8 106.4 L111.6 119.8 M76.1 20.7 L77.1 5.1 M302.3 92.3 L283 97.9 M76.2 5.1 L75 20.5 M281.9 37.3 L276.1 27.3 L272.2 24 M342.7 8.3 L338.6 12.1 L336.3 22.3 M257 47.3 L248.2 37.1 L244.7 35.5 M206.1 42.1 L204.4 51.2 L206.8 56.8 M188 310.5 L200.7 298.6 M386.8 74.6 L376.5 78.9 L368.4 79.5 M371.9 208.9 L380.9 212.1 L386.1 205.9 M252.8 136.1 L233.4 139.9 M278.5 107 L282.1 115.2 L287.7 120.2 M225.6 90.6 L234.6 104 M222.5 243.7 L228.5 243.4 L232.2 253.4 M74.1 272.4 L57.6 264 M63.4 180.8 L69.8 181.3 L82.2 177.7 M183 233.4 L192.8 246.5 M41.2 284.6 L34.9 288.4 L33.7 297.1 M75 22.5 L74.6 30.6 L77.4 37.1 M164.1 29 L163.3 27.6 L176.5 18.9 M287 125 L298 137.3 M372 179.4 L367.9 193.6 M205.7 197.7 L223.5 191.6 M48.1 281.5 L62.3 291.4 M235.2 32.3 L252.3 25.9 M150.3 91.6 L163.8 87.3 L164.9 84.2 M99.3 259.2 L94.9 245.1 M250.9 241.3 L246.7 233.5 L246 227.5 M189.3 265.3 L182 251.9 M209.4 183.6 L204.4 169.7 M288.1 107.1 L306.1 102.2 M21.4 121 L38.5 114.6 M312.9 243.7 L318.8 243.5 L329.1 237.8 M41.1 150.2 L52.5 138.8 M265.1 67.9 L283.2 64" fill="none" stroke="#fbf7eb" stroke-width="3.4" opacity="0.62" stroke-linecap="round" stroke-linejoin="round"/>
</g>
<g data-layer="minor-road">
<path d="M73.6 61.7 L19.7 89.7 L8.7 100.1 M45.4 128.7 L53.7 115.4 L53.9 101.1 L73.7 90.5 L69.1 78.5 M259.2 211.7 L287.3 208 L297.8 202.6 L327.1 193.6 M186.4 182.8 L201.6 178 L211.6 171.6 L237.9 163.7 L247.5 165.1 M239.1 147.1 L224.4 150.5 L203.9 149.8 L174 157.4 M252.7 87 L264.8 82.8 L278.5 87.1 L286.4 87.3 L308.5 74.5 M343.6 249.8 L347.7 249.7 L372.3 222.2 L371.8 219.8 L361.8 214.5 M223.9 162.5 L239.6 194.9 L246.8 204.7 M152.1 217.9 L170.4 212.1 L190.2 201.7 L205.7 197.7 M74.4 188.1 L26.5 194.6 L21.3 189.2 M193.9 91.5 L202.9 83.7 L212.7 80.8 L225.3 83 L236.1 88.2 L242.5 88.5 M167.4 108 L117.8 126.9 M302.2 207 L316.5 201.9 L334 192.2 L350.9 191.2 M69.1 78.3 L66.8 73.1 L68.2 70.1 L87.7 66.2 L86.9 52.9 M89.1 262.7 L88.2 276 L76.4 296.7 M401.6 183.4 L401.8 179.2 L396.3 165.3 L390.2 155.2 L385.3 150.9 M113.3 122 L155.3 106.7 M157.7 74.1 L172.8 82.9 L181.2 90.6 L186.9 93.1 L191.8 92.5 M173.1 197 L183.3 228.6 M287 84.9 L281.7 85.5 L273.3 80.6 L266.8 80.4 L259 81.2 L249.1 85.5 M72.1 111.2 L58.3 101.1 L56.6 102.5 L71.7 111.6 M112.9 98.8 L149.6 84.3 M133.8 76.8 L118.4 84.7 L102 96.6 M259.9 194 L255.3 177 L254.3 163.3 M311.3 188.1 L320.1 188 L337.3 181.6 L350.2 182.5 M38.3 172.2 L79 168.9 M81.3 175.9 L51.6 181 L41.6 180.5 M306.7 228.7 L315.2 226.9 L320.6 221 L334.7 217.5 L340 214 M27.2 35.5 L13 16.6 L1.9 14.9 M306.5 227 L299.2 227.6 L270 237.5 M246.2 34.8 L245.2 26.2 L232.6 7.7 M170.8 232.7 L164.1 203.9 M114.9 33.9 L102.3 38.2 L85.7 51.8 M368.4 79.5 L350.7 88.9 L349.7 94.2 L353.3 100.3 M304 24.6 L308.5 29.7 L308.1 33.2 L302.5 37.8 L294.8 39.7 L288.1 43.8 M333.5 37.7 L332.7 47 L336.4 49.8 L340.4 57.2 L346.8 62.2 M181.7 127.3 L206.4 117.2 L211.2 116 L213.5 117.7 M105.4 220.7 L94 194.2 M192.8 246.5 L202.7 260.7 L205.5 268 L209.2 270.9 M118.5 192.4 L152.9 184.7 M29.3 118.3 L30.5 120.1 L26 121.7 L28.8 126 L37.8 122.7 L35.7 118.6 L30.5 120.1 M343.4 153.5 L349.2 179.5 M131.1 52.8 L115.9 52.4 L102 62.4 M105.4 220.7 L120.5 243.8 M407 6.5 L383.8 25.4 M333.3 291.5 L299.9 294.6 M279.9 133 L308.5 120.4 M202.9 224 L196.8 200.1 M304.5 306.2 L326.1 305 L336.1 302.6 M106 98.5 L132.7 85.7 M388.2 204.8 L401.6 183.4 M361.6 172.9 L393 174.2 M204.7 233.6 L188.9 235 L174.8 239.4 M115.9 204.6 L103.5 204 L85 206.2 M177.6 244 L204.7 233.6 M329.1 62.7 L331.7 57.7 L331.8 51.8 L323.6 41.6 M119.3 62.8 L134.7 61.6 L148.5 66.4 M314.5 287.9 L319.9 310.3 M336.1 307.3 L330.6 285.5 M283.7 125.2 L274.8 113.2 L271.5 105.1 M126 286.5 L138.6 275.3 L139.4 268.1 M133.6 215.7 L128.2 221 L112.1 230.3 M63.9 288.6 L83.5 304.7 M127.4 235.2 L114.6 215.6 M233.3 56 L228.2 34.7 M281.6 127.2 L290.6 137.4 L295.3 146 M334.1 223.5 L328.2 218.3 L324.8 203.9 M281.4 94.1 L308.7 88.6 M55.9 277.7 L72.4 260.7 M120.9 7.7 L98.7 20.3 M152 277.8 L177.5 269.2 M52.2 186 L52.6 165.4 M189.3 265.3 L214.4 256.8 M289.5 187 L313.6 177.7 M90.4 139.6 L82.4 143.9 L73.4 145.5 L68 150 M210.7 271.3 L225.7 288.3 M124.8 156.8 L116.3 158.4 L101.1 165.4 M173.1 197 L182 178 M360.2 28.1 L350.1 20.4 L339.4 16 M373.8 22.9 L385 40.9 M268.5 109.1 L280.6 126.7 M299.2 154.8 L311.6 148.9 L315.4 144.8 L319.6 144.9 M131.6 56.1 L145 55 L153.3 62 M361 102.7 L364.6 107.7 L377.5 117.5 M312.3 47.2 L316.7 66.3 M133.6 228.5 L121.7 211.6 M302.4 175.8 L294.8 183.8 L297 192.7 M17.9 114.4 L15.1 110.3 L25.7 98.2 M395.7 242.7 L397.6 250.2 L394 261.3 M378.1 12.1 L396.9 24.8 M153.9 88.2 L171.1 102.1 M388.7 11.4 L406.1 25.2 M310.2 172.3 L319.3 169.6 L330.5 163 M281.4 94.1 L271 95.7 L258.1 100.6 M131.1 52.8 L135.5 71 M17.7 231.2 L21.3 241.2 L17.8 248.9 M220.4 60.8 L198.2 53.1 M149.7 41 L130.4 34.7 L130.6 33 M263.6 181 L286.2 174.8 M26 109.9 L13.5 94.6 M115.9 204.6 L105.4 220.7 M368.6 140.1 L371.8 139.4 L384.9 150.6 M76.1 85.8 L89.7 88.1 L96.1 93.1 M209.6 70.5 L222.9 78.4 L224.8 82.9 M88.4 217.2 L111.1 212.6 M137.8 222.7 L146.7 239.1 M401.5 274.6 L398.5 282.1 L395.3 282.7 L386.6 279.6 M395.7 182.8 L372.8 179.4 M79 168.9 L101.1 165.4 M254.4 91.5 L276.6 86.2 M309.9 149.5 L302.3 133.2 M343.6 143.7 L321.5 148 M297.7 259.8 L306.1 256.6 L302.6 247.2 M27.4 130 L17.9 114.4 M341.4 170.3 L348.7 169.1 L360.9 175 M136.6 182.4 L114.5 186.9 M74.5 257.9 L78.2 250.1 L89.3 249.3 M111.9 182 L133.6 178.1 M19.7 133.5 L29.9 141.1 L35.7 137.8 M128.8 207.7 L137.8 222.7 M296 145 L316.8 140 M242.4 184.3 L252.2 184.1 L263.6 181 M194.9 94 L204.4 85.3 L210.8 83.5 M151.5 182.5 L164.7 178.1 L166.8 173.1 M322.4 180.9 L342.4 175.3 M350 207.3 L350.9 191.2 M201.4 88.2 L211.5 102.5 M48.2 35.1 L46.6 32.2 L47.5 24.7 L54.5 24.3 M390.6 293 L390.3 300.8 L392.7 308.9 M261.6 100.8 L281.9 95.5 M43.2 231.1 L39.5 237.9 L41.6 238.6 L44.1 234.9 L42 233.3 M350.2 182.5 L371.2 185.3 M264.7 113.3 L284.8 108.2 M342 203.9 L342.6 188.1 M69.1 78.3 L59.3 80.7 L50.7 85.7 M325.7 114.7 L319.5 99.6 M280.5 186.1 L276.7 170.6 M100.1 135.2 L116.4 125.5 M335.9 149.6 L356.9 148.6 M346.1 66 L333.6 72.1 L327.6 72.1 M285 24.1 L284.1 26.6 L269.6 33.6 M348.2 61.6 L341.1 55.9 L337.2 48.7 M225 196.9 L206.4 203.9 M95.3 142.8 L98 158.2 M100.8 106.4 L111.6 119.8 M76.1 20.7 L77.1 5.1 M302.3 92.3 L283 97.9 M76.2 5.1 L75 20.5 M281.9 37.3 L276.1 27.3 L272.2 24 M342.7 8.3 L338.6 12.1 L336.3 22.3 M257 47.3 L248.2 37.1 L244.7 35.5 M206.1 42.1 L204.4 51.2 L206.8 56.8 M188 310.5 L200.7 298.6 M386.8 74.6 L376.5 78.9 L368.4 79.5 M371.9 208.9 L380.9 212.1 L386.1 205.9 M252.8 136.1 L233.4 139.9 M278.5 107 L282.1 115.2 L287.7 120.2 M225.6 90.6 L234.6 104 M222.5 243.7 L228.5 243.4 L232.2 253.4 M74.1 272.4 L57.6 264 M63.4 180.8 L69.8 181.3 L82.2 177.7 M183 233.4 L192.8 246.5 M41.2 284.6 L34.9 288.4 L33.7 297.1 M75 22.5 L74.6 30.6 L77.4 37.1 M164.1 29 L163.3 27.6 L176.5 18.9 M287 125 L298 137.3 M372 179.4 L367.9 193.6 M205.7 197.7 L223.5 191.6 M48.1 281.5 L62.3 291.4 M235.2 32.3 L252.3 25.9 M150.3 91.6 L163.8 87.3 L164.9 84.2 M99.3 259.2 L94.9 245.1 M250.9 241.3 L246.7 233.5 L246 227.5 M189.3 265.3 L182 251.9 M209.4 183.6 L204.4 169.7 M288.1 107.1 L306.1 102.2 M21.4 121 L38.5 114.6 M312.9 243.7 L318.8 243.5 L329.1 237.8 M41.1 150.2 L52.5 138.8 M265.1 67.9 L283.2 64" fill="none" stroke="#69776e" stroke-width="1.25" opacity="0.58" stroke-linecap="round" stroke-linejoin="round"/>
</g>
</g>
<g data-layer="north-up-compass" fill="none" stroke="#233934" stroke-linecap="round" stroke-linejoin="round" opacity="0.62">
<path d="M382 48L382 23" stroke-width="1.8"/>
<path d="M382 23L373 39M382 23L391 39" stroke-width="1.8"/>
<circle cx="382" cy="48" r="13" stroke-width="1.1" opacity="0.38"/>
</g>
<rect x="8" y="8" width="404" height="304" rx="16" fill="none" stroke="#233934" stroke-width="1.4" opacity="0.44"/>
</svg>
