<svg xmlns="http://www.w3.org/2000/svg" viewBox="0 0 420 320" role="img" aria-label="Unlabeled north-up street-grid crop" data-orientation="north-up">
<metadata>{"orientation":"north-up","projection":"local-web-mercator"}</metadata>
<defs>
<clipPath id="mapCrop"><rect x="8" y="8" width="404" height="304" rx="16"/></clipPath>
</defs>
<rect width="420" height="320" fill="#ede7d8"/>
<rect x="8" y="8" width="404" height="304" rx="16" fill="#f7f1e3" stroke="#d8cbb2" stroke-width="1.25"/>
<g clip-path="url(#mapCrop)">
<g data-layer="major-road-casing">
<path d="M195.7 173.4 L208.9 173.4 M195.7 172.3 L195.7 156 M208.9 173.4 L215.6 173.4 M230.3 173.4 L244.1 173.4 M230.3 180.9 L230.3 173.4 M218.1 173.4 L222.6 173.4 M248.3 180.1 L247.9 173.4 M227.3 173.4 L222.6 173.4 M170.6 156.3 L163.2 157.2 M191.4 173.4 L195.7 173.4 M267.2 179.9 L268.7 189.5 L266.9 199.3 M185.4 158.7 L193.4 158.7 M153 156.9 L163.2 157.7 M163.2 157.2 L153 156.5 M195.7 150 L195.8 143.6 M192.8 154.2 L185.4 156.1 M133.3 147.6 L128.6 162.1 L134.3 174.5 M163.2 157.7 L167.6 158.1 M167.6 158.1 L170.6 158.6 M248.4 184.9 L248.3 180.1 M170.6 158.6 L183 158.7 M220.7 205.4 L214.6 196.2 L203.8 192.8 M170.5 173.4 L177.3 173.4 M182.3 173.4 L185.4 173.4 M185.3 170.9 L178 167.1 M248.2 189 L248.4 184.9 M230.3 185.6 L230.4 182.5 M135.9 174.8 L129.8 165 L130 158.5 M207.1 127.1 L200.1 127.1 M146.5 173.4 L135 165.5 M153 156.5 L143.2 156.4 M192.5 142.5 L185.4 140.1 M170.5 173.4 L162.5 173.4 M217.6 193.3 L203.8 192.8 M267.2 173.5 L267.2 179.9 M257.6 173.5 L250.2 173.4 M248.3 192.8 L248.2 189 M230.4 141.2 L237.8 138.7 M209.2 127.1 L213.9 127.1 M146.9 156.9 L153 156.9 M213.9 127.1 L218.3 127.1 M230.4 127.1 L237 127.1 M218.3 127.1 L222.6 127.1 M179.1 196 L154.1 195.2 M230.3 193.5 L230 198.7 M253 133.1 L241.1 137.1 M170.3 196.8 L188.7 196.3 M252.3 200.2 L249 195.9 M249 195.9 L248.3 192.8 M232.6 193.5 L247.7 193.5 M189.3 196.3 L202 196.3 M250.8 193.5 L276.6 193.5 M199.4 191.8 L191.8 191.9 M222.3 192.9 L230.3 193.5 M210.6 196.8 L217.2 202.4 M209.2 121.5 L209.2 113.3 M193.5 121.5 L188.5 113.3 M146.6 167 L146.6 158.5 M152.7 120.9 L152.7 95.5 M231.6 114.5 L240.3 116.8 M250.2 119.8 L241.1 116.8 M146.4 181.4 L146.5 173.4 M258.4 131.9 L266.9 129 M200.2 109.2 L190.9 112.3 M230.4 99 L214.4 104.4 M240.2 116.3 L232.4 113.3 M276.6 167.6 L269.7 165.8 M162.5 150.1 L185.4 150 M276.6 184.4 L276.6 175.9 M266.6 180.4 L235.5 180.8 M138 188.9 L105.7 200.1 M195.7 167 L185.3 167 M200.2 103.1 L187 98.7 M117.5 148.6 L117.2 161.5 L119.3 165.9 M135.1 182.3 L127.5 177.9 L125.4 173.1 M185.4 150 L195.7 150 M230.3 188.8 L257.9 186.9 L272.9 188.3 M241.1 155.5 L230.3 155.5 M195.8 145.7 L185.4 145.7 M230.3 145.8 L222.6 145.8 M241.1 145.8 L230.3 145.8 M226.6 154.6 L222.7 154.3 M230.3 155.5 L226.6 154.6 M146.6 140.2 L168.9 140.2 M185.4 145.7 L177.3 145.7 M177.3 145.7 L164.8 145.6 M170.6 156.3 L170.6 147.8 M215.9 137.2 L218.2 132.4 M209.5 137.3 L209.4 132.5 M208.9 132.5 L208.9 137.3 M162.6 132.4 L162.5 145.6 M177.3 140.2 L185.4 140.1 M230.3 180.9 L225.4 182.1 M247.9 173.4 L247.7 180.6 M248.1 145.8 L241.1 145.8 M249 180.6 L250.2 173.4 M209.2 126.6 L200.1 126.6 M152.5 145.7 L152.6 129.8 M209 127.6 L208.9 132.5 M200.1 132.4 L201.7 135.7 M257.8 155.5 L257.8 162.6 M200.1 127.6 L200.1 132.4 M209.4 132.5 L209.5 128.3 M162.5 145.6 L149 145.6 M158.7 206.2 L175.5 219 L187.6 225.6 M285.8 161.4 L267.1 161.4 M170.7 145.7 L170.7 140.2 M230.3 126.6 L222.6 126.6 M170.7 140.2 L177.3 140.2 M232.4 113.1 L253 113.2 M201.7 135.7 L202.6 137.3 M253 155.5 L248.1 155.5 M248.1 115.8 L248.1 92.8 M162.6 135.2 L146.7 135.2 M152.4 150 L162.5 150.1 M243.1 155.5 L241.1 155.5 M233.6 213.9 L245.7 217.2 L259.7 216.6 M132.7 165.2 L132.5 158.9 L142.1 156.9 M228.9 211 L226.1 208.6 L228 207.2 M205.3 127.6 L207.1 127.1 M228.3 228.8 L224.3 229.5 L221.8 227.9 L225.3 221.9 M250.5 215.1 L240 215.4 M189.6 127.7 L191.2 127.1 M131.2 152 L127 158.1 M310.5 163.4 L312.2 179.2 M226.2 127.1 L226.9 127.6 M258.7 215.4 L248.1 216.2 M182.1 127.7 L183.3 127.1 M177.9 127.1 L179.5 127.7 M251.7 205 L248 205 M312.9 180.8 L314.5 166.5 M174.2 127.7 L175.8 127.1 M243 127.1 L244.2 127.6 M246.1 127.6 L247.4 127.1 M167.5 127.7 L169 127.1 M119.1 134.5 L117.4 135.3 M222.9 121.5 L225.3 121.5 M222 121.7 L222.9 121.5 M257.6 210.1 L257.5 213.4 L258.8 213.4 M257 213.3 L258.1 210.1 M293 161.3 L290.3 160.4 M256.7 211.2 L257 213.3 M258.8 213.4 L258.9 211.2 M129.7 150 L130.1 151.2 M146.2 198.3 L147.4 197.5 M290.4 132.4 L288.3 132.3 M191.2 127.1 L195.5 127.1 M237.3 223.8 L249.9 219.4 L253.5 215 M130 158.5 L134.4 149.8 M142.1 156.9 L146.9 156.9 M140.4 173.1 L146.5 173.4 M237 127.1 L241.1 127.1 M183.3 127.1 L179.7 127.1 M253.5 204.5 L252.3 200.2 M230 200.6 L230 205.5 M160 173.4 L156.2 173.4 M248.1 127.1 L253 127.1 M279.5 215.9 L259 216 M237.3 223.8 L249.1 218 M138 179.4 L135.9 174.8 M269.5 173.5 L276.6 173.5 M134.2 146.4 L129.7 140.5 M172.9 127.1 L175.8 127.1 M220.8 223.2 L216.4 227.1 L209.8 228.6 M128.3 140.4 L133 146.3 M151.8 173.4 L146.5 173.4 M136 172.2 L140.4 173.1 M216.7 228.1 L223.3 220.9 M253 127.1 L253 123.2 M120 169.3 L95.3 173.3 M285.9 150.1 L285.8 139.6 M253.5 208.4 L253.5 204.5 M256.8 217.1 L272.6 216.9 M259 216 L248.2 216.5 M97.9 173.5 L120.3 169.9 M227.7 215 L229.4 212.3 M153.9 127.3 L160.7 127.2 M311.8 161.1 L312.2 179.2 M198.1 231.1 L176.9 251.5 M228.8 212 L227.3 214.5 M160.7 126.9 L153.9 126.9 M266.9 201.2 L266.9 206.8 M248.2 216.5 L240.7 220.4 M228.4 229 L222.1 230.7 L213.7 230.1 M134.4 149.8 L134.2 146.4 M121.8 132.6 L128 140.2 M125.6 170.1 L132 171.4 M132 171.4 L136 172.2 M211.1 229.7 L198.1 231.1 M253 119.8 L253 114.9 M224.4 219.5 L226.5 216.5 M240.7 220.4 L234.1 225.2 M209.8 228.6 L198.1 231.1 M253.5 211.8 L253.5 208.4 M195.7 234.2 L175.3 254.5 M227.3 214.5 L225.9 216.3 M166.5 127.1 L168.3 127.1 M142.5 127.2 L150.9 127.3 M127.8 165.5 L122.5 168.6 M225.9 216.3 L224.3 218.5 M285.8 161.4 L285.9 155.5 M312.9 180.8 L312.7 165.5 M150.9 126.9 L142.5 126.9 M249.1 218 L256.8 217.1 M312.7 156.1 L312.8 141.6 M159.4 246.2 L146.1 232.6 L132.6 223.4 M175.8 254.9 L194.7 236 M129.7 140.5 L125.4 136.3 M231.2 228.5 L237.3 223.8 M311.9 143.7 L311.9 156.1 M253.5 215 L253.5 211.8 M309.5 126.6 L311.6 131.5 L311.9 141.4 M108.9 224 L130.6 223.2 L149.3 236.3 M224.3 218.5 L222.8 220.5 M222.8 220.5 L220.8 223.2 M312.2 179.2 L313.4 195.3 M312.8 141.6 L312.8 131.4 L310.3 126.6 M215.5 231.7 L225.8 231 M285.9 88.9 L285.9 113.2 M205 235.7 L215.5 231.7 M253 113.2 L253 107.9 M108.7 127.3 L121.8 132.6 M130.4 164.6 L127.8 165.5 M280.7 173.5 L285.9 173.5 M267 207.8 L267 211.7 M316.6 196.8 L313.3 191.5 L312.9 180.8 M106.6 199.2 L97.3 189.3 L83.2 183.7 M285.8 166.7 L285.8 163.1 M146.7 195.9 L157.3 196.4 M267.4 129 L276.6 129 M295.7 216 L279.5 215.9 M138.5 192.1 L135.3 187.4 L135.9 183.1 M276.6 125.2 L267.1 125.2 M303 139.2 L303 155.5 M272.6 216.9 L282.3 216.7 M232.2 226.6 L228.4 229 M124.1 172.6 L117.6 160.7 M303.1 116.6 L309.5 126.6 M205 235.7 L210.1 231.6 M134 127.2 L140.2 127.2 M267 214.4 L267.1 218.4 M140.2 126.9 L134 126.9 M285.9 131.8 L285.9 127.1 M276.6 129 L285.9 131.8 M134 126.9 L124.9 126.9 M318.3 203.6 L319.3 209.4 L317.2 213.3 L304.1 216 M210.1 231.6 L213.9 229.7 M209.1 99.7 L208.3 105.2 M213.9 229.7 L216.7 228.1 M119.3 117 L128.9 100.9 L134.1 98.2 L141 98.3 M285.8 137.3 L285.9 134.4 M190.2 250.5 L200.1 240.6 M116.2 126.5 L104.1 126.7 M267.1 113.2 L267.1 119.8 M310.3 126.6 L304.7 118.4 M209.3 95.5 L209.3 82.3 M220.4 219.9 L215.8 226.9 M225.8 231 L229.2 229.6 M147.3 103.7 L146.7 115 M276.6 193.5 L285.9 193.5 M69.1 158.6 L74.9 169.9 L81.8 191.2 L86.3 197.7 M104.1 126.7 L87.1 126.6 L60.3 119.9 M285.9 113.2 L285.9 119.8 M114.7 210 L107.3 200.3 M114.7 136.3 L117.5 148.6 M297.6 216.6 L318 216.6 M81.7 182.8 L78.5 179.2 L66.9 153.5 M129.6 141.9 L121 137.3 M312.7 165.5 L312.7 161.1 M182.8 103.7 L179.5 98.6 M90.6 127.1 L107.1 127.1 M253 104.4 L253 101.8 M292.6 120.2 L303.1 116.6 M108.7 127.3 L115.8 127.6 M123.3 217.7 L115.8 210.9 M282.3 216.7 L288.2 216.6 M124.9 127.2 L129.7 127.2 M202.7 238 L205 235.7 M311.8 157.2 L311.8 159.8 M181 96.2 L178.5 93.2 L174.3 94.1 M312.7 159.8 L312.7 157.3 M276.6 212.7 L276.6 205.6 M200.1 240.6 L202.7 238 M83.6 209.2 L102.5 230.4 M230.3 93.3 L230.4 85.6 M297.6 217 L309.2 217.1 M253 100.2 L253 98.3 M311.9 141.4 L311.9 143.7 M313.4 195.3 L317.1 201.3 M119.9 126.7 L118.2 126.6 M267.1 86.4 L257.8 89.5 M90.1 174.2 L81.9 174.8 L73.5 172.5 M104.4 213.9 L110.8 218.7 L113.1 223.3 M170.8 93.3 L159.8 89.6 M318.1 216 L304.1 216 M141.1 275.2 L141.7 263.2 L134.2 251.3 L129.6 247.6 L117.3 243 L108.1 234.4 M307.5 173.4 L307.5 165.9 M290.1 216.6 L295.7 216.6 M290.1 216.6 L295.8 216.9 M267.1 100.3 L267.1 106.1 M245.1 94.4 L253 91.8 M253 91.2 L244.8 93.9 M255.7 90.9 L261.7 88.9 M132.6 223.4 L127.6 220.8 M245.6 155.5 L243.1 155.5 M200.1 127.6 L205.3 127.6 M127.6 220.8 L123.3 217.7 M318 216.6 L345.3 222.8 M257.8 150.1 L257.8 155.5 M344.2 221.8 L318.1 216 M247.4 205 L231.1 205 M232.8 180.8 L230.3 180.9 M195.5 126.6 L188.9 126.6 M235.5 180.8 L232.8 180.8 M189.6 127.7 L195.5 127.7 M257.8 139.1 L257.8 145.8 M263.1 225.3 L257.2 221.7 M304.1 216 L297.6 216 M209.4 127.6 L213.9 127.6 M117.8 244.3 L132.8 250.9 L140 261.6 L141.1 266.6 M222.6 126.6 L225.2 121.7 M72.1 122.8 L90.6 127.1 M304.7 118.4 L304.5 116.1 M253 145.8 L248.1 145.8 M185.5 126.6 L177.3 126.6 M213.9 126.6 L209.2 126.6 M162.5 173.4 L162.5 168.3 M267.1 145.5 L257.8 145.8 M213.9 127.6 L218.2 127.6 M93.7 207.9 L100.4 219.4 M248.1 155.5 L245.6 155.5 M225.5 187.8 L228.9 188.6 M225.1 127.6 L230.4 127.6 M319.7 201.7 L316.6 196.8 M318.4 214.1 L321 210.6 L321.3 205.3 M218.2 132.4 L218.2 130.4 M218.1 126.6 L213.9 126.6 M205.3 127.6 L209 127.6 M72.1 191.2 L82.2 207 M257.5 167.6 L257.6 171.9 M236.3 126.6 L230.3 126.6 M162.4 159.8 L162.4 163.6 M257.9 132.1 L257.8 139.1 M162.5 145.6 L162.5 150.1 M53 135.7 L61.3 140.8 L67.5 155.8 M111.9 216.2 L108.9 210.9 M222.6 126.6 L218.4 126.6 M170.8 256.4 L162.1 249.1 M200.1 126.6 L196.1 125.8 M262.9 226 L270.7 231.9 M257.8 145.8 L257.8 150.1 M154.3 241.4 L158.9 246.4 M83 206.8 L74 192.4 M257.9 90.1 L257.9 113.2 M257.8 145.8 L253 145.8 M83.7 175.4 L91.3 174.5 M150.2 181.4 L155.6 174.7 M267.1 87 L275.4 84.3 M170.6 147.8 L170.7 145.7 M241.1 127.6 L248.1 127.6 M102.5 230.4 L116.4 243.4 M276.7 230.2 L276.9 221.4 M113.8 223.3 L112.2 217 M260.7 62.8 L230.4 62.8 M186.7 268.1 L173 258.1 M177.3 121.7 L185.5 121.7 M183 257.7 L189 251.8 M95.3 173.3 L91.1 174 M273 232.8 L265.1 226.9 M91.4 174.8 L95.5 174 M91.3 174.5 L95.4 173.8 M162.6 135.2 L168.9 134.6 M84.8 175.9 L91.4 174.8 M253 155.5 L255.9 155.5 M267.1 88.9 L267.1 95.5 M218.2 130.4 L218.2 129 M162.5 156 L162.4 158.7 M257.6 164.8 L257.5 167.6 M170.8 127.7 L177.3 127.7 M247.7 188.6 L247.7 193.5 M162.5 151.5 L162.5 154.3 M261.4 155.4 L267.1 155.5 M276.6 150.5 L267.1 150.4 M230.4 83.1 L230.3 75.7 M170.7 140.2 L170.7 137.5 M225.2 121.7 L227.9 117.3 M151.5 238.4 L154.3 241.4 M307.5 179.9 L282.4 180.2 M258.3 170.8 L258.3 167.9 M309.2 217.1 L316.7 215.3 M218.2 129 L218.2 127.6 M222.6 127.6 L225.1 127.6 M241.1 126.6 L236.3 126.6 M113.8 227.2 L114.3 237.4 M321.5 110.2 L310.9 113.7 M149.3 236.3 L151.5 238.4 M258.3 167.9 L258.2 165.5 M93.2 220.1 L84.4 209 M188.9 126.6 L185.5 126.6 M162.7 90.6 L162.7 110.7 M155.6 85.1 L162.5 76.4 M178.7 262.8 L187.4 269.8 L192 276.7 L192.3 284.1 L188.8 290.9 M73 191.2 L65.5 183.8 L66.1 171.9 M258.2 173.5 L258.3 170.8 M162.4 164.5 L162.3 166.6 M182.1 127.7 L185.4 127.7 M276.6 180.3 L266.6 180.4 M230.3 75.7 L230.4 62.8 M86.3 197.7 L91.5 204.4 M228.9 188.6 L230.3 188.8 M258.2 165.5 L258.1 163.4 M115 236.8 L114.5 227.8 M158.7 206.2 L160.9 203.6 L157.3 196.4 M258.4 155.4 L261.4 155.4 M307.6 193.5 L307.5 199.4 M170.7 137.5 L170.7 135.2 M170.7 135.2 L170.8 132.4 M162.6 127.1 L162.6 132.4 M162.5 154.3 L162.5 156 M305.9 166.8 L285.8 166.7 M321.3 205.3 L319.7 201.7 M152.4 150 L152.5 145.7 M209.5 128.3 L209.4 127.6 M164.4 252.1 L170.8 257.3 M245.2 126.6 L241.1 126.6 M134.1 140.2 L146.6 140.2 M257.8 100.2 L290.4 100.3 M276.6 188.3 L295 188 M170.7 121.7 L177.3 121.7 M185.4 127.7 L187.6 127.7 M187.6 127.7 L189.6 127.7 M170.7 121.7 L170.9 115 M168.9 140.2 L170.7 140.2 M317.1 201.3 L318.3 203.6 M141.1 82.2 L113.5 62.7 M164.8 145.6 L162.5 145.6 M163.7 270.5 L171.9 258.7 M162.8 165.8 L162.5 167.1 M162.5 150.1 L162.5 151.5 M175.2 126.6 L170.9 126.6 M76.4 174.3 L83.7 175.4 M152.4 153.5 L152.4 150 M179.5 127.7 L182.1 127.7 M255.9 155.5 L257.3 155.5 M162.7 113.4 L162.6 121.7 M101.4 228.5 L93.2 220.1 M276.6 165.4 L285.8 163.1 M257.6 171.9 L257.6 173.5 M169.9 82.3 L165.9 75.7 M162.5 168.3 L162.5 167.1 M232.7 109.3 L238.1 100.4 M257.8 127.1 L257.9 131.5 M209.4 127.6 L209.2 127.1 M209.2 127.1 L209 127.6 M170.8 130.5 L170.8 127.7 M146.6 145.6 L137.8 146.1 M162.1 249.1 L159.4 246.2 M87.1 174.4 L82.7 173.8 M307.2 115.2 L304.5 116.1 M285.9 82.3 L285.9 88.9 M257.6 163.8 L257.6 164.8 M90.1 174.2 L87.1 174.4 M195.5 127.7 L196.1 127.1 M158.9 246.4 L161.7 249.4 M152.7 121.7 L162.6 121.7 M218.2 127.6 L218.3 127.1 M257.4 196.7 L257.4 203.6 M230.4 62.8 L212 62.8 M200.1 127.1 L200.1 127.6 M162.8 165 L162.8 165.8 M147.7 150 L152.4 150 M162.4 163.6 L162.4 164.5 M196.1 127.1 L195.5 126.6 M331.3 173.5 L321.5 173.5 M258.1 163.4 L257.8 162.6 M170.8 132.4 L170.8 130.5 M177.3 127.7 L179.5 127.7 M170.9 126.6 L170.7 123.3 M221.1 248.5 L196.4 231.6 M209 127.6 L209.4 127.6 M258.3 203.3 L258.4 196.7 M290.3 150.1 L290.4 139.1 M256.7 244.1 L234 227.1 M162.4 158.7 L162.4 159.4 M222.6 127.1 L222.6 126.6 M233.4 227.7 L255.9 244.5 M162.6 121.7 L162.6 126.6 M192.6 285.8 L193 277.1 L186.7 268.1 M276.6 214.7 L256.9 214.2 M257.8 122.4 L257.8 127.1 M248.1 126.6 L245.2 126.6 M167.5 127.7 L170.8 127.7 M75.7 174 L67.7 179 M162.4 164.5 L162.8 165 M80.6 176.6 L84.8 175.9 M143.5 91.2 L138.3 86.1 M241.1 100.2 L257.8 100.2 M67.3 167.1 L65.2 157.6 M161.7 249.4 L164.4 252.1 M176.9 251.5 L174.6 253.7 M162.3 166.6 L162.5 167.1 M177.3 126.6 L175.2 126.6 M257.7 163.3 L257.6 163.8 M285.9 80.1 L285.6 69.7 M248.1 121.7 L253 121.7 M162.4 159.4 L162.4 159.8 M333.8 106.1 L321.5 110.2 M321.5 110.8 L333.4 106.8 M257.3 155.5 L257.8 155.5 M65.5 181.4 L75.3 178.3 M257.9 113.2 L257.9 119.8 M257.8 162.6 L257.7 163 M162.6 121.7 L168.1 121.8 M114.3 226.1 L113.8 223.3 M272.8 233.5 L279.4 238.8 M257.7 163 L257.7 163.3 M103.8 222.2 L108.9 224 M257.8 155.5 L258.4 155.4 M218.4 126.6 L218.1 126.6 M63.4 153.3 L65 163.1" fill="none" stroke="#fcf7e8" stroke-width="6.4" opacity="0.92" stroke-linecap="round" stroke-linejoin="round"/>
</g>
<g data-layer="major-road">
<path d="M195.7 173.4 L208.9 173.4 M195.7 172.3 L195.7 156 M208.9 173.4 L215.6 173.4 M230.3 173.4 L244.1 173.4 M230.3 180.9 L230.3 173.4 M218.1 173.4 L222.6 173.4 M248.3 180.1 L247.9 173.4 M227.3 173.4 L222.6 173.4 M170.6 156.3 L163.2 157.2 M191.4 173.4 L195.7 173.4 M267.2 179.9 L268.7 189.5 L266.9 199.3 M185.4 158.7 L193.4 158.7 M153 156.9 L163.2 157.7 M163.2 157.2 L153 156.5 M195.7 150 L195.8 143.6 M192.8 154.2 L185.4 156.1 M133.3 147.6 L128.6 162.1 L134.3 174.5 M163.2 157.7 L167.6 158.1 M167.6 158.1 L170.6 158.6 M248.4 184.9 L248.3 180.1 M170.6 158.6 L183 158.7 M220.7 205.4 L214.6 196.2 L203.8 192.8 M170.5 173.4 L177.3 173.4 M182.3 173.4 L185.4 173.4 M185.3 170.9 L178 167.1 M248.2 189 L248.4 184.9 M230.3 185.6 L230.4 182.5 M135.9 174.8 L129.8 165 L130 158.5 M207.1 127.1 L200.1 127.1 M146.5 173.4 L135 165.5 M153 156.5 L143.2 156.4 M192.5 142.5 L185.4 140.1 M170.5 173.4 L162.5 173.4 M217.6 193.3 L203.8 192.8 M267.2 173.5 L267.2 179.9 M257.6 173.5 L250.2 173.4 M248.3 192.8 L248.2 189 M230.4 141.2 L237.8 138.7 M209.2 127.1 L213.9 127.1 M146.9 156.9 L153 156.9 M213.9 127.1 L218.3 127.1 M230.4 127.1 L237 127.1 M218.3 127.1 L222.6 127.1 M179.1 196 L154.1 195.2 M230.3 193.5 L230 198.7 M253 133.1 L241.1 137.1 M170.3 196.8 L188.7 196.3 M252.3 200.2 L249 195.9 M249 195.9 L248.3 192.8 M232.6 193.5 L247.7 193.5 M189.3 196.3 L202 196.3 M250.8 193.5 L276.6 193.5 M199.4 191.8 L191.8 191.9 M222.3 192.9 L230.3 193.5 M210.6 196.8 L217.2 202.4 M209.2 121.5 L209.2 113.3 M193.5 121.5 L188.5 113.3 M146.6 167 L146.6 158.5 M152.7 120.9 L152.7 95.5 M231.6 114.5 L240.3 116.8 M250.2 119.8 L241.1 116.8 M146.4 181.4 L146.5 173.4 M258.4 131.9 L266.9 129 M200.2 109.2 L190.9 112.3 M230.4 99 L214.4 104.4 M240.2 116.3 L232.4 113.3 M276.6 167.6 L269.7 165.8 M162.5 150.1 L185.4 150 M276.6 184.4 L276.6 175.9 M266.6 180.4 L235.5 180.8 M138 188.9 L105.7 200.1 M195.7 167 L185.3 167 M200.2 103.1 L187 98.7 M117.5 148.6 L117.2 161.5 L119.3 165.9 M135.1 182.3 L127.5 177.9 L125.4 173.1 M185.4 150 L195.7 150 M230.3 188.8 L257.9 186.9 L272.9 188.3 M241.1 155.5 L230.3 155.5 M195.8 145.7 L185.4 145.7 M230.3 145.8 L222.6 145.8 M241.1 145.8 L230.3 145.8 M226.6 154.6 L222.7 154.3 M230.3 155.5 L226.6 154.6 M146.6 140.2 L168.9 140.2 M185.4 145.7 L177.3 145.7 M177.3 145.7 L164.8 145.6 M170.6 156.3 L170.6 147.8 M215.9 137.2 L218.2 132.4 M209.5 137.3 L209.4 132.5 M208.9 132.5 L208.9 137.3 M162.6 132.4 L162.5 145.6 M177.3 140.2 L185.4 140.1 M230.3 180.9 L225.4 182.1 M247.9 173.4 L247.7 180.6 M248.1 145.8 L241.1 145.8 M249 180.6 L250.2 173.4 M209.2 126.6 L200.1 126.6 M152.5 145.7 L152.6 129.8 M209 127.6 L208.9 132.5 M200.1 132.4 L201.7 135.7 M257.8 155.5 L257.8 162.6 M200.1 127.6 L200.1 132.4 M209.4 132.5 L209.5 128.3 M162.5 145.6 L149 145.6 M158.7 206.2 L175.5 219 L187.6 225.6 M285.8 161.4 L267.1 161.4 M170.7 145.7 L170.7 140.2 M230.3 126.6 L222.6 126.6 M170.7 140.2 L177.3 140.2 M232.4 113.1 L253 113.2 M201.7 135.7 L202.6 137.3 M253 155.5 L248.1 155.5 M248.1 115.8 L248.1 92.8 M162.6 135.2 L146.7 135.2 M152.4 150 L162.5 150.1 M243.1 155.5 L241.1 155.5 M233.6 213.9 L245.7 217.2 L259.7 216.6 M132.7 165.2 L132.5 158.9 L142.1 156.9 M228.9 211 L226.1 208.6 L228 207.2 M205.3 127.6 L207.1 127.1 M228.3 228.8 L224.3 229.5 L221.8 227.9 L225.3 221.9 M250.5 215.1 L240 215.4 M189.6 127.7 L191.2 127.1 M131.2 152 L127 158.1 M310.5 163.4 L312.2 179.2 M226.2 127.1 L226.9 127.6 M258.7 215.4 L248.1 216.2 M182.1 127.7 L183.3 127.1 M177.9 127.1 L179.5 127.7 M251.7 205 L248 205 M312.9 180.8 L314.5 166.5 M174.2 127.7 L175.8 127.1 M243 127.1 L244.2 127.6 M246.1 127.6 L247.4 127.1 M167.5 127.7 L169 127.1 M119.1 134.5 L117.4 135.3 M222.9 121.5 L225.3 121.5 M222 121.7 L222.9 121.5 M257.6 210.1 L257.5 213.4 L258.8 213.4 M257 213.3 L258.1 210.1 M293 161.3 L290.3 160.4 M256.7 211.2 L257 213.3 M258.8 213.4 L258.9 211.2 M129.7 150 L130.1 151.2 M146.2 198.3 L147.4 197.5 M290.4 132.4 L288.3 132.3 M191.2 127.1 L195.5 127.1 M237.3 223.8 L249.9 219.4 L253.5 215 M130 158.5 L134.4 149.8 M142.1 156.9 L146.9 156.9 M140.4 173.1 L146.5 173.4 M237 127.1 L241.1 127.1 M183.3 127.1 L179.7 127.1 M253.5 204.5 L252.3 200.2 M230 200.6 L230 205.5 M160 173.4 L156.2 173.4 M248.1 127.1 L253 127.1 M279.5 215.9 L259 216 M237.3 223.8 L249.1 218 M138 179.4 L135.9 174.8 M269.5 173.5 L276.6 173.5 M134.2 146.4 L129.7 140.5 M172.9 127.1 L175.8 127.1 M220.8 223.2 L216.4 227.1 L209.8 228.6 M128.3 140.4 L133 146.3 M151.8 173.4 L146.5 173.4 M136 172.2 L140.4 173.1 M216.7 228.1 L223.3 220.9 M253 127.1 L253 123.2 M120 169.3 L95.3 173.3 M285.9 150.1 L285.8 139.6 M253.5 208.4 L253.5 204.5 M256.8 217.1 L272.6 216.9 M259 216 L248.2 216.5 M97.9 173.5 L120.3 169.9 M227.7 215 L229.4 212.3 M153.9 127.3 L160.7 127.2 M311.8 161.1 L312.2 179.2 M198.1 231.1 L176.9 251.5 M228.8 212 L227.3 214.5 M160.7 126.9 L153.9 126.9 M266.9 201.2 L266.9 206.8 M248.2 216.5 L240.7 220.4 M228.4 229 L222.1 230.7 L213.7 230.1 M134.4 149.8 L134.2 146.4 M121.8 132.6 L128 140.2 M125.6 170.1 L132 171.4 M132 171.4 L136 172.2 M211.1 229.7 L198.1 231.1 M253 119.8 L253 114.9 M224.4 219.5 L226.5 216.5 M240.7 220.4 L234.1 225.2 M209.8 228.6 L198.1 231.1 M253.5 211.8 L253.5 208.4 M195.7 234.2 L175.3 254.5 M227.3 214.5 L225.9 216.3 M166.5 127.1 L168.3 127.1 M142.5 127.2 L150.9 127.3 M127.8 165.5 L122.5 168.6 M225.9 216.3 L224.3 218.5 M285.8 161.4 L285.9 155.5 M312.9 180.8 L312.7 165.5 M150.9 126.9 L142.5 126.9 M249.1 218 L256.8 217.1 M312.7 156.1 L312.8 141.6 M159.4 246.2 L146.1 232.6 L132.6 223.4 M175.8 254.9 L194.7 236 M129.7 140.5 L125.4 136.3 M231.2 228.5 L237.3 223.8 M311.9 143.7 L311.9 156.1 M253.5 215 L253.5 211.8 M309.5 126.6 L311.6 131.5 L311.9 141.4 M108.9 224 L130.6 223.2 L149.3 236.3 M224.3 218.5 L222.8 220.5 M222.8 220.5 L220.8 223.2 M312.2 179.2 L313.4 195.3 M312.8 141.6 L312.8 131.4 L310.3 126.6 M215.5 231.7 L225.8 231 M285.9 88.9 L285.9 113.2 M205 235.7 L215.5 231.7 M253 113.2 L253 107.9 M108.7 127.3 L121.8 132.6 M130.4 164.6 L127.8 165.5 M280.7 173.5 L285.9 173.5 M267 207.8 L267 211.7 M316.6 196.8 L313.3 191.5 L312.9 180.8 M106.6 199.2 L97.3 189.3 L83.2 183.7 M285.8 166.7 L285.8 163.1 M146.7 195.9 L157.3 196.4 M267.4 129 L276.6 129 M295.7 216 L279.5 215.9 M138.5 192.1 L135.3 187.4 L135.9 183.1 M276.6 125.2 L267.1 125.2 M303 139.2 L303 155.5 M272.6 216.9 L282.3 216.7 M232.2 226.6 L228.4 229 M124.1 172.6 L117.6 160.7 M303.1 116.6 L309.5 126.6 M205 235.7 L210.1 231.6 M134 127.2 L140.2 127.2 M267 214.4 L267.1 218.4 M140.2 126.9 L134 126.9 M285.9 131.8 L285.9 127.1 M276.6 129 L285.9 131.8 M134 126.9 L124.9 126.9 M318.3 203.6 L319.3 209.4 L317.2 213.3 L304.1 216 M210.1 231.6 L213.9 229.7 M209.1 99.7 L208.3 105.2 M213.9 229.7 L216.7 228.1 M119.3 117 L128.9 100.9 L134.1 98.2 L141 98.3 M285.8 137.3 L285.9 134.4 M190.2 250.5 L200.1 240.6 M116.2 126.5 L104.1 126.7 M267.1 113.2 L267.1 119.8 M310.3 126.6 L304.7 118.4 M209.3 95.5 L209.3 82.3 M220.4 219.9 L215.8 226.9 M225.8 231 L229.2 229.6 M147.3 103.7 L146.7 115 M276.6 193.5 L285.9 193.5 M69.1 158.6 L74.9 169.9 L81.8 191.2 L86.3 197.7 M104.1 126.7 L87.1 126.6 L60.3 119.9 M285.9 113.2 L285.9 119.8 M114.7 210 L107.3 200.3 M114.7 136.3 L117.5 148.6 M297.6 216.6 L318 216.6 M81.7 182.8 L78.5 179.2 L66.9 153.5 M129.6 141.9 L121 137.3 M312.7 165.5 L312.7 161.1 M182.8 103.7 L179.5 98.6 M90.6 127.1 L107.1 127.1 M253 104.4 L253 101.8 M292.6 120.2 L303.1 116.6 M108.7 127.3 L115.8 127.6 M123.3 217.7 L115.8 210.9 M282.3 216.7 L288.2 216.6 M124.9 127.2 L129.7 127.2 M202.7 238 L205 235.7 M311.8 157.2 L311.8 159.8 M181 96.2 L178.5 93.2 L174.3 94.1 M312.7 159.8 L312.7 157.3 M276.6 212.7 L276.6 205.6 M200.1 240.6 L202.7 238 M83.6 209.2 L102.5 230.4 M230.3 93.3 L230.4 85.6 M297.6 217 L309.2 217.1 M253 100.2 L253 98.3 M311.9 141.4 L311.9 143.7 M313.4 195.3 L317.1 201.3 M119.9 126.7 L118.2 126.6 M267.1 86.4 L257.8 89.5 M90.1 174.2 L81.9 174.8 L73.5 172.5 M104.4 213.9 L110.8 218.7 L113.1 223.3 M170.8 93.3 L159.8 89.6 M318.1 216 L304.1 216 M141.1 275.2 L141.7 263.2 L134.2 251.3 L129.6 247.6 L117.3 243 L108.1 234.4 M307.5 173.4 L307.5 165.9 M290.1 216.6 L295.7 216.6 M290.1 216.6 L295.8 216.9 M267.1 100.3 L267.1 106.1 M245.1 94.4 L253 91.8 M253 91.2 L244.8 93.9 M255.7 90.9 L261.7 88.9 M132.6 223.4 L127.6 220.8 M245.6 155.5 L243.1 155.5 M200.1 127.6 L205.3 127.6 M127.6 220.8 L123.3 217.7 M318 216.6 L345.3 222.8 M257.8 150.1 L257.8 155.5 M344.2 221.8 L318.1 216 M247.4 205 L231.1 205 M232.8 180.8 L230.3 180.9 M195.5 126.6 L188.9 126.6 M235.5 180.8 L232.8 180.8 M189.6 127.7 L195.5 127.7 M257.8 139.1 L257.8 145.8 M263.1 225.3 L257.2 221.7 M304.1 216 L297.6 216 M209.4 127.6 L213.9 127.6 M117.8 244.3 L132.8 250.9 L140 261.6 L141.1 266.6 M222.6 126.6 L225.2 121.7 M72.1 122.8 L90.6 127.1 M304.7 118.4 L304.5 116.1 M253 145.8 L248.1 145.8 M185.5 126.6 L177.3 126.6 M213.9 126.6 L209.2 126.6 M162.5 173.4 L162.5 168.3 M267.1 145.5 L257.8 145.8 M213.9 127.6 L218.2 127.6 M93.7 207.9 L100.4 219.4 M248.1 155.5 L245.6 155.5 M225.5 187.8 L228.9 188.6 M225.1 127.6 L230.4 127.6 M319.7 201.7 L316.6 196.8 M318.4 214.1 L321 210.6 L321.3 205.3 M218.2 132.4 L218.2 130.4 M218.1 126.6 L213.9 126.6 M205.3 127.6 L209 127.6 M72.1 191.2 L82.2 207 M257.5 167.6 L257.6 171.9 M236.3 126.6 L230.3 126.6 M162.4 159.8 L162.4 163.6 M257.9 132.1 L257.8 139.1 M162.5 145.6 L162.5 150.1 M53 135.7 L61.3 140.8 L67.5 155.8 M111.9 216.2 L108.9 210.9 M222.6 126.6 L218.4 126.6 M170.8 256.4 L162.1 249.1 M200.1 126.6 L196.1 125.8 M262.9 226 L270.7 231.9 M257.8 145.8 L257.8 150.1 M154.3 241.4 L158.9 246.4 M83 206.8 L74 192.4 M257.9 90.1 L257.9 113.2 M257.8 145.8 L253 145.8 M83.7 175.4 L91.3 174.5 M150.2 181.4 L155.6 174.7 M267.1 87 L275.4 84.3 M170.6 147.8 L170.7 145.7 M241.1 127.6 L248.1 127.6 M102.5 230.4 L116.4 243.4 M276.7 230.2 L276.9 221.4 M113.8 223.3 L112.2 217 M260.7 62.8 L230.4 62.8 M186.7 268.1 L173 258.1 M177.3 121.7 L185.5 121.7 M183 257.7 L189 251.8 M95.3 173.3 L91.1 174 M273 232.8 L265.1 226.9 M91.4 174.8 L95.5 174 M91.3 174.5 L95.4 173.8 M162.6 135.2 L168.9 134.6 M84.8 175.9 L91.4 174.8 M253 155.5 L255.9 155.5 M267.1 88.9 L267.1 95.5 M218.2 130.4 L218.2 129 M162.5 156 L162.4 158.7 M257.6 164.8 L257.5 167.6 M170.8 127.7 L177.3 127.7 M247.7 188.6 L247.7 193.5 M162.5 151.5 L162.5 154.3 M261.4 155.4 L267.1 155.5 M276.6 150.5 L267.1 150.4 M230.4 83.1 L230.3 75.7 M170.7 140.2 L170.7 137.5 M225.2 121.7 L227.9 117.3 M151.5 238.4 L154.3 241.4 M307.5 179.9 L282.4 180.2 M258.3 170.8 L258.3 167.9 M309.2 217.1 L316.7 215.3 M218.2 129 L218.2 127.6 M222.6 127.6 L225.1 127.6 M241.1 126.6 L236.3 126.6 M113.8 227.2 L114.3 237.4 M321.5 110.2 L310.9 113.7 M149.3 236.3 L151.5 238.4 M258.3 167.9 L258.2 165.5 M93.2 220.1 L84.4 209 M188.9 126.6 L185.5 126.6 M162.7 90.6 L162.7 110.7 M155.6 85.1 L162.5 76.4 M178.7 262.8 L187.4 269.8 L192 276.7 L192.3 284.1 L188.8 290.9 M73 191.2 L65.5 183.8 L66.1 171.9 M258.2 173.5 L258.3 170.8 M162.4 164.5 L162.3 166.6 M182.1 127.7 L185.4 127.7 M276.6 180.3 L266.6 180.4 M230.3 75.7 L230.4 62.8 M86.3 197.7 L91.5 204.4 M228.9 188.6 L230.3 188.8 M258.2 165.5 L258.1 163.4 M115 236.8 L114.5 227.8 M158.7 206.2 L160.9 203.6 L157.3 196.4 M258.4 155.4 L261.4 155.4 M307.6 193.5 L307.5 199.4 M170.7 137.5 L170.7 135.2 M170.7 135.2 L170.8 132.4 M162.6 127.1 L162.6 132.4 M162.5 154.3 L162.5 156 M305.9 166.8 L285.8 166.7 M321.3 205.3 L319.7 201.7 M152.4 150 L152.5 145.7 M209.5 128.3 L209.4 127.6 M164.4 252.1 L170.8 257.3 M245.2 126.6 L241.1 126.6 M134.1 140.2 L146.6 140.2 M257.8 100.2 L290.4 100.3 M276.6 188.3 L295 188 M170.7 121.7 L177.3 121.7 M185.4 127.7 L187.6 127.7 M187.6 127.7 L189.6 127.7 M170.7 121.7 L170.9 115 M168.9 140.2 L170.7 140.2 M317.1 201.3 L318.3 203.6 M141.1 82.2 L113.5 62.7 M164.8 145.6 L162.5 145.6 M163.7 270.5 L171.9 258.7 M162.8 165.8 L162.5 167.1 M162.5 150.1 L162.5 151.5 M175.2 126.6 L170.9 126.6 M76.4 174.3 L83.7 175.4 M152.4 153.5 L152.4 150 M179.5 127.7 L182.1 127.7 M255.9 155.5 L257.3 155.5 M162.7 113.4 L162.6 121.7 M101.4 228.5 L93.2 220.1 M276.6 165.4 L285.8 163.1 M257.6 171.9 L257.6 173.5 M169.9 82.3 L165.9 75.7 M162.5 168.3 L162.5 167.1 M232.7 109.3 L238.1 100.4 M257.8 127.1 L257.9 131.5 M209.4 127.6 L209.2 127.1 M209.2 127.1 L209 127.6 M170.8 130.5 L170.8 127.7 M146.6 145.6 L137.8 146.1 M162.1 249.1 L159.4 246.2 M87.1 174.4 L82.7 173.8 M307.2 115.2 L304.5 116.1 M285.9 82.3 L285.9 88.9 M257.6 163.8 L257.6 164.8 M90.1 174.2 L87.1 174.4 M195.5 127.7 L196.1 127.1 M158.9 246.4 L161.7 249.4 M152.7 121.7 L162.6 121.7 M218.2 127.6 L218.3 127.1 M257.4 196.7 L257.4 203.6 M230.4 62.8 L212 62.8 M200.1 127.1 L200.1 127.6 M162.8 165 L162.8 165.8 M147.7 150 L152.4 150 M162.4 163.6 L162.4 164.5 M196.1 127.1 L195.5 126.6 M331.3 173.5 L321.5 173.5 M258.1 163.4 L257.8 162.6 M170.8 132.4 L170.8 130.5 M177.3 127.7 L179.5 127.7 M170.9 126.6 L170.7 123.3 M221.1 248.5 L196.4 231.6 M209 127.6 L209.4 127.6 M258.3 203.3 L258.4 196.7 M290.3 150.1 L290.4 139.1 M256.7 244.1 L234 227.1 M162.4 158.7 L162.4 159.4 M222.6 127.1 L222.6 126.6 M233.4 227.7 L255.9 244.5 M162.6 121.7 L162.6 126.6 M192.6 285.8 L193 277.1 L186.7 268.1 M276.6 214.7 L256.9 214.2 M257.8 122.4 L257.8 127.1 M248.1 126.6 L245.2 126.6 M167.5 127.7 L170.8 127.7 M75.7 174 L67.7 179 M162.4 164.5 L162.8 165 M80.6 176.6 L84.8 175.9 M143.5 91.2 L138.3 86.1 M241.1 100.2 L257.8 100.2 M67.3 167.1 L65.2 157.6 M161.7 249.4 L164.4 252.1 M176.9 251.5 L174.6 253.7 M162.3 166.6 L162.5 167.1 M177.3 126.6 L175.2 126.6 M257.7 163.3 L257.6 163.8 M285.9 80.1 L285.6 69.7 M248.1 121.7 L253 121.7 M162.4 159.4 L162.4 159.8 M333.8 106.1 L321.5 110.2 M321.5 110.8 L333.4 106.8 M257.3 155.5 L257.8 155.5 M65.5 181.4 L75.3 178.3 M257.9 113.2 L257.9 119.8 M257.8 162.6 L257.7 163 M162.6 121.7 L168.1 121.8 M114.3 226.1 L113.8 223.3 M272.8 233.5 L279.4 238.8 M257.7 163 L257.7 163.3 M103.8 222.2 L108.9 224 M257.8 155.5 L258.4 155.4 M218.4 126.6 L218.1 126.6 M63.4 153.3 L65 163.1" fill="none" stroke="#1f3733" stroke-width="2.7" opacity="0.9" stroke-linecap="round" stroke-linejoin="round"/>
</g>
<g data-layer="minor-road-casing">
<path d="M110 120.2 L109.2 82.5 M114.7 107.8 L65.1 108.2 M330.4 106.1 L281.8 106.2 M361.4 178.6 L409.7 178.5 M95.6 113.2 L95.2 98.7 L86.7 79.2 M290.3 113.2 L290.3 79.2 M272.5 22.2 L228.6 24 M108.2 37.4 L104.5 37.4 L98.2 30.4 L89.7 27.2 L83.9 19.9 L79.3 18.3 L78.9 16.1 M105 115.1 L104.4 82.6 M368.1 221.5 L411 221.5 M125 100.3 L83.3 101 M368.2 188.5 L409.1 188.8 M383.3 238.1 L343.2 238.1 M361.4 155.6 L400.8 155.6 M267.1 75.7 L230.3 75.7 M55.8 22.1 L20.6 22 M70.3 77.4 L35.9 78.2 M73.1 108.1 L73.5 83.3 M177.4 85.6 L209.3 85.5 M379.8 132.4 L411.1 132.5 M406.3 183.6 L406.3 206.7 M259.4 27.8 L229 28.4 M335.2 75.9 L304.9 76.3 M248.2 69.1 L248.2 46.3 M395.4 114.9 L395.2 137.4 M177.4 67.7 L167.7 46.6 M368.2 159.7 L368.2 137.4 M406.3 178.5 L406.4 156.4 M152 66.9 L143.4 69 L123.4 69.7 M85.3 104.6 L114.6 104.1 M198.4 56.5 L192.9 46.1 L192.2 35.6 M355.2 234.2 L384 234.2 M379.8 164.6 L379.8 143.1 M59.7 112.1 L88.1 111.5 M395.2 139.3 L395.4 160.6 M335.7 92.2 L307.6 92.2 M271.9 84.8 L271.9 64.1 M368.2 208.1 L395.2 208.1 M207.1 14.6 L186.4 13.9 L183.3 10.3 M144.3 65.9 L126.4 65.9 L119.8 61.4 M395.2 210.4 L395.2 230.5 M335.7 48.5 L309 48.4 M336.1 53.2 L309.6 53.2 M379.8 121.8 L406.3 121.8 M384.7 215 L411 215 M95.8 81.1 L81.3 77.6 L70.3 77.4 M411 143.1 L385.2 143.1 M140.6 145.7 L140.7 126.6 M167 57.4 L161.8 47.5 L160.6 39.1 M335.3 57.9 L310.2 57.9 M368.2 161.4 L392.9 161.8 M335.3 62.8 L310.8 62.9 M167 57.4 L144.3 64.1 M230.3 92.2 L206.2 92.2 M375 36.2 L395.1 26.8 M143.3 59.4 L129.4 58.6 L122.8 63.6 M257.9 106.1 L234.7 106.1 M45.8 33.4 L45.8 16.1 M335.7 79.1 L312.7 79.1 M135.2 75.7 L135.2 58.6 M354.8 91.3 L365.5 91 L368.2 82.4 M338.6 106.2 L361.3 105.9 M357.1 57.9 L379.8 57.9 M271.8 106.2 L271.9 89.2 M58.1 73.6 L35.7 74.2 M36.1 149.7 L34 147.3 L25.6 147.7 L19.4 149.6 L19 151.9 M209.3 75.7 L187 75.7 M125.4 45.6 L112.7 42.8 L108.2 37.4 M31.5 173 L9.3 174.7 M83.5 30.3 L84.9 25.6 L81.7 22.2 L85.7 19 L86.1 16 M7.1 199.9 L19.7 194.5 L27.1 194 M157.3 75.7 L135.2 75.7 M368.2 178.5 L368.2 162.3 M30.6 33.3 L8.9 33.4 M368.4 29.5 L389.8 29.5 M85.5 126.4 L65.6 121.2 M132.1 106.4 L132 122.1 M230.3 75.7 L209.3 75.7 M50.7 275.5 L38.4 268.3 L34.5 270.7 M307.6 95.5 L307.6 79.9 M368.2 121.7 L368.2 106.1 M79.8 94.7 L59.1 95.2 M20.2 293.7 L22.5 309.1 M292.1 68.2 L289.6 52.8 M152.7 106.1 L132.1 106.4 M257.8 62.8 L257.8 47.4 M361.4 227.1 L361.3 242.5 M42.7 82.4 L43.2 86 L58.7 85.6 M144.3 62.8 L124.1 62.5 M18.6 38.2 L18.6 53.2 M10.1 38.2 L10.1 53.2 M33.7 24.7 L33.7 9.8 M304.4 63.3 L284.7 65.1 M395.2 24.7 L395.2 9.9 M51 33.4 L51 18.7 M177.5 82.4 L177.4 67.7 M379.8 183.6 L379.8 169 M112 22 L94.9 16.1 M379.8 183.6 L379.8 198.1 M50.1 82.3 L49.5 67.8 M315.2 48.4 L315.2 62.9 M33.8 53.2 L14.6 53.2 M266.5 46 L264.8 31.7 M37.5 55.1 L31 41.8 M29.4 191.4 L34.1 183.7 L31.9 178.3 M368.2 43.7 L368.4 29.5 M81.6 77.7 L83.5 91.8 M361.1 132.4 L379.8 132.4 M28.9 138.2 L10.4 138.3 M361.2 121.7 L379.8 121.8 M77.5 90.4 L58.9 90.8 M271.8 59.4 L271.1 45.6 M114 82.5 L95.8 81.1 M361.4 66 L343.2 66 M170.9 106.2 L152.7 106.1 M198.7 49.1 L197.9 35.4 M170.9 100.3 L152.7 100.3 M337.5 89 L355.5 89 M299.2 43 L281.4 44.6 M361.2 34.2 L379.1 34.4 M256.8 69.1 L257.8 82.3 M206.6 52.3 L199.7 54.4 L198.8 53.1 L206.7 51 M40.3 16.1 L22.6 16.1 M368.1 221.5 L368.2 208.1 M406.2 251 L406.2 264.2 M406.4 156.4 L406.3 143.1 M66.2 29.2 L66.5 16.1 M35.9 78.2 L35.3 65 M281.1 82.4 L281.2 95.5 M400.8 238.1 L383.3 238.1 M344.1 62.9 L361.4 62.8 M393.7 161.5 L411 161.5 M65.1 108.2 L47.8 108.6 M111.8 35 L112 22 M295.2 52.3 L278.2 53.8 M120.3 111.2 L120.3 98.4 M202.7 92.2 L185.6 92.2 M55.9 297.6 L39.3 297.3 M384.8 31.8 L384.7 19.2 M131 24.4 L114.5 22.3 M33.1 195.9 L36.9 195.5 L36.8 193.4 L27.1 194 M9.4 200.9 L23.5 194.2 M55.9 297.6 L39.7 298.5 M348.1 301.5 L356.5 305.1 L354.8 310.1 M53.3 99.7 L53.8 112.2 M23.6 73.3 L23.1 70.5 L15.5 62.9 M350.5 200.3 L350.4 212.8 M58.5 82 L58 69.6 M27.1 41.8 L33.8 53.2 M22.6 22 L22.6 9.7 M303.1 91.5 L303.1 79.4 M99 40.2 L100 32.8 L104.4 29.5 M41.8 65 L57.7 64.6 M363.9 230.3 L363.9 242.5 M28.2 22 L28.1 9.9 M400.8 24.3 L400.9 12.1 M136.2 58.6 L138 55.8 L135 54.2 L132.3 56.1 L134 58.6 M307.5 230.5 L307.5 242.5 M40.6 269.4 L30.7 278.8 M188.4 26.4 L176.3 34.3 M134.5 14.8 L141.1 25.7 M71.7 22 L55.8 22.1 M58 69.6 L42.1 70 M76.8 103.6 L77.2 115.5 M17.3 180.9 L15.7 169.1 M321.4 295.3 L321.5 283.5 M38.3 46.4 L22.6 46.5 M197.2 17.6 L196.1 22 L188.4 26.4 M351.6 10.9 L350.2 11.4 L346.6 7.5 L351.6 10.9 M144.3 75.7 L144.3 64.1 M317.9 230.3 L313.7 241.4 M258.4 211.2 L264.1 211.1 L264.3 208.4 L258.3 208.4 M120.3 111.2 L104.9 111.3 M25.9 193.4 L24.3 182.1 M379.8 215 L379.8 226.3 M395.2 161.5 L395.2 172.8 M55.1 301.3 L40 301.7 M354.1 69.2 L353.9 58 M393 258.7 L401.2 258.6 L404.4 254.7 M350.4 117.4 L335.6 117.5 M170.8 82.3 L170.5 71.3 M99.8 37.1 L92.8 35.5 L88 31.3 M114.7 107.8 L114.4 96.8 M185.5 106.1 L200.2 106.1 M280.4 38.6 L278.6 27.7 M336.2 39 L321.6 39 M200.2 66 L185.6 66 M406.9 20.6 L406.4 9.8 M22.3 179 L20.8 168.2 M336 121.7 L350.5 121.7 M228.7 25.1 L214.4 25.9 M308.8 46.5 L294.5 47.9 M361.3 224.7 L374.9 228.1 M94.8 33.4 L92.7 29.2 L97.9 24.7 M336.1 234.1 L350.4 234.2 M361.4 218.4 L374.9 215.1 M295.2 52.3 L309.4 51 M62.9 163.2 L61.8 152.5 M281.4 75.7 L267.1 75.7 M72.9 86.1 L58.7 86.4 M321.6 43.7 L335.7 43.7 M83.6 31.4 L74.1 23.9 M321.6 25.8 L335.7 25.9 M335.7 25.1 L321.6 25.1 M309.9 55.4 L295.9 56.7 M336.5 109.7 L350.5 109.7 M375.4 143.1 L361.4 143.1 M335.6 30.5 L321.6 30.4 M111.9 36.3 L122.9 42.5 M271.5 15.7 L257.7 16.9 M328.5 268.1 L314.6 268.2 M57.8 161.9 L57.2 151.5 M272.2 20 L258.4 21.3 M361.4 75.8 L375 75.4 M81.7 73.2 L67.9 72.9 M273.1 26.6 L259.4 27.8 M230.9 46.8 L217.3 46.9 M171.9 55.2 L185.7 55.1 M379.8 202.5 L379.8 212.8 M406.3 211.2 L406.3 221.5 M335.2 72.5 L321.6 72.5 M316.4 234.3 L302.8 234.2 M368.2 137.4 L368.2 127.2 M361.4 200.3 L375 200.3 M321.6 43.7 L308.8 46.5 M374.9 166.7 L361.4 166.8 M361.4 39 L375 39 M55.7 28.6 L42.2 28.6 M198.6 73.7 L185.6 72.4 M10.6 199.3 L14.7 208.9 M184.3 75.7 L170.8 75.7 M140.7 125 L140.7 115 M27.3 81.6 L25.3 77.5 L23.4 77.7 L23.5 81.5 M181.5 25.2 L171.5 31.7 M38.3 169.1 L25.1 170.4 M112 20.3 L111.9 10.4 M40.4 39.5 L41.1 49.3 M61.3 25.9 L61.2 16.1 M395.2 183.6 L395.2 193.4 M176.1 24.3 L188.4 26.4" fill="none" stroke="#fbf7eb" stroke-width="3.4" opacity="0.62" stroke-linecap="round" stroke-linejoin="round"/>
</g>
<g data-layer="minor-road">
<path d="M110 120.2 L109.2 82.5 M114.7 107.8 L65.1 108.2 M330.4 106.1 L281.8 106.2 M361.4 178.6 L409.7 178.5 M95.6 113.2 L95.2 98.7 L86.7 79.2 M290.3 113.2 L290.3 79.2 M272.5 22.2 L228.6 24 M108.2 37.4 L104.5 37.4 L98.2 30.4 L89.7 27.2 L83.9 19.9 L79.3 18.3 L78.9 16.1 M105 115.1 L104.4 82.6 M368.1 221.5 L411 221.5 M125 100.3 L83.3 101 M368.2 188.5 L409.1 188.8 M383.3 238.1 L343.2 238.1 M361.4 155.6 L400.8 155.6 M267.1 75.7 L230.3 75.7 M55.8 22.1 L20.6 22 M70.3 77.4 L35.9 78.2 M73.1 108.1 L73.5 83.3 M177.4 85.6 L209.3 85.5 M379.8 132.4 L411.1 132.5 M406.3 183.6 L406.3 206.7 M259.4 27.8 L229 28.4 M335.2 75.9 L304.9 76.3 M248.2 69.1 L248.2 46.3 M395.4 114.9 L395.2 137.4 M177.4 67.7 L167.7 46.6 M368.2 159.7 L368.2 137.4 M406.3 178.5 L406.4 156.4 M152 66.9 L143.4 69 L123.4 69.7 M85.3 104.6 L114.6 104.1 M198.4 56.5 L192.9 46.1 L192.2 35.6 M355.2 234.2 L384 234.2 M379.8 164.6 L379.8 143.1 M59.7 112.1 L88.1 111.5 M395.2 139.3 L395.4 160.6 M335.7 92.2 L307.6 92.2 M271.9 84.8 L271.9 64.1 M368.2 208.1 L395.2 208.1 M207.1 14.6 L186.4 13.9 L183.3 10.3 M144.3 65.9 L126.4 65.9 L119.8 61.4 M395.2 210.4 L395.2 230.5 M335.7 48.5 L309 48.4 M336.1 53.2 L309.6 53.2 M379.8 121.8 L406.3 121.8 M384.7 215 L411 215 M95.8 81.1 L81.3 77.6 L70.3 77.4 M411 143.1 L385.2 143.1 M140.6 145.7 L140.7 126.6 M167 57.4 L161.8 47.5 L160.6 39.1 M335.3 57.9 L310.2 57.9 M368.2 161.4 L392.9 161.8 M335.3 62.8 L310.8 62.9 M167 57.4 L144.3 64.1 M230.3 92.2 L206.2 92.2 M375 36.2 L395.1 26.8 M143.3 59.4 L129.4 58.6 L122.8 63.6 M257.9 106.1 L234.7 106.1 M45.8 33.4 L45.8 16.1 M335.7 79.1 L312.7 79.1 M135.2 75.7 L135.2 58.6 M354.8 91.3 L365.5 91 L368.2 82.4 M338.6 106.2 L361.3 105.9 M357.1 57.9 L379.8 57.9 M271.8 106.2 L271.9 89.2 M58.1 73.6 L35.7 74.2 M36.1 149.7 L34 147.3 L25.6 147.7 L19.4 149.6 L19 151.9 M209.3 75.7 L187 75.7 M125.4 45.6 L112.7 42.8 L108.2 37.4 M31.5 173 L9.3 174.7 M83.5 30.3 L84.9 25.6 L81.7 22.2 L85.7 19 L86.1 16 M7.1 199.9 L19.7 194.5 L27.1 194 M157.3 75.7 L135.2 75.7 M368.2 178.5 L368.2 162.3 M30.6 33.3 L8.9 33.4 M368.4 29.5 L389.8 29.5 M85.5 126.4 L65.6 121.2 M132.1 106.4 L132 122.1 M230.3 75.7 L209.3 75.7 M50.7 275.5 L38.4 268.3 L34.5 270.7 M307.6 95.5 L307.6 79.9 M368.2 121.7 L368.2 106.1 M79.8 94.7 L59.1 95.2 M20.2 293.7 L22.5 309.1 M292.1 68.2 L289.6 52.8 M152.7 106.1 L132.1 106.4 M257.8 62.8 L257.8 47.4 M361.4 227.1 L361.3 242.5 M42.7 82.4 L43.2 86 L58.7 85.6 M144.3 62.8 L124.1 62.5 M18.6 38.2 L18.6 53.2 M10.1 38.2 L10.1 53.2 M33.7 24.7 L33.7 9.8 M304.4 63.3 L284.7 65.1 M395.2 24.7 L395.2 9.9 M51 33.4 L51 18.7 M177.5 82.4 L177.4 67.7 M379.8 183.6 L379.8 169 M112 22 L94.9 16.1 M379.8 183.6 L379.8 198.1 M50.1 82.3 L49.5 67.8 M315.2 48.4 L315.2 62.9 M33.8 53.2 L14.6 53.2 M266.5 46 L264.8 31.7 M37.5 55.1 L31 41.8 M29.4 191.4 L34.1 183.7 L31.9 178.3 M368.2 43.7 L368.4 29.5 M81.6 77.7 L83.5 91.8 M361.1 132.4 L379.8 132.4 M28.9 138.2 L10.4 138.3 M361.2 121.7 L379.8 121.8 M77.5 90.4 L58.9 90.8 M271.8 59.4 L271.1 45.6 M114 82.5 L95.8 81.1 M361.4 66 L343.2 66 M170.9 106.2 L152.7 106.1 M198.7 49.1 L197.9 35.4 M170.9 100.3 L152.7 100.3 M337.5 89 L355.5 89 M299.2 43 L281.4 44.6 M361.2 34.2 L379.1 34.4 M256.8 69.1 L257.8 82.3 M206.6 52.3 L199.7 54.4 L198.8 53.1 L206.7 51 M40.3 16.1 L22.6 16.1 M368.1 221.5 L368.2 208.1 M406.2 251 L406.2 264.2 M406.4 156.4 L406.3 143.1 M66.2 29.2 L66.5 16.1 M35.9 78.2 L35.3 65 M281.1 82.4 L281.2 95.5 M400.8 238.1 L383.3 238.1 M344.1 62.9 L361.4 62.8 M393.7 161.5 L411 161.5 M65.1 108.2 L47.8 108.6 M111.8 35 L112 22 M295.2 52.3 L278.2 53.8 M120.3 111.2 L120.3 98.4 M202.7 92.2 L185.6 92.2 M55.9 297.6 L39.3 297.3 M384.8 31.8 L384.7 19.2 M131 24.4 L114.5 22.3 M33.1 195.9 L36.9 195.5 L36.8 193.4 L27.1 194 M9.4 200.9 L23.5 194.2 M55.9 297.6 L39.7 298.5 M348.1 301.5 L356.5 305.1 L354.8 310.1 M53.3 99.7 L53.8 112.2 M23.6 73.3 L23.1 70.5 L15.5 62.9 M350.5 200.3 L350.4 212.8 M58.5 82 L58 69.6 M27.1 41.8 L33.8 53.2 M22.6 22 L22.6 9.7 M303.1 91.5 L303.1 79.4 M99 40.2 L100 32.8 L104.4 29.5 M41.8 65 L57.7 64.6 M363.9 230.3 L363.9 242.5 M28.2 22 L28.1 9.9 M400.8 24.3 L400.9 12.1 M136.2 58.6 L138 55.8 L135 54.2 L132.3 56.1 L134 58.6 M307.5 230.5 L307.5 242.5 M40.6 269.4 L30.7 278.8 M188.4 26.4 L176.3 34.3 M134.5 14.8 L141.1 25.7 M71.7 22 L55.8 22.1 M58 69.6 L42.1 70 M76.8 103.6 L77.2 115.5 M17.3 180.9 L15.7 169.1 M321.4 295.3 L321.5 283.5 M38.3 46.4 L22.6 46.5 M197.2 17.6 L196.1 22 L188.4 26.4 M351.6 10.9 L350.2 11.4 L346.6 7.5 L351.6 10.9 M144.3 75.7 L144.3 64.1 M317.9 230.3 L313.7 241.4 M258.4 211.2 L264.1 211.1 L264.3 208.4 L258.3 208.4 M120.3 111.2 L104.9 111.3 M25.9 193.4 L24.3 182.1 M379.8 215 L379.8 226.3 M395.2 161.5 L395.2 172.8 M55.1 301.3 L40 301.7 M354.1 69.2 L353.9 58 M393 258.7 L401.2 258.6 L404.4 254.7 M350.4 117.4 L335.6 117.5 M170.8 82.3 L170.5 71.3 M99.8 37.1 L92.8 35.5 L88 31.3 M114.7 107.8 L114.4 96.8 M185.5 106.1 L200.2 106.1 M280.4 38.6 L278.6 27.7 M336.2 39 L321.6 39 M200.2 66 L185.6 66 M406.9 20.6 L406.4 9.8 M22.3 179 L20.8 168.2 M336 121.7 L350.5 121.7 M228.7 25.1 L214.4 25.9 M308.8 46.5 L294.5 47.9 M361.3 224.7 L374.9 228.1 M94.8 33.4 L92.7 29.2 L97.9 24.7 M336.1 234.1 L350.4 234.2 M361.4 218.4 L374.9 215.1 M295.2 52.3 L309.4 51 M62.9 163.2 L61.8 152.5 M281.4 75.7 L267.1 75.7 M72.9 86.1 L58.7 86.4 M321.6 43.7 L335.7 43.7 M83.6 31.4 L74.1 23.9 M321.6 25.8 L335.7 25.9 M335.7 25.1 L321.6 25.1 M309.9 55.4 L295.9 56.7 M336.5 109.7 L350.5 109.7 M375.4 143.1 L361.4 143.1 M335.6 30.5 L321.6 30.4 M111.9 36.3 L122.9 42.5 M271.5 15.7 L257.7 16.9 M328.5 268.1 L314.6 268.2 M57.8 161.9 L57.2 151.5 M272.2 20 L258.4 21.3 M361.4 75.8 L375 75.4 M81.7 73.2 L67.9 72.9 M273.1 26.6 L259.4 27.8 M230.9 46.8 L217.3 46.9 M171.9 55.2 L185.7 55.1 M379.8 202.5 L379.8 212.8 M406.3 211.2 L406.3 221.5 M335.2 72.5 L321.6 72.5 M316.4 234.3 L302.8 234.2 M368.2 137.4 L368.2 127.2 M361.4 200.3 L375 200.3 M321.6 43.7 L308.8 46.5 M374.9 166.7 L361.4 166.8 M361.4 39 L375 39 M55.7 28.6 L42.2 28.6 M198.6 73.7 L185.6 72.4 M10.6 199.3 L14.7 208.9 M184.3 75.7 L170.8 75.7 M140.7 125 L140.7 115 M27.3 81.6 L25.3 77.5 L23.4 77.7 L23.5 81.5 M181.5 25.2 L171.5 31.7 M38.3 169.1 L25.1 170.4 M112 20.3 L111.9 10.4 M40.4 39.5 L41.1 49.3 M61.3 25.9 L61.2 16.1 M395.2 183.6 L395.2 193.4 M176.1 24.3 L188.4 26.4" fill="none" stroke="#69776e" stroke-width="1.25" opacity="0.58" stroke-linecap="round" stroke-linejoin="round"/>
</g>
</g>
<g data-layer="north-up-compass" fill="none" stroke="#233934" stroke-linecap="round" stroke-linejoin="round" opacity="0.62">
<path d="M382 48L382 23" stroke-width="1.8"/>
<path d="M382 23L373 39M382 23L391 39" stroke-width="1.8"/>
<circle cx="382" cy="48" r="13" stroke-width="1.1" opacity="0.38"/>
</g>
<rect x="8" y="8" width="404" height="304" rx="16" fill="none" stroke="#233934" stroke-width="1.4" opacity="0.44"/>
</svg>
